solid PythonSCAD_Model
  facet normal 0.4067366438977466 -0.9135454572766467 0
    outer loop
      vertex 12 -20.78460969030857 0
      vertex 7.416407868266106 -22.825356394052505 5
      vertex 7.416407868266106 -22.825356394052505 0
    endloop
  endfacet
  facet normal 0.4067366438977466 -0.9135454572766467 0
    outer loop
      vertex 12 -20.78460969030857 0
      vertex 12 -20.78460969030857 5
      vertex 7.416407868266106 -22.825356394052505 5
    endloop
  endfacet
  facet normal 0.5877852526421089 -0.8090169941209222 0
    outer loop
      vertex 16.059134550392628 -17.83547580987215 0
      vertex 12 -20.78460969030857 5
      vertex 12 -20.78460969030857 0
    endloop
  endfacet
  facet normal 0.5877852526421089 -0.8090169941209222 0
    outer loop
      vertex 16.059134550392628 -17.83547580987215 0
      vertex 16.059134550392628 -17.83547580987215 5
      vertex 12 -20.78460969030857 5
    endloop
  endfacet
  facet normal 0.7431448246261758 -0.669130607304232 0
    outer loop
      vertex 19.416407868266106 -14.106846056878567 0
      vertex 16.059134550392628 -17.83547580987215 5
      vertex 16.059134550392628 -17.83547580987215 0
    endloop
  endfacet
  facet normal 0.7431448246261758 -0.669130607304232 0
    outer loop
      vertex 19.416407868266106 -14.106846056878567 0
      vertex 19.416407868266106 -14.106846056878567 5
      vertex 16.059134550392628 -17.83547580987215 5
    endloop
  endfacet
  facet normal 0.8660254041780591 -0.49999999931822925 0
    outer loop
      vertex 21.925090983510017 -9.76167943328619 0
      vertex 19.416407868266106 -14.106846056878567 5
      vertex 19.416407868266106 -14.106846056878567 0
    endloop
  endfacet
  facet normal 0.8660254041780591 -0.49999999931822925 0
    outer loop
      vertex 21.925090983510017 -9.76167943328619 0
      vertex 21.925090983510017 -9.76167943328619 5
      vertex 19.416407868266106 -14.106846056878567 5
    endloop
  endfacet
  facet normal 0.9510565162839144 -0.3090169944095379 0
    outer loop
      vertex 23.475542418658733 -4.9898805767297745 0
      vertex 21.925090983510017 -9.76167943328619 5
      vertex 21.925090983510017 -9.76167943328619 0
    endloop
  endfacet
  facet normal 0.9510565162839144 -0.3090169944095379 0
    outer loop
      vertex 23.475542418658733 -4.9898805767297745 0
      vertex 23.475542418658733 -4.9898805767297745 5
      vertex 21.925090983510017 -9.76167943328619 5
    endloop
  endfacet
  facet normal 0.9945218953836671 -0.10452846312119195 0
    outer loop
      vertex 24 0 0
      vertex 23.475542418658733 -4.9898805767297745 5
      vertex 23.475542418658733 -4.9898805767297745 0
    endloop
  endfacet
  facet normal 0.9945218953836671 -0.10452846312119195 0
    outer loop
      vertex 24 0 0
      vertex 24 0 5
      vertex 23.475542418658733 -4.9898805767297745 5
    endloop
  endfacet
  facet normal 0.9945218953836671 0.10452846312119195 0
    outer loop
      vertex 23.475542418658733 4.9898805767297745 0
      vertex 24 0 5
      vertex 24 0 0
    endloop
  endfacet
  facet normal 0.9945218953836671 0.10452846312119195 0
    outer loop
      vertex 23.475542418658733 4.9898805767297745 0
      vertex 23.475542418658733 4.9898805767297745 5
      vertex 24 0 5
    endloop
  endfacet
  facet normal 0.9510565162839144 0.3090169944095379 0
    outer loop
      vertex 21.925090983510017 9.76167943328619 0
      vertex 23.475542418658733 4.9898805767297745 5
      vertex 23.475542418658733 4.9898805767297745 0
    endloop
  endfacet
  facet normal 0.9510565162839144 0.3090169944095379 0
    outer loop
      vertex 21.925090983510017 9.76167943328619 0
      vertex 21.925090983510017 9.76167943328619 5
      vertex 23.475542418658733 4.9898805767297745 5
    endloop
  endfacet
  facet normal 0.8660254041780591 0.49999999931822925 0
    outer loop
      vertex 19.416407868266106 14.106846056878567 0
      vertex 21.925090983510017 9.76167943328619 5
      vertex 21.925090983510017 9.76167943328619 0
    endloop
  endfacet
  facet normal 0.8660254041780591 0.49999999931822925 0
    outer loop
      vertex 19.416407868266106 14.106846056878567 0
      vertex 19.416407868266106 14.106846056878567 5
      vertex 21.925090983510017 9.76167943328619 5
    endloop
  endfacet
  facet normal 0.7431448246261758 0.669130607304232 0
    outer loop
      vertex 16.059134550392628 17.83547580987215 0
      vertex 19.416407868266106 14.106846056878567 5
      vertex 19.416407868266106 14.106846056878567 0
    endloop
  endfacet
  facet normal 0.7431448246261758 0.669130607304232 0
    outer loop
      vertex 16.059134550392628 17.83547580987215 0
      vertex 16.059134550392628 17.83547580987215 5
      vertex 19.416407868266106 14.106846056878567 5
    endloop
  endfacet
  facet normal 0.5877852526421089 0.8090169941209222 0
    outer loop
      vertex 12 20.78460969030857 0
      vertex 16.059134550392628 17.83547580987215 5
      vertex 16.059134550392628 17.83547580987215 0
    endloop
  endfacet
  facet normal 0.5877852526421089 0.8090169941209222 0
    outer loop
      vertex 12 20.78460969030857 0
      vertex 12 20.78460969030857 5
      vertex 16.059134550392628 17.83547580987215 5
    endloop
  endfacet
  facet normal 0.4067366438977466 0.9135454572766467 0
    outer loop
      vertex 7.416407868266106 22.825356394052505 0
      vertex 12 20.78460969030857 5
      vertex 12 20.78460969030857 0
    endloop
  endfacet
  facet normal 0.4067366438977466 0.9135454572766467 0
    outer loop
      vertex 7.416407868266106 22.825356394052505 0
      vertex 7.416407868266106 22.825356394052505 5
      vertex 12 20.78460969030857 5
    endloop
  endfacet
  facet normal 0.20791169024320275 0.9781476008559313 0
    outer loop
      vertex 2.5086831152439117 23.868525490164757 0
      vertex 7.416407868266106 22.825356394052505 5
      vertex 7.416407868266106 22.825356394052505 0
    endloop
  endfacet
  facet normal 0.20791169024320275 0.9781476008559313 0
    outer loop
      vertex 2.5086831152439117 23.868525490164757 0
      vertex 2.5086831152439117 23.868525490164757 5
      vertex 7.416407868266106 22.825356394052505 5
    endloop
  endfacet
  facet normal 0 1 0
    outer loop
      vertex -2.5086831152439117 23.868525490164757 0
      vertex 2.5086831152439117 23.868525490164757 5
      vertex 2.5086831152439117 23.868525490164757 0
    endloop
  endfacet
  facet normal 0 1 0
    outer loop
      vertex -2.5086831152439117 23.868525490164757 0
      vertex -2.5086831152439117 23.868525490164757 5
      vertex 2.5086831152439117 23.868525490164757 5
    endloop
  endfacet
  facet normal -0.20791169024320275 0.9781476008559313 0
    outer loop
      vertex -7.416407868266106 22.825356394052505 0
      vertex -2.5086831152439117 23.868525490164757 5
      vertex -2.5086831152439117 23.868525490164757 0
    endloop
  endfacet
  facet normal -0.20791169024320275 0.9781476008559313 0
    outer loop
      vertex -7.416407868266106 22.825356394052505 0
      vertex -7.416407868266106 22.825356394052505 5
      vertex -2.5086831152439117 23.868525490164757 5
    endloop
  endfacet
  facet normal -0.4067366438977466 0.9135454572766467 0
    outer loop
      vertex -12 20.78460969030857 0
      vertex -7.416407868266106 22.825356394052505 5
      vertex -7.416407868266106 22.825356394052505 0
    endloop
  endfacet
  facet normal -0.4067366438977466 0.9135454572766467 0
    outer loop
      vertex -12 20.78460969030857 0
      vertex -12 20.78460969030857 5
      vertex -7.416407868266106 22.825356394052505 5
    endloop
  endfacet
  facet normal -0.5877852526421089 0.8090169941209222 0
    outer loop
      vertex -16.059134550392628 17.83547580987215 0
      vertex -12 20.78460969030857 5
      vertex -12 20.78460969030857 0
    endloop
  endfacet
  facet normal -0.5877852526421089 0.8090169941209222 0
    outer loop
      vertex -16.059134550392628 17.83547580987215 0
      vertex -16.059134550392628 17.83547580987215 5
      vertex -12 20.78460969030857 5
    endloop
  endfacet
  facet normal -0.7431448246261758 0.669130607304232 0
    outer loop
      vertex -19.416407868266106 14.106846056878567 0
      vertex -16.059134550392628 17.83547580987215 5
      vertex -16.059134550392628 17.83547580987215 0
    endloop
  endfacet
  facet normal -0.7431448246261758 0.669130607304232 0
    outer loop
      vertex -19.416407868266106 14.106846056878567 0
      vertex -19.416407868266106 14.106846056878567 5
      vertex -16.059134550392628 17.83547580987215 5
    endloop
  endfacet
  facet normal -0.8660254041780591 0.49999999931822925 0
    outer loop
      vertex -21.925090983510017 9.76167943328619 0
      vertex -19.416407868266106 14.106846056878567 5
      vertex -19.416407868266106 14.106846056878567 0
    endloop
  endfacet
  facet normal -0.8660254041780591 0.49999999931822925 0
    outer loop
      vertex -21.925090983510017 9.76167943328619 0
      vertex -21.925090983510017 9.76167943328619 5
      vertex -19.416407868266106 14.106846056878567 5
    endloop
  endfacet
  facet normal -0.9510565162839144 0.3090169944095379 0
    outer loop
      vertex -23.475542418658733 4.9898805767297745 0
      vertex -21.925090983510017 9.76167943328619 5
      vertex -21.925090983510017 9.76167943328619 0
    endloop
  endfacet
  facet normal -0.9510565162839144 0.3090169944095379 0
    outer loop
      vertex -23.475542418658733 4.9898805767297745 0
      vertex -23.475542418658733 4.9898805767297745 5
      vertex -21.925090983510017 9.76167943328619 5
    endloop
  endfacet
  facet normal -0.9945218953836671 0.10452846312119195 0
    outer loop
      vertex -24 0 0
      vertex -23.475542418658733 4.9898805767297745 5
      vertex -23.475542418658733 4.9898805767297745 0
    endloop
  endfacet
  facet normal -0.9945218953836671 0.10452846312119195 0
    outer loop
      vertex -24 0 0
      vertex -24 0 5
      vertex -23.475542418658733 4.9898805767297745 5
    endloop
  endfacet
  facet normal -0.9945218953836671 -0.10452846312119195 0
    outer loop
      vertex -23.475542418658733 -4.9898805767297745 0
      vertex -24 0 5
      vertex -24 0 0
    endloop
  endfacet
  facet normal -0.9945218953836671 -0.10452846312119195 0
    outer loop
      vertex -23.475542418658733 -4.9898805767297745 0
      vertex -23.475542418658733 -4.9898805767297745 5
      vertex -24 0 5
    endloop
  endfacet
  facet normal -0.9510565162839144 -0.3090169944095379 0
    outer loop
      vertex -21.925090983510017 -9.76167943328619 0
      vertex -23.475542418658733 -4.9898805767297745 5
      vertex -23.475542418658733 -4.9898805767297745 0
    endloop
  endfacet
  facet normal -0.9510565162839144 -0.3090169944095379 0
    outer loop
      vertex -21.925090983510017 -9.76167943328619 0
      vertex -21.925090983510017 -9.76167943328619 5
      vertex -23.475542418658733 -4.9898805767297745 5
    endloop
  endfacet
  facet normal -0.8660254041780591 -0.49999999931822925 0
    outer loop
      vertex -19.416407868266106 -14.106846056878567 0
      vertex -21.925090983510017 -9.76167943328619 5
      vertex -21.925090983510017 -9.76167943328619 0
    endloop
  endfacet
  facet normal -0.8660254041780591 -0.49999999931822925 0
    outer loop
      vertex -19.416407868266106 -14.106846056878567 0
      vertex -19.416407868266106 -14.106846056878567 5
      vertex -21.925090983510017 -9.76167943328619 5
    endloop
  endfacet
  facet normal -0.7431448246261758 -0.669130607304232 0
    outer loop
      vertex -16.059134550392628 -17.83547580987215 0
      vertex -19.416407868266106 -14.106846056878567 5
      vertex -19.416407868266106 -14.106846056878567 0
    endloop
  endfacet
  facet normal -0.7431448246261758 -0.669130607304232 0
    outer loop
      vertex -16.059134550392628 -17.83547580987215 0
      vertex -16.059134550392628 -17.83547580987215 5
      vertex -19.416407868266106 -14.106846056878567 5
    endloop
  endfacet
  facet normal -0.5877852526421089 -0.8090169941209222 0
    outer loop
      vertex -12 -20.78460969030857 0
      vertex -16.059134550392628 -17.83547580987215 5
      vertex -16.059134550392628 -17.83547580987215 0
    endloop
  endfacet
  facet normal -0.5877852526421089 -0.8090169941209222 0
    outer loop
      vertex -12 -20.78460969030857 0
      vertex -12 -20.78460969030857 5
      vertex -16.059134550392628 -17.83547580987215 5
    endloop
  endfacet
  facet normal -0.4067366438977466 -0.9135454572766467 0
    outer loop
      vertex -7.416407868266106 -22.825356394052505 0
      vertex -12 -20.78460969030857 5
      vertex -12 -20.78460969030857 0
    endloop
  endfacet
  facet normal -0.4067366438977466 -0.9135454572766467 0
    outer loop
      vertex -7.416407868266106 -22.825356394052505 0
      vertex -7.416407868266106 -22.825356394052505 5
      vertex -12 -20.78460969030857 5
    endloop
  endfacet
  facet normal -0.20791169024320275 -0.9781476008559313 0
    outer loop
      vertex -2.5086831152439117 -23.868525490164757 0
      vertex -7.416407868266106 -22.825356394052505 5
      vertex -7.416407868266106 -22.825356394052505 0
    endloop
  endfacet
  facet normal -0.20791169024320275 -0.9781476008559313 0
    outer loop
      vertex -2.5086831152439117 -23.868525490164757 0
      vertex -2.5086831152439117 -23.868525490164757 5
      vertex -7.416407868266106 -22.825356394052505 5
    endloop
  endfacet
  facet normal 0 -1 0
    outer loop
      vertex 2.5086831152439117 -23.868525490164757 0
      vertex -2.5086831152439117 -23.868525490164757 5
      vertex -2.5086831152439117 -23.868525490164757 0
    endloop
  endfacet
  facet normal 0 -1 0
    outer loop
      vertex 2.5086831152439117 -23.868525490164757 0
      vertex 2.5086831152439117 -23.868525490164757 5
      vertex -2.5086831152439117 -23.868525490164757 5
    endloop
  endfacet
  facet normal 0.20791169024320275 -0.9781476008559313 0
    outer loop
      vertex 7.416407868266106 -22.825356394052505 0
      vertex 2.5086831152439117 -23.868525490164757 5
      vertex 2.5086831152439117 -23.868525490164757 0
    endloop
  endfacet
  facet normal 0.20791169024320275 -0.9781476008559313 0
    outer loop
      vertex 7.416407868266106 -22.825356394052505 0
      vertex 7.416407868266106 -22.825356394052505 5
      vertex 2.5086831152439117 -23.868525490164757 5
    endloop
  endfacet
  facet normal 0.2079116916214118 0.978147600562984 0
    outer loop
      vertex -6.180339887738228 -19.021130323410034 0
      vertex -6.180339887738228 -19.021130323410034 5
      vertex -2.0905692651867867 -19.89043790847063 0
    endloop
  endfacet
  facet normal 0.2079116916214118 0.978147600562984 0
    outer loop
      vertex -2.0905692651867867 -19.89043790847063 5
      vertex -2.0905692651867867 -19.89043790847063 0
      vertex -6.180339887738228 -19.021130323410034 5
    endloop
  endfacet
  facet normal 0.406736642189885 0.9135454580370358 0
    outer loop
      vertex -10 -17.32050807774067 0
      vertex -10 -17.32050807774067 5
      vertex -6.180339887738228 -19.021130323410034 0
    endloop
  endfacet
  facet normal 0.406736642189885 0.9135454580370358 0
    outer loop
      vertex -6.180339887738228 -19.021130323410034 5
      vertex -6.180339887738228 -19.021130323410034 0
      vertex -10 -17.32050807774067 5
    endloop
  endfacet
  facet normal 0.5877852529777204 0.809016993877086 0
    outer loop
      vertex -13.382612124085426 -14.862896509468555 0
      vertex -13.382612124085426 -14.862896509468555 5
      vertex -10 -17.32050807774067 0
    endloop
  endfacet
  facet normal 0.5877852529777204 0.809016993877086 0
    outer loop
      vertex -10 -17.32050807774067 5
      vertex -10 -17.32050807774067 0
      vertex -13.382612124085426 -14.862896509468555 5
    endloop
  endfacet
  facet normal 0.7431448253057534 0.6691306065494846 0
    outer loop
      vertex -16.180339887738228 -11.755705043673515 0
      vertex -16.180339887738228 -11.755705043673515 5
      vertex -13.382612124085426 -14.862896509468555 0
    endloop
  endfacet
  facet normal 0.7431448253057534 0.6691306065494846 0
    outer loop
      vertex -13.382612124085426 -14.862896509468555 5
      vertex -13.382612124085426 -14.862896509468555 0
      vertex -16.180339887738228 -11.755705043673515 5
    endloop
  endfacet
  facet normal 0.8660254034753692 0.5000000005353239 0
    outer loop
      vertex -18.270909152925014 -8.134732864797115 0
      vertex -18.270909152925014 -8.134732864797115 5
      vertex -16.180339887738228 -11.755705043673515 0
    endloop
  endfacet
  facet normal 0.8660254034753692 0.5000000005353239 0
    outer loop
      vertex -16.180339887738228 -11.755705043673515 5
      vertex -16.180339887738228 -11.755705043673515 0
      vertex -18.270909152925014 -8.134732864797115 5
    endloop
  endfacet
  facet normal 0.951056516630846 0.30901699334179233 0
    outer loop
      vertex -19.562952011823654 -4.158233813941479 0
      vertex -19.562952011823654 -4.158233813941479 5
      vertex -18.270909152925014 -8.134732864797115 0
    endloop
  endfacet
  facet normal 0.951056516630846 0.30901699334179233 0
    outer loop
      vertex -18.270909152925014 -8.134732864797115 5
      vertex -18.270909152925014 -8.134732864797115 0
      vertex -19.562952011823654 -4.158233813941479 5
    endloop
  endfacet
  facet normal 0.994521895291045 0.10452846400243207 0
    outer loop
      vertex -20 0 0
      vertex -20 0 5
      vertex -19.562952011823654 -4.158233813941479 0
    endloop
  endfacet
  facet normal 0.994521895291045 0.10452846400243207 0
    outer loop
      vertex -19.562952011823654 -4.158233813941479 5
      vertex -19.562952011823654 -4.158233813941479 0
      vertex -20 0 5
    endloop
  endfacet
  facet normal 0.994521895291045 -0.10452846400243207 0
    outer loop
      vertex -19.562952011823654 4.158233813941479 0
      vertex -19.562952011823654 4.158233813941479 5
      vertex -20 0 0
    endloop
  endfacet
  facet normal 0.994521895291045 -0.10452846400243207 0
    outer loop
      vertex -20 0 5
      vertex -20 0 0
      vertex -19.562952011823654 4.158233813941479 5
    endloop
  endfacet
  facet normal 0.951056516630846 -0.30901699334179233 0
    outer loop
      vertex -18.270909152925014 8.134732864797115 0
      vertex -18.270909152925014 8.134732864797115 5
      vertex -19.562952011823654 4.158233813941479 0
    endloop
  endfacet
  facet normal 0.951056516630846 -0.30901699334179233 0
    outer loop
      vertex -19.562952011823654 4.158233813941479 5
      vertex -19.562952011823654 4.158233813941479 0
      vertex -18.270909152925014 8.134732864797115 5
    endloop
  endfacet
  facet normal 0.8660254034753692 -0.5000000005353239 0
    outer loop
      vertex -16.180339887738228 11.755705043673515 0
      vertex -16.180339887738228 11.755705043673515 5
      vertex -18.270909152925014 8.134732864797115 0
    endloop
  endfacet
  facet normal 0.8660254034753692 -0.5000000005353239 0
    outer loop
      vertex -18.270909152925014 8.134732864797115 5
      vertex -18.270909152925014 8.134732864797115 0
      vertex -16.180339887738228 11.755705043673515 5
    endloop
  endfacet
  facet normal 0.7431448253057534 -0.6691306065494846 0
    outer loop
      vertex -13.382612124085426 14.862896509468555 0
      vertex -13.382612124085426 14.862896509468555 5
      vertex -16.180339887738228 11.755705043673515 0
    endloop
  endfacet
  facet normal 0.7431448253057534 -0.6691306065494846 0
    outer loop
      vertex -16.180339887738228 11.755705043673515 5
      vertex -16.180339887738228 11.755705043673515 0
      vertex -13.382612124085426 14.862896509468555 5
    endloop
  endfacet
  facet normal 0.5877852529777204 -0.809016993877086 0
    outer loop
      vertex -10 17.32050807774067 0
      vertex -10 17.32050807774067 5
      vertex -13.382612124085426 14.862896509468555 0
    endloop
  endfacet
  facet normal 0.5877852529777204 -0.809016993877086 0
    outer loop
      vertex -13.382612124085426 14.862896509468555 5
      vertex -13.382612124085426 14.862896509468555 0
      vertex -10 17.32050807774067 5
    endloop
  endfacet
  facet normal 0.406736642189885 -0.9135454580370358 0
    outer loop
      vertex -6.180339887738228 19.021130323410034 0
      vertex -6.180339887738228 19.021130323410034 5
      vertex -10 17.32050807774067 0
    endloop
  endfacet
  facet normal 0.406736642189885 -0.9135454580370358 0
    outer loop
      vertex -10 17.32050807774067 5
      vertex -10 17.32050807774067 0
      vertex -6.180339887738228 19.021130323410034 5
    endloop
  endfacet
  facet normal 0.2079116916214118 -0.978147600562984 0
    outer loop
      vertex -2.0905692651867867 19.89043790847063 0
      vertex -2.0905692651867867 19.89043790847063 5
      vertex -6.180339887738228 19.021130323410034 0
    endloop
  endfacet
  facet normal 0.2079116916214118 -0.978147600562984 0
    outer loop
      vertex -6.180339887738228 19.021130323410034 5
      vertex -6.180339887738228 19.021130323410034 0
      vertex -2.0905692651867867 19.89043790847063 5
    endloop
  endfacet
  facet normal 0 -1 0
    outer loop
      vertex 2.0905692651867867 19.89043790847063 0
      vertex 2.0905692651867867 19.89043790847063 5
      vertex -2.0905692651867867 19.89043790847063 0
    endloop
  endfacet
  facet normal 0 -1 0
    outer loop
      vertex -2.0905692651867867 19.89043790847063 5
      vertex -2.0905692651867867 19.89043790847063 0
      vertex 2.0905692651867867 19.89043790847063 5
    endloop
  endfacet
  facet normal -0.2079116916214118 -0.978147600562984 0
    outer loop
      vertex 6.180339887738228 19.021130323410034 0
      vertex 6.180339887738228 19.021130323410034 5
      vertex 2.0905692651867867 19.89043790847063 0
    endloop
  endfacet
  facet normal -0.2079116916214118 -0.978147600562984 0
    outer loop
      vertex 2.0905692651867867 19.89043790847063 5
      vertex 2.0905692651867867 19.89043790847063 0
      vertex 6.180339887738228 19.021130323410034 5
    endloop
  endfacet
  facet normal -0.406736642189885 -0.9135454580370358 0
    outer loop
      vertex 10 17.32050807774067 0
      vertex 10 17.32050807774067 5
      vertex 6.180339887738228 19.021130323410034 0
    endloop
  endfacet
  facet normal -0.406736642189885 -0.9135454580370358 0
    outer loop
      vertex 6.180339887738228 19.021130323410034 5
      vertex 6.180339887738228 19.021130323410034 0
      vertex 10 17.32050807774067 5
    endloop
  endfacet
  facet normal -0.5877852529777204 -0.809016993877086 0
    outer loop
      vertex 13.382612124085426 14.862896509468555 0
      vertex 13.382612124085426 14.862896509468555 5
      vertex 10 17.32050807774067 0
    endloop
  endfacet
  facet normal -0.5877852529777204 -0.809016993877086 0
    outer loop
      vertex 10 17.32050807774067 5
      vertex 10 17.32050807774067 0
      vertex 13.382612124085426 14.862896509468555 5
    endloop
  endfacet
  facet normal -0.7431448253057534 -0.6691306065494846 0
    outer loop
      vertex 16.180339887738228 11.755705043673515 0
      vertex 16.180339887738228 11.755705043673515 5
      vertex 13.382612124085426 14.862896509468555 0
    endloop
  endfacet
  facet normal -0.7431448253057534 -0.6691306065494846 0
    outer loop
      vertex 13.382612124085426 14.862896509468555 5
      vertex 13.382612124085426 14.862896509468555 0
      vertex 16.180339887738228 11.755705043673515 5
    endloop
  endfacet
  facet normal -0.8660254034753692 -0.5000000005353239 0
    outer loop
      vertex 18.270909152925014 8.134732864797115 0
      vertex 18.270909152925014 8.134732864797115 5
      vertex 16.180339887738228 11.755705043673515 0
    endloop
  endfacet
  facet normal -0.8660254034753692 -0.5000000005353239 0
    outer loop
      vertex 16.180339887738228 11.755705043673515 5
      vertex 16.180339887738228 11.755705043673515 0
      vertex 18.270909152925014 8.134732864797115 5
    endloop
  endfacet
  facet normal -0.951056516630846 -0.30901699334179233 0
    outer loop
      vertex 19.562952011823654 4.158233813941479 0
      vertex 19.562952011823654 4.158233813941479 5
      vertex 18.270909152925014 8.134732864797115 0
    endloop
  endfacet
  facet normal -0.951056516630846 -0.30901699334179233 0
    outer loop
      vertex 18.270909152925014 8.134732864797115 5
      vertex 18.270909152925014 8.134732864797115 0
      vertex 19.562952011823654 4.158233813941479 5
    endloop
  endfacet
  facet normal -0.994521895291045 -0.10452846400243207 0
    outer loop
      vertex 20 0 0
      vertex 20 0 5
      vertex 19.562952011823654 4.158233813941479 0
    endloop
  endfacet
  facet normal -0.994521895291045 -0.10452846400243207 0
    outer loop
      vertex 19.562952011823654 4.158233813941479 5
      vertex 19.562952011823654 4.158233813941479 0
      vertex 20 0 5
    endloop
  endfacet
  facet normal -0.994521895291045 0.10452846400243207 0
    outer loop
      vertex 19.562952011823654 -4.158233813941479 0
      vertex 19.562952011823654 -4.158233813941479 5
      vertex 20 0 0
    endloop
  endfacet
  facet normal -0.994521895291045 0.10452846400243207 0
    outer loop
      vertex 20 0 5
      vertex 20 0 0
      vertex 19.562952011823654 -4.158233813941479 5
    endloop
  endfacet
  facet normal -0.951056516630846 0.30901699334179233 0
    outer loop
      vertex 18.270909152925014 -8.134732864797115 0
      vertex 18.270909152925014 -8.134732864797115 5
      vertex 19.562952011823654 -4.158233813941479 0
    endloop
  endfacet
  facet normal -0.951056516630846 0.30901699334179233 0
    outer loop
      vertex 19.562952011823654 -4.158233813941479 5
      vertex 19.562952011823654 -4.158233813941479 0
      vertex 18.270909152925014 -8.134732864797115 5
    endloop
  endfacet
  facet normal -0.8660254034753692 0.5000000005353239 0
    outer loop
      vertex 16.180339887738228 -11.755705043673515 0
      vertex 16.180339887738228 -11.755705043673515 5
      vertex 18.270909152925014 -8.134732864797115 0
    endloop
  endfacet
  facet normal -0.8660254034753692 0.5000000005353239 0
    outer loop
      vertex 18.270909152925014 -8.134732864797115 5
      vertex 18.270909152925014 -8.134732864797115 0
      vertex 16.180339887738228 -11.755705043673515 5
    endloop
  endfacet
  facet normal -0.7431448253057534 0.6691306065494846 0
    outer loop
      vertex 13.382612124085426 -14.862896509468555 0
      vertex 13.382612124085426 -14.862896509468555 5
      vertex 16.180339887738228 -11.755705043673515 0
    endloop
  endfacet
  facet normal -0.7431448253057534 0.6691306065494846 0
    outer loop
      vertex 16.180339887738228 -11.755705043673515 5
      vertex 16.180339887738228 -11.755705043673515 0
      vertex 13.382612124085426 -14.862896509468555 5
    endloop
  endfacet
  facet normal -0.5877852529777204 0.809016993877086 0
    outer loop
      vertex 10 -17.32050807774067 0
      vertex 10 -17.32050807774067 5
      vertex 13.382612124085426 -14.862896509468555 0
    endloop
  endfacet
  facet normal -0.5877852529777204 0.809016993877086 0
    outer loop
      vertex 13.382612124085426 -14.862896509468555 5
      vertex 13.382612124085426 -14.862896509468555 0
      vertex 10 -17.32050807774067 5
    endloop
  endfacet
  facet normal -0.406736642189885 0.9135454580370358 0
    outer loop
      vertex 6.180339887738228 -19.021130323410034 0
      vertex 6.180339887738228 -19.021130323410034 5
      vertex 10 -17.32050807774067 0
    endloop
  endfacet
  facet normal -0.406736642189885 0.9135454580370358 0
    outer loop
      vertex 10 -17.32050807774067 5
      vertex 10 -17.32050807774067 0
      vertex 6.180339887738228 -19.021130323410034 5
    endloop
  endfacet
  facet normal -0.2079116916214118 0.978147600562984 0
    outer loop
      vertex 2.0905692651867867 -19.89043790847063 0
      vertex 2.0905692651867867 -19.89043790847063 5
      vertex 6.180339887738228 -19.021130323410034 0
    endloop
  endfacet
  facet normal -0.2079116916214118 0.978147600562984 0
    outer loop
      vertex 6.180339887738228 -19.021130323410034 5
      vertex 6.180339887738228 -19.021130323410034 0
      vertex 2.0905692651867867 -19.89043790847063 5
    endloop
  endfacet
  facet normal 0 1 0
    outer loop
      vertex -2.0905692651867867 -19.89043790847063 0
      vertex -2.0905692651867867 -19.89043790847063 5
      vertex 2.0905692651867867 -19.89043790847063 0
    endloop
  endfacet
  facet normal 0 1 0
    outer loop
      vertex 2.0905692651867867 -19.89043790847063 5
      vertex 2.0905692651867867 -19.89043790847063 0
      vertex -2.0905692651867867 -19.89043790847063 5
    endloop
  endfacet
  facet normal 0 0 -1
    outer loop
      vertex 19.562952011823654 -4.158233813941479 0
      vertex 20 0 0
      vertex 24 0 0
    endloop
  endfacet
  facet normal 0 0 -1
    outer loop
      vertex 19.562952011823654 -4.158233813941479 0
      vertex 24 0 0
      vertex 23.475542418658733 -4.9898805767297745 0
    endloop
  endfacet
  facet normal 0 0 -1
    outer loop
      vertex 18.270909152925014 -8.134732864797115 0
      vertex 19.562952011823654 -4.158233813941479 0
      vertex 23.475542418658733 -4.9898805767297745 0
    endloop
  endfacet
  facet normal 0 0 -1
    outer loop
      vertex 18.270909152925014 -8.134732864797115 0
      vertex 23.475542418658733 -4.9898805767297745 0
      vertex 21.925090983510017 -9.76167943328619 0
    endloop
  endfacet
  facet normal 0 0 -1
    outer loop
      vertex 24 0 0
      vertex 20 0 0
      vertex 19.562952011823654 4.158233813941479 0
    endloop
  endfacet
  facet normal 0 0 -1
    outer loop
      vertex 23.475542418658733 4.9898805767297745 0
      vertex 24 0 0
      vertex 19.562952011823654 4.158233813941479 0
    endloop
  endfacet
  facet normal 0 0 -1
    outer loop
      vertex 23.475542418658733 4.9898805767297745 0
      vertex 19.562952011823654 4.158233813941479 0
      vertex 18.270909152925014 8.134732864797115 0
    endloop
  endfacet
  facet normal 0 0 -1
    outer loop
      vertex 21.925090983510017 9.76167943328619 0
      vertex 23.475542418658733 4.9898805767297745 0
      vertex 18.270909152925014 8.134732864797115 0
    endloop
  endfacet
  facet normal 0 0 -1
    outer loop
      vertex 16.180339887738228 -11.755705043673515 0
      vertex 18.270909152925014 -8.134732864797115 0
      vertex 21.925090983510017 -9.76167943328619 0
    endloop
  endfacet
  facet normal 0 0 -1
    outer loop
      vertex 16.180339887738228 -11.755705043673515 0
      vertex 21.925090983510017 -9.76167943328619 0
      vertex 19.416407868266106 -14.106846056878567 0
    endloop
  endfacet
  facet normal 0 0 -1
    outer loop
      vertex 13.382612124085426 -14.862896509468555 0
      vertex 16.180339887738228 -11.755705043673515 0
      vertex 19.416407868266106 -14.106846056878567 0
    endloop
  endfacet
  facet normal 0 0 -1
    outer loop
      vertex 13.382612124085426 -14.862896509468555 0
      vertex 19.416407868266106 -14.106846056878567 0
      vertex 16.059134550392628 -17.83547580987215 0
    endloop
  endfacet
  facet normal 0 0 -1
    outer loop
      vertex 10 -17.32050807774067 0
      vertex 13.382612124085426 -14.862896509468555 0
      vertex 16.059134550392628 -17.83547580987215 0
    endloop
  endfacet
  facet normal 0 0 -1
    outer loop
      vertex 10 -17.32050807774067 0
      vertex 16.059134550392628 -17.83547580987215 0
      vertex 12 -20.78460969030857 0
    endloop
  endfacet
  facet normal 0 0 -1
    outer loop
      vertex 6.180339887738228 -19.021130323410034 0
      vertex 10 -17.32050807774067 0
      vertex 12 -20.78460969030857 0
    endloop
  endfacet
  facet normal 0 0 -1
    outer loop
      vertex 6.180339887738228 -19.021130323410034 0
      vertex 12 -20.78460969030857 0
      vertex 7.416407868266106 -22.825356394052505 0
    endloop
  endfacet
  facet normal 0 0 -1
    outer loop
      vertex 2.0905692651867867 -19.89043790847063 0
      vertex 6.180339887738228 -19.021130323410034 0
      vertex 7.416407868266106 -22.825356394052505 0
    endloop
  endfacet
  facet normal 0 0 -1
    outer loop
      vertex 2.0905692651867867 -19.89043790847063 0
      vertex 7.416407868266106 -22.825356394052505 0
      vertex 2.5086831152439117 -23.868525490164757 0
    endloop
  endfacet
  facet normal 0 0 -1
    outer loop
      vertex -2.0905692651867867 -19.89043790847063 0
      vertex 2.0905692651867867 -19.89043790847063 0
      vertex 2.5086831152439117 -23.868525490164757 0
    endloop
  endfacet
  facet normal 0 0 -1
    outer loop
      vertex -2.0905692651867867 -19.89043790847063 0
      vertex 2.5086831152439117 -23.868525490164757 0
      vertex -2.5086831152439117 -23.868525490164757 0
    endloop
  endfacet
  facet normal 0 0 -1
    outer loop
      vertex 21.925090983510017 9.76167943328619 0
      vertex 18.270909152925014 8.134732864797115 0
      vertex 16.180339887738228 11.755705043673515 0
    endloop
  endfacet
  facet normal 0 0 -1
    outer loop
      vertex 19.416407868266106 14.106846056878567 0
      vertex 21.925090983510017 9.76167943328619 0
      vertex 16.180339887738228 11.755705043673515 0
    endloop
  endfacet
  facet normal 0 0 -1
    outer loop
      vertex 19.416407868266106 14.106846056878567 0
      vertex 16.180339887738228 11.755705043673515 0
      vertex 13.382612124085426 14.862896509468555 0
    endloop
  endfacet
  facet normal 0 0 -1
    outer loop
      vertex 16.059134550392628 17.83547580987215 0
      vertex 19.416407868266106 14.106846056878567 0
      vertex 13.382612124085426 14.862896509468555 0
    endloop
  endfacet
  facet normal 0 0 -1
    outer loop
      vertex 16.059134550392628 17.83547580987215 0
      vertex 13.382612124085426 14.862896509468555 0
      vertex 10 17.32050807774067 0
    endloop
  endfacet
  facet normal 0 0 -1
    outer loop
      vertex 12 20.78460969030857 0
      vertex 16.059134550392628 17.83547580987215 0
      vertex 10 17.32050807774067 0
    endloop
  endfacet
  facet normal 0 0 -1
    outer loop
      vertex 12 20.78460969030857 0
      vertex 10 17.32050807774067 0
      vertex 6.180339887738228 19.021130323410034 0
    endloop
  endfacet
  facet normal 0 0 -1
    outer loop
      vertex 7.416407868266106 22.825356394052505 0
      vertex 12 20.78460969030857 0
      vertex 6.180339887738228 19.021130323410034 0
    endloop
  endfacet
  facet normal 0 0 -1
    outer loop
      vertex 7.416407868266106 22.825356394052505 0
      vertex 6.180339887738228 19.021130323410034 0
      vertex 2.0905692651867867 19.89043790847063 0
    endloop
  endfacet
  facet normal 0 0 -1
    outer loop
      vertex 2.5086831152439117 23.868525490164757 0
      vertex 7.416407868266106 22.825356394052505 0
      vertex 2.0905692651867867 19.89043790847063 0
    endloop
  endfacet
  facet normal 0 0 -1
    outer loop
      vertex 2.5086831152439117 23.868525490164757 0
      vertex 2.0905692651867867 19.89043790847063 0
      vertex -2.0905692651867867 19.89043790847063 0
    endloop
  endfacet
  facet normal 0 0 -1
    outer loop
      vertex -2.5086831152439117 23.868525490164757 0
      vertex 2.5086831152439117 23.868525490164757 0
      vertex -2.0905692651867867 19.89043790847063 0
    endloop
  endfacet
  facet normal 0 0 -1
    outer loop
      vertex -6.180339887738228 -19.021130323410034 0
      vertex -2.0905692651867867 -19.89043790847063 0
      vertex -2.5086831152439117 -23.868525490164757 0
    endloop
  endfacet
  facet normal 0 0 -1
    outer loop
      vertex -6.180339887738228 -19.021130323410034 0
      vertex -2.5086831152439117 -23.868525490164757 0
      vertex -7.416407868266106 -22.825356394052505 0
    endloop
  endfacet
  facet normal 0 0 -1
    outer loop
      vertex -10 -17.32050807774067 0
      vertex -6.180339887738228 -19.021130323410034 0
      vertex -7.416407868266106 -22.825356394052505 0
    endloop
  endfacet
  facet normal 0 0 -1
    outer loop
      vertex -10 -17.32050807774067 0
      vertex -7.416407868266106 -22.825356394052505 0
      vertex -12 -20.78460969030857 0
    endloop
  endfacet
  facet normal 0 0 -1
    outer loop
      vertex -13.382612124085426 -14.862896509468555 0
      vertex -10 -17.32050807774067 0
      vertex -12 -20.78460969030857 0
    endloop
  endfacet
  facet normal 0 0 -1
    outer loop
      vertex -13.382612124085426 -14.862896509468555 0
      vertex -12 -20.78460969030857 0
      vertex -16.059134550392628 -17.83547580987215 0
    endloop
  endfacet
  facet normal 0 0 -1
    outer loop
      vertex -16.180339887738228 -11.755705043673515 0
      vertex -13.382612124085426 -14.862896509468555 0
      vertex -16.059134550392628 -17.83547580987215 0
    endloop
  endfacet
  facet normal 0 0 -1
    outer loop
      vertex -16.180339887738228 -11.755705043673515 0
      vertex -16.059134550392628 -17.83547580987215 0
      vertex -19.416407868266106 -14.106846056878567 0
    endloop
  endfacet
  facet normal 0 0 -1
    outer loop
      vertex -18.270909152925014 -8.134732864797115 0
      vertex -16.180339887738228 -11.755705043673515 0
      vertex -19.416407868266106 -14.106846056878567 0
    endloop
  endfacet
  facet normal 0 0 -1
    outer loop
      vertex -18.270909152925014 -8.134732864797115 0
      vertex -19.416407868266106 -14.106846056878567 0
      vertex -21.925090983510017 -9.76167943328619 0
    endloop
  endfacet
  facet normal 0 0 -1
    outer loop
      vertex -19.562952011823654 -4.158233813941479 0
      vertex -18.270909152925014 -8.134732864797115 0
      vertex -21.925090983510017 -9.76167943328619 0
    endloop
  endfacet
  facet normal 0 0 -1
    outer loop
      vertex -19.562952011823654 -4.158233813941479 0
      vertex -21.925090983510017 -9.76167943328619 0
      vertex -23.475542418658733 -4.9898805767297745 0
    endloop
  endfacet
  facet normal 0 0 -1
    outer loop
      vertex -20 0 0
      vertex -19.562952011823654 -4.158233813941479 0
      vertex -23.475542418658733 -4.9898805767297745 0
    endloop
  endfacet
  facet normal 0 0 -1
    outer loop
      vertex -20 0 0
      vertex -23.475542418658733 -4.9898805767297745 0
      vertex -24 0 0
    endloop
  endfacet
  facet normal 0 0 -1
    outer loop
      vertex -19.562952011823654 4.158233813941479 0
      vertex -20 0 0
      vertex -24 0 0
    endloop
  endfacet
  facet normal 0 0 -1
    outer loop
      vertex -19.562952011823654 4.158233813941479 0
      vertex -24 0 0
      vertex -23.475542418658733 4.9898805767297745 0
    endloop
  endfacet
  facet normal 0 0 -1
    outer loop
      vertex -18.270909152925014 8.134732864797115 0
      vertex -19.562952011823654 4.158233813941479 0
      vertex -23.475542418658733 4.9898805767297745 0
    endloop
  endfacet
  facet normal 0 0 -1
    outer loop
      vertex -18.270909152925014 8.134732864797115 0
      vertex -23.475542418658733 4.9898805767297745 0
      vertex -21.925090983510017 9.76167943328619 0
    endloop
  endfacet
  facet normal 0 0 -1
    outer loop
      vertex -16.180339887738228 11.755705043673515 0
      vertex -18.270909152925014 8.134732864797115 0
      vertex -21.925090983510017 9.76167943328619 0
    endloop
  endfacet
  facet normal 0 0 -1
    outer loop
      vertex -16.180339887738228 11.755705043673515 0
      vertex -21.925090983510017 9.76167943328619 0
      vertex -19.416407868266106 14.106846056878567 0
    endloop
  endfacet
  facet normal 0 0 -1
    outer loop
      vertex -13.382612124085426 14.862896509468555 0
      vertex -16.180339887738228 11.755705043673515 0
      vertex -19.416407868266106 14.106846056878567 0
    endloop
  endfacet
  facet normal 0 0 -1
    outer loop
      vertex -13.382612124085426 14.862896509468555 0
      vertex -19.416407868266106 14.106846056878567 0
      vertex -16.059134550392628 17.83547580987215 0
    endloop
  endfacet
  facet normal 0 0 -1
    outer loop
      vertex -10 17.32050807774067 0
      vertex -13.382612124085426 14.862896509468555 0
      vertex -16.059134550392628 17.83547580987215 0
    endloop
  endfacet
  facet normal 0 0 -1
    outer loop
      vertex -10 17.32050807774067 0
      vertex -16.059134550392628 17.83547580987215 0
      vertex -12 20.78460969030857 0
    endloop
  endfacet
  facet normal 0 0 -1
    outer loop
      vertex -6.180339887738228 19.021130323410034 0
      vertex -10 17.32050807774067 0
      vertex -12 20.78460969030857 0
    endloop
  endfacet
  facet normal 0 0 -1
    outer loop
      vertex -6.180339887738228 19.021130323410034 0
      vertex -12 20.78460969030857 0
      vertex -7.416407868266106 22.825356394052505 0
    endloop
  endfacet
  facet normal 0 0 -1
    outer loop
      vertex -2.0905692651867867 19.89043790847063 0
      vertex -6.180339887738228 19.021130323410034 0
      vertex -7.416407868266106 22.825356394052505 0
    endloop
  endfacet
  facet normal 0 0 -1
    outer loop
      vertex -2.0905692651867867 19.89043790847063 0
      vertex -7.416407868266106 22.825356394052505 0
      vertex -2.5086831152439117 23.868525490164757 0
    endloop
  endfacet
  facet normal 0 0 1
    outer loop
      vertex 24 0 5
      vertex 20 0 5
      vertex 19.562952011823654 -4.158233813941479 5
    endloop
  endfacet
  facet normal 0 0 1
    outer loop
      vertex 23.475542418658733 -4.9898805767297745 5
      vertex 24 0 5
      vertex 19.562952011823654 -4.158233813941479 5
    endloop
  endfacet
  facet normal 0 0 1
    outer loop
      vertex 23.475542418658733 -4.9898805767297745 5
      vertex 19.562952011823654 -4.158233813941479 5
      vertex 18.270909152925014 -8.134732864797115 5
    endloop
  endfacet
  facet normal 0 0 1
    outer loop
      vertex 21.925090983510017 -9.76167943328619 5
      vertex 23.475542418658733 -4.9898805767297745 5
      vertex 18.270909152925014 -8.134732864797115 5
    endloop
  endfacet
  facet normal 0 0 1
    outer loop
      vertex 19.562952011823654 4.158233813941479 5
      vertex 20 0 5
      vertex 24 0 5
    endloop
  endfacet
  facet normal 0 0 1
    outer loop
      vertex 19.562952011823654 4.158233813941479 5
      vertex 24 0 5
      vertex 23.475542418658733 4.9898805767297745 5
    endloop
  endfacet
  facet normal 0 0 1
    outer loop
      vertex 18.270909152925014 8.134732864797115 5
      vertex 19.562952011823654 4.158233813941479 5
      vertex 23.475542418658733 4.9898805767297745 5
    endloop
  endfacet
  facet normal 0 0 1
    outer loop
      vertex 18.270909152925014 8.134732864797115 5
      vertex 23.475542418658733 4.9898805767297745 5
      vertex 21.925090983510017 9.76167943328619 5
    endloop
  endfacet
  facet normal 0 0 1
    outer loop
      vertex 21.925090983510017 -9.76167943328619 5
      vertex 18.270909152925014 -8.134732864797115 5
      vertex 16.180339887738228 -11.755705043673515 5
    endloop
  endfacet
  facet normal 0 0 1
    outer loop
      vertex 19.416407868266106 -14.106846056878567 5
      vertex 21.925090983510017 -9.76167943328619 5
      vertex 16.180339887738228 -11.755705043673515 5
    endloop
  endfacet
  facet normal 0 0 1
    outer loop
      vertex 19.416407868266106 -14.106846056878567 5
      vertex 16.180339887738228 -11.755705043673515 5
      vertex 13.382612124085426 -14.862896509468555 5
    endloop
  endfacet
  facet normal 0 0 1
    outer loop
      vertex 16.059134550392628 -17.83547580987215 5
      vertex 19.416407868266106 -14.106846056878567 5
      vertex 13.382612124085426 -14.862896509468555 5
    endloop
  endfacet
  facet normal 0 0 1
    outer loop
      vertex 16.059134550392628 -17.83547580987215 5
      vertex 13.382612124085426 -14.862896509468555 5
      vertex 10 -17.32050807774067 5
    endloop
  endfacet
  facet normal 0 0 1
    outer loop
      vertex 12 -20.78460969030857 5
      vertex 16.059134550392628 -17.83547580987215 5
      vertex 10 -17.32050807774067 5
    endloop
  endfacet
  facet normal 0 0 1
    outer loop
      vertex 12 -20.78460969030857 5
      vertex 10 -17.32050807774067 5
      vertex 6.180339887738228 -19.021130323410034 5
    endloop
  endfacet
  facet normal 0 0 1
    outer loop
      vertex 7.416407868266106 -22.825356394052505 5
      vertex 12 -20.78460969030857 5
      vertex 6.180339887738228 -19.021130323410034 5
    endloop
  endfacet
  facet normal 0 0 1
    outer loop
      vertex 7.416407868266106 -22.825356394052505 5
      vertex 6.180339887738228 -19.021130323410034 5
      vertex 2.0905692651867867 -19.89043790847063 5
    endloop
  endfacet
  facet normal 0 0 1
    outer loop
      vertex 2.5086831152439117 -23.868525490164757 5
      vertex 7.416407868266106 -22.825356394052505 5
      vertex 2.0905692651867867 -19.89043790847063 5
    endloop
  endfacet
  facet normal 0 0 1
    outer loop
      vertex 2.5086831152439117 -23.868525490164757 5
      vertex 2.0905692651867867 -19.89043790847063 5
      vertex -2.0905692651867867 -19.89043790847063 5
    endloop
  endfacet
  facet normal 0 0 1
    outer loop
      vertex -2.5086831152439117 -23.868525490164757 5
      vertex 2.5086831152439117 -23.868525490164757 5
      vertex -2.0905692651867867 -19.89043790847063 5
    endloop
  endfacet
  facet normal 0 0 1
    outer loop
      vertex 16.180339887738228 11.755705043673515 5
      vertex 18.270909152925014 8.134732864797115 5
      vertex 21.925090983510017 9.76167943328619 5
    endloop
  endfacet
  facet normal 0 0 1
    outer loop
      vertex 16.180339887738228 11.755705043673515 5
      vertex 21.925090983510017 9.76167943328619 5
      vertex 19.416407868266106 14.106846056878567 5
    endloop
  endfacet
  facet normal 0 0 1
    outer loop
      vertex 13.382612124085426 14.862896509468555 5
      vertex 16.180339887738228 11.755705043673515 5
      vertex 19.416407868266106 14.106846056878567 5
    endloop
  endfacet
  facet normal 0 0 1
    outer loop
      vertex 13.382612124085426 14.862896509468555 5
      vertex 19.416407868266106 14.106846056878567 5
      vertex 16.059134550392628 17.83547580987215 5
    endloop
  endfacet
  facet normal 0 0 1
    outer loop
      vertex 10 17.32050807774067 5
      vertex 13.382612124085426 14.862896509468555 5
      vertex 16.059134550392628 17.83547580987215 5
    endloop
  endfacet
  facet normal 0 0 1
    outer loop
      vertex 10 17.32050807774067 5
      vertex 16.059134550392628 17.83547580987215 5
      vertex 12 20.78460969030857 5
    endloop
  endfacet
  facet normal 0 0 1
    outer loop
      vertex 6.180339887738228 19.021130323410034 5
      vertex 10 17.32050807774067 5
      vertex 12 20.78460969030857 5
    endloop
  endfacet
  facet normal 0 0 1
    outer loop
      vertex 6.180339887738228 19.021130323410034 5
      vertex 12 20.78460969030857 5
      vertex 7.416407868266106 22.825356394052505 5
    endloop
  endfacet
  facet normal 0 0 1
    outer loop
      vertex 2.0905692651867867 19.89043790847063 5
      vertex 6.180339887738228 19.021130323410034 5
      vertex 7.416407868266106 22.825356394052505 5
    endloop
  endfacet
  facet normal 0 0 1
    outer loop
      vertex 2.0905692651867867 19.89043790847063 5
      vertex 7.416407868266106 22.825356394052505 5
      vertex 2.5086831152439117 23.868525490164757 5
    endloop
  endfacet
  facet normal 0 0 1
    outer loop
      vertex -2.0905692651867867 19.89043790847063 5
      vertex 2.0905692651867867 19.89043790847063 5
      vertex 2.5086831152439117 23.868525490164757 5
    endloop
  endfacet
  facet normal 0 0 1
    outer loop
      vertex -2.0905692651867867 19.89043790847063 5
      vertex 2.5086831152439117 23.868525490164757 5
      vertex -2.5086831152439117 23.868525490164757 5
    endloop
  endfacet
  facet normal 0 0 1
    outer loop
      vertex -2.5086831152439117 -23.868525490164757 5
      vertex -2.0905692651867867 -19.89043790847063 5
      vertex -6.180339887738228 -19.021130323410034 5
    endloop
  endfacet
  facet normal 0 0 1
    outer loop
      vertex -7.416407868266106 -22.825356394052505 5
      vertex -2.5086831152439117 -23.868525490164757 5
      vertex -6.180339887738228 -19.021130323410034 5
    endloop
  endfacet
  facet normal 0 0 1
    outer loop
      vertex -7.416407868266106 -22.825356394052505 5
      vertex -6.180339887738228 -19.021130323410034 5
      vertex -10 -17.32050807774067 5
    endloop
  endfacet
  facet normal 0 0 1
    outer loop
      vertex -12 -20.78460969030857 5
      vertex -7.416407868266106 -22.825356394052505 5
      vertex -10 -17.32050807774067 5
    endloop
  endfacet
  facet normal 0 0 1
    outer loop
      vertex -12 -20.78460969030857 5
      vertex -10 -17.32050807774067 5
      vertex -13.382612124085426 -14.862896509468555 5
    endloop
  endfacet
  facet normal 0 0 1
    outer loop
      vertex -16.059134550392628 -17.83547580987215 5
      vertex -12 -20.78460969030857 5
      vertex -13.382612124085426 -14.862896509468555 5
    endloop
  endfacet
  facet normal 0 0 1
    outer loop
      vertex -16.059134550392628 -17.83547580987215 5
      vertex -13.382612124085426 -14.862896509468555 5
      vertex -16.180339887738228 -11.755705043673515 5
    endloop
  endfacet
  facet normal 0 0 1
    outer loop
      vertex -19.416407868266106 -14.106846056878567 5
      vertex -16.059134550392628 -17.83547580987215 5
      vertex -16.180339887738228 -11.755705043673515 5
    endloop
  endfacet
  facet normal 0 0 1
    outer loop
      vertex -19.416407868266106 -14.106846056878567 5
      vertex -16.180339887738228 -11.755705043673515 5
      vertex -18.270909152925014 -8.134732864797115 5
    endloop
  endfacet
  facet normal 0 0 1
    outer loop
      vertex -21.925090983510017 -9.76167943328619 5
      vertex -19.416407868266106 -14.106846056878567 5
      vertex -18.270909152925014 -8.134732864797115 5
    endloop
  endfacet
  facet normal 0 0 1
    outer loop
      vertex -21.925090983510017 -9.76167943328619 5
      vertex -18.270909152925014 -8.134732864797115 5
      vertex -19.562952011823654 -4.158233813941479 5
    endloop
  endfacet
  facet normal 0 0 1
    outer loop
      vertex -23.475542418658733 -4.9898805767297745 5
      vertex -21.925090983510017 -9.76167943328619 5
      vertex -19.562952011823654 -4.158233813941479 5
    endloop
  endfacet
  facet normal 0 0 1
    outer loop
      vertex -23.475542418658733 -4.9898805767297745 5
      vertex -19.562952011823654 -4.158233813941479 5
      vertex -20 0 5
    endloop
  endfacet
  facet normal 0 0 1
    outer loop
      vertex -24 0 5
      vertex -23.475542418658733 -4.9898805767297745 5
      vertex -20 0 5
    endloop
  endfacet
  facet normal 0 0 1
    outer loop
      vertex -24 0 5
      vertex -20 0 5
      vertex -19.562952011823654 4.158233813941479 5
    endloop
  endfacet
  facet normal 0 0 1
    outer loop
      vertex -23.475542418658733 4.9898805767297745 5
      vertex -24 0 5
      vertex -19.562952011823654 4.158233813941479 5
    endloop
  endfacet
  facet normal 0 0 1
    outer loop
      vertex -23.475542418658733 4.9898805767297745 5
      vertex -19.562952011823654 4.158233813941479 5
      vertex -18.270909152925014 8.134732864797115 5
    endloop
  endfacet
  facet normal 0 0 1
    outer loop
      vertex -21.925090983510017 9.76167943328619 5
      vertex -23.475542418658733 4.9898805767297745 5
      vertex -18.270909152925014 8.134732864797115 5
    endloop
  endfacet
  facet normal 0 0 1
    outer loop
      vertex -21.925090983510017 9.76167943328619 5
      vertex -18.270909152925014 8.134732864797115 5
      vertex -16.180339887738228 11.755705043673515 5
    endloop
  endfacet
  facet normal 0 0 1
    outer loop
      vertex -19.416407868266106 14.106846056878567 5
      vertex -21.925090983510017 9.76167943328619 5
      vertex -16.180339887738228 11.755705043673515 5
    endloop
  endfacet
  facet normal 0 0 1
    outer loop
      vertex -19.416407868266106 14.106846056878567 5
      vertex -16.180339887738228 11.755705043673515 5
      vertex -13.382612124085426 14.862896509468555 5
    endloop
  endfacet
  facet normal 0 0 1
    outer loop
      vertex -16.059134550392628 17.83547580987215 5
      vertex -19.416407868266106 14.106846056878567 5
      vertex -13.382612124085426 14.862896509468555 5
    endloop
  endfacet
  facet normal 0 0 1
    outer loop
      vertex -16.059134550392628 17.83547580987215 5
      vertex -13.382612124085426 14.862896509468555 5
      vertex -10 17.32050807774067 5
    endloop
  endfacet
  facet normal 0 0 1
    outer loop
      vertex -12 20.78460969030857 5
      vertex -16.059134550392628 17.83547580987215 5
      vertex -10 17.32050807774067 5
    endloop
  endfacet
  facet normal 0 0 1
    outer loop
      vertex -12 20.78460969030857 5
      vertex -10 17.32050807774067 5
      vertex -6.180339887738228 19.021130323410034 5
    endloop
  endfacet
  facet normal 0 0 1
    outer loop
      vertex -7.416407868266106 22.825356394052505 5
      vertex -12 20.78460969030857 5
      vertex -6.180339887738228 19.021130323410034 5
    endloop
  endfacet
  facet normal 0 0 1
    outer loop
      vertex -7.416407868266106 22.825356394052505 5
      vertex -6.180339887738228 19.021130323410034 5
      vertex -2.0905692651867867 19.89043790847063 5
    endloop
  endfacet
  facet normal 0 0 1
    outer loop
      vertex -2.5086831152439117 23.868525490164757 5
      vertex -7.416407868266106 22.825356394052505 5
      vertex -2.0905692651867867 19.89043790847063 5
    endloop
  endfacet
endsolid PythonSCAD_Model
