solid PythonSCAD_Model
  facet normal -1 0 0
    outer loop
      vertex 0 -2.0000000000000013 -4
      vertex 0 1.9999999999999987 4
      vertex 0 1.9999999999999987 -4
    endloop
  endfacet
  facet normal 0 0 -1
    outer loop
      vertex 0 1.9999999999999987 -4
      vertex 39.99859294336106 -1.9998592943361047 -4
      vertex 0 -2.0000000000000013 -4
    endloop
  endfacet
  facet normal -7.011934892369409e-17 1 0
    outer loop
      vertex 0 1.9999999999999987 -4
      vertex 0 1.9999999999999987 4
      vertex 38 2.0000000000000013 -4
    endloop
  endfacet
  facet normal -1 0 0
    outer loop
      vertex 0 -2.0000000000000013 -4
      vertex 0 -2.0000000000000013 4
      vertex 0 1.9999999999999987 4
    endloop
  endfacet
  facet normal 6.661338147750939e-17 -1 0
    outer loop
      vertex 0 -2.0000000000000013 -4
      vertex 40 -1.9999999999999987 4
      vertex 0 -2.0000000000000013 4
    endloop
  endfacet
  facet normal 0 0 1
    outer loop
      vertex 0 -2.0000000000000013 4
      vertex 38 1.8000000000000012 4
      vertex 0 1.9999999999999987 4
    endloop
  endfacet
  facet normal 0 0 -1
    outer loop
      vertex 0 1.9999999999999987 -4
      vertex 38 2.0000000000000013 -4
      vertex 40 0 -4
    endloop
  endfacet
  facet normal 0 0 -1
    outer loop
      vertex 0 -2.0000000000000013 -4
      vertex 39.99859294336106 -1.9998592943361047 -4
      vertex 40 -1.9999999999999987 -4
    endloop
  endfacet
  facet normal 0 0 -1
    outer loop
      vertex 0 1.9999999999999987 -4
      vertex 40 0 -4
      vertex 39.99859294336106 -1.9998592943361047 -4
    endloop
  endfacet
  facet normal 6.661338147750939e-17 -1 0
    outer loop
      vertex 0 -2.0000000000000013 -4
      vertex 40 -1.9999999999999987 -4
      vertex 40 -1.9999999999999987 4
    endloop
  endfacet
  facet normal 0 0 -1
    outer loop
      vertex 38 2.0000000000000013 -4
      vertex 38.2 2.0000000000000013 -4
      vertex 40 0 -4
    endloop
  endfacet
  facet normal 0 0 -1
    outer loop
      vertex 40 -1.9999999999999987 -4
      vertex 39.99859294336106 -1.9998592943361047 -4
      vertex 40 -1.9992771915437608 -4
    endloop
  endfacet
  facet normal 1 0 0
    outer loop
      vertex 40 -1.9999999999999987 -4
      vertex 40 -1.9992771915437608 -4
      vertex 40 -1.9992771915437608 4
    endloop
  endfacet
  facet normal -7.011934892369409e-17 1 0
    outer loop
      vertex 0 1.9999999999999987 4
      vertex 38 2.0000000000000013 4
      vertex 38 2.0000000000000013 -4
    endloop
  endfacet
  facet normal 0 0 1
    outer loop
      vertex 0 -2.0000000000000013 4
      vertex 40 -1.9999999999999987 4
      vertex 38 1.8000000000000012 4
    endloop
  endfacet
  facet normal 0 0 1
    outer loop
      vertex 0 1.9999999999999987 4
      vertex 38 1.8000000000000012 4
      vertex 38 2.0000000000000013 4
    endloop
  endfacet
  facet normal 1 0 0
    outer loop
      vertex 40 -1.9999999999999987 -4
      vertex 40 -1.9992771915437608 4
      vertex 40 -1.9999999999999987 4
    endloop
  endfacet
  facet normal 0 0 1
    outer loop
      vertex 40 -1.9999999999999987 4
      vertex 40 -1.9992771915437608 4
      vertex 38 1.8000000000000012 4
    endloop
  endfacet
  facet normal 0 0 1
    outer loop
      vertex 38 1.8000000000000012 4
      vertex 40 -1.9992771915437608 4
      vertex 40 0 4
    endloop
  endfacet
  facet normal 0 0 -1
    outer loop
      vertex 42 0 -4
      vertex 41.99927719154376 0 -4
      vertex 41.99940643358823 0.00031240337461675515 -4
    endloop
  endfacet
  facet normal 0 0 -1
    outer loop
      vertex 38.2 2.0000000000000013 -4
      vertex 41.99940643358823 0.00031240337461675515 -4
      vertex 40 0 -4
    endloop
  endfacet
  facet normal 0 -1 0
    outer loop
      vertex 42 0 -4
      vertex 42 0 4
      vertex 41.99927719154376 0 -4
    endloop
  endfacet
  facet normal 0 0 -1
    outer loop
      vertex 42 40 -4
      vertex 42 0 -4
      vertex 41.99940643358823 0.00031240337461675515 -4
    endloop
  endfacet
  facet normal 0 0 -1
    outer loop
      vertex 38 2.0000000000000013 -4
      vertex 38 40 -4
      vertex 38.2 2.0000000000000013 -4
    endloop
  endfacet
  facet normal 0 0 -1
    outer loop
      vertex 38.2 2.0000000000000013 -4
      vertex 42 40 -4
      vertex 41.99940643358823 0.00031240337461675515 -4
    endloop
  endfacet
  facet normal 0 -1 0
    outer loop
      vertex 42 0 4
      vertex 41.99927719154376 0 4
      vertex 41.99927719154376 0 -4
    endloop
  endfacet
  facet normal 0 0 1
    outer loop
      vertex 38 1.8000000000000012 4
      vertex 40 0 4
      vertex 38 2.0000000000000013 4
    endloop
  endfacet
  facet normal 1 0 0
    outer loop
      vertex 42 0 -4
      vertex 42 40 4
      vertex 42 0 4
    endloop
  endfacet
  facet normal -1 0 0
    outer loop
      vertex 38 2.0000000000000013 -4
      vertex 38 2.0000000000000013 4
      vertex 38 40 4
    endloop
  endfacet
  facet normal 0 0 1
    outer loop
      vertex 38 40 4
      vertex 40 0 4
      vertex 41.99927719154376 0 4
    endloop
  endfacet
  facet normal 0 0 1
    outer loop
      vertex 42 0 4
      vertex 38 40 4
      vertex 41.99927719154376 0 4
    endloop
  endfacet
  facet normal 0 0 1
    outer loop
      vertex 38 2.0000000000000013 4
      vertex 40 0 4
      vertex 38 40 4
    endloop
  endfacet
  facet normal 0 0 -1
    outer loop
      vertex 38.2 2.0000000000000013 -4
      vertex 38 40 -4
      vertex 42 40 -4
    endloop
  endfacet
  facet normal -1 0 0
    outer loop
      vertex 38 2.0000000000000013 -4
      vertex 38 40 4
      vertex 38 40 -4
    endloop
  endfacet
  facet normal 1 0 0
    outer loop
      vertex 42 0 -4
      vertex 42 40 -4
      vertex 42 40 4
    endloop
  endfacet
  facet normal 0 1 0
    outer loop
      vertex 38 40 -4
      vertex 38 40 4
      vertex 42 40 -4
    endloop
  endfacet
  facet normal 0 0 1
    outer loop
      vertex 42 0 4
      vertex 42 40 4
      vertex 38 40 4
    endloop
  endfacet
  facet normal 0 1 0
    outer loop
      vertex 42 40 -4
      vertex 38 40 4
      vertex 42 40 4
    endloop
  endfacet
  facet normal 0 0 -1
    outer loop
      vertex 40 -1.9992771915437608 -4
      vertex 39.99859294336106 -1.9998592943361047 -4
      vertex 40 0 -4
    endloop
  endfacet
  facet normal 3.1401849173675562e-16 0 -1
    outer loop
      vertex 41.41421356237309 -1.4142135623730954 -3.9999999999999996
      vertex 40 -1.9992771915437608 -4
      vertex 40 0 -4
    endloop
  endfacet
  facet normal 0 -3.1401849173675493e-16 -1
    outer loop
      vertex 41.41421356237309 -1.4142135623730954 -3.9999999999999996
      vertex 40 0 -4
      vertex 41.99927719154376 0 -4
    endloop
  endfacet
  facet normal 0 0 -1
    outer loop
      vertex 40 0 -4
      vertex 41.99940643358823 0.00031240337461675515 -4
      vertex 41.99927719154376 0 -4
    endloop
  endfacet
  facet normal 0.38228027745576715 -0.9240464217063675 0
    outer loop
      vertex 41.41421356237309 -1.4142135623730954 -3.9999999999999996
      vertex 40 -1.9992771915437608 4
      vertex 40 -1.9992771915437608 -4
    endloop
  endfacet
  facet normal 0.9240464217063669 -0.3822802774557685 0
    outer loop
      vertex 41.41421356237309 -1.4142135623730954 -3.9999999999999996
      vertex 41.99927719154376 0 -4
      vertex 41.41421356237309 -1.4142135623730954 3.9999999999999996
    endloop
  endfacet
  facet normal 0.38228027745576704 -0.9240464217063673 0
    outer loop
      vertex 41.41421356237309 -1.4142135623730954 -3.9999999999999996
      vertex 41.41421356237309 -1.4142135623730954 3.9999999999999996
      vertex 40 -1.9992771915437608 4
    endloop
  endfacet
  facet normal 0.9240464217063669 -0.3822802774557685 0
    outer loop
      vertex 41.41421356237309 -1.4142135623730954 3.9999999999999996
      vertex 41.99927719154376 0 -4
      vertex 41.99927719154376 0 4
    endloop
  endfacet
  facet normal 3.1401849173675562e-16 0 1
    outer loop
      vertex 41.41421356237309 -1.4142135623730954 3.9999999999999996
      vertex 40 0 4
      vertex 40 -1.9992771915437608 4
    endloop
  endfacet
  facet normal 0 -3.1401849173675493e-16 1
    outer loop
      vertex 41.41421356237309 -1.4142135623730954 3.9999999999999996
      vertex 41.99927719154376 0 4
      vertex 40 0 4
    endloop
  endfacet
endsolid PythonSCAD_Model
