solid PythonSCAD_Model
  facet normal -0.5936131960090999 -0.39663965676028123 -0.7002145072825529
    outer loop
      vertex -17.566399835796684 -11.06303761845907 -9.157348061512726
      vertex -16.964237395967757 -11.964237395967755 -9.157348061512726
      vertex -18.84088878355708 -11.590948225716042 -7.777851165098011
    endloop
  endfacet
  facet normal -0.5936131960090999 -0.3966396567602814 -0.7002145072825526
    outer loop
      vertex -18.84088878355708 -11.590948225716042 -7.777851165098011
      vertex -16.964237395967757 -11.964237395967755 -9.157348061512726
      vertex -17.939689006048397 -12.939689006048397 -7.777851165098011
    endloop
  endfacet
  facet normal -0.1392813253171526 -0.7002145072825531 -0.7002145072825534
    outer loop
      vertex -16.06303761845907 -12.566399835796684 -9.157348061512726
      vertex -15 -12.77785116509801 -9.157348061512726
      vertex -15 -14.157348061512726 -7.777851165098011
    endloop
  endfacet
  facet normal -0.13928132531715318 -0.7002145072825532 -0.7002145072825532
    outer loop
      vertex -16.06303761845907 -12.566399835796684 -9.157348061512726
      vertex -15 -14.157348061512726 -7.777851165098011
      vertex -16.590948225716044 -13.840888783557082 -7.777851165098011
    endloop
  endfacet
  facet normal -0.39663965676028123 -0.5936131960090993 -0.7002145072825535
    outer loop
      vertex -16.06303761845907 -12.566399835796684 -9.157348061512726
      vertex -16.590948225716044 -13.840888783557082 -7.777851165098011
      vertex -16.964237395967757 -11.964237395967755 -9.157348061512726
    endloop
  endfacet
  facet normal -0.21614744150487725 -0.32348750654160147 -0.9212144791753943
    outer loop
      vertex -16.964237395967757 -11.964237395967755 -9.157348061512726
      vertex -15.373289170251713 -10.901199777508685 -9.903926402016152
      vertex -16.06303761845907 -12.566399835796684 -9.157348061512726
    endloop
  endfacet
  facet normal -0.2161474415048777 -0.3234875065416008 -0.9212144791753945
    outer loop
      vertex -15.689748448207357 -10.689748448207357 -9.903926402016152
      vertex -15.373289170251713 -10.901199777508685 -9.903926402016152
      vertex -16.964237395967757 -11.964237395967755 -9.157348061512726
    endloop
  endfacet
  facet normal -0.075900887880472 -0.38157953112891557 -0.9212144791753942
    outer loop
      vertex -15 -10.975451610080642 -9.903926402016152
      vertex -15 -12.77785116509801 -9.157348061512726
      vertex -16.06303761845907 -12.566399835796684 -9.157348061512726
    endloop
  endfacet
  facet normal -0.07590088788047245 -0.3815795311289154 -0.9212144791753943
    outer loop
      vertex -16.06303761845907 -12.566399835796684 -9.157348061512726
      vertex -15.373289170251713 -10.901199777508685 -9.903926402016152
      vertex -15 -10.975451610080642 -9.903926402016152
    endloop
  endfacet
  facet normal -0.3966396567602822 -0.5936131960090991 -0.700214507282553
    outer loop
      vertex -16.964237395967757 -11.964237395967755 -9.157348061512726
      vertex -16.590948225716044 -13.840888783557082 -7.777851165098011
      vertex -17.939689006048397 -12.939689006048397 -7.777851165098011
    endloop
  endfacet
  facet normal -0.5147164328119485 -0.770327579484985 -0.37638067707860234
    outer loop
      vertex -17.939689006048397 -12.939689006048397 -7.777851165098011
      vertex -16.590948225716044 -13.840888783557082 -7.777851165098011
      vertex -18.467599613305367 -13.467599613305369 -5.975451610080642
    endloop
  endfacet
  facet normal -0.7703275794849856 -0.5147164328119471 -0.37638067707860273
    outer loop
      vertex -18.84088878355708 -11.590948225716042 -7.777851165098011
      vertex -17.939689006048397 -12.939689006048397 -7.777851165098011
      vertex -19.530637231764437 -11.876651387589327 -5.975451610080642
    endloop
  endfacet
  facet normal -0.7703275794849854 -0.5147164328119479 -0.3763806770786021
    outer loop
      vertex -19.530637231764437 -11.876651387589327 -5.975451610080642
      vertex -17.939689006048397 -12.939689006048397 -7.777851165098011
      vertex -18.467599613305367 -13.467599613305369 -5.975451610080642
    endloop
  endfacet
  facet normal -0.5147164328119482 -0.7703275794849851 -0.37638067707860223
    outer loop
      vertex -18.467599613305367 -13.467599613305369 -5.975451610080642
      vertex -16.590948225716044 -13.840888783557082 -7.777851165098011
      vertex -16.876651387589327 -14.53063723176444 -5.975451610080642
    endloop
  endfacet
  facet normal -0.18074437515937358 -0.9086633352183306 -0.37638067707860257
    outer loop
      vertex -16.590948225716044 -13.840888783557082 -7.777851165098011
      vertex -15 -14.157348061512726 -7.777851165098011
      vertex -15 -14.903926402016152 -5.975451610080642
    endloop
  endfacet
  facet normal -0.1807443751593738 -0.9086633352183306 -0.3763806770786024
    outer loop
      vertex -16.876651387589327 -14.53063723176444 -5.975451610080642
      vertex -16.590948225716044 -13.840888783557082 -7.777851165098011
      vertex -15 -14.903926402016152 -5.975451610080642
    endloop
  endfacet
  facet normal -0.7002145072825525 -0.13928132531715254 -0.7002145072825537
    outer loop
      vertex -19.157348061512728 -10 -7.777851165098011
      vertex -17.77785116509801 -10 -9.157348061512726
      vertex -17.566399835796684 -11.06303761845907 -9.157348061512726
    endloop
  endfacet
  facet normal -0.7002145072825531 -0.13928132531715498 -0.7002145072825526
    outer loop
      vertex -17.566399835796684 -11.06303761845907 -9.157348061512726
      vertex -18.84088878355708 -11.590948225716042 -7.777851165098011
      vertex -19.157348061512728 -10 -7.777851165098011
    endloop
  endfacet
  facet normal -0.3234875065416015 -0.21614744150487702 -0.9212144791753945
    outer loop
      vertex -15.901199777508685 -10.373289170251713 -9.903926402016152
      vertex -16.964237395967757 -11.964237395967755 -9.157348061512726
      vertex -17.566399835796684 -11.06303761845907 -9.157348061512726
    endloop
  endfacet
  facet normal -0.38157953112891557 -0.07590088788047207 -0.9212144791753942
    outer loop
      vertex -17.566399835796684 -11.06303761845907 -9.157348061512726
      vertex -17.77785116509801 -10 -9.157348061512726
      vertex -15.975451610080642 -10 -9.903926402016152
    endloop
  endfacet
  facet normal -0.3234875065416007 -0.21614744150487764 -0.9212144791753945
    outer loop
      vertex -15.689748448207357 -10.689748448207357 -9.903926402016152
      vertex -16.964237395967757 -11.964237395967755 -9.157348061512726
      vertex -15.901199777508685 -10.373289170251713 -9.903926402016152
    endloop
  endfacet
  facet normal -0.38157953112891535 -0.07590088788047258 -0.9212144791753943
    outer loop
      vertex -15.975451610080642 -10 -9.903926402016152
      vertex -15.901199777508685 -10.373289170251713 -9.903926402016152
      vertex -17.566399835796684 -11.06303761845907 -9.157348061512726
    endloop
  endfacet
  facet normal -0.9086633352183301 -0.18074437515937578 -0.37638067707860273
    outer loop
      vertex -19.157348061512728 -10 -7.777851165098011
      vertex -18.84088878355708 -11.590948225716042 -7.777851165098011
      vertex -19.530637231764437 -11.876651387589327 -5.975451610080642
    endloop
  endfacet
  facet normal -0.9086633352183303 -0.18074437515937547 -0.37638067707860245
    outer loop
      vertex -19.530637231764437 -11.876651387589327 -5.975451610080642
      vertex -19.903926402016154 -10 -5.975451610080642
      vertex -19.157348061512728 -10 -7.777851165098011
    endloop
  endfacet
  facet normal -0.8314696123025452 -0.5555702330196022 0
    outer loop
      vertex -18.467599613305367 -13.467599613305369 -5.975451610080642
      vertex -19.530637231764437 -11.876651387589327 5.975451610080642
      vertex -19.530637231764437 -11.876651387589327 -5.975451610080642
    endloop
  endfacet
  facet normal -0.9807852804032301 -0.19509032201612997 0
    outer loop
      vertex -19.530637231764437 -11.876651387589327 5.975451610080642
      vertex -19.903926402016154 -10 -5.975451610080642
      vertex -19.530637231764437 -11.876651387589327 -5.975451610080642
    endloop
  endfacet
  facet normal -0.5555702330196025 -0.831469612302545 0
    outer loop
      vertex -16.876651387589327 -14.53063723176444 -5.975451610080642
      vertex -16.876651387589327 -14.53063723176444 5.975451610080642
      vertex -18.467599613305367 -13.467599613305369 -5.975451610080642
    endloop
  endfacet
  facet normal -0.19509032201612816 -0.9807852804032304 0
    outer loop
      vertex -16.876651387589327 -14.53063723176444 -5.975451610080642
      vertex -15 -14.903926402016152 -5.975451610080642
      vertex -16.876651387589327 -14.53063723176444 5.975451610080642
    endloop
  endfacet
  facet normal -0.7071067811865468 0 -0.7071067811865482
    outer loop
      vertex -19.157348061512728 10 -7.777851165098011
      vertex -17.77785116509801 -10 -9.157348061512726
      vertex -19.157348061512728 -10 -7.777851165098011
    endloop
  endfacet
  facet normal -0.3826834323650899 0 -0.9238795325112866
    outer loop
      vertex -15.975451610080642 -10 -9.903926402016152
      vertex -17.77785116509801 -10 -9.157348061512726
      vertex -15.975451610080642 10 -9.903926402016152
    endloop
  endfacet
  facet normal -0.9238795325112868 0 -0.3826834323650898
    outer loop
      vertex -19.157348061512728 -10 -7.777851165098011
      vertex -19.903926402016154 -10 -5.975451610080642
      vertex -19.157348061512728 10 -7.777851165098011
    endloop
  endfacet
  facet normal 0 -0.7071067811865472 -0.7071067811865478
    outer loop
      vertex -15 -14.157348061512726 -7.777851165098011
      vertex -15 -12.77785116509801 -9.157348061512726
      vertex 15 -14.157348061512726 -7.777851165098011
    endloop
  endfacet
  facet normal 0 -0.38268343236508995 -0.9238795325112867
    outer loop
      vertex 15 -10.975451610080642 -9.903926402016152
      vertex -15 -12.77785116509801 -9.157348061512726
      vertex -15 -10.975451610080642 -9.903926402016152
    endloop
  endfacet
  facet normal 0 -0.9238795325112867 -0.3826834323650898
    outer loop
      vertex -15 -14.903926402016152 -5.975451610080642
      vertex -15 -14.157348061512726 -7.777851165098011
      vertex 15 -14.903926402016152 -5.975451610080642
    endloop
  endfacet
  facet normal 0 0 -1
    outer loop
      vertex -15.689748448207357 -10.689748448207357 -9.903926402016152
      vertex 15.373289170251713 -10.901199777508685 -9.903926402016152
      vertex -15.373289170251713 -10.901199777508685 -9.903926402016152
    endloop
  endfacet
  facet normal 0 0 -1
    outer loop
      vertex -15.373289170251713 -10.901199777508685 -9.903926402016152
      vertex 15.373289170251713 -10.901199777508685 -9.903926402016152
      vertex -15 -10.975451610080642 -9.903926402016152
    endloop
  endfacet
  facet normal 0 0 -1
    outer loop
      vertex -15.901199777508685 -10.373289170251713 -9.903926402016152
      vertex 15.373289170251713 -10.901199777508685 -9.903926402016152
      vertex -15.689748448207357 -10.689748448207357 -9.903926402016152
    endloop
  endfacet
  facet normal 0 0 -1
    outer loop
      vertex -15.975451610080642 -10 -9.903926402016152
      vertex 15.373289170251713 -10.901199777508685 -9.903926402016152
      vertex -15.901199777508685 -10.373289170251713 -9.903926402016152
    endloop
  endfacet
  facet normal 0 0 -1
    outer loop
      vertex -15.975451610080642 10 -9.903926402016152
      vertex 15.373289170251713 -10.901199777508685 -9.903926402016152
      vertex -15.975451610080642 -10 -9.903926402016152
    endloop
  endfacet
  facet normal -0.5555702330196025 -0.831469612302545 0
    outer loop
      vertex -18.467599613305367 -13.467599613305369 -5.975451610080642
      vertex -16.876651387589327 -14.53063723176444 5.975451610080642
      vertex -18.467599613305367 -13.467599613305369 5.975451610080642
    endloop
  endfacet
  facet normal -0.8314696123025452 -0.5555702330196022 0
    outer loop
      vertex -18.467599613305367 -13.467599613305369 5.975451610080642
      vertex -19.530637231764437 -11.876651387589327 5.975451610080642
      vertex -18.467599613305367 -13.467599613305369 -5.975451610080642
    endloop
  endfacet
  facet normal -0.19509032201612816 -0.9807852804032304 0
    outer loop
      vertex -16.876651387589327 -14.53063723176444 5.975451610080642
      vertex -15 -14.903926402016152 -5.975451610080642
      vertex -15 -14.903926402016152 5.975451610080642
    endloop
  endfacet
  facet normal -0.9807852804032301 -0.19509032201612997 0
    outer loop
      vertex -19.903926402016154 -10 5.975451610080642
      vertex -19.903926402016154 -10 -5.975451610080642
      vertex -19.530637231764437 -11.876651387589327 5.975451610080642
    endloop
  endfacet
  facet normal -0.5147164328119485 -0.770327579484985 0.37638067707860234
    outer loop
      vertex -16.590948225716044 -13.840888783557082 7.777851165098011
      vertex -17.939689006048397 -12.939689006048397 7.777851165098011
      vertex -18.467599613305367 -13.467599613305369 5.975451610080642
    endloop
  endfacet
  facet normal -0.7703275794849856 -0.5147164328119471 0.37638067707860273
    outer loop
      vertex -18.84088878355708 -11.590948225716042 7.777851165098011
      vertex -19.530637231764437 -11.876651387589327 5.975451610080642
      vertex -17.939689006048397 -12.939689006048397 7.777851165098011
    endloop
  endfacet
  facet normal -0.7703275794849854 -0.5147164328119479 0.3763806770786022
    outer loop
      vertex -17.939689006048397 -12.939689006048397 7.777851165098011
      vertex -19.530637231764437 -11.876651387589327 5.975451610080642
      vertex -18.467599613305367 -13.467599613305369 5.975451610080642
    endloop
  endfacet
  facet normal -0.5147164328119482 -0.7703275794849851 0.37638067707860223
    outer loop
      vertex -18.467599613305367 -13.467599613305369 5.975451610080642
      vertex -16.876651387589327 -14.53063723176444 5.975451610080642
      vertex -16.590948225716044 -13.840888783557082 7.777851165098011
    endloop
  endfacet
  facet normal -0.1807443751593738 -0.9086633352183306 0.37638067707860234
    outer loop
      vertex -16.590948225716044 -13.840888783557082 7.777851165098011
      vertex -16.876651387589327 -14.53063723176444 5.975451610080642
      vertex -15 -14.903926402016152 5.975451610080642
    endloop
  endfacet
  facet normal -0.18074437515937358 -0.9086633352183306 0.37638067707860257
    outer loop
      vertex -15 -14.157348061512726 7.777851165098011
      vertex -16.590948225716044 -13.840888783557082 7.777851165098011
      vertex -15 -14.903926402016152 5.975451610080642
    endloop
  endfacet
  facet normal -0.5936131960090999 -0.3966396567602814 0.7002145072825526
    outer loop
      vertex -18.84088878355708 -11.590948225716042 7.777851165098011
      vertex -17.939689006048397 -12.939689006048397 7.777851165098011
      vertex -16.964237395967757 -11.964237395967755 9.157348061512726
    endloop
  endfacet
  facet normal -0.5936131960090999 -0.39663965676028123 0.7002145072825527
    outer loop
      vertex -16.964237395967757 -11.964237395967755 9.157348061512726
      vertex -17.566399835796684 -11.06303761845907 9.157348061512726
      vertex -18.84088878355708 -11.590948225716042 7.777851165098011
    endloop
  endfacet
  facet normal -0.1392813253171532 -0.7002145072825532 0.7002145072825532
    outer loop
      vertex -15 -14.157348061512726 7.777851165098011
      vertex -16.06303761845907 -12.566399835796684 9.157348061512726
      vertex -16.590948225716044 -13.840888783557082 7.777851165098011
    endloop
  endfacet
  facet normal -0.1392813253171526 -0.7002145072825531 0.7002145072825535
    outer loop
      vertex -15 -12.77785116509801 9.157348061512726
      vertex -16.06303761845907 -12.566399835796684 9.157348061512726
      vertex -15 -14.157348061512726 7.777851165098011
    endloop
  endfacet
  facet normal -0.3966396567602822 -0.5936131960090991 0.700214507282553
    outer loop
      vertex -16.964237395967757 -11.964237395967755 9.157348061512726
      vertex -17.939689006048397 -12.939689006048397 7.777851165098011
      vertex -16.590948225716044 -13.840888783557082 7.777851165098011
    endloop
  endfacet
  facet normal -0.3966396567602812 -0.5936131960090993 0.7002145072825535
    outer loop
      vertex -16.590948225716044 -13.840888783557082 7.777851165098011
      vertex -16.06303761845907 -12.566399835796684 9.157348061512726
      vertex -16.964237395967757 -11.964237395967755 9.157348061512726
    endloop
  endfacet
  facet normal -0.21614744150487725 -0.32348750654160147 0.9212144791753943
    outer loop
      vertex -16.964237395967757 -11.964237395967755 9.157348061512726
      vertex -16.06303761845907 -12.566399835796684 9.157348061512726
      vertex -15.373289170251713 -10.901199777508685 9.903926402016152
    endloop
  endfacet
  facet normal -0.2161474415048777 -0.3234875065416008 0.9212144791753945
    outer loop
      vertex -15.373289170251713 -10.901199777508685 9.903926402016152
      vertex -15.689748448207357 -10.689748448207357 9.903926402016152
      vertex -16.964237395967757 -11.964237395967755 9.157348061512726
    endloop
  endfacet
  facet normal -0.075900887880472 -0.38157953112891557 0.9212144791753942
    outer loop
      vertex -15 -10.975451610080642 9.903926402016152
      vertex -16.06303761845907 -12.566399835796684 9.157348061512726
      vertex -15 -12.77785116509801 9.157348061512726
    endloop
  endfacet
  facet normal -0.0759008878804726 -0.3815795311289154 0.9212144791753943
    outer loop
      vertex -15.373289170251713 -10.901199777508685 9.903926402016152
      vertex -16.06303761845907 -12.566399835796684 9.157348061512726
      vertex -15 -10.975451610080642 9.903926402016152
    endloop
  endfacet
  facet normal -0.9086633352183303 -0.18074437515937547 0.37638067707860245
    outer loop
      vertex -19.903926402016154 -10 5.975451610080642
      vertex -19.530637231764437 -11.876651387589327 5.975451610080642
      vertex -19.157348061512728 -10 7.777851165098011
    endloop
  endfacet
  facet normal -0.9086633352183301 -0.18074437515937578 0.37638067707860273
    outer loop
      vertex -19.157348061512728 -10 7.777851165098011
      vertex -19.530637231764437 -11.876651387589327 5.975451610080642
      vertex -18.84088878355708 -11.590948225716042 7.777851165098011
    endloop
  endfacet
  facet normal -0.7002145072825531 -0.13928132531715492 0.7002145072825526
    outer loop
      vertex -18.84088878355708 -11.590948225716042 7.777851165098011
      vertex -17.566399835796684 -11.06303761845907 9.157348061512726
      vertex -19.157348061512728 -10 7.777851165098011
    endloop
  endfacet
  facet normal -0.7002145072825525 -0.13928132531715254 0.7002145072825537
    outer loop
      vertex -19.157348061512728 -10 7.777851165098011
      vertex -17.566399835796684 -11.06303761845907 9.157348061512726
      vertex -17.77785116509801 -10 9.157348061512726
    endloop
  endfacet
  facet normal -0.3234875065416015 -0.21614744150487702 0.9212144791753945
    outer loop
      vertex -15.901199777508685 -10.373289170251713 9.903926402016152
      vertex -17.566399835796684 -11.06303761845907 9.157348061512726
      vertex -16.964237395967757 -11.964237395967755 9.157348061512726
    endloop
  endfacet
  facet normal -0.38157953112891557 -0.07590088788047207 0.9212144791753942
    outer loop
      vertex -17.77785116509801 -10 9.157348061512726
      vertex -17.566399835796684 -11.06303761845907 9.157348061512726
      vertex -15.975451610080642 -10 9.903926402016152
    endloop
  endfacet
  facet normal -0.3234875065416007 -0.21614744150487755 0.9212144791753945
    outer loop
      vertex -16.964237395967757 -11.964237395967755 9.157348061512726
      vertex -15.689748448207357 -10.689748448207357 9.903926402016152
      vertex -15.901199777508685 -10.373289170251713 9.903926402016152
    endloop
  endfacet
  facet normal -0.38157953112891535 -0.07590088788047258 0.9212144791753943
    outer loop
      vertex -15.975451610080642 -10 9.903926402016152
      vertex -17.566399835796684 -11.06303761845907 9.157348061512726
      vertex -15.901199777508685 -10.373289170251713 9.903926402016152
    endloop
  endfacet
  facet normal -1 0 0
    outer loop
      vertex -19.903926402016154 10 5.975451610080642
      vertex -19.903926402016154 -10 -5.975451610080642
      vertex -19.903926402016154 -10 5.975451610080642
    endloop
  endfacet
  facet normal -0.9238795325112868 0 0.3826834323650898
    outer loop
      vertex -19.157348061512728 10 7.777851165098011
      vertex -19.903926402016154 -10 5.975451610080642
      vertex -19.157348061512728 -10 7.777851165098011
    endloop
  endfacet
  facet normal -0.7071067811865468 0 0.7071067811865482
    outer loop
      vertex -19.157348061512728 -10 7.777851165098011
      vertex -17.77785116509801 -10 9.157348061512726
      vertex -19.157348061512728 10 7.777851165098011
    endloop
  endfacet
  facet normal -0.3826834323650899 0 0.9238795325112866
    outer loop
      vertex -17.77785116509801 -10 9.157348061512726
      vertex -15.975451610080642 -10 9.903926402016152
      vertex -17.77785116509801 10 9.157348061512726
    endloop
  endfacet
  facet normal 0 -1 0
    outer loop
      vertex -15 -14.903926402016152 -5.975451610080642
      vertex 15 -14.903926402016152 5.975451610080642
      vertex -15 -14.903926402016152 5.975451610080642
    endloop
  endfacet
  facet normal 0 -0.9238795325112867 0.3826834323650898
    outer loop
      vertex -15 -14.903926402016152 5.975451610080642
      vertex 15 -14.903926402016152 5.975451610080642
      vertex -15 -14.157348061512726 7.777851165098011
    endloop
  endfacet
  facet normal 0 -0.7071067811865472 0.7071067811865478
    outer loop
      vertex -15 -14.157348061512726 7.777851165098011
      vertex 15 -12.77785116509801 9.157348061512726
      vertex -15 -12.77785116509801 9.157348061512726
    endloop
  endfacet
  facet normal 0 -0.38268343236508995 0.9238795325112867
    outer loop
      vertex -15 -12.77785116509801 9.157348061512726
      vertex 15 -12.77785116509801 9.157348061512726
      vertex -15 -10.975451610080642 9.903926402016152
    endloop
  endfacet
  facet normal 0 0 1
    outer loop
      vertex -15.689748448207357 -10.689748448207357 9.903926402016152
      vertex 15.689748448207357 10.689748448207357 9.903926402016152
      vertex -15.901199777508685 -10.373289170251713 9.903926402016152
    endloop
  endfacet
  facet normal 0 0 1
    outer loop
      vertex -15.373289170251713 -10.901199777508685 9.903926402016152
      vertex 15.689748448207357 10.689748448207357 9.903926402016152
      vertex -15.689748448207357 -10.689748448207357 9.903926402016152
    endloop
  endfacet
  facet normal 0 0 1
    outer loop
      vertex -15.901199777508685 -10.373289170251713 9.903926402016152
      vertex 15.689748448207357 10.689748448207357 9.903926402016152
      vertex -15.975451610080642 -10 9.903926402016152
    endloop
  endfacet
  facet normal 0 0 1
    outer loop
      vertex -15 -10.975451610080642 9.903926402016152
      vertex 15.689748448207357 10.689748448207357 9.903926402016152
      vertex -15.373289170251713 -10.901199777508685 9.903926402016152
    endloop
  endfacet
  facet normal -0.7071067811865468 0 -0.7071067811865482
    outer loop
      vertex -17.77785116509801 10 -9.157348061512726
      vertex -17.77785116509801 -10 -9.157348061512726
      vertex -19.157348061512728 10 -7.777851165098011
    endloop
  endfacet
  facet normal -0.3826834323650899 0 -0.9238795325112866
    outer loop
      vertex -15.975451610080642 10 -9.903926402016152
      vertex -17.77785116509801 -10 -9.157348061512726
      vertex -17.77785116509801 10 -9.157348061512726
    endloop
  endfacet
  facet normal -0.9238795325112868 0 -0.3826834323650898
    outer loop
      vertex -19.157348061512728 10 -7.777851165098011
      vertex -19.903926402016154 -10 -5.975451610080642
      vertex -19.903926402016154 10 -5.975451610080642
    endloop
  endfacet
  facet normal -1 0 0
    outer loop
      vertex -19.903926402016154 10 -5.975451610080642
      vertex -19.903926402016154 -10 -5.975451610080642
      vertex -19.903926402016154 10 5.975451610080642
    endloop
  endfacet
  facet normal -0.7002145072825525 0.13928132531715248 -0.7002145072825539
    outer loop
      vertex -17.566399835796684 11.06303761845907 -9.157348061512726
      vertex -17.77785116509801 10 -9.157348061512726
      vertex -19.157348061512728 10 -7.777851165098011
    endloop
  endfacet
  facet normal -0.7002145072825531 0.13928132531715492 -0.7002145072825526
    outer loop
      vertex -19.157348061512728 10 -7.777851165098011
      vertex -18.84088878355708 11.590948225716042 -7.777851165098011
      vertex -17.566399835796684 11.06303761845907 -9.157348061512726
    endloop
  endfacet
  facet normal -0.38157953112891557 0.075900887880472 -0.9212144791753942
    outer loop
      vertex -15.975451610080642 10 -9.903926402016152
      vertex -17.77785116509801 10 -9.157348061512726
      vertex -17.566399835796684 11.06303761845907 -9.157348061512726
    endloop
  endfacet
  facet normal -0.3234875065416015 0.21614744150487705 -0.9212144791753945
    outer loop
      vertex -16.964237395967757 11.964237395967755 -9.157348061512726
      vertex -15.901199777508685 10.373289170251713 -9.903926402016152
      vertex -17.566399835796684 11.06303761845907 -9.157348061512726
    endloop
  endfacet
  facet normal -0.3815795311289154 0.07590088788047245 -0.9212144791753943
    outer loop
      vertex -17.566399835796684 11.06303761845907 -9.157348061512726
      vertex -15.901199777508685 10.373289170251713 -9.903926402016152
      vertex -15.975451610080642 10 -9.903926402016152
    endloop
  endfacet
  facet normal -0.3234875065416007 0.21614744150487764 -0.9212144791753945
    outer loop
      vertex -15.689748448207357 10.689748448207357 -9.903926402016152
      vertex -15.901199777508685 10.373289170251713 -9.903926402016152
      vertex -16.964237395967757 11.964237395967755 -9.157348061512726
    endloop
  endfacet
  facet normal -0.9086633352183301 0.18074437515937578 -0.3763806770786027
    outer loop
      vertex -19.530637231764437 11.876651387589327 -5.975451610080642
      vertex -18.84088878355708 11.590948225716042 -7.777851165098011
      vertex -19.157348061512728 10 -7.777851165098011
    endloop
  endfacet
  facet normal -0.9086633352183303 0.18074437515937547 -0.37638067707860245
    outer loop
      vertex -19.903926402016154 10 -5.975451610080642
      vertex -19.530637231764437 11.876651387589327 -5.975451610080642
      vertex -19.157348061512728 10 -7.777851165098011
    endloop
  endfacet
  facet normal -0.5936131960090999 0.39663965676028123 -0.7002145072825529
    outer loop
      vertex -17.566399835796684 11.06303761845907 -9.157348061512726
      vertex -18.84088878355708 11.590948225716042 -7.777851165098011
      vertex -16.964237395967757 11.964237395967755 -9.157348061512726
    endloop
  endfacet
  facet normal -0.5936131960090999 0.3966396567602814 -0.7002145072825526
    outer loop
      vertex -16.964237395967757 11.964237395967755 -9.157348061512726
      vertex -18.84088878355708 11.590948225716042 -7.777851165098011
      vertex -17.939689006048397 12.939689006048397 -7.777851165098011
    endloop
  endfacet
  facet normal -0.39663965676028123 0.5936131960090993 -0.7002145072825535
    outer loop
      vertex -16.964237395967757 11.964237395967755 -9.157348061512726
      vertex -16.590948225716044 13.840888783557082 -7.777851165098011
      vertex -16.06303761845907 12.566399835796684 -9.157348061512726
    endloop
  endfacet
  facet normal -0.2161474415048777 0.3234875065416008 -0.9212144791753945
    outer loop
      vertex -15.689748448207357 10.689748448207357 -9.903926402016152
      vertex -16.964237395967757 11.964237395967755 -9.157348061512726
      vertex -15.373289170251713 10.901199777508685 -9.903926402016152
    endloop
  endfacet
  facet normal -0.21614744150487716 0.3234875065416014 -0.9212144791753943
    outer loop
      vertex -15.373289170251713 10.901199777508685 -9.903926402016152
      vertex -16.964237395967757 11.964237395967755 -9.157348061512726
      vertex -16.06303761845907 12.566399835796684 -9.157348061512726
    endloop
  endfacet
  facet normal -0.07590088788047258 0.38157953112891535 -0.9212144791753943
    outer loop
      vertex -15 10.975451610080642 -9.903926402016152
      vertex -15.373289170251713 10.901199777508685 -9.903926402016152
      vertex -16.06303761845907 12.566399835796684 -9.157348061512726
    endloop
  endfacet
  facet normal -0.07590088788047207 0.38157953112891557 -0.9212144791753942
    outer loop
      vertex -16.06303761845907 12.566399835796684 -9.157348061512726
      vertex -15 12.77785116509801 -9.157348061512726
      vertex -15 10.975451610080642 -9.903926402016152
    endloop
  endfacet
  facet normal -0.3966396567602822 0.5936131960090991 -0.700214507282553
    outer loop
      vertex -17.939689006048397 12.939689006048397 -7.777851165098011
      vertex -16.590948225716044 13.840888783557082 -7.777851165098011
      vertex -16.964237395967757 11.964237395967755 -9.157348061512726
    endloop
  endfacet
  facet normal -0.1392813253171526 0.7002145072825531 -0.7002145072825534
    outer loop
      vertex -16.06303761845907 12.566399835796684 -9.157348061512726
      vertex -15 14.157348061512726 -7.777851165098011
      vertex -15 12.77785116509801 -9.157348061512726
    endloop
  endfacet
  facet normal -0.1392813253171532 0.7002145072825532 -0.7002145072825532
    outer loop
      vertex -16.590948225716044 13.840888783557082 -7.777851165098011
      vertex -15 14.157348061512726 -7.777851165098011
      vertex -16.06303761845907 12.566399835796684 -9.157348061512726
    endloop
  endfacet
  facet normal -0.7703275794849856 0.5147164328119471 -0.37638067707860273
    outer loop
      vertex -17.939689006048397 12.939689006048397 -7.777851165098011
      vertex -18.84088878355708 11.590948225716042 -7.777851165098011
      vertex -19.530637231764437 11.876651387589327 -5.975451610080642
    endloop
  endfacet
  facet normal -0.7703275794849854 0.5147164328119479 -0.3763806770786022
    outer loop
      vertex -18.467599613305367 13.467599613305369 -5.975451610080642
      vertex -17.939689006048397 12.939689006048397 -7.777851165098011
      vertex -19.530637231764437 11.876651387589327 -5.975451610080642
    endloop
  endfacet
  facet normal -0.5147164328119485 0.770327579484985 -0.3763806770786024
    outer loop
      vertex -18.467599613305367 13.467599613305369 -5.975451610080642
      vertex -16.590948225716044 13.840888783557082 -7.777851165098011
      vertex -17.939689006048397 12.939689006048397 -7.777851165098011
    endloop
  endfacet
  facet normal -0.5147164328119482 0.7703275794849851 -0.37638067707860223
    outer loop
      vertex -16.876651387589327 14.53063723176444 -5.975451610080642
      vertex -16.590948225716044 13.840888783557082 -7.777851165098011
      vertex -18.467599613305367 13.467599613305369 -5.975451610080642
    endloop
  endfacet
  facet normal -0.18074437515937364 0.9086633352183306 -0.37638067707860257
    outer loop
      vertex -15 14.903926402016152 -5.975451610080642
      vertex -15 14.157348061512726 -7.777851165098011
      vertex -16.590948225716044 13.840888783557082 -7.777851165098011
    endloop
  endfacet
  facet normal -0.1807443751593738 0.9086633352183306 -0.37638067707860234
    outer loop
      vertex -15 14.903926402016152 -5.975451610080642
      vertex -16.590948225716044 13.840888783557082 -7.777851165098011
      vertex -16.876651387589327 14.53063723176444 -5.975451610080642
    endloop
  endfacet
  facet normal -0.9807852804032301 0.19509032201612997 0
    outer loop
      vertex -19.903926402016154 10 5.975451610080642
      vertex -19.530637231764437 11.876651387589327 -5.975451610080642
      vertex -19.903926402016154 10 -5.975451610080642
    endloop
  endfacet
  facet normal -0.8314696123025452 0.5555702330196022 0
    outer loop
      vertex -19.530637231764437 11.876651387589327 -5.975451610080642
      vertex -18.467599613305367 13.467599613305369 5.975451610080642
      vertex -18.467599613305367 13.467599613305369 -5.975451610080642
    endloop
  endfacet
  facet normal -0.5555702330196025 0.831469612302545 0
    outer loop
      vertex -18.467599613305367 13.467599613305369 5.975451610080642
      vertex -16.876651387589327 14.53063723176444 -5.975451610080642
      vertex -18.467599613305367 13.467599613305369 -5.975451610080642
    endloop
  endfacet
  facet normal -0.19509032201612816 0.9807852804032304 0
    outer loop
      vertex -15 14.903926402016152 -5.975451610080642
      vertex -16.876651387589327 14.53063723176444 -5.975451610080642
      vertex -15 14.903926402016152 5.975451610080642
    endloop
  endfacet
  facet normal 0 0 -1
    outer loop
      vertex -15.901199777508685 10.373289170251713 -9.903926402016152
      vertex 15.373289170251713 -10.901199777508685 -9.903926402016152
      vertex -15.975451610080642 10 -9.903926402016152
    endloop
  endfacet
  facet normal 0 0 -1
    outer loop
      vertex -15.689748448207357 10.689748448207357 -9.903926402016152
      vertex 15.373289170251713 -10.901199777508685 -9.903926402016152
      vertex -15.901199777508685 10.373289170251713 -9.903926402016152
    endloop
  endfacet
  facet normal 0 0 -1
    outer loop
      vertex -15.373289170251713 10.901199777508685 -9.903926402016152
      vertex 15.373289170251713 -10.901199777508685 -9.903926402016152
      vertex -15.689748448207357 10.689748448207357 -9.903926402016152
    endloop
  endfacet
  facet normal 0 0 -1
    outer loop
      vertex -15 10.975451610080642 -9.903926402016152
      vertex 15.373289170251713 -10.901199777508685 -9.903926402016152
      vertex -15.373289170251713 10.901199777508685 -9.903926402016152
    endloop
  endfacet
  facet normal 0 0.38268343236508995 -0.9238795325112867
    outer loop
      vertex -15 12.77785116509801 -9.157348061512726
      vertex 15 10.975451610080642 -9.903926402016152
      vertex -15 10.975451610080642 -9.903926402016152
    endloop
  endfacet
  facet normal 0 0.7071067811865472 -0.7071067811865478
    outer loop
      vertex -15 12.77785116509801 -9.157348061512726
      vertex -15 14.157348061512726 -7.777851165098011
      vertex 15 12.77785116509801 -9.157348061512726
    endloop
  endfacet
  facet normal 0 0.9238795325112867 -0.3826834323650898
    outer loop
      vertex 15 14.903926402016152 -5.975451610080642
      vertex -15 14.157348061512726 -7.777851165098011
      vertex -15 14.903926402016152 -5.975451610080642
    endloop
  endfacet
  facet normal 0 1 0
    outer loop
      vertex -15 14.903926402016152 5.975451610080642
      vertex 15 14.903926402016152 -5.975451610080642
      vertex -15 14.903926402016152 -5.975451610080642
    endloop
  endfacet
  facet normal -0.9238795325112868 0 0.3826834323650898
    outer loop
      vertex -19.903926402016154 10 5.975451610080642
      vertex -19.903926402016154 -10 5.975451610080642
      vertex -19.157348061512728 10 7.777851165098011
    endloop
  endfacet
  facet normal -0.7071067811865468 0 0.7071067811865482
    outer loop
      vertex -19.157348061512728 10 7.777851165098011
      vertex -17.77785116509801 -10 9.157348061512726
      vertex -17.77785116509801 10 9.157348061512726
    endloop
  endfacet
  facet normal -0.3826834323650899 0 0.9238795325112866
    outer loop
      vertex -17.77785116509801 10 9.157348061512726
      vertex -15.975451610080642 -10 9.903926402016152
      vertex -15.975451610080642 10 9.903926402016152
    endloop
  endfacet
  facet normal -0.9807852804032301 0.19509032201612997 0
    outer loop
      vertex -19.530637231764437 11.876651387589327 5.975451610080642
      vertex -19.530637231764437 11.876651387589327 -5.975451610080642
      vertex -19.903926402016154 10 5.975451610080642
    endloop
  endfacet
  facet normal -0.8314696123025452 0.5555702330196022 0
    outer loop
      vertex -19.530637231764437 11.876651387589327 5.975451610080642
      vertex -18.467599613305367 13.467599613305369 5.975451610080642
      vertex -19.530637231764437 11.876651387589327 -5.975451610080642
    endloop
  endfacet
  facet normal -0.5555702330196025 0.831469612302545 0
    outer loop
      vertex -16.876651387589327 14.53063723176444 5.975451610080642
      vertex -16.876651387589327 14.53063723176444 -5.975451610080642
      vertex -18.467599613305367 13.467599613305369 5.975451610080642
    endloop
  endfacet
  facet normal -0.19509032201612816 0.9807852804032304 0
    outer loop
      vertex -15 14.903926402016152 5.975451610080642
      vertex -16.876651387589327 14.53063723176444 -5.975451610080642
      vertex -16.876651387589327 14.53063723176444 5.975451610080642
    endloop
  endfacet
  facet normal -0.9086633352183303 0.18074437515937544 0.37638067707860245
    outer loop
      vertex -19.157348061512728 10 7.777851165098011
      vertex -19.530637231764437 11.876651387589327 5.975451610080642
      vertex -19.903926402016154 10 5.975451610080642
    endloop
  endfacet
  facet normal -0.9086633352183301 0.18074437515937578 0.37638067707860273
    outer loop
      vertex -18.84088878355708 11.590948225716042 7.777851165098011
      vertex -19.530637231764437 11.876651387589327 5.975451610080642
      vertex -19.157348061512728 10 7.777851165098011
    endloop
  endfacet
  facet normal -0.7002145072825531 0.13928132531715492 0.7002145072825526
    outer loop
      vertex -19.157348061512728 10 7.777851165098011
      vertex -17.566399835796684 11.06303761845907 9.157348061512726
      vertex -18.84088878355708 11.590948225716042 7.777851165098011
    endloop
  endfacet
  facet normal -0.7002145072825526 0.1392813253171525 0.7002145072825539
    outer loop
      vertex -17.77785116509801 10 9.157348061512726
      vertex -17.566399835796684 11.06303761845907 9.157348061512726
      vertex -19.157348061512728 10 7.777851165098011
    endloop
  endfacet
  facet normal -0.38157953112891557 0.075900887880472 0.9212144791753942
    outer loop
      vertex -15.975451610080642 10 9.903926402016152
      vertex -17.566399835796684 11.06303761845907 9.157348061512726
      vertex -17.77785116509801 10 9.157348061512726
    endloop
  endfacet
  facet normal -0.3234875065416015 0.21614744150487705 0.9212144791753945
    outer loop
      vertex -17.566399835796684 11.06303761845907 9.157348061512726
      vertex -15.901199777508685 10.373289170251713 9.903926402016152
      vertex -16.964237395967757 11.964237395967755 9.157348061512726
    endloop
  endfacet
  facet normal -0.38157953112891535 0.07590088788047258 0.9212144791753943
    outer loop
      vertex -15.975451610080642 10 9.903926402016152
      vertex -15.901199777508685 10.373289170251713 9.903926402016152
      vertex -17.566399835796684 11.06303761845907 9.157348061512726
    endloop
  endfacet
  facet normal -0.3234875065416007 0.21614744150487755 0.9212144791753945
    outer loop
      vertex -16.964237395967757 11.964237395967755 9.157348061512726
      vertex -15.901199777508685 10.373289170251713 9.903926402016152
      vertex -15.689748448207357 10.689748448207357 9.903926402016152
    endloop
  endfacet
  facet normal -0.7703275794849856 0.5147164328119471 0.37638067707860273
    outer loop
      vertex -18.84088878355708 11.590948225716042 7.777851165098011
      vertex -17.939689006048397 12.939689006048397 7.777851165098011
      vertex -19.530637231764437 11.876651387589327 5.975451610080642
    endloop
  endfacet
  facet normal -0.7703275794849854 0.5147164328119479 0.3763806770786021
    outer loop
      vertex -19.530637231764437 11.876651387589327 5.975451610080642
      vertex -17.939689006048397 12.939689006048397 7.777851165098011
      vertex -18.467599613305367 13.467599613305369 5.975451610080642
    endloop
  endfacet
  facet normal -0.5147164328119485 0.770327579484985 0.3763806770786024
    outer loop
      vertex -18.467599613305367 13.467599613305369 5.975451610080642
      vertex -17.939689006048397 12.939689006048397 7.777851165098011
      vertex -16.590948225716044 13.840888783557082 7.777851165098011
    endloop
  endfacet
  facet normal -0.5147164328119482 0.7703275794849851 0.37638067707860223
    outer loop
      vertex -18.467599613305367 13.467599613305369 5.975451610080642
      vertex -16.590948225716044 13.840888783557082 7.777851165098011
      vertex -16.876651387589327 14.53063723176444 5.975451610080642
    endloop
  endfacet
  facet normal -0.1807443751593738 0.9086633352183306 0.3763806770786024
    outer loop
      vertex -16.876651387589327 14.53063723176444 5.975451610080642
      vertex -16.590948225716044 13.840888783557082 7.777851165098011
      vertex -15 14.903926402016152 5.975451610080642
    endloop
  endfacet
  facet normal -0.18074437515937364 0.9086633352183306 0.37638067707860257
    outer loop
      vertex -15 14.903926402016152 5.975451610080642
      vertex -16.590948225716044 13.840888783557082 7.777851165098011
      vertex -15 14.157348061512726 7.777851165098011
    endloop
  endfacet
  facet normal -0.5936131960090999 0.3966396567602814 0.7002145072825526
    outer loop
      vertex -16.964237395967757 11.964237395967755 9.157348061512726
      vertex -17.939689006048397 12.939689006048397 7.777851165098011
      vertex -18.84088878355708 11.590948225716042 7.777851165098011
    endloop
  endfacet
  facet normal -0.5936131960090999 0.3966396567602812 0.7002145072825529
    outer loop
      vertex -18.84088878355708 11.590948225716042 7.777851165098011
      vertex -17.566399835796684 11.06303761845907 9.157348061512726
      vertex -16.964237395967757 11.964237395967755 9.157348061512726
    endloop
  endfacet
  facet normal -0.3966396567602822 0.5936131960090991 0.700214507282553
    outer loop
      vertex -16.590948225716044 13.840888783557082 7.777851165098011
      vertex -17.939689006048397 12.939689006048397 7.777851165098011
      vertex -16.964237395967757 11.964237395967755 9.157348061512726
    endloop
  endfacet
  facet normal -0.39663965676028123 0.5936131960090993 0.7002145072825535
    outer loop
      vertex -16.06303761845907 12.566399835796684 9.157348061512726
      vertex -16.590948225716044 13.840888783557082 7.777851165098011
      vertex -16.964237395967757 11.964237395967755 9.157348061512726
    endloop
  endfacet
  facet normal -0.2161474415048777 0.3234875065416008 0.9212144791753945
    outer loop
      vertex -15.689748448207357 10.689748448207357 9.903926402016152
      vertex -15.373289170251713 10.901199777508685 9.903926402016152
      vertex -16.964237395967757 11.964237395967755 9.157348061512726
    endloop
  endfacet
  facet normal -0.21614744150487725 0.32348750654160147 0.9212144791753943
    outer loop
      vertex -16.964237395967757 11.964237395967755 9.157348061512726
      vertex -15.373289170251713 10.901199777508685 9.903926402016152
      vertex -16.06303761845907 12.566399835796684 9.157348061512726
    endloop
  endfacet
  facet normal -0.07590088788047245 0.3815795311289154 0.9212144791753943
    outer loop
      vertex -16.06303761845907 12.566399835796684 9.157348061512726
      vertex -15.373289170251713 10.901199777508685 9.903926402016152
      vertex -15 10.975451610080642 9.903926402016152
    endloop
  endfacet
  facet normal -0.07590088788047207 0.38157953112891557 0.9212144791753942
    outer loop
      vertex -15 12.77785116509801 9.157348061512726
      vertex -16.06303761845907 12.566399835796684 9.157348061512726
      vertex -15 10.975451610080642 9.903926402016152
    endloop
  endfacet
  facet normal -0.1392813253171532 0.7002145072825532 0.7002145072825532
    outer loop
      vertex -15 14.157348061512726 7.777851165098011
      vertex -16.590948225716044 13.840888783557082 7.777851165098011
      vertex -16.06303761845907 12.566399835796684 9.157348061512726
    endloop
  endfacet
  facet normal -0.13928132531715254 0.7002145072825531 0.7002145072825535
    outer loop
      vertex -15 14.157348061512726 7.777851165098011
      vertex -16.06303761845907 12.566399835796684 9.157348061512726
      vertex -15 12.77785116509801 9.157348061512726
    endloop
  endfacet
  facet normal 0 0 1
    outer loop
      vertex -15.975451610080642 -10 9.903926402016152
      vertex 15.689748448207357 10.689748448207357 9.903926402016152
      vertex -15.975451610080642 10 9.903926402016152
    endloop
  endfacet
  facet normal 0 0 1
    outer loop
      vertex -15.975451610080642 10 9.903926402016152
      vertex 15.689748448207357 10.689748448207357 9.903926402016152
      vertex -15.901199777508685 10.373289170251713 9.903926402016152
    endloop
  endfacet
  facet normal 0 0 1
    outer loop
      vertex -15.901199777508685 10.373289170251713 9.903926402016152
      vertex 15.689748448207357 10.689748448207357 9.903926402016152
      vertex -15.689748448207357 10.689748448207357 9.903926402016152
    endloop
  endfacet
  facet normal 0 0 1
    outer loop
      vertex -15.689748448207357 10.689748448207357 9.903926402016152
      vertex 15.689748448207357 10.689748448207357 9.903926402016152
      vertex -15.373289170251713 10.901199777508685 9.903926402016152
    endloop
  endfacet
  facet normal 0 0.9238795325112867 0.3826834323650898
    outer loop
      vertex -15 14.157348061512726 7.777851165098011
      vertex 15 14.157348061512726 7.777851165098011
      vertex -15 14.903926402016152 5.975451610080642
    endloop
  endfacet
  facet normal 0 0.38268343236508995 0.9238795325112867
    outer loop
      vertex -15 10.975451610080642 9.903926402016152
      vertex 15 10.975451610080642 9.903926402016152
      vertex -15 12.77785116509801 9.157348061512726
    endloop
  endfacet
  facet normal 0 0.7071067811865472 0.7071067811865478
    outer loop
      vertex -15 12.77785116509801 9.157348061512726
      vertex 15 14.157348061512726 7.777851165098011
      vertex -15 14.157348061512726 7.777851165098011
    endloop
  endfacet
  facet normal 0 0 1
    outer loop
      vertex -15.373289170251713 10.901199777508685 9.903926402016152
      vertex 15.689748448207357 10.689748448207357 9.903926402016152
      vertex -15 10.975451610080642 9.903926402016152
    endloop
  endfacet
  facet normal 0 -0.7071067811865472 -0.7071067811865478
    outer loop
      vertex 15 -14.157348061512726 -7.777851165098011
      vertex -15 -12.77785116509801 -9.157348061512726
      vertex 15 -12.77785116509801 -9.157348061512726
    endloop
  endfacet
  facet normal 0 -0.38268343236508995 -0.9238795325112867
    outer loop
      vertex 15 -12.77785116509801 -9.157348061512726
      vertex -15 -12.77785116509801 -9.157348061512726
      vertex 15 -10.975451610080642 -9.903926402016152
    endloop
  endfacet
  facet normal 0 -0.9238795325112867 -0.3826834323650898
    outer loop
      vertex 15 -14.903926402016152 -5.975451610080642
      vertex -15 -14.157348061512726 -7.777851165098011
      vertex 15 -14.157348061512726 -7.777851165098011
    endloop
  endfacet
  facet normal 0 0 -1
    outer loop
      vertex -15 -10.975451610080642 -9.903926402016152
      vertex 15.373289170251713 -10.901199777508685 -9.903926402016152
      vertex 15 -10.975451610080642 -9.903926402016152
    endloop
  endfacet
  facet normal 0 -1 0
    outer loop
      vertex 15 -14.903926402016152 -5.975451610080642
      vertex 15 -14.903926402016152 5.975451610080642
      vertex -15 -14.903926402016152 -5.975451610080642
    endloop
  endfacet
  facet normal 0.1392813253171526 -0.7002145072825531 -0.7002145072825535
    outer loop
      vertex 15 -12.77785116509801 -9.157348061512726
      vertex 16.06303761845907 -12.566399835796684 -9.157348061512726
      vertex 15 -14.157348061512726 -7.777851165098011
    endloop
  endfacet
  facet normal 0.1392813253171532 -0.7002145072825532 -0.7002145072825532
    outer loop
      vertex 15 -14.157348061512726 -7.777851165098011
      vertex 16.06303761845907 -12.566399835796684 -9.157348061512726
      vertex 16.590948225716044 -13.840888783557082 -7.777851165098011
    endloop
  endfacet
  facet normal 0.075900887880472 -0.38157953112891557 -0.9212144791753942
    outer loop
      vertex 15 -10.975451610080642 -9.903926402016152
      vertex 16.06303761845907 -12.566399835796684 -9.157348061512726
      vertex 15 -12.77785116509801 -9.157348061512726
    endloop
  endfacet
  facet normal 0.0759008878804726 -0.3815795311289154 -0.9212144791753943
    outer loop
      vertex 15.373289170251713 -10.901199777508685 -9.903926402016152
      vertex 16.06303761845907 -12.566399835796684 -9.157348061512726
      vertex 15 -10.975451610080642 -9.903926402016152
    endloop
  endfacet
  facet normal 0.21614744150487725 -0.32348750654160147 -0.9212144791753943
    outer loop
      vertex 16.964237395967757 -11.964237395967755 -9.157348061512726
      vertex 16.06303761845907 -12.566399835796684 -9.157348061512726
      vertex 15.373289170251713 -10.901199777508685 -9.903926402016152
    endloop
  endfacet
  facet normal 0.21614744150487764 -0.3234875065416008 -0.9212144791753945
    outer loop
      vertex 16.964237395967757 -11.964237395967755 -9.157348061512726
      vertex 15.373289170251713 -10.901199777508685 -9.903926402016152
      vertex 15.689748448207357 -10.689748448207357 -9.903926402016152
    endloop
  endfacet
  facet normal 0.3966396567602812 -0.5936131960090993 -0.7002145072825535
    outer loop
      vertex 16.590948225716044 -13.840888783557082 -7.777851165098011
      vertex 16.06303761845907 -12.566399835796684 -9.157348061512726
      vertex 16.964237395967757 -11.964237395967755 -9.157348061512726
    endloop
  endfacet
  facet normal 0.3966396567602822 -0.5936131960090991 -0.700214507282553
    outer loop
      vertex 17.939689006048397 -12.939689006048397 -7.777851165098011
      vertex 16.590948225716044 -13.840888783557082 -7.777851165098011
      vertex 16.964237395967757 -11.964237395967755 -9.157348061512726
    endloop
  endfacet
  facet normal 0.5936131960090999 -0.3966396567602812 -0.7002145072825529
    outer loop
      vertex 18.84088878355708 -11.590948225716042 -7.777851165098011
      vertex 16.964237395967757 -11.964237395967755 -9.157348061512726
      vertex 17.566399835796684 -11.06303761845907 -9.157348061512726
    endloop
  endfacet
  facet normal 0.5936131960090999 -0.3966396567602814 -0.7002145072825526
    outer loop
      vertex 17.939689006048397 -12.939689006048397 -7.777851165098011
      vertex 16.964237395967757 -11.964237395967755 -9.157348061512726
      vertex 18.84088878355708 -11.590948225716042 -7.777851165098011
    endloop
  endfacet
  facet normal 0.18074437515937358 -0.9086633352183306 -0.37638067707860257
    outer loop
      vertex 15 -14.157348061512726 -7.777851165098011
      vertex 16.590948225716044 -13.840888783557082 -7.777851165098011
      vertex 15 -14.903926402016152 -5.975451610080642
    endloop
  endfacet
  facet normal 0.1807443751593738 -0.9086633352183306 -0.37638067707860234
    outer loop
      vertex 15 -14.903926402016152 -5.975451610080642
      vertex 16.590948225716044 -13.840888783557082 -7.777851165098011
      vertex 16.876651387589327 -14.53063723176444 -5.975451610080642
    endloop
  endfacet
  facet normal 0.5147164328119482 -0.7703275794849851 -0.37638067707860223
    outer loop
      vertex 16.876651387589327 -14.53063723176444 -5.975451610080642
      vertex 16.590948225716044 -13.840888783557082 -7.777851165098011
      vertex 18.467599613305367 -13.467599613305369 -5.975451610080642
    endloop
  endfacet
  facet normal 0.5147164328119485 -0.770327579484985 -0.3763806770786024
    outer loop
      vertex 18.467599613305367 -13.467599613305369 -5.975451610080642
      vertex 16.590948225716044 -13.840888783557082 -7.777851165098011
      vertex 17.939689006048397 -12.939689006048397 -7.777851165098011
    endloop
  endfacet
  facet normal 0.7703275794849854 -0.5147164328119479 -0.3763806770786021
    outer loop
      vertex 19.530637231764437 -11.876651387589327 -5.975451610080642
      vertex 18.467599613305367 -13.467599613305369 -5.975451610080642
      vertex 17.939689006048397 -12.939689006048397 -7.777851165098011
    endloop
  endfacet
  facet normal 0.7703275794849856 -0.5147164328119471 -0.37638067707860273
    outer loop
      vertex 17.939689006048397 -12.939689006048397 -7.777851165098011
      vertex 18.84088878355708 -11.590948225716042 -7.777851165098011
      vertex 19.530637231764437 -11.876651387589327 -5.975451610080642
    endloop
  endfacet
  facet normal 0 0 -1
    outer loop
      vertex 15.689748448207357 -10.689748448207357 -9.903926402016152
      vertex 15.373289170251713 -10.901199777508685 -9.903926402016152
      vertex 15.901199777508685 -10.373289170251713 -9.903926402016152
    endloop
  endfacet
  facet normal 0 0 -1
    outer loop
      vertex 15.901199777508685 -10.373289170251713 -9.903926402016152
      vertex 15.373289170251713 -10.901199777508685 -9.903926402016152
      vertex 15.975451610080642 -10 -9.903926402016152
    endloop
  endfacet
  facet normal 0.3234875065416007 -0.21614744150487764 -0.9212144791753945
    outer loop
      vertex 15.901199777508685 -10.373289170251713 -9.903926402016152
      vertex 16.964237395967757 -11.964237395967755 -9.157348061512726
      vertex 15.689748448207357 -10.689748448207357 -9.903926402016152
    endloop
  endfacet
  facet normal 0.3815795311289154 -0.07590088788047245 -0.9212144791753943
    outer loop
      vertex 17.566399835796684 -11.06303761845907 -9.157348061512726
      vertex 15.901199777508685 -10.373289170251713 -9.903926402016152
      vertex 15.975451610080642 -10 -9.903926402016152
    endloop
  endfacet
  facet normal 0.3234875065416015 -0.21614744150487705 -0.9212144791753945
    outer loop
      vertex 17.566399835796684 -11.06303761845907 -9.157348061512726
      vertex 16.964237395967757 -11.964237395967755 -9.157348061512726
      vertex 15.901199777508685 -10.373289170251713 -9.903926402016152
    endloop
  endfacet
  facet normal 0.38157953112891557 -0.075900887880472 -0.9212144791753942
    outer loop
      vertex 15.975451610080642 -10 -9.903926402016152
      vertex 17.77785116509801 -10 -9.157348061512726
      vertex 17.566399835796684 -11.06303761845907 -9.157348061512726
    endloop
  endfacet
  facet normal 0.7002145072825526 -0.1392813253171525 -0.7002145072825539
    outer loop
      vertex 17.77785116509801 -10 -9.157348061512726
      vertex 19.157348061512728 -10 -7.777851165098011
      vertex 17.566399835796684 -11.06303761845907 -9.157348061512726
    endloop
  endfacet
  facet normal 0.7002145072825531 -0.13928132531715492 -0.7002145072825526
    outer loop
      vertex 19.157348061512728 -10 -7.777851165098011
      vertex 18.84088878355708 -11.590948225716042 -7.777851165098011
      vertex 17.566399835796684 -11.06303761845907 -9.157348061512726
    endloop
  endfacet
  facet normal 0.9086633352183301 -0.18074437515937578 -0.3763806770786027
    outer loop
      vertex 19.530637231764437 -11.876651387589327 -5.975451610080642
      vertex 18.84088878355708 -11.590948225716042 -7.777851165098011
      vertex 19.157348061512728 -10 -7.777851165098011
    endloop
  endfacet
  facet normal 0.9086633352183303 -0.18074437515937547 -0.37638067707860245
    outer loop
      vertex 19.530637231764437 -11.876651387589327 -5.975451610080642
      vertex 19.157348061512728 -10 -7.777851165098011
      vertex 19.903926402016154 -10 -5.975451610080642
    endloop
  endfacet
  facet normal 0.19509032201612816 -0.9807852804032304 0
    outer loop
      vertex 15 -14.903926402016152 -5.975451610080642
      vertex 16.876651387589327 -14.53063723176444 -5.975451610080642
      vertex 15 -14.903926402016152 5.975451610080642
    endloop
  endfacet
  facet normal 0.5555702330196025 -0.831469612302545 0
    outer loop
      vertex 18.467599613305367 -13.467599613305369 5.975451610080642
      vertex 16.876651387589327 -14.53063723176444 -5.975451610080642
      vertex 18.467599613305367 -13.467599613305369 -5.975451610080642
    endloop
  endfacet
  facet normal 0.8314696123025452 -0.5555702330196022 0
    outer loop
      vertex 19.530637231764437 -11.876651387589327 5.975451610080642
      vertex 18.467599613305367 -13.467599613305369 -5.975451610080642
      vertex 19.530637231764437 -11.876651387589327 -5.975451610080642
    endloop
  endfacet
  facet normal 0.9807852804032301 -0.19509032201612997 0
    outer loop
      vertex 19.903926402016154 -10 -5.975451610080642
      vertex 19.530637231764437 -11.876651387589327 5.975451610080642
      vertex 19.530637231764437 -11.876651387589327 -5.975451610080642
    endloop
  endfacet
  facet normal 0 0 -1
    outer loop
      vertex 15.975451610080642 -10 -9.903926402016152
      vertex 15.373289170251713 -10.901199777508685 -9.903926402016152
      vertex 15.975451610080642 10 -9.903926402016152
    endloop
  endfacet
  facet normal 0.3826834323650899 0 -0.9238795325112866
    outer loop
      vertex 15.975451610080642 10 -9.903926402016152
      vertex 17.77785116509801 -10 -9.157348061512726
      vertex 15.975451610080642 -10 -9.903926402016152
    endloop
  endfacet
  facet normal 0.7071067811865468 0 -0.7071067811865482
    outer loop
      vertex 17.77785116509801 10 -9.157348061512726
      vertex 19.157348061512728 -10 -7.777851165098011
      vertex 17.77785116509801 -10 -9.157348061512726
    endloop
  endfacet
  facet normal 0.9238795325112868 0 -0.3826834323650898
    outer loop
      vertex 19.903926402016154 -10 -5.975451610080642
      vertex 19.157348061512728 -10 -7.777851165098011
      vertex 19.903926402016154 10 -5.975451610080642
    endloop
  endfacet
  facet normal 0 -0.9238795325112867 0.3826834323650898
    outer loop
      vertex -15 -14.157348061512726 7.777851165098011
      vertex 15 -14.903926402016152 5.975451610080642
      vertex 15 -14.157348061512726 7.777851165098011
    endloop
  endfacet
  facet normal 0 -0.7071067811865472 0.7071067811865478
    outer loop
      vertex 15 -14.157348061512726 7.777851165098011
      vertex 15 -12.77785116509801 9.157348061512726
      vertex -15 -14.157348061512726 7.777851165098011
    endloop
  endfacet
  facet normal 0 -0.38268343236508995 0.9238795325112867
    outer loop
      vertex -15 -10.975451610080642 9.903926402016152
      vertex 15 -12.77785116509801 9.157348061512726
      vertex 15 -10.975451610080642 9.903926402016152
    endloop
  endfacet
  facet normal 0 0 1
    outer loop
      vertex 15 -10.975451610080642 9.903926402016152
      vertex 15.689748448207357 10.689748448207357 9.903926402016152
      vertex -15 -10.975451610080642 9.903926402016152
    endloop
  endfacet
  facet normal 0.19509032201612816 -0.9807852804032304 0
    outer loop
      vertex 15 -14.903926402016152 5.975451610080642
      vertex 16.876651387589327 -14.53063723176444 -5.975451610080642
      vertex 16.876651387589327 -14.53063723176444 5.975451610080642
    endloop
  endfacet
  facet normal 0.5555702330196025 -0.831469612302545 0
    outer loop
      vertex 16.876651387589327 -14.53063723176444 5.975451610080642
      vertex 16.876651387589327 -14.53063723176444 -5.975451610080642
      vertex 18.467599613305367 -13.467599613305369 5.975451610080642
    endloop
  endfacet
  facet normal 0.8314696123025452 -0.5555702330196022 0
    outer loop
      vertex 18.467599613305367 -13.467599613305369 5.975451610080642
      vertex 18.467599613305367 -13.467599613305369 -5.975451610080642
      vertex 19.530637231764437 -11.876651387589327 5.975451610080642
    endloop
  endfacet
  facet normal 0.9807852804032301 -0.19509032201612997 0
    outer loop
      vertex 19.903926402016154 -10 5.975451610080642
      vertex 19.530637231764437 -11.876651387589327 5.975451610080642
      vertex 19.903926402016154 -10 -5.975451610080642
    endloop
  endfacet
  facet normal 0.1807443751593738 -0.9086633352183306 0.37638067707860234
    outer loop
      vertex 15 -14.903926402016152 5.975451610080642
      vertex 16.876651387589327 -14.53063723176444 5.975451610080642
      vertex 16.590948225716044 -13.840888783557082 7.777851165098011
    endloop
  endfacet
  facet normal 0.18074437515937358 -0.9086633352183306 0.37638067707860257
    outer loop
      vertex 15 -14.157348061512726 7.777851165098011
      vertex 15 -14.903926402016152 5.975451610080642
      vertex 16.590948225716044 -13.840888783557082 7.777851165098011
    endloop
  endfacet
  facet normal 0.5147164328119482 -0.7703275794849851 0.37638067707860223
    outer loop
      vertex 16.590948225716044 -13.840888783557082 7.777851165098011
      vertex 16.876651387589327 -14.53063723176444 5.975451610080642
      vertex 18.467599613305367 -13.467599613305369 5.975451610080642
    endloop
  endfacet
  facet normal 0.5147164328119485 -0.770327579484985 0.3763806770786024
    outer loop
      vertex 18.467599613305367 -13.467599613305369 5.975451610080642
      vertex 17.939689006048397 -12.939689006048397 7.777851165098011
      vertex 16.590948225716044 -13.840888783557082 7.777851165098011
    endloop
  endfacet
  facet normal 0.7703275794849854 -0.5147164328119479 0.3763806770786022
    outer loop
      vertex 18.467599613305367 -13.467599613305369 5.975451610080642
      vertex 19.530637231764437 -11.876651387589327 5.975451610080642
      vertex 17.939689006048397 -12.939689006048397 7.777851165098011
    endloop
  endfacet
  facet normal 0.7703275794849856 -0.5147164328119471 0.37638067707860273
    outer loop
      vertex 17.939689006048397 -12.939689006048397 7.777851165098011
      vertex 19.530637231764437 -11.876651387589327 5.975451610080642
      vertex 18.84088878355708 -11.590948225716042 7.777851165098011
    endloop
  endfacet
  facet normal 0.1392813253171532 -0.7002145072825532 0.7002145072825532
    outer loop
      vertex 15 -14.157348061512726 7.777851165098011
      vertex 16.590948225716044 -13.840888783557082 7.777851165098011
      vertex 16.06303761845907 -12.566399835796684 9.157348061512726
    endloop
  endfacet
  facet normal 0.1392813253171526 -0.7002145072825531 0.7002145072825534
    outer loop
      vertex 16.06303761845907 -12.566399835796684 9.157348061512726
      vertex 15 -12.77785116509801 9.157348061512726
      vertex 15 -14.157348061512726 7.777851165098011
    endloop
  endfacet
  facet normal 0.3966396567602822 -0.5936131960090991 0.700214507282553
    outer loop
      vertex 16.590948225716044 -13.840888783557082 7.777851165098011
      vertex 17.939689006048397 -12.939689006048397 7.777851165098011
      vertex 16.964237395967757 -11.964237395967755 9.157348061512726
    endloop
  endfacet
  facet normal 0.075900887880472 -0.38157953112891557 0.9212144791753942
    outer loop
      vertex 15 -10.975451610080642 9.903926402016152
      vertex 15 -12.77785116509801 9.157348061512726
      vertex 16.06303761845907 -12.566399835796684 9.157348061512726
    endloop
  endfacet
  facet normal 0.07590088788047245 -0.3815795311289154 0.9212144791753943
    outer loop
      vertex 16.06303761845907 -12.566399835796684 9.157348061512726
      vertex 15.373289170251713 -10.901199777508685 9.903926402016152
      vertex 15 -10.975451610080642 9.903926402016152
    endloop
  endfacet
  facet normal 0.21614744150487725 -0.32348750654160147 0.9212144791753943
    outer loop
      vertex 16.06303761845907 -12.566399835796684 9.157348061512726
      vertex 16.964237395967757 -11.964237395967755 9.157348061512726
      vertex 15.373289170251713 -10.901199777508685 9.903926402016152
    endloop
  endfacet
  facet normal 0.2161474415048777 -0.3234875065416008 0.9212144791753945
    outer loop
      vertex 15.373289170251713 -10.901199777508685 9.903926402016152
      vertex 16.964237395967757 -11.964237395967755 9.157348061512726
      vertex 15.689748448207357 -10.689748448207357 9.903926402016152
    endloop
  endfacet
  facet normal 0.39663965676028123 -0.5936131960090993 0.7002145072825535
    outer loop
      vertex 16.06303761845907 -12.566399835796684 9.157348061512726
      vertex 16.590948225716044 -13.840888783557082 7.777851165098011
      vertex 16.964237395967757 -11.964237395967755 9.157348061512726
    endloop
  endfacet
  facet normal 0.5936131960090999 -0.3966396567602814 0.7002145072825526
    outer loop
      vertex 16.964237395967757 -11.964237395967755 9.157348061512726
      vertex 17.939689006048397 -12.939689006048397 7.777851165098011
      vertex 18.84088878355708 -11.590948225716042 7.777851165098011
    endloop
  endfacet
  facet normal 0.5936131960090999 -0.3966396567602812 0.7002145072825529
    outer loop
      vertex 18.84088878355708 -11.590948225716042 7.777851165098011
      vertex 17.566399835796684 -11.06303761845907 9.157348061512726
      vertex 16.964237395967757 -11.964237395967755 9.157348061512726
    endloop
  endfacet
  facet normal 0.9086633352183303 -0.18074437515937547 0.37638067707860245
    outer loop
      vertex 19.903926402016154 -10 5.975451610080642
      vertex 19.157348061512728 -10 7.777851165098011
      vertex 19.530637231764437 -11.876651387589327 5.975451610080642
    endloop
  endfacet
  facet normal 0.9086633352183301 -0.18074437515937578 0.3763806770786027
    outer loop
      vertex 19.530637231764437 -11.876651387589327 5.975451610080642
      vertex 19.157348061512728 -10 7.777851165098011
      vertex 18.84088878355708 -11.590948225716042 7.777851165098011
    endloop
  endfacet
  facet normal 0.3234875065416007 -0.21614744150487755 0.9212144791753945
    outer loop
      vertex 16.964237395967757 -11.964237395967755 9.157348061512726
      vertex 15.901199777508685 -10.373289170251713 9.903926402016152
      vertex 15.689748448207357 -10.689748448207357 9.903926402016152
    endloop
  endfacet
  facet normal 0.3815795311289154 -0.0759008878804726 0.9212144791753943
    outer loop
      vertex 15.901199777508685 -10.373289170251713 9.903926402016152
      vertex 17.566399835796684 -11.06303761845907 9.157348061512726
      vertex 15.975451610080642 -10 9.903926402016152
    endloop
  endfacet
  facet normal 0.3234875065416015 -0.21614744150487705 0.9212144791753945
    outer loop
      vertex 16.964237395967757 -11.964237395967755 9.157348061512726
      vertex 17.566399835796684 -11.06303761845907 9.157348061512726
      vertex 15.901199777508685 -10.373289170251713 9.903926402016152
    endloop
  endfacet
  facet normal 0.38157953112891557 -0.075900887880472 0.9212144791753942
    outer loop
      vertex 15.975451610080642 -10 9.903926402016152
      vertex 17.566399835796684 -11.06303761845907 9.157348061512726
      vertex 17.77785116509801 -10 9.157348061512726
    endloop
  endfacet
  facet normal 0.7002145072825531 -0.13928132531715492 0.7002145072825526
    outer loop
      vertex 18.84088878355708 -11.590948225716042 7.777851165098011
      vertex 19.157348061512728 -10 7.777851165098011
      vertex 17.566399835796684 -11.06303761845907 9.157348061512726
    endloop
  endfacet
  facet normal 0.7002145072825525 -0.13928132531715248 0.7002145072825539
    outer loop
      vertex 17.566399835796684 -11.06303761845907 9.157348061512726
      vertex 19.157348061512728 -10 7.777851165098011
      vertex 17.77785116509801 -10 9.157348061512726
    endloop
  endfacet
  facet normal 1 0 0
    outer loop
      vertex 19.903926402016154 -10 5.975451610080642
      vertex 19.903926402016154 -10 -5.975451610080642
      vertex 19.903926402016154 10 5.975451610080642
    endloop
  endfacet
  facet normal 0 0 1
    outer loop
      vertex 15.373289170251713 -10.901199777508685 9.903926402016152
      vertex 15.689748448207357 10.689748448207357 9.903926402016152
      vertex 15 -10.975451610080642 9.903926402016152
    endloop
  endfacet
  facet normal 0.9238795325112868 0 0.3826834323650898
    outer loop
      vertex 19.903926402016154 10 5.975451610080642
      vertex 19.157348061512728 -10 7.777851165098011
      vertex 19.903926402016154 -10 5.975451610080642
    endloop
  endfacet
  facet normal 0 0 1
    outer loop
      vertex 15.689748448207357 -10.689748448207357 9.903926402016152
      vertex 15.689748448207357 10.689748448207357 9.903926402016152
      vertex 15.373289170251713 -10.901199777508685 9.903926402016152
    endloop
  endfacet
  facet normal 0 0 1
    outer loop
      vertex 15.901199777508685 -10.373289170251713 9.903926402016152
      vertex 15.689748448207357 10.689748448207357 9.903926402016152
      vertex 15.689748448207357 -10.689748448207357 9.903926402016152
    endloop
  endfacet
  facet normal 0 0 1
    outer loop
      vertex 15.975451610080642 -10 9.903926402016152
      vertex 15.689748448207357 10.689748448207357 9.903926402016152
      vertex 15.901199777508685 -10.373289170251713 9.903926402016152
    endloop
  endfacet
  facet normal 0.3826834323650899 0 0.9238795325112866
    outer loop
      vertex 17.77785116509801 -10 9.157348061512726
      vertex 17.77785116509801 10 9.157348061512726
      vertex 15.975451610080642 -10 9.903926402016152
    endloop
  endfacet
  facet normal 0.7071067811865468 0 0.7071067811865482
    outer loop
      vertex 19.157348061512728 -10 7.777851165098011
      vertex 17.77785116509801 10 9.157348061512726
      vertex 17.77785116509801 -10 9.157348061512726
    endloop
  endfacet
  facet normal 0 0 -1
    outer loop
      vertex 15 10.975451610080642 -9.903926402016152
      vertex 15.373289170251713 -10.901199777508685 -9.903926402016152
      vertex -15 10.975451610080642 -9.903926402016152
    endloop
  endfacet
  facet normal 0 0.38268343236508995 -0.9238795325112867
    outer loop
      vertex 15 12.77785116509801 -9.157348061512726
      vertex 15 10.975451610080642 -9.903926402016152
      vertex -15 12.77785116509801 -9.157348061512726
    endloop
  endfacet
  facet normal 0 0.7071067811865472 -0.7071067811865478
    outer loop
      vertex 15 12.77785116509801 -9.157348061512726
      vertex -15 14.157348061512726 -7.777851165098011
      vertex 15 14.157348061512726 -7.777851165098011
    endloop
  endfacet
  facet normal 0 0.9238795325112867 -0.3826834323650898
    outer loop
      vertex 15 14.157348061512726 -7.777851165098011
      vertex -15 14.157348061512726 -7.777851165098011
      vertex 15 14.903926402016152 -5.975451610080642
    endloop
  endfacet
  facet normal 0 0 -1
    outer loop
      vertex 15.373289170251713 10.901199777508685 -9.903926402016152
      vertex 15.373289170251713 -10.901199777508685 -9.903926402016152
      vertex 15 10.975451610080642 -9.903926402016152
    endloop
  endfacet
  facet normal 0 0 -1
    outer loop
      vertex 15.689748448207357 10.689748448207357 -9.903926402016152
      vertex 15.373289170251713 -10.901199777508685 -9.903926402016152
      vertex 15.373289170251713 10.901199777508685 -9.903926402016152
    endloop
  endfacet
  facet normal 0 0 -1
    outer loop
      vertex 15.975451610080642 10 -9.903926402016152
      vertex 15.373289170251713 -10.901199777508685 -9.903926402016152
      vertex 15.901199777508685 10.373289170251713 -9.903926402016152
    endloop
  endfacet
  facet normal 0 0 -1
    outer loop
      vertex 15.901199777508685 10.373289170251713 -9.903926402016152
      vertex 15.373289170251713 -10.901199777508685 -9.903926402016152
      vertex 15.689748448207357 10.689748448207357 -9.903926402016152
    endloop
  endfacet
  facet normal 0.3826834323650899 0 -0.9238795325112866
    outer loop
      vertex 17.77785116509801 10 -9.157348061512726
      vertex 17.77785116509801 -10 -9.157348061512726
      vertex 15.975451610080642 10 -9.903926402016152
    endloop
  endfacet
  facet normal 0.7071067811865468 0 -0.7071067811865482
    outer loop
      vertex 19.157348061512728 10 -7.777851165098011
      vertex 19.157348061512728 -10 -7.777851165098011
      vertex 17.77785116509801 10 -9.157348061512726
    endloop
  endfacet
  facet normal 0.9238795325112868 0 -0.3826834323650898
    outer loop
      vertex 19.903926402016154 10 -5.975451610080642
      vertex 19.157348061512728 -10 -7.777851165098011
      vertex 19.157348061512728 10 -7.777851165098011
    endloop
  endfacet
  facet normal 1 0 0
    outer loop
      vertex 19.903926402016154 10 5.975451610080642
      vertex 19.903926402016154 -10 -5.975451610080642
      vertex 19.903926402016154 10 -5.975451610080642
    endloop
  endfacet
  facet normal 0.38157953112891535 0.07590088788047258 -0.9212144791753943
    outer loop
      vertex 15.975451610080642 10 -9.903926402016152
      vertex 15.901199777508685 10.373289170251713 -9.903926402016152
      vertex 17.566399835796684 11.06303761845907 -9.157348061512726
    endloop
  endfacet
  facet normal 0.3234875065416007 0.21614744150487755 -0.9212144791753945
    outer loop
      vertex 16.964237395967757 11.964237395967755 -9.157348061512726
      vertex 15.901199777508685 10.373289170251713 -9.903926402016152
      vertex 15.689748448207357 10.689748448207357 -9.903926402016152
    endloop
  endfacet
  facet normal 0.38157953112891557 0.07590088788047207 -0.9212144791753942
    outer loop
      vertex 17.77785116509801 10 -9.157348061512726
      vertex 15.975451610080642 10 -9.903926402016152
      vertex 17.566399835796684 11.06303761845907 -9.157348061512726
    endloop
  endfacet
  facet normal 0.3234875065416015 0.21614744150487705 -0.9212144791753945
    outer loop
      vertex 17.566399835796684 11.06303761845907 -9.157348061512726
      vertex 15.901199777508685 10.373289170251713 -9.903926402016152
      vertex 16.964237395967757 11.964237395967755 -9.157348061512726
    endloop
  endfacet
  facet normal 0.7002145072825525 0.13928132531715248 -0.7002145072825539
    outer loop
      vertex 17.566399835796684 11.06303761845907 -9.157348061512726
      vertex 19.157348061512728 10 -7.777851165098011
      vertex 17.77785116509801 10 -9.157348061512726
    endloop
  endfacet
  facet normal 0.7002145072825531 0.13928132531715498 -0.7002145072825526
    outer loop
      vertex 17.566399835796684 11.06303761845907 -9.157348061512726
      vertex 18.84088878355708 11.590948225716042 -7.777851165098011
      vertex 19.157348061512728 10 -7.777851165098011
    endloop
  endfacet
  facet normal 0.9086633352183301 0.18074437515937578 -0.37638067707860273
    outer loop
      vertex 18.84088878355708 11.590948225716042 -7.777851165098011
      vertex 19.530637231764437 11.876651387589327 -5.975451610080642
      vertex 19.157348061512728 10 -7.777851165098011
    endloop
  endfacet
  facet normal 0.9086633352183303 0.18074437515937544 -0.37638067707860245
    outer loop
      vertex 19.157348061512728 10 -7.777851165098011
      vertex 19.530637231764437 11.876651387589327 -5.975451610080642
      vertex 19.903926402016154 10 -5.975451610080642
    endloop
  endfacet
  facet normal 0.07590088788047245 0.3815795311289154 -0.9212144791753943
    outer loop
      vertex 16.06303761845907 12.566399835796684 -9.157348061512726
      vertex 15.373289170251713 10.901199777508685 -9.903926402016152
      vertex 15 10.975451610080642 -9.903926402016152
    endloop
  endfacet
  facet normal 0.07590088788047207 0.38157953112891557 -0.9212144791753942
    outer loop
      vertex 16.06303761845907 12.566399835796684 -9.157348061512726
      vertex 15 10.975451610080642 -9.903926402016152
      vertex 15 12.77785116509801 -9.157348061512726
    endloop
  endfacet
  facet normal 0.2161474415048777 0.3234875065416008 -0.9212144791753945
    outer loop
      vertex 15.689748448207357 10.689748448207357 -9.903926402016152
      vertex 15.373289170251713 10.901199777508685 -9.903926402016152
      vertex 16.964237395967757 11.964237395967755 -9.157348061512726
    endloop
  endfacet
  facet normal 0.21614744150487725 0.32348750654160147 -0.9212144791753943
    outer loop
      vertex 16.964237395967757 11.964237395967755 -9.157348061512726
      vertex 15.373289170251713 10.901199777508685 -9.903926402016152
      vertex 16.06303761845907 12.566399835796684 -9.157348061512726
    endloop
  endfacet
  facet normal 0.39663965676028123 0.5936131960090993 -0.7002145072825535
    outer loop
      vertex 16.06303761845907 12.566399835796684 -9.157348061512726
      vertex 16.590948225716044 13.840888783557082 -7.777851165098011
      vertex 16.964237395967757 11.964237395967755 -9.157348061512726
    endloop
  endfacet
  facet normal 0.3966396567602822 0.5936131960090991 -0.700214507282553
    outer loop
      vertex 16.964237395967757 11.964237395967755 -9.157348061512726
      vertex 16.590948225716044 13.840888783557082 -7.777851165098011
      vertex 17.939689006048397 12.939689006048397 -7.777851165098011
    endloop
  endfacet
  facet normal 0.1392813253171526 0.7002145072825531 -0.7002145072825535
    outer loop
      vertex 15 12.77785116509801 -9.157348061512726
      vertex 15 14.157348061512726 -7.777851165098011
      vertex 16.06303761845907 12.566399835796684 -9.157348061512726
    endloop
  endfacet
  facet normal 0.1392813253171532 0.7002145072825532 -0.7002145072825532
    outer loop
      vertex 15 14.157348061512726 -7.777851165098011
      vertex 16.590948225716044 13.840888783557082 -7.777851165098011
      vertex 16.06303761845907 12.566399835796684 -9.157348061512726
    endloop
  endfacet
  facet normal 0.5936131960090999 0.39663965676028123 -0.7002145072825527
    outer loop
      vertex 16.964237395967757 11.964237395967755 -9.157348061512726
      vertex 18.84088878355708 11.590948225716042 -7.777851165098011
      vertex 17.566399835796684 11.06303761845907 -9.157348061512726
    endloop
  endfacet
  facet normal 0.5936131960090999 0.3966396567602814 -0.7002145072825526
    outer loop
      vertex 17.939689006048397 12.939689006048397 -7.777851165098011
      vertex 18.84088878355708 11.590948225716042 -7.777851165098011
      vertex 16.964237395967757 11.964237395967755 -9.157348061512726
    endloop
  endfacet
  facet normal 0.18074437515937364 0.9086633352183306 -0.37638067707860257
    outer loop
      vertex 15 14.903926402016152 -5.975451610080642
      vertex 16.590948225716044 13.840888783557082 -7.777851165098011
      vertex 15 14.157348061512726 -7.777851165098011
    endloop
  endfacet
  facet normal 0.1807443751593738 0.9086633352183306 -0.3763806770786024
    outer loop
      vertex 16.876651387589327 14.53063723176444 -5.975451610080642
      vertex 16.590948225716044 13.840888783557082 -7.777851165098011
      vertex 15 14.903926402016152 -5.975451610080642
    endloop
  endfacet
  facet normal 0.5147164328119482 0.7703275794849851 -0.37638067707860223
    outer loop
      vertex 18.467599613305367 13.467599613305369 -5.975451610080642
      vertex 16.590948225716044 13.840888783557082 -7.777851165098011
      vertex 16.876651387589327 14.53063723176444 -5.975451610080642
    endloop
  endfacet
  facet normal 0.7703275794849854 0.5147164328119479 -0.3763806770786022
    outer loop
      vertex 18.467599613305367 13.467599613305369 -5.975451610080642
      vertex 19.530637231764437 11.876651387589327 -5.975451610080642
      vertex 17.939689006048397 12.939689006048397 -7.777851165098011
    endloop
  endfacet
  facet normal 0.7703275794849856 0.5147164328119471 -0.37638067707860273
    outer loop
      vertex 17.939689006048397 12.939689006048397 -7.777851165098011
      vertex 19.530637231764437 11.876651387589327 -5.975451610080642
      vertex 18.84088878355708 11.590948225716042 -7.777851165098011
    endloop
  endfacet
  facet normal 0.5147164328119485 0.770327579484985 -0.37638067707860234
    outer loop
      vertex 17.939689006048397 12.939689006048397 -7.777851165098011
      vertex 16.590948225716044 13.840888783557082 -7.777851165098011
      vertex 18.467599613305367 13.467599613305369 -5.975451610080642
    endloop
  endfacet
  facet normal 0.9807852804032301 0.19509032201612997 0
    outer loop
      vertex 19.903926402016154 10 -5.975451610080642
      vertex 19.530637231764437 11.876651387589327 -5.975451610080642
      vertex 19.903926402016154 10 5.975451610080642
    endloop
  endfacet
  facet normal 0.19509032201612816 0.9807852804032304 0
    outer loop
      vertex 15 14.903926402016152 5.975451610080642
      vertex 16.876651387589327 14.53063723176444 -5.975451610080642
      vertex 15 14.903926402016152 -5.975451610080642
    endloop
  endfacet
  facet normal 0.8314696123025452 0.5555702330196022 0
    outer loop
      vertex 18.467599613305367 13.467599613305369 5.975451610080642
      vertex 19.530637231764437 11.876651387589327 -5.975451610080642
      vertex 18.467599613305367 13.467599613305369 -5.975451610080642
    endloop
  endfacet
  facet normal 0.5555702330196025 0.831469612302545 0
    outer loop
      vertex 18.467599613305367 13.467599613305369 -5.975451610080642
      vertex 16.876651387589327 14.53063723176444 -5.975451610080642
      vertex 18.467599613305367 13.467599613305369 5.975451610080642
    endloop
  endfacet
  facet normal 0 1 0
    outer loop
      vertex 15 14.903926402016152 5.975451610080642
      vertex 15 14.903926402016152 -5.975451610080642
      vertex -15 14.903926402016152 5.975451610080642
    endloop
  endfacet
  facet normal 0 0 1
    outer loop
      vertex -15 10.975451610080642 9.903926402016152
      vertex 15.689748448207357 10.689748448207357 9.903926402016152
      vertex 15 10.975451610080642 9.903926402016152
    endloop
  endfacet
  facet normal 0 0.9238795325112867 0.3826834323650898
    outer loop
      vertex -15 14.903926402016152 5.975451610080642
      vertex 15 14.157348061512726 7.777851165098011
      vertex 15 14.903926402016152 5.975451610080642
    endloop
  endfacet
  facet normal 0 0.38268343236508995 0.9238795325112867
    outer loop
      vertex -15 12.77785116509801 9.157348061512726
      vertex 15 10.975451610080642 9.903926402016152
      vertex 15 12.77785116509801 9.157348061512726
    endloop
  endfacet
  facet normal 0 0.7071067811865472 0.7071067811865478
    outer loop
      vertex 15 12.77785116509801 9.157348061512726
      vertex 15 14.157348061512726 7.777851165098011
      vertex -15 12.77785116509801 9.157348061512726
    endloop
  endfacet
  facet normal 0.9238795325112868 0 0.3826834323650898
    outer loop
      vertex 19.157348061512728 10 7.777851165098011
      vertex 19.157348061512728 -10 7.777851165098011
      vertex 19.903926402016154 10 5.975451610080642
    endloop
  endfacet
  facet normal 0 0 1
    outer loop
      vertex 15.975451610080642 10 9.903926402016152
      vertex 15.689748448207357 10.689748448207357 9.903926402016152
      vertex 15.975451610080642 -10 9.903926402016152
    endloop
  endfacet
  facet normal 0.3826834323650899 0 0.9238795325112866
    outer loop
      vertex 15.975451610080642 -10 9.903926402016152
      vertex 17.77785116509801 10 9.157348061512726
      vertex 15.975451610080642 10 9.903926402016152
    endloop
  endfacet
  facet normal 0.7071067811865468 0 0.7071067811865482
    outer loop
      vertex 19.157348061512728 10 7.777851165098011
      vertex 17.77785116509801 10 9.157348061512726
      vertex 19.157348061512728 -10 7.777851165098011
    endloop
  endfacet
  facet normal 0.19509032201612816 0.9807852804032304 0
    outer loop
      vertex 16.876651387589327 14.53063723176444 5.975451610080642
      vertex 16.876651387589327 14.53063723176444 -5.975451610080642
      vertex 15 14.903926402016152 5.975451610080642
    endloop
  endfacet
  facet normal 0.5555702330196025 0.831469612302545 0
    outer loop
      vertex 18.467599613305367 13.467599613305369 5.975451610080642
      vertex 16.876651387589327 14.53063723176444 -5.975451610080642
      vertex 16.876651387589327 14.53063723176444 5.975451610080642
    endloop
  endfacet
  facet normal 0.9807852804032301 0.19509032201612997 0
    outer loop
      vertex 19.903926402016154 10 5.975451610080642
      vertex 19.530637231764437 11.876651387589327 -5.975451610080642
      vertex 19.530637231764437 11.876651387589327 5.975451610080642
    endloop
  endfacet
  facet normal 0.8314696123025452 0.5555702330196022 0
    outer loop
      vertex 19.530637231764437 11.876651387589327 5.975451610080642
      vertex 19.530637231764437 11.876651387589327 -5.975451610080642
      vertex 18.467599613305367 13.467599613305369 5.975451610080642
    endloop
  endfacet
  facet normal 0.9086633352183303 0.18074437515937547 0.37638067707860245
    outer loop
      vertex 19.530637231764437 11.876651387589327 5.975451610080642
      vertex 19.157348061512728 10 7.777851165098011
      vertex 19.903926402016154 10 5.975451610080642
    endloop
  endfacet
  facet normal 0.9086633352183301 0.18074437515937578 0.3763806770786027
    outer loop
      vertex 19.530637231764437 11.876651387589327 5.975451610080642
      vertex 18.84088878355708 11.590948225716042 7.777851165098011
      vertex 19.157348061512728 10 7.777851165098011
    endloop
  endfacet
  facet normal 0 0 1
    outer loop
      vertex 15 10.975451610080642 9.903926402016152
      vertex 15.689748448207357 10.689748448207357 9.903926402016152
      vertex 15.373289170251713 10.901199777508685 9.903926402016152
    endloop
  endfacet
  facet normal 0 0 1
    outer loop
      vertex 15.901199777508685 10.373289170251713 9.903926402016152
      vertex 15.689748448207357 10.689748448207357 9.903926402016152
      vertex 15.975451610080642 10 9.903926402016152
    endloop
  endfacet
  facet normal 0.38157953112891535 0.07590088788047258 0.9212144791753943
    outer loop
      vertex 15.975451610080642 10 9.903926402016152
      vertex 17.566399835796684 11.06303761845907 9.157348061512726
      vertex 15.901199777508685 10.373289170251713 9.903926402016152
    endloop
  endfacet
  facet normal 0.3234875065416007 0.21614744150487755 0.9212144791753945
    outer loop
      vertex 16.964237395967757 11.964237395967755 9.157348061512726
      vertex 15.689748448207357 10.689748448207357 9.903926402016152
      vertex 15.901199777508685 10.373289170251713 9.903926402016152
    endloop
  endfacet
  facet normal 0.38157953112891557 0.075900887880472 0.9212144791753942
    outer loop
      vertex 15.975451610080642 10 9.903926402016152
      vertex 17.77785116509801 10 9.157348061512726
      vertex 17.566399835796684 11.06303761845907 9.157348061512726
    endloop
  endfacet
  facet normal 0.3234875065416015 0.21614744150487705 0.9212144791753945
    outer loop
      vertex 17.566399835796684 11.06303761845907 9.157348061512726
      vertex 16.964237395967757 11.964237395967755 9.157348061512726
      vertex 15.901199777508685 10.373289170251713 9.903926402016152
    endloop
  endfacet
  facet normal 0.7002145072825531 0.13928132531715492 0.7002145072825526
    outer loop
      vertex 18.84088878355708 11.590948225716042 7.777851165098011
      vertex 17.566399835796684 11.06303761845907 9.157348061512726
      vertex 19.157348061512728 10 7.777851165098011
    endloop
  endfacet
  facet normal 0.7002145072825525 0.13928132531715248 0.7002145072825539
    outer loop
      vertex 17.566399835796684 11.06303761845907 9.157348061512726
      vertex 17.77785116509801 10 9.157348061512726
      vertex 19.157348061512728 10 7.777851165098011
    endloop
  endfacet
  facet normal 0.1807443751593738 0.9086633352183306 0.37638067707860234
    outer loop
      vertex 15 14.903926402016152 5.975451610080642
      vertex 16.590948225716044 13.840888783557082 7.777851165098011
      vertex 16.876651387589327 14.53063723176444 5.975451610080642
    endloop
  endfacet
  facet normal 0.18074437515937358 0.9086633352183306 0.37638067707860257
    outer loop
      vertex 15 14.157348061512726 7.777851165098011
      vertex 16.590948225716044 13.840888783557082 7.777851165098011
      vertex 15 14.903926402016152 5.975451610080642
    endloop
  endfacet
  facet normal 0.5147164328119482 0.7703275794849851 0.37638067707860223
    outer loop
      vertex 16.876651387589327 14.53063723176444 5.975451610080642
      vertex 16.590948225716044 13.840888783557082 7.777851165098011
      vertex 18.467599613305367 13.467599613305369 5.975451610080642
    endloop
  endfacet
  facet normal 0.7703275794849854 0.5147164328119479 0.3763806770786022
    outer loop
      vertex 17.939689006048397 12.939689006048397 7.777851165098011
      vertex 19.530637231764437 11.876651387589327 5.975451610080642
      vertex 18.467599613305367 13.467599613305369 5.975451610080642
    endloop
  endfacet
  facet normal 0.7703275794849856 0.5147164328119471 0.37638067707860273
    outer loop
      vertex 17.939689006048397 12.939689006048397 7.777851165098011
      vertex 18.84088878355708 11.590948225716042 7.777851165098011
      vertex 19.530637231764437 11.876651387589327 5.975451610080642
    endloop
  endfacet
  facet normal 0.5147164328119485 0.770327579484985 0.3763806770786024
    outer loop
      vertex 18.467599613305367 13.467599613305369 5.975451610080642
      vertex 16.590948225716044 13.840888783557082 7.777851165098011
      vertex 17.939689006048397 12.939689006048397 7.777851165098011
    endloop
  endfacet
  facet normal 0.3966396567602822 0.5936131960090991 0.700214507282553
    outer loop
      vertex 16.590948225716044 13.840888783557082 7.777851165098011
      vertex 16.964237395967757 11.964237395967755 9.157348061512726
      vertex 17.939689006048397 12.939689006048397 7.777851165098011
    endloop
  endfacet
  facet normal 0.0759008878804726 0.3815795311289154 0.9212144791753943
    outer loop
      vertex 15.373289170251713 10.901199777508685 9.903926402016152
      vertex 16.06303761845907 12.566399835796684 9.157348061512726
      vertex 15 10.975451610080642 9.903926402016152
    endloop
  endfacet
  facet normal 0.075900887880472 0.38157953112891557 0.9212144791753942
    outer loop
      vertex 15 10.975451610080642 9.903926402016152
      vertex 16.06303761845907 12.566399835796684 9.157348061512726
      vertex 15 12.77785116509801 9.157348061512726
    endloop
  endfacet
  facet normal 0.2161474415048777 0.3234875065416008 0.9212144791753945
    outer loop
      vertex 15.373289170251713 10.901199777508685 9.903926402016152
      vertex 15.689748448207357 10.689748448207357 9.903926402016152
      vertex 16.964237395967757 11.964237395967755 9.157348061512726
    endloop
  endfacet
  facet normal 0.21614744150487716 0.3234875065416014 0.9212144791753943
    outer loop
      vertex 15.373289170251713 10.901199777508685 9.903926402016152
      vertex 16.964237395967757 11.964237395967755 9.157348061512726
      vertex 16.06303761845907 12.566399835796684 9.157348061512726
    endloop
  endfacet
  facet normal 0.39663965676028123 0.5936131960090993 0.7002145072825535
    outer loop
      vertex 16.06303761845907 12.566399835796684 9.157348061512726
      vertex 16.964237395967757 11.964237395967755 9.157348061512726
      vertex 16.590948225716044 13.840888783557082 7.777851165098011
    endloop
  endfacet
  facet normal 0.13928132531715318 0.7002145072825532 0.7002145072825532
    outer loop
      vertex 16.06303761845907 12.566399835796684 9.157348061512726
      vertex 16.590948225716044 13.840888783557082 7.777851165098011
      vertex 15 14.157348061512726 7.777851165098011
    endloop
  endfacet
  facet normal 0.1392813253171526 0.7002145072825531 0.7002145072825535
    outer loop
      vertex 15 12.77785116509801 9.157348061512726
      vertex 16.06303761845907 12.566399835796684 9.157348061512726
      vertex 15 14.157348061512726 7.777851165098011
    endloop
  endfacet
  facet normal 0.5936131960090999 0.3966396567602814 0.7002145072825526
    outer loop
      vertex 17.939689006048397 12.939689006048397 7.777851165098011
      vertex 16.964237395967757 11.964237395967755 9.157348061512726
      vertex 18.84088878355708 11.590948225716042 7.777851165098011
    endloop
  endfacet
  facet normal 0.5936131960090999 0.3966396567602812 0.7002145072825529
    outer loop
      vertex 18.84088878355708 11.590948225716042 7.777851165098011
      vertex 16.964237395967757 11.964237395967755 9.157348061512726
      vertex 17.566399835796684 11.06303761845907 9.157348061512726
    endloop
  endfacet
endsolid PythonSCAD_Model
