solid PythonSCAD_Model
  facet normal 0 0 -1
    outer loop
      vertex 6 0 0
      vertex 3.7038994058966637 0.45672280341386795 0
      vertex 39.54327719658613 3.7038994058966637 0
    endloop
  endfacet
  facet normal 0 0 -1
    outer loop
      vertex 3.7038994058966637 0.45672280341386795 0
      vertex 1.7573593109846115 1.7573593109846115 0
      vertex 40 6 0
    endloop
  endfacet
  facet normal 0 0 -1
    outer loop
      vertex 34 0 0
      vertex 6 0 0
      vertex 38.24264068901539 1.7573593109846115 0
    endloop
  endfacet
  facet normal 0 0 -1
    outer loop
      vertex 6 0 0
      vertex 39.54327719658613 3.7038994058966637 0
      vertex 38.24264068901539 1.7573593109846115 0
    endloop
  endfacet
  facet normal 0 0 -1
    outer loop
      vertex 3.7038994058966637 0.45672280341386795 0
      vertex 40 6 0
      vertex 39.54327719658613 3.7038994058966637 0
    endloop
  endfacet
  facet normal -0.5555702325167233 -0.8314696126385583 0
    outer loop
      vertex 3.7038994058966637 0.45672280341386795 0
      vertex 1.7573593109846115 1.7573593109846115 4
      vertex 1.7573593109846115 1.7573593109846115 0
    endloop
  endfacet
  facet normal -0.19509032139934773 -0.9807852805259157 0
    outer loop
      vertex 6 0 0
      vertex 3.7038994058966637 0.45672280341386795 4
      vertex 3.7038994058966637 0.45672280341386795 0
    endloop
  endfacet
  facet normal -0.8314696126385583 -0.5555702325167233 0
    outer loop
      vertex 1.7573593109846115 1.7573593109846115 0
      vertex 0.45672280341386795 3.7038994058966637 4
      vertex 0.45672280341386795 3.7038994058966637 0
    endloop
  endfacet
  facet normal 0 -1 0
    outer loop
      vertex 34 0 0
      vertex 6 0 4
      vertex 6 0 0
    endloop
  endfacet
  facet normal -0.9807852805259157 -0.19509032139934773 0
    outer loop
      vertex 0.45672280341386795 3.7038994058966637 0
      vertex 0 6 4
      vertex 0 6 0
    endloop
  endfacet
  facet normal 0.19509032139934773 -0.9807852805259157 0
    outer loop
      vertex 36.296100594103336 0.45672280341386795 0
      vertex 34 0 4
      vertex 34 0 0
    endloop
  endfacet
  facet normal 0 0 -1
    outer loop
      vertex 1.7573593109846115 1.7573593109846115 0
      vertex 0.45672280341386795 3.7038994058966637 0
      vertex 40 24 0
    endloop
  endfacet
  facet normal 0 0 -1
    outer loop
      vertex 0.45672280341386795 3.7038994058966637 0
      vertex 0 6 0
      vertex 39.54327719658613 26.296100594103336 0
    endloop
  endfacet
  facet normal 0 0 -1
    outer loop
      vertex 1.7573593109846115 1.7573593109846115 0
      vertex 40 24 0
      vertex 40 6 0
    endloop
  endfacet
  facet normal 0 0 -1
    outer loop
      vertex 34 0 0
      vertex 38.24264068901539 1.7573593109846115 0
      vertex 36.296100594103336 0.45672280341386795 0
    endloop
  endfacet
  facet normal 0.5555702325167233 -0.8314696126385583 0
    outer loop
      vertex 38.24264068901539 1.7573593109846115 0
      vertex 36.296100594103336 0.45672280341386795 4
      vertex 36.296100594103336 0.45672280341386795 0
    endloop
  endfacet
  facet normal 0.8314696126385583 -0.5555702325167233 0
    outer loop
      vertex 39.54327719658613 3.7038994058966637 0
      vertex 38.24264068901539 1.7573593109846115 4
      vertex 38.24264068901539 1.7573593109846115 0
    endloop
  endfacet
  facet normal 0.9807852805259157 -0.19509032139934773 0
    outer loop
      vertex 40 6 0
      vertex 39.54327719658613 3.7038994058966637 4
      vertex 39.54327719658613 3.7038994058966637 0
    endloop
  endfacet
  facet normal 1 0 0
    outer loop
      vertex 40 24 0
      vertex 40 6 4
      vertex 40 6 0
    endloop
  endfacet
  facet normal -0.5555702325167233 -0.8314696126385583 0
    outer loop
      vertex 3.7038994058966637 0.45672280341386795 0
      vertex 3.7038994058966637 0.45672280341386795 4
      vertex 1.7573593109846115 1.7573593109846115 4
    endloop
  endfacet
  facet normal -0.19509032139934773 -0.9807852805259157 0
    outer loop
      vertex 6 0 0
      vertex 6 0 4
      vertex 3.7038994058966637 0.45672280341386795 4
    endloop
  endfacet
  facet normal -0.8314696126385583 -0.5555702325167233 0
    outer loop
      vertex 1.7573593109846115 1.7573593109846115 0
      vertex 1.7573593109846115 1.7573593109846115 4
      vertex 0.45672280341386795 3.7038994058966637 4
    endloop
  endfacet
  facet normal -0.9807852805259157 -0.19509032139934773 0
    outer loop
      vertex 0.45672280341386795 3.7038994058966637 0
      vertex 0.45672280341386795 3.7038994058966637 4
      vertex 0 6 4
    endloop
  endfacet
  facet normal 0 -1 0
    outer loop
      vertex 34 0 0
      vertex 34 0 4
      vertex 6 0 4
    endloop
  endfacet
  facet normal 0 0 1
    outer loop
      vertex 39.54327719658613 3.7038994058966637 4
      vertex 3.7038994058966637 0.45672280341386795 4
      vertex 6 0 4
    endloop
  endfacet
  facet normal 0 0 1
    outer loop
      vertex 40 6 4
      vertex 1.7573593109846115 1.7573593109846115 4
      vertex 3.7038994058966637 0.45672280341386795 4
    endloop
  endfacet
  facet normal 0 0 1
    outer loop
      vertex 38.24264068901539 1.7573593109846115 4
      vertex 6 0 4
      vertex 34 0 4
    endloop
  endfacet
  facet normal 0 0 1
    outer loop
      vertex 38.24264068901539 1.7573593109846115 4
      vertex 39.54327719658613 3.7038994058966637 4
      vertex 6 0 4
    endloop
  endfacet
  facet normal 0 0 1
    outer loop
      vertex 39.54327719658613 3.7038994058966637 4
      vertex 40 6 4
      vertex 3.7038994058966637 0.45672280341386795 4
    endloop
  endfacet
  facet normal -1 0 0
    outer loop
      vertex 0 6 0
      vertex 0 6 4
      vertex 0 24 4
    endloop
  endfacet
  facet normal 0 0 1
    outer loop
      vertex 40 24 4
      vertex 0.45672280341386795 3.7038994058966637 4
      vertex 1.7573593109846115 1.7573593109846115 4
    endloop
  endfacet
  facet normal 0 0 1
    outer loop
      vertex 39.54327719658613 26.296100594103336 4
      vertex 0 6 4
      vertex 0.45672280341386795 3.7038994058966637 4
    endloop
  endfacet
  facet normal 0 0 1
    outer loop
      vertex 40 6 4
      vertex 40 24 4
      vertex 1.7573593109846115 1.7573593109846115 4
    endloop
  endfacet
  facet normal 0.19509032139934773 -0.9807852805259157 0
    outer loop
      vertex 36.296100594103336 0.45672280341386795 0
      vertex 36.296100594103336 0.45672280341386795 4
      vertex 34 0 4
    endloop
  endfacet
  facet normal 0.5555702325167233 -0.8314696126385583 0
    outer loop
      vertex 38.24264068901539 1.7573593109846115 0
      vertex 38.24264068901539 1.7573593109846115 4
      vertex 36.296100594103336 0.45672280341386795 4
    endloop
  endfacet
  facet normal 0.8314696126385583 -0.5555702325167233 0
    outer loop
      vertex 39.54327719658613 3.7038994058966637 0
      vertex 39.54327719658613 3.7038994058966637 4
      vertex 38.24264068901539 1.7573593109846115 4
    endloop
  endfacet
  facet normal 0.9807852805259157 -0.19509032139934773 0
    outer loop
      vertex 40 6 0
      vertex 40 6 4
      vertex 39.54327719658613 3.7038994058966637 4
    endloop
  endfacet
  facet normal 0 0 1
    outer loop
      vertex 36.296100594103336 0.45672280341386795 4
      vertex 38.24264068901539 1.7573593109846115 4
      vertex 34 0 4
    endloop
  endfacet
  facet normal 0 0 -1
    outer loop
      vertex 0 6 0
      vertex 0 24 0
      vertex 38.24264068901539 28.24264068901539 0
    endloop
  endfacet
  facet normal 0 0 -1
    outer loop
      vertex 0.45672280341386795 3.7038994058966637 0
      vertex 39.54327719658613 26.296100594103336 0
      vertex 40 24 0
    endloop
  endfacet
  facet normal 0 0 -1
    outer loop
      vertex 0 6 0
      vertex 38.24264068901539 28.24264068901539 0
      vertex 39.54327719658613 26.296100594103336 0
    endloop
  endfacet
  facet normal -1 0 0
    outer loop
      vertex 0 6 0
      vertex 0 24 4
      vertex 0 24 0
    endloop
  endfacet
  facet normal 0 0 -1
    outer loop
      vertex 1.7573593109846115 28.24264068901539 0
      vertex 3.7038994058966637 29.543277196586132 0
      vertex 6 30 0
    endloop
  endfacet
  facet normal 0 0 -1
    outer loop
      vertex 0 24 0
      vertex 0.45672280341386795 26.296100594103336 0
      vertex 36.296100594103336 29.543277196586132 0
    endloop
  endfacet
  facet normal 0 0 -1
    outer loop
      vertex 0.45672280341386795 26.296100594103336 0
      vertex 1.7573593109846115 28.24264068901539 0
      vertex 34 30 0
    endloop
  endfacet
  facet normal 0 0 -1
    outer loop
      vertex 1.7573593109846115 28.24264068901539 0
      vertex 6 30 0
      vertex 34 30 0
    endloop
  endfacet
  facet normal 0 0 -1
    outer loop
      vertex 0 24 0
      vertex 36.296100594103336 29.543277196586132 0
      vertex 38.24264068901539 28.24264068901539 0
    endloop
  endfacet
  facet normal 0 0 -1
    outer loop
      vertex 0.45672280341386795 26.296100594103336 0
      vertex 34 30 0
      vertex 36.296100594103336 29.543277196586132 0
    endloop
  endfacet
  facet normal -0.9807852805259157 0.19509032139934773 0
    outer loop
      vertex 0 24 0
      vertex 0.45672280341386795 26.296100594103336 4
      vertex 0.45672280341386795 26.296100594103336 0
    endloop
  endfacet
  facet normal -0.8314696126385583 0.5555702325167233 0
    outer loop
      vertex 0.45672280341386795 26.296100594103336 0
      vertex 1.7573593109846115 28.24264068901539 4
      vertex 1.7573593109846115 28.24264068901539 0
    endloop
  endfacet
  facet normal -0.5555702325167233 0.8314696126385583 0
    outer loop
      vertex 1.7573593109846115 28.24264068901539 0
      vertex 3.7038994058966637 29.543277196586132 4
      vertex 3.7038994058966637 29.543277196586132 0
    endloop
  endfacet
  facet normal -0.19509032139934773 0.9807852805259157 0
    outer loop
      vertex 3.7038994058966637 29.543277196586132 0
      vertex 6 30 4
      vertex 6 30 0
    endloop
  endfacet
  facet normal 0 1 0
    outer loop
      vertex 6 30 0
      vertex 34 30 4
      vertex 34 30 0
    endloop
  endfacet
  facet normal 0.9807852805259157 0.19509032139934773 0
    outer loop
      vertex 39.54327719658613 26.296100594103336 0
      vertex 40 24 4
      vertex 40 24 0
    endloop
  endfacet
  facet normal 0.8314696126385583 0.5555702325167233 0
    outer loop
      vertex 38.24264068901539 28.24264068901539 0
      vertex 39.54327719658613 26.296100594103336 4
      vertex 39.54327719658613 26.296100594103336 0
    endloop
  endfacet
  facet normal 0.5555702325167233 0.8314696126385583 0
    outer loop
      vertex 36.296100594103336 29.543277196586132 0
      vertex 38.24264068901539 28.24264068901539 4
      vertex 38.24264068901539 28.24264068901539 0
    endloop
  endfacet
  facet normal 0.19509032139934773 0.9807852805259157 0
    outer loop
      vertex 34 30 0
      vertex 36.296100594103336 29.543277196586132 4
      vertex 36.296100594103336 29.543277196586132 0
    endloop
  endfacet
  facet normal 0 0 1
    outer loop
      vertex 38.24264068901539 28.24264068901539 4
      vertex 0 24 4
      vertex 0 6 4
    endloop
  endfacet
  facet normal 0 0 1
    outer loop
      vertex 40 24 4
      vertex 39.54327719658613 26.296100594103336 4
      vertex 0.45672280341386795 3.7038994058966637 4
    endloop
  endfacet
  facet normal 0 0 1
    outer loop
      vertex 39.54327719658613 26.296100594103336 4
      vertex 38.24264068901539 28.24264068901539 4
      vertex 0 6 4
    endloop
  endfacet
  facet normal -0.9807852805259157 0.19509032139934773 0
    outer loop
      vertex 0 24 0
      vertex 0 24 4
      vertex 0.45672280341386795 26.296100594103336 4
    endloop
  endfacet
  facet normal -0.8314696126385583 0.5555702325167233 0
    outer loop
      vertex 0.45672280341386795 26.296100594103336 0
      vertex 0.45672280341386795 26.296100594103336 4
      vertex 1.7573593109846115 28.24264068901539 4
    endloop
  endfacet
  facet normal -0.5555702325167233 0.8314696126385583 0
    outer loop
      vertex 1.7573593109846115 28.24264068901539 0
      vertex 1.7573593109846115 28.24264068901539 4
      vertex 3.7038994058966637 29.543277196586132 4
    endloop
  endfacet
  facet normal -0.19509032139934773 0.9807852805259157 0
    outer loop
      vertex 3.7038994058966637 29.543277196586132 0
      vertex 3.7038994058966637 29.543277196586132 4
      vertex 6 30 4
    endloop
  endfacet
  facet normal 0 1 0
    outer loop
      vertex 6 30 0
      vertex 6 30 4
      vertex 34 30 4
    endloop
  endfacet
  facet normal 0.19509032139934773 0.9807852805259157 0
    outer loop
      vertex 34 30 0
      vertex 34 30 4
      vertex 36.296100594103336 29.543277196586132 4
    endloop
  endfacet
  facet normal 0 0 1
    outer loop
      vertex 6 30 4
      vertex 3.7038994058966637 29.543277196586132 4
      vertex 1.7573593109846115 28.24264068901539 4
    endloop
  endfacet
  facet normal 0 0 1
    outer loop
      vertex 36.296100594103336 29.543277196586132 4
      vertex 0.45672280341386795 26.296100594103336 4
      vertex 0 24 4
    endloop
  endfacet
  facet normal 0 0 1
    outer loop
      vertex 34 30 4
      vertex 1.7573593109846115 28.24264068901539 4
      vertex 0.45672280341386795 26.296100594103336 4
    endloop
  endfacet
  facet normal 0 0 1
    outer loop
      vertex 34 30 4
      vertex 6 30 4
      vertex 1.7573593109846115 28.24264068901539 4
    endloop
  endfacet
  facet normal 0 0 1
    outer loop
      vertex 38.24264068901539 28.24264068901539 4
      vertex 36.296100594103336 29.543277196586132 4
      vertex 0 24 4
    endloop
  endfacet
  facet normal 0 0 1
    outer loop
      vertex 36.296100594103336 29.543277196586132 4
      vertex 34 30 4
      vertex 0.45672280341386795 26.296100594103336 4
    endloop
  endfacet
  facet normal 1 0 0
    outer loop
      vertex 40 24 0
      vertex 40 24 4
      vertex 40 6 4
    endloop
  endfacet
  facet normal 0.9807852805259157 0.19509032139934773 0
    outer loop
      vertex 39.54327719658613 26.296100594103336 0
      vertex 39.54327719658613 26.296100594103336 4
      vertex 40 24 4
    endloop
  endfacet
  facet normal 0.8314696126385583 0.5555702325167233 0
    outer loop
      vertex 38.24264068901539 28.24264068901539 0
      vertex 38.24264068901539 28.24264068901539 4
      vertex 39.54327719658613 26.296100594103336 4
    endloop
  endfacet
  facet normal 0.5555702325167233 0.8314696126385583 0
    outer loop
      vertex 36.296100594103336 29.543277196586132 0
      vertex 36.296100594103336 29.543277196586132 4
      vertex 38.24264068901539 28.24264068901539 4
    endloop
  endfacet
  facet normal 0 0 -1
    outer loop
      vertex 57.80368845909834 0.02591068297624588 0
      vertex 55.75064776837826 0.19509220868349075 0
      vertex 87.52324340492487 1.365645483136177 0
    endloop
  endfacet
  facet normal 0 0 -1
    outer loop
      vertex 60 0 0
      vertex 57.80368845909834 0.02591068297624588 0
      vertex 86.04938271641731 0.6172839477658272 0
    endloop
  endfacet
  facet normal 0 0 -1
    outer loop
      vertex 55.75064776837826 0.19509220868349075 0
      vertex 53.95061728358269 0.6172839477658272 0
      vertex 88.63435451686382 2.4767565950751305 0
    endloop
  endfacet
  facet normal 0 0 -1
    outer loop
      vertex 53.95061728358269 0.6172839477658272 0
      vertex 52.47675659507513 1.365645483136177 0
      vertex 89.38271605223417 3.9506172835826874 0
    endloop
  endfacet
  facet normal 0 0 -1
    outer loop
      vertex 52.47675659507513 1.365645483136177 0
      vertex 51.36564548313618 2.4767565950751305 0
      vertex 89.80490779131651 5.750647768378258 0
    endloop
  endfacet
  facet normal 0 0 -1
    outer loop
      vertex 51.36564548313618 2.4767565950751305 0
      vertex 50.61728394776583 3.9506172835826874 0
      vertex 89.97408931702375 7.803688459098339 0
    endloop
  endfacet
  facet normal 0 0 -1
    outer loop
      vertex 50.61728394776583 3.9506172835826874 0
      vertex 50.19509220868349 5.750647768378258 0
      vertex 90 10 0
    endloop
  endfacet
  facet normal -0.7071067811865476 -0.7071067811865476 0
    outer loop
      vertex 52.47675659507513 1.365645483136177 0
      vertex 51.36564548313618 2.4767565950751305 4
      vertex 51.36564548313618 2.4767565950751305 0
    endloop
  endfacet
  facet normal -0.8916438621221714 -0.4527374770657474 0
    outer loop
      vertex 51.36564548313618 2.4767565950751305 0
      vertex 50.61728394776583 3.9506172835826874 4
      vertex 50.61728394776583 3.9506172835826874 0
    endloop
  endfacet
  facet normal -0.9735790952102372 -0.22835005007579035 0
    outer loop
      vertex 50.61728394776583 3.9506172835826874 0
      vertex 50.19509220868349 5.750647768378258 4
      vertex 50.19509220868349 5.750647768378258 0
    endloop
  endfacet
  facet normal -0.9966218746103706 -0.08212696906687168 0
    outer loop
      vertex 50.19509220868349 5.750647768378258 0
      vertex 50.025910682976246 7.803688459098339 4
      vertex 50.025910682976246 7.803688459098339 0
    endloop
  endfacet
  facet normal -0.22835005007579035 -0.9735790952102372 0
    outer loop
      vertex 55.75064776837826 0.19509220868349075 0
      vertex 53.95061728358269 0.6172839477658272 4
      vertex 53.95061728358269 0.6172839477658272 0
    endloop
  endfacet
  facet normal -0.08212696906687168 -0.9966218746103706 0
    outer loop
      vertex 57.80368845909834 0.02591068297624588 0
      vertex 55.75064776837826 0.19509220868349075 4
      vertex 55.75064776837826 0.19509220868349075 0
    endloop
  endfacet
  facet normal -0.4527374770657474 -0.8916438621221714 0
    outer loop
      vertex 53.95061728358269 0.6172839477658272 0
      vertex 52.47675659507513 1.365645483136177 4
      vertex 52.47675659507513 1.365645483136177 0
    endloop
  endfacet
  facet normal -0.011796541422546755 -0.9999304183844325 0
    outer loop
      vertex 60 0 0
      vertex 57.80368845909834 0.02591068297624588 4
      vertex 57.80368845909834 0.02591068297624588 0
    endloop
  endfacet
  facet normal 0 -1 0
    outer loop
      vertex 80 0 0
      vertex 60 0 4
      vertex 60 0 0
    endloop
  endfacet
  facet normal 0 0 -1
    outer loop
      vertex 50.19509220868349 5.750647768378258 0
      vertex 50.025910682976246 7.803688459098339 0
      vertex 90 20 0
    endloop
  endfacet
  facet normal 0 0 -1
    outer loop
      vertex 50.025910682976246 7.803688459098339 0
      vertex 50 10 0
      vertex 89.97408931702375 22.19631154090166 0
    endloop
  endfacet
  facet normal -0.9999304183844325 -0.011796541422546755 0
    outer loop
      vertex 50.025910682976246 7.803688459098339 0
      vertex 50 10 4
      vertex 50 10 0
    endloop
  endfacet
  facet normal -0.7071067811865476 -0.7071067811865476 0
    outer loop
      vertex 52.47675659507513 1.365645483136177 0
      vertex 52.47675659507513 1.365645483136177 4
      vertex 51.36564548313618 2.4767565950751305 4
    endloop
  endfacet
  facet normal -0.8916438621221714 -0.4527374770657474 0
    outer loop
      vertex 51.36564548313618 2.4767565950751305 0
      vertex 51.36564548313618 2.4767565950751305 4
      vertex 50.61728394776583 3.9506172835826874 4
    endloop
  endfacet
  facet normal -0.9735790952102372 -0.22835005007579035 0
    outer loop
      vertex 50.61728394776583 3.9506172835826874 0
      vertex 50.61728394776583 3.9506172835826874 4
      vertex 50.19509220868349 5.750647768378258 4
    endloop
  endfacet
  facet normal -0.9966218746103706 -0.08212696906687168 0
    outer loop
      vertex 50.19509220868349 5.750647768378258 0
      vertex 50.19509220868349 5.750647768378258 4
      vertex 50.025910682976246 7.803688459098339 4
    endloop
  endfacet
  facet normal -0.4527374770657474 -0.8916438621221714 0
    outer loop
      vertex 53.95061728358269 0.6172839477658272 0
      vertex 53.95061728358269 0.6172839477658272 4
      vertex 52.47675659507513 1.365645483136177 4
    endloop
  endfacet
  facet normal -0.22835005007579035 -0.9735790952102372 0
    outer loop
      vertex 55.75064776837826 0.19509220868349075 0
      vertex 55.75064776837826 0.19509220868349075 4
      vertex 53.95061728358269 0.6172839477658272 4
    endloop
  endfacet
  facet normal -0.08212696906687168 -0.9966218746103706 0
    outer loop
      vertex 57.80368845909834 0.02591068297624588 0
      vertex 57.80368845909834 0.02591068297624588 4
      vertex 55.75064776837826 0.19509220868349075 4
    endloop
  endfacet
  facet normal -0.011796541422546755 -0.9999304183844325 0
    outer loop
      vertex 60 0 0
      vertex 60 0 4
      vertex 57.80368845909834 0.02591068297624588 4
    endloop
  endfacet
  facet normal 0 0 1
    outer loop
      vertex 87.52324340492487 1.365645483136177 4
      vertex 55.75064776837826 0.19509220868349075 4
      vertex 57.80368845909834 0.02591068297624588 4
    endloop
  endfacet
  facet normal 0 0 1
    outer loop
      vertex 86.04938271641731 0.6172839477658272 4
      vertex 57.80368845909834 0.02591068297624588 4
      vertex 60 0 4
    endloop
  endfacet
  facet normal 0 0 1
    outer loop
      vertex 88.63435451686382 2.4767565950751305 4
      vertex 53.95061728358269 0.6172839477658272 4
      vertex 55.75064776837826 0.19509220868349075 4
    endloop
  endfacet
  facet normal 0 0 1
    outer loop
      vertex 89.38271605223417 3.9506172835826874 4
      vertex 52.47675659507513 1.365645483136177 4
      vertex 53.95061728358269 0.6172839477658272 4
    endloop
  endfacet
  facet normal 0 0 1
    outer loop
      vertex 89.80490779131651 5.750647768378258 4
      vertex 51.36564548313618 2.4767565950751305 4
      vertex 52.47675659507513 1.365645483136177 4
    endloop
  endfacet
  facet normal 0 0 1
    outer loop
      vertex 89.97408931702375 7.803688459098339 4
      vertex 50.61728394776583 3.9506172835826874 4
      vertex 51.36564548313618 2.4767565950751305 4
    endloop
  endfacet
  facet normal 0 0 1
    outer loop
      vertex 90 10 4
      vertex 50.19509220868349 5.750647768378258 4
      vertex 50.61728394776583 3.9506172835826874 4
    endloop
  endfacet
  facet normal -0.9999304183844325 -0.011796541422546755 0
    outer loop
      vertex 50.025910682976246 7.803688459098339 0
      vertex 50.025910682976246 7.803688459098339 4
      vertex 50 10 4
    endloop
  endfacet
  facet normal -1 0 0
    outer loop
      vertex 50 10 0
      vertex 50 10 4
      vertex 50 20 4
    endloop
  endfacet
  facet normal 0 0 1
    outer loop
      vertex 90 20 4
      vertex 50.025910682976246 7.803688459098339 4
      vertex 50.19509220868349 5.750647768378258 4
    endloop
  endfacet
  facet normal 0 0 1
    outer loop
      vertex 89.97408931702375 22.19631154090166 4
      vertex 50 10 4
      vertex 50.025910682976246 7.803688459098339 4
    endloop
  endfacet
  facet normal 0 0 -1
    outer loop
      vertex 50 10 0
      vertex 50 20 0
      vertex 89.80490779131651 24.249352231621742 0
    endloop
  endfacet
  facet normal -1 0 0
    outer loop
      vertex 50 10 0
      vertex 50 20 4
      vertex 50 20 0
    endloop
  endfacet
  facet normal -0.9999304183844325 0.011796541422546755 0
    outer loop
      vertex 50 20 0
      vertex 50.025910682976246 22.19631154090166 4
      vertex 50.025910682976246 22.19631154090166 0
    endloop
  endfacet
  facet normal 0 0 -1
    outer loop
      vertex 50 20 0
      vertex 50.025910682976246 22.19631154090166 0
      vertex 89.38271605223417 26.049382716417313 0
    endloop
  endfacet
  facet normal 0 0 -1
    outer loop
      vertex 50.025910682976246 22.19631154090166 0
      vertex 50.19509220868349 24.249352231621742 0
      vertex 88.63435451686382 27.52324340492487 0
    endloop
  endfacet
  facet normal 0 0 -1
    outer loop
      vertex 55.75064776837826 29.80490779131651 0
      vertex 57.80368845909834 29.974089317023754 0
      vertex 60 30 0
    endloop
  endfacet
  facet normal 0 0 -1
    outer loop
      vertex 50.19509220868349 24.249352231621742 0
      vertex 50.61728394776583 26.049382716417313 0
      vertex 87.52324340492487 28.634354516863823 0
    endloop
  endfacet
  facet normal 0 0 -1
    outer loop
      vertex 50.61728394776583 26.049382716417313 0
      vertex 51.36564548313618 27.52324340492487 0
      vertex 86.04938271641731 29.382716052234173 0
    endloop
  endfacet
  facet normal 0 0 -1
    outer loop
      vertex 51.36564548313618 27.52324340492487 0
      vertex 52.47675659507513 28.634354516863823 0
      vertex 84.24935223162174 29.80490779131651 0
    endloop
  endfacet
  facet normal 0 0 -1
    outer loop
      vertex 52.47675659507513 28.634354516863823 0
      vertex 53.95061728358269 29.382716052234173 0
      vertex 82.19631154090166 29.974089317023754 0
    endloop
  endfacet
  facet normal 0 0 -1
    outer loop
      vertex 53.95061728358269 29.382716052234173 0
      vertex 55.75064776837826 29.80490779131651 0
      vertex 80 30 0
    endloop
  endfacet
  facet normal 0 0 -1
    outer loop
      vertex 55.75064776837826 29.80490779131651 0
      vertex 60 30 0
      vertex 80 30 0
    endloop
  endfacet
  facet normal -0.9966218746103706 0.08212696906687168 0
    outer loop
      vertex 50.025910682976246 22.19631154090166 0
      vertex 50.19509220868349 24.249352231621742 4
      vertex 50.19509220868349 24.249352231621742 0
    endloop
  endfacet
  facet normal -0.9735790952102372 0.22835005007579035 0
    outer loop
      vertex 50.19509220868349 24.249352231621742 0
      vertex 50.61728394776583 26.049382716417313 4
      vertex 50.61728394776583 26.049382716417313 0
    endloop
  endfacet
  facet normal -0.8916438621221714 0.4527374770657474 0
    outer loop
      vertex 50.61728394776583 26.049382716417313 0
      vertex 51.36564548313618 27.52324340492487 4
      vertex 51.36564548313618 27.52324340492487 0
    endloop
  endfacet
  facet normal -0.7071067811865476 0.7071067811865476 0
    outer loop
      vertex 51.36564548313618 27.52324340492487 0
      vertex 52.47675659507513 28.634354516863823 4
      vertex 52.47675659507513 28.634354516863823 0
    endloop
  endfacet
  facet normal -0.4527374770657474 0.8916438621221714 0
    outer loop
      vertex 52.47675659507513 28.634354516863823 0
      vertex 53.95061728358269 29.382716052234173 4
      vertex 53.95061728358269 29.382716052234173 0
    endloop
  endfacet
  facet normal -0.22835005007579035 0.9735790952102372 0
    outer loop
      vertex 53.95061728358269 29.382716052234173 0
      vertex 55.75064776837826 29.80490779131651 4
      vertex 55.75064776837826 29.80490779131651 0
    endloop
  endfacet
  facet normal -0.08212696906687168 0.9966218746103706 0
    outer loop
      vertex 55.75064776837826 29.80490779131651 0
      vertex 57.80368845909834 29.974089317023754 4
      vertex 57.80368845909834 29.974089317023754 0
    endloop
  endfacet
  facet normal -0.011796541422546755 0.9999304183844325 0
    outer loop
      vertex 57.80368845909834 29.974089317023754 0
      vertex 60 30 4
      vertex 60 30 0
    endloop
  endfacet
  facet normal -0.9999304183844325 0.011796541422546755 0
    outer loop
      vertex 50 20 0
      vertex 50 20 4
      vertex 50.025910682976246 22.19631154090166 4
    endloop
  endfacet
  facet normal 0 0 1
    outer loop
      vertex 89.80490779131651 24.249352231621742 4
      vertex 50 20 4
      vertex 50 10 4
    endloop
  endfacet
  facet normal -0.9966218746103706 0.08212696906687168 0
    outer loop
      vertex 50.025910682976246 22.19631154090166 0
      vertex 50.025910682976246 22.19631154090166 4
      vertex 50.19509220868349 24.249352231621742 4
    endloop
  endfacet
  facet normal -0.9735790952102372 0.22835005007579035 0
    outer loop
      vertex 50.19509220868349 24.249352231621742 0
      vertex 50.19509220868349 24.249352231621742 4
      vertex 50.61728394776583 26.049382716417313 4
    endloop
  endfacet
  facet normal -0.8916438621221714 0.4527374770657474 0
    outer loop
      vertex 50.61728394776583 26.049382716417313 0
      vertex 50.61728394776583 26.049382716417313 4
      vertex 51.36564548313618 27.52324340492487 4
    endloop
  endfacet
  facet normal -0.7071067811865476 0.7071067811865476 0
    outer loop
      vertex 51.36564548313618 27.52324340492487 0
      vertex 51.36564548313618 27.52324340492487 4
      vertex 52.47675659507513 28.634354516863823 4
    endloop
  endfacet
  facet normal -0.4527374770657474 0.8916438621221714 0
    outer loop
      vertex 52.47675659507513 28.634354516863823 0
      vertex 52.47675659507513 28.634354516863823 4
      vertex 53.95061728358269 29.382716052234173 4
    endloop
  endfacet
  facet normal -0.22835005007579035 0.9735790952102372 0
    outer loop
      vertex 53.95061728358269 29.382716052234173 0
      vertex 53.95061728358269 29.382716052234173 4
      vertex 55.75064776837826 29.80490779131651 4
    endloop
  endfacet
  facet normal -0.08212696906687168 0.9966218746103706 0
    outer loop
      vertex 55.75064776837826 29.80490779131651 0
      vertex 55.75064776837826 29.80490779131651 4
      vertex 57.80368845909834 29.974089317023754 4
    endloop
  endfacet
  facet normal -0.011796541422546755 0.9999304183844325 0
    outer loop
      vertex 57.80368845909834 29.974089317023754 0
      vertex 57.80368845909834 29.974089317023754 4
      vertex 60 30 4
    endloop
  endfacet
  facet normal 0 1 0
    outer loop
      vertex 60 30 0
      vertex 60 30 4
      vertex 80 30 4
    endloop
  endfacet
  facet normal 0 0 1
    outer loop
      vertex 89.38271605223417 26.049382716417313 4
      vertex 50.025910682976246 22.19631154090166 4
      vertex 50 20 4
    endloop
  endfacet
  facet normal 0 0 1
    outer loop
      vertex 88.63435451686382 27.52324340492487 4
      vertex 50.19509220868349 24.249352231621742 4
      vertex 50.025910682976246 22.19631154090166 4
    endloop
  endfacet
  facet normal 0 0 1
    outer loop
      vertex 60 30 4
      vertex 57.80368845909834 29.974089317023754 4
      vertex 55.75064776837826 29.80490779131651 4
    endloop
  endfacet
  facet normal 0 0 1
    outer loop
      vertex 87.52324340492487 28.634354516863823 4
      vertex 50.61728394776583 26.049382716417313 4
      vertex 50.19509220868349 24.249352231621742 4
    endloop
  endfacet
  facet normal 0 0 1
    outer loop
      vertex 86.04938271641731 29.382716052234173 4
      vertex 51.36564548313618 27.52324340492487 4
      vertex 50.61728394776583 26.049382716417313 4
    endloop
  endfacet
  facet normal 0 0 1
    outer loop
      vertex 84.24935223162174 29.80490779131651 4
      vertex 52.47675659507513 28.634354516863823 4
      vertex 51.36564548313618 27.52324340492487 4
    endloop
  endfacet
  facet normal 0 0 1
    outer loop
      vertex 82.19631154090166 29.974089317023754 4
      vertex 53.95061728358269 29.382716052234173 4
      vertex 52.47675659507513 28.634354516863823 4
    endloop
  endfacet
  facet normal 0 0 1
    outer loop
      vertex 80 30 4
      vertex 55.75064776837826 29.80490779131651 4
      vertex 53.95061728358269 29.382716052234173 4
    endloop
  endfacet
  facet normal 0 0 1
    outer loop
      vertex 80 30 4
      vertex 60 30 4
      vertex 55.75064776837826 29.80490779131651 4
    endloop
  endfacet
  facet normal 0 0 -1
    outer loop
      vertex 80 0 0
      vertex 60 0 0
      vertex 84.24935223162174 0.19509220868349075 0
    endloop
  endfacet
  facet normal 0 0 -1
    outer loop
      vertex 60 0 0
      vertex 86.04938271641731 0.6172839477658272 0
      vertex 84.24935223162174 0.19509220868349075 0
    endloop
  endfacet
  facet normal 0 0 -1
    outer loop
      vertex 57.80368845909834 0.02591068297624588 0
      vertex 87.52324340492487 1.365645483136177 0
      vertex 86.04938271641731 0.6172839477658272 0
    endloop
  endfacet
  facet normal 0 0 -1
    outer loop
      vertex 55.75064776837826 0.19509220868349075 0
      vertex 88.63435451686382 2.4767565950751305 0
      vertex 87.52324340492487 1.365645483136177 0
    endloop
  endfacet
  facet normal 0 0 -1
    outer loop
      vertex 53.95061728358269 0.6172839477658272 0
      vertex 89.38271605223417 3.9506172835826874 0
      vertex 88.63435451686382 2.4767565950751305 0
    endloop
  endfacet
  facet normal 0 0 -1
    outer loop
      vertex 52.47675659507513 1.365645483136177 0
      vertex 89.80490779131651 5.750647768378258 0
      vertex 89.38271605223417 3.9506172835826874 0
    endloop
  endfacet
  facet normal 0 0 -1
    outer loop
      vertex 80 0 0
      vertex 84.24935223162174 0.19509220868349075 0
      vertex 82.19631154090166 0.02591068297624588 0
    endloop
  endfacet
  facet normal 0 0 -1
    outer loop
      vertex 51.36564548313618 2.4767565950751305 0
      vertex 89.97408931702375 7.803688459098339 0
      vertex 89.80490779131651 5.750647768378258 0
    endloop
  endfacet
  facet normal 0 0 -1
    outer loop
      vertex 50.61728394776583 3.9506172835826874 0
      vertex 90 10 0
      vertex 89.97408931702375 7.803688459098339 0
    endloop
  endfacet
  facet normal 0.011796541422546755 -0.9999304183844325 0
    outer loop
      vertex 82.19631154090166 0.02591068297624588 0
      vertex 80 0 4
      vertex 80 0 0
    endloop
  endfacet
  facet normal 0.08212696906687168 -0.9966218746103706 0
    outer loop
      vertex 84.24935223162174 0.19509220868349075 0
      vertex 82.19631154090166 0.02591068297624588 4
      vertex 82.19631154090166 0.02591068297624588 0
    endloop
  endfacet
  facet normal 0.22835005007579035 -0.9735790952102372 0
    outer loop
      vertex 86.04938271641731 0.6172839477658272 0
      vertex 84.24935223162174 0.19509220868349075 4
      vertex 84.24935223162174 0.19509220868349075 0
    endloop
  endfacet
  facet normal 0.4527374770657474 -0.8916438621221714 0
    outer loop
      vertex 87.52324340492487 1.365645483136177 0
      vertex 86.04938271641731 0.6172839477658272 4
      vertex 86.04938271641731 0.6172839477658272 0
    endloop
  endfacet
  facet normal 0.7071067811865476 -0.7071067811865476 0
    outer loop
      vertex 88.63435451686382 2.4767565950751305 0
      vertex 87.52324340492487 1.365645483136177 4
      vertex 87.52324340492487 1.365645483136177 0
    endloop
  endfacet
  facet normal 0.8916438621221714 -0.4527374770657474 0
    outer loop
      vertex 89.38271605223417 3.9506172835826874 0
      vertex 88.63435451686382 2.4767565950751305 4
      vertex 88.63435451686382 2.4767565950751305 0
    endloop
  endfacet
  facet normal 0.9735790952102372 -0.22835005007579035 0
    outer loop
      vertex 89.80490779131651 5.750647768378258 0
      vertex 89.38271605223417 3.9506172835826874 4
      vertex 89.38271605223417 3.9506172835826874 0
    endloop
  endfacet
  facet normal 0.9966218746103706 -0.08212696906687168 0
    outer loop
      vertex 89.97408931702375 7.803688459098339 0
      vertex 89.80490779131651 5.750647768378258 4
      vertex 89.80490779131651 5.750647768378258 0
    endloop
  endfacet
  facet normal 0 0 -1
    outer loop
      vertex 50.19509220868349 5.750647768378258 0
      vertex 90 20 0
      vertex 90 10 0
    endloop
  endfacet
  facet normal 0.9999304183844325 -0.011796541422546755 0
    outer loop
      vertex 90 10 0
      vertex 89.97408931702375 7.803688459098339 4
      vertex 89.97408931702375 7.803688459098339 0
    endloop
  endfacet
  facet normal 1 0 0
    outer loop
      vertex 90 20 0
      vertex 90 10 4
      vertex 90 10 0
    endloop
  endfacet
  facet normal 0 -1 0
    outer loop
      vertex 80 0 0
      vertex 80 0 4
      vertex 60 0 4
    endloop
  endfacet
  facet normal 0.011796541422546755 -0.9999304183844325 0
    outer loop
      vertex 82.19631154090166 0.02591068297624588 0
      vertex 82.19631154090166 0.02591068297624588 4
      vertex 80 0 4
    endloop
  endfacet
  facet normal 0.08212696906687168 -0.9966218746103706 0
    outer loop
      vertex 84.24935223162174 0.19509220868349075 0
      vertex 84.24935223162174 0.19509220868349075 4
      vertex 82.19631154090166 0.02591068297624588 4
    endloop
  endfacet
  facet normal 0.22835005007579035 -0.9735790952102372 0
    outer loop
      vertex 86.04938271641731 0.6172839477658272 0
      vertex 86.04938271641731 0.6172839477658272 4
      vertex 84.24935223162174 0.19509220868349075 4
    endloop
  endfacet
  facet normal 0.4527374770657474 -0.8916438621221714 0
    outer loop
      vertex 87.52324340492487 1.365645483136177 0
      vertex 87.52324340492487 1.365645483136177 4
      vertex 86.04938271641731 0.6172839477658272 4
    endloop
  endfacet
  facet normal 0.7071067811865476 -0.7071067811865476 0
    outer loop
      vertex 88.63435451686382 2.4767565950751305 0
      vertex 88.63435451686382 2.4767565950751305 4
      vertex 87.52324340492487 1.365645483136177 4
    endloop
  endfacet
  facet normal 0.8916438621221714 -0.4527374770657474 0
    outer loop
      vertex 89.38271605223417 3.9506172835826874 0
      vertex 89.38271605223417 3.9506172835826874 4
      vertex 88.63435451686382 2.4767565950751305 4
    endloop
  endfacet
  facet normal 0.9735790952102372 -0.22835005007579035 0
    outer loop
      vertex 89.80490779131651 5.750647768378258 0
      vertex 89.80490779131651 5.750647768378258 4
      vertex 89.38271605223417 3.9506172835826874 4
    endloop
  endfacet
  facet normal 0.9966218746103706 -0.08212696906687168 0
    outer loop
      vertex 89.97408931702375 7.803688459098339 0
      vertex 89.97408931702375 7.803688459098339 4
      vertex 89.80490779131651 5.750647768378258 4
    endloop
  endfacet
  facet normal 0 0 1
    outer loop
      vertex 84.24935223162174 0.19509220868349075 4
      vertex 60 0 4
      vertex 80 0 4
    endloop
  endfacet
  facet normal 0 0 1
    outer loop
      vertex 84.24935223162174 0.19509220868349075 4
      vertex 86.04938271641731 0.6172839477658272 4
      vertex 60 0 4
    endloop
  endfacet
  facet normal 0 0 1
    outer loop
      vertex 86.04938271641731 0.6172839477658272 4
      vertex 87.52324340492487 1.365645483136177 4
      vertex 57.80368845909834 0.02591068297624588 4
    endloop
  endfacet
  facet normal 0 0 1
    outer loop
      vertex 87.52324340492487 1.365645483136177 4
      vertex 88.63435451686382 2.4767565950751305 4
      vertex 55.75064776837826 0.19509220868349075 4
    endloop
  endfacet
  facet normal 0 0 1
    outer loop
      vertex 88.63435451686382 2.4767565950751305 4
      vertex 89.38271605223417 3.9506172835826874 4
      vertex 53.95061728358269 0.6172839477658272 4
    endloop
  endfacet
  facet normal 0 0 1
    outer loop
      vertex 89.38271605223417 3.9506172835826874 4
      vertex 89.80490779131651 5.750647768378258 4
      vertex 52.47675659507513 1.365645483136177 4
    endloop
  endfacet
  facet normal 0 0 1
    outer loop
      vertex 82.19631154090166 0.02591068297624588 4
      vertex 84.24935223162174 0.19509220868349075 4
      vertex 80 0 4
    endloop
  endfacet
  facet normal 0 0 1
    outer loop
      vertex 89.80490779131651 5.750647768378258 4
      vertex 89.97408931702375 7.803688459098339 4
      vertex 51.36564548313618 2.4767565950751305 4
    endloop
  endfacet
  facet normal 0 0 1
    outer loop
      vertex 89.97408931702375 7.803688459098339 4
      vertex 90 10 4
      vertex 50.61728394776583 3.9506172835826874 4
    endloop
  endfacet
  facet normal 0.9999304183844325 -0.011796541422546755 0
    outer loop
      vertex 90 10 0
      vertex 90 10 4
      vertex 89.97408931702375 7.803688459098339 4
    endloop
  endfacet
  facet normal 0 0 1
    outer loop
      vertex 90 10 4
      vertex 90 20 4
      vertex 50.19509220868349 5.750647768378258 4
    endloop
  endfacet
  facet normal 0 0 -1
    outer loop
      vertex 50.025910682976246 7.803688459098339 0
      vertex 89.97408931702375 22.19631154090166 0
      vertex 90 20 0
    endloop
  endfacet
  facet normal 0 0 -1
    outer loop
      vertex 50 10 0
      vertex 89.80490779131651 24.249352231621742 0
      vertex 89.97408931702375 22.19631154090166 0
    endloop
  endfacet
  facet normal 0.9999304183844325 0.011796541422546755 0
    outer loop
      vertex 89.97408931702375 22.19631154090166 0
      vertex 90 20 4
      vertex 90 20 0
    endloop
  endfacet
  facet normal 0 0 -1
    outer loop
      vertex 50 20 0
      vertex 89.38271605223417 26.049382716417313 0
      vertex 89.80490779131651 24.249352231621742 0
    endloop
  endfacet
  facet normal 0 0 -1
    outer loop
      vertex 50.025910682976246 22.19631154090166 0
      vertex 88.63435451686382 27.52324340492487 0
      vertex 89.38271605223417 26.049382716417313 0
    endloop
  endfacet
  facet normal 0 0 -1
    outer loop
      vertex 50.19509220868349 24.249352231621742 0
      vertex 87.52324340492487 28.634354516863823 0
      vertex 88.63435451686382 27.52324340492487 0
    endloop
  endfacet
  facet normal 0 0 -1
    outer loop
      vertex 50.61728394776583 26.049382716417313 0
      vertex 86.04938271641731 29.382716052234173 0
      vertex 87.52324340492487 28.634354516863823 0
    endloop
  endfacet
  facet normal 0 0 -1
    outer loop
      vertex 51.36564548313618 27.52324340492487 0
      vertex 84.24935223162174 29.80490779131651 0
      vertex 86.04938271641731 29.382716052234173 0
    endloop
  endfacet
  facet normal 0 0 -1
    outer loop
      vertex 53.95061728358269 29.382716052234173 0
      vertex 80 30 0
      vertex 82.19631154090166 29.974089317023754 0
    endloop
  endfacet
  facet normal 0 0 -1
    outer loop
      vertex 52.47675659507513 28.634354516863823 0
      vertex 82.19631154090166 29.974089317023754 0
      vertex 84.24935223162174 29.80490779131651 0
    endloop
  endfacet
  facet normal 0 1 0
    outer loop
      vertex 60 30 0
      vertex 80 30 4
      vertex 80 30 0
    endloop
  endfacet
  facet normal 0.011796541422546755 0.9999304183844325 0
    outer loop
      vertex 80 30 0
      vertex 82.19631154090166 29.974089317023754 4
      vertex 82.19631154090166 29.974089317023754 0
    endloop
  endfacet
  facet normal 0.4527374770657474 0.8916438621221714 0
    outer loop
      vertex 86.04938271641731 29.382716052234173 0
      vertex 87.52324340492487 28.634354516863823 4
      vertex 87.52324340492487 28.634354516863823 0
    endloop
  endfacet
  facet normal 0.08212696906687168 0.9966218746103706 0
    outer loop
      vertex 82.19631154090166 29.974089317023754 0
      vertex 84.24935223162174 29.80490779131651 4
      vertex 84.24935223162174 29.80490779131651 0
    endloop
  endfacet
  facet normal 0.22835005007579035 0.9735790952102372 0
    outer loop
      vertex 84.24935223162174 29.80490779131651 0
      vertex 86.04938271641731 29.382716052234173 4
      vertex 86.04938271641731 29.382716052234173 0
    endloop
  endfacet
  facet normal 0.9966218746103706 0.08212696906687168 0
    outer loop
      vertex 89.80490779131651 24.249352231621742 0
      vertex 89.97408931702375 22.19631154090166 4
      vertex 89.97408931702375 22.19631154090166 0
    endloop
  endfacet
  facet normal 0.9735790952102372 0.22835005007579035 0
    outer loop
      vertex 89.38271605223417 26.049382716417313 0
      vertex 89.80490779131651 24.249352231621742 4
      vertex 89.80490779131651 24.249352231621742 0
    endloop
  endfacet
  facet normal 0.8916438621221714 0.4527374770657474 0
    outer loop
      vertex 88.63435451686382 27.52324340492487 0
      vertex 89.38271605223417 26.049382716417313 4
      vertex 89.38271605223417 26.049382716417313 0
    endloop
  endfacet
  facet normal 0.7071067811865476 0.7071067811865476 0
    outer loop
      vertex 87.52324340492487 28.634354516863823 0
      vertex 88.63435451686382 27.52324340492487 4
      vertex 88.63435451686382 27.52324340492487 0
    endloop
  endfacet
  facet normal 1 0 0
    outer loop
      vertex 90 20 0
      vertex 90 20 4
      vertex 90 10 4
    endloop
  endfacet
  facet normal 0.9999304183844325 0.011796541422546755 0
    outer loop
      vertex 89.97408931702375 22.19631154090166 0
      vertex 89.97408931702375 22.19631154090166 4
      vertex 90 20 4
    endloop
  endfacet
  facet normal 0 0 1
    outer loop
      vertex 90 20 4
      vertex 89.97408931702375 22.19631154090166 4
      vertex 50.025910682976246 7.803688459098339 4
    endloop
  endfacet
  facet normal 0 0 1
    outer loop
      vertex 89.97408931702375 22.19631154090166 4
      vertex 89.80490779131651 24.249352231621742 4
      vertex 50 10 4
    endloop
  endfacet
  facet normal 0.011796541422546755 0.9999304183844325 0
    outer loop
      vertex 80 30 0
      vertex 80 30 4
      vertex 82.19631154090166 29.974089317023754 4
    endloop
  endfacet
  facet normal 0.08212696906687168 0.9966218746103706 0
    outer loop
      vertex 82.19631154090166 29.974089317023754 0
      vertex 82.19631154090166 29.974089317023754 4
      vertex 84.24935223162174 29.80490779131651 4
    endloop
  endfacet
  facet normal 0.22835005007579035 0.9735790952102372 0
    outer loop
      vertex 84.24935223162174 29.80490779131651 0
      vertex 84.24935223162174 29.80490779131651 4
      vertex 86.04938271641731 29.382716052234173 4
    endloop
  endfacet
  facet normal 0.4527374770657474 0.8916438621221714 0
    outer loop
      vertex 86.04938271641731 29.382716052234173 0
      vertex 86.04938271641731 29.382716052234173 4
      vertex 87.52324340492487 28.634354516863823 4
    endloop
  endfacet
  facet normal 0.9966218746103706 0.08212696906687168 0
    outer loop
      vertex 89.80490779131651 24.249352231621742 0
      vertex 89.80490779131651 24.249352231621742 4
      vertex 89.97408931702375 22.19631154090166 4
    endloop
  endfacet
  facet normal 0.9735790952102372 0.22835005007579035 0
    outer loop
      vertex 89.38271605223417 26.049382716417313 0
      vertex 89.38271605223417 26.049382716417313 4
      vertex 89.80490779131651 24.249352231621742 4
    endloop
  endfacet
  facet normal 0.8916438621221714 0.4527374770657474 0
    outer loop
      vertex 88.63435451686382 27.52324340492487 0
      vertex 88.63435451686382 27.52324340492487 4
      vertex 89.38271605223417 26.049382716417313 4
    endloop
  endfacet
  facet normal 0.7071067811865476 0.7071067811865476 0
    outer loop
      vertex 87.52324340492487 28.634354516863823 0
      vertex 87.52324340492487 28.634354516863823 4
      vertex 88.63435451686382 27.52324340492487 4
    endloop
  endfacet
  facet normal 0 0 1
    outer loop
      vertex 89.80490779131651 24.249352231621742 4
      vertex 89.38271605223417 26.049382716417313 4
      vertex 50 20 4
    endloop
  endfacet
  facet normal 0 0 1
    outer loop
      vertex 89.38271605223417 26.049382716417313 4
      vertex 88.63435451686382 27.52324340492487 4
      vertex 50.025910682976246 22.19631154090166 4
    endloop
  endfacet
  facet normal 0 0 1
    outer loop
      vertex 88.63435451686382 27.52324340492487 4
      vertex 87.52324340492487 28.634354516863823 4
      vertex 50.19509220868349 24.249352231621742 4
    endloop
  endfacet
  facet normal 0 0 1
    outer loop
      vertex 87.52324340492487 28.634354516863823 4
      vertex 86.04938271641731 29.382716052234173 4
      vertex 50.61728394776583 26.049382716417313 4
    endloop
  endfacet
  facet normal 0 0 1
    outer loop
      vertex 86.04938271641731 29.382716052234173 4
      vertex 84.24935223162174 29.80490779131651 4
      vertex 51.36564548313618 27.52324340492487 4
    endloop
  endfacet
  facet normal 0 0 1
    outer loop
      vertex 82.19631154090166 29.974089317023754 4
      vertex 80 30 4
      vertex 53.95061728358269 29.382716052234173 4
    endloop
  endfacet
  facet normal 0 0 1
    outer loop
      vertex 84.24935223162174 29.80490779131651 4
      vertex 82.19631154090166 29.974089317023754 4
      vertex 52.47675659507513 28.634354516863823 4
    endloop
  endfacet
  facet normal -0.7071067811865475 -0.7071067811865475 0
    outer loop
      vertex 108 0 0
      vertex 100 8 4
      vertex 100 8 0
    endloop
  endfacet
  facet normal 0 0 -1
    outer loop
      vertex 132 0 0
      vertex 108 0 0
      vertex 140 22 0
    endloop
  endfacet
  facet normal 0 -1 0
    outer loop
      vertex 132 0 0
      vertex 108 0 4
      vertex 108 0 0
    endloop
  endfacet
  facet normal 0.7071067811865475 -0.7071067811865475 0
    outer loop
      vertex 140 8 0
      vertex 132 0 4
      vertex 132 0 0
    endloop
  endfacet
  facet normal 0 0 -1
    outer loop
      vertex 108 0 0
      vertex 100 8 0
      vertex 132 30 0
    endloop
  endfacet
  facet normal 0 0 -1
    outer loop
      vertex 132 0 0
      vertex 140 22 0
      vertex 140 8 0
    endloop
  endfacet
  facet normal 1 0 0
    outer loop
      vertex 140 22 0
      vertex 140 8 4
      vertex 140 8 0
    endloop
  endfacet
  facet normal -1 0 0
    outer loop
      vertex 100 8 0
      vertex 100 8 4
      vertex 100 22 4
    endloop
  endfacet
  facet normal -0.7071067811865475 -0.7071067811865475 0
    outer loop
      vertex 108 0 0
      vertex 108 0 4
      vertex 100 8 4
    endloop
  endfacet
  facet normal 0 -1 0
    outer loop
      vertex 132 0 0
      vertex 132 0 4
      vertex 108 0 4
    endloop
  endfacet
  facet normal 0.7071067811865475 -0.7071067811865475 0
    outer loop
      vertex 140 8 0
      vertex 140 8 4
      vertex 132 0 4
    endloop
  endfacet
  facet normal 0 0 1
    outer loop
      vertex 140 22 4
      vertex 108 0 4
      vertex 132 0 4
    endloop
  endfacet
  facet normal 0 0 1
    outer loop
      vertex 132 30 4
      vertex 100 8 4
      vertex 108 0 4
    endloop
  endfacet
  facet normal 0 0 1
    outer loop
      vertex 140 8 4
      vertex 140 22 4
      vertex 132 0 4
    endloop
  endfacet
  facet normal 0 0 -1
    outer loop
      vertex 100 8 0
      vertex 100 22 0
      vertex 108 30 0
    endloop
  endfacet
  facet normal -1 0 0
    outer loop
      vertex 100 8 0
      vertex 100 22 4
      vertex 100 22 0
    endloop
  endfacet
  facet normal 0 0 -1
    outer loop
      vertex 108 0 0
      vertex 132 30 0
      vertex 140 22 0
    endloop
  endfacet
  facet normal 0 0 -1
    outer loop
      vertex 100 8 0
      vertex 108 30 0
      vertex 132 30 0
    endloop
  endfacet
  facet normal -0.7071067811865475 0.7071067811865475 0
    outer loop
      vertex 100 22 0
      vertex 108 30 4
      vertex 108 30 0
    endloop
  endfacet
  facet normal 0.7071067811865475 0.7071067811865475 0
    outer loop
      vertex 132 30 0
      vertex 140 22 4
      vertex 140 22 0
    endloop
  endfacet
  facet normal 0 1 0
    outer loop
      vertex 108 30 0
      vertex 132 30 4
      vertex 132 30 0
    endloop
  endfacet
  facet normal 0 0 1
    outer loop
      vertex 108 30 4
      vertex 100 22 4
      vertex 100 8 4
    endloop
  endfacet
  facet normal -0.7071067811865475 0.7071067811865475 0
    outer loop
      vertex 100 22 0
      vertex 100 22 4
      vertex 108 30 4
    endloop
  endfacet
  facet normal 1 0 0
    outer loop
      vertex 140 22 0
      vertex 140 22 4
      vertex 140 8 4
    endloop
  endfacet
  facet normal 0 0 1
    outer loop
      vertex 140 22 4
      vertex 132 30 4
      vertex 108 0 4
    endloop
  endfacet
  facet normal 0 1 0
    outer loop
      vertex 108 30 0
      vertex 108 30 4
      vertex 132 30 4
    endloop
  endfacet
  facet normal 0.7071067811865475 0.7071067811865475 0
    outer loop
      vertex 132 30 0
      vertex 132 30 4
      vertex 140 22 4
    endloop
  endfacet
  facet normal 0 0 1
    outer loop
      vertex 132 30 4
      vertex 108 30 4
      vertex 100 8 4
    endloop
  endfacet
endsolid PythonSCAD_Model
