solid PythonSCAD_Model
  facet normal 0.7036720297733445 -0.6433531508171818 -0.30156657282972493
    outer loop
      vertex 3.663822868754887 1.8901830276683416 -1.7330926427353068
      vertex 4.601181995875751 1.875739140372119 0.4849447005065073
      vertex -0.33562169140351195 -4.1089838125692575 1.7330926427353068
    endloop
  endfacet
  facet normal 0.7494232065855001 -0.5376021924575365 0.3864566471105868
    outer loop
      vertex -0.694808973240621 -3.0697022652550516 3.8753855211884094
      vertex -0.33562169140351195 -4.1089838125692575 1.7330926427353068
      vertex 4.601181995875751 1.875739140372119 0.4849447005065073
    endloop
  endfacet
  facet normal 0.4593590755606884 0.6890386133410329 -0.5605488640833164
    outer loop
      vertex 0.33562169140351195 4.1089838125692575 -1.7330926427353068
      vertex 1.7614756399072875 4.669702265255052 0.12461447881159082
      vertex 3.663822868754887 1.8901830276683416 -1.7330926427353068
    endloop
  endfacet
  facet normal 0.6900512993429568 0.6642972499904226 -0.2872949145569043
    outer loop
      vertex 4.601181995875751 1.875739140372119 0.4849447005065073
      vertex 3.663822868754887 1.8901830276683416 -1.7330926427353068
      vertex 1.7614756399072875 4.669702265255052 0.12461447881159082
    endloop
  endfacet
  facet normal -0.8645075352825312 0.4020998925534017 -0.301566572829725
    outer loop
      vertex -3.663822868754887 -1.8901830276683416 1.7330926427353068
      vertex -3.5345153292090847 -0.2757391403721189 3.5150552994934925
      vertex 0.33562169140351195 4.1089838125692575 -1.7330926427353068
    endloop
  endfacet
  facet normal -0.5885877010763134 0.7788554507213163 0.2166764985488627
    outer loop
      vertex 1.7614756399072875 4.669702265255052 0.12461447881159082
      vertex 0.33562169140351195 4.1089838125692575 -1.7330926427353068
      vertex -3.5345153292090847 -0.2757391403721189 3.5150552994934925
    endloop
  endfacet
  facet normal -0.529729183256307 -0.7945937748844608 0.2966609602247465
    outer loop
      vertex -0.33562169140351195 -4.1089838125692575 1.7330926427353068
      vertex -0.694808973240621 -3.0697022652550516 3.8753855211884094
      vertex -3.663822868754887 -1.8901830276683416 1.7330926427353068
    endloop
  endfacet
  facet normal -0.619681191647338 -0.5587420884469945 0.5511828184154746
    outer loop
      vertex -3.5345153292090847 -0.2757391403721189 3.5150552994934925
      vertex -3.663822868754887 -1.8901830276683416 1.7330926427353068
      vertex -0.694808973240621 -3.0697022652550516 3.8753855211884094
    endloop
  endfacet
  facet normal 0.5885877010763138 -0.7788554507213165 -0.21667649854886253
    outer loop
      vertex 4.601181995875751 1.875739140372119 0.4849447005065073
      vertex 5.360756616739952 1.814280290672529 2.7691972303781123
      vertex -0.694808973240621 -3.0697022652550516 3.8753855211884094
    endloop
  endfacet
  facet normal 0.6051001293117202 -0.6443367343258936 0.46763661779760407
    outer loop
      vertex -1.0003205429998119 -1.8612961600575464 5.935715053267414
      vertex -0.694808973240621 -3.0697022652550516 3.8753855211884094
      vertex 5.360756616739952 1.814280290672529 2.7691972303781123
    endloop
  endfacet
  facet normal 0.619681191647338 0.5587420884469944 -0.5511828184154749
    outer loop
      vertex 1.7614756399072875 4.669702265255052 0.12461447881159082
      vertex 3.1336538763331454 5.061296160057547 2.0642849467325863
      vertex 4.601181995875751 1.875739140372119 0.4849447005065073
    endloop
  endfacet
  facet normal 0.8217526181045793 0.5072743811545875 -0.25960611869233646
    outer loop
      vertex 5.360756616739952 1.814280290672529 2.7691972303781123
      vertex 4.601181995875751 1.875739140372119 0.4849447005065073
      vertex 3.1336538763331454 5.061296160057547 2.0642849467325863
    endloop
  endfacet
  facet normal -0.7494232065855001 0.5376021924575365 -0.38645664711058675
    outer loop
      vertex -3.5345153292090847 -0.2757391403721189 3.5150552994934925
      vertex -3.227423283406619 1.3857197093274716 5.230802769621888
      vertex 1.7614756399072875 4.669702265255052 0.12461447881159082
    endloop
  endfacet
  facet normal -0.4442646238025338 0.8855899925896733 0.13549652786184485
    outer loop
      vertex 3.1336538763331454 5.061296160057547 2.0642849467325863
      vertex 1.7614756399072875 4.669702265255052 0.12461447881159082
      vertex -3.227423283406619 1.3857197093274716 5.230802769621888
    endloop
  endfacet
  facet normal -0.6900512993429568 -0.6642972499904226 0.28729491455690426
    outer loop
      vertex -0.694808973240621 -3.0697022652550516 3.8753855211884094
      vertex -1.0003205429998119 -1.8612961600575464 5.935715053267414
      vertex -3.5345153292090847 -0.2757391403721189 3.5150552994934925
    endloop
  endfacet
  facet normal -0.7513825104089606 -0.4017192196111597 0.5234940225509064
    outer loop
      vertex -3.227423283406619 1.3857197093274716 5.230802769621888
      vertex -3.5345153292090847 -0.2757391403721189 3.5150552994934925
      vertex -1.0003205429998119 -1.8612961600575464 5.935715053267414
    endloop
  endfacet
  facet normal 0.4442646238025336 -0.8855899925896731 -0.13549652786184513
    outer loop
      vertex 5.360756616739952 1.814280290672529 2.7691972303781123
      vertex 5.932658901456245 1.743456364039634 5.107241747329149
      vertex -1.0003205429998119 -1.8612961600575464 5.935715053267414
    endloop
  endfacet
  facet normal 0.43784591447701604 -0.7176387065096697 0.5415585306270357
    outer loop
      vertex -1.2154948531915053 -0.5016148035237946 7.911444548927254
      vertex -1.0003205429998119 -1.8612961600575464 5.935715053267414
      vertex 5.932658901456245 1.743456364039634 5.107241747329149
    endloop
  endfacet
  facet normal 0.7513825104089608 0.4017192196111596 -0.5234940225509065
    outer loop
      vertex 3.1336538763331454 5.061296160057547 2.0642849467325863
      vertex 4.415494853191506 5.301614803523796 4.0885554510727475
      vertex 5.360756616739952 1.814280290672529 2.7691972303781123
    endloop
  endfacet
  facet normal 0.9190771599382481 0.3303878212244039 -0.2148047058759079
    outer loop
      vertex 5.932658901456245 1.743456364039634 5.107241747329149
      vertex 5.360756616739952 1.814280290672529 2.7691972303781123
      vertex 4.415494853191506 5.301614803523796 4.0885554510727475
    endloop
  endfacet
  facet normal -0.6051001293117202 0.6443367343258936 -0.46763661779760396
    outer loop
      vertex -3.227423283406619 1.3857197093274716 5.230802769621888
      vertex -2.7326589014562437 3.0565436359603675 6.892758252670853
      vertex 3.1336538763331454 5.061296160057547 2.0642849467325863
    endloop
  endfacet
  facet normal -0.27701040896782936 0.9588919647734492 0.06157461503241362
    outer loop
      vertex 4.415494853191506 5.301614803523796 4.0885554510727475
      vertex 3.1336538763331454 5.061296160057547 2.0642849467325863
      vertex -2.7326589014562437 3.0565436359603675 6.892758252670853
    endloop
  endfacet
  facet normal -0.8217526181045793 -0.5072743811545878 0.25960611869233646
    outer loop
      vertex -1.0003205429998119 -1.8612961600575464 5.935715053267414
      vertex -1.2154948531915053 -0.5016148035237946 7.911444548927254
      vertex -3.227423283406619 1.3857197093274716 5.230802769621888
    endloop
  endfacet
  facet normal -0.8487070522426293 -0.22483265968097554 0.47869260973447825
    outer loop
      vertex -2.7326589014562437 3.0565436359603675 6.892758252670853
      vertex -3.227423283406619 1.3857197093274716 5.230802769621888
      vertex -1.2154948531915053 -0.5016148035237946 7.911444548927254
    endloop
  endfacet
  facet normal 0.2770104089678295 -0.9588919647734493 -0.061574615032413446
    outer loop
      vertex 5.932658901456245 1.743456364039634 5.107241747329149
      vertex 6.31520320177483 1.7013265447441088 7.484304083851291
      vertex -1.2154948531915053 -0.5016148035237946 7.911444548927254
    endloop
  endfacet
  facet normal 0.2549703738444313 -0.7543044610825455 0.6049916432915429
    outer loop
      vertex -1.3076185280554866 0.9848810434165616 9.803634745670394
      vertex -1.2154948531915053 -0.5016148035237946 7.911444548927254
      vertex 6.31520320177483 1.7013265447441088 7.484304083851291
    endloop
  endfacet
  facet normal 0.8487070522426294 0.22483265968097593 -0.47869260973447775
    outer loop
      vertex 4.415494853191506 5.301614803523796 4.0885554510727475
      vertex 5.574285194722153 5.41511895658344 6.1963652543296055
      vertex 5.932658901456245 1.743456364039634 5.107241747329149
    endloop
  endfacet
  facet normal 0.9777713753508653 0.14136836166470748 -0.15484871282872664
    outer loop
      vertex 6.31520320177483 1.7013265447441088 7.484304083851291
      vertex 5.932658901456245 1.743456364039634 5.107241747329149
      vertex 5.574285194722153 5.41511895658344 6.1963652543296055
    endloop
  endfacet
  facet normal -0.437845914477016 0.7176387065096695 -0.5415585306270359
    outer loop
      vertex -2.7326589014562437 3.0565436359603675 6.892758252670853
      vertex -2.048536535108164 4.698673455255893 8.51569591614871
      vertex 4.415494853191506 5.301614803523796 4.0885554510727475
    endloop
  endfacet
  facet normal -0.0941348683352446 0.9955577193463258 -0.0018584976320927579
    outer loop
      vertex 5.574285194722153 5.41511895658344 6.1963652543296055
      vertex 4.415494853191506 5.301614803523796 4.0885554510727475
      vertex -2.048536535108164 4.698673455255893 8.51569591614871
    endloop
  endfacet
  facet normal -0.9190771599382482 -0.33038782122440374 0.214804705875908
    outer loop
      vertex -1.2154948531915053 -0.5016148035237946 7.911444548927254
      vertex -1.3076185280554866 0.9848810434165616 9.803634745670394
      vertex -2.7326589014562437 3.0565436359603675 6.892758252670853
    endloop
  endfacet
  facet normal -0.9074012676552468 -0.03581320012127931 0.4187366166872975
    outer loop
      vertex -2.048536535108164 4.698673455255893 8.51569591614871
      vertex -2.7326589014562437 3.0565436359603675 6.892758252670853
      vertex -1.3076185280554866 0.9848810434165616 9.803634745670394
    endloop
  endfacet
  facet normal 0.09413486833524469 -0.9955577193463258 0.001858497632092816
    outer loop
      vertex 6.31520320177483 1.7013265447441088 7.484304083851291
      vertex 6.514979722004515 1.724695946876381 9.883904806492689
      vertex -1.3076185280554866 0.9848810434165616 9.803634745670394
    endloop
  endfacet
  facet normal 0.06446604607381463 -0.7527315286278774 0.6551636243818393
    outer loop
      vertex -1.2493560950578209 2.568188218079672 11.616997449227995
      vertex -1.3076185280554866 0.9848810434165616 9.803634745670394
      vertex 6.514979722004515 1.724695946876381 9.883904806492689
    endloop
  endfacet
  facet normal 0.9074012676552466 0.03581320012127909 -0.4187366166872974
    outer loop
      vertex 5.574285194722153 5.41511895658344 6.1963652543296055
      vertex 6.582689428391155 5.43181178192033 8.383002550772005
      vertex 6.31520320177483 1.7013265447441088 7.484304083851291
    endloop
  endfacet
  facet normal 0.9952700454828063 -0.051522940125744605 -0.08235850414773103
    outer loop
      vertex 6.514979722004515 1.724695946876381 9.883904806492689
      vertex 6.31520320177483 1.7013265447441088 7.484304083851291
      vertex 6.582689428391155 5.43181178192033 8.383002550772005
    endloop
  endfacet
  facet normal -0.25497037384443133 0.7543044610825458 -0.6049916432915428
    outer loop
      vertex -2.048536535108164 4.698673455255893 8.51569591614871
      vertex -1.1816463886711812 6.275304053123621 10.116095193507311
      vertex 5.574285194722153 5.41511895658344 6.1963652543296055
    endloop
  endfacet
  facet normal 0.09636945943537184 0.9939847868916573 -0.05203047872239001
    outer loop
      vertex 6.582689428391155 5.43181178192033 8.383002550772005
      vertex 5.574285194722153 5.41511895658344 6.1963652543296055
      vertex -1.1816463886711812 6.275304053123621 10.116095193507311
    endloop
  endfacet
  facet normal -0.9777713753508654 -0.14136836166470726 0.15484871282872736
    outer loop
      vertex -1.3076185280554866 0.9848810434165616 9.803634745670394
      vertex -1.2493560950578209 2.568188218079672 11.616997449227995
      vertex -2.048536535108164 4.698673455255893 8.51569591614871
    endloop
  endfacet
  facet normal -0.9248999377871874 0.1570781016691726 0.34624640800630113
    outer loop
      vertex -1.1816463886711812 6.275304053123621 10.116095193507311
      vertex -2.048536535108164 4.698673455255893 8.51569591614871
      vertex -1.2493560950578209 2.568188218079672 11.616997449227995
    endloop
  endfacet
  facet normal -0.09636945943537173 -0.9939847868916573 0.052030478722390194
    outer loop
      vertex 6.514979722004515 1.724695946876381 9.883904806492689
      vertex 6.546566495461098 1.8475070542503493 12.288579446176904
      vertex -1.2493560950578209 2.568188218079672 11.616997449227995
    endloop
  endfacet
  facet normal -0.1253411155700707 -0.7129886538417002 0.6898817175724041
    outer loop
      vertex -1.0199446762107383 4.214072438207911 13.359689605039701
      vertex -1.2493560950578209 2.568188218079672 11.616997449227995
      vertex 6.546566495461098 1.8475070542503493 12.288579446176904
    endloop
  endfacet
  facet normal 0.9248999377871875 -0.15707810166917258 -0.3462464080063009
    outer loop
      vertex 6.582689428391155 5.43181178192033 8.383002550772005
      vertex 7.41994467621074 5.3859275617920925 10.640310394960302
      vertex 6.514979722004515 1.724695946876381 9.883904806492689
    endloop
  endfacet
  facet normal 0.9708083944813694 -0.23985580866354972 -0.0005022497988923648
    outer loop
      vertex 6.546566495461098 1.8475070542503493 12.288579446176904
      vertex 6.514979722004515 1.724695946876381 9.883904806492689
      vertex 7.41994467621074 5.3859275617920925 10.640310394960302
    endloop
  endfacet
  facet normal -0.06446604607381448 0.7527315286278776 -0.6551636243818388
    outer loop
      vertex -1.1816463886711812 6.275304053123621 10.116095193507311
      vertex -0.14656649546109657 7.752492945749654 11.7114205538231
      vertex 6.582689428391155 5.43181178192033 8.383002550772005
    endloop
  endfacet
  facet normal 0.286176621079257 0.9542419121054798 -0.08674857191295539
    outer loop
      vertex 7.41994467621074 5.3859275617920925 10.640310394960302
      vertex 6.582689428391155 5.43181178192033 8.383002550772005
      vertex -0.14656649546109657 7.752492945749654 11.7114205538231
    endloop
  endfacet
  facet normal -0.9952700454828063 0.05152294012574446 0.08235850414773069
    outer loop
      vertex -1.2493560950578209 2.568188218079672 11.616997449227995
      vertex -1.0199446762107383 4.214072438207911 13.359689605039701
      vertex -1.1816463886711812 6.275304053123621 10.116095193507311
    endloop
  endfacet
  facet normal -0.9004382867857508 0.3454109702069777 0.26439015365746216
    outer loop
      vertex -0.14656649546109657 7.752492945749654 11.7114205538231
      vertex -1.1816463886711812 6.275304053123621 10.116095193507311
      vertex -1.0199446762107383 4.214072438207911 13.359689605039701
    endloop
  endfacet
  facet normal -0.28617662107925707 -0.9542419121054798 0.08674857191295479
    outer loop
      vertex 6.546566495461098 1.8475070542503493 12.288579446176904
      vertex 6.43189225445831 2.099356270986604 14.680641779305365
      vertex -1.0199446762107383 4.214072438207911 13.359689605039701
    endloop
  endfacet
  facet normal -0.306155627327574 -0.6368127910596415 0.7076285755949157
    outer loop
      vertex -0.6061014254720396 5.885564504378847 15.042956800596562
      vertex -1.0199446762107383 4.214072438207911 13.359689605039701
      vertex 6.43189225445831 2.099356270986604 14.680641779305365
    endloop
  endfacet
  facet normal 0.9004382867857508 -0.34541097020697753 -0.26439015365746193
    outer loop
      vertex 7.41994467621074 5.3859275617920925 10.640310394960302
      vertex 8.072768092138705 5.314435495621156 12.957043199403438
      vertex 6.546566495461098 1.8475070542503493 12.288579446176904
    endloop
  endfacet
  facet normal 0.9054555138753423 -0.4153991938722362 0.087142539112857
    outer loop
      vertex 6.43189225445831 2.099356270986604 14.680641779305365
      vertex 6.546566495461098 1.8475070542503493 12.288579446176904
      vertex 8.072768092138705 5.314435495621156 12.957043199403438
    endloop
  endfacet
  facet normal 0.12534111557007052 0.7129886538416998 -0.6898817175724046
    outer loop
      vertex -0.14656649546109657 7.752492945749654 11.7114205538231
      vertex 1.0347744122083569 9.100643729013399 13.319358220694635
      vertex 7.41994467621074 5.3859275617920925 10.640310394960302
    endloop
  endfacet
  facet normal 0.4669911328367608 0.8780660493234215 -0.1044954299354653
    outer loop
      vertex 8.072768092138705 5.314435495621156 12.957043199403438
      vertex 7.41994467621074 5.3859275617920925 10.640310394960302
      vertex 1.0347744122083569 9.100643729013399 13.319358220694635
    endloop
  endfacet
  facet normal -0.9708083944813696 0.23985580866354955 0.0005022497988918814
    outer loop
      vertex -1.0199446762107383 4.214072438207911 13.359689605039701
      vertex -0.6061014254720396 5.885564504378847 15.042956800596562
      vertex -0.14656649546109657 7.752492945749654 11.7114205538231
    endloop
  endfacet
  facet normal -0.8350854061797236 0.5209543554156646 0.17674536474571356
    outer loop
      vertex 1.0347744122083569 9.100643729013399 13.319358220694635
      vertex -0.14656649546109657 7.752492945749654 11.7114205538231
      vertex -0.6061014254720396 5.885564504378847 15.042956800596562
    endloop
  endfacet
  facet normal -0.46699113283676075 -0.8780660493234215 0.10449542993546594
    outer loop
      vertex 6.43189225445831 2.099356270986604 14.680641779305365
      vertex 6.199278039479975 2.5042004166330596 17.04295680059656
      vertex -0.6061014254720396 5.885564504378847 15.042956800596562
    endloop
  endfacet
  facet normal -0.470075027390602 -0.5275331910176229 0.7076285755949154
    outer loop
      vertex -0.0026040528553066267 7.544576031417903 16.680641779305365
      vertex -0.6061014254720396 5.885564504378847 15.042956800596562
      vertex 6.199278039479975 2.5042004166330596 17.04295680059656
    endloop
  endfacet
  facet normal 0.8350854061797238 -0.5209543554156646 -0.1767453647457135
    outer loop
      vertex 8.072768092138705 5.314435495621156 12.957043199403438
      vertex 8.535937386188639 5.255423968582099 15.319358220694635
      vertex 6.43189225445831 2.099356270986604 14.680641779305365
    endloop
  endfacet
  facet normal 0.8020676381451226 -0.5704810074675659 0.17674536474571367
    outer loop
      vertex 6.199278039479975 2.5042004166330596 17.04295680059656
      vertex 6.43189225445831 2.099356270986604 14.680641779305365
      vertex 8.535937386188639 5.255423968582099 15.319358220694635
    endloop
  endfacet
  facet normal 0.30615562732757406 0.6368127910596415 -0.7076285755949153
    outer loop
      vertex 1.0347744122083569 9.100643729013399 13.319358220694635
      vertex 2.334055293853358 10.295799583366943 14.957043199403438
      vertex 8.072768092138705 5.314435495621156 12.957043199403438
    endloop
  endfacet
  facet normal 0.6309105328997886 0.7687864492814028 -0.10449542993546573
    outer loop
      vertex 8.535937386188639 5.255423968582099 15.319358220694635
      vertex 8.072768092138705 5.314435495621156 12.957043199403438
      vertex 2.334055293853358 10.295799583366943 14.957043199403438
    endloop
  endfacet
  facet normal -0.9054555138753422 0.41539919387223656 -0.08714253911285649
    outer loop
      vertex -0.6061014254720396 5.885564504378847 15.042956800596562
      vertex -0.0026040528553066267 7.544576031417903 16.680641779305365
      vertex 1.0347744122083569 9.100643729013399 13.319358220694635
    endloop
  endfacet
  facet normal -0.7316975304495039 0.6760361690109942 0.08714253911285667
    outer loop
      vertex 2.334055293853358 10.295799583366943 14.957043199403438
      vertex 1.0347744122083569 9.100643729013399 13.319358220694635
      vertex -0.0026040528553066267 7.544576031417903 16.680641779305365
    endloop
  endfacet
  facet normal -0.6309105328997885 -0.7687864492814028 0.10449542993546547
    outer loop
      vertex 6.199278039479975 2.5042004166330596 17.04295680059656
      vertex 5.882199433811432 3.0793096981931303 19.3596896050397
      vertex -0.0026040528553066267 7.544576031417903 16.680641779305365
    endloop
  endfacet
  facet normal -0.6099352514038501 -0.3899258966191812 0.6898817175724037
    outer loop
      vertex 0.7874809364383601 9.153564093598838 18.288579446176904
      vertex -0.0026040528553066267 7.544576031417903 16.680641779305365
      vertex 5.882199433811432 3.0793096981931303 19.3596896050397
    endloop
  endfacet
  facet normal 0.7316975304495039 -0.6760361690109941 -0.08714253911285695
    outer loop
      vertex 8.535937386188639 5.255423968582099 15.319358220694635
      vertex 8.81251906356164 5.246435906401163 17.711420553823096
      vertex 6.199278039479975 2.5042004166330596 17.04295680059656
    endloop
  endfacet
  facet normal 0.6651633135701916 -0.6983234300303168 0.26439015365746166
    outer loop
      vertex 5.882199433811432 3.0793096981931303 19.3596896050397
      vertex 6.199278039479975 2.5042004166330596 17.04295680059656
      vertex 8.81251906356164 5.246435906401163 17.711420553823096
    endloop
  endfacet
  facet normal 0.47007502739060203 0.5275331910176227 -0.7076285755949157
    outer loop
      vertex 2.334055293853358 10.295799583366943 14.957043199403438
      vertex 3.7178005661885676 11.320690301806872 16.6403103949603
      vertex 8.535937386188639 5.255423968582099 15.319358220694635
    endloop
  endfacet
  facet normal 0.7707707569130363 0.6311791548829604 -0.08674857191295529
    outer loop
      vertex 8.81251906356164 5.246435906401163 17.711420553823096
      vertex 8.535937386188639 5.255423968582099 15.319358220694635
      vertex 3.7178005661885676 11.320690301806872 16.6403103949603
    endloop
  endfacet
  facet normal -0.8020676381451227 0.5704810074675662 -0.17674536474571317
    outer loop
      vertex -0.0026040528553066267 7.544576031417903 16.680641779305365
      vertex 0.7874809364383601 9.153564093598838 18.288579446176904
      vertex 2.334055293853358 10.295799583366943 14.957043199403438
    endloop
  endfacet
  facet normal -0.594793205874573 0.8038785915737446 -0.000502249798892079
    outer loop
      vertex 3.7178005661885676 11.320690301806872 16.6403103949603
      vertex 2.334055293853358 10.295799583366943 14.957043199403438
      vertex 0.7874809364383601 9.153564093598838 18.288579446176904
    endloop
  endfacet
  facet normal -0.7707707569130362 -0.6311791548829604 0.08674857191295564
    outer loop
      vertex 5.882199433811432 3.0793096981931303 19.3596896050397
      vertex 5.517823519916296 3.8345129192080405 21.616997449227995
      vertex 0.7874809364383601 9.153564093598838 18.288579446176904
    endloop
  endfacet
  facet normal -0.7196237364541227 -0.23000500694258486 0.6551636243818403
    outer loop
      vertex 1.752932263012358 10.677172030648931 19.883904806492687
      vertex 0.7874809364383601 9.153564093598838 18.288579446176904
      vertex 5.517823519916296 3.8345129192080405 21.616997449227995
    endloop
  endfacet
  facet normal 0.5947932058745727 -0.803878591573745 0.0005022497988917907
    outer loop
      vertex 8.81251906356164 5.246435906401163 17.711420553823096
      vertex 8.91373440365431 5.3228279693510725 20.116095193507313
      vertex 5.882199433811432 3.0793096981931303 19.3596896050397
    endloop
  endfacet
  facet normal 0.5007259160743083 -0.7933391342384911 0.3462464080063013
    outer loop
      vertex 5.517823519916296 3.8345129192080405 21.616997449227995
      vertex 5.882199433811432 3.0793096981931303 19.3596896050397
      vertex 8.91373440365431 5.3228279693510725 20.116095193507313
    endloop
  endfacet
  facet normal 0.6099352514038497 0.38992589661918087 -0.689881717572404
    outer loop
      vertex 3.7178005661885676 11.320690301806872 16.6403103949603
      vertex 5.148843146750372 12.165487080791962 18.383002550772005
      vertex 8.81251906356164 5.246435906401163 17.711420553823096
    endloop
  endfacet
  facet normal 0.8804592419633098 0.47125826520636527 -0.05203047872239018
    outer loop
      vertex 8.91373440365431 5.3228279693510725 20.116095193507313
      vertex 8.81251906356164 5.246435906401163 17.711420553823096
      vertex 5.148843146750372 12.165487080791962 18.383002550772005
    endloop
  endfacet
  facet normal -0.6651633135701919 0.6983234300303163 -0.2643901536574627
    outer loop
      vertex 0.7874809364383601 9.153564093598838 18.288579446176904
      vertex 1.752932263012358 10.677172030648931 19.883904806492687
      vertex 3.7178005661885676 11.320690301806872 16.6403103949603
    endloop
  endfacet
  facet normal -0.43035580837868925 0.8988942957819196 -0.08235850414773045
    outer loop
      vertex 5.148843146750372 12.165487080791962 18.383002550772005
      vertex 3.7178005661885676 11.320690301806872 16.6403103949603
      vertex 1.752932263012358 10.677172030648931 19.883904806492687
    endloop
  endfacet
  facet normal -0.8804592419633097 -0.47125826520636527 0.05203047872238988
    outer loop
      vertex 5.517823519916296 3.8345129192080405 21.616997449227995
      vertex 5.145384499585347 4.7717679138782305 23.803634745670394
      vertex 1.752932263012358 10.677172030648931 19.883904806492687
    endloop
  endfacet
  facet normal -0.7943465694009779 -0.054759832252274036 0.604991643291542
    outer loop
      vertex 2.8748642970298826 12.083774703462964 21.484304083851292
      vertex 1.752932263012358 10.677172030648931 19.883904806492687
      vertex 5.145384499585347 4.7717679138782305 23.803634745670394
    endloop
  endfacet
  facet normal 0.4303558083786897 -0.8988942957819193 0.08235850414773109
    outer loop
      vertex 8.91373440365431 5.3228279693510725 20.116095193507313
      vertex 8.858469036303452 5.516225296537041 22.515695916148708
      vertex 5.517823519916296 3.8345129192080405 21.616997449227995
    endloop
  endfacet
  facet normal 0.3159421489862219 -0.8513754778822581 0.4187366166872975
    outer loop
      vertex 5.145384499585347 4.7717679138782305 23.803634745670394
      vertex 5.517823519916296 3.8345129192080405 21.616997449227995
      vertex 8.858469036303452 5.516225296537041 22.515695916148708
    endloop
  endfacet
  facet normal 0.7196237364541231 0.2300050069425855 -0.6551636243818393
    outer loop
      vertex 5.148843146750372 12.165487080791962 18.383002550772005
      vertex 6.587948833747987 12.828232086121774 20.196365254329606
      vertex 8.91373440365431 5.3228279693510725 20.116095193507313
    endloop
  endfacet
  facet normal 0.9551820749101642 0.29601309051605346 -0.0018584976320931978
    outer loop
      vertex 8.858469036303452 5.516225296537041 22.515695916148708
      vertex 8.91373440365431 5.3228279693510725 20.116095193507313
      vertex 6.587948833747987 12.828232086121774 20.196365254329606
    endloop
  endfacet
  facet normal -0.500725916074308 0.7933391342384916 -0.3462464080063009
    outer loop
      vertex 1.752932263012358 10.677172030648931 19.883904806492687
      vertex 2.8748642970298826 12.083774703462964 21.484304083851292
      vertex 5.148843146750372 12.165487080791962 18.383002550772005
    endloop
  endfacet
  facet normal -0.24557204129060337 0.9569306394256861 -0.1548487128287279
    outer loop
      vertex 6.587948833747987 12.828232086121774 20.196365254329606
      vertex 5.148843146750372 12.165487080791962 18.383002550772005
      vertex 2.8748642970298826 12.083774703462964 21.484304083851292
    endloop
  endfacet
  facet normal -0.9551820749101642 -0.29601309051605357 0.001858497632092807
    outer loop
      vertex 5.145384499585347 4.7717679138782305 23.803634745670394
      vertex 4.804468971051692 5.885075980314077 25.911444548927257
      vertex 2.8748642970298826 12.083774703462964 21.484304083851292
    endloop
  endfacet
  facet normal -0.8308380038847013 0.12815057239814162 0.5415585306270354
    outer loop
      vertex 4.127552450861106 13.346860664436395 23.10724174732915
      vertex 2.8748642970298826 12.083774703462964 21.484304083851292
      vertex 4.804468971051692 5.885075980314077 25.911444548927257
    endloop
  endfacet
  facet normal 0.24557204129060303 -0.9569306394256863 0.1548487128287269
    outer loop
      vertex 8.858469036303452 5.516225296537041 22.515695916148708
      vertex 8.672447549138896 5.853139335563611 24.892758252670856
      vertex 5.145384499585347 4.7717679138782305 23.803634745670394
    endloop
  endfacet
  facet normal 0.118887949618572 -0.8698959942551105 0.47869260973447736
    outer loop
      vertex 4.804468971051692 5.885075980314077 25.911444548927257
      vertex 5.145384499585347 4.7717679138782305 23.803634745670394
      vertex 8.672447549138896 5.853139335563611 24.892758252670856
    endloop
  endfacet
  facet normal 0.7943465694009775 0.054759832252273793 -0.6049916432915423
    outer loop
      vertex 6.587948833747987 12.828232086121774 20.196365254329606
      vertex 7.99553102894831 13.314924019685929 22.08855545107275
      vertex 8.858469036303452 5.516225296537041 22.515695916148708
    endloop
  endfacet
  facet normal 0.9916735093938877 0.1131026858656379 0.061574615032413176
    outer loop
      vertex 8.672447549138896 5.853139335563611 24.892758252670856
      vertex 8.858469036303452 5.516225296537041 22.515695916148708
      vertex 7.99553102894831 13.314924019685929 22.08855545107275
    endloop
  endfacet
  facet normal -0.3159421489862218 0.8513754778822581 -0.41873661668729717
    outer loop
      vertex 2.8748642970298826 12.083774703462964 21.484304083851292
      vertex 4.127552450861106 13.346860664436395 23.10724174732915
      vertex 6.587948833747987 12.828232086121774 20.196365254329606
    endloop
  endfacet
  facet normal -0.04851784192295325 0.9754511557985382 -0.21480470587590775
    outer loop
      vertex 7.99553102894831 13.314924019685929 22.08855545107275
      vertex 6.587948833747987 12.828232086121774 20.196365254329606
      vertex 4.127552450861106 13.346860664436395 23.10724174732915
    endloop
  endfacet
  facet normal -0.9916735093938877 -0.11310268586563807 -0.06157461503241362
    outer loop
      vertex 4.804468971051692 5.885075980314077 25.911444548927257
      vertex 4.533285804690399 7.160744052593427 27.935715053267412
      vertex 4.127552450861106 13.346860664436395 23.10724174732915
    endloop
  endfacet
  facet normal -0.8275031891130245 0.31073214462393645 0.46763661779760496
    outer loop
      vertex 5.479557467002865 14.4461908349417 24.76919723037811
      vertex 4.127552450861106 13.346860664436395 23.10724174732915
      vertex 4.533285804690399 7.160744052593427 27.935715053267412
    endloop
  endfacet
  facet normal 0.048517841922953414 -0.9754511557985382 0.21480470587590753
    outer loop
      vertex 8.672447549138896 5.853139335563611 24.892758252670856
      vertex 8.387109199663803 6.353809165058305 27.23080276962189
      vertex 4.804468971051692 5.885075980314077 25.911444548927257
    endloop
  endfacet
  facet normal -0.08182446794531631 -0.8480912479202553 0.5234940225509073
    outer loop
      vertex 4.533285804690399 7.160744052593427 27.935715053267412
      vertex 4.804468971051692 5.885075980314077 25.911444548927257
      vertex 8.387109199663803 6.353809165058305 27.23080276962189
    endloop
  endfacet
  facet normal 0.8308380038847013 -0.12815057239814165 -0.5415585306270355
    outer loop
      vertex 7.99553102894831 13.314924019685929 22.08855545107275
      vertex 9.333380861976268 13.639255947406578 24.064284946732588
      vertex 8.672447549138896 5.853139335563611 24.892758252670856
    endloop
  endfacet
  facet normal 0.9883386946222112 -0.0694788863601562 0.13549652786184557
    outer loop
      vertex 8.387109199663803 6.353809165058305 27.23080276962189
      vertex 8.672447549138896 5.853139335563611 24.892758252670856
      vertex 9.333380861976268 13.639255947406578 24.064284946732588
    endloop
  endfacet
  facet normal -0.11888794961857219 0.8698959942551098 -0.4786926097344787
    outer loop
      vertex 4.127552450861106 13.346860664436395 23.10724174732915
      vertex 5.479557467002865 14.4461908349417 24.76919723037811
      vertex 7.99553102894831 13.314924019685929 22.08855545107275
    endloop
  endfacet
  facet normal 0.15219457564093483 0.9536464094636837 -0.2596061186923365
    outer loop
      vertex 9.333380861976268 13.639255947406578 24.064284946732588
      vertex 7.99553102894831 13.314924019685929 22.08855545107275
      vertex 5.479557467002865 14.4461908349417 24.76919723037811
    endloop
  endfacet
  facet normal -0.9883386946222114 0.06947888636015642 -0.13549652786184516
    outer loop
      vertex 4.533285804690399 7.160744052593427 27.935715053267412
      vertex 4.366996232036602 8.577983153449026 29.87538552118841
      vertex 5.479557467002865 14.4461908349417 24.76919723037811
    endloop
  endfacet
  facet normal -0.7844878724936877 0.4850051935952553 0.3864566471105867
    outer loop
      vertex 6.895099464493846 15.36868305018228 26.484944700506507
      vertex 5.479557467002865 14.4461908349417 24.76919723037811
      vertex 4.366996232036602 8.577983153449026 29.87538552118841
    endloop
  endfacet
  facet normal -0.15219457564093503 -0.9536464094636838 0.25960611869233663
    outer loop
      vertex 8.387109199663803 6.353809165058305 27.23080276962189
      vertex 8.038233868839487 7.031316949817725 29.515055299493493
      vertex 4.533285804690399 7.160744052593427 27.935715053267412
    endloop
  endfacet
  facet normal -0.27742300793286506 -0.7869142109233098 0.5511828184154745
    outer loop
      vertex 4.366996232036602 8.577983153449026 29.87538552118841
      vertex 4.533285804690399 7.160744052593427 27.935715053267412
      vertex 8.038233868839487 7.031316949817725 29.515055299493493
    endloop
  endfacet
  facet normal 0.8275031891130246 -0.3107321446239364 -0.4676366177976047
    outer loop
      vertex 9.333380861976268 13.639255947406578 24.064284946732588
      vertex 10.566337101296732 13.82201684655098 26.12461447881159
      vertex 8.387109199663803 6.353809165058305 27.23080276962189
    endloop
  endfacet
  facet normal 0.9453233780028742 -0.24375193533147532 0.21667649854886292
    outer loop
      vertex 8.038233868839487 7.031316949817725 29.515055299493493
      vertex 8.387109199663803 6.353809165058305 27.23080276962189
      vertex 10.566337101296732 13.82201684655098 26.12461447881159
    endloop
  endfacet
  facet normal 0.08182446794531632 0.8480912479202558 -0.5234940225509068
    outer loop
      vertex 5.479557467002865 14.4461908349417 24.76919723037811
      vertex 6.895099464493846 15.36868305018228 26.484944700506507
      vertex 9.333380861976268 13.639255947406578 24.064284946732588
    endloop
  endfacet
  facet normal 0.3477931156284837 0.8924693724667381 -0.2872949145569042
    outer loop
      vertex 10.566337101296732 13.82201684655098 26.12461447881159
      vertex 9.333380861976268 13.639255947406578 24.064284946732588
      vertex 6.895099464493846 15.36868305018228 26.484944700506507
    endloop
  endfacet
  facet normal -0.9453233780028741 0.24375193533147546 -0.21667649854886237
    outer loop
      vertex 4.366996232036602 8.577983153449026 29.87538552118841
      vertex 4.336177131245114 10.10981697233166 31.733092642735308
      vertex 6.895099464493846 15.36868305018228 26.484944700506507
    endloop
  endfacet
  facet normal -0.7036720297733444 0.6433531508171818 0.301566572829725
    outer loop
      vertex 8.335621691403512 16.10898381256926 28.266907357264692
      vertex 6.895099464493846 15.36868305018228 26.484944700506507
      vertex 4.336177131245114 10.10981697233166 31.733092642735308
    endloop
  endfacet
  facet normal -0.3477931156284838 -0.8924693724667382 0.2872949145569039
    outer loop
      vertex 8.038233868839487 7.031316949817725 29.515055299493493
      vertex 7.664378308596488 7.891016187430744 31.733092642735308
      vertex 4.366996232036602 8.577983153449026 29.87538552118841
    endloop
  endfacet
  facet normal -0.4593590755606887 -0.689038613341033 0.560548864083316
    outer loop
      vertex 4.336177131245114 10.10981697233166 31.733092642735308
      vertex 4.366996232036602 8.577983153449026 29.87538552118841
      vertex 7.664378308596488 7.891016187430744 31.733092642735308
    endloop
  endfacet
  facet normal 0.7844878724936875 -0.4850051935952554 -0.38645664711058697
    outer loop
      vertex 10.566337101296732 13.82201684655098 26.12461447881159
      vertex 11.663822868754886 13.890183027668343 28.266907357264692
      vertex 8.038233868839487 7.031316949817725 29.515055299493493
    endloop
  endfacet
  facet normal 0.8645075352825312 -0.4020998925534019 0.3015665728297247
    outer loop
      vertex 7.664378308596488 7.891016187430744 31.733092642735308
      vertex 8.038233868839487 7.031316949817725 29.515055299493493
      vertex 11.663822868754886 13.890183027668343 28.266907357264692
    endloop
  endfacet
  facet normal 0.27742300793286506 0.78691421092331 -0.5511828184154745
    outer loop
      vertex 6.895099464493846 15.36868305018228 26.484944700506507
      vertex 8.335621691403512 16.10898381256926 28.266907357264692
      vertex 10.566337101296732 13.82201684655098 26.12461447881159
    endloop
  endfacet
  facet normal 0.5297291832563075 0.7945937748844608 -0.29666096022474636
    outer loop
      vertex 11.663822868754886 13.890183027668343 28.266907357264692
      vertex 10.566337101296732 13.82201684655098 26.12461447881159
      vertex 8.335621691403512 16.10898381256926 28.266907357264692
    endloop
  endfacet
  facet normal -0.2403367072504439 -0.360505060875666 -0.9012626521891646
    outer loop
      vertex -3.663822868754887 -1.8901830276683416 1.7330926427353068
      vertex 3.663822868754887 1.8901830276683416 -1.7330926427353068
      vertex -0.33562169140351195 -4.1089838125692575 1.7330926427353068
    endloop
  endfacet
  facet normal -0.24033670725044393 -0.360505060875666 -0.9012626521891645
    outer loop
      vertex -3.663822868754887 -1.8901830276683416 1.7330926427353068
      vertex 0.33562169140351195 4.1089838125692575 -1.7330926427353068
      vertex 3.663822868754887 1.8901830276683416 -1.7330926427353068
    endloop
  endfacet
  facet normal 0.24033670725044412 0.36050506087566603 0.9012626521891645
    outer loop
      vertex 8.335621691403512 16.10898381256926 28.266907357264692
      vertex 4.336177131245114 10.10981697233166 31.733092642735308
      vertex 11.663822868754886 13.890183027668343 28.266907357264692
    endloop
  endfacet
  facet normal 0.2403367072504441 0.3605050608756661 0.9012626521891645
    outer loop
      vertex 4.336177131245114 10.10981697233166 31.733092642735308
      vertex 7.664378308596488 7.891016187430744 31.733092642735308
      vertex 11.663822868754886 13.890183027668343 28.266907357264692
    endloop
  endfacet
endsolid PythonSCAD_Model
