solid PythonSCAD_Model
  facet normal 0.9945218953682733 0.10452846326765321 0
    outer loop
      vertex 10 0 15
      vertex 9.781476007338057 2.0791169081775935 -15
      vertex 9.781476007338057 2.0791169081775935 15
    endloop
  endfacet
  facet normal 0.9945218953682733 0.10452846326765321 0
    outer loop
      vertex 9.781476007338057 2.0791169081775935 -15
      vertex 10 0 15
      vertex 10 0 -15
    endloop
  endfacet
  facet normal 0.9510565162951533 0.30901699437494784 0
    outer loop
      vertex 9.781476007338057 2.0791169081775935 15
      vertex 9.135454576426008 4.067366430758002 -15
      vertex 9.135454576426008 4.067366430758002 15
    endloop
  endfacet
  facet normal 0.9510565162951533 0.30901699437494784 0
    outer loop
      vertex 9.135454576426008 4.067366430758002 -15
      vertex 9.781476007338057 2.0791169081775935 15
      vertex 9.781476007338057 2.0791169081775935 -15
    endloop
  endfacet
  facet normal 0.8660254037844388 0.4999999999999997 0
    outer loop
      vertex 9.135454576426008 4.067366430758002 15
      vertex 8.090169943749475 5.877852522924732 -15
      vertex 8.090169943749475 5.877852522924732 15
    endloop
  endfacet
  facet normal 0.8660254037844388 0.4999999999999997 0
    outer loop
      vertex 8.090169943749475 5.877852522924732 -15
      vertex 9.135454576426008 4.067366430758002 15
      vertex 9.135454576426008 4.067366430758002 -15
    endloop
  endfacet
  facet normal 0.743144825477394 0.6691306063588585 0
    outer loop
      vertex 8.090169943749475 5.877852522924732 15
      vertex 6.691306063588582 7.431448254773942 -15
      vertex 6.691306063588582 7.431448254773942 15
    endloop
  endfacet
  facet normal 0.743144825477394 0.6691306063588585 0
    outer loop
      vertex 6.691306063588582 7.431448254773942 -15
      vertex 8.090169943749475 5.877852522924732 15
      vertex 8.090169943749475 5.877852522924732 -15
    endloop
  endfacet
  facet normal 0.5877852522924729 0.8090169943749476 0
    outer loop
      vertex 6.691306063588582 7.431448254773942 -15
      vertex 5 8.660254037844386 15
      vertex 6.691306063588582 7.431448254773942 15
    endloop
  endfacet
  facet normal 0.5877852522924729 0.8090169943749476 0
    outer loop
      vertex 5 8.660254037844386 15
      vertex 6.691306063588582 7.431448254773942 -15
      vertex 5 8.660254037844386 -15
    endloop
  endfacet
  facet normal 0.40673664307580015 0.9135454576426009 0
    outer loop
      vertex 5 8.660254037844386 -15
      vertex 3.090169943749474 9.510565162951535 15
      vertex 5 8.660254037844386 15
    endloop
  endfacet
  facet normal 0.40673664307580015 0.9135454576426009 0
    outer loop
      vertex 3.090169943749474 9.510565162951535 15
      vertex 5 8.660254037844386 -15
      vertex 3.090169943749474 9.510565162951535 -15
    endloop
  endfacet
  facet normal 0.20791169081775984 0.9781476007338055 0
    outer loop
      vertex 3.090169943749474 9.510565162951535 -15
      vertex 1.0452846326765348 9.945218953682733 15
      vertex 3.090169943749474 9.510565162951535 15
    endloop
  endfacet
  facet normal 0.20791169081775984 0.9781476007338055 0
    outer loop
      vertex 1.0452846326765348 9.945218953682733 15
      vertex 3.090169943749474 9.510565162951535 -15
      vertex 1.0452846326765348 9.945218953682733 -15
    endloop
  endfacet
  facet normal 0 1 0
    outer loop
      vertex 1.0452846326765348 9.945218953682733 -15
      vertex -1.0452846326765348 9.945218953682733 15
      vertex 1.0452846326765348 9.945218953682733 15
    endloop
  endfacet
  facet normal 0 1 0
    outer loop
      vertex -1.0452846326765348 9.945218953682733 15
      vertex 1.0452846326765348 9.945218953682733 -15
      vertex -1.0452846326765348 9.945218953682733 -15
    endloop
  endfacet
  facet normal -0.20791169081775984 0.9781476007338055 0
    outer loop
      vertex -1.0452846326765348 9.945218953682733 -15
      vertex -3.090169943749474 9.510565162951535 15
      vertex -1.0452846326765348 9.945218953682733 15
    endloop
  endfacet
  facet normal -0.20791169081775984 0.9781476007338055 0
    outer loop
      vertex -3.090169943749474 9.510565162951535 15
      vertex -1.0452846326765348 9.945218953682733 -15
      vertex -3.090169943749474 9.510565162951535 -15
    endloop
  endfacet
  facet normal -0.40673664307580015 0.9135454576426009 0
    outer loop
      vertex -3.090169943749474 9.510565162951535 -15
      vertex -5 8.660254037844386 15
      vertex -3.090169943749474 9.510565162951535 15
    endloop
  endfacet
  facet normal -0.40673664307580015 0.9135454576426009 0
    outer loop
      vertex -5 8.660254037844386 15
      vertex -3.090169943749474 9.510565162951535 -15
      vertex -5 8.660254037844386 -15
    endloop
  endfacet
  facet normal -0.5877852522924729 0.8090169943749476 0
    outer loop
      vertex -5 8.660254037844386 -15
      vertex -6.691306063588582 7.431448254773942 15
      vertex -5 8.660254037844386 15
    endloop
  endfacet
  facet normal -0.5877852522924729 0.8090169943749476 0
    outer loop
      vertex -6.691306063588582 7.431448254773942 15
      vertex -5 8.660254037844386 -15
      vertex -6.691306063588582 7.431448254773942 -15
    endloop
  endfacet
  facet normal -0.743144825477394 0.6691306063588585 0
    outer loop
      vertex -8.090169943749475 5.877852522924732 -15
      vertex -6.691306063588582 7.431448254773942 15
      vertex -6.691306063588582 7.431448254773942 -15
    endloop
  endfacet
  facet normal -0.743144825477394 0.6691306063588585 0
    outer loop
      vertex -6.691306063588582 7.431448254773942 15
      vertex -8.090169943749475 5.877852522924732 -15
      vertex -8.090169943749475 5.877852522924732 15
    endloop
  endfacet
  facet normal -0.8660254037844388 0.4999999999999997 0
    outer loop
      vertex -9.135454576426008 4.067366430758002 -15
      vertex -8.090169943749475 5.877852522924732 15
      vertex -8.090169943749475 5.877852522924732 -15
    endloop
  endfacet
  facet normal -0.8660254037844388 0.4999999999999997 0
    outer loop
      vertex -8.090169943749475 5.877852522924732 15
      vertex -9.135454576426008 4.067366430758002 -15
      vertex -9.135454576426008 4.067366430758002 15
    endloop
  endfacet
  facet normal -0.9510565162951533 0.30901699437494784 0
    outer loop
      vertex -9.781476007338057 2.0791169081775935 -15
      vertex -9.135454576426008 4.067366430758002 15
      vertex -9.135454576426008 4.067366430758002 -15
    endloop
  endfacet
  facet normal -0.9510565162951533 0.30901699437494784 0
    outer loop
      vertex -9.135454576426008 4.067366430758002 15
      vertex -9.781476007338057 2.0791169081775935 -15
      vertex -9.781476007338057 2.0791169081775935 15
    endloop
  endfacet
  facet normal -0.9945218953682733 0.10452846326765321 0
    outer loop
      vertex -10 0 -15
      vertex -9.781476007338057 2.0791169081775935 15
      vertex -9.781476007338057 2.0791169081775935 -15
    endloop
  endfacet
  facet normal -0.9945218953682733 0.10452846326765321 0
    outer loop
      vertex -9.781476007338057 2.0791169081775935 15
      vertex -10 0 -15
      vertex -10 0 15
    endloop
  endfacet
  facet normal -0.9945218953682733 -0.10452846326765321 0
    outer loop
      vertex -9.781476007338057 -2.0791169081775935 -15
      vertex -10 0 15
      vertex -10 0 -15
    endloop
  endfacet
  facet normal -0.9945218953682733 -0.10452846326765321 0
    outer loop
      vertex -10 0 15
      vertex -9.781476007338057 -2.0791169081775935 -15
      vertex -9.781476007338057 -2.0791169081775935 15
    endloop
  endfacet
  facet normal -0.9510565162951533 -0.30901699437494784 0
    outer loop
      vertex -9.135454576426008 -4.067366430758002 -15
      vertex -9.781476007338057 -2.0791169081775935 15
      vertex -9.781476007338057 -2.0791169081775935 -15
    endloop
  endfacet
  facet normal -0.9510565162951533 -0.30901699437494784 0
    outer loop
      vertex -9.781476007338057 -2.0791169081775935 15
      vertex -9.135454576426008 -4.067366430758002 -15
      vertex -9.135454576426008 -4.067366430758002 15
    endloop
  endfacet
  facet normal -0.8660254037844388 -0.4999999999999997 0
    outer loop
      vertex -8.090169943749475 -5.877852522924732 -15
      vertex -9.135454576426008 -4.067366430758002 15
      vertex -9.135454576426008 -4.067366430758002 -15
    endloop
  endfacet
  facet normal -0.8660254037844388 -0.4999999999999997 0
    outer loop
      vertex -9.135454576426008 -4.067366430758002 15
      vertex -8.090169943749475 -5.877852522924732 -15
      vertex -8.090169943749475 -5.877852522924732 15
    endloop
  endfacet
  facet normal -0.743144825477394 -0.6691306063588585 0
    outer loop
      vertex -6.691306063588582 -7.431448254773942 -15
      vertex -8.090169943749475 -5.877852522924732 15
      vertex -8.090169943749475 -5.877852522924732 -15
    endloop
  endfacet
  facet normal -0.743144825477394 -0.6691306063588585 0
    outer loop
      vertex -8.090169943749475 -5.877852522924732 15
      vertex -6.691306063588582 -7.431448254773942 -15
      vertex -6.691306063588582 -7.431448254773942 15
    endloop
  endfacet
  facet normal -0.5877852522924729 -0.8090169943749476 0
    outer loop
      vertex -6.691306063588582 -7.431448254773942 -15
      vertex -5 -8.660254037844386 15
      vertex -6.691306063588582 -7.431448254773942 15
    endloop
  endfacet
  facet normal -0.5877852522924729 -0.8090169943749476 0
    outer loop
      vertex -5 -8.660254037844386 15
      vertex -6.691306063588582 -7.431448254773942 -15
      vertex -5 -8.660254037844386 -15
    endloop
  endfacet
  facet normal -0.40673664307580015 -0.9135454576426009 0
    outer loop
      vertex -5 -8.660254037844386 -15
      vertex -3.090169943749474 -9.510565162951535 15
      vertex -5 -8.660254037844386 15
    endloop
  endfacet
  facet normal -0.40673664307580015 -0.9135454576426009 0
    outer loop
      vertex -3.090169943749474 -9.510565162951535 15
      vertex -5 -8.660254037844386 -15
      vertex -3.090169943749474 -9.510565162951535 -15
    endloop
  endfacet
  facet normal -0.20791169081775984 -0.9781476007338055 0
    outer loop
      vertex -3.090169943749474 -9.510565162951535 -15
      vertex -1.0452846326765348 -9.945218953682733 15
      vertex -3.090169943749474 -9.510565162951535 15
    endloop
  endfacet
  facet normal -0.20791169081775984 -0.9781476007338055 0
    outer loop
      vertex -1.0452846326765348 -9.945218953682733 15
      vertex -3.090169943749474 -9.510565162951535 -15
      vertex -1.0452846326765348 -9.945218953682733 -15
    endloop
  endfacet
  facet normal 0 -1 0
    outer loop
      vertex -1.0452846326765348 -9.945218953682733 -15
      vertex 1.0452846326765348 -9.945218953682733 15
      vertex -1.0452846326765348 -9.945218953682733 15
    endloop
  endfacet
  facet normal 0 -1 0
    outer loop
      vertex 1.0452846326765348 -9.945218953682733 15
      vertex -1.0452846326765348 -9.945218953682733 -15
      vertex 1.0452846326765348 -9.945218953682733 -15
    endloop
  endfacet
  facet normal 0.20791169081775984 -0.9781476007338055 0
    outer loop
      vertex 1.0452846326765348 -9.945218953682733 -15
      vertex 3.090169943749474 -9.510565162951535 15
      vertex 1.0452846326765348 -9.945218953682733 15
    endloop
  endfacet
  facet normal 0.20791169081775984 -0.9781476007338055 0
    outer loop
      vertex 3.090169943749474 -9.510565162951535 15
      vertex 1.0452846326765348 -9.945218953682733 -15
      vertex 3.090169943749474 -9.510565162951535 -15
    endloop
  endfacet
  facet normal 0.40673664307580015 -0.9135454576426009 0
    outer loop
      vertex 3.090169943749474 -9.510565162951535 -15
      vertex 5 -8.660254037844386 15
      vertex 3.090169943749474 -9.510565162951535 15
    endloop
  endfacet
  facet normal 0.40673664307580015 -0.9135454576426009 0
    outer loop
      vertex 5 -8.660254037844386 15
      vertex 3.090169943749474 -9.510565162951535 -15
      vertex 5 -8.660254037844386 -15
    endloop
  endfacet
  facet normal 0.5877852522924729 -0.8090169943749476 0
    outer loop
      vertex 5 -8.660254037844386 -15
      vertex 6.691306063588582 -7.431448254773942 15
      vertex 5 -8.660254037844386 15
    endloop
  endfacet
  facet normal 0.5877852522924729 -0.8090169943749476 0
    outer loop
      vertex 6.691306063588582 -7.431448254773942 15
      vertex 5 -8.660254037844386 -15
      vertex 6.691306063588582 -7.431448254773942 -15
    endloop
  endfacet
  facet normal 0.743144825477394 -0.6691306063588585 0
    outer loop
      vertex 6.691306063588582 -7.431448254773942 15
      vertex 8.090169943749475 -5.877852522924732 -15
      vertex 8.090169943749475 -5.877852522924732 15
    endloop
  endfacet
  facet normal 0.743144825477394 -0.6691306063588585 0
    outer loop
      vertex 8.090169943749475 -5.877852522924732 -15
      vertex 6.691306063588582 -7.431448254773942 15
      vertex 6.691306063588582 -7.431448254773942 -15
    endloop
  endfacet
  facet normal 0.8660254037844388 -0.4999999999999997 0
    outer loop
      vertex 8.090169943749475 -5.877852522924732 15
      vertex 9.135454576426008 -4.067366430758002 -15
      vertex 9.135454576426008 -4.067366430758002 15
    endloop
  endfacet
  facet normal 0.8660254037844388 -0.4999999999999997 0
    outer loop
      vertex 9.135454576426008 -4.067366430758002 -15
      vertex 8.090169943749475 -5.877852522924732 15
      vertex 8.090169943749475 -5.877852522924732 -15
    endloop
  endfacet
  facet normal 0.9510565162951533 -0.30901699437494784 0
    outer loop
      vertex 9.135454576426008 -4.067366430758002 15
      vertex 9.781476007338057 -2.0791169081775935 -15
      vertex 9.781476007338057 -2.0791169081775935 15
    endloop
  endfacet
  facet normal 0.9510565162951533 -0.30901699437494784 0
    outer loop
      vertex 9.781476007338057 -2.0791169081775935 -15
      vertex 9.135454576426008 -4.067366430758002 15
      vertex 9.135454576426008 -4.067366430758002 -15
    endloop
  endfacet
  facet normal 0.9945218953682733 -0.10452846326765321 0
    outer loop
      vertex 9.781476007338057 -2.0791169081775935 15
      vertex 10 0 -15
      vertex 10 0 15
    endloop
  endfacet
  facet normal 0.9945218953682733 -0.10452846326765321 0
    outer loop
      vertex 10 0 -15
      vertex 9.781476007338057 -2.0791169081775935 15
      vertex 9.781476007338057 -2.0791169081775935 -15
    endloop
  endfacet
  facet normal 0 0 -1
    outer loop
      vertex 9.781476007338057 -2.0791169081775935 -15
      vertex 9.781476007338057 2.0791169081775935 -15
      vertex 10 0 -15
    endloop
  endfacet
  facet normal 0 0 -1
    outer loop
      vertex 9.135454576426008 -4.067366430758002 -15
      vertex 9.781476007338057 2.0791169081775935 -15
      vertex 9.781476007338057 -2.0791169081775935 -15
    endloop
  endfacet
  facet normal 0 0 -1
    outer loop
      vertex 9.135454576426008 -4.067366430758002 -15
      vertex 9.135454576426008 4.067366430758002 -15
      vertex 9.781476007338057 2.0791169081775935 -15
    endloop
  endfacet
  facet normal 0 0 -1
    outer loop
      vertex 8.090169943749475 -5.877852522924732 -15
      vertex 9.135454576426008 4.067366430758002 -15
      vertex 9.135454576426008 -4.067366430758002 -15
    endloop
  endfacet
  facet normal 0 0 -1
    outer loop
      vertex 8.090169943749475 -5.877852522924732 -15
      vertex 8.090169943749475 5.877852522924732 -15
      vertex 9.135454576426008 4.067366430758002 -15
    endloop
  endfacet
  facet normal 0 0 -1
    outer loop
      vertex 6.691306063588582 -7.431448254773942 -15
      vertex 8.090169943749475 5.877852522924732 -15
      vertex 8.090169943749475 -5.877852522924732 -15
    endloop
  endfacet
  facet normal 0 0 -1
    outer loop
      vertex 6.691306063588582 -7.431448254773942 -15
      vertex 6.691306063588582 7.431448254773942 -15
      vertex 8.090169943749475 5.877852522924732 -15
    endloop
  endfacet
  facet normal 0 0 -1
    outer loop
      vertex 5 -8.660254037844386 -15
      vertex 6.691306063588582 7.431448254773942 -15
      vertex 6.691306063588582 -7.431448254773942 -15
    endloop
  endfacet
  facet normal 0 0 -1
    outer loop
      vertex 5 -8.660254037844386 -15
      vertex 5 8.660254037844386 -15
      vertex 6.691306063588582 7.431448254773942 -15
    endloop
  endfacet
  facet normal 0 0 -1
    outer loop
      vertex 3.090169943749474 -9.510565162951535 -15
      vertex 5 8.660254037844386 -15
      vertex 5 -8.660254037844386 -15
    endloop
  endfacet
  facet normal 0 0 -1
    outer loop
      vertex 3.090169943749474 -9.510565162951535 -15
      vertex 3.090169943749474 9.510565162951535 -15
      vertex 5 8.660254037844386 -15
    endloop
  endfacet
  facet normal 0 0 -1
    outer loop
      vertex 1.0452846326765348 -9.945218953682733 -15
      vertex 3.090169943749474 9.510565162951535 -15
      vertex 3.090169943749474 -9.510565162951535 -15
    endloop
  endfacet
  facet normal 0 0 -1
    outer loop
      vertex 1.0452846326765348 -9.945218953682733 -15
      vertex 1.0452846326765348 9.945218953682733 -15
      vertex 3.090169943749474 9.510565162951535 -15
    endloop
  endfacet
  facet normal 0 0 -1
    outer loop
      vertex -1.0452846326765348 -9.945218953682733 -15
      vertex 1.0452846326765348 9.945218953682733 -15
      vertex 1.0452846326765348 -9.945218953682733 -15
    endloop
  endfacet
  facet normal 0 0 -1
    outer loop
      vertex -1.0452846326765348 -9.945218953682733 -15
      vertex -1.0452846326765348 9.945218953682733 -15
      vertex 1.0452846326765348 9.945218953682733 -15
    endloop
  endfacet
  facet normal 0 0 -1
    outer loop
      vertex -3.090169943749474 -9.510565162951535 -15
      vertex -1.0452846326765348 9.945218953682733 -15
      vertex -1.0452846326765348 -9.945218953682733 -15
    endloop
  endfacet
  facet normal 0 0 -1
    outer loop
      vertex -3.090169943749474 -9.510565162951535 -15
      vertex -3.090169943749474 9.510565162951535 -15
      vertex -1.0452846326765348 9.945218953682733 -15
    endloop
  endfacet
  facet normal 0 0 -1
    outer loop
      vertex -5 -8.660254037844386 -15
      vertex -3.090169943749474 9.510565162951535 -15
      vertex -3.090169943749474 -9.510565162951535 -15
    endloop
  endfacet
  facet normal 0 0 -1
    outer loop
      vertex -5 -8.660254037844386 -15
      vertex -5 8.660254037844386 -15
      vertex -3.090169943749474 9.510565162951535 -15
    endloop
  endfacet
  facet normal 0 0 -1
    outer loop
      vertex -6.691306063588582 -7.431448254773942 -15
      vertex -5 8.660254037844386 -15
      vertex -5 -8.660254037844386 -15
    endloop
  endfacet
  facet normal 0 0 -1
    outer loop
      vertex -6.691306063588582 -7.431448254773942 -15
      vertex -6.691306063588582 7.431448254773942 -15
      vertex -5 8.660254037844386 -15
    endloop
  endfacet
  facet normal 0 0 -1
    outer loop
      vertex -8.090169943749475 -5.877852522924732 -15
      vertex -6.691306063588582 7.431448254773942 -15
      vertex -6.691306063588582 -7.431448254773942 -15
    endloop
  endfacet
  facet normal 0 0 -1
    outer loop
      vertex -8.090169943749475 -5.877852522924732 -15
      vertex -8.090169943749475 5.877852522924732 -15
      vertex -6.691306063588582 7.431448254773942 -15
    endloop
  endfacet
  facet normal 0 0 -1
    outer loop
      vertex -9.135454576426008 -4.067366430758002 -15
      vertex -8.090169943749475 5.877852522924732 -15
      vertex -8.090169943749475 -5.877852522924732 -15
    endloop
  endfacet
  facet normal 0 0 -1
    outer loop
      vertex -9.135454576426008 -4.067366430758002 -15
      vertex -9.135454576426008 4.067366430758002 -15
      vertex -8.090169943749475 5.877852522924732 -15
    endloop
  endfacet
  facet normal 0 0 -1
    outer loop
      vertex -9.781476007338057 -2.0791169081775935 -15
      vertex -9.135454576426008 4.067366430758002 -15
      vertex -9.135454576426008 -4.067366430758002 -15
    endloop
  endfacet
  facet normal 0 0 -1
    outer loop
      vertex -9.781476007338057 -2.0791169081775935 -15
      vertex -9.781476007338057 2.0791169081775935 -15
      vertex -9.135454576426008 4.067366430758002 -15
    endloop
  endfacet
  facet normal 0 0 -1
    outer loop
      vertex -9.781476007338057 2.0791169081775935 -15
      vertex -9.781476007338057 -2.0791169081775935 -15
      vertex -10 0 -15
    endloop
  endfacet
  facet normal 0 0 1
    outer loop
      vertex 9.781476007338057 2.0791169081775935 15
      vertex 9.781476007338057 -2.0791169081775935 15
      vertex 10 0 15
    endloop
  endfacet
  facet normal 0 0 1
    outer loop
      vertex 9.135454576426008 4.067366430758002 15
      vertex 9.781476007338057 -2.0791169081775935 15
      vertex 9.781476007338057 2.0791169081775935 15
    endloop
  endfacet
  facet normal 0 0 1
    outer loop
      vertex 9.135454576426008 4.067366430758002 15
      vertex 9.135454576426008 -4.067366430758002 15
      vertex 9.781476007338057 -2.0791169081775935 15
    endloop
  endfacet
  facet normal 0 0 1
    outer loop
      vertex 8.090169943749475 5.877852522924732 15
      vertex 9.135454576426008 -4.067366430758002 15
      vertex 9.135454576426008 4.067366430758002 15
    endloop
  endfacet
  facet normal 0 0 1
    outer loop
      vertex 8.090169943749475 5.877852522924732 15
      vertex 8.090169943749475 -5.877852522924732 15
      vertex 9.135454576426008 -4.067366430758002 15
    endloop
  endfacet
  facet normal 0 0 1
    outer loop
      vertex 6.691306063588582 7.431448254773942 15
      vertex 8.090169943749475 -5.877852522924732 15
      vertex 8.090169943749475 5.877852522924732 15
    endloop
  endfacet
  facet normal 0 0 1
    outer loop
      vertex 6.691306063588582 7.431448254773942 15
      vertex 6.691306063588582 -7.431448254773942 15
      vertex 8.090169943749475 -5.877852522924732 15
    endloop
  endfacet
  facet normal 0 0 1
    outer loop
      vertex 5 8.660254037844386 15
      vertex 6.691306063588582 -7.431448254773942 15
      vertex 6.691306063588582 7.431448254773942 15
    endloop
  endfacet
  facet normal 0 0 1
    outer loop
      vertex 5 8.660254037844386 15
      vertex 5 -8.660254037844386 15
      vertex 6.691306063588582 -7.431448254773942 15
    endloop
  endfacet
  facet normal 0 0 1
    outer loop
      vertex 3.090169943749474 9.510565162951535 15
      vertex 5 -8.660254037844386 15
      vertex 5 8.660254037844386 15
    endloop
  endfacet
  facet normal 0 0 1
    outer loop
      vertex 3.090169943749474 9.510565162951535 15
      vertex 3.090169943749474 -9.510565162951535 15
      vertex 5 -8.660254037844386 15
    endloop
  endfacet
  facet normal 0 0 1
    outer loop
      vertex 1.0452846326765348 9.945218953682733 15
      vertex 3.090169943749474 -9.510565162951535 15
      vertex 3.090169943749474 9.510565162951535 15
    endloop
  endfacet
  facet normal 0 0 1
    outer loop
      vertex 1.0452846326765348 9.945218953682733 15
      vertex 1.0452846326765348 -9.945218953682733 15
      vertex 3.090169943749474 -9.510565162951535 15
    endloop
  endfacet
  facet normal 0 0 1
    outer loop
      vertex -1.0452846326765348 9.945218953682733 15
      vertex 1.0452846326765348 -9.945218953682733 15
      vertex 1.0452846326765348 9.945218953682733 15
    endloop
  endfacet
  facet normal 0 0 1
    outer loop
      vertex -1.0452846326765348 9.945218953682733 15
      vertex -1.0452846326765348 -9.945218953682733 15
      vertex 1.0452846326765348 -9.945218953682733 15
    endloop
  endfacet
  facet normal 0 0 1
    outer loop
      vertex -3.090169943749474 9.510565162951535 15
      vertex -1.0452846326765348 -9.945218953682733 15
      vertex -1.0452846326765348 9.945218953682733 15
    endloop
  endfacet
  facet normal 0 0 1
    outer loop
      vertex -3.090169943749474 9.510565162951535 15
      vertex -3.090169943749474 -9.510565162951535 15
      vertex -1.0452846326765348 -9.945218953682733 15
    endloop
  endfacet
  facet normal 0 0 1
    outer loop
      vertex -5 8.660254037844386 15
      vertex -3.090169943749474 -9.510565162951535 15
      vertex -3.090169943749474 9.510565162951535 15
    endloop
  endfacet
  facet normal 0 0 1
    outer loop
      vertex -5 8.660254037844386 15
      vertex -5 -8.660254037844386 15
      vertex -3.090169943749474 -9.510565162951535 15
    endloop
  endfacet
  facet normal 0 0 1
    outer loop
      vertex -6.691306063588582 7.431448254773942 15
      vertex -5 -8.660254037844386 15
      vertex -5 8.660254037844386 15
    endloop
  endfacet
  facet normal 0 0 1
    outer loop
      vertex -6.691306063588582 7.431448254773942 15
      vertex -6.691306063588582 -7.431448254773942 15
      vertex -5 -8.660254037844386 15
    endloop
  endfacet
  facet normal 0 0 1
    outer loop
      vertex -8.090169943749475 5.877852522924732 15
      vertex -6.691306063588582 -7.431448254773942 15
      vertex -6.691306063588582 7.431448254773942 15
    endloop
  endfacet
  facet normal 0 0 1
    outer loop
      vertex -8.090169943749475 5.877852522924732 15
      vertex -8.090169943749475 -5.877852522924732 15
      vertex -6.691306063588582 -7.431448254773942 15
    endloop
  endfacet
  facet normal 0 0 1
    outer loop
      vertex -9.135454576426008 4.067366430758002 15
      vertex -8.090169943749475 -5.877852522924732 15
      vertex -8.090169943749475 5.877852522924732 15
    endloop
  endfacet
  facet normal 0 0 1
    outer loop
      vertex -9.135454576426008 4.067366430758002 15
      vertex -9.135454576426008 -4.067366430758002 15
      vertex -8.090169943749475 -5.877852522924732 15
    endloop
  endfacet
  facet normal 0 0 1
    outer loop
      vertex -9.781476007338057 2.0791169081775935 15
      vertex -9.135454576426008 -4.067366430758002 15
      vertex -9.135454576426008 4.067366430758002 15
    endloop
  endfacet
  facet normal 0 0 1
    outer loop
      vertex -9.781476007338057 2.0791169081775935 15
      vertex -9.781476007338057 -2.0791169081775935 15
      vertex -9.135454576426008 -4.067366430758002 15
    endloop
  endfacet
  facet normal 0 0 1
    outer loop
      vertex -9.781476007338057 -2.0791169081775935 15
      vertex -9.781476007338057 2.0791169081775935 15
      vertex -10 0 15
    endloop
  endfacet
endsolid PythonSCAD_Model
