solid PythonSCAD_Model
  facet normal -0.7703275794849839 -0.5147164328119489 -0.3763806770786039
    outer loop
      vertex -19.072711026845667 -12.272758580572834 -8.222280932078409
      vertex -18.351751204838717 -13.351751204838717 -8.222280932078409
      vertex -18.774079690644296 -13.774079690644296 -6.780361288064513
    endloop
  endfacet
  facet normal -0.3966396567602824 -0.5936131960090996 -0.7002145072825524
    outer loop
      vertex -18.351751204838717 -13.351751204838717 -8.222280932078409
      vertex -17.571389916774205 -12.571389916774205 -9.325878449210181
      vertex -17.272758580572834 -14.072711026845665 -8.222280932078409
    endloop
  endfacet
  facet normal -0.514716432811948 -0.7703275794849846 -0.37638067707860384
    outer loop
      vertex -18.774079690644296 -13.774079690644296 -6.780361288064513
      vertex -18.351751204838717 -13.351751204838717 -8.222280932078409
      vertex -17.272758580572834 -14.072711026845665 -8.222280932078409
    endloop
  endfacet
  facet normal -0.5936131960090995 -0.3966396567602802 -0.7002145072825539
    outer loop
      vertex -19.072711026845667 -12.272758580572834 -8.222280932078409
      vertex -18.053119868637346 -11.850430094767257 -9.325878449210181
      vertex -17.571389916774205 -12.571389916774205 -9.325878449210181
    endloop
  endfacet
  facet normal -0.3815795311289151 -0.07590088788047285 -0.9212144791753945
    outer loop
      vertex -16.720959822006947 -11.298631336201371 -9.923141121612922
      vertex -18.053119868637346 -11.850430094767257 -9.325878449210181
      vertex -18.22228093207841 -11 -9.325878449210181
    endloop
  endfacet
  facet normal -0.7002145072825522 -0.13928132531715412 -0.7002145072825539
    outer loop
      vertex -18.22228093207841 -11 -9.325878449210181
      vertex -18.053119868637346 -11.850430094767257 -9.325878449210181
      vertex -19.072711026845667 -12.272758580572834 -8.222280932078409
    endloop
  endfacet
  facet normal -0.7002145072825539 -0.13928132531715193 -0.7002145072825526
    outer loop
      vertex -19.072711026845667 -12.272758580572834 -8.222280932078409
      vertex -19.32587844921018 -11 -8.222280932078409
      vertex -18.22228093207841 -11 -9.325878449210181
    endloop
  endfacet
  facet normal -0.9086633352183308 -0.18074437515937175 -0.3763806770786034
    outer loop
      vertex -19.92314112161292 -11 -6.780361288064513
      vertex -19.32587844921018 -11 -8.222280932078409
      vertex -19.072711026845667 -12.272758580572834 -8.222280932078409
    endloop
  endfacet
  facet normal -0.5936131960090991 -0.39663965676028307 -0.7002145072825524
    outer loop
      vertex -19.072711026845667 -12.272758580572834 -8.222280932078409
      vertex -17.571389916774205 -12.571389916774205 -9.325878449210181
      vertex -18.351751204838717 -13.351751204838717 -8.222280932078409
    endloop
  endfacet
  facet normal -0.39663965676027946 -0.5936131960091 -0.7002145072825537
    outer loop
      vertex -17.571389916774205 -12.571389916774205 -9.325878449210181
      vertex -16.850430094767255 -13.053119868637346 -9.325878449210181
      vertex -17.272758580572834 -14.072711026845665 -8.222280932078409
    endloop
  endfacet
  facet normal -0.13928132531715456 -0.7002145072825526 -0.7002145072825535
    outer loop
      vertex -17.272758580572834 -14.072711026845665 -8.222280932078409
      vertex -16.850430094767255 -13.053119868637346 -9.325878449210181
      vertex -16 -13.222280932078409 -9.325878449210181
    endloop
  endfacet
  facet normal -0.18074437515937433 -0.9086633352183306 -0.37638067707860234
    outer loop
      vertex -17.272758580572834 -14.072711026845665 -8.222280932078409
      vertex -16 -14.325878449210181 -8.222280932078409
      vertex -17.501321110071462 -14.62450978541155 -6.780361288064513
    endloop
  endfacet
  facet normal -0.13928132531715373 -0.7002145072825531 -0.7002145072825531
    outer loop
      vertex -16 -13.222280932078409 -9.325878449210181
      vertex -16 -14.325878449210181 -8.222280932078409
      vertex -17.272758580572834 -14.072711026845665 -8.222280932078409
    endloop
  endfacet
  facet normal -0.21614744150487653 -0.32348750654160213 -0.9212144791753942
    outer loop
      vertex -17.571389916774205 -12.571389916774205 -9.325878449210181
      vertex -16.29863133620137 -11.720959822006948 -9.923141121612922
      vertex -16.850430094767255 -13.053119868637346 -9.325878449210181
    endloop
  endfacet
  facet normal -0.07590088788047311 -0.3815795311289154 -0.9212144791753942
    outer loop
      vertex -16.850430094767255 -13.053119868637346 -9.325878449210181
      vertex -16.29863133620137 -11.720959822006948 -9.923141121612922
      vertex -16 -13.222280932078409 -9.325878449210181
    endloop
  endfacet
  facet normal -0.32348750654160163 -0.21614744150487672 -0.9212144791753943
    outer loop
      vertex -17.571389916774205 -12.571389916774205 -9.325878449210181
      vertex -18.053119868637346 -11.850430094767257 -9.325878449210181
      vertex -16.551798758565887 -11.551798758565885 -9.923141121612922
    endloop
  endfacet
  facet normal -0.3234875065416019 -0.21614744150487575 -0.9212144791753946
    outer loop
      vertex -16.551798758565887 -11.551798758565885 -9.923141121612922
      vertex -18.053119868637346 -11.850430094767257 -9.325878449210181
      vertex -16.720959822006947 -11.298631336201371 -9.923141121612922
    endloop
  endfacet
  facet normal -0.2161474415048778 -0.3234875065416005 -0.9212144791753946
    outer loop
      vertex -16.551798758565887 -11.551798758565885 -9.923141121612922
      vertex -16.29863133620137 -11.720959822006948 -9.923141121612922
      vertex -17.571389916774205 -12.571389916774205 -9.325878449210181
    endloop
  endfacet
  facet normal -0.0759008878804724 -0.38157953112891535 -0.9212144791753943
    outer loop
      vertex -16 -13.222280932078409 -9.325878449210181
      vertex -16.29863133620137 -11.720959822006948 -9.923141121612922
      vertex -16 -11.780361288064514 -9.923141121612922
    endloop
  endfacet
  facet normal -0.5147164328119471 -0.7703275794849856 -0.3763806770786027
    outer loop
      vertex -18.774079690644296 -13.774079690644296 -6.780361288064513
      vertex -17.272758580572834 -14.072711026845665 -8.222280932078409
      vertex -17.501321110071462 -14.62450978541155 -6.780361288064513
    endloop
  endfacet
  facet normal -0.7703275794849865 -0.514716432811947 -0.3763806770786014
    outer loop
      vertex -18.774079690644296 -13.774079690644296 -6.780361288064513
      vertex -19.62450978541155 -12.50132111007146 -6.780361288064513
      vertex -19.072711026845667 -12.272758580572834 -8.222280932078409
    endloop
  endfacet
  facet normal -0.908663335218331 -0.18074437515937442 -0.37638067707860123
    outer loop
      vertex -19.072711026845667 -12.272758580572834 -8.222280932078409
      vertex -19.62450978541155 -12.50132111007146 -6.780361288064513
      vertex -19.92314112161292 -11 -6.780361288064513
    endloop
  endfacet
  facet normal -0.18074437515937417 -0.9086633352183305 -0.3763806770786022
    outer loop
      vertex -17.501321110071462 -14.62450978541155 -6.780361288064513
      vertex -16 -14.325878449210181 -8.222280932078409
      vertex -16 -14.923141121612922 -6.780361288064513
    endloop
  endfacet
  facet normal -0.38157953112891496 -0.07590088788047233 -0.9212144791753946
    outer loop
      vertex -16.780361288064512 -11 -9.923141121612922
      vertex -16.720959822006947 -11.298631336201371 -9.923141121612922
      vertex -18.22228093207841 -11 -9.325878449210181
    endloop
  endfacet
  facet normal -0.5555702330196014 -0.8314696123025457 0
    outer loop
      vertex -17.501321110071462 -14.62450978541155 -6.780361288064513
      vertex -17.501321110071462 -14.62450978541155 6.780361288064513
      vertex -18.774079690644296 -13.774079690644296 -6.780361288064513
    endloop
  endfacet
  facet normal -0.8314696123025461 -0.555570233019601 0
    outer loop
      vertex -18.774079690644296 -13.774079690644296 -6.780361288064513
      vertex -19.62450978541155 -12.50132111007146 6.780361288064513
      vertex -19.62450978541155 -12.50132111007146 -6.780361288064513
    endloop
  endfacet
  facet normal -0.9807852804032303 -0.19509032201612875 0
    outer loop
      vertex -19.62450978541155 -12.50132111007146 -6.780361288064513
      vertex -19.92314112161292 -11 6.780361288064513
      vertex -19.92314112161292 -11 -6.780361288064513
    endloop
  endfacet
  facet normal -0.19509032201612853 -0.9807852804032304 0
    outer loop
      vertex -16 -14.923141121612922 -6.780361288064513
      vertex -17.501321110071462 -14.62450978541155 6.780361288064513
      vertex -17.501321110071462 -14.62450978541155 -6.780361288064513
    endloop
  endfacet
  facet normal 0 0 -1
    outer loop
      vertex -16.551798758565887 -11.551798758565885 -9.923141121612922
      vertex -16.720959822006947 11.298631336201371 -9.923141121612922
      vertex -16.29863133620137 -11.720959822006948 -9.923141121612922
    endloop
  endfacet
  facet normal 0 0 -1
    outer loop
      vertex -16.720959822006947 -11.298631336201371 -9.923141121612922
      vertex -16.720959822006947 11.298631336201371 -9.923141121612922
      vertex -16.551798758565887 -11.551798758565885 -9.923141121612922
    endloop
  endfacet
  facet normal 0 0 -1
    outer loop
      vertex -16.29863133620137 -11.720959822006948 -9.923141121612922
      vertex -16.720959822006947 11.298631336201371 -9.923141121612922
      vertex -16 -11.780361288064514 -9.923141121612922
    endloop
  endfacet
  facet normal -0.7071067811865481 0 -0.707106781186547
    outer loop
      vertex -19.32587844921018 -11 -8.222280932078409
      vertex -18.22228093207841 11 -9.325878449210181
      vertex -18.22228093207841 -11 -9.325878449210181
    endloop
  endfacet
  facet normal -0.38268343236508934 0 -0.9238795325112871
    outer loop
      vertex -18.22228093207841 -11 -9.325878449210181
      vertex -16.780361288064512 11 -9.923141121612922
      vertex -16.780361288064512 -11 -9.923141121612922
    endloop
  endfacet
  facet normal 0 0 -1
    outer loop
      vertex -16.780361288064512 -11 -9.923141121612922
      vertex -16.720959822006947 11.298631336201371 -9.923141121612922
      vertex -16.720959822006947 -11.298631336201371 -9.923141121612922
    endloop
  endfacet
  facet normal -0.9238795325112865 0 -0.38268343236509045
    outer loop
      vertex -19.92314112161292 -11 -6.780361288064513
      vertex -19.92314112161292 11 -6.780361288064513
      vertex -19.32587844921018 -11 -8.222280932078409
    endloop
  endfacet
  facet normal -1 0 0
    outer loop
      vertex -19.92314112161292 -11 6.780361288064513
      vertex -19.92314112161292 11 -6.780361288064513
      vertex -19.92314112161292 -11 -6.780361288064513
    endloop
  endfacet
  facet normal 0 -0.7071067811865475 -0.7071067811865475
    outer loop
      vertex 16 -13.222280932078409 -9.325878449210181
      vertex -16 -14.325878449210181 -8.222280932078409
      vertex -16 -13.222280932078409 -9.325878449210181
    endloop
  endfacet
  facet normal 0 -0.3826834323650897 -0.9238795325112868
    outer loop
      vertex -16 -13.222280932078409 -9.325878449210181
      vertex -16 -11.780361288064514 -9.923141121612922
      vertex 16 -13.222280932078409 -9.325878449210181
    endloop
  endfacet
  facet normal 0 -0.923879532511287 -0.3826834323650895
    outer loop
      vertex -16 -14.923141121612922 -6.780361288064513
      vertex -16 -14.325878449210181 -8.222280932078409
      vertex 16 -14.923141121612922 -6.780361288064513
    endloop
  endfacet
  facet normal 0 0 -1
    outer loop
      vertex -16 -11.780361288064514 -9.923141121612922
      vertex -16.720959822006947 11.298631336201371 -9.923141121612922
      vertex 16 -11.780361288064514 -9.923141121612922
    endloop
  endfacet
  facet normal -0.8314696123025461 -0.555570233019601 0
    outer loop
      vertex -18.774079690644296 -13.774079690644296 6.780361288064513
      vertex -19.62450978541155 -12.50132111007146 6.780361288064513
      vertex -18.774079690644296 -13.774079690644296 -6.780361288064513
    endloop
  endfacet
  facet normal -0.5555702330196014 -0.8314696123025457 0
    outer loop
      vertex -18.774079690644296 -13.774079690644296 -6.780361288064513
      vertex -17.501321110071462 -14.62450978541155 6.780361288064513
      vertex -18.774079690644296 -13.774079690644296 6.780361288064513
    endloop
  endfacet
  facet normal -0.9807852804032303 -0.19509032201612875 0
    outer loop
      vertex -19.62450978541155 -12.50132111007146 6.780361288064513
      vertex -19.92314112161292 -11 6.780361288064513
      vertex -19.62450978541155 -12.50132111007146 -6.780361288064513
    endloop
  endfacet
  facet normal -0.19509032201612853 -0.9807852804032304 0
    outer loop
      vertex -16 -14.923141121612922 6.780361288064513
      vertex -17.501321110071462 -14.62450978541155 6.780361288064513
      vertex -16 -14.923141121612922 -6.780361288064513
    endloop
  endfacet
  facet normal -0.5147164328119471 -0.7703275794849856 0.3763806770786027
    outer loop
      vertex -18.774079690644296 -13.774079690644296 6.780361288064513
      vertex -17.501321110071462 -14.62450978541155 6.780361288064513
      vertex -17.272758580572834 -14.072711026845665 8.222280932078409
    endloop
  endfacet
  facet normal -0.7703275794849864 -0.5147164328119469 0.37638067707860134
    outer loop
      vertex -19.072711026845667 -12.272758580572834 8.222280932078409
      vertex -19.62450978541155 -12.50132111007146 6.780361288064513
      vertex -18.774079690644296 -13.774079690644296 6.780361288064513
    endloop
  endfacet
  facet normal -0.908663335218331 -0.18074437515937442 0.37638067707860123
    outer loop
      vertex -19.072711026845667 -12.272758580572834 8.222280932078409
      vertex -19.92314112161292 -11 6.780361288064513
      vertex -19.62450978541155 -12.50132111007146 6.780361288064513
    endloop
  endfacet
  facet normal -0.18074437515937417 -0.9086633352183305 0.3763806770786022
    outer loop
      vertex -16 -14.923141121612922 6.780361288064513
      vertex -16 -14.325878449210181 8.222280932078409
      vertex -17.501321110071462 -14.62450978541155 6.780361288064513
    endloop
  endfacet
  facet normal -0.770327579484984 -0.5147164328119489 0.3763806770786039
    outer loop
      vertex -18.774079690644296 -13.774079690644296 6.780361288064513
      vertex -18.351751204838717 -13.351751204838717 8.222280932078409
      vertex -19.072711026845667 -12.272758580572834 8.222280932078409
    endloop
  endfacet
  facet normal -0.514716432811948 -0.7703275794849845 0.3763806770786039
    outer loop
      vertex -17.272758580572834 -14.072711026845665 8.222280932078409
      vertex -18.351751204838717 -13.351751204838717 8.222280932078409
      vertex -18.774079690644296 -13.774079690644296 6.780361288064513
    endloop
  endfacet
  facet normal -0.3966396567602824 -0.5936131960090996 0.7002145072825524
    outer loop
      vertex -17.272758580572834 -14.072711026845665 8.222280932078409
      vertex -17.571389916774205 -12.571389916774205 9.325878449210181
      vertex -18.351751204838717 -13.351751204838717 8.222280932078409
    endloop
  endfacet
  facet normal -0.9086633352183306 -0.1807443751593718 0.3763806770786033
    outer loop
      vertex -19.32587844921018 -11 8.222280932078409
      vertex -19.92314112161292 -11 6.780361288064513
      vertex -19.072711026845667 -12.272758580572834 8.222280932078409
    endloop
  endfacet
  facet normal -0.7002145072825539 -0.13928132531715193 0.7002145072825526
    outer loop
      vertex -19.072711026845667 -12.272758580572834 8.222280932078409
      vertex -18.22228093207841 -11 9.325878449210181
      vertex -19.32587844921018 -11 8.222280932078409
    endloop
  endfacet
  facet normal -0.5936131960090991 -0.39663965676028307 0.7002145072825525
    outer loop
      vertex -18.351751204838717 -13.351751204838717 8.222280932078409
      vertex -17.571389916774205 -12.571389916774205 9.325878449210181
      vertex -19.072711026845667 -12.272758580572834 8.222280932078409
    endloop
  endfacet
  facet normal -0.5936131960090995 -0.3966396567602801 0.700214507282554
    outer loop
      vertex -17.571389916774205 -12.571389916774205 9.325878449210181
      vertex -18.053119868637346 -11.850430094767257 9.325878449210181
      vertex -19.072711026845667 -12.272758580572834 8.222280932078409
    endloop
  endfacet
  facet normal -0.7002145072825522 -0.13928132531715404 0.700214507282554
    outer loop
      vertex -19.072711026845667 -12.272758580572834 8.222280932078409
      vertex -18.053119868637346 -11.850430094767257 9.325878449210181
      vertex -18.22228093207841 -11 9.325878449210181
    endloop
  endfacet
  facet normal -0.3815795311289151 -0.07590088788047288 0.9212144791753945
    outer loop
      vertex -18.053119868637346 -11.850430094767257 9.325878449210181
      vertex -16.720959822006947 -11.298631336201371 9.923141121612922
      vertex -18.22228093207841 -11 9.325878449210181
    endloop
  endfacet
  facet normal -0.18074437515937433 -0.9086633352183306 0.37638067707860234
    outer loop
      vertex -17.501321110071462 -14.62450978541155 6.780361288064513
      vertex -16 -14.325878449210181 8.222280932078409
      vertex -17.272758580572834 -14.072711026845665 8.222280932078409
    endloop
  endfacet
  facet normal -0.13928132531715373 -0.7002145072825531 0.7002145072825531
    outer loop
      vertex -17.272758580572834 -14.072711026845665 8.222280932078409
      vertex -16 -14.325878449210181 8.222280932078409
      vertex -16 -13.222280932078409 9.325878449210181
    endloop
  endfacet
  facet normal -0.39663965676027946 -0.5936131960091 0.7002145072825539
    outer loop
      vertex -17.272758580572834 -14.072711026845665 8.222280932078409
      vertex -16.850430094767255 -13.053119868637346 9.325878449210181
      vertex -17.571389916774205 -12.571389916774205 9.325878449210181
    endloop
  endfacet
  facet normal -0.13928132531715448 -0.7002145072825525 0.7002145072825535
    outer loop
      vertex -16 -13.222280932078409 9.325878449210181
      vertex -16.850430094767255 -13.053119868637346 9.325878449210181
      vertex -17.272758580572834 -14.072711026845665 8.222280932078409
    endloop
  endfacet
  facet normal -0.21614744150487653 -0.32348750654160213 0.9212144791753942
    outer loop
      vertex -16.850430094767255 -13.053119868637346 9.325878449210181
      vertex -16.29863133620137 -11.720959822006948 9.923141121612922
      vertex -17.571389916774205 -12.571389916774205 9.325878449210181
    endloop
  endfacet
  facet normal -0.07590088788047311 -0.3815795311289154 0.9212144791753942
    outer loop
      vertex -16 -13.222280932078409 9.325878449210181
      vertex -16.29863133620137 -11.720959822006948 9.923141121612922
      vertex -16.850430094767255 -13.053119868637346 9.325878449210181
    endloop
  endfacet
  facet normal -0.3234875065416017 -0.2161474415048767 0.9212144791753943
    outer loop
      vertex -16.551798758565887 -11.551798758565885 9.923141121612922
      vertex -18.053119868637346 -11.850430094767257 9.325878449210181
      vertex -17.571389916774205 -12.571389916774205 9.325878449210181
    endloop
  endfacet
  facet normal -0.3234875065416019 -0.21614744150487575 0.9212144791753946
    outer loop
      vertex -16.551798758565887 -11.551798758565885 9.923141121612922
      vertex -16.720959822006947 -11.298631336201371 9.923141121612922
      vertex -18.053119868637346 -11.850430094767257 9.325878449210181
    endloop
  endfacet
  facet normal -0.2161474415048778 -0.32348750654160047 0.9212144791753945
    outer loop
      vertex -17.571389916774205 -12.571389916774205 9.325878449210181
      vertex -16.29863133620137 -11.720959822006948 9.923141121612922
      vertex -16.551798758565887 -11.551798758565885 9.923141121612922
    endloop
  endfacet
  facet normal -0.0759008878804724 -0.38157953112891535 0.9212144791753943
    outer loop
      vertex -16 -11.780361288064514 9.923141121612922
      vertex -16.29863133620137 -11.720959822006948 9.923141121612922
      vertex -16 -13.222280932078409 9.325878449210181
    endloop
  endfacet
  facet normal -0.38157953112891496 -0.07590088788047233 0.9212144791753946
    outer loop
      vertex -18.22228093207841 -11 9.325878449210181
      vertex -16.720959822006947 -11.298631336201371 9.923141121612922
      vertex -16.780361288064512 -11 9.923141121612922
    endloop
  endfacet
  facet normal -0.9238795325112865 0 0.38268343236509045
    outer loop
      vertex -19.32587844921018 11 8.222280932078409
      vertex -19.92314112161292 -11 6.780361288064513
      vertex -19.32587844921018 -11 8.222280932078409
    endloop
  endfacet
  facet normal -0.7071067811865481 0 0.707106781186547
    outer loop
      vertex -18.22228093207841 -11 9.325878449210181
      vertex -18.22228093207841 11 9.325878449210181
      vertex -19.32587844921018 -11 8.222280932078409
    endloop
  endfacet
  facet normal -0.38268343236508934 0 0.9238795325112871
    outer loop
      vertex -18.22228093207841 -11 9.325878449210181
      vertex -16.780361288064512 -11 9.923141121612922
      vertex -18.22228093207841 11 9.325878449210181
    endloop
  endfacet
  facet normal 0 -1 0
    outer loop
      vertex -16 -14.923141121612922 6.780361288064513
      vertex -16 -14.923141121612922 -6.780361288064513
      vertex 16 -14.923141121612922 6.780361288064513
    endloop
  endfacet
  facet normal 0 -0.923879532511287 0.3826834323650895
    outer loop
      vertex -16 -14.923141121612922 6.780361288064513
      vertex 16 -14.325878449210181 8.222280932078409
      vertex -16 -14.325878449210181 8.222280932078409
    endloop
  endfacet
  facet normal 0 -0.7071067811865475 0.7071067811865475
    outer loop
      vertex -16 -14.325878449210181 8.222280932078409
      vertex 16 -14.325878449210181 8.222280932078409
      vertex -16 -13.222280932078409 9.325878449210181
    endloop
  endfacet
  facet normal 0 -0.3826834323650897 0.9238795325112868
    outer loop
      vertex 16 -13.222280932078409 9.325878449210181
      vertex -16 -11.780361288064514 9.923141121612922
      vertex -16 -13.222280932078409 9.325878449210181
    endloop
  endfacet
  facet normal 0 0 1
    outer loop
      vertex -16.29863133620137 -11.720959822006948 9.923141121612922
      vertex 16.29863133620137 11.720959822006948 9.923141121612922
      vertex -16.551798758565887 -11.551798758565885 9.923141121612922
    endloop
  endfacet
  facet normal 0 0 1
    outer loop
      vertex -16 -11.780361288064514 9.923141121612922
      vertex 16.29863133620137 11.720959822006948 9.923141121612922
      vertex -16.29863133620137 -11.720959822006948 9.923141121612922
    endloop
  endfacet
  facet normal 0 0 1
    outer loop
      vertex -16.551798758565887 -11.551798758565885 9.923141121612922
      vertex 16.29863133620137 11.720959822006948 9.923141121612922
      vertex -16.720959822006947 -11.298631336201371 9.923141121612922
    endloop
  endfacet
  facet normal 0 0 1
    outer loop
      vertex -16.720959822006947 -11.298631336201371 9.923141121612922
      vertex 16.29863133620137 11.720959822006948 9.923141121612922
      vertex -16.780361288064512 -11 9.923141121612922
    endloop
  endfacet
  facet normal -0.38268343236508934 0 -0.9238795325112871
    outer loop
      vertex -18.22228093207841 11 -9.325878449210181
      vertex -16.780361288064512 11 -9.923141121612922
      vertex -18.22228093207841 -11 -9.325878449210181
    endloop
  endfacet
  facet normal -0.7071067811865481 0 -0.707106781186547
    outer loop
      vertex -19.32587844921018 11 -8.222280932078409
      vertex -18.22228093207841 11 -9.325878449210181
      vertex -19.32587844921018 -11 -8.222280932078409
    endloop
  endfacet
  facet normal -0.9238795325112865 0 -0.38268343236509045
    outer loop
      vertex -19.32587844921018 -11 -8.222280932078409
      vertex -19.92314112161292 11 -6.780361288064513
      vertex -19.32587844921018 11 -8.222280932078409
    endloop
  endfacet
  facet normal 0 0 -1
    outer loop
      vertex -16.780361288064512 11 -9.923141121612922
      vertex -16.720959822006947 11.298631336201371 -9.923141121612922
      vertex -16.780361288064512 -11 -9.923141121612922
    endloop
  endfacet
  facet normal -0.38157953112891496 0.07590088788047233 -0.9212144791753946
    outer loop
      vertex -18.22228093207841 11 -9.325878449210181
      vertex -16.720959822006947 11.298631336201371 -9.923141121612922
      vertex -16.780361288064512 11 -9.923141121612922
    endloop
  endfacet
  facet normal -0.3815795311289151 0.07590088788047288 -0.9212144791753945
    outer loop
      vertex -18.053119868637346 11.850430094767257 -9.325878449210181
      vertex -16.720959822006947 11.298631336201371 -9.923141121612922
      vertex -18.22228093207841 11 -9.325878449210181
    endloop
  endfacet
  facet normal -0.7002145072825522 0.13928132531715404 -0.700214507282554
    outer loop
      vertex -19.072711026845667 12.272758580572834 -8.222280932078409
      vertex -18.053119868637346 11.850430094767257 -9.325878449210181
      vertex -18.22228093207841 11 -9.325878449210181
    endloop
  endfacet
  facet normal -0.5936131960090995 0.3966396567602801 -0.700214507282554
    outer loop
      vertex -17.571389916774205 12.571389916774205 -9.325878449210181
      vertex -18.053119868637346 11.850430094767257 -9.325878449210181
      vertex -19.072711026845667 12.272758580572834 -8.222280932078409
    endloop
  endfacet
  facet normal -0.7002145072825539 0.13928132531715193 -0.7002145072825526
    outer loop
      vertex -19.32587844921018 11 -8.222280932078409
      vertex -19.072711026845667 12.272758580572834 -8.222280932078409
      vertex -18.22228093207841 11 -9.325878449210181
    endloop
  endfacet
  facet normal -0.9086633352183308 0.18074437515937175 -0.3763806770786034
    outer loop
      vertex -19.92314112161292 11 -6.780361288064513
      vertex -19.072711026845667 12.272758580572834 -8.222280932078409
      vertex -19.32587844921018 11 -8.222280932078409
    endloop
  endfacet
  facet normal -0.5936131960090991 0.39663965676028307 -0.7002145072825524
    outer loop
      vertex -19.072711026845667 12.272758580572834 -8.222280932078409
      vertex -18.351751204838717 13.351751204838717 -8.222280932078409
      vertex -17.571389916774205 12.571389916774205 -9.325878449210181
    endloop
  endfacet
  facet normal -0.770327579484984 0.5147164328119489 -0.3763806770786039
    outer loop
      vertex -18.774079690644296 13.774079690644296 -6.780361288064513
      vertex -18.351751204838717 13.351751204838717 -8.222280932078409
      vertex -19.072711026845667 12.272758580572834 -8.222280932078409
    endloop
  endfacet
  facet normal -0.3966396567602824 0.5936131960090996 -0.7002145072825523
    outer loop
      vertex -17.571389916774205 12.571389916774205 -9.325878449210181
      vertex -18.351751204838717 13.351751204838717 -8.222280932078409
      vertex -17.272758580572834 14.072711026845665 -8.222280932078409
    endloop
  endfacet
  facet normal -0.514716432811948 0.7703275794849845 -0.3763806770786039
    outer loop
      vertex -17.272758580572834 14.072711026845665 -8.222280932078409
      vertex -18.351751204838717 13.351751204838717 -8.222280932078409
      vertex -18.774079690644296 13.774079690644296 -6.780361288064513
    endloop
  endfacet
  facet normal -0.3234875065416019 0.21614744150487575 -0.9212144791753946
    outer loop
      vertex -16.551798758565887 11.551798758565885 -9.923141121612922
      vertex -16.720959822006947 11.298631336201371 -9.923141121612922
      vertex -18.053119868637346 11.850430094767257 -9.325878449210181
    endloop
  endfacet
  facet normal -0.32348750654160163 0.21614744150487672 -0.9212144791753943
    outer loop
      vertex -17.571389916774205 12.571389916774205 -9.325878449210181
      vertex -16.551798758565887 11.551798758565885 -9.923141121612922
      vertex -18.053119868637346 11.850430094767257 -9.325878449210181
    endloop
  endfacet
  facet normal 0 0 -1
    outer loop
      vertex -16.29863133620137 11.720959822006948 -9.923141121612922
      vertex -16.720959822006947 11.298631336201371 -9.923141121612922
      vertex -16.551798758565887 11.551798758565885 -9.923141121612922
    endloop
  endfacet
  facet normal 0 0 -1
    outer loop
      vertex -16 11.780361288064514 -9.923141121612922
      vertex -16.720959822006947 11.298631336201371 -9.923141121612922
      vertex -16.29863133620137 11.720959822006948 -9.923141121612922
    endloop
  endfacet
  facet normal -0.2161474415048778 0.3234875065416005 -0.9212144791753946
    outer loop
      vertex -16.29863133620137 11.720959822006948 -9.923141121612922
      vertex -16.551798758565887 11.551798758565885 -9.923141121612922
      vertex -17.571389916774205 12.571389916774205 -9.325878449210181
    endloop
  endfacet
  facet normal -0.21614744150487653 0.32348750654160213 -0.9212144791753942
    outer loop
      vertex -17.571389916774205 12.571389916774205 -9.325878449210181
      vertex -16.850430094767255 13.053119868637346 -9.325878449210181
      vertex -16.29863133620137 11.720959822006948 -9.923141121612922
    endloop
  endfacet
  facet normal -0.07590088788047318 0.3815795311289155 -0.9212144791753942
    outer loop
      vertex -16.29863133620137 11.720959822006948 -9.923141121612922
      vertex -16.850430094767255 13.053119868637346 -9.325878449210181
      vertex -16 13.222280932078409 -9.325878449210181
    endloop
  endfacet
  facet normal -0.0759008878804724 0.38157953112891535 -0.9212144791753943
    outer loop
      vertex -16 13.222280932078409 -9.325878449210181
      vertex -16 11.780361288064514 -9.923141121612922
      vertex -16.29863133620137 11.720959822006948 -9.923141121612922
    endloop
  endfacet
  facet normal -0.39663965676027946 0.5936131960091 -0.7002145072825539
    outer loop
      vertex -17.272758580572834 14.072711026845665 -8.222280932078409
      vertex -16.850430094767255 13.053119868637346 -9.325878449210181
      vertex -17.571389916774205 12.571389916774205 -9.325878449210181
    endloop
  endfacet
  facet normal -0.13928132531715448 0.7002145072825525 -0.7002145072825535
    outer loop
      vertex -16 13.222280932078409 -9.325878449210181
      vertex -16.850430094767255 13.053119868637346 -9.325878449210181
      vertex -17.272758580572834 14.072711026845665 -8.222280932078409
    endloop
  endfacet
  facet normal -0.13928132531715373 0.7002145072825531 -0.7002145072825531
    outer loop
      vertex -16 13.222280932078409 -9.325878449210181
      vertex -17.272758580572834 14.072711026845665 -8.222280932078409
      vertex -16 14.325878449210181 -8.222280932078409
    endloop
  endfacet
  facet normal -0.18074437515937433 0.9086633352183306 -0.37638067707860234
    outer loop
      vertex -17.272758580572834 14.072711026845665 -8.222280932078409
      vertex -17.501321110071462 14.62450978541155 -6.780361288064513
      vertex -16 14.325878449210181 -8.222280932078409
    endloop
  endfacet
  facet normal -0.908663335218331 0.18074437515937447 -0.37638067707860123
    outer loop
      vertex -19.62450978541155 12.50132111007146 -6.780361288064513
      vertex -19.072711026845667 12.272758580572834 -8.222280932078409
      vertex -19.92314112161292 11 -6.780361288064513
    endloop
  endfacet
  facet normal -0.7703275794849865 0.514716432811947 -0.3763806770786014
    outer loop
      vertex -18.774079690644296 13.774079690644296 -6.780361288064513
      vertex -19.072711026845667 12.272758580572834 -8.222280932078409
      vertex -19.62450978541155 12.50132111007146 -6.780361288064513
    endloop
  endfacet
  facet normal -0.5147164328119471 0.7703275794849856 -0.3763806770786027
    outer loop
      vertex -18.774079690644296 13.774079690644296 -6.780361288064513
      vertex -17.501321110071462 14.62450978541155 -6.780361288064513
      vertex -17.272758580572834 14.072711026845665 -8.222280932078409
    endloop
  endfacet
  facet normal -0.18074437515937414 0.9086633352183305 -0.3763806770786022
    outer loop
      vertex -16 14.325878449210181 -8.222280932078409
      vertex -17.501321110071462 14.62450978541155 -6.780361288064513
      vertex -16 14.923141121612922 -6.780361288064513
    endloop
  endfacet
  facet normal -0.9807852804032303 0.19509032201612875 0
    outer loop
      vertex -19.62450978541155 12.50132111007146 -6.780361288064513
      vertex -19.92314112161292 11 -6.780361288064513
      vertex -19.62450978541155 12.50132111007146 6.780361288064513
    endloop
  endfacet
  facet normal -0.8314696123025461 0.555570233019601 0
    outer loop
      vertex -18.774079690644296 13.774079690644296 -6.780361288064513
      vertex -19.62450978541155 12.50132111007146 -6.780361288064513
      vertex -18.774079690644296 13.774079690644296 6.780361288064513
    endloop
  endfacet
  facet normal -0.5555702330196014 0.8314696123025457 0
    outer loop
      vertex -18.774079690644296 13.774079690644296 6.780361288064513
      vertex -17.501321110071462 14.62450978541155 -6.780361288064513
      vertex -18.774079690644296 13.774079690644296 -6.780361288064513
    endloop
  endfacet
  facet normal -0.19509032201612853 0.9807852804032304 0
    outer loop
      vertex -16 14.923141121612922 -6.780361288064513
      vertex -17.501321110071462 14.62450978541155 -6.780361288064513
      vertex -16 14.923141121612922 6.780361288064513
    endloop
  endfacet
  facet normal 0 0 -1
    outer loop
      vertex 16 11.780361288064514 -9.923141121612922
      vertex -16.720959822006947 11.298631336201371 -9.923141121612922
      vertex -16 11.780361288064514 -9.923141121612922
    endloop
  endfacet
  facet normal 0 0.3826834323650897 -0.9238795325112868
    outer loop
      vertex 16 13.222280932078409 -9.325878449210181
      vertex -16 11.780361288064514 -9.923141121612922
      vertex -16 13.222280932078409 -9.325878449210181
    endloop
  endfacet
  facet normal 0 0.7071067811865475 -0.7071067811865475
    outer loop
      vertex -16 14.325878449210181 -8.222280932078409
      vertex 16 14.325878449210181 -8.222280932078409
      vertex -16 13.222280932078409 -9.325878449210181
    endloop
  endfacet
  facet normal 0 0.923879532511287 -0.3826834323650895
    outer loop
      vertex -16 14.325878449210181 -8.222280932078409
      vertex -16 14.923141121612922 -6.780361288064513
      vertex 16 14.325878449210181 -8.222280932078409
    endloop
  endfacet
  facet normal -1 0 0
    outer loop
      vertex -19.92314112161292 11 6.780361288064513
      vertex -19.92314112161292 11 -6.780361288064513
      vertex -19.92314112161292 -11 6.780361288064513
    endloop
  endfacet
  facet normal -0.9238795325112865 0 0.38268343236509045
    outer loop
      vertex -19.92314112161292 11 6.780361288064513
      vertex -19.92314112161292 -11 6.780361288064513
      vertex -19.32587844921018 11 8.222280932078409
    endloop
  endfacet
  facet normal -0.7071067811865481 0 0.707106781186547
    outer loop
      vertex -19.32587844921018 -11 8.222280932078409
      vertex -18.22228093207841 11 9.325878449210181
      vertex -19.32587844921018 11 8.222280932078409
    endloop
  endfacet
  facet normal -0.38268343236508934 0 0.9238795325112871
    outer loop
      vertex -18.22228093207841 11 9.325878449210181
      vertex -16.780361288064512 -11 9.923141121612922
      vertex -16.780361288064512 11 9.923141121612922
    endloop
  endfacet
  facet normal -0.9807852804032303 0.19509032201612875 0
    outer loop
      vertex -19.62450978541155 12.50132111007146 6.780361288064513
      vertex -19.92314112161292 11 -6.780361288064513
      vertex -19.92314112161292 11 6.780361288064513
    endloop
  endfacet
  facet normal -0.8314696123025461 0.555570233019601 0
    outer loop
      vertex -18.774079690644296 13.774079690644296 6.780361288064513
      vertex -19.62450978541155 12.50132111007146 -6.780361288064513
      vertex -19.62450978541155 12.50132111007146 6.780361288064513
    endloop
  endfacet
  facet normal -0.5555702330196014 0.8314696123025457 0
    outer loop
      vertex -17.501321110071462 14.62450978541155 6.780361288064513
      vertex -17.501321110071462 14.62450978541155 -6.780361288064513
      vertex -18.774079690644296 13.774079690644296 6.780361288064513
    endloop
  endfacet
  facet normal -0.19509032201612853 0.9807852804032304 0
    outer loop
      vertex -16 14.923141121612922 6.780361288064513
      vertex -17.501321110071462 14.62450978541155 -6.780361288064513
      vertex -17.501321110071462 14.62450978541155 6.780361288064513
    endloop
  endfacet
  facet normal -0.38157953112891496 0.07590088788047233 0.9212144791753946
    outer loop
      vertex -16.780361288064512 11 9.923141121612922
      vertex -16.720959822006947 11.298631336201371 9.923141121612922
      vertex -18.22228093207841 11 9.325878449210181
    endloop
  endfacet
  facet normal -0.908663335218331 0.18074437515937442 0.37638067707860123
    outer loop
      vertex -19.072711026845667 12.272758580572834 8.222280932078409
      vertex -19.62450978541155 12.50132111007146 6.780361288064513
      vertex -19.92314112161292 11 6.780361288064513
    endloop
  endfacet
  facet normal -0.7703275794849865 0.514716432811947 0.3763806770786014
    outer loop
      vertex -18.774079690644296 13.774079690644296 6.780361288064513
      vertex -19.62450978541155 12.50132111007146 6.780361288064513
      vertex -19.072711026845667 12.272758580572834 8.222280932078409
    endloop
  endfacet
  facet normal -0.5147164328119471 0.7703275794849856 0.3763806770786027
    outer loop
      vertex -17.272758580572834 14.072711026845665 8.222280932078409
      vertex -17.501321110071462 14.62450978541155 6.780361288064513
      vertex -18.774079690644296 13.774079690644296 6.780361288064513
    endloop
  endfacet
  facet normal -0.18074437515937414 0.9086633352183305 0.3763806770786022
    outer loop
      vertex -16 14.325878449210181 8.222280932078409
      vertex -16 14.923141121612922 6.780361288064513
      vertex -17.501321110071462 14.62450978541155 6.780361288064513
    endloop
  endfacet
  facet normal -0.9086633352183306 0.1807443751593718 0.3763806770786033
    outer loop
      vertex -19.32587844921018 11 8.222280932078409
      vertex -19.072711026845667 12.272758580572834 8.222280932078409
      vertex -19.92314112161292 11 6.780361288064513
    endloop
  endfacet
  facet normal -0.7002145072825539 0.13928132531715193 0.7002145072825526
    outer loop
      vertex -19.32587844921018 11 8.222280932078409
      vertex -18.22228093207841 11 9.325878449210181
      vertex -19.072711026845667 12.272758580572834 8.222280932078409
    endloop
  endfacet
  facet normal -0.5936131960090991 0.39663965676028307 0.7002145072825525
    outer loop
      vertex -18.351751204838717 13.351751204838717 8.222280932078409
      vertex -19.072711026845667 12.272758580572834 8.222280932078409
      vertex -17.571389916774205 12.571389916774205 9.325878449210181
    endloop
  endfacet
  facet normal -0.7002145072825522 0.13928132531715412 0.7002145072825539
    outer loop
      vertex -18.22228093207841 11 9.325878449210181
      vertex -18.053119868637346 11.850430094767257 9.325878449210181
      vertex -19.072711026845667 12.272758580572834 8.222280932078409
    endloop
  endfacet
  facet normal -0.3815795311289151 0.07590088788047288 0.9212144791753945
    outer loop
      vertex -18.22228093207841 11 9.325878449210181
      vertex -16.720959822006947 11.298631336201371 9.923141121612922
      vertex -18.053119868637346 11.850430094767257 9.325878449210181
    endloop
  endfacet
  facet normal -0.5936131960090995 0.3966396567602802 0.7002145072825539
    outer loop
      vertex -19.072711026845667 12.272758580572834 8.222280932078409
      vertex -18.053119868637346 11.850430094767257 9.325878449210181
      vertex -17.571389916774205 12.571389916774205 9.325878449210181
    endloop
  endfacet
  facet normal -0.770327579484984 0.514716432811949 0.3763806770786039
    outer loop
      vertex -18.351751204838717 13.351751204838717 8.222280932078409
      vertex -18.774079690644296 13.774079690644296 6.780361288064513
      vertex -19.072711026845667 12.272758580572834 8.222280932078409
    endloop
  endfacet
  facet normal -0.514716432811948 0.7703275794849845 0.3763806770786039
    outer loop
      vertex -17.272758580572834 14.072711026845665 8.222280932078409
      vertex -18.774079690644296 13.774079690644296 6.780361288064513
      vertex -18.351751204838717 13.351751204838717 8.222280932078409
    endloop
  endfacet
  facet normal -0.3966396567602824 0.5936131960090996 0.7002145072825523
    outer loop
      vertex -17.571389916774205 12.571389916774205 9.325878449210181
      vertex -17.272758580572834 14.072711026845665 8.222280932078409
      vertex -18.351751204838717 13.351751204838717 8.222280932078409
    endloop
  endfacet
  facet normal -0.32348750654160197 0.21614744150487572 0.9212144791753946
    outer loop
      vertex -18.053119868637346 11.850430094767257 9.325878449210181
      vertex -16.720959822006947 11.298631336201371 9.923141121612922
      vertex -16.551798758565887 11.551798758565885 9.923141121612922
    endloop
  endfacet
  facet normal -0.3234875065416017 0.21614744150487675 0.9212144791753943
    outer loop
      vertex -18.053119868637346 11.850430094767257 9.325878449210181
      vertex -16.551798758565887 11.551798758565885 9.923141121612922
      vertex -17.571389916774205 12.571389916774205 9.325878449210181
    endloop
  endfacet
  facet normal -0.2161474415048778 0.3234875065416005 0.9212144791753946
    outer loop
      vertex -16.551798758565887 11.551798758565885 9.923141121612922
      vertex -16.29863133620137 11.720959822006948 9.923141121612922
      vertex -17.571389916774205 12.571389916774205 9.325878449210181
    endloop
  endfacet
  facet normal -0.21614744150487653 0.32348750654160213 0.9212144791753942
    outer loop
      vertex -17.571389916774205 12.571389916774205 9.325878449210181
      vertex -16.29863133620137 11.720959822006948 9.923141121612922
      vertex -16.850430094767255 13.053119868637346 9.325878449210181
    endloop
  endfacet
  facet normal -0.07590088788047311 0.3815795311289154 0.9212144791753942
    outer loop
      vertex -16.850430094767255 13.053119868637346 9.325878449210181
      vertex -16.29863133620137 11.720959822006948 9.923141121612922
      vertex -16 13.222280932078409 9.325878449210181
    endloop
  endfacet
  facet normal -0.0759008878804724 0.38157953112891535 0.9212144791753943
    outer loop
      vertex -16 13.222280932078409 9.325878449210181
      vertex -16.29863133620137 11.720959822006948 9.923141121612922
      vertex -16 11.780361288064514 9.923141121612922
    endloop
  endfacet
  facet normal -0.13928132531715373 0.7002145072825531 0.7002145072825531
    outer loop
      vertex -17.272758580572834 14.072711026845665 8.222280932078409
      vertex -16 13.222280932078409 9.325878449210181
      vertex -16 14.325878449210181 8.222280932078409
    endloop
  endfacet
  facet normal -0.18074437515937433 0.9086633352183306 0.3763806770786024
    outer loop
      vertex -16 14.325878449210181 8.222280932078409
      vertex -17.501321110071462 14.62450978541155 6.780361288064513
      vertex -17.272758580572834 14.072711026845665 8.222280932078409
    endloop
  endfacet
  facet normal -0.39663965676027946 0.5936131960091 0.7002145072825537
    outer loop
      vertex -17.571389916774205 12.571389916774205 9.325878449210181
      vertex -16.850430094767255 13.053119868637346 9.325878449210181
      vertex -17.272758580572834 14.072711026845665 8.222280932078409
    endloop
  endfacet
  facet normal -0.13928132531715456 0.7002145072825526 0.7002145072825535
    outer loop
      vertex -17.272758580572834 14.072711026845665 8.222280932078409
      vertex -16.850430094767255 13.053119868637346 9.325878449210181
      vertex -16 13.222280932078409 9.325878449210181
    endloop
  endfacet
  facet normal 0 0 1
    outer loop
      vertex -16.780361288064512 -11 9.923141121612922
      vertex 16.29863133620137 11.720959822006948 9.923141121612922
      vertex -16.780361288064512 11 9.923141121612922
    endloop
  endfacet
  facet normal 0 1 0
    outer loop
      vertex 16 14.923141121612922 6.780361288064513
      vertex -16 14.923141121612922 -6.780361288064513
      vertex -16 14.923141121612922 6.780361288064513
    endloop
  endfacet
  facet normal 0 0 1
    outer loop
      vertex -16.780361288064512 11 9.923141121612922
      vertex 16.29863133620137 11.720959822006948 9.923141121612922
      vertex -16.720959822006947 11.298631336201371 9.923141121612922
    endloop
  endfacet
  facet normal 0 0 1
    outer loop
      vertex -16.720959822006947 11.298631336201371 9.923141121612922
      vertex 16.29863133620137 11.720959822006948 9.923141121612922
      vertex -16.551798758565887 11.551798758565885 9.923141121612922
    endloop
  endfacet
  facet normal 0 0 1
    outer loop
      vertex -16.551798758565887 11.551798758565885 9.923141121612922
      vertex 16.29863133620137 11.720959822006948 9.923141121612922
      vertex -16.29863133620137 11.720959822006948 9.923141121612922
    endloop
  endfacet
  facet normal 0 0 1
    outer loop
      vertex -16.29863133620137 11.720959822006948 9.923141121612922
      vertex 16.29863133620137 11.720959822006948 9.923141121612922
      vertex -16 11.780361288064514 9.923141121612922
    endloop
  endfacet
  facet normal 0 0.3826834323650897 0.9238795325112868
    outer loop
      vertex -16 11.780361288064514 9.923141121612922
      vertex 16 11.780361288064514 9.923141121612922
      vertex -16 13.222280932078409 9.325878449210181
    endloop
  endfacet
  facet normal 0 0.923879532511287 0.3826834323650895
    outer loop
      vertex 16 14.325878449210181 8.222280932078409
      vertex -16 14.923141121612922 6.780361288064513
      vertex -16 14.325878449210181 8.222280932078409
    endloop
  endfacet
  facet normal 0 0.7071067811865475 0.7071067811865475
    outer loop
      vertex -16 13.222280932078409 9.325878449210181
      vertex 16 13.222280932078409 9.325878449210181
      vertex -16 14.325878449210181 8.222280932078409
    endloop
  endfacet
  facet normal 0 -0.923879532511287 -0.3826834323650895
    outer loop
      vertex 16 -14.923141121612922 -6.780361288064513
      vertex -16 -14.325878449210181 -8.222280932078409
      vertex 16 -14.325878449210181 -8.222280932078409
    endloop
  endfacet
  facet normal 0 -0.7071067811865475 -0.7071067811865475
    outer loop
      vertex 16 -14.325878449210181 -8.222280932078409
      vertex -16 -14.325878449210181 -8.222280932078409
      vertex 16 -13.222280932078409 -9.325878449210181
    endloop
  endfacet
  facet normal 0 -0.3826834323650897 -0.9238795325112868
    outer loop
      vertex 16 -13.222280932078409 -9.325878449210181
      vertex -16 -11.780361288064514 -9.923141121612922
      vertex 16 -11.780361288064514 -9.923141121612922
    endloop
  endfacet
  facet normal 0 -1 0
    outer loop
      vertex 16 -14.923141121612922 6.780361288064513
      vertex -16 -14.923141121612922 -6.780361288064513
      vertex 16 -14.923141121612922 -6.780361288064513
    endloop
  endfacet
  facet normal 0 0 -1
    outer loop
      vertex 16 -11.780361288064514 -9.923141121612922
      vertex -16.720959822006947 11.298631336201371 -9.923141121612922
      vertex 16.29863133620137 -11.720959822006948 -9.923141121612922
    endloop
  endfacet
  facet normal 0 0 -1
    outer loop
      vertex 16.29863133620137 -11.720959822006948 -9.923141121612922
      vertex -16.720959822006947 11.298631336201371 -9.923141121612922
      vertex 16.551798758565887 -11.551798758565885 -9.923141121612922
    endloop
  endfacet
  facet normal 0 0 -1
    outer loop
      vertex 16.551798758565887 -11.551798758565885 -9.923141121612922
      vertex -16.720959822006947 11.298631336201371 -9.923141121612922
      vertex 16.720959822006947 -11.298631336201371 -9.923141121612922
    endloop
  endfacet
  facet normal 0 0 -1
    outer loop
      vertex 16.720959822006947 -11.298631336201371 -9.923141121612922
      vertex -16.720959822006947 11.298631336201371 -9.923141121612922
      vertex 16.780361288064512 -11 -9.923141121612922
    endloop
  endfacet
  facet normal 0.13928132531715448 -0.7002145072825525 -0.7002145072825535
    outer loop
      vertex 16 -13.222280932078409 -9.325878449210181
      vertex 16.850430094767255 -13.053119868637346 -9.325878449210181
      vertex 17.272758580572834 -14.072711026845665 -8.222280932078409
    endloop
  endfacet
  facet normal 0.3966396567602795 -0.5936131960091 -0.7002145072825539
    outer loop
      vertex 16.850430094767255 -13.053119868637346 -9.325878449210181
      vertex 17.571389916774205 -12.571389916774205 -9.325878449210181
      vertex 17.272758580572834 -14.072711026845665 -8.222280932078409
    endloop
  endfacet
  facet normal 0.18074437515937433 -0.9086633352183306 -0.37638067707860234
    outer loop
      vertex 17.272758580572834 -14.072711026845665 -8.222280932078409
      vertex 17.501321110071462 -14.62450978541155 -6.780361288064513
      vertex 16 -14.325878449210181 -8.222280932078409
    endloop
  endfacet
  facet normal 0.13928132531715373 -0.7002145072825531 -0.7002145072825531
    outer loop
      vertex 17.272758580572834 -14.072711026845665 -8.222280932078409
      vertex 16 -14.325878449210181 -8.222280932078409
      vertex 16 -13.222280932078409 -9.325878449210181
    endloop
  endfacet
  facet normal 0.0759008878804724 -0.38157953112891535 -0.9212144791753943
    outer loop
      vertex 16 -11.780361288064514 -9.923141121612922
      vertex 16.29863133620137 -11.720959822006948 -9.923141121612922
      vertex 16 -13.222280932078409 -9.325878449210181
    endloop
  endfacet
  facet normal 0.07590088788047318 -0.3815795311289155 -0.9212144791753942
    outer loop
      vertex 16.29863133620137 -11.720959822006948 -9.923141121612922
      vertex 16.850430094767255 -13.053119868637346 -9.325878449210181
      vertex 16 -13.222280932078409 -9.325878449210181
    endloop
  endfacet
  facet normal 0.2161474415048765 -0.32348750654160213 -0.9212144791753942
    outer loop
      vertex 16.29863133620137 -11.720959822006948 -9.923141121612922
      vertex 17.571389916774205 -12.571389916774205 -9.325878449210181
      vertex 16.850430094767255 -13.053119868637346 -9.325878449210181
    endloop
  endfacet
  facet normal 0.2161474415048778 -0.3234875065416005 -0.9212144791753946
    outer loop
      vertex 16.551798758565887 -11.551798758565885 -9.923141121612922
      vertex 17.571389916774205 -12.571389916774205 -9.325878449210181
      vertex 16.29863133620137 -11.720959822006948 -9.923141121612922
    endloop
  endfacet
  facet normal 0.3234875065416017 -0.21614744150487675 -0.9212144791753943
    outer loop
      vertex 18.053119868637346 -11.850430094767257 -9.325878449210181
      vertex 17.571389916774205 -12.571389916774205 -9.325878449210181
      vertex 16.551798758565887 -11.551798758565885 -9.923141121612922
    endloop
  endfacet
  facet normal 0.3234875065416019 -0.21614744150487575 -0.9212144791753946
    outer loop
      vertex 16.551798758565887 -11.551798758565885 -9.923141121612922
      vertex 16.720959822006947 -11.298631336201371 -9.923141121612922
      vertex 18.053119868637346 -11.850430094767257 -9.325878449210181
    endloop
  endfacet
  facet normal 0.3966396567602824 -0.5936131960090996 -0.7002145072825524
    outer loop
      vertex 17.272758580572834 -14.072711026845665 -8.222280932078409
      vertex 17.571389916774205 -12.571389916774205 -9.325878449210181
      vertex 18.351751204838717 -13.351751204838717 -8.222280932078409
    endloop
  endfacet
  facet normal 0.514716432811948 -0.7703275794849845 -0.3763806770786039
    outer loop
      vertex 17.272758580572834 -14.072711026845665 -8.222280932078409
      vertex 18.351751204838717 -13.351751204838717 -8.222280932078409
      vertex 18.774079690644296 -13.774079690644296 -6.780361288064513
    endloop
  endfacet
  facet normal 0.770327579484984 -0.5147164328119489 -0.3763806770786039
    outer loop
      vertex 18.774079690644296 -13.774079690644296 -6.780361288064513
      vertex 18.351751204838717 -13.351751204838717 -8.222280932078409
      vertex 19.072711026845667 -12.272758580572834 -8.222280932078409
    endloop
  endfacet
  facet normal 0.5936131960090995 -0.3966396567602802 -0.7002145072825539
    outer loop
      vertex 19.072711026845667 -12.272758580572834 -8.222280932078409
      vertex 17.571389916774205 -12.571389916774205 -9.325878449210181
      vertex 18.053119868637346 -11.850430094767257 -9.325878449210181
    endloop
  endfacet
  facet normal 0.3815795311289151 -0.07590088788047288 -0.9212144791753945
    outer loop
      vertex 18.053119868637346 -11.850430094767257 -9.325878449210181
      vertex 16.720959822006947 -11.298631336201371 -9.923141121612922
      vertex 18.22228093207841 -11 -9.325878449210181
    endloop
  endfacet
  facet normal 0.7002145072825522 -0.13928132531715412 -0.7002145072825539
    outer loop
      vertex 18.22228093207841 -11 -9.325878449210181
      vertex 19.072711026845667 -12.272758580572834 -8.222280932078409
      vertex 18.053119868637346 -11.850430094767257 -9.325878449210181
    endloop
  endfacet
  facet normal 0.5936131960090991 -0.39663965676028307 -0.7002145072825525
    outer loop
      vertex 18.351751204838717 -13.351751204838717 -8.222280932078409
      vertex 17.571389916774205 -12.571389916774205 -9.325878449210181
      vertex 19.072711026845667 -12.272758580572834 -8.222280932078409
    endloop
  endfacet
  facet normal 0.7002145072825539 -0.13928132531715193 -0.7002145072825526
    outer loop
      vertex 19.32587844921018 -11 -8.222280932078409
      vertex 19.072711026845667 -12.272758580572834 -8.222280932078409
      vertex 18.22228093207841 -11 -9.325878449210181
    endloop
  endfacet
  facet normal 0.9086633352183308 -0.18074437515937175 -0.3763806770786034
    outer loop
      vertex 19.92314112161292 -11 -6.780361288064513
      vertex 19.072711026845667 -12.272758580572834 -8.222280932078409
      vertex 19.32587844921018 -11 -8.222280932078409
    endloop
  endfacet
  facet normal 0.18074437515937414 -0.9086633352183305 -0.3763806770786022
    outer loop
      vertex 16 -14.325878449210181 -8.222280932078409
      vertex 17.501321110071462 -14.62450978541155 -6.780361288064513
      vertex 16 -14.923141121612922 -6.780361288064513
    endloop
  endfacet
  facet normal 0.5147164328119471 -0.7703275794849856 -0.3763806770786027
    outer loop
      vertex 18.774079690644296 -13.774079690644296 -6.780361288064513
      vertex 17.501321110071462 -14.62450978541155 -6.780361288064513
      vertex 17.272758580572834 -14.072711026845665 -8.222280932078409
    endloop
  endfacet
  facet normal 0.7703275794849865 -0.514716432811947 -0.3763806770786014
    outer loop
      vertex 18.774079690644296 -13.774079690644296 -6.780361288064513
      vertex 19.072711026845667 -12.272758580572834 -8.222280932078409
      vertex 19.62450978541155 -12.50132111007146 -6.780361288064513
    endloop
  endfacet
  facet normal 0.908663335218331 -0.18074437515937447 -0.37638067707860123
    outer loop
      vertex 19.62450978541155 -12.50132111007146 -6.780361288064513
      vertex 19.072711026845667 -12.272758580572834 -8.222280932078409
      vertex 19.92314112161292 -11 -6.780361288064513
    endloop
  endfacet
  facet normal 0.38157953112891496 -0.07590088788047233 -0.9212144791753946
    outer loop
      vertex 18.22228093207841 -11 -9.325878449210181
      vertex 16.720959822006947 -11.298631336201371 -9.923141121612922
      vertex 16.780361288064512 -11 -9.923141121612922
    endloop
  endfacet
  facet normal 0.19509032201612853 -0.9807852804032304 0
    outer loop
      vertex 16 -14.923141121612922 -6.780361288064513
      vertex 17.501321110071462 -14.62450978541155 -6.780361288064513
      vertex 16 -14.923141121612922 6.780361288064513
    endloop
  endfacet
  facet normal 0.5555702330196014 -0.8314696123025457 0
    outer loop
      vertex 18.774079690644296 -13.774079690644296 6.780361288064513
      vertex 17.501321110071462 -14.62450978541155 -6.780361288064513
      vertex 18.774079690644296 -13.774079690644296 -6.780361288064513
    endloop
  endfacet
  facet normal 0.8314696123025461 -0.555570233019601 0
    outer loop
      vertex 18.774079690644296 -13.774079690644296 -6.780361288064513
      vertex 19.62450978541155 -12.50132111007146 -6.780361288064513
      vertex 18.774079690644296 -13.774079690644296 6.780361288064513
    endloop
  endfacet
  facet normal 0.9807852804032303 -0.19509032201612875 0
    outer loop
      vertex 19.92314112161292 -11 6.780361288064513
      vertex 19.62450978541155 -12.50132111007146 -6.780361288064513
      vertex 19.92314112161292 -11 -6.780361288064513
    endloop
  endfacet
  facet normal 0.38268343236508934 0 -0.9238795325112871
    outer loop
      vertex 16.780361288064512 -11 -9.923141121612922
      vertex 18.22228093207841 11 -9.325878449210181
      vertex 18.22228093207841 -11 -9.325878449210181
    endloop
  endfacet
  facet normal 0.7071067811865481 0 -0.707106781186547
    outer loop
      vertex 18.22228093207841 -11 -9.325878449210181
      vertex 19.32587844921018 11 -8.222280932078409
      vertex 19.32587844921018 -11 -8.222280932078409
    endloop
  endfacet
  facet normal 0.9238795325112865 0 -0.38268343236509045
    outer loop
      vertex 19.32587844921018 -11 -8.222280932078409
      vertex 19.32587844921018 11 -8.222280932078409
      vertex 19.92314112161292 -11 -6.780361288064513
    endloop
  endfacet
  facet normal 0 -0.923879532511287 0.3826834323650895
    outer loop
      vertex 16 -14.923141121612922 6.780361288064513
      vertex 16 -14.325878449210181 8.222280932078409
      vertex -16 -14.923141121612922 6.780361288064513
    endloop
  endfacet
  facet normal 0 -0.7071067811865475 0.7071067811865475
    outer loop
      vertex -16 -13.222280932078409 9.325878449210181
      vertex 16 -14.325878449210181 8.222280932078409
      vertex 16 -13.222280932078409 9.325878449210181
    endloop
  endfacet
  facet normal 0 -0.3826834323650897 0.9238795325112868
    outer loop
      vertex 16 -11.780361288064514 9.923141121612922
      vertex -16 -11.780361288064514 9.923141121612922
      vertex 16 -13.222280932078409 9.325878449210181
    endloop
  endfacet
  facet normal 0 0 1
    outer loop
      vertex 16 -11.780361288064514 9.923141121612922
      vertex 16.29863133620137 11.720959822006948 9.923141121612922
      vertex -16 -11.780361288064514 9.923141121612922
    endloop
  endfacet
  facet normal 0.19509032201612853 -0.9807852804032304 0
    outer loop
      vertex 16 -14.923141121612922 6.780361288064513
      vertex 17.501321110071462 -14.62450978541155 -6.780361288064513
      vertex 17.501321110071462 -14.62450978541155 6.780361288064513
    endloop
  endfacet
  facet normal 0.5555702330196014 -0.8314696123025457 0
    outer loop
      vertex 17.501321110071462 -14.62450978541155 6.780361288064513
      vertex 17.501321110071462 -14.62450978541155 -6.780361288064513
      vertex 18.774079690644296 -13.774079690644296 6.780361288064513
    endloop
  endfacet
  facet normal 0.8314696123025461 -0.555570233019601 0
    outer loop
      vertex 18.774079690644296 -13.774079690644296 6.780361288064513
      vertex 19.62450978541155 -12.50132111007146 -6.780361288064513
      vertex 19.62450978541155 -12.50132111007146 6.780361288064513
    endloop
  endfacet
  facet normal 0.9807852804032303 -0.19509032201612875 0
    outer loop
      vertex 19.62450978541155 -12.50132111007146 6.780361288064513
      vertex 19.62450978541155 -12.50132111007146 -6.780361288064513
      vertex 19.92314112161292 -11 6.780361288064513
    endloop
  endfacet
  facet normal 0.18074437515937417 -0.9086633352183305 0.3763806770786022
    outer loop
      vertex 17.501321110071462 -14.62450978541155 6.780361288064513
      vertex 16 -14.325878449210181 8.222280932078409
      vertex 16 -14.923141121612922 6.780361288064513
    endloop
  endfacet
  facet normal 0.5147164328119471 -0.7703275794849856 0.3763806770786027
    outer loop
      vertex 18.774079690644296 -13.774079690644296 6.780361288064513
      vertex 17.272758580572834 -14.072711026845665 8.222280932078409
      vertex 17.501321110071462 -14.62450978541155 6.780361288064513
    endloop
  endfacet
  facet normal 0.7703275794849865 -0.514716432811947 0.3763806770786014
    outer loop
      vertex 19.62450978541155 -12.50132111007146 6.780361288064513
      vertex 19.072711026845667 -12.272758580572834 8.222280932078409
      vertex 18.774079690644296 -13.774079690644296 6.780361288064513
    endloop
  endfacet
  facet normal 0.908663335218331 -0.18074437515937447 0.37638067707860123
    outer loop
      vertex 19.92314112161292 -11 6.780361288064513
      vertex 19.072711026845667 -12.272758580572834 8.222280932078409
      vertex 19.62450978541155 -12.50132111007146 6.780361288064513
    endloop
  endfacet
  facet normal 0.18074437515937433 -0.9086633352183306 0.37638067707860234
    outer loop
      vertex 17.272758580572834 -14.072711026845665 8.222280932078409
      vertex 16 -14.325878449210181 8.222280932078409
      vertex 17.501321110071462 -14.62450978541155 6.780361288064513
    endloop
  endfacet
  facet normal 0.13928132531715373 -0.7002145072825531 0.7002145072825531
    outer loop
      vertex 16 -13.222280932078409 9.325878449210181
      vertex 16 -14.325878449210181 8.222280932078409
      vertex 17.272758580572834 -14.072711026845665 8.222280932078409
    endloop
  endfacet
  facet normal 0.13928132531715448 -0.7002145072825525 0.7002145072825535
    outer loop
      vertex 16 -13.222280932078409 9.325878449210181
      vertex 17.272758580572834 -14.072711026845665 8.222280932078409
      vertex 16.850430094767255 -13.053119868637346 9.325878449210181
    endloop
  endfacet
  facet normal 0.3966396567602795 -0.5936131960091 0.7002145072825539
    outer loop
      vertex 16.850430094767255 -13.053119868637346 9.325878449210181
      vertex 17.272758580572834 -14.072711026845665 8.222280932078409
      vertex 17.571389916774205 -12.571389916774205 9.325878449210181
    endloop
  endfacet
  facet normal 0.0759008878804724 -0.38157953112891535 0.9212144791753943
    outer loop
      vertex 16 -13.222280932078409 9.325878449210181
      vertex 16.29863133620137 -11.720959822006948 9.923141121612922
      vertex 16 -11.780361288064514 9.923141121612922
    endloop
  endfacet
  facet normal 0.07590088788047311 -0.3815795311289154 0.9212144791753942
    outer loop
      vertex 16.850430094767255 -13.053119868637346 9.325878449210181
      vertex 16.29863133620137 -11.720959822006948 9.923141121612922
      vertex 16 -13.222280932078409 9.325878449210181
    endloop
  endfacet
  facet normal 0.21614744150487653 -0.32348750654160213 0.9212144791753942
    outer loop
      vertex 17.571389916774205 -12.571389916774205 9.325878449210181
      vertex 16.29863133620137 -11.720959822006948 9.923141121612922
      vertex 16.850430094767255 -13.053119868637346 9.325878449210181
    endloop
  endfacet
  facet normal 0.2161474415048778 -0.3234875065416005 0.9212144791753946
    outer loop
      vertex 16.551798758565887 -11.551798758565885 9.923141121612922
      vertex 16.29863133620137 -11.720959822006948 9.923141121612922
      vertex 17.571389916774205 -12.571389916774205 9.325878449210181
    endloop
  endfacet
  facet normal 0.32348750654160163 -0.21614744150487672 0.9212144791753943
    outer loop
      vertex 17.571389916774205 -12.571389916774205 9.325878449210181
      vertex 18.053119868637346 -11.850430094767257 9.325878449210181
      vertex 16.551798758565887 -11.551798758565885 9.923141121612922
    endloop
  endfacet
  facet normal 0.3234875065416019 -0.21614744150487575 0.9212144791753946
    outer loop
      vertex 16.551798758565887 -11.551798758565885 9.923141121612922
      vertex 18.053119868637346 -11.850430094767257 9.325878449210181
      vertex 16.720959822006947 -11.298631336201371 9.923141121612922
    endloop
  endfacet
  facet normal 0.514716432811948 -0.7703275794849846 0.37638067707860384
    outer loop
      vertex 18.774079690644296 -13.774079690644296 6.780361288064513
      vertex 18.351751204838717 -13.351751204838717 8.222280932078409
      vertex 17.272758580572834 -14.072711026845665 8.222280932078409
    endloop
  endfacet
  facet normal 0.3966396567602824 -0.5936131960090996 0.7002145072825524
    outer loop
      vertex 17.272758580572834 -14.072711026845665 8.222280932078409
      vertex 18.351751204838717 -13.351751204838717 8.222280932078409
      vertex 17.571389916774205 -12.571389916774205 9.325878449210181
    endloop
  endfacet
  facet normal 0.7703275794849839 -0.5147164328119489 0.3763806770786039
    outer loop
      vertex 19.072711026845667 -12.272758580572834 8.222280932078409
      vertex 18.351751204838717 -13.351751204838717 8.222280932078409
      vertex 18.774079690644296 -13.774079690644296 6.780361288064513
    endloop
  endfacet
  facet normal 0.5936131960090991 -0.39663965676028307 0.7002145072825525
    outer loop
      vertex 17.571389916774205 -12.571389916774205 9.325878449210181
      vertex 18.351751204838717 -13.351751204838717 8.222280932078409
      vertex 19.072711026845667 -12.272758580572834 8.222280932078409
    endloop
  endfacet
  facet normal 0.9086633352183308 -0.18074437515937175 0.3763806770786034
    outer loop
      vertex 19.92314112161292 -11 6.780361288064513
      vertex 19.32587844921018 -11 8.222280932078409
      vertex 19.072711026845667 -12.272758580572834 8.222280932078409
    endloop
  endfacet
  facet normal 0.7002145072825539 -0.13928132531715193 0.7002145072825526
    outer loop
      vertex 19.072711026845667 -12.272758580572834 8.222280932078409
      vertex 19.32587844921018 -11 8.222280932078409
      vertex 18.22228093207841 -11 9.325878449210181
    endloop
  endfacet
  facet normal 0.5936131960090995 -0.3966396567602802 0.7002145072825539
    outer loop
      vertex 19.072711026845667 -12.272758580572834 8.222280932078409
      vertex 18.053119868637346 -11.850430094767257 9.325878449210181
      vertex 17.571389916774205 -12.571389916774205 9.325878449210181
    endloop
  endfacet
  facet normal 0.7002145072825522 -0.13928132531715412 0.7002145072825539
    outer loop
      vertex 18.22228093207841 -11 9.325878449210181
      vertex 18.053119868637346 -11.850430094767257 9.325878449210181
      vertex 19.072711026845667 -12.272758580572834 8.222280932078409
    endloop
  endfacet
  facet normal 0.3815795311289151 -0.07590088788047285 0.9212144791753945
    outer loop
      vertex 16.720959822006947 -11.298631336201371 9.923141121612922
      vertex 18.053119868637346 -11.850430094767257 9.325878449210181
      vertex 18.22228093207841 -11 9.325878449210181
    endloop
  endfacet
  facet normal 0.38157953112891496 -0.07590088788047233 0.9212144791753946
    outer loop
      vertex 16.780361288064512 -11 9.923141121612922
      vertex 16.720959822006947 -11.298631336201371 9.923141121612922
      vertex 18.22228093207841 -11 9.325878449210181
    endloop
  endfacet
  facet normal 1 0 0
    outer loop
      vertex 19.92314112161292 -11 -6.780361288064513
      vertex 19.92314112161292 11 6.780361288064513
      vertex 19.92314112161292 -11 6.780361288064513
    endloop
  endfacet
  facet normal 0 0 1
    outer loop
      vertex 16.29863133620137 -11.720959822006948 9.923141121612922
      vertex 16.29863133620137 11.720959822006948 9.923141121612922
      vertex 16 -11.780361288064514 9.923141121612922
    endloop
  endfacet
  facet normal 0 0 1
    outer loop
      vertex 16.551798758565887 -11.551798758565885 9.923141121612922
      vertex 16.29863133620137 11.720959822006948 9.923141121612922
      vertex 16.29863133620137 -11.720959822006948 9.923141121612922
    endloop
  endfacet
  facet normal 0.9238795325112865 0 0.38268343236509045
    outer loop
      vertex 19.92314112161292 11 6.780361288064513
      vertex 19.32587844921018 -11 8.222280932078409
      vertex 19.92314112161292 -11 6.780361288064513
    endloop
  endfacet
  facet normal 0 0 1
    outer loop
      vertex 16.720959822006947 -11.298631336201371 9.923141121612922
      vertex 16.29863133620137 11.720959822006948 9.923141121612922
      vertex 16.551798758565887 -11.551798758565885 9.923141121612922
    endloop
  endfacet
  facet normal 0 0 1
    outer loop
      vertex 16.780361288064512 -11 9.923141121612922
      vertex 16.29863133620137 11.720959822006948 9.923141121612922
      vertex 16.720959822006947 -11.298631336201371 9.923141121612922
    endloop
  endfacet
  facet normal 0.38268343236508934 0 0.9238795325112871
    outer loop
      vertex 18.22228093207841 -11 9.325878449210181
      vertex 16.780361288064512 11 9.923141121612922
      vertex 16.780361288064512 -11 9.923141121612922
    endloop
  endfacet
  facet normal 0.7071067811865481 0 0.707106781186547
    outer loop
      vertex 18.22228093207841 -11 9.325878449210181
      vertex 19.32587844921018 -11 8.222280932078409
      vertex 18.22228093207841 11 9.325878449210181
    endloop
  endfacet
  facet normal 0 0 -1
    outer loop
      vertex 16.780361288064512 -11 -9.923141121612922
      vertex -16.720959822006947 11.298631336201371 -9.923141121612922
      vertex 16.780361288064512 11 -9.923141121612922
    endloop
  endfacet
  facet normal 0 0 -1
    outer loop
      vertex 16.29863133620137 11.720959822006948 -9.923141121612922
      vertex -16.720959822006947 11.298631336201371 -9.923141121612922
      vertex 16 11.780361288064514 -9.923141121612922
    endloop
  endfacet
  facet normal 0 0 -1
    outer loop
      vertex 16.780361288064512 11 -9.923141121612922
      vertex -16.720959822006947 11.298631336201371 -9.923141121612922
      vertex 16.720959822006947 11.298631336201371 -9.923141121612922
    endloop
  endfacet
  facet normal 0 0 -1
    outer loop
      vertex 16.720959822006947 11.298631336201371 -9.923141121612922
      vertex -16.720959822006947 11.298631336201371 -9.923141121612922
      vertex 16.551798758565887 11.551798758565885 -9.923141121612922
    endloop
  endfacet
  facet normal 0 0 -1
    outer loop
      vertex 16.551798758565887 11.551798758565885 -9.923141121612922
      vertex -16.720959822006947 11.298631336201371 -9.923141121612922
      vertex 16.29863133620137 11.720959822006948 -9.923141121612922
    endloop
  endfacet
  facet normal 0 0.3826834323650897 -0.9238795325112868
    outer loop
      vertex 16 11.780361288064514 -9.923141121612922
      vertex -16 11.780361288064514 -9.923141121612922
      vertex 16 13.222280932078409 -9.325878449210181
    endloop
  endfacet
  facet normal 0 0.7071067811865475 -0.7071067811865475
    outer loop
      vertex -16 13.222280932078409 -9.325878449210181
      vertex 16 14.325878449210181 -8.222280932078409
      vertex 16 13.222280932078409 -9.325878449210181
    endloop
  endfacet
  facet normal 0 0.923879532511287 -0.3826834323650895
    outer loop
      vertex 16 14.325878449210181 -8.222280932078409
      vertex -16 14.923141121612922 -6.780361288064513
      vertex 16 14.923141121612922 -6.780361288064513
    endloop
  endfacet
  facet normal 0 1 0
    outer loop
      vertex 16 14.923141121612922 -6.780361288064513
      vertex -16 14.923141121612922 -6.780361288064513
      vertex 16 14.923141121612922 6.780361288064513
    endloop
  endfacet
  facet normal 0.38268343236508934 0 -0.9238795325112871
    outer loop
      vertex 16.780361288064512 11 -9.923141121612922
      vertex 18.22228093207841 11 -9.325878449210181
      vertex 16.780361288064512 -11 -9.923141121612922
    endloop
  endfacet
  facet normal 0.7071067811865481 0 -0.707106781186547
    outer loop
      vertex 18.22228093207841 11 -9.325878449210181
      vertex 19.32587844921018 11 -8.222280932078409
      vertex 18.22228093207841 -11 -9.325878449210181
    endloop
  endfacet
  facet normal 0.9238795325112865 0 -0.38268343236509045
    outer loop
      vertex 19.92314112161292 -11 -6.780361288064513
      vertex 19.32587844921018 11 -8.222280932078409
      vertex 19.92314112161292 11 -6.780361288064513
    endloop
  endfacet
  facet normal 1 0 0
    outer loop
      vertex 19.92314112161292 11 -6.780361288064513
      vertex 19.92314112161292 11 6.780361288064513
      vertex 19.92314112161292 -11 -6.780361288064513
    endloop
  endfacet
  facet normal 0.38157953112891496 0.07590088788047233 -0.9212144791753946
    outer loop
      vertex 16.780361288064512 11 -9.923141121612922
      vertex 16.720959822006947 11.298631336201371 -9.923141121612922
      vertex 18.22228093207841 11 -9.325878449210181
    endloop
  endfacet
  facet normal 0.0759008878804724 0.38157953112891535 -0.9212144791753943
    outer loop
      vertex 16 13.222280932078409 -9.325878449210181
      vertex 16.29863133620137 11.720959822006948 -9.923141121612922
      vertex 16 11.780361288064514 -9.923141121612922
    endloop
  endfacet
  facet normal 0.2161474415048778 0.3234875065416005 -0.9212144791753946
    outer loop
      vertex 16.29863133620137 11.720959822006948 -9.923141121612922
      vertex 17.571389916774205 12.571389916774205 -9.325878449210181
      vertex 16.551798758565887 11.551798758565885 -9.923141121612922
    endloop
  endfacet
  facet normal 0.32348750654160197 0.21614744150487572 -0.9212144791753946
    outer loop
      vertex 18.053119868637346 11.850430094767257 -9.325878449210181
      vertex 16.720959822006947 11.298631336201371 -9.923141121612922
      vertex 16.551798758565887 11.551798758565885 -9.923141121612922
    endloop
  endfacet
  facet normal 0.3234875065416017 0.2161474415048767 -0.9212144791753943
    outer loop
      vertex 16.551798758565887 11.551798758565885 -9.923141121612922
      vertex 17.571389916774205 12.571389916774205 -9.325878449210181
      vertex 18.053119868637346 11.850430094767257 -9.325878449210181
    endloop
  endfacet
  facet normal 0.07590088788047311 0.3815795311289154 -0.9212144791753942
    outer loop
      vertex 16 13.222280932078409 -9.325878449210181
      vertex 16.850430094767255 13.053119868637346 -9.325878449210181
      vertex 16.29863133620137 11.720959822006948 -9.923141121612922
    endloop
  endfacet
  facet normal 0.2161474415048765 0.32348750654160213 -0.9212144791753942
    outer loop
      vertex 16.29863133620137 11.720959822006948 -9.923141121612922
      vertex 16.850430094767255 13.053119868637346 -9.325878449210181
      vertex 17.571389916774205 12.571389916774205 -9.325878449210181
    endloop
  endfacet
  facet normal 0.13928132531715456 0.7002145072825526 -0.7002145072825535
    outer loop
      vertex 17.272758580572834 14.072711026845665 -8.222280932078409
      vertex 16.850430094767255 13.053119868637346 -9.325878449210181
      vertex 16 13.222280932078409 -9.325878449210181
    endloop
  endfacet
  facet normal 0.39663965676027946 0.5936131960091 -0.7002145072825537
    outer loop
      vertex 17.571389916774205 12.571389916774205 -9.325878449210181
      vertex 16.850430094767255 13.053119868637346 -9.325878449210181
      vertex 17.272758580572834 14.072711026845665 -8.222280932078409
    endloop
  endfacet
  facet normal 0.13928132531715373 0.7002145072825531 -0.7002145072825531
    outer loop
      vertex 16 13.222280932078409 -9.325878449210181
      vertex 16 14.325878449210181 -8.222280932078409
      vertex 17.272758580572834 14.072711026845665 -8.222280932078409
    endloop
  endfacet
  facet normal 0.18074437515937433 0.9086633352183306 -0.37638067707860234
    outer loop
      vertex 17.272758580572834 14.072711026845665 -8.222280932078409
      vertex 16 14.325878449210181 -8.222280932078409
      vertex 17.501321110071462 14.62450978541155 -6.780361288064513
    endloop
  endfacet
  facet normal 0.3815795311289151 0.07590088788047288 -0.9212144791753945
    outer loop
      vertex 18.22228093207841 11 -9.325878449210181
      vertex 16.720959822006947 11.298631336201371 -9.923141121612922
      vertex 18.053119868637346 11.850430094767257 -9.325878449210181
    endloop
  endfacet
  facet normal 0.7002145072825522 0.13928132531715412 -0.7002145072825539
    outer loop
      vertex 18.053119868637346 11.850430094767257 -9.325878449210181
      vertex 19.072711026845667 12.272758580572834 -8.222280932078409
      vertex 18.22228093207841 11 -9.325878449210181
    endloop
  endfacet
  facet normal 0.5936131960090995 0.3966396567602801 -0.7002145072825537
    outer loop
      vertex 18.053119868637346 11.850430094767257 -9.325878449210181
      vertex 17.571389916774205 12.571389916774205 -9.325878449210181
      vertex 19.072711026845667 12.272758580572834 -8.222280932078409
    endloop
  endfacet
  facet normal 0.5936131960090991 0.39663965676028307 -0.7002145072825524
    outer loop
      vertex 19.072711026845667 12.272758580572834 -8.222280932078409
      vertex 17.571389916774205 12.571389916774205 -9.325878449210181
      vertex 18.351751204838717 13.351751204838717 -8.222280932078409
    endloop
  endfacet
  facet normal 0.7002145072825539 0.13928132531715193 -0.7002145072825526
    outer loop
      vertex 19.072711026845667 12.272758580572834 -8.222280932078409
      vertex 19.32587844921018 11 -8.222280932078409
      vertex 18.22228093207841 11 -9.325878449210181
    endloop
  endfacet
  facet normal 0.9086633352183308 0.18074437515937175 -0.3763806770786034
    outer loop
      vertex 19.92314112161292 11 -6.780361288064513
      vertex 19.32587844921018 11 -8.222280932078409
      vertex 19.072711026845667 12.272758580572834 -8.222280932078409
    endloop
  endfacet
  facet normal 0.3966396567602824 0.5936131960090996 -0.7002145072825524
    outer loop
      vertex 18.351751204838717 13.351751204838717 -8.222280932078409
      vertex 17.571389916774205 12.571389916774205 -9.325878449210181
      vertex 17.272758580572834 14.072711026845665 -8.222280932078409
    endloop
  endfacet
  facet normal 0.514716432811948 0.7703275794849845 -0.3763806770786038
    outer loop
      vertex 18.351751204838717 13.351751204838717 -8.222280932078409
      vertex 17.272758580572834 14.072711026845665 -8.222280932078409
      vertex 18.774079690644296 13.774079690644296 -6.780361288064513
    endloop
  endfacet
  facet normal 0.770327579484984 0.5147164328119489 -0.3763806770786039
    outer loop
      vertex 18.774079690644296 13.774079690644296 -6.780361288064513
      vertex 19.072711026845667 12.272758580572834 -8.222280932078409
      vertex 18.351751204838717 13.351751204838717 -8.222280932078409
    endloop
  endfacet
  facet normal 0.18074437515937417 0.9086633352183305 -0.3763806770786022
    outer loop
      vertex 17.501321110071462 14.62450978541155 -6.780361288064513
      vertex 16 14.325878449210181 -8.222280932078409
      vertex 16 14.923141121612922 -6.780361288064513
    endloop
  endfacet
  facet normal 0.908663335218331 0.18074437515937447 -0.37638067707860123
    outer loop
      vertex 19.92314112161292 11 -6.780361288064513
      vertex 19.072711026845667 12.272758580572834 -8.222280932078409
      vertex 19.62450978541155 12.50132111007146 -6.780361288064513
    endloop
  endfacet
  facet normal 0.7703275794849865 0.514716432811947 -0.3763806770786014
    outer loop
      vertex 19.62450978541155 12.50132111007146 -6.780361288064513
      vertex 19.072711026845667 12.272758580572834 -8.222280932078409
      vertex 18.774079690644296 13.774079690644296 -6.780361288064513
    endloop
  endfacet
  facet normal 0.5147164328119471 0.7703275794849856 -0.3763806770786027
    outer loop
      vertex 17.272758580572834 14.072711026845665 -8.222280932078409
      vertex 17.501321110071462 14.62450978541155 -6.780361288064513
      vertex 18.774079690644296 13.774079690644296 -6.780361288064513
    endloop
  endfacet
  facet normal 0.19509032201612853 0.9807852804032304 0
    outer loop
      vertex 16 14.923141121612922 6.780361288064513
      vertex 17.501321110071462 14.62450978541155 -6.780361288064513
      vertex 16 14.923141121612922 -6.780361288064513
    endloop
  endfacet
  facet normal 0.9807852804032303 0.19509032201612875 0
    outer loop
      vertex 19.92314112161292 11 -6.780361288064513
      vertex 19.62450978541155 12.50132111007146 -6.780361288064513
      vertex 19.92314112161292 11 6.780361288064513
    endloop
  endfacet
  facet normal 0.5555702330196014 0.8314696123025457 0
    outer loop
      vertex 18.774079690644296 13.774079690644296 -6.780361288064513
      vertex 17.501321110071462 14.62450978541155 -6.780361288064513
      vertex 18.774079690644296 13.774079690644296 6.780361288064513
    endloop
  endfacet
  facet normal 0.8314696123025461 0.555570233019601 0
    outer loop
      vertex 18.774079690644296 13.774079690644296 6.780361288064513
      vertex 19.62450978541155 12.50132111007146 -6.780361288064513
      vertex 18.774079690644296 13.774079690644296 -6.780361288064513
    endloop
  endfacet
  facet normal 0 0.923879532511287 0.3826834323650895
    outer loop
      vertex 16 14.923141121612922 6.780361288064513
      vertex -16 14.923141121612922 6.780361288064513
      vertex 16 14.325878449210181 8.222280932078409
    endloop
  endfacet
  facet normal 0 0 1
    outer loop
      vertex -16 11.780361288064514 9.923141121612922
      vertex 16.29863133620137 11.720959822006948 9.923141121612922
      vertex 16 11.780361288064514 9.923141121612922
    endloop
  endfacet
  facet normal 0 0.3826834323650897 0.9238795325112868
    outer loop
      vertex -16 13.222280932078409 9.325878449210181
      vertex 16 11.780361288064514 9.923141121612922
      vertex 16 13.222280932078409 9.325878449210181
    endloop
  endfacet
  facet normal 0 0.7071067811865475 0.7071067811865475
    outer loop
      vertex -16 14.325878449210181 8.222280932078409
      vertex 16 13.222280932078409 9.325878449210181
      vertex 16 14.325878449210181 8.222280932078409
    endloop
  endfacet
  facet normal 0.9238795325112865 0 0.38268343236509045
    outer loop
      vertex 19.32587844921018 11 8.222280932078409
      vertex 19.32587844921018 -11 8.222280932078409
      vertex 19.92314112161292 11 6.780361288064513
    endloop
  endfacet
  facet normal 0.7071067811865481 0 0.707106781186547
    outer loop
      vertex 18.22228093207841 11 9.325878449210181
      vertex 19.32587844921018 -11 8.222280932078409
      vertex 19.32587844921018 11 8.222280932078409
    endloop
  endfacet
  facet normal 0.38268343236508934 0 0.9238795325112871
    outer loop
      vertex 18.22228093207841 11 9.325878449210181
      vertex 16.780361288064512 11 9.923141121612922
      vertex 18.22228093207841 -11 9.325878449210181
    endloop
  endfacet
  facet normal 0 0 1
    outer loop
      vertex 16.780361288064512 11 9.923141121612922
      vertex 16.29863133620137 11.720959822006948 9.923141121612922
      vertex 16.780361288064512 -11 9.923141121612922
    endloop
  endfacet
  facet normal 0.19509032201612853 0.9807852804032304 0
    outer loop
      vertex 17.501321110071462 14.62450978541155 6.780361288064513
      vertex 17.501321110071462 14.62450978541155 -6.780361288064513
      vertex 16 14.923141121612922 6.780361288064513
    endloop
  endfacet
  facet normal 0.9807852804032303 0.19509032201612875 0
    outer loop
      vertex 19.92314112161292 11 6.780361288064513
      vertex 19.62450978541155 12.50132111007146 -6.780361288064513
      vertex 19.62450978541155 12.50132111007146 6.780361288064513
    endloop
  endfacet
  facet normal 0.8314696123025461 0.555570233019601 0
    outer loop
      vertex 19.62450978541155 12.50132111007146 6.780361288064513
      vertex 19.62450978541155 12.50132111007146 -6.780361288064513
      vertex 18.774079690644296 13.774079690644296 6.780361288064513
    endloop
  endfacet
  facet normal 0.5555702330196014 0.8314696123025457 0
    outer loop
      vertex 18.774079690644296 13.774079690644296 6.780361288064513
      vertex 17.501321110071462 14.62450978541155 -6.780361288064513
      vertex 17.501321110071462 14.62450978541155 6.780361288064513
    endloop
  endfacet
  facet normal 0.38157953112891496 0.07590088788047233 0.9212144791753946
    outer loop
      vertex 18.22228093207841 11 9.325878449210181
      vertex 16.720959822006947 11.298631336201371 9.923141121612922
      vertex 16.780361288064512 11 9.923141121612922
    endloop
  endfacet
  facet normal 0.18074437515937414 0.9086633352183305 0.3763806770786022
    outer loop
      vertex 16 14.325878449210181 8.222280932078409
      vertex 17.501321110071462 14.62450978541155 6.780361288064513
      vertex 16 14.923141121612922 6.780361288064513
    endloop
  endfacet
  facet normal 0.908663335218331 0.18074437515937447 0.37638067707860123
    outer loop
      vertex 19.62450978541155 12.50132111007146 6.780361288064513
      vertex 19.072711026845667 12.272758580572834 8.222280932078409
      vertex 19.92314112161292 11 6.780361288064513
    endloop
  endfacet
  facet normal 0.7703275794849865 0.514716432811947 0.3763806770786014
    outer loop
      vertex 18.774079690644296 13.774079690644296 6.780361288064513
      vertex 19.072711026845667 12.272758580572834 8.222280932078409
      vertex 19.62450978541155 12.50132111007146 6.780361288064513
    endloop
  endfacet
  facet normal 0.5147164328119471 0.7703275794849856 0.3763806770786026
    outer loop
      vertex 17.501321110071462 14.62450978541155 6.780361288064513
      vertex 17.272758580572834 14.072711026845665 8.222280932078409
      vertex 18.774079690644296 13.774079690644296 6.780361288064513
    endloop
  endfacet
  facet normal 0.0759008878804724 0.38157953112891535 0.9212144791753943
    outer loop
      vertex 16 11.780361288064514 9.923141121612922
      vertex 16.29863133620137 11.720959822006948 9.923141121612922
      vertex 16 13.222280932078409 9.325878449210181
    endloop
  endfacet
  facet normal 0 0 1
    outer loop
      vertex 16.720959822006947 11.298631336201371 9.923141121612922
      vertex 16.29863133620137 11.720959822006948 9.923141121612922
      vertex 16.780361288064512 11 9.923141121612922
    endloop
  endfacet
  facet normal 0 0 1
    outer loop
      vertex 16.551798758565887 11.551798758565885 9.923141121612922
      vertex 16.29863133620137 11.720959822006948 9.923141121612922
      vertex 16.720959822006947 11.298631336201371 9.923141121612922
    endloop
  endfacet
  facet normal 0.2161474415048778 0.32348750654160047 0.9212144791753945
    outer loop
      vertex 17.571389916774205 12.571389916774205 9.325878449210181
      vertex 16.29863133620137 11.720959822006948 9.923141121612922
      vertex 16.551798758565887 11.551798758565885 9.923141121612922
    endloop
  endfacet
  facet normal 0.3234875065416019 0.21614744150487575 0.9212144791753946
    outer loop
      vertex 16.551798758565887 11.551798758565885 9.923141121612922
      vertex 16.720959822006947 11.298631336201371 9.923141121612922
      vertex 18.053119868637346 11.850430094767257 9.325878449210181
    endloop
  endfacet
  facet normal 0.3234875065416017 0.21614744150487675 0.9212144791753943
    outer loop
      vertex 18.053119868637346 11.850430094767257 9.325878449210181
      vertex 17.571389916774205 12.571389916774205 9.325878449210181
      vertex 16.551798758565887 11.551798758565885 9.923141121612922
    endloop
  endfacet
  facet normal 0.07590088788047311 0.3815795311289154 0.9212144791753942
    outer loop
      vertex 16 13.222280932078409 9.325878449210181
      vertex 16.29863133620137 11.720959822006948 9.923141121612922
      vertex 16.850430094767255 13.053119868637346 9.325878449210181
    endloop
  endfacet
  facet normal 0.21614744150487653 0.32348750654160213 0.9212144791753942
    outer loop
      vertex 16.850430094767255 13.053119868637346 9.325878449210181
      vertex 16.29863133620137 11.720959822006948 9.923141121612922
      vertex 17.571389916774205 12.571389916774205 9.325878449210181
    endloop
  endfacet
  facet normal 0.13928132531715373 0.7002145072825531 0.7002145072825531
    outer loop
      vertex 16 14.325878449210181 8.222280932078409
      vertex 16 13.222280932078409 9.325878449210181
      vertex 17.272758580572834 14.072711026845665 8.222280932078409
    endloop
  endfacet
  facet normal 0.18074437515937433 0.9086633352183306 0.3763806770786024
    outer loop
      vertex 16 14.325878449210181 8.222280932078409
      vertex 17.272758580572834 14.072711026845665 8.222280932078409
      vertex 17.501321110071462 14.62450978541155 6.780361288064513
    endloop
  endfacet
  facet normal 0.13928132531715448 0.7002145072825525 0.7002145072825535
    outer loop
      vertex 16 13.222280932078409 9.325878449210181
      vertex 16.850430094767255 13.053119868637346 9.325878449210181
      vertex 17.272758580572834 14.072711026845665 8.222280932078409
    endloop
  endfacet
  facet normal 0.39663965676027946 0.5936131960091 0.7002145072825539
    outer loop
      vertex 17.272758580572834 14.072711026845665 8.222280932078409
      vertex 16.850430094767255 13.053119868637346 9.325878449210181
      vertex 17.571389916774205 12.571389916774205 9.325878449210181
    endloop
  endfacet
  facet normal 0.5936131960090991 0.39663965676028307 0.7002145072825525
    outer loop
      vertex 18.351751204838717 13.351751204838717 8.222280932078409
      vertex 17.571389916774205 12.571389916774205 9.325878449210181
      vertex 19.072711026845667 12.272758580572834 8.222280932078409
    endloop
  endfacet
  facet normal 0.9086633352183306 0.1807443751593718 0.37638067707860334
    outer loop
      vertex 19.072711026845667 12.272758580572834 8.222280932078409
      vertex 19.32587844921018 11 8.222280932078409
      vertex 19.92314112161292 11 6.780361288064513
    endloop
  endfacet
  facet normal 0.7002145072825539 0.1392813253171519 0.7002145072825526
    outer loop
      vertex 18.22228093207841 11 9.325878449210181
      vertex 19.32587844921018 11 8.222280932078409
      vertex 19.072711026845667 12.272758580572834 8.222280932078409
    endloop
  endfacet
  facet normal 0.7002145072825522 0.13928132531715412 0.7002145072825539
    outer loop
      vertex 18.22228093207841 11 9.325878449210181
      vertex 19.072711026845667 12.272758580572834 8.222280932078409
      vertex 18.053119868637346 11.850430094767257 9.325878449210181
    endloop
  endfacet
  facet normal 0.3815795311289151 0.07590088788047288 0.9212144791753945
    outer loop
      vertex 18.053119868637346 11.850430094767257 9.325878449210181
      vertex 16.720959822006947 11.298631336201371 9.923141121612922
      vertex 18.22228093207841 11 9.325878449210181
    endloop
  endfacet
  facet normal 0.5936131960090995 0.3966396567602802 0.7002145072825539
    outer loop
      vertex 19.072711026845667 12.272758580572834 8.222280932078409
      vertex 17.571389916774205 12.571389916774205 9.325878449210181
      vertex 18.053119868637346 11.850430094767257 9.325878449210181
    endloop
  endfacet
  facet normal 0.514716432811948 0.7703275794849846 0.37638067707860384
    outer loop
      vertex 18.774079690644296 13.774079690644296 6.780361288064513
      vertex 17.272758580572834 14.072711026845665 8.222280932078409
      vertex 18.351751204838717 13.351751204838717 8.222280932078409
    endloop
  endfacet
  facet normal 0.3966396567602824 0.5936131960090996 0.7002145072825524
    outer loop
      vertex 17.272758580572834 14.072711026845665 8.222280932078409
      vertex 17.571389916774205 12.571389916774205 9.325878449210181
      vertex 18.351751204838717 13.351751204838717 8.222280932078409
    endloop
  endfacet
  facet normal 0.770327579484984 0.514716432811949 0.3763806770786039
    outer loop
      vertex 18.351751204838717 13.351751204838717 8.222280932078409
      vertex 19.072711026845667 12.272758580572834 8.222280932078409
      vertex 18.774079690644296 13.774079690644296 6.780361288064513
    endloop
  endfacet
endsolid PythonSCAD_Model
