solid PythonSCAD_Model
  facet normal 0.8090170076877029 0.5877852339690368 0
    outer loop
      vertex -26.922529332339764 -9.94162679463625 0
      vertex -26.690778620541096 -10.260604299604893 5
      vertex -26.690778620541096 -10.260604299604893 0
    endloop
  endfacet
  facet normal 0.8090170076877029 0.5877852339690368 0
    outer loop
      vertex -26.922529332339764 -9.94162679463625 0
      vertex -26.922529332339764 -9.94162679463625 5
      vertex -26.690778620541096 -10.260604299604893 5
    endloop
  endfacet
  facet normal 0.243913694688428 -0.969796942428383 0
    outer loop
      vertex -26.7360832169652 -9.894733719527721 0
      vertex -26.922529332339764 -9.94162679463625 5
      vertex -26.922529332339764 -9.94162679463625 0
    endloop
  endfacet
  facet normal 0.243913694688428 -0.969796942428383 0
    outer loop
      vertex -26.7360832169652 -9.894733719527721 0
      vertex -26.7360832169652 -9.894733719527721 5
      vertex -26.922529332339764 -9.94162679463625 5
    endloop
  endfacet
  facet normal 0.9697969360597662 0.24391372000994446 0
    outer loop
      vertex -28.198254950344563 -4.081162974238396 0
      vertex -26.7360832169652 -9.894733719527721 5
      vertex -26.7360832169652 -9.894733719527721 0
    endloop
  endfacet
  facet normal 0.9697969360597662 0.24391372000994446 0
    outer loop
      vertex -28.198254950344563 -4.081162974238396 0
      vertex -28.198254950344563 -4.081162974238396 5
      vertex -26.7360832169652 -9.894733719527721 5
    endloop
  endfacet
  facet normal 0.999156886893593 0.041055028597039196 0
    outer loop
      vertex -28.438019759953022 1.753997027873993 0
      vertex -28.198254950344563 -4.081162974238396 5
      vertex -28.198254950344563 -4.081162974238396 0
    endloop
  endfacet
  facet normal 0.999156886893593 0.041055028597039196 0
    outer loop
      vertex -28.438019759953022 1.753997027873993 0
      vertex -28.438019759953022 1.753997027873993 5
      vertex -28.198254950344563 -4.081162974238396 5
    endloop
  endfacet
  facet normal 0.9865386047261852 -0.16352853385544647 0
    outer loop
      vertex -27.48299941420555 7.515465177595615 0
      vertex -28.438019759953022 1.753997027873993 5
      vertex -28.438019759953022 1.753997027873993 0
    endloop
  endfacet
  facet normal 0.9865386047261852 -0.16352853385544647 0
    outer loop
      vertex -27.48299941420555 7.515465177595615 0
      vertex -27.48299941420555 7.515465177595615 5
      vertex -28.438019759953022 1.753997027873993 5
    endloop
  endfacet
  facet normal 0.9324722292989464 -0.3612416664592461 0
    outer loop
      vertex -25.373317785561085 12.961181201040745 0
      vertex -27.48299941420555 7.515465177595615 5
      vertex -27.48299941420555 7.515465177595615 0
    endloop
  endfacet
  facet normal 0.9324722292989464 -0.3612416664592461 0
    outer loop
      vertex -25.373317785561085 12.961181201040745 0
      vertex -25.373317785561085 12.961181201040745 5
      vertex -27.48299941420555 7.515465177595615 5
    endloop
  endfacet
  facet normal 0.8392292869708561 -0.5437777155147022 0
    outer loop
      vertex -22.19761035591364 17.862350568175316 0
      vertex -25.373317785561085 12.961181201040745 5
      vertex -25.373317785561085 12.961181201040745 0
    endloop
  endfacet
  facet normal 0.8392292869708561 -0.5437777155147022 0
    outer loop
      vertex -22.19761035591364 17.862350568175316 0
      vertex -22.19761035591364 17.862350568175316 5
      vertex -25.373317785561085 12.961181201040745 5
    endloop
  endfacet
  facet normal 0.7107272550728975 -0.7034676743792457 0
    outer loop
      vertex -18.089300118386745 22.013057366013527 0
      vertex -22.19761035591364 17.862350568175316 5
      vertex -22.19761035591364 17.862350568175316 0
    endloop
  endfacet
  facet normal 0.7107272550728975 -0.7034676743792457 0
    outer loop
      vertex -18.089300118386745 22.013057366013527 0
      vertex -18.089300118386745 22.013057366013527 5
      vertex -22.19761035591364 17.862350568175316 5
    endloop
  endfacet
  facet normal 0.5523649732938156 -0.8336023850002605 0
    outer loop
      vertex -13.220992341637611 25.238915093243122 0
      vertex -18.089300118386745 22.013057366013527 5
      vertex -18.089300118386745 22.013057366013527 0
    endloop
  endfacet
  facet normal 0.5523649732938156 -0.8336023850002605 0
    outer loop
      vertex -13.220992341637611 25.238915093243122 0
      vertex -13.220992341637611 25.238915093243122 5
      vertex -18.089300118386745 22.013057366013527 5
    endloop
  endfacet
  facet normal 0.37079581823229707 -0.9287144131440198 0
    outer loop
      vertex -7.797222279012203 27.404393769800663 0
      vertex -13.220992341637611 25.238915093243122 5
      vertex -13.220992341637611 25.238915093243122 0
    endloop
  endfacet
  facet normal 0.37079581823229707 -0.9287144131440198 0
    outer loop
      vertex -7.797222279012203 27.404393769800663 0
      vertex -7.797222279012203 27.404393769800663 5
      vertex -13.220992341637611 25.238915093243122 5
    endloop
  endfacet
  facet normal 0.17364817884276276 -0.9848077528048771 0
    outer loop
      vertex -2.0458624362945557 28.41851369291544 0
      vertex -7.797222279012203 27.404393769800663 5
      vertex -7.797222279012203 27.404393769800663 0
    endloop
  endfacet
  facet normal 0.17364817884276276 -0.9848077528048771 0
    outer loop
      vertex -2.0458624362945557 28.41851369291544 0
      vertex -2.0458624362945557 28.41851369291544 5
      vertex -7.797222279012203 27.404393769800663 5
    endloop
  endfacet
  facet normal -0.03079505935143433 -0.9995257196888641 0
    outer loop
      vertex 3.7914515510201454 28.238667964935303 0
      vertex -2.0458624362945557 28.41851369291544 5
      vertex -2.0458624362945557 28.41851369291544 0
    endloop
  endfacet
  facet normal -0.03079505935143433 -0.9995257196888641 0
    outer loop
      vertex 3.7914515510201454 28.238667964935303 0
      vertex 3.7914515510201454 28.238667964935303 5
      vertex -2.0458624362945557 28.41851369291544 5
    endloop
  endfacet
  facet normal -0.23394448110675906 -0.972249957449055 0
    outer loop
      vertex 9.469472832977772 26.87241257727146 0
      vertex 3.7914515510201454 28.238667964935303 5
      vertex 3.7914515510201454 28.238667964935303 0
    endloop
  endfacet
  facet normal -0.23394448110675906 -0.972249957449055 0
    outer loop
      vertex 9.469472832977772 26.87241257727146 0
      vertex 9.469472832977772 26.87241257727146 5
      vertex 3.7914515510201454 28.238667964935303 5
    endloop
  endfacet
  facet normal -0.4272650426498199 -0.9041264199930492 0
    outer loop
      vertex 14.749646916985512 24.377148911356926 0
      vertex 9.469472832977772 26.87241257727146 5
      vertex 9.469472832977772 26.87241257727146 0
    endloop
  endfacet
  facet normal -0.4272650426498199 -0.9041264199930492 0
    outer loop
      vertex 14.749646916985512 24.377148911356926 0
      vertex 14.749646916985512 24.377148911356926 5
      vertex 9.469472832977772 26.87241257727146 5
    endloop
  endfacet
  facet normal -0.6026346361389455 -0.798017227461714 0
    outer loop
      vertex 19.410134449601173 20.857712097465992 0
      vertex 14.749646916985512 24.377148911356926 5
      vertex 14.749646916985512 24.377148911356926 0
    endloop
  endfacet
  facet normal -0.6026346361389455 -0.798017227461714 0
    outer loop
      vertex 19.410134449601173 20.857712097465992 0
      vertex 19.410134449601173 20.857712097465992 5
      vertex 14.749646916985512 24.377148911356926 5
    endloop
  endfacet
  facet normal -0.7526853460268198 -0.6583804142564438 0
    outer loop
      vertex 23.255131252110004 16.46196658909321 0
      vertex 19.410134449601173 20.857712097465992 5
      vertex 19.410134449601173 20.857712097465992 0
    endloop
  endfacet
  facet normal -0.7526853460268198 -0.6583804142564438 0
    outer loop
      vertex 23.255131252110004 16.46196658909321 0
      vertex 23.255131252110004 16.46196658909321 5
      vertex 19.410134449601173 20.857712097465992 5
    endloop
  endfacet
  facet normal -0.8711129942897052 -0.4910826317226297 0
    outer loop
      vertex 26.123094998300076 11.374593660235405 0
      vertex 23.255131252110004 16.46196658909321 5
      vertex 23.255131252110004 16.46196658909321 0
    endloop
  endfacet
  facet normal -0.8711129942897052 -0.4910826317226297 0
    outer loop
      vertex 26.123094998300076 11.374593660235405 0
      vertex 26.123094998300076 11.374593660235405 5
      vertex 23.255131252110004 16.46196658909321 5
    endloop
  endfacet
  facet normal -0.9529420002251351 -0.30315267474808566 0
    outer loop
      vertex 27.893532045185566 5.809332452714443 0
      vertex 26.123094998300076 11.374593660235405 5
      vertex 26.123094998300076 11.374593660235405 0
    endloop
  endfacet
  facet normal -0.9529420002251351 -0.30315267474808566 0
    outer loop
      vertex 27.893532045185566 5.809332452714443 0
      vertex 27.893532045185566 5.809332452714443 5
      vertex 26.123094998300076 11.374593660235405 5
    endloop
  endfacet
  facet normal -0.9947344299814572 -0.10248616399039073 0
    outer loop
      vertex 28.50789835304022 -0.15372924506664276 0
      vertex 27.893532045185566 5.809332452714443 5
      vertex 27.893532045185566 5.809332452714443 0
    endloop
  endfacet
  facet normal -0.9947344299814572 -0.10248616399039073 0
    outer loop
      vertex 28.50789835304022 -0.15372924506664276 0
      vertex 28.50789835304022 -0.15372924506664276 5
      vertex 27.893532045185566 5.809332452714443 5
    endloop
  endfacet
  facet normal 0.10248617994008313 -0.9947344283381817 0
    outer loop
      vertex 28.786474511027336 -0.12502790987491608 0
      vertex 28.50789835304022 -0.15372924506664276 5
      vertex 28.50789835304022 -0.15372924506664276 0
    endloop
  endfacet
  facet normal 0.10248617994008313 -0.9947344283381817 0
    outer loop
      vertex 28.786474511027336 -0.12502790987491608 0
      vertex 28.786474511027336 -0.12502790987491608 5
      vertex 28.50789835304022 -0.15372924506664276 5
    endloop
  endfacet
  facet normal -1 0 0
    outer loop
      vertex 28.786474511027336 -0.8816778808832169 0
      vertex 28.786474511027336 -0.12502790987491608 5
      vertex 28.786474511027336 -0.12502790987491608 0
    endloop
  endfacet
  facet normal -1 0 0
    outer loop
      vertex 28.786474511027336 -0.8816778808832169 0
      vertex 28.786474511027336 -0.8816778808832169 5
      vertex 28.786474511027336 -0.12502790987491608 5
    endloop
  endfacet
  facet normal -0.3090169931240359 -0.9510565167015994 0
    outer loop
      vertex 30.463525488972664 -1.4265847727656364 0
      vertex 28.786474511027336 -0.8816778808832169 5
      vertex 28.786474511027336 -0.8816778808832169 0
    endloop
  endfacet
  facet normal -0.3090169931240359 -0.9510565167015994 0
    outer loop
      vertex 30.463525488972664 -1.4265847727656364 0
      vertex 30.463525488972664 -1.4265847727656364 5
      vertex 28.786474511027336 -0.8816778808832169 5
    endloop
  endfacet
  facet normal 0.8090169933479711 -0.5877852537059846 0
    outer loop
      vertex 31.5 0 0
      vertex 30.463525488972664 -1.4265847727656364 5
      vertex 30.463525488972664 -1.4265847727656364 0
    endloop
  endfacet
  facet normal 0.8090169933479711 -0.5877852537059846 0
    outer loop
      vertex 31.5 0 0
      vertex 31.5 0 5
      vertex 30.463525488972664 -1.4265847727656364 5
    endloop
  endfacet
  facet normal 0.8090169631670343 0.5877852952464784 0
    outer loop
      vertex 31.395537443459034 0.14378035813570023 0
      vertex 31.5 0 5
      vertex 31.5 0 0
    endloop
  endfacet
  facet normal 0.8090169631670343 0.5877852952464784 0
    outer loop
      vertex 31.395537443459034 0.14378035813570023 0
      vertex 31.395537443459034 0.14378035813570023 5
      vertex 31.5 0 5
    endloop
  endfacet
  facet normal 0.10248622111372623 -0.9947344240961145 0
    outer loop
      vertex 31.49210164695978 0.15372924506664276 0
      vertex 31.395537443459034 0.14378035813570023 5
      vertex 31.395537443459034 0.14378035813570023 0
    endloop
  endfacet
  facet normal 0.10248622111372623 -0.9947344240961145 0
    outer loop
      vertex 31.49210164695978 0.15372924506664276 0
      vertex 31.49210164695978 0.15372924506664276 5
      vertex 31.395537443459034 0.14378035813570023 5
    endloop
  endfacet
  facet normal 0.9947344299079585 0.10248616470377205 0
    outer loop
      vertex 30.861896812915802 6.270520210266113 0
      vertex 31.49210164695978 0.15372924506664276 5
      vertex 31.49210164695978 0.15372924506664276 0
    endloop
  endfacet
  facet normal 0.9947344299079585 0.10248616470377205 0
    outer loop
      vertex 30.861896812915802 6.270520210266113 0
      vertex 30.861896812915802 6.270520210266113 5
      vertex 31.49210164695978 0.15372924506664276 5
    endloop
  endfacet
  facet normal -0.10248622111372623 0.9947344240961145 0
    outer loop
      vertex 30.765332609415054 6.260571323335171 0
      vertex 30.861896812915802 6.270520210266113 5
      vertex 30.861896812915802 6.270520210266113 0
    endloop
  endfacet
  facet normal -0.10248622111372623 0.9947344240961145 0
    outer loop
      vertex 30.765332609415054 6.260571323335171 0
      vertex 30.765332609415054 6.260571323335171 5
      vertex 30.861896812915802 6.270520210266113 5
    endloop
  endfacet
  facet normal 0.8090169992385697 0.5877852455982714 0
    outer loop
      vertex 30.58818820118904 6.504389688372612 0
      vertex 30.765332609415054 6.260571323335171 5
      vertex 30.765332609415054 6.260571323335171 0
    endloop
  endfacet
  facet normal 0.8090169992385697 0.5877852455982714 0
    outer loop
      vertex 30.58818820118904 6.504389688372612 0
      vertex 30.58818820118904 6.504389688372612 5
      vertex 30.765332609415054 6.260571323335171 5
    endloop
  endfacet
  facet normal 0.30315269336533673 -0.952941994302561 0
    outer loop
      vertex 30.79920817166567 6.5715199783444405 0
      vertex 30.58818820118904 6.504389688372612 5
      vertex 30.58818820118904 6.504389688372612 0
    endloop
  endfacet
  facet normal 0.30315269336533673 -0.952941994302561 0
    outer loop
      vertex 30.79920817166567 6.5715199783444405 0
      vertex 30.79920817166567 6.5715199783444405 5
      vertex 30.58818820118904 6.504389688372612 5
    endloop
  endfacet
  facet normal 0.9529420003640693 0.30315267431135456 0
    outer loop
      vertex 28.935070887207985 12.431322194635868 0
      vertex 30.79920817166567 6.5715199783444405 5
      vertex 30.79920817166567 6.5715199783444405 0
    endloop
  endfacet
  facet normal 0.9529420003640693 0.30315267431135456 0
    outer loop
      vertex 28.935070887207985 12.431322194635868 0
      vertex 28.935070887207985 12.431322194635868 5
      vertex 30.79920817166567 6.5715199783444405 5
    endloop
  endfacet
  facet normal -0.30315270308521747 0.9529419912104441 0
    outer loop
      vertex 28.724050924181938 12.36419190466404 0
      vertex 28.935070887207985 12.431322194635868 5
      vertex 28.935070887207985 12.431322194635868 0
    endloop
  endfacet
  facet normal -0.30315270308521747 0.9529419912104441 0
    outer loop
      vertex 28.724050924181938 12.36419190466404 0
      vertex 28.724050924181938 12.36419190466404 5
      vertex 28.935070887207985 12.431322194635868 5
    endloop
  endfacet
  facet normal 0.8090170028135344 0.5877852406777544 0
    outer loop
      vertex 28.569802954792976 12.57649602741003 0
      vertex 28.724050924181938 12.36419190466404 5
      vertex 28.724050924181938 12.36419190466404 0
    endloop
  endfacet
  facet normal 0.8090170028135344 0.5877852406777544 0
    outer loop
      vertex 28.569802954792976 12.57649602741003 0
      vertex 28.569802954792976 12.57649602741003 5
      vertex 28.724050924181938 12.36419190466404 5
    endloop
  endfacet
  facet normal 0.49108262816508874 -0.8711129962952392 0
    outer loop
      vertex 28.81232737749815 12.713217131793499 0
      vertex 28.569802954792976 12.57649602741003 5
      vertex 28.569802954792976 12.57649602741003 0
    endloop
  endfacet
  facet normal 0.49108262816508874 -0.8711129962952392 0
    outer loop
      vertex 28.81232737749815 12.713217131793499 0
      vertex 28.81232737749815 12.713217131793499 5
      vertex 28.569802954792976 12.57649602741003 5
    endloop
  endfacet
  facet normal 0.8711129941409756 0.4910826319864556 0
    outer loop
      vertex 25.792576864361763 18.069838888943195 0
      vertex 28.81232737749815 12.713217131793499 5
      vertex 28.81232737749815 12.713217131793499 0
    endloop
  endfacet
  facet normal 0.8711129941409756 0.4910826319864556 0
    outer loop
      vertex 25.792576864361763 18.069838888943195 0
      vertex 25.792576864361763 18.069838888943195 5
      vertex 28.81232737749815 12.713217131793499 5
    endloop
  endfacet
  facet normal -0.4910826484726657 0.871112984847013 0
    outer loop
      vertex 25.55005244165659 17.933117777109146 0
      vertex 25.792576864361763 18.069838888943195 5
      vertex 25.792576864361763 18.069838888943195 0
    endloop
  endfacet
  facet normal -0.4910826484726657 0.871112984847013 0
    outer loop
      vertex 25.55005244165659 17.933117777109146 0
      vertex 25.55005244165659 17.933117777109146 5
      vertex 25.792576864361763 18.069838888943195 5
    endloop
  endfacet
  facet normal 0.8090169880810216 0.5877852609553186 0
    outer loop
      vertex 25.403050757944584 18.13544823229313 0
      vertex 25.55005244165659 17.933117777109146 5
      vertex 25.55005244165659 17.933117777109146 0
    endloop
  endfacet
  facet normal 0.8090169880810216 0.5877852609553186 0
    outer loop
      vertex 25.403050757944584 18.13544823229313 0
      vertex 25.403050757944584 18.13544823229313 5
      vertex 25.55005244165659 17.933117777109146 5
    endloop
  endfacet
  facet normal 0.6583804093510286 -0.7526853503176292 0
    outer loop
      vertex 25.614935390651226 18.32078555971384 0
      vertex 25.403050757944584 18.13544823229313 5
      vertex 25.403050757944584 18.13544823229313 0
    endloop
  endfacet
  facet normal 0.6583804093510286 -0.7526853503176292 0
    outer loop
      vertex 25.614935390651226 18.32078555971384 0
      vertex 25.614935390651226 18.32078555971384 5
      vertex 25.403050757944584 18.13544823229313 5
    endloop
  endfacet
  facet normal 0.7526853467869883 0.6583804133873906 0
    outer loop
      vertex 21.566442400217056 22.949175603687763 0
      vertex 25.614935390651226 18.32078555971384 5
      vertex 25.614935390651226 18.32078555971384 0
    endloop
  endfacet
  facet normal 0.7526853467869883 0.6583804133873906 0
    outer loop
      vertex 21.566442400217056 22.949175603687763 0
      vertex 21.566442400217056 22.949175603687763 5
      vertex 25.614935390651226 18.32078555971384 5
    endloop
  endfacet
  facet normal -0.6583804093510286 0.7526853503176292 0
    outer loop
      vertex 21.354557767510414 22.76383827626705 0
      vertex 21.566442400217056 22.949175603687763 5
      vertex 21.566442400217056 22.949175603687763 0
    endloop
  endfacet
  facet normal -0.6583804093510286 0.7526853503176292 0
    outer loop
      vertex 21.354557767510414 22.76383827626705 0
      vertex 21.354557767510414 22.76383827626705 5
      vertex 21.566442400217056 22.949175603687763 5
    endloop
  endfacet
  facet normal 0.80901699043837 0.5877852577107071 0
    outer loop
      vertex 21.201902262866497 22.973950549960136 0
      vertex 21.354557767510414 22.76383827626705 5
      vertex 21.354557767510414 22.76383827626705 0
    endloop
  endfacet
  facet normal 0.80901699043837 0.5877852577107071 0
    outer loop
      vertex 21.201902262866497 22.973950549960136 0
      vertex 21.201902262866497 22.973950549960136 5
      vertex 21.354557767510414 22.76383827626705 5
    endloop
  endfacet
  facet normal 0.7980172220635646 -0.6026346432872504 0
    outer loop
      vertex 21.341366335749626 23.158630825579166 0
      vertex 21.201902262866497 22.973950549960136 5
      vertex 21.201902262866497 22.973950549960136 0
    endloop
  endfacet
  facet normal 0.7980172220635646 -0.6026346432872504 0
    outer loop
      vertex 21.341366335749626 23.158630825579166 0
      vertex 21.341366335749626 23.158630825579166 5
      vertex 21.201902262866497 22.973950549960136 5
    endloop
  endfacet
  facet normal 0.6026346364306016 0.7980172272414654 0
    outer loop
      vertex 16.434222862124443 26.86433356255293 0
      vertex 21.341366335749626 23.158630825579166 5
      vertex 21.341366335749626 23.158630825579166 0
    endloop
  endfacet
  facet normal 0.6026346364306016 0.7980172272414654 0
    outer loop
      vertex 16.434222862124443 26.86433356255293 0
      vertex 16.434222862124443 26.86433356255293 5
      vertex 21.341366335749626 23.158630825579166 5
    endloop
  endfacet
  facet normal -0.7980172220635646 0.6026346432872504 0
    outer loop
      vertex 16.294758789241314 26.6796532869339 0
      vertex 16.434222862124443 26.86433356255293 5
      vertex 16.434222862124443 26.86433356255293 0
    endloop
  endfacet
  facet normal -0.7980172220635646 0.6026346432872504 0
    outer loop
      vertex 16.294758789241314 26.6796532869339 0
      vertex 16.294758789241314 26.6796532869339 5
      vertex 16.434222862124443 26.86433356255293 5
    endloop
  endfacet
  facet normal 0.8090169930865787 0.5877852540657605 0
    outer loop
      vertex 16.12142228335142 26.918230518698692 0
      vertex 16.294758789241314 26.6796532869339 5
      vertex 16.294758789241314 26.6796532869339 0
    endloop
  endfacet
  facet normal 0.8090169930865787 0.5877852540657605 0
    outer loop
      vertex 16.12142228335142 26.918230518698692 0
      vertex 16.12142228335142 26.918230518698692 5
      vertex 16.294758789241314 26.6796532869339 5
    endloop
  endfacet
  facet normal 0.9041264080426176 -0.4272650679378717 0
    outer loop
      vertex 16.171168468892574 27.023497350513935 0
      vertex 16.12142228335142 26.918230518698692 5
      vertex 16.12142228335142 26.918230518698692 0
    endloop
  endfacet
  facet normal 0.9041264080426176 -0.4272650679378717 0
    outer loop
      vertex 16.171168468892574 27.023497350513935 0
      vertex 16.171168468892574 27.023497350513935 5
      vertex 16.12142228335142 26.918230518698692 5
    endloop
  endfacet
  facet normal 0.42726504175518043 0.904126420415831 0
    outer loop
      vertex 10.611541546881199 29.650822661817074 0
      vertex 16.171168468892574 27.023497350513935 5
      vertex 16.171168468892574 27.023497350513935 0
    endloop
  endfacet
  facet normal 0.42726504175518043 0.904126420415831 0
    outer loop
      vertex 10.611541546881199 29.650822661817074 0
      vertex 10.611541546881199 29.650822661817074 5
      vertex 16.171168468892574 27.023497350513935 5
    endloop
  endfacet
  facet normal -0.9041264210808058 0.42726504034804147 0
    outer loop
      vertex 10.561795368790627 29.54555583745241 0
      vertex 10.611541546881199 29.650822661817074 5
      vertex 10.611541546881199 29.650822661817074 0
    endloop
  endfacet
  facet normal -0.9041264210808058 0.42726504034804147 0
    outer loop
      vertex 10.561795368790627 29.54555583745241 0
      vertex 10.561795368790627 29.54555583745241 5
      vertex 10.611541546881199 29.650822661817074 5
    endloop
  endfacet
  facet normal 0.8090170038748123 0.5877852392170305 0
    outer loop
      vertex 10.434169478714466 29.721217811107635 0
      vertex 10.561795368790627 29.54555583745241 5
      vertex 10.561795368790627 29.54555583745241 0
    endloop
  endfacet
  facet normal 0.8090170038748123 0.5877852392170305 0
    outer loop
      vertex 10.434169478714466 29.721217811107635 0
      vertex 10.434169478714466 29.721217811107635 5
      vertex 10.561795368790627 29.54555583745241 5
    endloop
  endfacet
  facet normal -0.3090170065551577 0.9510565123375633 0
    outer loop
      vertex 10.303711764514446 29.67882952839136 0
      vertex 10.434169478714466 29.721217811107635 5
      vertex 10.434169478714466 29.721217811107635 0
    endloop
  endfacet
  facet normal -0.3090170065551577 0.9510565123375633 0
    outer loop
      vertex 10.303711764514446 29.67882952839136 0
      vertex 10.303711764514446 29.67882952839136 5
      vertex 10.434169478714466 29.721217811107635 5
    endloop
  endfacet
  facet normal 0.9722499576579482 -0.23394448023861997 0
    outer loop
      vertex 10.321560710668564 29.753007970750332 0
      vertex 10.303711764514446 29.67882952839136 5
      vertex 10.303711764514446 29.67882952839136 0
    endloop
  endfacet
  facet normal 0.9722499576579482 -0.23394448023861997 0
    outer loop
      vertex 10.321560710668564 29.753007970750332 0
      vertex 10.321560710668564 29.753007970750332 5
      vertex 10.303711764514446 29.67882952839136 5
    endloop
  endfacet
  facet normal 0.2339444815955143 0.9722499573314498 0
    outer loop
      vertex 4.343030586838722 31.191572323441505 0
      vertex 10.321560710668564 29.753007970750332 5
      vertex 10.321560710668564 29.753007970750332 0
    endloop
  endfacet
  facet normal 0.2339444815955143 0.9722499573314498 0
    outer loop
      vertex 4.343030586838722 31.191572323441505 0
      vertex 4.343030586838722 31.191572323441505 5
      vertex 10.321560710668564 29.753007970750332 5
    endloop
  endfacet
  facet normal -0.9722499354462812 0.23394457254807594 0
    outer loop
      vertex 4.325181633234024 31.117393881082535 0
      vertex 4.343030586838722 31.191572323441505 5
      vertex 4.343030586838722 31.191572323441505 0
    endloop
  endfacet
  facet normal -0.9722499354462812 0.23394457254807594 0
    outer loop
      vertex 4.325181633234024 31.117393881082535 0
      vertex 4.325181633234024 31.117393881082535 5
      vertex 4.343030586838722 31.191572323441505 5
    endloop
  endfacet
  facet normal -0.30901699582548064 0.9510565158238468 0
    outer loop
      vertex 4.03182378411293 31.02207613736391 0
      vertex 4.325181633234024 31.117393881082535 5
      vertex 4.325181633234024 31.117393881082535 0
    endloop
  endfacet
  facet normal -0.30901699582548064 0.9510565158238468 0
    outer loop
      vertex 4.03182378411293 31.02207613736391 0
      vertex 4.03182378411293 31.02207613736391 5
      vertex 4.325181633234024 31.117393881082535 5
    endloop
  endfacet
  facet normal 0.9995257192433983 -0.03079507381006524 0
    outer loop
      vertex 4.038306444883347 31.232485964894295 0
      vertex 4.03182378411293 31.02207613736391 5
      vertex 4.03182378411293 31.02207613736391 0
    endloop
  endfacet
  facet normal 0.9995257192433983 -0.03079507381006524 0
    outer loop
      vertex 4.038306444883347 31.232485964894295 0
      vertex 4.038306444883347 31.232485964894295 5
      vertex 4.03182378411293 31.02207613736391 5
    endloop
  endfacet
  facet normal 0.030795058625304874 0.9995257197112359 0
    outer loop
      vertex -2.1079469695687294 31.421850010752678 0
      vertex 4.038306444883347 31.232485964894295 5
      vertex 4.038306444883347 31.232485964894295 0
    endloop
  endfacet
  facet normal 0.030795058625304874 0.9995257197112359 0
    outer loop
      vertex -2.1079469695687294 31.421850010752678 0
      vertex -2.1079469695687294 31.421850010752678 5
      vertex 4.038306444883347 31.232485964894295 5
    endloop
  endfacet
  facet normal -0.9995257203328125 0.030795038450573138 0
    outer loop
      vertex -2.114429622888565 31.211440183222294 0
      vertex -2.1079469695687294 31.421850010752678 5
      vertex -2.1079469695687294 31.421850010752678 0
    endloop
  endfacet
  facet normal -0.9995257203328125 0.030795038450573138 0
    outer loop
      vertex -2.114429622888565 31.211440183222294 0
      vertex -2.114429622888565 31.211440183222294 5
      vertex -2.1079469695687294 31.421850010752678 5
    endloop
  endfacet
  facet normal -0.30901700952830635 0.9510565113715287 0
    outer loop
      vertex -2.3669369742274284 31.129395566880703 0
      vertex -2.114429622888565 31.211440183222294 5
      vertex -2.114429622888565 31.211440183222294 0
    endloop
  endfacet
  facet normal -0.30901700952830635 0.9510565113715287 0
    outer loop
      vertex -2.3669369742274284 31.129395566880703 0
      vertex -2.3669369742274284 31.129395566880703 5
      vertex -2.114429622888565 31.211440183222294 5
    endloop
  endfacet
  facet normal 0.9848077515227518 0.17364818611405633 0
    outer loop
      vertex -2.4146118238568306 31.399773061275482 0
      vertex -2.3669369742274284 31.129395566880703 5
      vertex -2.3669369742274284 31.129395566880703 0
    endloop
  endfacet
  facet normal 0.9848077515227518 0.17364818611405633 0
    outer loop
      vertex -2.4146118238568306 31.399773061275482 0
      vertex -2.4146118238568306 31.399773061275482 5
      vertex -2.3669369742274284 31.129395566880703 5
    endloop
  endfacet
  facet normal -0.17364817777556402 0.984807752993053 0
    outer loop
      vertex -8.470361970365047 30.331980921328068 0
      vertex -2.4146118238568306 31.399773061275482 5
      vertex -2.4146118238568306 31.399773061275482 0
    endloop
  endfacet
  facet normal -0.17364817777556402 0.984807752993053 0
    outer loop
      vertex -8.470361970365047 30.331980921328068 0
      vertex -8.470361970365047 30.331980921328068 5
      vertex -2.4146118238568306 31.399773061275482 5
    endloop
  endfacet
  facet normal -0.9848077515227518 -0.17364818611405633 0
    outer loop
      vertex -8.422687120735645 30.06160342693329 0
      vertex -8.470361970365047 30.331980921328068 5
      vertex -8.470361970365047 30.331980921328068 0
    endloop
  endfacet
  facet normal -0.9848077515227518 -0.17364818611405633 0
    outer loop
      vertex -8.422687120735645 30.06160342693329 0
      vertex -8.422687120735645 30.06160342693329 5
      vertex -8.470361970365047 30.331980921328068 5
    endloop
  endfacet
  facet normal -0.30901697838922226 0.9510565214892304 0
    outer loop
      vertex -8.660832971334457 29.984225153923035 0
      vertex -8.422687120735645 30.06160342693329 5
      vertex -8.422687120735645 30.06160342693329 0
    endloop
  endfacet
  facet normal -0.30901697838922226 0.9510565214892304 0
    outer loop
      vertex -8.660832971334457 29.984225153923035 0
      vertex -8.660832971334457 29.984225153923035 5
      vertex -8.422687120735645 30.06160342693329 5
    endloop
  endfacet
  facet normal 0.928714411216136 0.3707958230609751 0
    outer loop
      vertex -8.766083434224129 30.24784091114998 0
      vertex -8.660832971334457 29.984225153923035 5
      vertex -8.660832971334457 29.984225153923035 0
    endloop
  endfacet
  facet normal 0.928714411216136 0.3707958230609751 0
    outer loop
      vertex -8.766083434224129 30.24784091114998 0
      vertex -8.766083434224129 30.24784091114998 5
      vertex -8.660832971334457 29.984225153923035 5
    endloop
  endfacet
  facet normal -0.3707958183644702 0.9287144130912489 0
    outer loop
      vertex -14.476906098425388 27.96775444597006 0
      vertex -8.766083434224129 30.24784091114998 5
      vertex -8.766083434224129 30.24784091114998 0
    endloop
  endfacet
  facet normal -0.3707958183644702 0.9287144130912489 0
    outer loop
      vertex -14.476906098425388 27.96775444597006 0
      vertex -14.476906098425388 27.96775444597006 5
      vertex -8.766083434224129 30.24784091114998 5
    endloop
  endfacet
  facet normal -0.9287144148250006 -0.37079581402202594 0
    outer loop
      vertex -14.371655635535717 27.704138681292534 0
      vertex -14.476906098425388 27.96775444597006 5
      vertex -14.476906098425388 27.96775444597006 0
    endloop
  endfacet
  facet normal -0.9287144148250006 -0.37079581402202594 0
    outer loop
      vertex -14.371655635535717 27.704138681292534 0
      vertex -14.371655635535717 27.704138681292534 5
      vertex -14.476906098425388 27.96775444597006 5
    endloop
  endfacet
  facet normal -0.30901697958971114 0.951056521099168 0
    outer loop
      vertex -14.616419419646263 27.624610111117363 0
      vertex -14.371655635535717 27.704138681292534 5
      vertex -14.371655635535717 27.704138681292534 0
    endloop
  endfacet
  facet normal -0.30901697958971114 0.951056521099168 0
    outer loop
      vertex -14.616419419646263 27.624610111117363 0
      vertex -14.616419419646263 27.624610111117363 5
      vertex -14.371655635535717 27.704138681292534 5
    endloop
  endfacet
  facet normal 0.8336023790525089 0.5523649822698733 0
    outer loop
      vertex -14.74925982952118 27.825086399912834 0
      vertex -14.616419419646263 27.624610111117363 5
      vertex -14.616419419646263 27.624610111117363 0
    endloop
  endfacet
  facet normal 0.8336023790525089 0.5523649822698733 0
    outer loop
      vertex -14.74925982952118 27.825086399912834 0
      vertex -14.74925982952118 27.825086399912834 5
      vertex -14.616419419646263 27.624610111117363 5
    endloop
  endfacet
  facet normal -0.5523649731250323 0.8336023851121003 0
    outer loop
      vertex -19.875222481787205 24.42850036174059 0
      vertex -14.74925982952118 27.825086399912834 5
      vertex -14.74925982952118 27.825086399912834 0
    endloop
  endfacet
  facet normal -0.5523649731250323 0.8336023851121003 0
    outer loop
      vertex -19.875222481787205 24.42850036174059 0
      vertex -19.875222481787205 24.42850036174059 5
      vertex -14.74925982952118 27.825086399912834 5
    endloop
  endfacet
  facet normal -0.8336023790525089 -0.5523649822698733 0
    outer loop
      vertex -19.74238207191229 24.228024072945118 0
      vertex -19.875222481787205 24.42850036174059 5
      vertex -19.875222481787205 24.42850036174059 0
    endloop
  endfacet
  facet normal -0.8336023790525089 -0.5523649822698733 0
    outer loop
      vertex -19.74238207191229 24.228024072945118 0
      vertex -19.74238207191229 24.228024072945118 5
      vertex -19.875222481787205 24.42850036174059 5
    endloop
  endfacet
  facet normal -0.30901699596582244 0.951056515778247 0
    outer loop
      vertex -20.017216570675373 24.13872493058443 0
      vertex -19.74238207191229 24.228024072945118 5
      vertex -19.74238207191229 24.228024072945118 0
    endloop
  endfacet
  facet normal -0.30901699596582244 0.951056515778247 0
    outer loop
      vertex -20.017216570675373 24.13872493058443 0
      vertex -20.017216570675373 24.13872493058443 5
      vertex -19.74238207191229 24.228024072945118 5
    endloop
  endfacet
  facet normal 0.7034676578446871 0.7107272714385666 0
    outer loop
      vertex -20.112765908241272 24.233298294246197 0
      vertex -20.017216570675373 24.13872493058443 5
      vertex -20.017216570675373 24.13872493058443 0
    endloop
  endfacet
  facet normal 0.7034676578446871 0.7107272714385666 0
    outer loop
      vertex -20.112765908241272 24.233298294246197 0
      vertex -20.112765908241272 24.233298294246197 5
      vertex -20.017216570675373 24.13872493058443 5
    endloop
  endfacet
  facet normal -0.7107272554636406 0.7034676739844702 0
    outer loop
      vertex -24.438508115708828 19.862915687263012 0
      vertex -20.112765908241272 24.233298294246197 5
      vertex -20.112765908241272 24.233298294246197 0
    endloop
  endfacet
  facet normal -0.7107272554636406 0.7034676739844702 0
    outer loop
      vertex -24.438508115708828 19.862915687263012 0
      vertex -24.438508115708828 19.862915687263012 5
      vertex -20.112765908241272 24.233298294246197 5
    endloop
  endfacet
  facet normal -0.7034676858390994 -0.7107272437300981 0
    outer loop
      vertex -24.34295877814293 19.768342316150665 0
      vertex -24.438508115708828 19.862915687263012 5
      vertex -24.438508115708828 19.862915687263012 0
    endloop
  endfacet
  facet normal -0.7034676858390994 -0.7107272437300981 0
    outer loop
      vertex -24.34295877814293 19.768342316150665 0
      vertex -24.34295877814293 19.768342316150665 5
      vertex -24.438508115708828 19.862915687263012 5
    endloop
  endfacet
  facet normal -0.3090169647531993 0.9510565259198426 0
    outer loop
      vertex -24.58594273030758 19.689392052590847 0
      vertex -24.34295877814293 19.768342316150665 5
      vertex -24.34295877814293 19.768342316150665 0
    endloop
  endfacet
  facet normal -0.3090169647531993 0.9510565259198426 0
    outer loop
      vertex -24.58594273030758 19.689392052590847 0
      vertex -24.58594273030758 19.689392052590847 5
      vertex -24.34295877814293 19.768342316150665 5
    endloop
  endfacet
  facet normal -1 0 0
    outer loop
      vertex -24.58594273030758 19.59401671588421 0
      vertex -24.58594273030758 19.689392052590847 5
      vertex -24.58594273030758 19.689392052590847 0
    endloop
  endfacet
  facet normal -1 0 0
    outer loop
      vertex -24.58594273030758 19.59401671588421 0
      vertex -24.58594273030758 19.59401671588421 5
      vertex -24.58594273030758 19.689392052590847 5
    endloop
  endfacet
  facet normal 0.5437777187194283 0.8392292848943572 0
    outer loop
      vertex -24.63126116991043 19.62338075041771 0
      vertex -24.58594273030758 19.59401671588421 5
      vertex -24.58594273030758 19.59401671588421 0
    endloop
  endfacet
  facet normal 0.5437777187194283 0.8392292848943572 0
    outer loop
      vertex -24.63126116991043 19.62338075041771 0
      vertex -24.63126116991043 19.62338075041771 5
      vertex -24.58594273030758 19.59401671588421 5
    endloop
  endfacet
  facet normal -0.83922928785278 0.5437777141536014 0
    outer loop
      vertex -27.975042693316936 14.462817318737507 0
      vertex -24.63126116991043 19.62338075041771 5
      vertex -24.63126116991043 19.62338075041771 0
    endloop
  endfacet
  facet normal -0.83922928785278 0.5437777141536014 0
    outer loop
      vertex -27.975042693316936 14.462817318737507 0
      vertex -27.975042693316936 14.462817318737507 5
      vertex -24.63126116991043 19.62338075041771 5
    endloop
  endfacet
  facet normal -0.5437777816842354 -0.8392292440963743 0
    outer loop
      vertex -27.929724261164665 14.433453284204006 0
      vertex -27.975042693316936 14.462817318737507 5
      vertex -27.975042693316936 14.462817318737507 0
    endloop
  endfacet
  facet normal -0.5437777816842354 -0.8392292440963743 0
    outer loop
      vertex -27.929724261164665 14.433453284204006 0
      vertex -27.929724261164665 14.433453284204006 5
      vertex -27.975042693316936 14.462817318737507 5
    endloop
  endfacet
  facet normal -1 0 0
    outer loop
      vertex -27.929724261164665 14.117273017764091 0
      vertex -27.929724261164665 14.433453284204006 5
      vertex -27.929724261164665 14.433453284204006 0
    endloop
  endfacet
  facet normal -1 0 0
    outer loop
      vertex -27.929724261164665 14.117273017764091 0
      vertex -27.929724261164665 14.117273017764091 5
      vertex -27.929724261164665 14.433453284204006 5
    endloop
  endfacet
  facet normal 0.36124170034444103 0.9324722161717512 0
    outer loop
      vertex -28.11490710824728 14.189013242721558 0
      vertex -27.929724261164665 14.117273017764091 5
      vertex -27.929724261164665 14.117273017764091 0
    endloop
  endfacet
  facet normal 0.36124170034444103 0.9324722161717512 0
    outer loop
      vertex -28.11490710824728 14.189013242721558 0
      vertex -28.11490710824728 14.189013242721558 5
      vertex -27.929724261164665 14.117273017764091 5
    endloop
  endfacet
  facet normal -0.9324722292559181 0.3612416665703147 0
    outer loop
      vertex -30.336243472993374 8.45508312433958 0
      vertex -28.11490710824728 14.189013242721558 5
      vertex -28.11490710824728 14.189013242721558 0
    endloop
  endfacet
  facet normal -0.9324722292559181 0.3612416665703147 0
    outer loop
      vertex -30.336243472993374 8.45508312433958 0
      vertex -30.336243472993374 8.45508312433958 5
      vertex -28.11490710824728 14.189013242721558 5
    endloop
  endfacet
  facet normal -0.3612416877070034 -0.932472221067521 0
    outer loop
      vertex -30.15106061846018 8.383342899382114 0
      vertex -30.336243472993374 8.45508312433958 5
      vertex -30.336243472993374 8.45508312433958 0
    endloop
  endfacet
  facet normal -0.3612416877070034 -0.932472221067521 0
    outer loop
      vertex -30.15106061846018 8.383342899382114 0
      vertex -30.15106061846018 8.383342899382114 5
      vertex -30.336243472993374 8.45508312433958 5
    endloop
  endfacet
  facet normal -1 0 0
    outer loop
      vertex -30.15106061846018 8.114374473690987 0
      vertex -30.15106061846018 8.383342899382114 5
      vertex -30.15106061846018 8.383342899382114 0
    endloop
  endfacet
  facet normal -1 0 0
    outer loop
      vertex -30.15106061846018 8.114374473690987 0
      vertex -30.15106061846018 8.114374473690987 5
      vertex -30.15106061846018 8.383342899382114 5
    endloop
  endfacet
  facet normal 0.16352856299046448 0.9865385998967673 0
    outer loop
      vertex -30.41734303534031 8.1585134267807 0
      vertex -30.15106061846018 8.114374473690987 5
      vertex -30.15106061846018 8.114374473690987 0
    endloop
  endfacet
  facet normal 0.16352856299046448 0.9865385998967673 0
    outer loop
      vertex -30.41734303534031 8.1585134267807 0
      vertex -30.41734303534031 8.1585134267807 5
      vertex -30.15106061846018 8.114374473690987 5
    endloop
  endfacet
  facet normal -0.9865386046053731 0.16352853458428337 0
    outer loop
      vertex -31.422907769680023 2.092119984328747 0
      vertex -30.41734303534031 8.1585134267807 5
      vertex -30.41734303534031 8.1585134267807 0
    endloop
  endfacet
  facet normal -0.9865386046053731 0.16352853458428337 0
    outer loop
      vertex -31.422907769680023 2.092119984328747 0
      vertex -31.422907769680023 2.092119984328747 5
      vertex -30.41734303534031 8.1585134267807 5
    endloop
  endfacet
  facet normal -0.16352856299046448 -0.9865385998967673 0
    outer loop
      vertex -31.156625352799892 2.0479810312390327 0
      vertex -31.422907769680023 2.092119984328747 5
      vertex -31.422907769680023 2.092119984328747 0
    endloop
  endfacet
  facet normal -0.16352856299046448 -0.9865385998967673 0
    outer loop
      vertex -31.156625352799892 2.0479810312390327 0
      vertex -31.156625352799892 2.0479810312390327 5
      vertex -31.422907769680023 2.092119984328747 5
    endloop
  endfacet
  facet normal -1 0 0
    outer loop
      vertex -31.156625352799892 1.796963818371296 0
      vertex -31.156625352799892 2.0479810312390327 5
      vertex -31.156625352799892 2.0479810312390327 0
    endloop
  endfacet
  facet normal -1 0 0
    outer loop
      vertex -31.156625352799892 1.796963818371296 0
      vertex -31.156625352799892 1.796963818371296 5
      vertex -31.156625352799892 2.0479810312390327 5
    endloop
  endfacet
  facet normal -0.04105501415060531 0.9991568874871922 0
    outer loop
      vertex -31.441835194826126 1.785244643688202 0
      vertex -31.156625352799892 1.796963818371296 5
      vertex -31.156625352799892 1.796963818371296 0
    endloop
  endfacet
  facet normal -0.04105501415060531 0.9991568874871922 0
    outer loop
      vertex -31.441835194826126 1.785244643688202 0
      vertex -31.441835194826126 1.785244643688202 5
      vertex -31.156625352799892 1.796963818371296 5
    endloop
  endfacet
  facet normal -0.9991568868681303 -0.04105502921672548 0
    outer loop
      vertex -31.18938084691763 -4.358740761876106 0
      vertex -31.441835194826126 1.785244643688202 5
      vertex -31.441835194826126 1.785244643688202 0
    endloop
  endfacet
  facet normal -0.9991568868681303 -0.04105502921672548 0
    outer loop
      vertex -31.18938084691763 -4.358740761876106 0
      vertex -31.18938084691763 -4.358740761876106 5
      vertex -31.441835194826126 1.785244643688202 5
    endloop
  endfacet
  facet normal 0.04105504127842005 -0.9991568863725193 0
    outer loop
      vertex -30.904171012341976 -4.347021579742432 0
      vertex -31.18938084691763 -4.358740761876106 5
      vertex -31.18938084691763 -4.358740761876106 0
    endloop
  endfacet
  facet normal 0.04105504127842005 -0.9991568863725193 0
    outer loop
      vertex -30.904171012341976 -4.347021579742432 0
      vertex -30.904171012341976 -4.347021579742432 5
      vertex -31.18938084691763 -4.358740761876106 5
    endloop
  endfacet
  facet normal -1 0 0
    outer loop
      vertex -30.904171012341976 -4.602372132241726 0
      vertex -30.904171012341976 -4.347021579742432 5
      vertex -30.904171012341976 -4.347021579742432 0
    endloop
  endfacet
  facet normal -1 0 0
    outer loop
      vertex -30.904171012341976 -4.602372132241726 0
      vertex -30.904171012341976 -4.602372132241726 5
      vertex -30.904171012341976 -4.347021579742432 5
    endloop
  endfacet
  facet normal -0.24391372142632642 0.969796935703532 0
    outer loop
      vertex -31.14534091949463 -4.663028798997402 0
      vertex -30.904171012341976 -4.602372132241726 5
      vertex -30.904171012341976 -4.602372132241726 0
    endloop
  endfacet
  facet normal -0.24391372142632642 0.969796935703532 0
    outer loop
      vertex -31.14534091949463 -4.663028798997402 0
      vertex -31.14534091949463 -4.663028798997402 5
      vertex -30.904171012341976 -4.602372132241726 5
    endloop
  endfacet
  facet normal -0.969796935979792 -0.24391372032792089 0
    outer loop
      vertex -29.645474024116993 -10.626474879682064 0
      vertex -31.14534091949463 -4.663028798997402 5
      vertex -31.14534091949463 -4.663028798997402 0
    endloop
  endfacet
  facet normal -0.969796935979792 -0.24391372032792089 0
    outer loop
      vertex -29.645474024116993 -10.626474879682064 0
      vertex -29.645474024116993 -10.626474879682064 5
      vertex -31.14534091949463 -4.663028798997402 5
    endloop
  endfacet
  facet normal 0.24391372142632642 -0.969796935703532 0
    outer loop
      vertex -29.40430411696434 -10.565818212926388 0
      vertex -29.645474024116993 -10.626474879682064 5
      vertex -29.645474024116993 -10.626474879682064 0
    endloop
  endfacet
  facet normal 0.24391372142632642 -0.969796935703532 0
    outer loop
      vertex -29.40430411696434 -10.565818212926388 0
      vertex -29.40430411696434 -10.565818212926388 5
      vertex -29.645474024116993 -10.626474879682064 5
    endloop
  endfacet
  facet normal -1 0 0
    outer loop
      vertex -29.40430411696434 -11.14228218048811 0
      vertex -29.40430411696434 -10.565818212926388 5
      vertex -29.40430411696434 -10.565818212926388 0
    endloop
  endfacet
  facet normal -1 0 0
    outer loop
      vertex -29.40430411696434 -11.14228218048811 0
      vertex -29.40430411696434 -11.14228218048811 5
      vertex -29.40430411696434 -10.565818212926388 5
    endloop
  endfacet
  facet normal -0.30901699188227244 -0.9510565171050728 0
    outer loop
      vertex -27.727253131568432 -11.68718907237053 0
      vertex -29.40430411696434 -11.14228218048811 5
      vertex -29.40430411696434 -11.14228218048811 0
    endloop
  endfacet
  facet normal -0.30901699188227244 -0.9510565171050728 0
    outer loop
      vertex -27.727253131568432 -11.68718907237053 0
      vertex -27.727253131568432 -11.68718907237053 5
      vertex -29.40430411696434 -11.14228218048811 5
    endloop
  endfacet
  facet normal 0.8090169933479711 -0.5877852537059846 0
    outer loop
      vertex -26.690778620541096 -10.260604299604893 0
      vertex -27.727253131568432 -11.68718907237053 5
      vertex -27.727253131568432 -11.68718907237053 0
    endloop
  endfacet
  facet normal 0.8090169933479711 -0.5877852537059846 0
    outer loop
      vertex -26.690778620541096 -10.260604299604893 0
      vertex -26.690778620541096 -10.260604299604893 5
      vertex -27.727253131568432 -11.68718907237053 5
    endloop
  endfacet
  facet normal 0 0 -1
    outer loop
      vertex -28.198254950344563 -4.081162974238396 0
      vertex -26.7360832169652 -9.894733719527721 0
      vertex -26.922529332339764 -9.94162679463625 0
    endloop
  endfacet
  facet normal 0 0 -1
    outer loop
      vertex 28.786474511027336 -0.12502790987491608 0
      vertex 28.50789835304022 -0.15372924506664276 0
      vertex 27.893532045185566 5.809332452714443 0
    endloop
  endfacet
  facet normal 0 0 -1
    outer loop
      vertex -31.422907769680023 2.092119984328747 0
      vertex -30.41734303534031 8.1585134267807 0
      vertex -30.15106061846018 8.114374473690987 0
    endloop
  endfacet
  facet normal 0 0 -1
    outer loop
      vertex -31.156625352799892 2.0479810312390327 0
      vertex -31.422907769680023 2.092119984328747 0
      vertex -30.15106061846018 8.114374473690987 0
    endloop
  endfacet
  facet normal 0 0 -1
    outer loop
      vertex 30.765332609415054 6.260571323335171 0
      vertex 30.861896812915802 6.270520210266113 0
      vertex 31.49210164695978 0.15372924506664276 0
    endloop
  endfacet
  facet normal 0 0 -1
    outer loop
      vertex 30.765332609415054 6.260571323335171 0
      vertex 31.49210164695978 0.15372924506664276 0
      vertex 31.395537443459034 0.14378035813570023 0
    endloop
  endfacet
  facet normal 0 0 -1
    outer loop
      vertex -30.336243472993374 8.45508312433958 0
      vertex -28.11490710824728 14.189013242721558 0
      vertex -27.929724261164665 14.117273017764091 0
    endloop
  endfacet
  facet normal 0 0 -1
    outer loop
      vertex -30.15106061846018 8.383342899382114 0
      vertex -30.336243472993374 8.45508312433958 0
      vertex -27.929724261164665 14.117273017764091 0
    endloop
  endfacet
  facet normal 0 0 -1
    outer loop
      vertex 28.724050924181938 12.36419190466404 0
      vertex 28.935070887207985 12.431322194635868 0
      vertex 30.79920817166567 6.5715199783444405 0
    endloop
  endfacet
  facet normal 0 0 -1
    outer loop
      vertex 28.724050924181938 12.36419190466404 0
      vertex 30.79920817166567 6.5715199783444405 0
      vertex 30.58818820118904 6.504389688372612 0
    endloop
  endfacet
  facet normal 0 0 -1
    outer loop
      vertex -27.975042693316936 14.462817318737507 0
      vertex -24.63126116991043 19.62338075041771 0
      vertex -24.58594273030758 19.59401671588421 0
    endloop
  endfacet
  facet normal 0 0 -1
    outer loop
      vertex -27.929724261164665 14.433453284204006 0
      vertex -27.975042693316936 14.462817318737507 0
      vertex -24.58594273030758 19.59401671588421 0
    endloop
  endfacet
  facet normal 0 0 -1
    outer loop
      vertex -19.74238207191229 24.228024072945118 0
      vertex -19.875222481787205 24.42850036174059 0
      vertex -14.74925982952118 27.825086399912834 0
    endloop
  endfacet
  facet normal 0 0 -1
    outer loop
      vertex -19.74238207191229 24.228024072945118 0
      vertex -14.74925982952118 27.825086399912834 0
      vertex -14.616419419646263 27.624610111117363 0
    endloop
  endfacet
  facet normal 0 0 -1
    outer loop
      vertex -8.422687120735645 30.06160342693329 0
      vertex -8.470361970365047 30.331980921328068 0
      vertex -2.4146118238568306 31.399773061275482 0
    endloop
  endfacet
  facet normal 0 0 -1
    outer loop
      vertex -8.422687120735645 30.06160342693329 0
      vertex -2.4146118238568306 31.399773061275482 0
      vertex -2.3669369742274284 31.129395566880703 0
    endloop
  endfacet
  facet normal 0 0 -1
    outer loop
      vertex 16.434222862124443 26.86433356255293 0
      vertex 21.341366335749626 23.158630825579166 0
      vertex 21.201902262866497 22.973950549960136 0
    endloop
  endfacet
  facet normal 0 0 -1
    outer loop
      vertex 16.294758789241314 26.6796532869339 0
      vertex 16.434222862124443 26.86433356255293 0
      vertex 21.201902262866497 22.973950549960136 0
    endloop
  endfacet
  facet normal 0 0 -1
    outer loop
      vertex 21.566442400217056 22.949175603687763 0
      vertex 25.614935390651226 18.32078555971384 0
      vertex 25.403050757944584 18.13544823229313 0
    endloop
  endfacet
  facet normal 0 0 -1
    outer loop
      vertex 21.354557767510414 22.76383827626705 0
      vertex 21.566442400217056 22.949175603687763 0
      vertex 25.403050757944584 18.13544823229313 0
    endloop
  endfacet
  facet normal 0 0 -1
    outer loop
      vertex -29.40430411696434 -10.565818212926388 0
      vertex -29.645474024116993 -10.626474879682064 0
      vertex -31.14534091949463 -4.663028798997402 0
    endloop
  endfacet
  facet normal 0 0 -1
    outer loop
      vertex -29.40430411696434 -10.565818212926388 0
      vertex -31.14534091949463 -4.663028798997402 0
      vertex -30.904171012341976 -4.602372132241726 0
    endloop
  endfacet
  facet normal 0 0 -1
    outer loop
      vertex 10.611541546881199 29.650822661817074 0
      vertex 16.171168468892574 27.023497350513935 0
      vertex 16.12142228335142 26.918230518698692 0
    endloop
  endfacet
  facet normal 0 0 -1
    outer loop
      vertex 10.561795368790627 29.54555583745241 0
      vertex 10.611541546881199 29.650822661817074 0
      vertex 16.12142228335142 26.918230518698692 0
    endloop
  endfacet
  facet normal 0 0 -1
    outer loop
      vertex 25.55005244165659 17.933117777109146 0
      vertex 25.792576864361763 18.069838888943195 0
      vertex 28.81232737749815 12.713217131793499 0
    endloop
  endfacet
  facet normal 0 0 -1
    outer loop
      vertex 25.55005244165659 17.933117777109146 0
      vertex 28.81232737749815 12.713217131793499 0
      vertex 28.569802954792976 12.57649602741003 0
    endloop
  endfacet
  facet normal 0 0 -1
    outer loop
      vertex 4.343030586838722 31.191572323441505 0
      vertex 10.321560710668564 29.753007970750332 0
      vertex 10.303711764514446 29.67882952839136 0
    endloop
  endfacet
  facet normal 0 0 -1
    outer loop
      vertex 4.325181633234024 31.117393881082535 0
      vertex 4.343030586838722 31.191572323441505 0
      vertex 10.303711764514446 29.67882952839136 0
    endloop
  endfacet
  facet normal 0 0 -1
    outer loop
      vertex -2.114429622888565 31.211440183222294 0
      vertex -2.1079469695687294 31.421850010752678 0
      vertex 4.038306444883347 31.232485964894295 0
    endloop
  endfacet
  facet normal 0 0 -1
    outer loop
      vertex -2.114429622888565 31.211440183222294 0
      vertex 4.038306444883347 31.232485964894295 0
      vertex 4.03182378411293 31.02207613736391 0
    endloop
  endfacet
  facet normal 0 0 -1
    outer loop
      vertex -31.18938084691763 -4.358740761876106 0
      vertex -31.441835194826126 1.785244643688202 0
      vertex -31.156625352799892 1.796963818371296 0
    endloop
  endfacet
  facet normal 0 0 -1
    outer loop
      vertex -30.904171012341976 -4.347021579742432 0
      vertex -31.18938084691763 -4.358740761876106 0
      vertex -31.156625352799892 1.796963818371296 0
    endloop
  endfacet
  facet normal 0 0 -1
    outer loop
      vertex -14.371655635535717 27.704138681292534 0
      vertex -14.476906098425388 27.96775444597006 0
      vertex -8.766083434224129 30.24784091114998 0
    endloop
  endfacet
  facet normal 0 0 -1
    outer loop
      vertex -14.371655635535717 27.704138681292534 0
      vertex -8.766083434224129 30.24784091114998 0
      vertex -8.660832971334457 29.984225153923035 0
    endloop
  endfacet
  facet normal 0 0 -1
    outer loop
      vertex -24.34295877814293 19.768342316150665 0
      vertex -24.438508115708828 19.862915687263012 0
      vertex -20.112765908241272 24.233298294246197 0
    endloop
  endfacet
  facet normal 0 0 -1
    outer loop
      vertex -24.34295877814293 19.768342316150665 0
      vertex -20.112765908241272 24.233298294246197 0
      vertex -20.017216570675373 24.13872493058443 0
    endloop
  endfacet
  facet normal 0 0 -1
    outer loop
      vertex 31.395537443459034 0.14378035813570023 0
      vertex 31.5 0 0
      vertex 30.463525488972664 -1.4265847727656364 0
    endloop
  endfacet
  facet normal 0 0 -1
    outer loop
      vertex 31.395537443459034 0.14378035813570023 0
      vertex 30.463525488972664 -1.4265847727656364 0
      vertex 28.786474511027336 -0.8816778808832169 0
    endloop
  endfacet
  facet normal 0 0 -1
    outer loop
      vertex 31.395537443459034 0.14378035813570023 0
      vertex 28.786474511027336 -0.8816778808832169 0
      vertex 28.786474511027336 -0.12502790987491608 0
    endloop
  endfacet
  facet normal 0 0 -1
    outer loop
      vertex 30.765332609415054 6.260571323335171 0
      vertex 31.395537443459034 0.14378035813570023 0
      vertex 28.786474511027336 -0.12502790987491608 0
    endloop
  endfacet
  facet normal 0 0 -1
    outer loop
      vertex 30.765332609415054 6.260571323335171 0
      vertex 28.786474511027336 -0.12502790987491608 0
      vertex 27.893532045185566 5.809332452714443 0
    endloop
  endfacet
  facet normal 0 0 -1
    outer loop
      vertex 30.58818820118904 6.504389688372612 0
      vertex 30.765332609415054 6.260571323335171 0
      vertex 27.893532045185566 5.809332452714443 0
    endloop
  endfacet
  facet normal 0 0 -1
    outer loop
      vertex 30.58818820118904 6.504389688372612 0
      vertex 27.893532045185566 5.809332452714443 0
      vertex 26.123094998300076 11.374593660235405 0
    endloop
  endfacet
  facet normal 0 0 -1
    outer loop
      vertex 28.724050924181938 12.36419190466404 0
      vertex 30.58818820118904 6.504389688372612 0
      vertex 26.123094998300076 11.374593660235405 0
    endloop
  endfacet
  facet normal 0 0 -1
    outer loop
      vertex 28.569802954792976 12.57649602741003 0
      vertex 28.724050924181938 12.36419190466404 0
      vertex 26.123094998300076 11.374593660235405 0
    endloop
  endfacet
  facet normal 0 0 -1
    outer loop
      vertex 28.569802954792976 12.57649602741003 0
      vertex 26.123094998300076 11.374593660235405 0
      vertex 23.255131252110004 16.46196658909321 0
    endloop
  endfacet
  facet normal 0 0 -1
    outer loop
      vertex 25.55005244165659 17.933117777109146 0
      vertex 28.569802954792976 12.57649602741003 0
      vertex 23.255131252110004 16.46196658909321 0
    endloop
  endfacet
  facet normal 0 0 -1
    outer loop
      vertex 25.403050757944584 18.13544823229313 0
      vertex 25.55005244165659 17.933117777109146 0
      vertex 23.255131252110004 16.46196658909321 0
    endloop
  endfacet
  facet normal 0 0 -1
    outer loop
      vertex 25.403050757944584 18.13544823229313 0
      vertex 23.255131252110004 16.46196658909321 0
      vertex 19.410134449601173 20.857712097465992 0
    endloop
  endfacet
  facet normal 0 0 -1
    outer loop
      vertex 21.354557767510414 22.76383827626705 0
      vertex 25.403050757944584 18.13544823229313 0
      vertex 19.410134449601173 20.857712097465992 0
    endloop
  endfacet
  facet normal 0 0 -1
    outer loop
      vertex 21.201902262866497 22.973950549960136 0
      vertex 21.354557767510414 22.76383827626705 0
      vertex 19.410134449601173 20.857712097465992 0
    endloop
  endfacet
  facet normal 0 0 -1
    outer loop
      vertex 21.201902262866497 22.973950549960136 0
      vertex 19.410134449601173 20.857712097465992 0
      vertex 14.749646916985512 24.377148911356926 0
    endloop
  endfacet
  facet normal 0 0 -1
    outer loop
      vertex 16.294758789241314 26.6796532869339 0
      vertex 21.201902262866497 22.973950549960136 0
      vertex 14.749646916985512 24.377148911356926 0
    endloop
  endfacet
  facet normal 0 0 -1
    outer loop
      vertex 16.294758789241314 26.6796532869339 0
      vertex 14.749646916985512 24.377148911356926 0
      vertex 9.469472832977772 26.87241257727146 0
    endloop
  endfacet
  facet normal 0 0 -1
    outer loop
      vertex 16.12142228335142 26.918230518698692 0
      vertex 16.294758789241314 26.6796532869339 0
      vertex 9.469472832977772 26.87241257727146 0
    endloop
  endfacet
  facet normal 0 0 -1
    outer loop
      vertex 10.561795368790627 29.54555583745241 0
      vertex 16.12142228335142 26.918230518698692 0
      vertex 9.469472832977772 26.87241257727146 0
    endloop
  endfacet
  facet normal 0 0 -1
    outer loop
      vertex 10.561795368790627 29.54555583745241 0
      vertex 9.469472832977772 26.87241257727146 0
      vertex 3.7914515510201454 28.238667964935303 0
    endloop
  endfacet
  facet normal 0 0 -1
    outer loop
      vertex -24.58594273030758 19.59401671588421 0
      vertex -24.58594273030758 19.689392052590847 0
      vertex -24.34295877814293 19.768342316150665 0
    endloop
  endfacet
  facet normal 0 0 -1
    outer loop
      vertex 10.303711764514446 29.67882952839136 0
      vertex 10.434169478714466 29.721217811107635 0
      vertex 10.561795368790627 29.54555583745241 0
    endloop
  endfacet
  facet normal 0 0 -1
    outer loop
      vertex 10.303711764514446 29.67882952839136 0
      vertex 10.561795368790627 29.54555583745241 0
      vertex 3.7914515510201454 28.238667964935303 0
    endloop
  endfacet
  facet normal 0 0 -1
    outer loop
      vertex 4.325181633234024 31.117393881082535 0
      vertex 10.303711764514446 29.67882952839136 0
      vertex 3.7914515510201454 28.238667964935303 0
    endloop
  endfacet
  facet normal 0 0 -1
    outer loop
      vertex 4.03182378411293 31.02207613736391 0
      vertex 4.325181633234024 31.117393881082535 0
      vertex 3.7914515510201454 28.238667964935303 0
    endloop
  endfacet
  facet normal 0 0 -1
    outer loop
      vertex 4.03182378411293 31.02207613736391 0
      vertex 3.7914515510201454 28.238667964935303 0
      vertex -2.0458624362945557 28.41851369291544 0
    endloop
  endfacet
  facet normal 0 0 -1
    outer loop
      vertex -2.114429622888565 31.211440183222294 0
      vertex 4.03182378411293 31.02207613736391 0
      vertex -2.0458624362945557 28.41851369291544 0
    endloop
  endfacet
  facet normal 0 0 -1
    outer loop
      vertex -2.3669369742274284 31.129395566880703 0
      vertex -2.114429622888565 31.211440183222294 0
      vertex -2.0458624362945557 28.41851369291544 0
    endloop
  endfacet
  facet normal 0 0 -1
    outer loop
      vertex -2.3669369742274284 31.129395566880703 0
      vertex -2.0458624362945557 28.41851369291544 0
      vertex -7.797222279012203 27.404393769800663 0
    endloop
  endfacet
  facet normal 0 0 -1
    outer loop
      vertex -8.422687120735645 30.06160342693329 0
      vertex -2.3669369742274284 31.129395566880703 0
      vertex -7.797222279012203 27.404393769800663 0
    endloop
  endfacet
  facet normal 0 0 -1
    outer loop
      vertex -8.660832971334457 29.984225153923035 0
      vertex -8.422687120735645 30.06160342693329 0
      vertex -7.797222279012203 27.404393769800663 0
    endloop
  endfacet
  facet normal 0 0 -1
    outer loop
      vertex -8.660832971334457 29.984225153923035 0
      vertex -7.797222279012203 27.404393769800663 0
      vertex -13.220992341637611 25.238915093243122 0
    endloop
  endfacet
  facet normal 0 0 -1
    outer loop
      vertex -14.371655635535717 27.704138681292534 0
      vertex -8.660832971334457 29.984225153923035 0
      vertex -13.220992341637611 25.238915093243122 0
    endloop
  endfacet
  facet normal 0 0 -1
    outer loop
      vertex -14.616419419646263 27.624610111117363 0
      vertex -14.371655635535717 27.704138681292534 0
      vertex -13.220992341637611 25.238915093243122 0
    endloop
  endfacet
  facet normal 0 0 -1
    outer loop
      vertex -14.616419419646263 27.624610111117363 0
      vertex -13.220992341637611 25.238915093243122 0
      vertex -18.089300118386745 22.013057366013527 0
    endloop
  endfacet
  facet normal 0 0 -1
    outer loop
      vertex -19.74238207191229 24.228024072945118 0
      vertex -14.616419419646263 27.624610111117363 0
      vertex -18.089300118386745 22.013057366013527 0
    endloop
  endfacet
  facet normal 0 0 -1
    outer loop
      vertex -19.74238207191229 24.228024072945118 0
      vertex -18.089300118386745 22.013057366013527 0
      vertex -22.19761035591364 17.862350568175316 0
    endloop
  endfacet
  facet normal 0 0 -1
    outer loop
      vertex -20.017216570675373 24.13872493058443 0
      vertex -19.74238207191229 24.228024072945118 0
      vertex -22.19761035591364 17.862350568175316 0
    endloop
  endfacet
  facet normal 0 0 -1
    outer loop
      vertex -24.34295877814293 19.768342316150665 0
      vertex -20.017216570675373 24.13872493058443 0
      vertex -22.19761035591364 17.862350568175316 0
    endloop
  endfacet
  facet normal 0 0 -1
    outer loop
      vertex -24.34295877814293 19.768342316150665 0
      vertex -22.19761035591364 17.862350568175316 0
      vertex -25.373317785561085 12.961181201040745 0
    endloop
  endfacet
  facet normal 0 0 -1
    outer loop
      vertex -24.58594273030758 19.59401671588421 0
      vertex -24.34295877814293 19.768342316150665 0
      vertex -25.373317785561085 12.961181201040745 0
    endloop
  endfacet
  facet normal 0 0 -1
    outer loop
      vertex -27.929724261164665 14.433453284204006 0
      vertex -24.58594273030758 19.59401671588421 0
      vertex -25.373317785561085 12.961181201040745 0
    endloop
  endfacet
  facet normal 0 0 -1
    outer loop
      vertex -27.929724261164665 14.117273017764091 0
      vertex -27.929724261164665 14.433453284204006 0
      vertex -25.373317785561085 12.961181201040745 0
    endloop
  endfacet
  facet normal 0 0 -1
    outer loop
      vertex -27.929724261164665 14.117273017764091 0
      vertex -25.373317785561085 12.961181201040745 0
      vertex -27.48299941420555 7.515465177595615 0
    endloop
  endfacet
  facet normal 0 0 -1
    outer loop
      vertex -30.15106061846018 8.383342899382114 0
      vertex -27.929724261164665 14.117273017764091 0
      vertex -27.48299941420555 7.515465177595615 0
    endloop
  endfacet
  facet normal 0 0 -1
    outer loop
      vertex -30.15106061846018 8.114374473690987 0
      vertex -30.15106061846018 8.383342899382114 0
      vertex -27.48299941420555 7.515465177595615 0
    endloop
  endfacet
  facet normal 0 0 -1
    outer loop
      vertex -30.15106061846018 8.114374473690987 0
      vertex -27.48299941420555 7.515465177595615 0
      vertex -28.438019759953022 1.753997027873993 0
    endloop
  endfacet
  facet normal 0 0 -1
    outer loop
      vertex -31.156625352799892 2.0479810312390327 0
      vertex -30.15106061846018 8.114374473690987 0
      vertex -28.438019759953022 1.753997027873993 0
    endloop
  endfacet
  facet normal 0 0 -1
    outer loop
      vertex -31.156625352799892 1.796963818371296 0
      vertex -31.156625352799892 2.0479810312390327 0
      vertex -28.438019759953022 1.753997027873993 0
    endloop
  endfacet
  facet normal 0 0 -1
    outer loop
      vertex -31.156625352799892 1.796963818371296 0
      vertex -28.438019759953022 1.753997027873993 0
      vertex -28.198254950344563 -4.081162974238396 0
    endloop
  endfacet
  facet normal 0 0 -1
    outer loop
      vertex -30.904171012341976 -4.347021579742432 0
      vertex -31.156625352799892 1.796963818371296 0
      vertex -28.198254950344563 -4.081162974238396 0
    endloop
  endfacet
  facet normal 0 0 -1
    outer loop
      vertex -30.904171012341976 -4.602372132241726 0
      vertex -30.904171012341976 -4.347021579742432 0
      vertex -28.198254950344563 -4.081162974238396 0
    endloop
  endfacet
  facet normal 0 0 -1
    outer loop
      vertex -30.904171012341976 -4.602372132241726 0
      vertex -28.198254950344563 -4.081162974238396 0
      vertex -26.922529332339764 -9.94162679463625 0
    endloop
  endfacet
  facet normal 0 0 -1
    outer loop
      vertex -29.40430411696434 -10.565818212926388 0
      vertex -30.904171012341976 -4.602372132241726 0
      vertex -26.922529332339764 -9.94162679463625 0
    endloop
  endfacet
  facet normal 0 0 -1
    outer loop
      vertex -29.40430411696434 -11.14228218048811 0
      vertex -29.40430411696434 -10.565818212926388 0
      vertex -26.922529332339764 -9.94162679463625 0
    endloop
  endfacet
  facet normal 0 0 -1
    outer loop
      vertex -27.727253131568432 -11.68718907237053 0
      vertex -29.40430411696434 -11.14228218048811 0
      vertex -26.922529332339764 -9.94162679463625 0
    endloop
  endfacet
  facet normal 0 0 -1
    outer loop
      vertex -26.690778620541096 -10.260604299604893 0
      vertex -27.727253131568432 -11.68718907237053 0
      vertex -26.922529332339764 -9.94162679463625 0
    endloop
  endfacet
  facet normal 0 0 1
    outer loop
      vertex -26.922529332339764 -9.94162679463625 5
      vertex -26.7360832169652 -9.894733719527721 5
      vertex -28.198254950344563 -4.081162974238396 5
    endloop
  endfacet
  facet normal 0 0 1
    outer loop
      vertex 27.893532045185566 5.809332452714443 5
      vertex 28.50789835304022 -0.15372924506664276 5
      vertex 28.786474511027336 -0.12502790987491608 5
    endloop
  endfacet
  facet normal 0 0 1
    outer loop
      vertex -30.15106061846018 8.114374473690987 5
      vertex -30.41734303534031 8.1585134267807 5
      vertex -31.422907769680023 2.092119984328747 5
    endloop
  endfacet
  facet normal 0 0 1
    outer loop
      vertex -30.15106061846018 8.114374473690987 5
      vertex -31.422907769680023 2.092119984328747 5
      vertex -31.156625352799892 2.0479810312390327 5
    endloop
  endfacet
  facet normal 0 0 1
    outer loop
      vertex 31.49210164695978 0.15372924506664276 5
      vertex 30.861896812915802 6.270520210266113 5
      vertex 30.765332609415054 6.260571323335171 5
    endloop
  endfacet
  facet normal 0 0 1
    outer loop
      vertex 31.395537443459034 0.14378035813570023 5
      vertex 31.49210164695978 0.15372924506664276 5
      vertex 30.765332609415054 6.260571323335171 5
    endloop
  endfacet
  facet normal 0 0 1
    outer loop
      vertex -27.929724261164665 14.117273017764091 5
      vertex -28.11490710824728 14.189013242721558 5
      vertex -30.336243472993374 8.45508312433958 5
    endloop
  endfacet
  facet normal 0 0 1
    outer loop
      vertex -27.929724261164665 14.117273017764091 5
      vertex -30.336243472993374 8.45508312433958 5
      vertex -30.15106061846018 8.383342899382114 5
    endloop
  endfacet
  facet normal 0 0 1
    outer loop
      vertex 30.79920817166567 6.5715199783444405 5
      vertex 28.935070887207985 12.431322194635868 5
      vertex 28.724050924181938 12.36419190466404 5
    endloop
  endfacet
  facet normal 0 0 1
    outer loop
      vertex 30.58818820118904 6.504389688372612 5
      vertex 30.79920817166567 6.5715199783444405 5
      vertex 28.724050924181938 12.36419190466404 5
    endloop
  endfacet
  facet normal 0 0 1
    outer loop
      vertex -24.58594273030758 19.59401671588421 5
      vertex -24.63126116991043 19.62338075041771 5
      vertex -27.975042693316936 14.462817318737507 5
    endloop
  endfacet
  facet normal 0 0 1
    outer loop
      vertex -24.58594273030758 19.59401671588421 5
      vertex -27.975042693316936 14.462817318737507 5
      vertex -27.929724261164665 14.433453284204006 5
    endloop
  endfacet
  facet normal 0 0 1
    outer loop
      vertex -14.74925982952118 27.825086399912834 5
      vertex -19.875222481787205 24.42850036174059 5
      vertex -19.74238207191229 24.228024072945118 5
    endloop
  endfacet
  facet normal 0 0 1
    outer loop
      vertex -14.616419419646263 27.624610111117363 5
      vertex -14.74925982952118 27.825086399912834 5
      vertex -19.74238207191229 24.228024072945118 5
    endloop
  endfacet
  facet normal 0 0 1
    outer loop
      vertex -2.4146118238568306 31.399773061275482 5
      vertex -8.470361970365047 30.331980921328068 5
      vertex -8.422687120735645 30.06160342693329 5
    endloop
  endfacet
  facet normal 0 0 1
    outer loop
      vertex -2.3669369742274284 31.129395566880703 5
      vertex -2.4146118238568306 31.399773061275482 5
      vertex -8.422687120735645 30.06160342693329 5
    endloop
  endfacet
  facet normal 0 0 1
    outer loop
      vertex 21.201902262866497 22.973950549960136 5
      vertex 21.341366335749626 23.158630825579166 5
      vertex 16.434222862124443 26.86433356255293 5
    endloop
  endfacet
  facet normal 0 0 1
    outer loop
      vertex 21.201902262866497 22.973950549960136 5
      vertex 16.434222862124443 26.86433356255293 5
      vertex 16.294758789241314 26.6796532869339 5
    endloop
  endfacet
  facet normal 0 0 1
    outer loop
      vertex 25.403050757944584 18.13544823229313 5
      vertex 25.614935390651226 18.32078555971384 5
      vertex 21.566442400217056 22.949175603687763 5
    endloop
  endfacet
  facet normal 0 0 1
    outer loop
      vertex 25.403050757944584 18.13544823229313 5
      vertex 21.566442400217056 22.949175603687763 5
      vertex 21.354557767510414 22.76383827626705 5
    endloop
  endfacet
  facet normal 0 0 1
    outer loop
      vertex -31.14534091949463 -4.663028798997402 5
      vertex -29.645474024116993 -10.626474879682064 5
      vertex -29.40430411696434 -10.565818212926388 5
    endloop
  endfacet
  facet normal 0 0 1
    outer loop
      vertex -30.904171012341976 -4.602372132241726 5
      vertex -31.14534091949463 -4.663028798997402 5
      vertex -29.40430411696434 -10.565818212926388 5
    endloop
  endfacet
  facet normal 0 0 1
    outer loop
      vertex 16.12142228335142 26.918230518698692 5
      vertex 16.171168468892574 27.023497350513935 5
      vertex 10.611541546881199 29.650822661817074 5
    endloop
  endfacet
  facet normal 0 0 1
    outer loop
      vertex 16.12142228335142 26.918230518698692 5
      vertex 10.611541546881199 29.650822661817074 5
      vertex 10.561795368790627 29.54555583745241 5
    endloop
  endfacet
  facet normal 0 0 1
    outer loop
      vertex 28.81232737749815 12.713217131793499 5
      vertex 25.792576864361763 18.069838888943195 5
      vertex 25.55005244165659 17.933117777109146 5
    endloop
  endfacet
  facet normal 0 0 1
    outer loop
      vertex 28.569802954792976 12.57649602741003 5
      vertex 28.81232737749815 12.713217131793499 5
      vertex 25.55005244165659 17.933117777109146 5
    endloop
  endfacet
  facet normal 0 0 1
    outer loop
      vertex 10.303711764514446 29.67882952839136 5
      vertex 10.321560710668564 29.753007970750332 5
      vertex 4.343030586838722 31.191572323441505 5
    endloop
  endfacet
  facet normal 0 0 1
    outer loop
      vertex 10.303711764514446 29.67882952839136 5
      vertex 4.343030586838722 31.191572323441505 5
      vertex 4.325181633234024 31.117393881082535 5
    endloop
  endfacet
  facet normal 0 0 1
    outer loop
      vertex 4.038306444883347 31.232485964894295 5
      vertex -2.1079469695687294 31.421850010752678 5
      vertex -2.114429622888565 31.211440183222294 5
    endloop
  endfacet
  facet normal 0 0 1
    outer loop
      vertex 4.03182378411293 31.02207613736391 5
      vertex 4.038306444883347 31.232485964894295 5
      vertex -2.114429622888565 31.211440183222294 5
    endloop
  endfacet
  facet normal 0 0 1
    outer loop
      vertex -31.156625352799892 1.796963818371296 5
      vertex -31.441835194826126 1.785244643688202 5
      vertex -31.18938084691763 -4.358740761876106 5
    endloop
  endfacet
  facet normal 0 0 1
    outer loop
      vertex -31.156625352799892 1.796963818371296 5
      vertex -31.18938084691763 -4.358740761876106 5
      vertex -30.904171012341976 -4.347021579742432 5
    endloop
  endfacet
  facet normal 0 0 1
    outer loop
      vertex -8.766083434224129 30.24784091114998 5
      vertex -14.476906098425388 27.96775444597006 5
      vertex -14.371655635535717 27.704138681292534 5
    endloop
  endfacet
  facet normal 0 0 1
    outer loop
      vertex -8.660832971334457 29.984225153923035 5
      vertex -8.766083434224129 30.24784091114998 5
      vertex -14.371655635535717 27.704138681292534 5
    endloop
  endfacet
  facet normal 0 0 1
    outer loop
      vertex -20.112765908241272 24.233298294246197 5
      vertex -24.438508115708828 19.862915687263012 5
      vertex -24.34295877814293 19.768342316150665 5
    endloop
  endfacet
  facet normal 0 0 1
    outer loop
      vertex -20.017216570675373 24.13872493058443 5
      vertex -20.112765908241272 24.233298294246197 5
      vertex -24.34295877814293 19.768342316150665 5
    endloop
  endfacet
  facet normal 0 0 1
    outer loop
      vertex 30.463525488972664 -1.4265847727656364 5
      vertex 31.5 0 5
      vertex 31.395537443459034 0.14378035813570023 5
    endloop
  endfacet
  facet normal 0 0 1
    outer loop
      vertex 28.786474511027336 -0.8816778808832169 5
      vertex 30.463525488972664 -1.4265847727656364 5
      vertex 31.395537443459034 0.14378035813570023 5
    endloop
  endfacet
  facet normal 0 0 1
    outer loop
      vertex 28.786474511027336 -0.12502790987491608 5
      vertex 28.786474511027336 -0.8816778808832169 5
      vertex 31.395537443459034 0.14378035813570023 5
    endloop
  endfacet
  facet normal 0 0 1
    outer loop
      vertex 28.786474511027336 -0.12502790987491608 5
      vertex 31.395537443459034 0.14378035813570023 5
      vertex 30.765332609415054 6.260571323335171 5
    endloop
  endfacet
  facet normal 0 0 1
    outer loop
      vertex 27.893532045185566 5.809332452714443 5
      vertex 28.786474511027336 -0.12502790987491608 5
      vertex 30.765332609415054 6.260571323335171 5
    endloop
  endfacet
  facet normal 0 0 1
    outer loop
      vertex 27.893532045185566 5.809332452714443 5
      vertex 30.765332609415054 6.260571323335171 5
      vertex 30.58818820118904 6.504389688372612 5
    endloop
  endfacet
  facet normal 0 0 1
    outer loop
      vertex 26.123094998300076 11.374593660235405 5
      vertex 27.893532045185566 5.809332452714443 5
      vertex 30.58818820118904 6.504389688372612 5
    endloop
  endfacet
  facet normal 0 0 1
    outer loop
      vertex 26.123094998300076 11.374593660235405 5
      vertex 30.58818820118904 6.504389688372612 5
      vertex 28.724050924181938 12.36419190466404 5
    endloop
  endfacet
  facet normal 0 0 1
    outer loop
      vertex 26.123094998300076 11.374593660235405 5
      vertex 28.724050924181938 12.36419190466404 5
      vertex 28.569802954792976 12.57649602741003 5
    endloop
  endfacet
  facet normal 0 0 1
    outer loop
      vertex 23.255131252110004 16.46196658909321 5
      vertex 26.123094998300076 11.374593660235405 5
      vertex 28.569802954792976 12.57649602741003 5
    endloop
  endfacet
  facet normal 0 0 1
    outer loop
      vertex 23.255131252110004 16.46196658909321 5
      vertex 28.569802954792976 12.57649602741003 5
      vertex 25.55005244165659 17.933117777109146 5
    endloop
  endfacet
  facet normal 0 0 1
    outer loop
      vertex 23.255131252110004 16.46196658909321 5
      vertex 25.55005244165659 17.933117777109146 5
      vertex 25.403050757944584 18.13544823229313 5
    endloop
  endfacet
  facet normal 0 0 1
    outer loop
      vertex 19.410134449601173 20.857712097465992 5
      vertex 23.255131252110004 16.46196658909321 5
      vertex 25.403050757944584 18.13544823229313 5
    endloop
  endfacet
  facet normal 0 0 1
    outer loop
      vertex 19.410134449601173 20.857712097465992 5
      vertex 25.403050757944584 18.13544823229313 5
      vertex 21.354557767510414 22.76383827626705 5
    endloop
  endfacet
  facet normal 0 0 1
    outer loop
      vertex 19.410134449601173 20.857712097465992 5
      vertex 21.354557767510414 22.76383827626705 5
      vertex 21.201902262866497 22.973950549960136 5
    endloop
  endfacet
  facet normal 0 0 1
    outer loop
      vertex 14.749646916985512 24.377148911356926 5
      vertex 19.410134449601173 20.857712097465992 5
      vertex 21.201902262866497 22.973950549960136 5
    endloop
  endfacet
  facet normal 0 0 1
    outer loop
      vertex 14.749646916985512 24.377148911356926 5
      vertex 21.201902262866497 22.973950549960136 5
      vertex 16.294758789241314 26.6796532869339 5
    endloop
  endfacet
  facet normal 0 0 1
    outer loop
      vertex 9.469472832977772 26.87241257727146 5
      vertex 14.749646916985512 24.377148911356926 5
      vertex 16.294758789241314 26.6796532869339 5
    endloop
  endfacet
  facet normal 0 0 1
    outer loop
      vertex 9.469472832977772 26.87241257727146 5
      vertex 16.294758789241314 26.6796532869339 5
      vertex 16.12142228335142 26.918230518698692 5
    endloop
  endfacet
  facet normal 0 0 1
    outer loop
      vertex 9.469472832977772 26.87241257727146 5
      vertex 16.12142228335142 26.918230518698692 5
      vertex 10.561795368790627 29.54555583745241 5
    endloop
  endfacet
  facet normal 0 0 1
    outer loop
      vertex 3.7914515510201454 28.238667964935303 5
      vertex 9.469472832977772 26.87241257727146 5
      vertex 10.561795368790627 29.54555583745241 5
    endloop
  endfacet
  facet normal 0 0 1
    outer loop
      vertex -24.34295877814293 19.768342316150665 5
      vertex -24.58594273030758 19.689392052590847 5
      vertex -24.58594273030758 19.59401671588421 5
    endloop
  endfacet
  facet normal 0 0 1
    outer loop
      vertex 10.561795368790627 29.54555583745241 5
      vertex 10.434169478714466 29.721217811107635 5
      vertex 10.303711764514446 29.67882952839136 5
    endloop
  endfacet
  facet normal 0 0 1
    outer loop
      vertex 3.7914515510201454 28.238667964935303 5
      vertex 10.561795368790627 29.54555583745241 5
      vertex 10.303711764514446 29.67882952839136 5
    endloop
  endfacet
  facet normal 0 0 1
    outer loop
      vertex 3.7914515510201454 28.238667964935303 5
      vertex 10.303711764514446 29.67882952839136 5
      vertex 4.325181633234024 31.117393881082535 5
    endloop
  endfacet
  facet normal 0 0 1
    outer loop
      vertex 3.7914515510201454 28.238667964935303 5
      vertex 4.325181633234024 31.117393881082535 5
      vertex 4.03182378411293 31.02207613736391 5
    endloop
  endfacet
  facet normal 0 0 1
    outer loop
      vertex -2.0458624362945557 28.41851369291544 5
      vertex 3.7914515510201454 28.238667964935303 5
      vertex 4.03182378411293 31.02207613736391 5
    endloop
  endfacet
  facet normal 0 0 1
    outer loop
      vertex -2.0458624362945557 28.41851369291544 5
      vertex 4.03182378411293 31.02207613736391 5
      vertex -2.114429622888565 31.211440183222294 5
    endloop
  endfacet
  facet normal 0 0 1
    outer loop
      vertex -2.0458624362945557 28.41851369291544 5
      vertex -2.114429622888565 31.211440183222294 5
      vertex -2.3669369742274284 31.129395566880703 5
    endloop
  endfacet
  facet normal 0 0 1
    outer loop
      vertex -7.797222279012203 27.404393769800663 5
      vertex -2.0458624362945557 28.41851369291544 5
      vertex -2.3669369742274284 31.129395566880703 5
    endloop
  endfacet
  facet normal 0 0 1
    outer loop
      vertex -7.797222279012203 27.404393769800663 5
      vertex -2.3669369742274284 31.129395566880703 5
      vertex -8.422687120735645 30.06160342693329 5
    endloop
  endfacet
  facet normal 0 0 1
    outer loop
      vertex -7.797222279012203 27.404393769800663 5
      vertex -8.422687120735645 30.06160342693329 5
      vertex -8.660832971334457 29.984225153923035 5
    endloop
  endfacet
  facet normal 0 0 1
    outer loop
      vertex -13.220992341637611 25.238915093243122 5
      vertex -7.797222279012203 27.404393769800663 5
      vertex -8.660832971334457 29.984225153923035 5
    endloop
  endfacet
  facet normal 0 0 1
    outer loop
      vertex -13.220992341637611 25.238915093243122 5
      vertex -8.660832971334457 29.984225153923035 5
      vertex -14.371655635535717 27.704138681292534 5
    endloop
  endfacet
  facet normal 0 0 1
    outer loop
      vertex -13.220992341637611 25.238915093243122 5
      vertex -14.371655635535717 27.704138681292534 5
      vertex -14.616419419646263 27.624610111117363 5
    endloop
  endfacet
  facet normal 0 0 1
    outer loop
      vertex -18.089300118386745 22.013057366013527 5
      vertex -13.220992341637611 25.238915093243122 5
      vertex -14.616419419646263 27.624610111117363 5
    endloop
  endfacet
  facet normal 0 0 1
    outer loop
      vertex -18.089300118386745 22.013057366013527 5
      vertex -14.616419419646263 27.624610111117363 5
      vertex -19.74238207191229 24.228024072945118 5
    endloop
  endfacet
  facet normal 0 0 1
    outer loop
      vertex -22.19761035591364 17.862350568175316 5
      vertex -18.089300118386745 22.013057366013527 5
      vertex -19.74238207191229 24.228024072945118 5
    endloop
  endfacet
  facet normal 0 0 1
    outer loop
      vertex -22.19761035591364 17.862350568175316 5
      vertex -19.74238207191229 24.228024072945118 5
      vertex -20.017216570675373 24.13872493058443 5
    endloop
  endfacet
  facet normal 0 0 1
    outer loop
      vertex -22.19761035591364 17.862350568175316 5
      vertex -20.017216570675373 24.13872493058443 5
      vertex -24.34295877814293 19.768342316150665 5
    endloop
  endfacet
  facet normal 0 0 1
    outer loop
      vertex -25.373317785561085 12.961181201040745 5
      vertex -22.19761035591364 17.862350568175316 5
      vertex -24.34295877814293 19.768342316150665 5
    endloop
  endfacet
  facet normal 0 0 1
    outer loop
      vertex -25.373317785561085 12.961181201040745 5
      vertex -24.34295877814293 19.768342316150665 5
      vertex -24.58594273030758 19.59401671588421 5
    endloop
  endfacet
  facet normal 0 0 1
    outer loop
      vertex -25.373317785561085 12.961181201040745 5
      vertex -24.58594273030758 19.59401671588421 5
      vertex -27.929724261164665 14.433453284204006 5
    endloop
  endfacet
  facet normal 0 0 1
    outer loop
      vertex -25.373317785561085 12.961181201040745 5
      vertex -27.929724261164665 14.433453284204006 5
      vertex -27.929724261164665 14.117273017764091 5
    endloop
  endfacet
  facet normal 0 0 1
    outer loop
      vertex -27.48299941420555 7.515465177595615 5
      vertex -25.373317785561085 12.961181201040745 5
      vertex -27.929724261164665 14.117273017764091 5
    endloop
  endfacet
  facet normal 0 0 1
    outer loop
      vertex -27.48299941420555 7.515465177595615 5
      vertex -27.929724261164665 14.117273017764091 5
      vertex -30.15106061846018 8.383342899382114 5
    endloop
  endfacet
  facet normal 0 0 1
    outer loop
      vertex -27.48299941420555 7.515465177595615 5
      vertex -30.15106061846018 8.383342899382114 5
      vertex -30.15106061846018 8.114374473690987 5
    endloop
  endfacet
  facet normal 0 0 1
    outer loop
      vertex -28.438019759953022 1.753997027873993 5
      vertex -27.48299941420555 7.515465177595615 5
      vertex -30.15106061846018 8.114374473690987 5
    endloop
  endfacet
  facet normal 0 0 1
    outer loop
      vertex -28.438019759953022 1.753997027873993 5
      vertex -30.15106061846018 8.114374473690987 5
      vertex -31.156625352799892 2.0479810312390327 5
    endloop
  endfacet
  facet normal 0 0 1
    outer loop
      vertex -28.438019759953022 1.753997027873993 5
      vertex -31.156625352799892 2.0479810312390327 5
      vertex -31.156625352799892 1.796963818371296 5
    endloop
  endfacet
  facet normal 0 0 1
    outer loop
      vertex -28.198254950344563 -4.081162974238396 5
      vertex -28.438019759953022 1.753997027873993 5
      vertex -31.156625352799892 1.796963818371296 5
    endloop
  endfacet
  facet normal 0 0 1
    outer loop
      vertex -28.198254950344563 -4.081162974238396 5
      vertex -31.156625352799892 1.796963818371296 5
      vertex -30.904171012341976 -4.347021579742432 5
    endloop
  endfacet
  facet normal 0 0 1
    outer loop
      vertex -28.198254950344563 -4.081162974238396 5
      vertex -30.904171012341976 -4.347021579742432 5
      vertex -30.904171012341976 -4.602372132241726 5
    endloop
  endfacet
  facet normal 0 0 1
    outer loop
      vertex -26.922529332339764 -9.94162679463625 5
      vertex -28.198254950344563 -4.081162974238396 5
      vertex -30.904171012341976 -4.602372132241726 5
    endloop
  endfacet
  facet normal 0 0 1
    outer loop
      vertex -26.922529332339764 -9.94162679463625 5
      vertex -30.904171012341976 -4.602372132241726 5
      vertex -29.40430411696434 -10.565818212926388 5
    endloop
  endfacet
  facet normal 0 0 1
    outer loop
      vertex -26.922529332339764 -9.94162679463625 5
      vertex -29.40430411696434 -10.565818212926388 5
      vertex -29.40430411696434 -11.14228218048811 5
    endloop
  endfacet
  facet normal 0 0 1
    outer loop
      vertex -26.922529332339764 -9.94162679463625 5
      vertex -29.40430411696434 -11.14228218048811 5
      vertex -27.727253131568432 -11.68718907237053 5
    endloop
  endfacet
  facet normal 0 0 1
    outer loop
      vertex -26.922529332339764 -9.94162679463625 5
      vertex -27.727253131568432 -11.68718907237053 5
      vertex -26.690778620541096 -10.260604299604893 5
    endloop
  endfacet
endsolid PythonSCAD_Model
