solid PythonSCAD_Model
  facet normal -0.12053668025532327 -0.992708874098054 0
    outer loop
      vertex 0.482146721021291 -3.9708354963922163 10
      vertex -1.4184195481701427 -3.7400649707416593 -10
      vertex 0.482146721021291 -3.9708354963922163 -10
    endloop
  endfacet
  facet normal -0.5680647467311558 -0.8229838658936564 0
    outer loop
      vertex -1.4184195481701427 -3.7400649707416593 10
      vertex -2.994042992684404 -2.652490632963181 -10
      vertex -1.4184195481701427 -3.7400649707416593 -10
    endloop
  endfacet
  facet normal 0.35460488704253584 -0.9350162426854147 0
    outer loop
      vertex 2.2722589869246246 -3.2919354635746245 10
      vertex 0.482146721021291 -3.9708354963922163 -10
      vertex 2.2722589869246246 -3.2919354635746245 -10
    endloop
  endfacet
  facet normal 0.7485107481711013 -0.6631226582407951 0
    outer loop
      vertex 3.54182410261284 -1.8588926881750734 -10
      vertex 2.2722589869246246 -3.2919354635746245 10
      vertex 2.2722589869246246 -3.2919354635746245 -10
    endloop
  endfacet
  facet normal 0 0 -1
    outer loop
      vertex -1.4184195481701427 -3.7400649707416593 -10
      vertex 0.48214672102129197 3.970835496392216 -10
      vertex 0.482146721021291 -3.9708354963922163 -10
    endloop
  endfacet
  facet normal 0 0 -1
    outer loop
      vertex 0.482146721021291 -3.9708354963922163 -10
      vertex 2.272258986924623 3.291935463574626 -10
      vertex 2.2722589869246246 -3.2919354635746245 -10
    endloop
  endfacet
  facet normal 0 0 -1
    outer loop
      vertex 2.2722589869246246 -3.2919354635746245 -10
      vertex 3.5418241026128396 1.8588926881750742 -10
      vertex 3.54182410261284 -1.8588926881750734 -10
    endloop
  endfacet
  facet normal 0 0 -1
    outer loop
      vertex -2.994042992684404 -2.652490632963181 -10
      vertex -1.4184195481701427 3.7400649707416593 -10
      vertex -1.4184195481701427 -3.7400649707416593 -10
    endloop
  endfacet
  facet normal 0 0 -1
    outer loop
      vertex -3.883767269704208 -0.9572626571502305 -10
      vertex -2.994042992684404 2.652490632963181 -10
      vertex -2.994042992684404 -2.652490632963181 -10
    endloop
  endfacet
  facet normal -0.8854560256532099 -0.4647231720437685 0
    outer loop
      vertex -2.994042992684404 -2.652490632963181 -10
      vertex -3.883767269704208 -0.9572626571502305 10
      vertex -3.883767269704208 -0.9572626571502305 -10
    endloop
  endfacet
  facet normal 0.970941817426052 -0.2393156642875576 0
    outer loop
      vertex 4 0 -10
      vertex 3.54182410261284 -1.8588926881750734 10
      vertex 3.54182410261284 -1.8588926881750734 -10
    endloop
  endfacet
  facet normal -0.12053668025532327 -0.992708874098054 0
    outer loop
      vertex -1.4184195481701427 -3.7400649707416593 -10
      vertex 0.482146721021291 -3.9708354963922163 10
      vertex -1.4184195481701427 -3.7400649707416593 10
    endloop
  endfacet
  facet normal -0.5680647467311558 -0.8229838658936564 0
    outer loop
      vertex -2.994042992684404 -2.652490632963181 -10
      vertex -1.4184195481701427 -3.7400649707416593 10
      vertex -2.994042992684404 -2.652490632963181 10
    endloop
  endfacet
  facet normal 0.35460488704253584 -0.9350162426854147 0
    outer loop
      vertex 0.482146721021291 -3.9708354963922163 -10
      vertex 2.2722589869246246 -3.2919354635746245 10
      vertex 0.482146721021291 -3.9708354963922163 10
    endloop
  endfacet
  facet normal -0.8854560256532099 -0.4647231720437685 0
    outer loop
      vertex -3.883767269704208 -0.9572626571502305 10
      vertex -2.994042992684404 -2.652490632963181 -10
      vertex -2.994042992684404 -2.652490632963181 10
    endloop
  endfacet
  facet normal 0.7485107481711013 -0.6631226582407951 0
    outer loop
      vertex 2.2722589869246246 -3.2919354635746245 10
      vertex 3.54182410261284 -1.8588926881750734 -10
      vertex 3.54182410261284 -1.8588926881750734 10
    endloop
  endfacet
  facet normal -1 0 0
    outer loop
      vertex -3.883767269704208 0.9572626571502305 10
      vertex -3.883767269704208 -0.9572626571502305 -10
      vertex -3.883767269704208 -0.9572626571502305 10
    endloop
  endfacet
  facet normal 0.970941817426052 -0.2393156642875576 0
    outer loop
      vertex 3.54182410261284 -1.8588926881750734 10
      vertex 4 0 -10
      vertex 4 0 10
    endloop
  endfacet
  facet normal 0 0 1
    outer loop
      vertex -2.994042992684404 2.652490632963181 10
      vertex -2.994042992684404 -2.652490632963181 10
      vertex -1.4184195481701427 -3.7400649707416593 10
    endloop
  endfacet
  facet normal 0 0 1
    outer loop
      vertex -1.4184195481701427 3.7400649707416593 10
      vertex -1.4184195481701427 -3.7400649707416593 10
      vertex 0.482146721021291 -3.9708354963922163 10
    endloop
  endfacet
  facet normal 0 0 1
    outer loop
      vertex 0.48214672102129197 3.970835496392216 10
      vertex 0.482146721021291 -3.9708354963922163 10
      vertex 2.2722589869246246 -3.2919354635746245 10
    endloop
  endfacet
  facet normal 0 0 1
    outer loop
      vertex -2.994042992684404 -2.652490632963181 10
      vertex -3.883767269704208 0.9572626571502305 10
      vertex -3.883767269704208 -0.9572626571502305 10
    endloop
  endfacet
  facet normal 0 0 1
    outer loop
      vertex 2.272258986924623 3.291935463574626 10
      vertex 2.2722589869246246 -3.2919354635746245 10
      vertex 3.54182410261284 -1.8588926881750734 10
    endloop
  endfacet
  facet normal 0 0 -1
    outer loop
      vertex -2.994042992684404 2.652490632963181 -10
      vertex -3.883767269704208 -0.9572626571502305 -10
      vertex -3.883767269704208 0.9572626571502305 -10
    endloop
  endfacet
  facet normal 0 0 -1
    outer loop
      vertex 3.54182410261284 -1.8588926881750734 -10
      vertex 3.5418241026128396 1.8588926881750742 -10
      vertex 4 0 -10
    endloop
  endfacet
  facet normal 0 0 -1
    outer loop
      vertex 2.2722589869246246 -3.2919354635746245 -10
      vertex 2.272258986924623 3.291935463574626 -10
      vertex 3.5418241026128396 1.8588926881750742 -10
    endloop
  endfacet
  facet normal 0 0 -1
    outer loop
      vertex -2.994042992684404 -2.652490632963181 -10
      vertex -2.994042992684404 2.652490632963181 -10
      vertex -1.4184195481701427 3.7400649707416593 -10
    endloop
  endfacet
  facet normal 0 0 -1
    outer loop
      vertex -1.4184195481701427 -3.7400649707416593 -10
      vertex -1.4184195481701427 3.7400649707416593 -10
      vertex 0.48214672102129197 3.970835496392216 -10
    endloop
  endfacet
  facet normal 0 0 -1
    outer loop
      vertex 0.482146721021291 -3.9708354963922163 -10
      vertex 0.48214672102129197 3.970835496392216 -10
      vertex 2.272258986924623 3.291935463574626 -10
    endloop
  endfacet
  facet normal -1 0 0
    outer loop
      vertex -3.883767269704208 -0.9572626571502305 -10
      vertex -3.883767269704208 0.9572626571502305 10
      vertex -3.883767269704208 0.9572626571502305 -10
    endloop
  endfacet
  facet normal 0.970941817426052 0.2393156642875577 0
    outer loop
      vertex 3.5418241026128396 1.8588926881750742 -10
      vertex 4 0 10
      vertex 4 0 -10
    endloop
  endfacet
  facet normal -0.8854560256532099 0.4647231720437685 0
    outer loop
      vertex -3.883767269704208 0.9572626571502305 -10
      vertex -2.994042992684404 2.652490632963181 10
      vertex -2.994042992684404 2.652490632963181 -10
    endloop
  endfacet
  facet normal 0.7485107481711011 0.6631226582407953 0
    outer loop
      vertex 2.272258986924623 3.291935463574626 -10
      vertex 3.5418241026128396 1.8588926881750742 10
      vertex 3.5418241026128396 1.8588926881750742 -10
    endloop
  endfacet
  facet normal -0.5680647467311558 0.8229838658936564 0
    outer loop
      vertex -2.994042992684404 2.652490632963181 10
      vertex -1.4184195481701427 3.7400649707416593 -10
      vertex -2.994042992684404 2.652490632963181 -10
    endloop
  endfacet
  facet normal -0.120536680255323 0.992708874098054 0
    outer loop
      vertex -1.4184195481701427 3.7400649707416593 10
      vertex 0.48214672102129197 3.970835496392216 -10
      vertex -1.4184195481701427 3.7400649707416593 -10
    endloop
  endfacet
  facet normal 0.3546048870425355 0.935016242685415 0
    outer loop
      vertex 0.48214672102129197 3.970835496392216 10
      vertex 2.272258986924623 3.291935463574626 -10
      vertex 0.48214672102129197 3.970835496392216 -10
    endloop
  endfacet
  facet normal -0.8854560256532099 0.4647231720437685 0
    outer loop
      vertex -2.994042992684404 2.652490632963181 10
      vertex -3.883767269704208 0.9572626571502305 -10
      vertex -3.883767269704208 0.9572626571502305 10
    endloop
  endfacet
  facet normal 0.970941817426052 0.2393156642875577 0
    outer loop
      vertex 4 0 10
      vertex 3.5418241026128396 1.8588926881750742 -10
      vertex 3.5418241026128396 1.8588926881750742 10
    endloop
  endfacet
  facet normal 0 0 1
    outer loop
      vertex -3.883767269704208 0.9572626571502305 10
      vertex -2.994042992684404 -2.652490632963181 10
      vertex -2.994042992684404 2.652490632963181 10
    endloop
  endfacet
  facet normal 0 0 1
    outer loop
      vertex -2.994042992684404 2.652490632963181 10
      vertex -1.4184195481701427 -3.7400649707416593 10
      vertex -1.4184195481701427 3.7400649707416593 10
    endloop
  endfacet
  facet normal 0 0 1
    outer loop
      vertex 3.5418241026128396 1.8588926881750742 10
      vertex 3.54182410261284 -1.8588926881750734 10
      vertex 4 0 10
    endloop
  endfacet
  facet normal 0 0 1
    outer loop
      vertex -1.4184195481701427 3.7400649707416593 10
      vertex 0.482146721021291 -3.9708354963922163 10
      vertex 0.48214672102129197 3.970835496392216 10
    endloop
  endfacet
  facet normal 0 0 1
    outer loop
      vertex 0.48214672102129197 3.970835496392216 10
      vertex 2.2722589869246246 -3.2919354635746245 10
      vertex 2.272258986924623 3.291935463574626 10
    endloop
  endfacet
  facet normal 0 0 1
    outer loop
      vertex 2.272258986924623 3.291935463574626 10
      vertex 3.54182410261284 -1.8588926881750734 10
      vertex 3.5418241026128396 1.8588926881750742 10
    endloop
  endfacet
  facet normal 0.7485107481711011 0.6631226582407953 0
    outer loop
      vertex 3.5418241026128396 1.8588926881750742 10
      vertex 2.272258986924623 3.291935463574626 -10
      vertex 2.272258986924623 3.291935463574626 10
    endloop
  endfacet
  facet normal -0.5680647467311558 0.8229838658936564 0
    outer loop
      vertex -1.4184195481701427 3.7400649707416593 -10
      vertex -2.994042992684404 2.652490632963181 10
      vertex -1.4184195481701427 3.7400649707416593 10
    endloop
  endfacet
  facet normal -0.120536680255323 0.992708874098054 0
    outer loop
      vertex 0.48214672102129197 3.970835496392216 -10
      vertex -1.4184195481701427 3.7400649707416593 10
      vertex 0.48214672102129197 3.970835496392216 10
    endloop
  endfacet
  facet normal 0.3546048870425355 0.935016242685415 0
    outer loop
      vertex 2.272258986924623 3.291935463574626 -10
      vertex 0.48214672102129197 3.970835496392216 10
      vertex 2.272258986924623 3.291935463574626 10
    endloop
  endfacet
  facet normal -0.12053668025532333 -0.992708874098054 0
    outer loop
      vertex 12.48214672102129 -3.9708354963922163 10
      vertex 10.581580451829858 -3.7400649707416593 -10
      vertex 12.48214672102129 -3.9708354963922163 -10
    endloop
  endfacet
  facet normal -0.5680647467311557 -0.8229838658936566 0
    outer loop
      vertex 10.581580451829858 -3.7400649707416593 10
      vertex 9.005957007315596 -2.652490632963181 -10
      vertex 10.581580451829858 -3.7400649707416593 -10
    endloop
  endfacet
  facet normal 0 0 -1
    outer loop
      vertex 10.581580451829858 -3.7400649707416593 -10
      vertex 12.482146721021293 3.970835496392216 -10
      vertex 12.48214672102129 -3.9708354963922163 -10
    endloop
  endfacet
  facet normal 0 0 -1
    outer loop
      vertex 8.116232730295792 -0.9572626571502305 -10
      vertex 9.005957007315596 2.652490632963181 -10
      vertex 9.005957007315596 -2.652490632963181 -10
    endloop
  endfacet
  facet normal 0 0 -1
    outer loop
      vertex 9.005957007315596 -2.652490632963181 -10
      vertex 10.581580451829858 3.7400649707416593 -10
      vertex 10.581580451829858 -3.7400649707416593 -10
    endloop
  endfacet
  facet normal -0.8854560256532099 -0.46472317204376834 0
    outer loop
      vertex 9.005957007315596 -2.652490632963181 -10
      vertex 8.116232730295792 -0.9572626571502305 10
      vertex 8.116232730295792 -0.9572626571502305 -10
    endloop
  endfacet
  facet normal 0.3546048870425358 -0.9350162426854147 0
    outer loop
      vertex 14.272258986924625 -3.2919354635746245 10
      vertex 12.48214672102129 -3.9708354963922163 -10
      vertex 14.272258986924625 -3.2919354635746245 -10
    endloop
  endfacet
  facet normal 0.7485107481711014 -0.6631226582407947 0
    outer loop
      vertex 15.54182410261284 -1.8588926881750734 -10
      vertex 14.272258986924625 -3.2919354635746245 10
      vertex 14.272258986924625 -3.2919354635746245 -10
    endloop
  endfacet
  facet normal 0 0 -1
    outer loop
      vertex 12.48214672102129 -3.9708354963922163 -10
      vertex 14.272258986924623 3.291935463574626 -10
      vertex 14.272258986924625 -3.2919354635746245 -10
    endloop
  endfacet
  facet normal 0 0 -1
    outer loop
      vertex 14.272258986924625 -3.2919354635746245 -10
      vertex 15.54182410261284 1.8588926881750742 -10
      vertex 15.54182410261284 -1.8588926881750734 -10
    endloop
  endfacet
  facet normal 0.970941817426052 -0.23931566428755807 0
    outer loop
      vertex 16 0 -10
      vertex 15.54182410261284 -1.8588926881750734 10
      vertex 15.54182410261284 -1.8588926881750734 -10
    endloop
  endfacet
  facet normal -0.12053668025532333 -0.992708874098054 0
    outer loop
      vertex 10.581580451829858 -3.7400649707416593 -10
      vertex 12.48214672102129 -3.9708354963922163 10
      vertex 10.581580451829858 -3.7400649707416593 10
    endloop
  endfacet
  facet normal 0.3546048870425358 -0.9350162426854147 0
    outer loop
      vertex 12.48214672102129 -3.9708354963922163 -10
      vertex 14.272258986924625 -3.2919354635746245 10
      vertex 12.48214672102129 -3.9708354963922163 10
    endloop
  endfacet
  facet normal -0.5680647467311557 -0.8229838658936566 0
    outer loop
      vertex 9.005957007315596 -2.652490632963181 -10
      vertex 10.581580451829858 -3.7400649707416593 10
      vertex 9.005957007315596 -2.652490632963181 10
    endloop
  endfacet
  facet normal -0.8854560256532099 -0.46472317204376834 0
    outer loop
      vertex 8.116232730295792 -0.9572626571502305 10
      vertex 9.005957007315596 -2.652490632963181 -10
      vertex 9.005957007315596 -2.652490632963181 10
    endloop
  endfacet
  facet normal -1 0 0
    outer loop
      vertex 8.116232730295792 0.9572626571502305 10
      vertex 8.116232730295792 -0.9572626571502305 -10
      vertex 8.116232730295792 -0.9572626571502305 10
    endloop
  endfacet
  facet normal 0 0 1
    outer loop
      vertex 9.005957007315596 2.652490632963181 10
      vertex 9.005957007315596 -2.652490632963181 10
      vertex 10.581580451829858 -3.7400649707416593 10
    endloop
  endfacet
  facet normal 0 0 1
    outer loop
      vertex 10.581580451829858 3.7400649707416593 10
      vertex 10.581580451829858 -3.7400649707416593 10
      vertex 12.48214672102129 -3.9708354963922163 10
    endloop
  endfacet
  facet normal 0 0 1
    outer loop
      vertex 12.482146721021293 3.970835496392216 10
      vertex 12.48214672102129 -3.9708354963922163 10
      vertex 14.272258986924625 -3.2919354635746245 10
    endloop
  endfacet
  facet normal 0 0 1
    outer loop
      vertex 9.005957007315596 -2.652490632963181 10
      vertex 8.116232730295792 0.9572626571502305 10
      vertex 8.116232730295792 -0.9572626571502305 10
    endloop
  endfacet
  facet normal 0.7485107481711014 -0.6631226582407947 0
    outer loop
      vertex 14.272258986924625 -3.2919354635746245 10
      vertex 15.54182410261284 -1.8588926881750734 -10
      vertex 15.54182410261284 -1.8588926881750734 10
    endloop
  endfacet
  facet normal 0.970941817426052 -0.23931566428755807 0
    outer loop
      vertex 15.54182410261284 -1.8588926881750734 10
      vertex 16 0 -10
      vertex 16 0 10
    endloop
  endfacet
  facet normal 0 0 1
    outer loop
      vertex 14.272258986924623 3.291935463574626 10
      vertex 14.272258986924625 -3.2919354635746245 10
      vertex 15.54182410261284 -1.8588926881750734 10
    endloop
  endfacet
  facet normal 0 0 -1
    outer loop
      vertex 9.005957007315596 2.652490632963181 -10
      vertex 8.116232730295792 -0.9572626571502305 -10
      vertex 8.116232730295792 0.9572626571502305 -10
    endloop
  endfacet
  facet normal 0 0 -1
    outer loop
      vertex 9.005957007315596 -2.652490632963181 -10
      vertex 9.005957007315596 2.652490632963181 -10
      vertex 10.581580451829858 3.7400649707416593 -10
    endloop
  endfacet
  facet normal 0 0 -1
    outer loop
      vertex 12.48214672102129 -3.9708354963922163 -10
      vertex 12.482146721021293 3.970835496392216 -10
      vertex 14.272258986924623 3.291935463574626 -10
    endloop
  endfacet
  facet normal 0 0 -1
    outer loop
      vertex 10.581580451829858 -3.7400649707416593 -10
      vertex 10.581580451829858 3.7400649707416593 -10
      vertex 12.482146721021293 3.970835496392216 -10
    endloop
  endfacet
  facet normal -1 0 0
    outer loop
      vertex 8.116232730295792 -0.9572626571502305 -10
      vertex 8.116232730295792 0.9572626571502305 10
      vertex 8.116232730295792 0.9572626571502305 -10
    endloop
  endfacet
  facet normal -0.8854560256532099 0.46472317204376834 0
    outer loop
      vertex 8.116232730295792 0.9572626571502305 -10
      vertex 9.005957007315596 2.652490632963181 10
      vertex 9.005957007315596 2.652490632963181 -10
    endloop
  endfacet
  facet normal -0.5680647467311557 0.8229838658936566 0
    outer loop
      vertex 9.005957007315596 2.652490632963181 10
      vertex 10.581580451829858 3.7400649707416593 -10
      vertex 9.005957007315596 2.652490632963181 -10
    endloop
  endfacet
  facet normal -0.12053668025532298 0.992708874098054 0
    outer loop
      vertex 10.581580451829858 3.7400649707416593 10
      vertex 12.482146721021293 3.970835496392216 -10
      vertex 10.581580451829858 3.7400649707416593 -10
    endloop
  endfacet
  facet normal 0.3546048870425356 0.9350162426854148 0
    outer loop
      vertex 12.482146721021293 3.970835496392216 10
      vertex 14.272258986924623 3.291935463574626 -10
      vertex 12.482146721021293 3.970835496392216 -10
    endloop
  endfacet
  facet normal 0 0 -1
    outer loop
      vertex 15.54182410261284 -1.8588926881750734 -10
      vertex 15.54182410261284 1.8588926881750742 -10
      vertex 16 0 -10
    endloop
  endfacet
  facet normal 0 0 -1
    outer loop
      vertex 14.272258986924625 -3.2919354635746245 -10
      vertex 14.272258986924623 3.291935463574626 -10
      vertex 15.54182410261284 1.8588926881750742 -10
    endloop
  endfacet
  facet normal 0.970941817426052 0.23931566428755793 0
    outer loop
      vertex 15.54182410261284 1.8588926881750742 -10
      vertex 16 0 10
      vertex 16 0 -10
    endloop
  endfacet
  facet normal 0.7485107481711011 0.6631226582407952 0
    outer loop
      vertex 14.272258986924623 3.291935463574626 -10
      vertex 15.54182410261284 1.8588926881750742 10
      vertex 15.54182410261284 1.8588926881750742 -10
    endloop
  endfacet
  facet normal -0.8854560256532099 0.46472317204376834 0
    outer loop
      vertex 9.005957007315596 2.652490632963181 10
      vertex 8.116232730295792 0.9572626571502305 -10
      vertex 8.116232730295792 0.9572626571502305 10
    endloop
  endfacet
  facet normal 0 0 1
    outer loop
      vertex 8.116232730295792 0.9572626571502305 10
      vertex 9.005957007315596 -2.652490632963181 10
      vertex 9.005957007315596 2.652490632963181 10
    endloop
  endfacet
  facet normal 0 0 1
    outer loop
      vertex 9.005957007315596 2.652490632963181 10
      vertex 10.581580451829858 -3.7400649707416593 10
      vertex 10.581580451829858 3.7400649707416593 10
    endloop
  endfacet
  facet normal 0 0 1
    outer loop
      vertex 10.581580451829858 3.7400649707416593 10
      vertex 12.48214672102129 -3.9708354963922163 10
      vertex 12.482146721021293 3.970835496392216 10
    endloop
  endfacet
  facet normal -0.5680647467311557 0.8229838658936566 0
    outer loop
      vertex 10.581580451829858 3.7400649707416593 -10
      vertex 9.005957007315596 2.652490632963181 10
      vertex 10.581580451829858 3.7400649707416593 10
    endloop
  endfacet
  facet normal -0.12053668025532298 0.992708874098054 0
    outer loop
      vertex 12.482146721021293 3.970835496392216 -10
      vertex 10.581580451829858 3.7400649707416593 10
      vertex 12.482146721021293 3.970835496392216 10
    endloop
  endfacet
  facet normal 0.970941817426052 0.23931566428755793 0
    outer loop
      vertex 16 0 10
      vertex 15.54182410261284 1.8588926881750742 -10
      vertex 15.54182410261284 1.8588926881750742 10
    endloop
  endfacet
  facet normal 0 0 1
    outer loop
      vertex 15.54182410261284 1.8588926881750742 10
      vertex 15.54182410261284 -1.8588926881750734 10
      vertex 16 0 10
    endloop
  endfacet
  facet normal 0 0 1
    outer loop
      vertex 14.272258986924623 3.291935463574626 10
      vertex 15.54182410261284 -1.8588926881750734 10
      vertex 15.54182410261284 1.8588926881750742 10
    endloop
  endfacet
  facet normal 0 0 1
    outer loop
      vertex 12.482146721021293 3.970835496392216 10
      vertex 14.272258986924625 -3.2919354635746245 10
      vertex 14.272258986924623 3.291935463574626 10
    endloop
  endfacet
  facet normal 0.7485107481711011 0.6631226582407952 0
    outer loop
      vertex 15.54182410261284 1.8588926881750742 10
      vertex 14.272258986924623 3.291935463574626 -10
      vertex 14.272258986924623 3.291935463574626 10
    endloop
  endfacet
  facet normal 0.3546048870425356 0.9350162426854148 0
    outer loop
      vertex 14.272258986924623 3.291935463574626 -10
      vertex 12.482146721021293 3.970835496392216 10
      vertex 14.272258986924623 3.291935463574626 10
    endloop
  endfacet
  facet normal -0.12053668025532333 -0.992708874098054 0
    outer loop
      vertex 24.48214672102129 -3.9708354963922163 10
      vertex 22.581580451829858 -3.7400649707416593 -10
      vertex 24.48214672102129 -3.9708354963922163 -10
    endloop
  endfacet
  facet normal 0.35460488704253545 -0.9350162426854148 0
    outer loop
      vertex 26.272258986924626 -3.2919354635746245 10
      vertex 24.48214672102129 -3.9708354963922163 -10
      vertex 26.272258986924626 -3.2919354635746245 -10
    endloop
  endfacet
  facet normal -0.568064746731156 -0.8229838658936562 0
    outer loop
      vertex 22.581580451829858 -3.7400649707416593 10
      vertex 21.005957007315597 -2.652490632963181 -10
      vertex 22.581580451829858 -3.7400649707416593 -10
    endloop
  endfacet
  facet normal 0.748510748171102 -0.6631226582407943 0
    outer loop
      vertex 27.54182410261284 -1.8588926881750734 -10
      vertex 26.272258986924626 -3.2919354635746245 10
      vertex 26.272258986924626 -3.2919354635746245 -10
    endloop
  endfacet
  facet normal 0 0 -1
    outer loop
      vertex 20.116232730295792 -0.9572626571502305 -10
      vertex 21.005957007315597 2.652490632963181 -10
      vertex 21.005957007315597 -2.652490632963181 -10
    endloop
  endfacet
  facet normal 0 0 -1
    outer loop
      vertex 22.581580451829858 -3.7400649707416593 -10
      vertex 24.48214672102129 3.970835496392216 -10
      vertex 24.48214672102129 -3.9708354963922163 -10
    endloop
  endfacet
  facet normal 0 0 -1
    outer loop
      vertex 24.48214672102129 -3.9708354963922163 -10
      vertex 26.272258986924623 3.291935463574626 -10
      vertex 26.272258986924626 -3.2919354635746245 -10
    endloop
  endfacet
  facet normal 0 0 -1
    outer loop
      vertex 26.272258986924626 -3.2919354635746245 -10
      vertex 27.54182410261284 1.8588926881750742 -10
      vertex 27.54182410261284 -1.8588926881750734 -10
    endloop
  endfacet
  facet normal 0 0 -1
    outer loop
      vertex 21.005957007315597 -2.652490632963181 -10
      vertex 22.581580451829858 3.7400649707416593 -10
      vertex 22.581580451829858 -3.7400649707416593 -10
    endloop
  endfacet
  facet normal -0.8854560256532096 -0.46472317204376906 0
    outer loop
      vertex 21.005957007315597 -2.652490632963181 -10
      vertex 20.116232730295792 -0.9572626571502305 10
      vertex 20.116232730295792 -0.9572626571502305 -10
    endloop
  endfacet
  facet normal 0.970941817426052 -0.23931566428755807 0
    outer loop
      vertex 28 0 -10
      vertex 27.54182410261284 -1.8588926881750734 10
      vertex 27.54182410261284 -1.8588926881750734 -10
    endloop
  endfacet
  facet normal -0.568064746731156 -0.8229838658936562 0
    outer loop
      vertex 21.005957007315597 -2.652490632963181 -10
      vertex 22.581580451829858 -3.7400649707416593 10
      vertex 21.005957007315597 -2.652490632963181 10
    endloop
  endfacet
  facet normal -0.8854560256532096 -0.46472317204376906 0
    outer loop
      vertex 20.116232730295792 -0.9572626571502305 10
      vertex 21.005957007315597 -2.652490632963181 -10
      vertex 21.005957007315597 -2.652490632963181 10
    endloop
  endfacet
  facet normal -0.12053668025532333 -0.992708874098054 0
    outer loop
      vertex 22.581580451829858 -3.7400649707416593 -10
      vertex 24.48214672102129 -3.9708354963922163 10
      vertex 22.581580451829858 -3.7400649707416593 10
    endloop
  endfacet
  facet normal 0.35460488704253545 -0.9350162426854148 0
    outer loop
      vertex 24.48214672102129 -3.9708354963922163 -10
      vertex 26.272258986924626 -3.2919354635746245 10
      vertex 24.48214672102129 -3.9708354963922163 10
    endloop
  endfacet
  facet normal 0.748510748171102 -0.6631226582407943 0
    outer loop
      vertex 26.272258986924626 -3.2919354635746245 10
      vertex 27.54182410261284 -1.8588926881750734 -10
      vertex 27.54182410261284 -1.8588926881750734 10
    endloop
  endfacet
  facet normal -1 0 0
    outer loop
      vertex 20.116232730295792 0.9572626571502305 10
      vertex 20.116232730295792 -0.9572626571502305 -10
      vertex 20.116232730295792 -0.9572626571502305 10
    endloop
  endfacet
  facet normal 0.970941817426052 -0.23931566428755807 0
    outer loop
      vertex 27.54182410261284 -1.8588926881750734 10
      vertex 28 0 -10
      vertex 28 0 10
    endloop
  endfacet
  facet normal 0 0 1
    outer loop
      vertex 21.005957007315597 2.652490632963181 10
      vertex 21.005957007315597 -2.652490632963181 10
      vertex 22.581580451829858 -3.7400649707416593 10
    endloop
  endfacet
  facet normal 0 0 1
    outer loop
      vertex 21.005957007315597 -2.652490632963181 10
      vertex 20.116232730295792 0.9572626571502305 10
      vertex 20.116232730295792 -0.9572626571502305 10
    endloop
  endfacet
  facet normal 0 0 1
    outer loop
      vertex 22.581580451829858 3.7400649707416593 10
      vertex 22.581580451829858 -3.7400649707416593 10
      vertex 24.48214672102129 -3.9708354963922163 10
    endloop
  endfacet
  facet normal 0 0 1
    outer loop
      vertex 24.48214672102129 3.970835496392216 10
      vertex 24.48214672102129 -3.9708354963922163 10
      vertex 26.272258986924626 -3.2919354635746245 10
    endloop
  endfacet
  facet normal 0 0 1
    outer loop
      vertex 26.272258986924623 3.291935463574626 10
      vertex 26.272258986924626 -3.2919354635746245 10
      vertex 27.54182410261284 -1.8588926881750734 10
    endloop
  endfacet
  facet normal 0 0 -1
    outer loop
      vertex 21.005957007315597 2.652490632963181 -10
      vertex 20.116232730295792 -0.9572626571502305 -10
      vertex 20.116232730295792 0.9572626571502305 -10
    endloop
  endfacet
  facet normal 0 0 -1
    outer loop
      vertex 21.005957007315597 -2.652490632963181 -10
      vertex 21.005957007315597 2.652490632963181 -10
      vertex 22.581580451829858 3.7400649707416593 -10
    endloop
  endfacet
  facet normal 0 0 -1
    outer loop
      vertex 27.54182410261284 -1.8588926881750734 -10
      vertex 27.54182410261284 1.8588926881750742 -10
      vertex 28 0 -10
    endloop
  endfacet
  facet normal 0 0 -1
    outer loop
      vertex 26.272258986924626 -3.2919354635746245 -10
      vertex 26.272258986924623 3.291935463574626 -10
      vertex 27.54182410261284 1.8588926881750742 -10
    endloop
  endfacet
  facet normal 0 0 -1
    outer loop
      vertex 22.581580451829858 -3.7400649707416593 -10
      vertex 22.581580451829858 3.7400649707416593 -10
      vertex 24.48214672102129 3.970835496392216 -10
    endloop
  endfacet
  facet normal 0 0 -1
    outer loop
      vertex 24.48214672102129 -3.9708354963922163 -10
      vertex 24.48214672102129 3.970835496392216 -10
      vertex 26.272258986924623 3.291935463574626 -10
    endloop
  endfacet
  facet normal -1 0 0
    outer loop
      vertex 20.116232730295792 -0.9572626571502305 -10
      vertex 20.116232730295792 0.9572626571502305 10
      vertex 20.116232730295792 0.9572626571502305 -10
    endloop
  endfacet
  facet normal 0.970941817426052 0.23931566428755793 0
    outer loop
      vertex 27.54182410261284 1.8588926881750742 -10
      vertex 28 0 10
      vertex 28 0 -10
    endloop
  endfacet
  facet normal -0.8854560256532096 0.46472317204376906 0
    outer loop
      vertex 20.116232730295792 0.9572626571502305 -10
      vertex 21.005957007315597 2.652490632963181 10
      vertex 21.005957007315597 2.652490632963181 -10
    endloop
  endfacet
  facet normal -0.568064746731156 0.8229838658936562 0
    outer loop
      vertex 21.005957007315597 2.652490632963181 10
      vertex 22.581580451829858 3.7400649707416593 -10
      vertex 21.005957007315597 2.652490632963181 -10
    endloop
  endfacet
  facet normal 0.7485107481711011 0.6631226582407952 0
    outer loop
      vertex 26.272258986924623 3.291935463574626 -10
      vertex 27.54182410261284 1.8588926881750742 10
      vertex 27.54182410261284 1.8588926881750742 -10
    endloop
  endfacet
  facet normal -0.12053668025532309 0.992708874098054 0
    outer loop
      vertex 22.581580451829858 3.7400649707416593 10
      vertex 24.48214672102129 3.970835496392216 -10
      vertex 22.581580451829858 3.7400649707416593 -10
    endloop
  endfacet
  facet normal 0.3546048870425353 0.9350162426854148 0
    outer loop
      vertex 24.48214672102129 3.970835496392216 10
      vertex 26.272258986924623 3.291935463574626 -10
      vertex 24.48214672102129 3.970835496392216 -10
    endloop
  endfacet
  facet normal -0.8854560256532096 0.46472317204376906 0
    outer loop
      vertex 21.005957007315597 2.652490632963181 10
      vertex 20.116232730295792 0.9572626571502305 -10
      vertex 20.116232730295792 0.9572626571502305 10
    endloop
  endfacet
  facet normal 0.970941817426052 0.23931566428755793 0
    outer loop
      vertex 28 0 10
      vertex 27.54182410261284 1.8588926881750742 -10
      vertex 27.54182410261284 1.8588926881750742 10
    endloop
  endfacet
  facet normal 0 0 1
    outer loop
      vertex 20.116232730295792 0.9572626571502305 10
      vertex 21.005957007315597 -2.652490632963181 10
      vertex 21.005957007315597 2.652490632963181 10
    endloop
  endfacet
  facet normal 0 0 1
    outer loop
      vertex 21.005957007315597 2.652490632963181 10
      vertex 22.581580451829858 -3.7400649707416593 10
      vertex 22.581580451829858 3.7400649707416593 10
    endloop
  endfacet
  facet normal 0 0 1
    outer loop
      vertex 27.54182410261284 1.8588926881750742 10
      vertex 27.54182410261284 -1.8588926881750734 10
      vertex 28 0 10
    endloop
  endfacet
  facet normal 0 0 1
    outer loop
      vertex 22.581580451829858 3.7400649707416593 10
      vertex 24.48214672102129 -3.9708354963922163 10
      vertex 24.48214672102129 3.970835496392216 10
    endloop
  endfacet
  facet normal 0 0 1
    outer loop
      vertex 24.48214672102129 3.970835496392216 10
      vertex 26.272258986924626 -3.2919354635746245 10
      vertex 26.272258986924623 3.291935463574626 10
    endloop
  endfacet
  facet normal 0 0 1
    outer loop
      vertex 26.272258986924623 3.291935463574626 10
      vertex 27.54182410261284 -1.8588926881750734 10
      vertex 27.54182410261284 1.8588926881750742 10
    endloop
  endfacet
  facet normal 0.7485107481711011 0.6631226582407952 0
    outer loop
      vertex 27.54182410261284 1.8588926881750742 10
      vertex 26.272258986924623 3.291935463574626 -10
      vertex 26.272258986924623 3.291935463574626 10
    endloop
  endfacet
  facet normal -0.568064746731156 0.8229838658936562 0
    outer loop
      vertex 22.581580451829858 3.7400649707416593 -10
      vertex 21.005957007315597 2.652490632963181 10
      vertex 22.581580451829858 3.7400649707416593 10
    endloop
  endfacet
  facet normal 0.3546048870425353 0.9350162426854148 0
    outer loop
      vertex 26.272258986924623 3.291935463574626 -10
      vertex 24.48214672102129 3.970835496392216 10
      vertex 26.272258986924623 3.291935463574626 10
    endloop
  endfacet
  facet normal -0.12053668025532309 0.992708874098054 0
    outer loop
      vertex 24.48214672102129 3.970835496392216 -10
      vertex 22.581580451829858 3.7400649707416593 10
      vertex 24.48214672102129 3.970835496392216 10
    endloop
  endfacet
  facet normal -0.5680647467311553 -0.8229838658936569 0
    outer loop
      vertex 34.58158045182986 -3.7400649707416593 10
      vertex 33.005957007315594 -2.652490632963181 -10
      vertex 34.58158045182986 -3.7400649707416593 -10
    endloop
  endfacet
  facet normal -0.1205366802553231 -0.992708874098054 0
    outer loop
      vertex 36.482146721021294 -3.9708354963922163 10
      vertex 34.58158045182986 -3.7400649707416593 -10
      vertex 36.482146721021294 -3.9708354963922163 -10
    endloop
  endfacet
  facet normal 0.3546048870425361 -0.9350162426854147 0
    outer loop
      vertex 38.272258986924626 -3.2919354635746245 10
      vertex 36.482146721021294 -3.9708354963922163 -10
      vertex 38.272258986924626 -3.2919354635746245 -10
    endloop
  endfacet
  facet normal 0.7485107481711011 -0.6631226582407953 0
    outer loop
      vertex 39.54182410261284 -1.8588926881750734 -10
      vertex 38.272258986924626 -3.2919354635746245 10
      vertex 38.272258986924626 -3.2919354635746245 -10
    endloop
  endfacet
  facet normal 0 0 -1
    outer loop
      vertex 34.58158045182986 -3.7400649707416593 -10
      vertex 36.482146721021294 3.970835496392216 -10
      vertex 36.482146721021294 -3.9708354963922163 -10
    endloop
  endfacet
  facet normal 0 0 -1
    outer loop
      vertex 36.482146721021294 -3.9708354963922163 -10
      vertex 38.272258986924626 3.291935463574626 -10
      vertex 38.272258986924626 -3.2919354635746245 -10
    endloop
  endfacet
  facet normal 0 0 -1
    outer loop
      vertex 33.005957007315594 -2.652490632963181 -10
      vertex 34.58158045182986 3.7400649707416593 -10
      vertex 34.58158045182986 -3.7400649707416593 -10
    endloop
  endfacet
  facet normal 0 0 -1
    outer loop
      vertex 32.11623273029579 -0.9572626571502305 -10
      vertex 33.005957007315594 2.652490632963181 -10
      vertex 33.005957007315594 -2.652490632963181 -10
    endloop
  endfacet
  facet normal 0 0 -1
    outer loop
      vertex 38.272258986924626 -3.2919354635746245 -10
      vertex 39.54182410261284 1.8588926881750742 -10
      vertex 39.54182410261284 -1.8588926881750734 -10
    endloop
  endfacet
  facet normal -0.8854560256532102 -0.46472317204376756 0
    outer loop
      vertex 33.005957007315594 -2.652490632963181 -10
      vertex 32.11623273029579 -0.9572626571502305 10
      vertex 32.11623273029579 -0.9572626571502305 -10
    endloop
  endfacet
  facet normal 0.9709418174260523 -0.2393156642875563 0
    outer loop
      vertex 40 0 -10
      vertex 39.54182410261284 -1.8588926881750734 10
      vertex 39.54182410261284 -1.8588926881750734 -10
    endloop
  endfacet
  facet normal -0.5680647467311553 -0.8229838658936569 0
    outer loop
      vertex 33.005957007315594 -2.652490632963181 -10
      vertex 34.58158045182986 -3.7400649707416593 10
      vertex 33.005957007315594 -2.652490632963181 10
    endloop
  endfacet
  facet normal -0.1205366802553231 -0.992708874098054 0
    outer loop
      vertex 34.58158045182986 -3.7400649707416593 -10
      vertex 36.482146721021294 -3.9708354963922163 10
      vertex 34.58158045182986 -3.7400649707416593 10
    endloop
  endfacet
  facet normal 0.3546048870425361 -0.9350162426854147 0
    outer loop
      vertex 36.482146721021294 -3.9708354963922163 -10
      vertex 38.272258986924626 -3.2919354635746245 10
      vertex 36.482146721021294 -3.9708354963922163 10
    endloop
  endfacet
  facet normal -0.8854560256532102 -0.46472317204376756 0
    outer loop
      vertex 32.11623273029579 -0.9572626571502305 10
      vertex 33.005957007315594 -2.652490632963181 -10
      vertex 33.005957007315594 -2.652490632963181 10
    endloop
  endfacet
  facet normal 0.7485107481711011 -0.6631226582407953 0
    outer loop
      vertex 38.272258986924626 -3.2919354635746245 10
      vertex 39.54182410261284 -1.8588926881750734 -10
      vertex 39.54182410261284 -1.8588926881750734 10
    endloop
  endfacet
  facet normal -1 0 0
    outer loop
      vertex 32.11623273029579 0.9572626571502305 10
      vertex 32.11623273029579 -0.9572626571502305 -10
      vertex 32.11623273029579 -0.9572626571502305 10
    endloop
  endfacet
  facet normal 0.9709418174260523 -0.2393156642875563 0
    outer loop
      vertex 39.54182410261284 -1.8588926881750734 10
      vertex 40 0 -10
      vertex 40 0 10
    endloop
  endfacet
  facet normal 0 0 1
    outer loop
      vertex 33.005957007315594 2.652490632963181 10
      vertex 33.005957007315594 -2.652490632963181 10
      vertex 34.58158045182986 -3.7400649707416593 10
    endloop
  endfacet
  facet normal 0 0 1
    outer loop
      vertex 34.58158045182986 3.7400649707416593 10
      vertex 34.58158045182986 -3.7400649707416593 10
      vertex 36.482146721021294 -3.9708354963922163 10
    endloop
  endfacet
  facet normal 0 0 1
    outer loop
      vertex 36.482146721021294 3.970835496392216 10
      vertex 36.482146721021294 -3.9708354963922163 10
      vertex 38.272258986924626 -3.2919354635746245 10
    endloop
  endfacet
  facet normal 0 0 1
    outer loop
      vertex 33.005957007315594 -2.652490632963181 10
      vertex 32.11623273029579 0.9572626571502305 10
      vertex 32.11623273029579 -0.9572626571502305 10
    endloop
  endfacet
  facet normal 0 0 1
    outer loop
      vertex 38.272258986924626 3.291935463574626 10
      vertex 38.272258986924626 -3.2919354635746245 10
      vertex 39.54182410261284 -1.8588926881750734 10
    endloop
  endfacet
  facet normal 0 0 -1
    outer loop
      vertex 33.005957007315594 2.652490632963181 -10
      vertex 32.11623273029579 -0.9572626571502305 -10
      vertex 32.11623273029579 0.9572626571502305 -10
    endloop
  endfacet
  facet normal 0 0 -1
    outer loop
      vertex 33.005957007315594 -2.652490632963181 -10
      vertex 33.005957007315594 2.652490632963181 -10
      vertex 34.58158045182986 3.7400649707416593 -10
    endloop
  endfacet
  facet normal 0 0 -1
    outer loop
      vertex 34.58158045182986 -3.7400649707416593 -10
      vertex 34.58158045182986 3.7400649707416593 -10
      vertex 36.482146721021294 3.970835496392216 -10
    endloop
  endfacet
  facet normal 0 0 -1
    outer loop
      vertex 36.482146721021294 -3.9708354963922163 -10
      vertex 36.482146721021294 3.970835496392216 -10
      vertex 38.272258986924626 3.291935463574626 -10
    endloop
  endfacet
  facet normal 0 0 -1
    outer loop
      vertex 39.54182410261284 -1.8588926881750734 -10
      vertex 39.54182410261284 1.8588926881750742 -10
      vertex 40 0 -10
    endloop
  endfacet
  facet normal 0 0 -1
    outer loop
      vertex 38.272258986924626 -3.2919354635746245 -10
      vertex 38.272258986924626 3.291935463574626 -10
      vertex 39.54182410261284 1.8588926881750742 -10
    endloop
  endfacet
  facet normal -1 0 0
    outer loop
      vertex 32.11623273029579 -0.9572626571502305 -10
      vertex 32.11623273029579 0.9572626571502305 10
      vertex 32.11623273029579 0.9572626571502305 -10
    endloop
  endfacet
  facet normal 0.9709418174260525 0.23931566428755618 0
    outer loop
      vertex 39.54182410261284 1.8588926881750742 -10
      vertex 40 0 10
      vertex 40 0 -10
    endloop
  endfacet
  facet normal -0.8854560256532102 0.46472317204376756 0
    outer loop
      vertex 32.11623273029579 0.9572626571502305 -10
      vertex 33.005957007315594 2.652490632963181 10
      vertex 33.005957007315594 2.652490632963181 -10
    endloop
  endfacet
  facet normal -0.5680647467311553 0.8229838658936569 0
    outer loop
      vertex 33.005957007315594 2.652490632963181 10
      vertex 34.58158045182986 3.7400649707416593 -10
      vertex 33.005957007315594 2.652490632963181 -10
    endloop
  endfacet
  facet normal -0.12053668025532287 0.992708874098054 0
    outer loop
      vertex 34.58158045182986 3.7400649707416593 10
      vertex 36.482146721021294 3.970835496392216 -10
      vertex 34.58158045182986 3.7400649707416593 -10
    endloop
  endfacet
  facet normal 0.3546048870425353 0.9350162426854148 0
    outer loop
      vertex 36.482146721021294 3.970835496392216 10
      vertex 38.272258986924626 3.291935463574626 -10
      vertex 36.482146721021294 3.970835496392216 -10
    endloop
  endfacet
  facet normal 0.7485107481711011 0.6631226582407952 0
    outer loop
      vertex 38.272258986924626 3.291935463574626 -10
      vertex 39.54182410261284 1.8588926881750742 10
      vertex 39.54182410261284 1.8588926881750742 -10
    endloop
  endfacet
  facet normal -0.8854560256532102 0.46472317204376756 0
    outer loop
      vertex 33.005957007315594 2.652490632963181 10
      vertex 32.11623273029579 0.9572626571502305 -10
      vertex 32.11623273029579 0.9572626571502305 10
    endloop
  endfacet
  facet normal 0.9709418174260525 0.23931566428755618 0
    outer loop
      vertex 40 0 10
      vertex 39.54182410261284 1.8588926881750742 -10
      vertex 39.54182410261284 1.8588926881750742 10
    endloop
  endfacet
  facet normal 0 0 1
    outer loop
      vertex 32.11623273029579 0.9572626571502305 10
      vertex 33.005957007315594 -2.652490632963181 10
      vertex 33.005957007315594 2.652490632963181 10
    endloop
  endfacet
  facet normal 0 0 1
    outer loop
      vertex 33.005957007315594 2.652490632963181 10
      vertex 34.58158045182986 -3.7400649707416593 10
      vertex 34.58158045182986 3.7400649707416593 10
    endloop
  endfacet
  facet normal 0 0 1
    outer loop
      vertex 34.58158045182986 3.7400649707416593 10
      vertex 36.482146721021294 -3.9708354963922163 10
      vertex 36.482146721021294 3.970835496392216 10
    endloop
  endfacet
  facet normal 0 0 1
    outer loop
      vertex 36.482146721021294 3.970835496392216 10
      vertex 38.272258986924626 -3.2919354635746245 10
      vertex 38.272258986924626 3.291935463574626 10
    endloop
  endfacet
  facet normal 0 0 1
    outer loop
      vertex 39.54182410261284 1.8588926881750742 10
      vertex 39.54182410261284 -1.8588926881750734 10
      vertex 40 0 10
    endloop
  endfacet
  facet normal 0 0 1
    outer loop
      vertex 38.272258986924626 3.291935463574626 10
      vertex 39.54182410261284 -1.8588926881750734 10
      vertex 39.54182410261284 1.8588926881750742 10
    endloop
  endfacet
  facet normal -0.5680647467311553 0.8229838658936569 0
    outer loop
      vertex 34.58158045182986 3.7400649707416593 -10
      vertex 33.005957007315594 2.652490632963181 10
      vertex 34.58158045182986 3.7400649707416593 10
    endloop
  endfacet
  facet normal -0.12053668025532287 0.992708874098054 0
    outer loop
      vertex 36.482146721021294 3.970835496392216 -10
      vertex 34.58158045182986 3.7400649707416593 10
      vertex 36.482146721021294 3.970835496392216 10
    endloop
  endfacet
  facet normal 0.3546048870425353 0.9350162426854148 0
    outer loop
      vertex 38.272258986924626 3.291935463574626 -10
      vertex 36.482146721021294 3.970835496392216 10
      vertex 38.272258986924626 3.291935463574626 10
    endloop
  endfacet
  facet normal 0.7485107481711011 0.6631226582407952 0
    outer loop
      vertex 39.54182410261284 1.8588926881750742 10
      vertex 38.272258986924626 3.291935463574626 -10
      vertex 38.272258986924626 3.291935463574626 10
    endloop
  endfacet
  facet normal -0.5680647467311553 -0.8229838658936569 0
    outer loop
      vertex 46.58158045182986 -3.7400649707416593 10
      vertex 45.005957007315594 -2.652490632963181 -10
      vertex 46.58158045182986 -3.7400649707416593 -10
    endloop
  endfacet
  facet normal 0 0 -1
    outer loop
      vertex 45.005957007315594 -2.652490632963181 -10
      vertex 46.58158045182986 3.7400649707416593 -10
      vertex 46.58158045182986 -3.7400649707416593 -10
    endloop
  endfacet
  facet normal 0 0 -1
    outer loop
      vertex 44.11623273029579 -0.9572626571502305 -10
      vertex 45.005957007315594 2.652490632963181 -10
      vertex 45.005957007315594 -2.652490632963181 -10
    endloop
  endfacet
  facet normal -0.8854560256532102 -0.46472317204376756 0
    outer loop
      vertex 45.005957007315594 -2.652490632963181 -10
      vertex 44.11623273029579 -0.9572626571502305 10
      vertex 44.11623273029579 -0.9572626571502305 -10
    endloop
  endfacet
  facet normal -0.1205366802553231 -0.992708874098054 0
    outer loop
      vertex 48.482146721021294 -3.9708354963922163 10
      vertex 46.58158045182986 -3.7400649707416593 -10
      vertex 48.482146721021294 -3.9708354963922163 -10
    endloop
  endfacet
  facet normal 0.3546048870425361 -0.9350162426854147 0
    outer loop
      vertex 50.272258986924626 -3.2919354635746245 10
      vertex 48.482146721021294 -3.9708354963922163 -10
      vertex 50.272258986924626 -3.2919354635746245 -10
    endloop
  endfacet
  facet normal 0.7485107481711011 -0.6631226582407953 0
    outer loop
      vertex 51.54182410261284 -1.8588926881750734 -10
      vertex 50.272258986924626 -3.2919354635746245 10
      vertex 50.272258986924626 -3.2919354635746245 -10
    endloop
  endfacet
  facet normal 0 0 -1
    outer loop
      vertex 46.58158045182986 -3.7400649707416593 -10
      vertex 48.482146721021294 3.970835496392216 -10
      vertex 48.482146721021294 -3.9708354963922163 -10
    endloop
  endfacet
  facet normal 0 0 -1
    outer loop
      vertex 48.482146721021294 -3.9708354963922163 -10
      vertex 50.272258986924626 3.291935463574626 -10
      vertex 50.272258986924626 -3.2919354635746245 -10
    endloop
  endfacet
  facet normal 0 0 -1
    outer loop
      vertex 50.272258986924626 -3.2919354635746245 -10
      vertex 51.54182410261284 1.8588926881750742 -10
      vertex 51.54182410261284 -1.8588926881750734 -10
    endloop
  endfacet
  facet normal 0.9709418174260523 -0.2393156642875563 0
    outer loop
      vertex 52 0 -10
      vertex 51.54182410261284 -1.8588926881750734 10
      vertex 51.54182410261284 -1.8588926881750734 -10
    endloop
  endfacet
  facet normal -0.5680647467311553 -0.8229838658936569 0
    outer loop
      vertex 45.005957007315594 -2.652490632963181 -10
      vertex 46.58158045182986 -3.7400649707416593 10
      vertex 45.005957007315594 -2.652490632963181 10
    endloop
  endfacet
  facet normal -0.8854560256532102 -0.46472317204376756 0
    outer loop
      vertex 44.11623273029579 -0.9572626571502305 10
      vertex 45.005957007315594 -2.652490632963181 -10
      vertex 45.005957007315594 -2.652490632963181 10
    endloop
  endfacet
  facet normal -1 0 0
    outer loop
      vertex 44.11623273029579 0.9572626571502305 10
      vertex 44.11623273029579 -0.9572626571502305 -10
      vertex 44.11623273029579 -0.9572626571502305 10
    endloop
  endfacet
  facet normal 0 0 1
    outer loop
      vertex 45.005957007315594 2.652490632963181 10
      vertex 45.005957007315594 -2.652490632963181 10
      vertex 46.58158045182986 -3.7400649707416593 10
    endloop
  endfacet
  facet normal 0 0 1
    outer loop
      vertex 45.005957007315594 -2.652490632963181 10
      vertex 44.11623273029579 0.9572626571502305 10
      vertex 44.11623273029579 -0.9572626571502305 10
    endloop
  endfacet
  facet normal -0.1205366802553231 -0.992708874098054 0
    outer loop
      vertex 46.58158045182986 -3.7400649707416593 -10
      vertex 48.482146721021294 -3.9708354963922163 10
      vertex 46.58158045182986 -3.7400649707416593 10
    endloop
  endfacet
  facet normal 0.3546048870425361 -0.9350162426854147 0
    outer loop
      vertex 48.482146721021294 -3.9708354963922163 -10
      vertex 50.272258986924626 -3.2919354635746245 10
      vertex 48.482146721021294 -3.9708354963922163 10
    endloop
  endfacet
  facet normal 0.7485107481711011 -0.6631226582407953 0
    outer loop
      vertex 50.272258986924626 -3.2919354635746245 10
      vertex 51.54182410261284 -1.8588926881750734 -10
      vertex 51.54182410261284 -1.8588926881750734 10
    endloop
  endfacet
  facet normal 0.9709418174260523 -0.2393156642875563 0
    outer loop
      vertex 51.54182410261284 -1.8588926881750734 10
      vertex 52 0 -10
      vertex 52 0 10
    endloop
  endfacet
  facet normal 0 0 1
    outer loop
      vertex 46.58158045182986 3.7400649707416593 10
      vertex 46.58158045182986 -3.7400649707416593 10
      vertex 48.482146721021294 -3.9708354963922163 10
    endloop
  endfacet
  facet normal 0 0 1
    outer loop
      vertex 48.482146721021294 3.970835496392216 10
      vertex 48.482146721021294 -3.9708354963922163 10
      vertex 50.272258986924626 -3.2919354635746245 10
    endloop
  endfacet
  facet normal 0 0 1
    outer loop
      vertex 50.272258986924626 3.291935463574626 10
      vertex 50.272258986924626 -3.2919354635746245 10
      vertex 51.54182410261284 -1.8588926881750734 10
    endloop
  endfacet
  facet normal 0 0 -1
    outer loop
      vertex 45.005957007315594 2.652490632963181 -10
      vertex 44.11623273029579 -0.9572626571502305 -10
      vertex 44.11623273029579 0.9572626571502305 -10
    endloop
  endfacet
  facet normal 0 0 -1
    outer loop
      vertex 45.005957007315594 -2.652490632963181 -10
      vertex 45.005957007315594 2.652490632963181 -10
      vertex 46.58158045182986 3.7400649707416593 -10
    endloop
  endfacet
  facet normal -1 0 0
    outer loop
      vertex 44.11623273029579 -0.9572626571502305 -10
      vertex 44.11623273029579 0.9572626571502305 10
      vertex 44.11623273029579 0.9572626571502305 -10
    endloop
  endfacet
  facet normal -0.8854560256532102 0.46472317204376756 0
    outer loop
      vertex 44.11623273029579 0.9572626571502305 -10
      vertex 45.005957007315594 2.652490632963181 10
      vertex 45.005957007315594 2.652490632963181 -10
    endloop
  endfacet
  facet normal -0.5680647467311553 0.8229838658936569 0
    outer loop
      vertex 45.005957007315594 2.652490632963181 10
      vertex 46.58158045182986 3.7400649707416593 -10
      vertex 45.005957007315594 2.652490632963181 -10
    endloop
  endfacet
  facet normal 0 0 -1
    outer loop
      vertex 50.272258986924626 -3.2919354635746245 -10
      vertex 50.272258986924626 3.291935463574626 -10
      vertex 51.54182410261284 1.8588926881750742 -10
    endloop
  endfacet
  facet normal 0 0 -1
    outer loop
      vertex 51.54182410261284 -1.8588926881750734 -10
      vertex 51.54182410261284 1.8588926881750742 -10
      vertex 52 0 -10
    endloop
  endfacet
  facet normal 0 0 -1
    outer loop
      vertex 48.482146721021294 -3.9708354963922163 -10
      vertex 48.482146721021294 3.970835496392216 -10
      vertex 50.272258986924626 3.291935463574626 -10
    endloop
  endfacet
  facet normal 0 0 -1
    outer loop
      vertex 46.58158045182986 -3.7400649707416593 -10
      vertex 46.58158045182986 3.7400649707416593 -10
      vertex 48.482146721021294 3.970835496392216 -10
    endloop
  endfacet
  facet normal 0.9709418174260525 0.23931566428755618 0
    outer loop
      vertex 51.54182410261284 1.8588926881750742 -10
      vertex 52 0 10
      vertex 52 0 -10
    endloop
  endfacet
  facet normal 0.7485107481711011 0.6631226582407952 0
    outer loop
      vertex 50.272258986924626 3.291935463574626 -10
      vertex 51.54182410261284 1.8588926881750742 10
      vertex 51.54182410261284 1.8588926881750742 -10
    endloop
  endfacet
  facet normal -0.12053668025532287 0.992708874098054 0
    outer loop
      vertex 46.58158045182986 3.7400649707416593 10
      vertex 48.482146721021294 3.970835496392216 -10
      vertex 46.58158045182986 3.7400649707416593 -10
    endloop
  endfacet
  facet normal 0.3546048870425353 0.9350162426854148 0
    outer loop
      vertex 48.482146721021294 3.970835496392216 10
      vertex 50.272258986924626 3.291935463574626 -10
      vertex 48.482146721021294 3.970835496392216 -10
    endloop
  endfacet
  facet normal -0.8854560256532102 0.46472317204376756 0
    outer loop
      vertex 45.005957007315594 2.652490632963181 10
      vertex 44.11623273029579 0.9572626571502305 -10
      vertex 44.11623273029579 0.9572626571502305 10
    endloop
  endfacet
  facet normal 0 0 1
    outer loop
      vertex 44.11623273029579 0.9572626571502305 10
      vertex 45.005957007315594 -2.652490632963181 10
      vertex 45.005957007315594 2.652490632963181 10
    endloop
  endfacet
  facet normal 0 0 1
    outer loop
      vertex 45.005957007315594 2.652490632963181 10
      vertex 46.58158045182986 -3.7400649707416593 10
      vertex 46.58158045182986 3.7400649707416593 10
    endloop
  endfacet
  facet normal -0.5680647467311553 0.8229838658936569 0
    outer loop
      vertex 46.58158045182986 3.7400649707416593 -10
      vertex 45.005957007315594 2.652490632963181 10
      vertex 46.58158045182986 3.7400649707416593 10
    endloop
  endfacet
  facet normal 0.9709418174260525 0.23931566428755618 0
    outer loop
      vertex 52 0 10
      vertex 51.54182410261284 1.8588926881750742 -10
      vertex 51.54182410261284 1.8588926881750742 10
    endloop
  endfacet
  facet normal 0 0 1
    outer loop
      vertex 51.54182410261284 1.8588926881750742 10
      vertex 51.54182410261284 -1.8588926881750734 10
      vertex 52 0 10
    endloop
  endfacet
  facet normal 0 0 1
    outer loop
      vertex 46.58158045182986 3.7400649707416593 10
      vertex 48.482146721021294 -3.9708354963922163 10
      vertex 48.482146721021294 3.970835496392216 10
    endloop
  endfacet
  facet normal 0 0 1
    outer loop
      vertex 50.272258986924626 3.291935463574626 10
      vertex 51.54182410261284 -1.8588926881750734 10
      vertex 51.54182410261284 1.8588926881750742 10
    endloop
  endfacet
  facet normal 0 0 1
    outer loop
      vertex 48.482146721021294 3.970835496392216 10
      vertex 50.272258986924626 -3.2919354635746245 10
      vertex 50.272258986924626 3.291935463574626 10
    endloop
  endfacet
  facet normal 0.7485107481711011 0.6631226582407952 0
    outer loop
      vertex 51.54182410261284 1.8588926881750742 10
      vertex 50.272258986924626 3.291935463574626 -10
      vertex 50.272258986924626 3.291935463574626 10
    endloop
  endfacet
  facet normal -0.12053668025532287 0.992708874098054 0
    outer loop
      vertex 48.482146721021294 3.970835496392216 -10
      vertex 46.58158045182986 3.7400649707416593 10
      vertex 48.482146721021294 3.970835496392216 10
    endloop
  endfacet
  facet normal 0.3546048870425353 0.9350162426854148 0
    outer loop
      vertex 50.272258986924626 3.291935463574626 -10
      vertex 48.482146721021294 3.970835496392216 10
      vertex 50.272258986924626 3.291935463574626 10
    endloop
  endfacet
  facet normal -0.5680647467311553 -0.8229838658936569 0
    outer loop
      vertex 58.58158045182986 -3.7400649707416593 10
      vertex 57.005957007315594 -2.652490632963181 -10
      vertex 58.58158045182986 -3.7400649707416593 -10
    endloop
  endfacet
  facet normal -0.1205366802553231 -0.992708874098054 0
    outer loop
      vertex 60.482146721021294 -3.9708354963922163 10
      vertex 58.58158045182986 -3.7400649707416593 -10
      vertex 60.482146721021294 -3.9708354963922163 -10
    endloop
  endfacet
  facet normal 0.3546048870425361 -0.9350162426854147 0
    outer loop
      vertex 62.272258986924626 -3.2919354635746245 10
      vertex 60.482146721021294 -3.9708354963922163 -10
      vertex 62.272258986924626 -3.2919354635746245 -10
    endloop
  endfacet
  facet normal 0.7485107481711011 -0.6631226582407953 0
    outer loop
      vertex 63.54182410261284 -1.8588926881750734 -10
      vertex 62.272258986924626 -3.2919354635746245 10
      vertex 62.272258986924626 -3.2919354635746245 -10
    endloop
  endfacet
  facet normal 0 0 -1
    outer loop
      vertex 58.58158045182986 -3.7400649707416593 -10
      vertex 60.482146721021294 3.970835496392216 -10
      vertex 60.482146721021294 -3.9708354963922163 -10
    endloop
  endfacet
  facet normal 0 0 -1
    outer loop
      vertex 60.482146721021294 -3.9708354963922163 -10
      vertex 62.272258986924626 3.291935463574626 -10
      vertex 62.272258986924626 -3.2919354635746245 -10
    endloop
  endfacet
  facet normal 0 0 -1
    outer loop
      vertex 62.272258986924626 -3.2919354635746245 -10
      vertex 63.54182410261284 1.8588926881750742 -10
      vertex 63.54182410261284 -1.8588926881750734 -10
    endloop
  endfacet
  facet normal 0 0 -1
    outer loop
      vertex 57.005957007315594 -2.652490632963181 -10
      vertex 58.58158045182986 3.7400649707416593 -10
      vertex 58.58158045182986 -3.7400649707416593 -10
    endloop
  endfacet
  facet normal 0 0 -1
    outer loop
      vertex 56.11623273029579 -0.9572626571502305 -10
      vertex 57.005957007315594 2.652490632963181 -10
      vertex 57.005957007315594 -2.652490632963181 -10
    endloop
  endfacet
  facet normal -0.8854560256532102 -0.46472317204376756 0
    outer loop
      vertex 57.005957007315594 -2.652490632963181 -10
      vertex 56.11623273029579 -0.9572626571502305 10
      vertex 56.11623273029579 -0.9572626571502305 -10
    endloop
  endfacet
  facet normal 0.9709418174260523 -0.2393156642875563 0
    outer loop
      vertex 64 0 -10
      vertex 63.54182410261284 -1.8588926881750734 10
      vertex 63.54182410261284 -1.8588926881750734 -10
    endloop
  endfacet
  facet normal -0.1205366802553231 -0.992708874098054 0
    outer loop
      vertex 58.58158045182986 -3.7400649707416593 -10
      vertex 60.482146721021294 -3.9708354963922163 10
      vertex 58.58158045182986 -3.7400649707416593 10
    endloop
  endfacet
  facet normal -0.5680647467311553 -0.8229838658936569 0
    outer loop
      vertex 57.005957007315594 -2.652490632963181 -10
      vertex 58.58158045182986 -3.7400649707416593 10
      vertex 57.005957007315594 -2.652490632963181 10
    endloop
  endfacet
  facet normal 0.3546048870425361 -0.9350162426854147 0
    outer loop
      vertex 60.482146721021294 -3.9708354963922163 -10
      vertex 62.272258986924626 -3.2919354635746245 10
      vertex 60.482146721021294 -3.9708354963922163 10
    endloop
  endfacet
  facet normal -0.8854560256532102 -0.46472317204376756 0
    outer loop
      vertex 56.11623273029579 -0.9572626571502305 10
      vertex 57.005957007315594 -2.652490632963181 -10
      vertex 57.005957007315594 -2.652490632963181 10
    endloop
  endfacet
  facet normal 0.7485107481711011 -0.6631226582407953 0
    outer loop
      vertex 62.272258986924626 -3.2919354635746245 10
      vertex 63.54182410261284 -1.8588926881750734 -10
      vertex 63.54182410261284 -1.8588926881750734 10
    endloop
  endfacet
  facet normal -1 0 0
    outer loop
      vertex 56.11623273029579 0.9572626571502305 10
      vertex 56.11623273029579 -0.9572626571502305 -10
      vertex 56.11623273029579 -0.9572626571502305 10
    endloop
  endfacet
  facet normal 0.9709418174260523 -0.2393156642875563 0
    outer loop
      vertex 63.54182410261284 -1.8588926881750734 10
      vertex 64 0 -10
      vertex 64 0 10
    endloop
  endfacet
  facet normal 0 0 1
    outer loop
      vertex 57.005957007315594 2.652490632963181 10
      vertex 57.005957007315594 -2.652490632963181 10
      vertex 58.58158045182986 -3.7400649707416593 10
    endloop
  endfacet
  facet normal 0 0 1
    outer loop
      vertex 58.58158045182986 3.7400649707416593 10
      vertex 58.58158045182986 -3.7400649707416593 10
      vertex 60.482146721021294 -3.9708354963922163 10
    endloop
  endfacet
  facet normal 0 0 1
    outer loop
      vertex 60.482146721021294 3.970835496392216 10
      vertex 60.482146721021294 -3.9708354963922163 10
      vertex 62.272258986924626 -3.2919354635746245 10
    endloop
  endfacet
  facet normal 0 0 1
    outer loop
      vertex 57.005957007315594 -2.652490632963181 10
      vertex 56.11623273029579 0.9572626571502305 10
      vertex 56.11623273029579 -0.9572626571502305 10
    endloop
  endfacet
  facet normal 0 0 1
    outer loop
      vertex 62.272258986924626 3.291935463574626 10
      vertex 62.272258986924626 -3.2919354635746245 10
      vertex 63.54182410261284 -1.8588926881750734 10
    endloop
  endfacet
  facet normal 0 0 -1
    outer loop
      vertex 57.005957007315594 2.652490632963181 -10
      vertex 56.11623273029579 -0.9572626571502305 -10
      vertex 56.11623273029579 0.9572626571502305 -10
    endloop
  endfacet
  facet normal 0 0 -1
    outer loop
      vertex 63.54182410261284 -1.8588926881750734 -10
      vertex 63.54182410261284 1.8588926881750742 -10
      vertex 64 0 -10
    endloop
  endfacet
  facet normal 0 0 -1
    outer loop
      vertex 62.272258986924626 -3.2919354635746245 -10
      vertex 62.272258986924626 3.291935463574626 -10
      vertex 63.54182410261284 1.8588926881750742 -10
    endloop
  endfacet
  facet normal 0 0 -1
    outer loop
      vertex 57.005957007315594 -2.652490632963181 -10
      vertex 57.005957007315594 2.652490632963181 -10
      vertex 58.58158045182986 3.7400649707416593 -10
    endloop
  endfacet
  facet normal 0 0 -1
    outer loop
      vertex 58.58158045182986 -3.7400649707416593 -10
      vertex 58.58158045182986 3.7400649707416593 -10
      vertex 60.482146721021294 3.970835496392216 -10
    endloop
  endfacet
  facet normal 0 0 -1
    outer loop
      vertex 60.482146721021294 -3.9708354963922163 -10
      vertex 60.482146721021294 3.970835496392216 -10
      vertex 62.272258986924626 3.291935463574626 -10
    endloop
  endfacet
  facet normal -1 0 0
    outer loop
      vertex 56.11623273029579 -0.9572626571502305 -10
      vertex 56.11623273029579 0.9572626571502305 10
      vertex 56.11623273029579 0.9572626571502305 -10
    endloop
  endfacet
  facet normal 0.9709418174260525 0.23931566428755618 0
    outer loop
      vertex 63.54182410261284 1.8588926881750742 -10
      vertex 64 0 10
      vertex 64 0 -10
    endloop
  endfacet
  facet normal -0.8854560256532102 0.46472317204376756 0
    outer loop
      vertex 56.11623273029579 0.9572626571502305 -10
      vertex 57.005957007315594 2.652490632963181 10
      vertex 57.005957007315594 2.652490632963181 -10
    endloop
  endfacet
  facet normal 0.7485107481711011 0.6631226582407952 0
    outer loop
      vertex 62.272258986924626 3.291935463574626 -10
      vertex 63.54182410261284 1.8588926881750742 10
      vertex 63.54182410261284 1.8588926881750742 -10
    endloop
  endfacet
  facet normal -0.5680647467311553 0.8229838658936569 0
    outer loop
      vertex 57.005957007315594 2.652490632963181 10
      vertex 58.58158045182986 3.7400649707416593 -10
      vertex 57.005957007315594 2.652490632963181 -10
    endloop
  endfacet
  facet normal -0.12053668025532287 0.992708874098054 0
    outer loop
      vertex 58.58158045182986 3.7400649707416593 10
      vertex 60.482146721021294 3.970835496392216 -10
      vertex 58.58158045182986 3.7400649707416593 -10
    endloop
  endfacet
  facet normal 0.3546048870425353 0.9350162426854148 0
    outer loop
      vertex 60.482146721021294 3.970835496392216 10
      vertex 62.272258986924626 3.291935463574626 -10
      vertex 60.482146721021294 3.970835496392216 -10
    endloop
  endfacet
  facet normal -0.8854560256532102 0.46472317204376756 0
    outer loop
      vertex 57.005957007315594 2.652490632963181 10
      vertex 56.11623273029579 0.9572626571502305 -10
      vertex 56.11623273029579 0.9572626571502305 10
    endloop
  endfacet
  facet normal 0.9709418174260525 0.23931566428755618 0
    outer loop
      vertex 64 0 10
      vertex 63.54182410261284 1.8588926881750742 -10
      vertex 63.54182410261284 1.8588926881750742 10
    endloop
  endfacet
  facet normal 0 0 1
    outer loop
      vertex 56.11623273029579 0.9572626571502305 10
      vertex 57.005957007315594 -2.652490632963181 10
      vertex 57.005957007315594 2.652490632963181 10
    endloop
  endfacet
  facet normal 0 0 1
    outer loop
      vertex 57.005957007315594 2.652490632963181 10
      vertex 58.58158045182986 -3.7400649707416593 10
      vertex 58.58158045182986 3.7400649707416593 10
    endloop
  endfacet
  facet normal 0 0 1
    outer loop
      vertex 63.54182410261284 1.8588926881750742 10
      vertex 63.54182410261284 -1.8588926881750734 10
      vertex 64 0 10
    endloop
  endfacet
  facet normal 0 0 1
    outer loop
      vertex 58.58158045182986 3.7400649707416593 10
      vertex 60.482146721021294 -3.9708354963922163 10
      vertex 60.482146721021294 3.970835496392216 10
    endloop
  endfacet
  facet normal 0 0 1
    outer loop
      vertex 60.482146721021294 3.970835496392216 10
      vertex 62.272258986924626 -3.2919354635746245 10
      vertex 62.272258986924626 3.291935463574626 10
    endloop
  endfacet
  facet normal 0 0 1
    outer loop
      vertex 62.272258986924626 3.291935463574626 10
      vertex 63.54182410261284 -1.8588926881750734 10
      vertex 63.54182410261284 1.8588926881750742 10
    endloop
  endfacet
  facet normal 0.7485107481711011 0.6631226582407952 0
    outer loop
      vertex 63.54182410261284 1.8588926881750742 10
      vertex 62.272258986924626 3.291935463574626 -10
      vertex 62.272258986924626 3.291935463574626 10
    endloop
  endfacet
  facet normal -0.5680647467311553 0.8229838658936569 0
    outer loop
      vertex 58.58158045182986 3.7400649707416593 -10
      vertex 57.005957007315594 2.652490632963181 10
      vertex 58.58158045182986 3.7400649707416593 10
    endloop
  endfacet
  facet normal 0.3546048870425353 0.9350162426854148 0
    outer loop
      vertex 62.272258986924626 3.291935463574626 -10
      vertex 60.482146721021294 3.970835496392216 10
      vertex 62.272258986924626 3.291935463574626 10
    endloop
  endfacet
  facet normal -0.12053668025532287 0.992708874098054 0
    outer loop
      vertex 60.482146721021294 3.970835496392216 -10
      vertex 58.58158045182986 3.7400649707416593 10
      vertex 60.482146721021294 3.970835496392216 10
    endloop
  endfacet
endsolid PythonSCAD_Model
