solid PythonSCAD_Model
  facet normal 0 0 -1
    outer loop
      vertex -10.036959095382873 -11.147172382160914 -10
      vertex -6.691306063588582 -7.431448254773942 -10
      vertex -7.5 -12.990381056766578 -10
    endloop
  endfacet
  facet normal 0 0 -1
    outer loop
      vertex -10.036959095382873 -11.147172382160914 -10
      vertex -8.090169943749475 -5.877852522924732 -10
      vertex -6.691306063588582 -7.431448254773942 -10
    endloop
  endfacet
  facet normal -0.743144825477394 -0.6691306063588585 0
    outer loop
      vertex -12.135254915624213 -8.816778784387097 -10
      vertex -10.036959095382873 -11.147172382160914 -10
      vertex -12.135254915624213 -8.816778784387097 10
    endloop
  endfacet
  facet normal -0.5877852522924729 -0.8090169943749477 0
    outer loop
      vertex -10.036959095382873 -11.147172382160914 -10
      vertex -7.5 -12.990381056766578 -10
      vertex -7.5 -12.990381056766578 10
    endloop
  endfacet
  facet normal 0 0 -1
    outer loop
      vertex -13.703181864639014 -6.101049646137003 -10
      vertex -14.672214011007085 -3.1186753622663903 -10
      vertex -13.703181864639014 6.101049646137003 -10
    endloop
  endfacet
  facet normal 0 0 -1
    outer loop
      vertex -12.135254915624213 -8.816778784387097 -10
      vertex -13.703181864639014 -6.101049646137003 -10
      vertex -12.135254915624213 8.816778784387097 -10
    endloop
  endfacet
  facet normal 0 0 -1
    outer loop
      vertex -10.036959095382873 -11.147172382160914 -10
      vertex -9.781476007338057 -2.0791169081775935 -10
      vertex -9.135454576426008 -4.067366430758002 -10
    endloop
  endfacet
  facet normal 0 0 -1
    outer loop
      vertex -10.036959095382873 -11.147172382160914 -10
      vertex -10 0 -10
      vertex -9.781476007338057 -2.0791169081775935 -10
    endloop
  endfacet
  facet normal 0 0 -1
    outer loop
      vertex -10.036959095382873 -11.147172382160914 -10
      vertex -9.135454576426008 -4.067366430758002 -10
      vertex -8.090169943749475 -5.877852522924732 -10
    endloop
  endfacet
  facet normal 0 0 -1
    outer loop
      vertex -12.135254915624213 -8.816778784387097 -10
      vertex -10.036959095382873 11.147172382160914 -10
      vertex -10.036959095382873 -11.147172382160914 -10
    endloop
  endfacet
  facet normal -0.8660254037844387 -0.4999999999999997 0
    outer loop
      vertex -12.135254915624213 -8.816778784387097 -10
      vertex -13.703181864639014 -6.101049646137003 10
      vertex -13.703181864639014 -6.101049646137003 -10
    endloop
  endfacet
  facet normal -0.9510565162951534 -0.3090169943749476 0
    outer loop
      vertex -13.703181864639014 -6.101049646137003 -10
      vertex -14.672214011007085 -3.1186753622663903 10
      vertex -14.672214011007085 -3.1186753622663903 -10
    endloop
  endfacet
  facet normal -0.9945218953682733 -0.10452846326765321 0
    outer loop
      vertex -14.672214011007085 -3.1186753622663903 -10
      vertex -15 0 10
      vertex -15 0 -10
    endloop
  endfacet
  facet normal 0 0 -1
    outer loop
      vertex -7.5 -12.990381056766578 -10
      vertex -3.090169943749474 -9.510565162951535 -10
      vertex -4.635254915624211 -14.265847744427303 -10
    endloop
  endfacet
  facet normal 0 0 -1
    outer loop
      vertex -7.5 -12.990381056766578 -10
      vertex -6.691306063588582 -7.431448254773942 -10
      vertex -5 -8.660254037844386 -10
    endloop
  endfacet
  facet normal 0 0 -1
    outer loop
      vertex -7.5 -12.990381056766578 -10
      vertex -5 -8.660254037844386 -10
      vertex -3.090169943749474 -9.510565162951535 -10
    endloop
  endfacet
  facet normal 0 0 -1
    outer loop
      vertex -4.635254915624211 -14.265847744427303 -10
      vertex -3.090169943749474 -9.510565162951535 -10
      vertex -1.0452846326765348 -9.945218953682733 -10
    endloop
  endfacet
  facet normal 0 0 -1
    outer loop
      vertex -4.635254915624211 -14.265847744427303 -10
      vertex -1.0452846326765348 -9.945218953682733 -10
      vertex -1.567926949014802 -14.9178284305241 -10
    endloop
  endfacet
  facet normal 0 0 -1
    outer loop
      vertex -1.567926949014802 -14.9178284305241 -10
      vertex -1.0452846326765348 -9.945218953682733 -10
      vertex 1.0452846326765348 -9.945218953682733 -10
    endloop
  endfacet
  facet normal -0.4067366430758003 -0.9135454576426008 0
    outer loop
      vertex -7.5 -12.990381056766578 -10
      vertex -4.635254915624211 -14.265847744427303 -10
      vertex -4.635254915624211 -14.265847744427303 10
    endloop
  endfacet
  facet normal -0.20791169081775956 -0.9781476007338056 0
    outer loop
      vertex -4.635254915624211 -14.265847744427303 -10
      vertex -1.567926949014802 -14.9178284305241 -10
      vertex -1.567926949014802 -14.9178284305241 10
    endloop
  endfacet
  facet normal -0.8660254037844387 -0.4999999999999997 0
    outer loop
      vertex -12.135254915624213 -8.816778784387097 -10
      vertex -12.135254915624213 -8.816778784387097 10
      vertex -13.703181864639014 -6.101049646137003 10
    endloop
  endfacet
  facet normal -0.5877852522924729 -0.8090169943749477 0
    outer loop
      vertex -10.036959095382873 -11.147172382160914 -10
      vertex -7.5 -12.990381056766578 10
      vertex -10.036959095382873 -11.147172382160914 10
    endloop
  endfacet
  facet normal -0.743144825477394 -0.6691306063588585 0
    outer loop
      vertex -10.036959095382873 -11.147172382160914 -10
      vertex -10.036959095382873 -11.147172382160914 10
      vertex -12.135254915624213 -8.816778784387097 10
    endloop
  endfacet
  facet normal 0 0 1
    outer loop
      vertex -10.036959095382873 -11.147172382160914 10
      vertex -7.5 -12.990381056766578 10
      vertex -9.135454576426008 -4.067366430758002 10
    endloop
  endfacet
  facet normal 0 0 1
    outer loop
      vertex -7.5 -12.990381056766578 10
      vertex -8.090169943749475 -5.877852522924732 10
      vertex -9.135454576426008 -4.067366430758002 10
    endloop
  endfacet
  facet normal -0.9510565162951534 -0.3090169943749476 0
    outer loop
      vertex -13.703181864639014 -6.101049646137003 -10
      vertex -13.703181864639014 -6.101049646137003 10
      vertex -14.672214011007085 -3.1186753622663903 10
    endloop
  endfacet
  facet normal -0.9945218953682733 -0.10452846326765321 0
    outer loop
      vertex -14.672214011007085 -3.1186753622663903 -10
      vertex -14.672214011007085 -3.1186753622663903 10
      vertex -15 0 10
    endloop
  endfacet
  facet normal 0 0 1
    outer loop
      vertex -13.703181864639014 -6.101049646137003 10
      vertex -14.672214011007085 3.1186753622663903 10
      vertex -14.672214011007085 -3.1186753622663903 10
    endloop
  endfacet
  facet normal 0 0 1
    outer loop
      vertex -12.135254915624213 -8.816778784387097 10
      vertex -13.703181864639014 6.101049646137003 10
      vertex -13.703181864639014 -6.101049646137003 10
    endloop
  endfacet
  facet normal 0 0 1
    outer loop
      vertex -12.135254915624213 -8.816778784387097 10
      vertex -10.036959095382873 -11.147172382160914 10
      vertex -12.135254915624213 8.816778784387097 10
    endloop
  endfacet
  facet normal 0 0 1
    outer loop
      vertex -10.036959095382873 -11.147172382160914 10
      vertex -9.135454576426008 -4.067366430758002 10
      vertex -9.781476007338057 -2.0791169081775935 10
    endloop
  endfacet
  facet normal 0 0 1
    outer loop
      vertex -10.036959095382873 -11.147172382160914 10
      vertex -9.781476007338057 -2.0791169081775935 10
      vertex -10 0 10
    endloop
  endfacet
  facet normal -0.4067366430758003 -0.9135454576426008 0
    outer loop
      vertex -7.5 -12.990381056766578 -10
      vertex -4.635254915624211 -14.265847744427303 10
      vertex -7.5 -12.990381056766578 10
    endloop
  endfacet
  facet normal -0.20791169081775956 -0.9781476007338056 0
    outer loop
      vertex -4.635254915624211 -14.265847744427303 -10
      vertex -1.567926949014802 -14.9178284305241 10
      vertex -4.635254915624211 -14.265847744427303 10
    endloop
  endfacet
  facet normal 0 -1 0
    outer loop
      vertex -1.567926949014802 -14.9178284305241 -10
      vertex 1.567926949014802 -14.9178284305241 10
      vertex -1.567926949014802 -14.9178284305241 10
    endloop
  endfacet
  facet normal 0 0 1
    outer loop
      vertex -7.5 -12.990381056766578 10
      vertex -4.635254915624211 -14.265847744427303 10
      vertex -6.691306063588582 -7.431448254773942 10
    endloop
  endfacet
  facet normal 0 0 1
    outer loop
      vertex -7.5 -12.990381056766578 10
      vertex -6.691306063588582 -7.431448254773942 10
      vertex -8.090169943749475 -5.877852522924732 10
    endloop
  endfacet
  facet normal 0 0 1
    outer loop
      vertex -4.635254915624211 -14.265847744427303 10
      vertex -5 -8.660254037844386 10
      vertex -6.691306063588582 -7.431448254773942 10
    endloop
  endfacet
  facet normal 0 0 1
    outer loop
      vertex -4.635254915624211 -14.265847744427303 10
      vertex -3.090169943749474 -9.510565162951535 10
      vertex -5 -8.660254037844386 10
    endloop
  endfacet
  facet normal 0 0 1
    outer loop
      vertex -4.635254915624211 -14.265847744427303 10
      vertex -1.567926949014802 -14.9178284305241 10
      vertex -3.090169943749474 -9.510565162951535 10
    endloop
  endfacet
  facet normal 0 0 1
    outer loop
      vertex -1.567926949014802 -14.9178284305241 10
      vertex -1.0452846326765348 -9.945218953682733 10
      vertex -3.090169943749474 -9.510565162951535 10
    endloop
  endfacet
  facet normal 0 0 1
    outer loop
      vertex -1.567926949014802 -14.9178284305241 10
      vertex 1.567926949014802 -14.9178284305241 10
      vertex -1.0452846326765348 -9.945218953682733 10
    endloop
  endfacet
  facet normal 0 0 -1
    outer loop
      vertex -14.672214011007085 -3.1186753622663903 -10
      vertex -15 0 -10
      vertex -14.672214011007085 3.1186753622663903 -10
    endloop
  endfacet
  facet normal 0 0 -1
    outer loop
      vertex -14.672214011007085 -3.1186753622663903 -10
      vertex -14.672214011007085 3.1186753622663903 -10
      vertex -13.703181864639014 6.101049646137003 -10
    endloop
  endfacet
  facet normal 0 0 -1
    outer loop
      vertex -13.703181864639014 -6.101049646137003 -10
      vertex -13.703181864639014 6.101049646137003 -10
      vertex -12.135254915624213 8.816778784387097 -10
    endloop
  endfacet
  facet normal 0 0 -1
    outer loop
      vertex -12.135254915624213 -8.816778784387097 -10
      vertex -12.135254915624213 8.816778784387097 -10
      vertex -10.036959095382873 11.147172382160914 -10
    endloop
  endfacet
  facet normal 0 0 -1
    outer loop
      vertex -10.036959095382873 -11.147172382160914 -10
      vertex -10.036959095382873 11.147172382160914 -10
      vertex -10 0 -10
    endloop
  endfacet
  facet normal 0 0 -1
    outer loop
      vertex -10.036959095382873 11.147172382160914 -10
      vertex -9.781476007338057 2.0791169081775935 -10
      vertex -10 0 -10
    endloop
  endfacet
  facet normal 0 0 -1
    outer loop
      vertex -10.036959095382873 11.147172382160914 -10
      vertex -9.135454576426008 4.067366430758002 -10
      vertex -9.781476007338057 2.0791169081775935 -10
    endloop
  endfacet
  facet normal -0.9945218953682733 0.10452846326765321 0
    outer loop
      vertex -15 0 -10
      vertex -14.672214011007085 3.1186753622663903 10
      vertex -14.672214011007085 3.1186753622663903 -10
    endloop
  endfacet
  facet normal -0.9510565162951534 0.3090169943749476 0
    outer loop
      vertex -14.672214011007085 3.1186753622663903 -10
      vertex -13.703181864639014 6.101049646137003 10
      vertex -13.703181864639014 6.101049646137003 -10
    endloop
  endfacet
  facet normal 0 0 -1
    outer loop
      vertex -7.5 12.990381056766578 -10
      vertex -8.090169943749475 5.877852522924732 -10
      vertex -9.135454576426008 4.067366430758002 -10
    endloop
  endfacet
  facet normal 0 0 -1
    outer loop
      vertex -10.036959095382873 11.147172382160914 -10
      vertex -7.5 12.990381056766578 -10
      vertex -9.135454576426008 4.067366430758002 -10
    endloop
  endfacet
  facet normal -0.8660254037844387 0.4999999999999997 0
    outer loop
      vertex -13.703181864639014 6.101049646137003 -10
      vertex -12.135254915624213 8.816778784387097 10
      vertex -12.135254915624213 8.816778784387097 -10
    endloop
  endfacet
  facet normal -0.743144825477394 0.6691306063588585 0
    outer loop
      vertex -12.135254915624213 8.816778784387097 -10
      vertex -10.036959095382873 11.147172382160914 10
      vertex -10.036959095382873 11.147172382160914 -10
    endloop
  endfacet
  facet normal -0.5877852522924729 0.8090169943749477 0
    outer loop
      vertex -10.036959095382873 11.147172382160914 -10
      vertex -10.036959095382873 11.147172382160914 10
      vertex -7.5 12.990381056766578 -10
    endloop
  endfacet
  facet normal 0 0 -1
    outer loop
      vertex -7.5 12.990381056766578 -10
      vertex -6.691306063588582 7.431448254773942 -10
      vertex -8.090169943749475 5.877852522924732 -10
    endloop
  endfacet
  facet normal 0 0 -1
    outer loop
      vertex -4.635254915624211 14.265847744427303 -10
      vertex -5 8.660254037844386 -10
      vertex -6.691306063588582 7.431448254773942 -10
    endloop
  endfacet
  facet normal 0 0 -1
    outer loop
      vertex -4.635254915624211 14.265847744427303 -10
      vertex -3.090169943749474 9.510565162951535 -10
      vertex -5 8.660254037844386 -10
    endloop
  endfacet
  facet normal 0 0 -1
    outer loop
      vertex -7.5 12.990381056766578 -10
      vertex -4.635254915624211 14.265847744427303 -10
      vertex -6.691306063588582 7.431448254773942 -10
    endloop
  endfacet
  facet normal 0 0 -1
    outer loop
      vertex -4.635254915624211 14.265847744427303 -10
      vertex -1.567926949014802 14.9178284305241 -10
      vertex -3.090169943749474 9.510565162951535 -10
    endloop
  endfacet
  facet normal 0 0 -1
    outer loop
      vertex -1.567926949014802 14.9178284305241 -10
      vertex -1.0452846326765348 9.945218953682733 -10
      vertex -3.090169943749474 9.510565162951535 -10
    endloop
  endfacet
  facet normal 0 0 -1
    outer loop
      vertex -1.567926949014802 14.9178284305241 -10
      vertex 1.567926949014802 14.9178284305241 -10
      vertex -1.0452846326765348 9.945218953682733 -10
    endloop
  endfacet
  facet normal -0.4067366430758003 0.9135454576426008 0
    outer loop
      vertex -7.5 12.990381056766578 -10
      vertex -7.5 12.990381056766578 10
      vertex -4.635254915624211 14.265847744427303 -10
    endloop
  endfacet
  facet normal -0.20791169081775956 0.9781476007338056 0
    outer loop
      vertex -4.635254915624211 14.265847744427303 -10
      vertex -4.635254915624211 14.265847744427303 10
      vertex -1.567926949014802 14.9178284305241 -10
    endloop
  endfacet
  facet normal 0 1 0
    outer loop
      vertex -1.567926949014802 14.9178284305241 -10
      vertex -1.567926949014802 14.9178284305241 10
      vertex 1.567926949014802 14.9178284305241 -10
    endloop
  endfacet
  facet normal -0.9945218953682733 0.10452846326765321 0
    outer loop
      vertex -15 0 -10
      vertex -15 0 10
      vertex -14.672214011007085 3.1186753622663903 10
    endloop
  endfacet
  facet normal -0.9510565162951534 0.3090169943749476 0
    outer loop
      vertex -14.672214011007085 3.1186753622663903 -10
      vertex -14.672214011007085 3.1186753622663903 10
      vertex -13.703181864639014 6.101049646137003 10
    endloop
  endfacet
  facet normal -0.8660254037844387 0.4999999999999997 0
    outer loop
      vertex -13.703181864639014 6.101049646137003 -10
      vertex -13.703181864639014 6.101049646137003 10
      vertex -12.135254915624213 8.816778784387097 10
    endloop
  endfacet
  facet normal 0 0 1
    outer loop
      vertex -14.672214011007085 -3.1186753622663903 10
      vertex -14.672214011007085 3.1186753622663903 10
      vertex -15 0 10
    endloop
  endfacet
  facet normal 0 0 1
    outer loop
      vertex -13.703181864639014 -6.101049646137003 10
      vertex -13.703181864639014 6.101049646137003 10
      vertex -14.672214011007085 3.1186753622663903 10
    endloop
  endfacet
  facet normal 0 0 1
    outer loop
      vertex -12.135254915624213 -8.816778784387097 10
      vertex -12.135254915624213 8.816778784387097 10
      vertex -13.703181864639014 6.101049646137003 10
    endloop
  endfacet
  facet normal 0 0 1
    outer loop
      vertex -10.036959095382873 -11.147172382160914 10
      vertex -10 0 10
      vertex -10.036959095382873 11.147172382160914 10
    endloop
  endfacet
  facet normal 0 0 1
    outer loop
      vertex -10.036959095382873 -11.147172382160914 10
      vertex -10.036959095382873 11.147172382160914 10
      vertex -12.135254915624213 8.816778784387097 10
    endloop
  endfacet
  facet normal 0 0 1
    outer loop
      vertex -10.036959095382873 11.147172382160914 10
      vertex -10 0 10
      vertex -9.781476007338057 2.0791169081775935 10
    endloop
  endfacet
  facet normal 0 0 1
    outer loop
      vertex -10.036959095382873 11.147172382160914 10
      vertex -9.781476007338057 2.0791169081775935 10
      vertex -9.135454576426008 4.067366430758002 10
    endloop
  endfacet
  facet normal 0 0 1
    outer loop
      vertex -10.036959095382873 11.147172382160914 10
      vertex -9.135454576426008 4.067366430758002 10
      vertex -8.090169943749475 5.877852522924732 10
    endloop
  endfacet
  facet normal -0.743144825477394 0.6691306063588585 0
    outer loop
      vertex -12.135254915624213 8.816778784387097 -10
      vertex -12.135254915624213 8.816778784387097 10
      vertex -10.036959095382873 11.147172382160914 10
    endloop
  endfacet
  facet normal -0.5877852522924729 0.8090169943749477 0
    outer loop
      vertex -7.5 12.990381056766578 -10
      vertex -10.036959095382873 11.147172382160914 10
      vertex -7.5 12.990381056766578 10
    endloop
  endfacet
  facet normal 0 0 1
    outer loop
      vertex -10.036959095382873 11.147172382160914 10
      vertex -8.090169943749475 5.877852522924732 10
      vertex -6.691306063588582 7.431448254773942 10
    endloop
  endfacet
  facet normal 0 0 1
    outer loop
      vertex -10.036959095382873 11.147172382160914 10
      vertex -6.691306063588582 7.431448254773942 10
      vertex -7.5 12.990381056766578 10
    endloop
  endfacet
  facet normal -0.4067366430758003 0.9135454576426008 0
    outer loop
      vertex -4.635254915624211 14.265847744427303 -10
      vertex -7.5 12.990381056766578 10
      vertex -4.635254915624211 14.265847744427303 10
    endloop
  endfacet
  facet normal -0.20791169081775956 0.9781476007338056 0
    outer loop
      vertex -1.567926949014802 14.9178284305241 -10
      vertex -4.635254915624211 14.265847744427303 10
      vertex -1.567926949014802 14.9178284305241 10
    endloop
  endfacet
  facet normal 0 0 1
    outer loop
      vertex -7.5 12.990381056766578 10
      vertex -6.691306063588582 7.431448254773942 10
      vertex -5 8.660254037844386 10
    endloop
  endfacet
  facet normal 0 0 1
    outer loop
      vertex -7.5 12.990381056766578 10
      vertex -5 8.660254037844386 10
      vertex -3.090169943749474 9.510565162951535 10
    endloop
  endfacet
  facet normal 0 0 1
    outer loop
      vertex -7.5 12.990381056766578 10
      vertex -3.090169943749474 9.510565162951535 10
      vertex -4.635254915624211 14.265847744427303 10
    endloop
  endfacet
  facet normal 0 0 1
    outer loop
      vertex -4.635254915624211 14.265847744427303 10
      vertex -3.090169943749474 9.510565162951535 10
      vertex -1.0452846326765348 9.945218953682733 10
    endloop
  endfacet
  facet normal 0 0 1
    outer loop
      vertex -4.635254915624211 14.265847744427303 10
      vertex -1.0452846326765348 9.945218953682733 10
      vertex -1.567926949014802 14.9178284305241 10
    endloop
  endfacet
  facet normal 0 0 1
    outer loop
      vertex -1.567926949014802 14.9178284305241 10
      vertex -1.0452846326765348 9.945218953682733 10
      vertex 1.0452846326765348 9.945218953682733 10
    endloop
  endfacet
  facet normal 0 0 -1
    outer loop
      vertex -1.567926949014802 -14.9178284305241 -10
      vertex 1.0452846326765348 -9.945218953682733 -10
      vertex 1.567926949014802 -14.9178284305241 -10
    endloop
  endfacet
  facet normal 0 0 -1
    outer loop
      vertex 1.567926949014802 -14.9178284305241 -10
      vertex 1.0452846326765348 -9.945218953682733 -10
      vertex 3.090169943749474 -9.510565162951535 -10
    endloop
  endfacet
  facet normal 0 0 -1
    outer loop
      vertex 1.567926949014802 -14.9178284305241 -10
      vertex 3.090169943749474 -9.510565162951535 -10
      vertex 4.635254915624211 -14.265847744427303 -10
    endloop
  endfacet
  facet normal 0 0 -1
    outer loop
      vertex 4.635254915624211 -14.265847744427303 -10
      vertex 6.691306063588582 -7.431448254773942 -10
      vertex 7.5 -12.990381056766578 -10
    endloop
  endfacet
  facet normal 0 0 -1
    outer loop
      vertex 4.635254915624211 -14.265847744427303 -10
      vertex 3.090169943749474 -9.510565162951535 -10
      vertex 5 -8.660254037844386 -10
    endloop
  endfacet
  facet normal 0 0 -1
    outer loop
      vertex 4.635254915624211 -14.265847744427303 -10
      vertex 5 -8.660254037844386 -10
      vertex 6.691306063588582 -7.431448254773942 -10
    endloop
  endfacet
  facet normal 0 0 -1
    outer loop
      vertex 7.5 -12.990381056766578 -10
      vertex 6.691306063588582 -7.431448254773942 -10
      vertex 8.090169943749475 -5.877852522924732 -10
    endloop
  endfacet
  facet normal 0 -1 0
    outer loop
      vertex -1.567926949014802 -14.9178284305241 -10
      vertex 1.567926949014802 -14.9178284305241 -10
      vertex 1.567926949014802 -14.9178284305241 10
    endloop
  endfacet
  facet normal 0.20791169081775956 -0.9781476007338056 0
    outer loop
      vertex 1.567926949014802 -14.9178284305241 -10
      vertex 4.635254915624211 -14.265847744427303 -10
      vertex 4.635254915624211 -14.265847744427303 10
    endloop
  endfacet
  facet normal 0.4067366430758003 -0.9135454576426008 0
    outer loop
      vertex 4.635254915624211 -14.265847744427303 -10
      vertex 7.5 -12.990381056766578 -10
      vertex 7.5 -12.990381056766578 10
    endloop
  endfacet
  facet normal 0 0 -1
    outer loop
      vertex 7.5 -12.990381056766578 -10
      vertex 9.135454576426008 -4.067366430758002 -10
      vertex 10.036959095382873 -11.147172382160914 -10
    endloop
  endfacet
  facet normal 0 0 -1
    outer loop
      vertex 7.5 -12.990381056766578 -10
      vertex 8.090169943749475 -5.877852522924732 -10
      vertex 9.135454576426008 -4.067366430758002 -10
    endloop
  endfacet
  facet normal 0.5877852522924729 -0.8090169943749477 0
    outer loop
      vertex 7.5 -12.990381056766578 -10
      vertex 10.036959095382873 -11.147172382160914 -10
      vertex 10.036959095382873 -11.147172382160914 10
    endloop
  endfacet
  facet normal 0.743144825477394 -0.6691306063588585 0
    outer loop
      vertex 10.036959095382873 -11.147172382160914 -10
      vertex 12.135254915624213 -8.816778784387097 -10
      vertex 10.036959095382873 -11.147172382160914 10
    endloop
  endfacet
  facet normal 0.8660254037844387 -0.4999999999999997 0
    outer loop
      vertex 12.135254915624213 -8.816778784387097 -10
      vertex 13.703181864639014 -6.101049646137003 -10
      vertex 12.135254915624213 -8.816778784387097 10
    endloop
  endfacet
  facet normal 0 0 -1
    outer loop
      vertex 10.036959095382873 -11.147172382160914 -10
      vertex 9.135454576426008 -4.067366430758002 -10
      vertex 9.781476007338057 -2.0791169081775935 -10
    endloop
  endfacet
  facet normal 0 0 -1
    outer loop
      vertex 10.036959095382873 -11.147172382160914 -10
      vertex 9.781476007338057 -2.0791169081775935 -10
      vertex 10 0 -10
    endloop
  endfacet
  facet normal 0 0 -1
    outer loop
      vertex 10.036959095382873 -11.147172382160914 -10
      vertex 12.135254915624213 8.816778784387097 -10
      vertex 12.135254915624213 -8.816778784387097 -10
    endloop
  endfacet
  facet normal 0 0 -1
    outer loop
      vertex 12.135254915624213 -8.816778784387097 -10
      vertex 13.703181864639014 6.101049646137003 -10
      vertex 13.703181864639014 -6.101049646137003 -10
    endloop
  endfacet
  facet normal 0 0 -1
    outer loop
      vertex 13.703181864639014 -6.101049646137003 -10
      vertex 14.672214011007085 3.1186753622663903 -10
      vertex 14.672214011007085 -3.1186753622663903 -10
    endloop
  endfacet
  facet normal 0.9510565162951534 -0.3090169943749476 0
    outer loop
      vertex 13.703181864639014 -6.101049646137003 -10
      vertex 14.672214011007085 -3.1186753622663903 -10
      vertex 13.703181864639014 -6.101049646137003 10
    endloop
  endfacet
  facet normal 0.9945218953682733 -0.10452846326765321 0
    outer loop
      vertex 14.672214011007085 -3.1186753622663903 -10
      vertex 15 0 -10
      vertex 14.672214011007085 -3.1186753622663903 10
    endloop
  endfacet
  facet normal 0.20791169081775956 -0.9781476007338056 0
    outer loop
      vertex 1.567926949014802 -14.9178284305241 -10
      vertex 4.635254915624211 -14.265847744427303 10
      vertex 1.567926949014802 -14.9178284305241 10
    endloop
  endfacet
  facet normal 0.4067366430758003 -0.9135454576426008 0
    outer loop
      vertex 4.635254915624211 -14.265847744427303 -10
      vertex 7.5 -12.990381056766578 10
      vertex 4.635254915624211 -14.265847744427303 10
    endloop
  endfacet
  facet normal 0 0 1
    outer loop
      vertex 1.567926949014802 -14.9178284305241 10
      vertex 1.0452846326765348 -9.945218953682733 10
      vertex -1.0452846326765348 -9.945218953682733 10
    endloop
  endfacet
  facet normal 0 0 1
    outer loop
      vertex 1.567926949014802 -14.9178284305241 10
      vertex 4.635254915624211 -14.265847744427303 10
      vertex 1.0452846326765348 -9.945218953682733 10
    endloop
  endfacet
  facet normal 0 0 1
    outer loop
      vertex 4.635254915624211 -14.265847744427303 10
      vertex 3.090169943749474 -9.510565162951535 10
      vertex 1.0452846326765348 -9.945218953682733 10
    endloop
  endfacet
  facet normal 0 0 1
    outer loop
      vertex 4.635254915624211 -14.265847744427303 10
      vertex 7.5 -12.990381056766578 10
      vertex 3.090169943749474 -9.510565162951535 10
    endloop
  endfacet
  facet normal 0 0 1
    outer loop
      vertex 7.5 -12.990381056766578 10
      vertex 5 -8.660254037844386 10
      vertex 3.090169943749474 -9.510565162951535 10
    endloop
  endfacet
  facet normal 0 0 1
    outer loop
      vertex 7.5 -12.990381056766578 10
      vertex 6.691306063588582 -7.431448254773942 10
      vertex 5 -8.660254037844386 10
    endloop
  endfacet
  facet normal 0.5877852522924729 -0.8090169943749477 0
    outer loop
      vertex 7.5 -12.990381056766578 -10
      vertex 10.036959095382873 -11.147172382160914 10
      vertex 7.5 -12.990381056766578 10
    endloop
  endfacet
  facet normal 0.743144825477394 -0.6691306063588585 0
    outer loop
      vertex 12.135254915624213 -8.816778784387097 -10
      vertex 12.135254915624213 -8.816778784387097 10
      vertex 10.036959095382873 -11.147172382160914 10
    endloop
  endfacet
  facet normal 0 0 1
    outer loop
      vertex 7.5 -12.990381056766578 10
      vertex 10.036959095382873 -11.147172382160914 10
      vertex 6.691306063588582 -7.431448254773942 10
    endloop
  endfacet
  facet normal 0 0 1
    outer loop
      vertex 10.036959095382873 -11.147172382160914 10
      vertex 8.090169943749475 -5.877852522924732 10
      vertex 6.691306063588582 -7.431448254773942 10
    endloop
  endfacet
  facet normal 0.8660254037844387 -0.4999999999999997 0
    outer loop
      vertex 13.703181864639014 -6.101049646137003 -10
      vertex 13.703181864639014 -6.101049646137003 10
      vertex 12.135254915624213 -8.816778784387097 10
    endloop
  endfacet
  facet normal 0.9510565162951534 -0.3090169943749476 0
    outer loop
      vertex 14.672214011007085 -3.1186753622663903 -10
      vertex 14.672214011007085 -3.1186753622663903 10
      vertex 13.703181864639014 -6.101049646137003 10
    endloop
  endfacet
  facet normal 0.9945218953682733 -0.10452846326765321 0
    outer loop
      vertex 14.672214011007085 -3.1186753622663903 10
      vertex 15 0 -10
      vertex 15 0 10
    endloop
  endfacet
  facet normal 0 0 1
    outer loop
      vertex 10.036959095382873 -11.147172382160914 10
      vertex 9.135454576426008 -4.067366430758002 10
      vertex 8.090169943749475 -5.877852522924732 10
    endloop
  endfacet
  facet normal 0 0 1
    outer loop
      vertex 10.036959095382873 -11.147172382160914 10
      vertex 9.781476007338057 -2.0791169081775935 10
      vertex 9.135454576426008 -4.067366430758002 10
    endloop
  endfacet
  facet normal 0 0 1
    outer loop
      vertex 10.036959095382873 -11.147172382160914 10
      vertex 10 0 10
      vertex 9.781476007338057 -2.0791169081775935 10
    endloop
  endfacet
  facet normal 0 0 1
    outer loop
      vertex 10.036959095382873 -11.147172382160914 10
      vertex 12.135254915624213 -8.816778784387097 10
      vertex 10.036959095382873 11.147172382160914 10
    endloop
  endfacet
  facet normal 0 0 1
    outer loop
      vertex 12.135254915624213 -8.816778784387097 10
      vertex 13.703181864639014 -6.101049646137003 10
      vertex 12.135254915624213 8.816778784387097 10
    endloop
  endfacet
  facet normal 0 0 1
    outer loop
      vertex 13.703181864639014 -6.101049646137003 10
      vertex 14.672214011007085 -3.1186753622663903 10
      vertex 13.703181864639014 6.101049646137003 10
    endloop
  endfacet
  facet normal 0 0 -1
    outer loop
      vertex 1.567926949014802 14.9178284305241 -10
      vertex 1.0452846326765348 9.945218953682733 -10
      vertex -1.0452846326765348 9.945218953682733 -10
    endloop
  endfacet
  facet normal 0 0 -1
    outer loop
      vertex 1.567926949014802 14.9178284305241 -10
      vertex 4.635254915624211 14.265847744427303 -10
      vertex 1.0452846326765348 9.945218953682733 -10
    endloop
  endfacet
  facet normal 0 0 -1
    outer loop
      vertex 4.635254915624211 14.265847744427303 -10
      vertex 3.090169943749474 9.510565162951535 -10
      vertex 1.0452846326765348 9.945218953682733 -10
    endloop
  endfacet
  facet normal 0 0 -1
    outer loop
      vertex 7.5 12.990381056766578 -10
      vertex 5 8.660254037844386 -10
      vertex 3.090169943749474 9.510565162951535 -10
    endloop
  endfacet
  facet normal 0 0 -1
    outer loop
      vertex 7.5 12.990381056766578 -10
      vertex 6.691306063588582 7.431448254773942 -10
      vertex 5 8.660254037844386 -10
    endloop
  endfacet
  facet normal 0 0 -1
    outer loop
      vertex 4.635254915624211 14.265847744427303 -10
      vertex 7.5 12.990381056766578 -10
      vertex 3.090169943749474 9.510565162951535 -10
    endloop
  endfacet
  facet normal 0.20791169081775956 0.9781476007338056 0
    outer loop
      vertex 1.567926949014802 14.9178284305241 -10
      vertex 1.567926949014802 14.9178284305241 10
      vertex 4.635254915624211 14.265847744427303 -10
    endloop
  endfacet
  facet normal 0.4067366430758003 0.9135454576426008 0
    outer loop
      vertex 4.635254915624211 14.265847744427303 -10
      vertex 4.635254915624211 14.265847744427303 10
      vertex 7.5 12.990381056766578 -10
    endloop
  endfacet
  facet normal 0 0 -1
    outer loop
      vertex 10.036959095382873 -11.147172382160914 -10
      vertex 10 0 -10
      vertex 10.036959095382873 11.147172382160914 -10
    endloop
  endfacet
  facet normal 0 0 -1
    outer loop
      vertex 10.036959095382873 -11.147172382160914 -10
      vertex 10.036959095382873 11.147172382160914 -10
      vertex 12.135254915624213 8.816778784387097 -10
    endloop
  endfacet
  facet normal 0 0 -1
    outer loop
      vertex 10.036959095382873 11.147172382160914 -10
      vertex 9.135454576426008 4.067366430758002 -10
      vertex 8.090169943749475 5.877852522924732 -10
    endloop
  endfacet
  facet normal 0 0 -1
    outer loop
      vertex 10.036959095382873 11.147172382160914 -10
      vertex 10 0 -10
      vertex 9.781476007338057 2.0791169081775935 -10
    endloop
  endfacet
  facet normal 0 0 -1
    outer loop
      vertex 10.036959095382873 11.147172382160914 -10
      vertex 9.781476007338057 2.0791169081775935 -10
      vertex 9.135454576426008 4.067366430758002 -10
    endloop
  endfacet
  facet normal 0 0 -1
    outer loop
      vertex 12.135254915624213 -8.816778784387097 -10
      vertex 12.135254915624213 8.816778784387097 -10
      vertex 13.703181864639014 6.101049646137003 -10
    endloop
  endfacet
  facet normal 0 0 -1
    outer loop
      vertex 13.703181864639014 -6.101049646137003 -10
      vertex 13.703181864639014 6.101049646137003 -10
      vertex 14.672214011007085 3.1186753622663903 -10
    endloop
  endfacet
  facet normal 0 0 -1
    outer loop
      vertex 14.672214011007085 -3.1186753622663903 -10
      vertex 14.672214011007085 3.1186753622663903 -10
      vertex 15 0 -10
    endloop
  endfacet
  facet normal 0.9945218953682733 0.10452846326765321 0
    outer loop
      vertex 15 0 -10
      vertex 14.672214011007085 3.1186753622663903 -10
      vertex 15 0 10
    endloop
  endfacet
  facet normal 0.9510565162951534 0.3090169943749476 0
    outer loop
      vertex 14.672214011007085 3.1186753622663903 -10
      vertex 13.703181864639014 6.101049646137003 -10
      vertex 14.672214011007085 3.1186753622663903 10
    endloop
  endfacet
  facet normal 0.8660254037844387 0.4999999999999997 0
    outer loop
      vertex 13.703181864639014 6.101049646137003 -10
      vertex 12.135254915624213 8.816778784387097 -10
      vertex 13.703181864639014 6.101049646137003 10
    endloop
  endfacet
  facet normal 0 0 -1
    outer loop
      vertex 10.036959095382873 11.147172382160914 -10
      vertex 8.090169943749475 5.877852522924732 -10
      vertex 6.691306063588582 7.431448254773942 -10
    endloop
  endfacet
  facet normal 0 0 -1
    outer loop
      vertex 10.036959095382873 11.147172382160914 -10
      vertex 6.691306063588582 7.431448254773942 -10
      vertex 7.5 12.990381056766578 -10
    endloop
  endfacet
  facet normal 0.5877852522924729 0.8090169943749477 0
    outer loop
      vertex 10.036959095382873 11.147172382160914 -10
      vertex 7.5 12.990381056766578 -10
      vertex 7.5 12.990381056766578 10
    endloop
  endfacet
  facet normal 0.743144825477394 0.6691306063588585 0
    outer loop
      vertex 10.036959095382873 11.147172382160914 -10
      vertex 12.135254915624213 8.816778784387097 10
      vertex 12.135254915624213 8.816778784387097 -10
    endloop
  endfacet
  facet normal 0 1 0
    outer loop
      vertex -1.567926949014802 14.9178284305241 10
      vertex 1.567926949014802 14.9178284305241 10
      vertex 1.567926949014802 14.9178284305241 -10
    endloop
  endfacet
  facet normal 0.20791169081775956 0.9781476007338056 0
    outer loop
      vertex 4.635254915624211 14.265847744427303 -10
      vertex 1.567926949014802 14.9178284305241 10
      vertex 4.635254915624211 14.265847744427303 10
    endloop
  endfacet
  facet normal 0.4067366430758003 0.9135454576426008 0
    outer loop
      vertex 7.5 12.990381056766578 -10
      vertex 4.635254915624211 14.265847744427303 10
      vertex 7.5 12.990381056766578 10
    endloop
  endfacet
  facet normal 0 0 1
    outer loop
      vertex -1.567926949014802 14.9178284305241 10
      vertex 1.0452846326765348 9.945218953682733 10
      vertex 1.567926949014802 14.9178284305241 10
    endloop
  endfacet
  facet normal 0 0 1
    outer loop
      vertex 1.567926949014802 14.9178284305241 10
      vertex 1.0452846326765348 9.945218953682733 10
      vertex 3.090169943749474 9.510565162951535 10
    endloop
  endfacet
  facet normal 0 0 1
    outer loop
      vertex 1.567926949014802 14.9178284305241 10
      vertex 3.090169943749474 9.510565162951535 10
      vertex 4.635254915624211 14.265847744427303 10
    endloop
  endfacet
  facet normal 0 0 1
    outer loop
      vertex 4.635254915624211 14.265847744427303 10
      vertex 3.090169943749474 9.510565162951535 10
      vertex 5 8.660254037844386 10
    endloop
  endfacet
  facet normal 0 0 1
    outer loop
      vertex 4.635254915624211 14.265847744427303 10
      vertex 5 8.660254037844386 10
      vertex 6.691306063588582 7.431448254773942 10
    endloop
  endfacet
  facet normal 0 0 1
    outer loop
      vertex 7.5 12.990381056766578 10
      vertex 6.691306063588582 7.431448254773942 10
      vertex 8.090169943749475 5.877852522924732 10
    endloop
  endfacet
  facet normal 0 0 1
    outer loop
      vertex 4.635254915624211 14.265847744427303 10
      vertex 6.691306063588582 7.431448254773942 10
      vertex 7.5 12.990381056766578 10
    endloop
  endfacet
  facet normal 0.9945218953682733 0.10452846326765321 0
    outer loop
      vertex 14.672214011007085 3.1186753622663903 -10
      vertex 14.672214011007085 3.1186753622663903 10
      vertex 15 0 10
    endloop
  endfacet
  facet normal 0.9510565162951534 0.3090169943749476 0
    outer loop
      vertex 13.703181864639014 6.101049646137003 -10
      vertex 13.703181864639014 6.101049646137003 10
      vertex 14.672214011007085 3.1186753622663903 10
    endloop
  endfacet
  facet normal 0 0 1
    outer loop
      vertex 10.036959095382873 -11.147172382160914 10
      vertex 10.036959095382873 11.147172382160914 10
      vertex 10 0 10
    endloop
  endfacet
  facet normal 0 0 1
    outer loop
      vertex 10.036959095382873 11.147172382160914 10
      vertex 9.781476007338057 2.0791169081775935 10
      vertex 10 0 10
    endloop
  endfacet
  facet normal 0 0 1
    outer loop
      vertex 10.036959095382873 11.147172382160914 10
      vertex 9.135454576426008 4.067366430758002 10
      vertex 9.781476007338057 2.0791169081775935 10
    endloop
  endfacet
  facet normal 0 0 1
    outer loop
      vertex 12.135254915624213 -8.816778784387097 10
      vertex 12.135254915624213 8.816778784387097 10
      vertex 10.036959095382873 11.147172382160914 10
    endloop
  endfacet
  facet normal 0 0 1
    outer loop
      vertex 14.672214011007085 -3.1186753622663903 10
      vertex 15 0 10
      vertex 14.672214011007085 3.1186753622663903 10
    endloop
  endfacet
  facet normal 0 0 1
    outer loop
      vertex 13.703181864639014 -6.101049646137003 10
      vertex 13.703181864639014 6.101049646137003 10
      vertex 12.135254915624213 8.816778784387097 10
    endloop
  endfacet
  facet normal 0 0 1
    outer loop
      vertex 14.672214011007085 -3.1186753622663903 10
      vertex 14.672214011007085 3.1186753622663903 10
      vertex 13.703181864639014 6.101049646137003 10
    endloop
  endfacet
  facet normal 0.743144825477394 0.6691306063588585 0
    outer loop
      vertex 10.036959095382873 11.147172382160914 -10
      vertex 10.036959095382873 11.147172382160914 10
      vertex 12.135254915624213 8.816778784387097 10
    endloop
  endfacet
  facet normal 0.5877852522924729 0.8090169943749477 0
    outer loop
      vertex 10.036959095382873 11.147172382160914 -10
      vertex 7.5 12.990381056766578 10
      vertex 10.036959095382873 11.147172382160914 10
    endloop
  endfacet
  facet normal 0.8660254037844387 0.4999999999999997 0
    outer loop
      vertex 12.135254915624213 8.816778784387097 -10
      vertex 12.135254915624213 8.816778784387097 10
      vertex 13.703181864639014 6.101049646137003 10
    endloop
  endfacet
  facet normal 0 0 1
    outer loop
      vertex 7.5 12.990381056766578 10
      vertex 8.090169943749475 5.877852522924732 10
      vertex 9.135454576426008 4.067366430758002 10
    endloop
  endfacet
  facet normal 0 0 1
    outer loop
      vertex 10.036959095382873 11.147172382160914 10
      vertex 7.5 12.990381056766578 10
      vertex 9.135454576426008 4.067366430758002 10
    endloop
  endfacet
  facet normal 0.743144825477394 0.6691306063588583 0
    outer loop
      vertex -6.691306063588582 -7.431448254773942 -10
      vertex -8.090169943749475 -5.877852522924732 -10
      vertex -8.090169943749475 -5.877852522924732 10
    endloop
  endfacet
  facet normal 0.8660254037844389 0.49999999999999967 0
    outer loop
      vertex -8.090169943749475 -5.877852522924732 -10
      vertex -9.135454576426008 -4.067366430758002 -10
      vertex -9.135454576426008 -4.067366430758002 10
    endloop
  endfacet
  facet normal 0.9510565162951534 0.30901699437494784 0
    outer loop
      vertex -9.135454576426008 -4.067366430758002 -10
      vertex -9.781476007338057 -2.0791169081775935 -10
      vertex -9.781476007338057 -2.0791169081775935 10
    endloop
  endfacet
  facet normal 0.9945218953682734 0.10452846326765323 0
    outer loop
      vertex -10 0 10
      vertex -9.781476007338057 -2.0791169081775935 -10
      vertex -10 0 -10
    endloop
  endfacet
  facet normal 0.5877852522924729 0.8090169943749476 0
    outer loop
      vertex -5 -8.660254037844386 -10
      vertex -6.691306063588582 -7.431448254773942 -10
      vertex -6.691306063588582 -7.431448254773942 10
    endloop
  endfacet
  facet normal 0.40673664307580015 0.913545457642601 0
    outer loop
      vertex -5 -8.660254037844386 -10
      vertex -5 -8.660254037844386 10
      vertex -3.090169943749474 -9.510565162951535 -10
    endloop
  endfacet
  facet normal 0.20791169081775984 0.9781476007338056 0
    outer loop
      vertex -3.090169943749474 -9.510565162951535 -10
      vertex -3.090169943749474 -9.510565162951535 10
      vertex -1.0452846326765348 -9.945218953682733 -10
    endloop
  endfacet
  facet normal 0 1 0
    outer loop
      vertex -1.0452846326765348 -9.945218953682733 10
      vertex 1.0452846326765348 -9.945218953682733 -10
      vertex -1.0452846326765348 -9.945218953682733 -10
    endloop
  endfacet
  facet normal 0.8660254037844389 0.49999999999999967 0
    outer loop
      vertex -9.135454576426008 -4.067366430758002 10
      vertex -8.090169943749475 -5.877852522924732 10
      vertex -8.090169943749475 -5.877852522924732 -10
    endloop
  endfacet
  facet normal 0.9945218953682734 0.10452846326765323 0
    outer loop
      vertex -10 0 10
      vertex -9.781476007338057 -2.0791169081775935 10
      vertex -9.781476007338057 -2.0791169081775935 -10
    endloop
  endfacet
  facet normal 0.9510565162951534 0.30901699437494784 0
    outer loop
      vertex -9.135454576426008 -4.067366430758002 -10
      vertex -9.781476007338057 -2.0791169081775935 10
      vertex -9.135454576426008 -4.067366430758002 10
    endloop
  endfacet
  facet normal 0.5877852522924729 0.8090169943749476 0
    outer loop
      vertex -5 -8.660254037844386 -10
      vertex -6.691306063588582 -7.431448254773942 10
      vertex -5 -8.660254037844386 10
    endloop
  endfacet
  facet normal 0.40673664307580015 0.913545457642601 0
    outer loop
      vertex -3.090169943749474 -9.510565162951535 -10
      vertex -5 -8.660254037844386 10
      vertex -3.090169943749474 -9.510565162951535 10
    endloop
  endfacet
  facet normal 0.20791169081775984 0.9781476007338056 0
    outer loop
      vertex -1.0452846326765348 -9.945218953682733 -10
      vertex -3.090169943749474 -9.510565162951535 10
      vertex -1.0452846326765348 -9.945218953682733 10
    endloop
  endfacet
  facet normal 0.743144825477394 0.6691306063588583 0
    outer loop
      vertex -8.090169943749475 -5.877852522924732 10
      vertex -6.691306063588582 -7.431448254773942 10
      vertex -6.691306063588582 -7.431448254773942 -10
    endloop
  endfacet
  facet normal 0.9945218953682734 -0.10452846326765323 0
    outer loop
      vertex -9.781476007338057 2.0791169081775935 10
      vertex -10 0 -10
      vertex -9.781476007338057 2.0791169081775935 -10
    endloop
  endfacet
  facet normal 0.9510565162951534 -0.30901699437494784 0
    outer loop
      vertex -9.781476007338057 2.0791169081775935 -10
      vertex -9.135454576426008 4.067366430758002 -10
      vertex -9.135454576426008 4.067366430758002 10
    endloop
  endfacet
  facet normal 0.8660254037844389 -0.49999999999999967 0
    outer loop
      vertex -9.135454576426008 4.067366430758002 -10
      vertex -8.090169943749475 5.877852522924732 -10
      vertex -8.090169943749475 5.877852522924732 10
    endloop
  endfacet
  facet normal 0.743144825477394 -0.6691306063588583 0
    outer loop
      vertex -8.090169943749475 5.877852522924732 -10
      vertex -6.691306063588582 7.431448254773942 -10
      vertex -6.691306063588582 7.431448254773942 10
    endloop
  endfacet
  facet normal 0.5877852522924729 -0.8090169943749476 0
    outer loop
      vertex -5 8.660254037844386 -10
      vertex -5 8.660254037844386 10
      vertex -6.691306063588582 7.431448254773942 -10
    endloop
  endfacet
  facet normal 0.40673664307580015 -0.913545457642601 0
    outer loop
      vertex -3.090169943749474 9.510565162951535 -10
      vertex -3.090169943749474 9.510565162951535 10
      vertex -5 8.660254037844386 -10
    endloop
  endfacet
  facet normal 0.20791169081775984 -0.9781476007338056 0
    outer loop
      vertex -1.0452846326765348 9.945218953682733 10
      vertex -3.090169943749474 9.510565162951535 -10
      vertex -1.0452846326765348 9.945218953682733 -10
    endloop
  endfacet
  facet normal 0.9945218953682734 -0.10452846326765323 0
    outer loop
      vertex -9.781476007338057 2.0791169081775935 10
      vertex -10 0 10
      vertex -10 0 -10
    endloop
  endfacet
  facet normal 0.9510565162951534 -0.30901699437494784 0
    outer loop
      vertex -9.135454576426008 4.067366430758002 10
      vertex -9.781476007338057 2.0791169081775935 10
      vertex -9.781476007338057 2.0791169081775935 -10
    endloop
  endfacet
  facet normal 0.8660254037844389 -0.49999999999999967 0
    outer loop
      vertex -9.135454576426008 4.067366430758002 -10
      vertex -8.090169943749475 5.877852522924732 10
      vertex -9.135454576426008 4.067366430758002 10
    endloop
  endfacet
  facet normal 0.743144825477394 -0.6691306063588583 0
    outer loop
      vertex -6.691306063588582 7.431448254773942 10
      vertex -8.090169943749475 5.877852522924732 10
      vertex -8.090169943749475 5.877852522924732 -10
    endloop
  endfacet
  facet normal 0.5877852522924729 -0.8090169943749476 0
    outer loop
      vertex -6.691306063588582 7.431448254773942 -10
      vertex -5 8.660254037844386 10
      vertex -6.691306063588582 7.431448254773942 10
    endloop
  endfacet
  facet normal 0.40673664307580015 -0.913545457642601 0
    outer loop
      vertex -5 8.660254037844386 -10
      vertex -3.090169943749474 9.510565162951535 10
      vertex -5 8.660254037844386 10
    endloop
  endfacet
  facet normal 0.20791169081775984 -0.9781476007338056 0
    outer loop
      vertex -3.090169943749474 9.510565162951535 -10
      vertex -1.0452846326765348 9.945218953682733 10
      vertex -3.090169943749474 9.510565162951535 10
    endloop
  endfacet
  facet normal 0 -1 0
    outer loop
      vertex 1.0452846326765348 9.945218953682733 10
      vertex -1.0452846326765348 9.945218953682733 10
      vertex -1.0452846326765348 9.945218953682733 -10
    endloop
  endfacet
  facet normal -0.20791169081775984 0.9781476007338056 0
    outer loop
      vertex 1.0452846326765348 -9.945218953682733 10
      vertex 3.090169943749474 -9.510565162951535 -10
      vertex 1.0452846326765348 -9.945218953682733 -10
    endloop
  endfacet
  facet normal -0.40673664307580015 0.913545457642601 0
    outer loop
      vertex 3.090169943749474 -9.510565162951535 -10
      vertex 3.090169943749474 -9.510565162951535 10
      vertex 5 -8.660254037844386 -10
    endloop
  endfacet
  facet normal -0.5877852522924729 0.8090169943749476 0
    outer loop
      vertex 5 -8.660254037844386 10
      vertex 6.691306063588582 -7.431448254773942 -10
      vertex 5 -8.660254037844386 -10
    endloop
  endfacet
  facet normal -0.743144825477394 0.6691306063588583 0
    outer loop
      vertex 8.090169943749475 -5.877852522924732 -10
      vertex 6.691306063588582 -7.431448254773942 -10
      vertex 6.691306063588582 -7.431448254773942 10
    endloop
  endfacet
  facet normal -0.8660254037844389 0.49999999999999967 0
    outer loop
      vertex 9.135454576426008 -4.067366430758002 -10
      vertex 8.090169943749475 -5.877852522924732 -10
      vertex 8.090169943749475 -5.877852522924732 10
    endloop
  endfacet
  facet normal -0.9510565162951534 0.30901699437494784 0
    outer loop
      vertex 9.781476007338057 -2.0791169081775935 -10
      vertex 9.135454576426008 -4.067366430758002 -10
      vertex 9.135454576426008 -4.067366430758002 10
    endloop
  endfacet
  facet normal -0.9945218953682734 0.10452846326765323 0
    outer loop
      vertex 9.781476007338057 -2.0791169081775935 -10
      vertex 9.781476007338057 -2.0791169081775935 10
      vertex 10 0 -10
    endloop
  endfacet
  facet normal 0 1 0
    outer loop
      vertex -1.0452846326765348 -9.945218953682733 10
      vertex 1.0452846326765348 -9.945218953682733 10
      vertex 1.0452846326765348 -9.945218953682733 -10
    endloop
  endfacet
  facet normal -0.20791169081775984 0.9781476007338056 0
    outer loop
      vertex 3.090169943749474 -9.510565162951535 -10
      vertex 1.0452846326765348 -9.945218953682733 10
      vertex 3.090169943749474 -9.510565162951535 10
    endloop
  endfacet
  facet normal -0.40673664307580015 0.913545457642601 0
    outer loop
      vertex 5 -8.660254037844386 10
      vertex 5 -8.660254037844386 -10
      vertex 3.090169943749474 -9.510565162951535 10
    endloop
  endfacet
  facet normal -0.5877852522924729 0.8090169943749476 0
    outer loop
      vertex 6.691306063588582 -7.431448254773942 -10
      vertex 5 -8.660254037844386 10
      vertex 6.691306063588582 -7.431448254773942 10
    endloop
  endfacet
  facet normal -0.743144825477394 0.6691306063588583 0
    outer loop
      vertex 6.691306063588582 -7.431448254773942 10
      vertex 8.090169943749475 -5.877852522924732 10
      vertex 8.090169943749475 -5.877852522924732 -10
    endloop
  endfacet
  facet normal -0.8660254037844389 0.49999999999999967 0
    outer loop
      vertex 9.135454576426008 -4.067366430758002 -10
      vertex 8.090169943749475 -5.877852522924732 10
      vertex 9.135454576426008 -4.067366430758002 10
    endloop
  endfacet
  facet normal -0.9510565162951534 0.30901699437494784 0
    outer loop
      vertex 9.135454576426008 -4.067366430758002 10
      vertex 9.781476007338057 -2.0791169081775935 10
      vertex 9.781476007338057 -2.0791169081775935 -10
    endloop
  endfacet
  facet normal -0.9945218953682734 0.10452846326765323 0
    outer loop
      vertex 10 0 -10
      vertex 9.781476007338057 -2.0791169081775935 10
      vertex 10 0 10
    endloop
  endfacet
  facet normal 0 -1 0
    outer loop
      vertex -1.0452846326765348 9.945218953682733 -10
      vertex 1.0452846326765348 9.945218953682733 -10
      vertex 1.0452846326765348 9.945218953682733 10
    endloop
  endfacet
  facet normal -0.20791169081775984 -0.9781476007338056 0
    outer loop
      vertex 3.090169943749474 9.510565162951535 -10
      vertex 3.090169943749474 9.510565162951535 10
      vertex 1.0452846326765348 9.945218953682733 -10
    endloop
  endfacet
  facet normal -0.40673664307580015 -0.913545457642601 0
    outer loop
      vertex 5 8.660254037844386 10
      vertex 3.090169943749474 9.510565162951535 -10
      vertex 5 8.660254037844386 -10
    endloop
  endfacet
  facet normal -0.5877852522924729 -0.8090169943749476 0
    outer loop
      vertex 6.691306063588582 7.431448254773942 -10
      vertex 6.691306063588582 7.431448254773942 10
      vertex 5 8.660254037844386 -10
    endloop
  endfacet
  facet normal -0.9945218953682734 -0.10452846326765323 0
    outer loop
      vertex 10 0 -10
      vertex 10 0 10
      vertex 9.781476007338057 2.0791169081775935 -10
    endloop
  endfacet
  facet normal -0.9510565162951534 -0.30901699437494784 0
    outer loop
      vertex 9.135454576426008 4.067366430758002 -10
      vertex 9.781476007338057 2.0791169081775935 -10
      vertex 9.781476007338057 2.0791169081775935 10
    endloop
  endfacet
  facet normal -0.8660254037844389 -0.49999999999999967 0
    outer loop
      vertex 8.090169943749475 5.877852522924732 -10
      vertex 9.135454576426008 4.067366430758002 -10
      vertex 9.135454576426008 4.067366430758002 10
    endloop
  endfacet
  facet normal -0.743144825477394 -0.6691306063588583 0
    outer loop
      vertex 6.691306063588582 7.431448254773942 -10
      vertex 8.090169943749475 5.877852522924732 -10
      vertex 8.090169943749475 5.877852522924732 10
    endloop
  endfacet
  facet normal -0.743144825477394 -0.6691306063588583 0
    outer loop
      vertex 8.090169943749475 5.877852522924732 10
      vertex 6.691306063588582 7.431448254773942 10
      vertex 6.691306063588582 7.431448254773942 -10
    endloop
  endfacet
  facet normal -0.20791169081775984 -0.9781476007338056 0
    outer loop
      vertex 1.0452846326765348 9.945218953682733 -10
      vertex 3.090169943749474 9.510565162951535 10
      vertex 1.0452846326765348 9.945218953682733 10
    endloop
  endfacet
  facet normal -0.40673664307580015 -0.913545457642601 0
    outer loop
      vertex 3.090169943749474 9.510565162951535 -10
      vertex 5 8.660254037844386 10
      vertex 3.090169943749474 9.510565162951535 10
    endloop
  endfacet
  facet normal -0.5877852522924729 -0.8090169943749476 0
    outer loop
      vertex 5 8.660254037844386 10
      vertex 5 8.660254037844386 -10
      vertex 6.691306063588582 7.431448254773942 10
    endloop
  endfacet
  facet normal -0.9510565162951534 -0.30901699437494784 0
    outer loop
      vertex 9.135454576426008 4.067366430758002 -10
      vertex 9.781476007338057 2.0791169081775935 10
      vertex 9.135454576426008 4.067366430758002 10
    endloop
  endfacet
  facet normal -0.9945218953682734 -0.10452846326765323 0
    outer loop
      vertex 9.781476007338057 2.0791169081775935 -10
      vertex 10 0 10
      vertex 9.781476007338057 2.0791169081775935 10
    endloop
  endfacet
  facet normal -0.8660254037844389 -0.49999999999999967 0
    outer loop
      vertex 9.135454576426008 4.067366430758002 10
      vertex 8.090169943749475 5.877852522924732 10
      vertex 8.090169943749475 5.877852522924732 -10
    endloop
  endfacet
endsolid PythonSCAD_Model
