solid PythonSCAD_Model
  facet normal 0 0 -1
    outer loop
      vertex -30 2 -10
      vertex -26 12 -10
      vertex -24 2 -10
    endloop
  endfacet
  facet normal -1 0 0
    outer loop
      vertex -30 27 -10
      vertex -30 2 -10
      vertex -30 2 10
    endloop
  endfacet
  facet normal 0 0 -1
    outer loop
      vertex -30 27 -10
      vertex -26 12 -10
      vertex -30 2 -10
    endloop
  endfacet
  facet normal 0 0 -1
    outer loop
      vertex -30 27 -10
      vertex -14 12 -10
      vertex -26 12 -10
    endloop
  endfacet
  facet normal 0 0 -1
    outer loop
      vertex -30 27 -10
      vertex -6 12 -10
      vertex -14 12 -10
    endloop
  endfacet
  facet normal 0 0 -1
    outer loop
      vertex -16 2 -10
      vertex -14 12 -10
      vertex -4 2 -10
    endloop
  endfacet
  facet normal 0 0 -1
    outer loop
      vertex -4 2 -10
      vertex -14 12 -10
      vertex -6 12 -10
    endloop
  endfacet
  facet normal 0 0 -1
    outer loop
      vertex -30 27 -10
      vertex 30 27 -10
      vertex -6 12 -10
    endloop
  endfacet
  facet normal 0 1 0
    outer loop
      vertex -30 27 -10
      vertex -30 27 10
      vertex 30 27 -10
    endloop
  endfacet
  facet normal 0 0 1
    outer loop
      vertex -30 2 10
      vertex -24 2 10
      vertex -26 12 10
    endloop
  endfacet
  facet normal -1 0 0
    outer loop
      vertex -30 27 -10
      vertex -30 2 10
      vertex -30 27 10
    endloop
  endfacet
  facet normal 0 0 1
    outer loop
      vertex -30 27 10
      vertex -30 2 10
      vertex -26 12 10
    endloop
  endfacet
  facet normal 0 0 1
    outer loop
      vertex -30 27 10
      vertex -26 12 10
      vertex -14 12 10
    endloop
  endfacet
  facet normal 0 0 1
    outer loop
      vertex -30 27 10
      vertex -14 12 10
      vertex -6 12 10
    endloop
  endfacet
  facet normal 0 0 1
    outer loop
      vertex -6 12 10
      vertex -16 2 10
      vertex -4 2 10
    endloop
  endfacet
  facet normal 0 0 1
    outer loop
      vertex -6 12 10
      vertex -14 12 10
      vertex -16 2 10
    endloop
  endfacet
  facet normal 0 0 1
    outer loop
      vertex -30 27 10
      vertex -6 12 10
      vertex 6 12 10
    endloop
  endfacet
  facet normal 0 0 -1
    outer loop
      vertex 6 12 -10
      vertex 16 2 -10
      vertex 4 2 -10
    endloop
  endfacet
  facet normal 0 0 -1
    outer loop
      vertex 6 12 -10
      vertex 14 12 -10
      vertex 16 2 -10
    endloop
  endfacet
  facet normal 0 0 -1
    outer loop
      vertex 30 27 -10
      vertex 6 12 -10
      vertex -6 12 -10
    endloop
  endfacet
  facet normal 0 0 -1
    outer loop
      vertex 26 12 -10
      vertex 30 2 -10
      vertex 24 2 -10
    endloop
  endfacet
  facet normal 0 0 -1
    outer loop
      vertex 30 27 -10
      vertex 14 12 -10
      vertex 6 12 -10
    endloop
  endfacet
  facet normal 0 0 -1
    outer loop
      vertex 30 27 -10
      vertex 26 12 -10
      vertex 14 12 -10
    endloop
  endfacet
  facet normal 0 0 -1
    outer loop
      vertex 30 27 -10
      vertex 30 2 -10
      vertex 26 12 -10
    endloop
  endfacet
  facet normal 1 0 0
    outer loop
      vertex 30 27 -10
      vertex 30 27 10
      vertex 30 2 -10
    endloop
  endfacet
  facet normal 0 0 1
    outer loop
      vertex 4 2 10
      vertex 16 2 10
      vertex 14 12 10
    endloop
  endfacet
  facet normal 0 0 1
    outer loop
      vertex 4 2 10
      vertex 14 12 10
      vertex 6 12 10
    endloop
  endfacet
  facet normal 0 1 0
    outer loop
      vertex -30 27 10
      vertex 30 27 10
      vertex 30 27 -10
    endloop
  endfacet
  facet normal 0 0 1
    outer loop
      vertex -30 27 10
      vertex 6 12 10
      vertex 30 27 10
    endloop
  endfacet
  facet normal 1 0 0
    outer loop
      vertex 30 27 10
      vertex 30 2 10
      vertex 30 2 -10
    endloop
  endfacet
  facet normal 0 0 1
    outer loop
      vertex 30 2 10
      vertex 26 12 10
      vertex 24 2 10
    endloop
  endfacet
  facet normal 0 0 1
    outer loop
      vertex 30 27 10
      vertex 6 12 10
      vertex 14 12 10
    endloop
  endfacet
  facet normal 0 0 1
    outer loop
      vertex 30 27 10
      vertex 14 12 10
      vertex 26 12 10
    endloop
  endfacet
  facet normal 0 0 1
    outer loop
      vertex 30 27 10
      vertex 26 12 10
      vertex 30 2 10
    endloop
  endfacet
  facet normal 0 -1 0
    outer loop
      vertex -30 2 10
      vertex -30 2 -10
      vertex -24 2 -10
    endloop
  endfacet
  facet normal 0.9805806756909201 0.19611613513818404 0
    outer loop
      vertex -24 2 10
      vertex -24 2 -10
      vertex -26 12 -10
    endloop
  endfacet
  facet normal 0 -1 0
    outer loop
      vertex -26 12 10
      vertex -26 12 -10
      vertex -14 12 -10
    endloop
  endfacet
  facet normal 0 -1 0
    outer loop
      vertex -16 2 -10
      vertex -4 2 -10
      vertex -16 2 10
    endloop
  endfacet
  facet normal -0.9805806756909201 0.19611613513818404 0
    outer loop
      vertex -14 12 10
      vertex -14 12 -10
      vertex -16 2 -10
    endloop
  endfacet
  facet normal 0.9805806756909201 0.19611613513818404 0
    outer loop
      vertex -4 2 -10
      vertex -6 12 -10
      vertex -4 2 10
    endloop
  endfacet
  facet normal 0 -1 0
    outer loop
      vertex -6 12 -10
      vertex 6 12 -10
      vertex -6 12 10
    endloop
  endfacet
  facet normal 0 -1 0
    outer loop
      vertex -30 2 10
      vertex -24 2 -10
      vertex -24 2 10
    endloop
  endfacet
  facet normal 0.9805806756909201 0.19611613513818404 0
    outer loop
      vertex -24 2 10
      vertex -26 12 -10
      vertex -26 12 10
    endloop
  endfacet
  facet normal -0.9805806756909201 0.19611613513818404 0
    outer loop
      vertex -14 12 10
      vertex -16 2 -10
      vertex -16 2 10
    endloop
  endfacet
  facet normal 0 -1 0
    outer loop
      vertex -26 12 10
      vertex -14 12 -10
      vertex -14 12 10
    endloop
  endfacet
  facet normal 0 -1 0
    outer loop
      vertex -16 2 10
      vertex -4 2 -10
      vertex -4 2 10
    endloop
  endfacet
  facet normal 0.9805806756909201 0.19611613513818404 0
    outer loop
      vertex -6 12 10
      vertex -4 2 10
      vertex -6 12 -10
    endloop
  endfacet
  facet normal -0.9805806756909201 0.19611613513818404 0
    outer loop
      vertex 6 12 -10
      vertex 4 2 -10
      vertex 6 12 10
    endloop
  endfacet
  facet normal 0 -1 0
    outer loop
      vertex 4 2 10
      vertex 4 2 -10
      vertex 16 2 -10
    endloop
  endfacet
  facet normal 0.9805806756909201 0.19611613513818404 0
    outer loop
      vertex 14 12 -10
      vertex 16 2 10
      vertex 16 2 -10
    endloop
  endfacet
  facet normal 0 -1 0
    outer loop
      vertex 26 12 -10
      vertex 14 12 10
      vertex 14 12 -10
    endloop
  endfacet
  facet normal 0 -1 0
    outer loop
      vertex 30 2 -10
      vertex 24 2 10
      vertex 24 2 -10
    endloop
  endfacet
  facet normal -0.9805806756909201 0.19611613513818404 0
    outer loop
      vertex 24 2 -10
      vertex 26 12 10
      vertex 26 12 -10
    endloop
  endfacet
  facet normal -0.9805806756909201 0.19611613513818404 0
    outer loop
      vertex 4 2 10
      vertex 6 12 10
      vertex 4 2 -10
    endloop
  endfacet
  facet normal 0 -1 0
    outer loop
      vertex 6 12 10
      vertex -6 12 10
      vertex 6 12 -10
    endloop
  endfacet
  facet normal 0 -1 0
    outer loop
      vertex 16 2 10
      vertex 4 2 10
      vertex 16 2 -10
    endloop
  endfacet
  facet normal 0.9805806756909201 0.19611613513818404 0
    outer loop
      vertex 14 12 -10
      vertex 14 12 10
      vertex 16 2 10
    endloop
  endfacet
  facet normal 0 -1 0
    outer loop
      vertex 26 12 -10
      vertex 26 12 10
      vertex 14 12 10
    endloop
  endfacet
  facet normal -0.9805806756909201 0.19611613513818404 0
    outer loop
      vertex 24 2 -10
      vertex 24 2 10
      vertex 26 12 10
    endloop
  endfacet
  facet normal 0 -1 0
    outer loop
      vertex 30 2 10
      vertex 24 2 10
      vertex 30 2 -10
    endloop
  endfacet
  facet normal 0 0 -1
    outer loop
      vertex -30 -27 -10
      vertex -30 -12 -10
      vertex -24 -12 -10
    endloop
  endfacet
  facet normal 0 0 -1
    outer loop
      vertex -30 -27 -10
      vertex -24 -12 -10
      vertex -16 -12 -10
    endloop
  endfacet
  facet normal 0 0 -1
    outer loop
      vertex -30 -27 -10
      vertex -16 -12 -10
      vertex -4 -12 -10
    endloop
  endfacet
  facet normal -1 0 0
    outer loop
      vertex -30 -27 -10
      vertex -30 -27 10
      vertex -30 -12 -10
    endloop
  endfacet
  facet normal 0 0 -1
    outer loop
      vertex -24 -12 -10
      vertex -14 -2 -10
      vertex -16 -12 -10
    endloop
  endfacet
  facet normal 0 0 -1
    outer loop
      vertex -24 -12 -10
      vertex -26 -2 -10
      vertex -14 -2 -10
    endloop
  endfacet
  facet normal 0 0 -1
    outer loop
      vertex -30 -27 -10
      vertex -4 -12 -10
      vertex 4 -12 -10
    endloop
  endfacet
  facet normal 0 0 -1
    outer loop
      vertex -6 -2 -10
      vertex 4 -12 -10
      vertex -4 -12 -10
    endloop
  endfacet
  facet normal -1 0 0
    outer loop
      vertex -30 -27 10
      vertex -30 -12 10
      vertex -30 -12 -10
    endloop
  endfacet
  facet normal 0 0 1
    outer loop
      vertex -30 -27 10
      vertex -24 -12 10
      vertex -30 -12 10
    endloop
  endfacet
  facet normal 0 0 1
    outer loop
      vertex -30 -27 10
      vertex -16 -12 10
      vertex -24 -12 10
    endloop
  endfacet
  facet normal 0 0 1
    outer loop
      vertex -30 -27 10
      vertex -4 -12 10
      vertex -16 -12 10
    endloop
  endfacet
  facet normal 0 0 1
    outer loop
      vertex -24 -12 10
      vertex -16 -12 10
      vertex -26 -2 10
    endloop
  endfacet
  facet normal 0 0 1
    outer loop
      vertex -26 -2 10
      vertex -16 -12 10
      vertex -14 -2 10
    endloop
  endfacet
  facet normal 0 -1 0
    outer loop
      vertex -30 -27 -10
      vertex 30 -27 10
      vertex -30 -27 10
    endloop
  endfacet
  facet normal 0 0 1
    outer loop
      vertex -30 -27 10
      vertex 30 -27 10
      vertex -4 -12 10
    endloop
  endfacet
  facet normal 0 0 1
    outer loop
      vertex -4 -12 10
      vertex 6 -2 10
      vertex -6 -2 10
    endloop
  endfacet
  facet normal 0 0 -1
    outer loop
      vertex -30 -27 -10
      vertex 4 -12 -10
      vertex 30 -27 -10
    endloop
  endfacet
  facet normal 0 -1 0
    outer loop
      vertex -30 -27 -10
      vertex 30 -27 -10
      vertex 30 -27 10
    endloop
  endfacet
  facet normal 0 0 -1
    outer loop
      vertex 4 -12 -10
      vertex -6 -2 -10
      vertex 6 -2 -10
    endloop
  endfacet
  facet normal 0 0 -1
    outer loop
      vertex 30 -27 -10
      vertex 4 -12 -10
      vertex 16 -12 -10
    endloop
  endfacet
  facet normal 0 0 -1
    outer loop
      vertex 30 -27 -10
      vertex 16 -12 -10
      vertex 24 -12 -10
    endloop
  endfacet
  facet normal 0 0 -1
    outer loop
      vertex 30 -27 -10
      vertex 24 -12 -10
      vertex 30 -12 -10
    endloop
  endfacet
  facet normal 1 0 0
    outer loop
      vertex 30 -27 -10
      vertex 30 -12 -10
      vertex 30 -12 10
    endloop
  endfacet
  facet normal 0 0 -1
    outer loop
      vertex 16 -12 -10
      vertex 26 -2 -10
      vertex 24 -12 -10
    endloop
  endfacet
  facet normal 0 0 -1
    outer loop
      vertex 16 -12 -10
      vertex 14 -2 -10
      vertex 26 -2 -10
    endloop
  endfacet
  facet normal 0 0 1
    outer loop
      vertex 30 -27 10
      vertex 4 -12 10
      vertex -4 -12 10
    endloop
  endfacet
  facet normal 0 0 1
    outer loop
      vertex 6 -2 10
      vertex -4 -12 10
      vertex 4 -12 10
    endloop
  endfacet
  facet normal 1 0 0
    outer loop
      vertex 30 -27 -10
      vertex 30 -12 10
      vertex 30 -27 10
    endloop
  endfacet
  facet normal 0 0 1
    outer loop
      vertex 30 -27 10
      vertex 16 -12 10
      vertex 4 -12 10
    endloop
  endfacet
  facet normal 0 0 1
    outer loop
      vertex 30 -27 10
      vertex 24 -12 10
      vertex 16 -12 10
    endloop
  endfacet
  facet normal 0 0 1
    outer loop
      vertex 30 -27 10
      vertex 30 -12 10
      vertex 24 -12 10
    endloop
  endfacet
  facet normal 0 0 1
    outer loop
      vertex 16 -12 10
      vertex 24 -12 10
      vertex 14 -2 10
    endloop
  endfacet
  facet normal 0 0 1
    outer loop
      vertex 14 -2 10
      vertex 24 -12 10
      vertex 26 -2 10
    endloop
  endfacet
  facet normal 0 1 0
    outer loop
      vertex -24 -12 10
      vertex -24 -12 -10
      vertex -30 -12 -10
    endloop
  endfacet
  facet normal -0.9805806756909201 -0.19611613513818404 0
    outer loop
      vertex -26 -2 10
      vertex -26 -2 -10
      vertex -24 -12 -10
    endloop
  endfacet
  facet normal 0.9805806756909201 -0.19611613513818404 0
    outer loop
      vertex -16 -12 10
      vertex -16 -12 -10
      vertex -14 -2 -10
    endloop
  endfacet
  facet normal 0 1 0
    outer loop
      vertex -14 -2 10
      vertex -14 -2 -10
      vertex -26 -2 -10
    endloop
  endfacet
  facet normal 0 1 0
    outer loop
      vertex -4 -12 -10
      vertex -16 -12 -10
      vertex -4 -12 10
    endloop
  endfacet
  facet normal -0.9805806756909201 -0.19611613513818404 0
    outer loop
      vertex -6 -2 -10
      vertex -4 -12 -10
      vertex -6 -2 10
    endloop
  endfacet
  facet normal 0 1 0
    outer loop
      vertex -30 -12 10
      vertex -24 -12 10
      vertex -30 -12 -10
    endloop
  endfacet
  facet normal -0.9805806756909201 -0.19611613513818404 0
    outer loop
      vertex -26 -2 10
      vertex -24 -12 -10
      vertex -24 -12 10
    endloop
  endfacet
  facet normal 0 1 0
    outer loop
      vertex -14 -2 10
      vertex -26 -2 -10
      vertex -26 -2 10
    endloop
  endfacet
  facet normal 0 1 0
    outer loop
      vertex -4 -12 10
      vertex -16 -12 -10
      vertex -16 -12 10
    endloop
  endfacet
  facet normal 0.9805806756909201 -0.19611613513818404 0
    outer loop
      vertex -16 -12 10
      vertex -14 -2 -10
      vertex -14 -2 10
    endloop
  endfacet
  facet normal -0.9805806756909201 -0.19611613513818404 0
    outer loop
      vertex -4 -12 10
      vertex -6 -2 10
      vertex -4 -12 -10
    endloop
  endfacet
  facet normal 0 1 0
    outer loop
      vertex -6 -2 10
      vertex 6 -2 10
      vertex -6 -2 -10
    endloop
  endfacet
  facet normal 0.9805806756909201 -0.19611613513818404 0
    outer loop
      vertex 4 -12 -10
      vertex 6 -2 -10
      vertex 4 -12 10
    endloop
  endfacet
  facet normal 0 1 0
    outer loop
      vertex -6 -2 -10
      vertex 6 -2 10
      vertex 6 -2 -10
    endloop
  endfacet
  facet normal 0 1 0
    outer loop
      vertex 4 -12 -10
      vertex 16 -12 10
      vertex 16 -12 -10
    endloop
  endfacet
  facet normal -0.9805806756909201 -0.19611613513818404 0
    outer loop
      vertex 16 -12 -10
      vertex 14 -2 10
      vertex 14 -2 -10
    endloop
  endfacet
  facet normal 0 1 0
    outer loop
      vertex 14 -2 -10
      vertex 26 -2 10
      vertex 26 -2 -10
    endloop
  endfacet
  facet normal 0.9805806756909201 -0.19611613513818404 0
    outer loop
      vertex 26 -2 -10
      vertex 24 -12 10
      vertex 24 -12 -10
    endloop
  endfacet
  facet normal 0 1 0
    outer loop
      vertex 30 -12 -10
      vertex 24 -12 -10
      vertex 30 -12 10
    endloop
  endfacet
  facet normal 0.9805806756909201 -0.19611613513818404 0
    outer loop
      vertex 6 -2 10
      vertex 4 -12 10
      vertex 6 -2 -10
    endloop
  endfacet
  facet normal 0 1 0
    outer loop
      vertex 4 -12 10
      vertex 16 -12 10
      vertex 4 -12 -10
    endloop
  endfacet
  facet normal -0.9805806756909201 -0.19611613513818404 0
    outer loop
      vertex 16 -12 -10
      vertex 16 -12 10
      vertex 14 -2 10
    endloop
  endfacet
  facet normal 0 1 0
    outer loop
      vertex 14 -2 -10
      vertex 14 -2 10
      vertex 26 -2 10
    endloop
  endfacet
  facet normal 0 1 0
    outer loop
      vertex 24 -12 -10
      vertex 24 -12 10
      vertex 30 -12 10
    endloop
  endfacet
  facet normal 0.9805806756909201 -0.19611613513818404 0
    outer loop
      vertex 26 -2 -10
      vertex 26 -2 10
      vertex 24 -12 10
    endloop
  endfacet
endsolid PythonSCAD_Model
