solid PythonSCAD_Model
  facet normal 0 0 -1
    outer loop
      vertex -50 20 -8
      vertex -12.5 0 -8
      vertex -50 0 -8
    endloop
  endfacet
  facet normal -1 0 0
    outer loop
      vertex -50 20 -8
      vertex -50 0 -8
      vertex -50 0 8
    endloop
  endfacet
  facet normal 0 0 -1
    outer loop
      vertex -12.5 0 -8
      vertex -4.704227164387703 8.323461949825287 -8
      vertex -8.447083920240402 1.1335010081529617 -8
    endloop
  endfacet
  facet normal 0 0 -1
    outer loop
      vertex -8.447083920240402 1.1335010081529617 -8
      vertex -4.704227164387703 8.323461949825287 -8
      vertex -5.5702278688549995 4.205088958144188 -8
    endloop
  endfacet
  facet normal 0 0 -1
    outer loop
      vertex -4.704227164387703 8.323461949825287 -8
      vertex -12.5 0 -8
      vertex -6.100374653935432 12.293565906584263 -8
    endloop
  endfacet
  facet normal 0 0 -1
    outer loop
      vertex -6.100374653935432 12.293565906584263 -8
      vertex -12.5 0 -8
      vertex -6.399625346064568 12.706434093415737 -8
    endloop
  endfacet
  facet normal 0 0 1
    outer loop
      vertex -50 20 8
      vertex -50 0 8
      vertex -12.5 0 8
    endloop
  endfacet
  facet normal 0 0 1
    outer loop
      vertex -50 20 8
      vertex -12.5 0 8
      vertex -8.447083920240402 1.1335010081529617 8
    endloop
  endfacet
  facet normal 0 0 1
    outer loop
      vertex -50 20 8
      vertex -8.447083920240402 1.1335010081529617 8
      vertex -5.5702278688549995 4.205088958144188 8
    endloop
  endfacet
  facet normal 0 1 0
    outer loop
      vertex -50 20 -8
      vertex -50 20 8
      vertex -7.267489564742173 20 -8
    endloop
  endfacet
  facet normal 0 0 -1
    outer loop
      vertex -50 20 -8
      vertex -6.399625346064568 12.706434093415737 -8
      vertex -12.5 0 -8
    endloop
  endfacet
  facet normal 0 0 -1
    outer loop
      vertex -50 20 -8
      vertex -7.750515751540661 16.20532799512148 -8
      vertex -6.399625346064568 12.706434093415737 -8
    endloop
  endfacet
  facet normal 0 0 -1
    outer loop
      vertex -50 20 -8
      vertex -7.315095141530037 19.930589370429516 -8
      vertex -7.750515751540661 16.20532799512148 -8
    endloop
  endfacet
  facet normal 0 0 -1
    outer loop
      vertex -50 20 -8
      vertex -7.267489564742173 20 -8
      vertex -7.315095141530037 19.930589370429516 -8
    endloop
  endfacet
  facet normal -1 0 0
    outer loop
      vertex -50 20 -8
      vertex -50 0 8
      vertex -50 20 8
    endloop
  endfacet
  facet normal 0 0 1
    outer loop
      vertex -50 20 8
      vertex -5.5702278688549995 4.205088958144188 8
      vertex -4.704227164387703 8.323461949825287 8
    endloop
  endfacet
  facet normal 0 0 1
    outer loop
      vertex -50 20 8
      vertex -4.704227164387703 8.323461949825287 8
      vertex -6.100374653935432 12.293565906584263 8
    endloop
  endfacet
  facet normal 0 1 0
    outer loop
      vertex -50 20 8
      vertex -7.267489564742173 20 8
      vertex -7.267489564742173 20 -8
    endloop
  endfacet
  facet normal 0 0 1
    outer loop
      vertex -50 20 8
      vertex -6.100374653935432 12.293565906584263 8
      vertex -6.399625346064568 12.706434093415737 8
    endloop
  endfacet
  facet normal 0 0 1
    outer loop
      vertex -50 20 8
      vertex -6.399625346064568 12.706434093415737 8
      vertex -7.750515751540661 16.20532799512148 8
    endloop
  endfacet
  facet normal 0 0 1
    outer loop
      vertex -50 20 8
      vertex -7.750515751540661 16.20532799512148 8
      vertex -7.315095141530037 19.930589370429516 8
    endloop
  endfacet
  facet normal 0 0 1
    outer loop
      vertex -50 20 8
      vertex -7.315095141530037 19.930589370429516 8
      vertex -7.267489564742173 20 8
    endloop
  endfacet
  facet normal 0 0 -1
    outer loop
      vertex 50 20 -8
      vertex 12.5 0 -8
      vertex 8.447083920240402 1.1335010081529617 -8
    endloop
  endfacet
  facet normal 0 0 -1
    outer loop
      vertex 50 20 -8
      vertex 8.447083920240402 1.1335010081529617 -8
      vertex 5.5702278688549995 4.205088958144188 -8
    endloop
  endfacet
  facet normal 0 0 -1
    outer loop
      vertex 50 20 -8
      vertex 50 0 -8
      vertex 12.5 0 -8
    endloop
  endfacet
  facet normal 0 0 1
    outer loop
      vertex 8.447083920240402 1.1335010081529617 8
      vertex 4.704227164387703 8.323461949825287 8
      vertex 5.5702278688549995 4.205088958144188 8
    endloop
  endfacet
  facet normal 0 0 1
    outer loop
      vertex 4.704227164387703 8.323461949825287 8
      vertex 8.447083920240402 1.1335010081529617 8
      vertex 12.5 0 8
    endloop
  endfacet
  facet normal 0 0 1
    outer loop
      vertex 4.704227164387703 8.323461949825287 8
      vertex 12.5 0 8
      vertex 6.100374653935432 12.293565906584263 8
    endloop
  endfacet
  facet normal 0 0 1
    outer loop
      vertex 6.100374653935432 12.293565906584263 8
      vertex 12.5 0 8
      vertex 6.399625346064568 12.706434093415737 8
    endloop
  endfacet
  facet normal 1 0 0
    outer loop
      vertex 50 20 8
      vertex 50 0 8
      vertex 50 0 -8
    endloop
  endfacet
  facet normal 0 0 1
    outer loop
      vertex 50 20 8
      vertex 12.5 0 8
      vertex 50 0 8
    endloop
  endfacet
  facet normal 0 0 -1
    outer loop
      vertex 50 20 -8
      vertex 5.5702278688549995 4.205088958144188 -8
      vertex 4.704227164387703 8.323461949825287 -8
    endloop
  endfacet
  facet normal 0 0 -1
    outer loop
      vertex 50 20 -8
      vertex 4.704227164387703 8.323461949825287 -8
      vertex 6.100374653935432 12.293565906584263 -8
    endloop
  endfacet
  facet normal 0 0 -1
    outer loop
      vertex 50 20 -8
      vertex 6.100374653935432 12.293565906584263 -8
      vertex 6.399625346064568 12.706434093415737 -8
    endloop
  endfacet
  facet normal 0 0 -1
    outer loop
      vertex 50 20 -8
      vertex 6.399625346064568 12.706434093415737 -8
      vertex 7.750515751540661 16.20532799512148 -8
    endloop
  endfacet
  facet normal 0 0 -1
    outer loop
      vertex 50 20 -8
      vertex 7.750515751540661 16.20532799512148 -8
      vertex 7.315095141530037 19.930589370429516 -8
    endloop
  endfacet
  facet normal 0 0 -1
    outer loop
      vertex 50 20 -8
      vertex 7.315095141530037 19.930589370429516 -8
      vertex 7.267489564742173 20 -8
    endloop
  endfacet
  facet normal 0 1 0
    outer loop
      vertex 50 20 -8
      vertex 7.267489564742173 20 -8
      vertex 7.267489564742173 20 8
    endloop
  endfacet
  facet normal 1 0 0
    outer loop
      vertex 50 20 -8
      vertex 50 20 8
      vertex 50 0 -8
    endloop
  endfacet
  facet normal 0 0 1
    outer loop
      vertex 50 20 8
      vertex 6.399625346064568 12.706434093415737 8
      vertex 12.5 0 8
    endloop
  endfacet
  facet normal 0 0 1
    outer loop
      vertex 50 20 8
      vertex 7.750515751540661 16.20532799512148 8
      vertex 6.399625346064568 12.706434093415737 8
    endloop
  endfacet
  facet normal 0 0 1
    outer loop
      vertex 50 20 8
      vertex 7.315095141530037 19.930589370429516 8
      vertex 7.750515751540661 16.20532799512148 8
    endloop
  endfacet
  facet normal 0 0 1
    outer loop
      vertex 50 20 8
      vertex 7.267489564742173 20 8
      vertex 7.315095141530037 19.930589370429516 8
    endloop
  endfacet
  facet normal 0 1 0
    outer loop
      vertex 50 20 -8
      vertex 7.267489564742173 20 8
      vertex 50 20 8
    endloop
  endfacet
  facet normal 0 -1 0
    outer loop
      vertex -50 0 8
      vertex -50 0 -8
      vertex -12.5 0 -8
    endloop
  endfacet
  facet normal 0.2693400534417093 -0.9630451368508214 0
    outer loop
      vertex -12.5 0 -8
      vertex -8.447083920240402 1.1335010081529617 -8
      vertex -8.447083920240402 1.1335010081529617 8
    endloop
  endfacet
  facet normal 0.729864073245343 -0.6835923014383037 0
    outer loop
      vertex -8.447083920240402 1.1335010081529617 -8
      vertex -5.5702278688549995 4.205088958144188 -8
      vertex -5.5702278688549995 4.205088958144188 8
    endloop
  endfacet
  facet normal 0.9785988654962277 -0.20577721071463675 0
    outer loop
      vertex -5.5702278688549995 4.205088958144188 -8
      vertex -4.704227164387703 8.323461949825287 -8
      vertex -4.704227164387703 8.323461949825287 8
    endloop
  endfacet
  facet normal 0 -1 0
    outer loop
      vertex -50 0 8
      vertex -12.5 0 -8
      vertex -12.5 0 8
    endloop
  endfacet
  facet normal 0.2693400534417093 -0.9630451368508214 0
    outer loop
      vertex -8.447083920240402 1.1335010081529617 8
      vertex -12.5 0 8
      vertex -12.5 0 -8
    endloop
  endfacet
  facet normal 0.729864073245343 -0.6835923014383037 0
    outer loop
      vertex -5.5702278688549995 4.205088958144188 8
      vertex -8.447083920240402 1.1335010081529617 8
      vertex -8.447083920240402 1.1335010081529617 -8
    endloop
  endfacet
  facet normal 0.9785988654962277 -0.20577721071463675 0
    outer loop
      vertex -4.704227164387703 8.323461949825287 8
      vertex -5.5702278688549995 4.205088958144188 8
      vertex -5.5702278688549995 4.205088958144188 -8
    endloop
  endfacet
  facet normal 0.9433675008228809 0.33174954165935466 0
    outer loop
      vertex -6.100374653935432 12.293565906584263 8
      vertex -4.704227164387703 8.323461949825287 8
      vertex -4.704227164387703 8.323461949825287 -8
    endloop
  endfacet
  facet normal 0.9433675008228809 0.33174954165935466 0
    outer loop
      vertex -4.704227164387703 8.323461949825287 -8
      vertex -6.100374653935432 12.293565906584263 -8
      vertex -6.100374653935432 12.293565906584263 8
    endloop
  endfacet
  facet normal 0.8096838221843381 0.5868663460217844 0
    outer loop
      vertex -6.100374653935432 12.293565906584263 -8
      vertex -6.399625346064568 12.706434093415737 -8
      vertex -6.399625346064568 12.706434093415737 8
    endloop
  endfacet
  facet normal 0.9328837046073515 0.3601777251275596 0
    outer loop
      vertex -6.399625346064568 12.706434093415737 -8
      vertex -7.750515751540661 16.20532799512148 -8
      vertex -7.750515751540661 16.20532799512148 8
    endloop
  endfacet
  facet normal 0.9932383576591043 -0.11609291483396023 0
    outer loop
      vertex -7.750515751540661 16.20532799512148 -8
      vertex -7.315095141530037 19.930589370429516 -8
      vertex -7.315095141530037 19.930589370429516 8
    endloop
  endfacet
  facet normal 0.8246750046720258 -0.5656068746657824 0
    outer loop
      vertex -7.267489564742173 20 -8
      vertex -7.315095141530037 19.930589370429516 8
      vertex -7.315095141530037 19.930589370429516 -8
    endloop
  endfacet
  facet normal 0.8096838221843381 0.5868663460217844 0
    outer loop
      vertex -6.399625346064568 12.706434093415737 8
      vertex -6.100374653935432 12.293565906584263 8
      vertex -6.100374653935432 12.293565906584263 -8
    endloop
  endfacet
  facet normal 0.9328837046073515 0.3601777251275596 0
    outer loop
      vertex -7.750515751540661 16.20532799512148 8
      vertex -6.399625346064568 12.706434093415737 8
      vertex -6.399625346064568 12.706434093415737 -8
    endloop
  endfacet
  facet normal 0.9932383576591043 -0.11609291483396023 0
    outer loop
      vertex -7.315095141530037 19.930589370429516 8
      vertex -7.750515751540661 16.20532799512148 8
      vertex -7.750515751540661 16.20532799512148 -8
    endloop
  endfacet
  facet normal 0.8246750046720258 -0.5656068746657824 0
    outer loop
      vertex -7.267489564742173 20 -8
      vertex -7.267489564742173 20 8
      vertex -7.315095141530037 19.930589370429516 8
    endloop
  endfacet
  facet normal -0.2693400534417093 -0.9630451368508214 0
    outer loop
      vertex 8.447083920240402 1.1335010081529617 -8
      vertex 12.5 0 -8
      vertex 12.5 0 8
    endloop
  endfacet
  facet normal -0.729864073245343 -0.6835923014383037 0
    outer loop
      vertex 5.5702278688549995 4.205088958144188 -8
      vertex 8.447083920240402 1.1335010081529617 -8
      vertex 8.447083920240402 1.1335010081529617 8
    endloop
  endfacet
  facet normal -0.9785988654962277 -0.20577721071463675 0
    outer loop
      vertex 4.704227164387703 8.323461949825287 -8
      vertex 5.5702278688549995 4.205088958144188 -8
      vertex 5.5702278688549995 4.205088958144188 8
    endloop
  endfacet
  facet normal -0.9433675008228809 0.33174954165935466 0
    outer loop
      vertex 6.100374653935432 12.293565906584263 -8
      vertex 4.704227164387703 8.323461949825287 -8
      vertex 4.704227164387703 8.323461949825287 8
    endloop
  endfacet
  facet normal 0 -1 0
    outer loop
      vertex 50 0 -8
      vertex 12.5 0 8
      vertex 12.5 0 -8
    endloop
  endfacet
  facet normal -0.2693400534417093 -0.9630451368508214 0
    outer loop
      vertex 12.5 0 8
      vertex 8.447083920240402 1.1335010081529617 8
      vertex 8.447083920240402 1.1335010081529617 -8
    endloop
  endfacet
  facet normal -0.729864073245343 -0.6835923014383037 0
    outer loop
      vertex 8.447083920240402 1.1335010081529617 8
      vertex 5.5702278688549995 4.205088958144188 8
      vertex 5.5702278688549995 4.205088958144188 -8
    endloop
  endfacet
  facet normal -0.9785988654962277 -0.20577721071463675 0
    outer loop
      vertex 5.5702278688549995 4.205088958144188 8
      vertex 4.704227164387703 8.323461949825287 8
      vertex 4.704227164387703 8.323461949825287 -8
    endloop
  endfacet
  facet normal 0 -1 0
    outer loop
      vertex 50 0 8
      vertex 12.5 0 8
      vertex 50 0 -8
    endloop
  endfacet
  facet normal -0.8096838221843381 0.5868663460217844 0
    outer loop
      vertex 6.399625346064568 12.706434093415737 -8
      vertex 6.100374653935432 12.293565906584263 -8
      vertex 6.100374653935432 12.293565906584263 8
    endloop
  endfacet
  facet normal -0.9328837046073515 0.3601777251275596 0
    outer loop
      vertex 7.750515751540661 16.20532799512148 -8
      vertex 6.399625346064568 12.706434093415737 -8
      vertex 6.399625346064568 12.706434093415737 8
    endloop
  endfacet
  facet normal -0.9932383576591043 -0.11609291483396023 0
    outer loop
      vertex 7.315095141530037 19.930589370429516 -8
      vertex 7.750515751540661 16.20532799512148 -8
      vertex 7.750515751540661 16.20532799512148 8
    endloop
  endfacet
  facet normal -0.8246750046720258 -0.5656068746657824 0
    outer loop
      vertex 7.267489564742173 20 -8
      vertex 7.315095141530037 19.930589370429516 -8
      vertex 7.267489564742173 20 8
    endloop
  endfacet
  facet normal -0.9433675008228809 0.33174954165935466 0
    outer loop
      vertex 4.704227164387703 8.323461949825287 8
      vertex 6.100374653935432 12.293565906584263 8
      vertex 6.100374653935432 12.293565906584263 -8
    endloop
  endfacet
  facet normal -0.8096838221843381 0.5868663460217844 0
    outer loop
      vertex 6.100374653935432 12.293565906584263 8
      vertex 6.399625346064568 12.706434093415737 8
      vertex 6.399625346064568 12.706434093415737 -8
    endloop
  endfacet
  facet normal -0.9328837046073515 0.3601777251275596 0
    outer loop
      vertex 6.399625346064568 12.706434093415737 8
      vertex 7.750515751540661 16.20532799512148 8
      vertex 7.750515751540661 16.20532799512148 -8
    endloop
  endfacet
  facet normal -0.9932383576591043 -0.11609291483396023 0
    outer loop
      vertex 7.750515751540661 16.20532799512148 8
      vertex 7.315095141530037 19.930589370429516 8
      vertex 7.315095141530037 19.930589370429516 -8
    endloop
  endfacet
  facet normal -0.8246750046720258 -0.5656068746657824 0
    outer loop
      vertex 7.267489564742173 20 8
      vertex 7.315095141530037 19.930589370429516 -8
      vertex 7.315095141530037 19.930589370429516 8
    endloop
  endfacet
endsolid PythonSCAD_Model
