solid PythonSCAD_Model
  facet normal 0.1292920634012284 -0.9916065562214949 0
    outer loop
      vertex 16.34277004748583 -19.227661602199078 0
      vertex 12.275563336908817 -19.75797026604414 5
      vertex 12.275563336908817 -19.75797026604414 0
    endloop
  endfacet
  facet normal 0.1292920634012284 -0.9916065562214949 0
    outer loop
      vertex 16.34277004748583 -19.227661602199078 0
      vertex 16.34277004748583 -19.227661602199078 5
      vertex 12.275563336908817 -19.75797026604414 5
    endloop
  endfacet
  facet normal 0.4602813694679635 -0.8877730908969341 0
    outer loop
      vertex 18.24264068901539 -18.24264068901539 0
      vertex 16.34277004748583 -19.227661602199078 5
      vertex 16.34277004748583 -19.227661602199078 0
    endloop
  endfacet
  facet normal 0.4602813694679635 -0.8877730908969341 0
    outer loop
      vertex 18.24264068901539 -18.24264068901539 0
      vertex 18.24264068901539 -18.24264068901539 5
      vertex 16.34277004748583 -19.227661602199078 5
    endloop
  endfacet
  facet normal 0.8877730908969341 -0.4602813694679635 0
    outer loop
      vertex 19.227661602199078 -16.34277004748583 0
      vertex 18.24264068901539 -18.24264068901539 5
      vertex 18.24264068901539 -18.24264068901539 0
    endloop
  endfacet
  facet normal 0.8877730908969341 -0.4602813694679635 0
    outer loop
      vertex 19.227661602199078 -16.34277004748583 0
      vertex 19.227661602199078 -16.34277004748583 5
      vertex 18.24264068901539 -18.24264068901539 5
    endloop
  endfacet
  facet normal 0.9916065562214949 -0.1292920634012284 0
    outer loop
      vertex 19.75797026604414 -12.275563336908817 0
      vertex 19.227661602199078 -16.34277004748583 5
      vertex 19.227661602199078 -16.34277004748583 0
    endloop
  endfacet
  facet normal 0.9916065562214949 -0.1292920634012284 0
    outer loop
      vertex 19.75797026604414 -12.275563336908817 0
      vertex 19.75797026604414 -12.275563336908817 5
      vertex 19.227661602199078 -16.34277004748583 5
    endloop
  endfacet
  facet normal 0.9994429690090402 -0.0333729186376439 0
    outer loop
      vertex 19.953143790364265 -6.430560424923897 0
      vertex 19.75797026604414 -12.275563336908817 5
      vertex 19.75797026604414 -12.275563336908817 0
    endloop
  endfacet
  facet normal 0.9994429690090402 -0.0333729186376439 0
    outer loop
      vertex 19.953143790364265 -6.430560424923897 0
      vertex 19.953143790364265 -6.430560424923897 5
      vertex 19.75797026604414 -12.275563336908817 5
    endloop
  endfacet
  facet normal 0.30674623336808077 0.9517913365409957 0
    outer loop
      vertex 0 0 0
      vertex 19.953143790364265 -6.430560424923897 5
      vertex 19.953143790364265 -6.430560424923897 0
    endloop
  endfacet
  facet normal 0.30674623336808077 0.9517913365409957 0
    outer loop
      vertex 0 0 0
      vertex 0 0 5
      vertex 19.953143790364265 -6.430560424923897 5
    endloop
  endfacet
  facet normal 0.30674623336808077 -0.9517913365409957 0
    outer loop
      vertex 19.953143790364265 6.430560424923897 0
      vertex 0 0 5
      vertex 0 0 0
    endloop
  endfacet
  facet normal 0.30674623336808077 -0.9517913365409957 0
    outer loop
      vertex 19.953143790364265 6.430560424923897 0
      vertex 19.953143790364265 6.430560424923897 5
      vertex 0 0 5
    endloop
  endfacet
  facet normal 0.9994429690090402 0.0333729186376439 0
    outer loop
      vertex 19.75797026604414 12.275563336908817 0
      vertex 19.953143790364265 6.430560424923897 5
      vertex 19.953143790364265 6.430560424923897 0
    endloop
  endfacet
  facet normal 0.9994429690090402 0.0333729186376439 0
    outer loop
      vertex 19.75797026604414 12.275563336908817 0
      vertex 19.75797026604414 12.275563336908817 5
      vertex 19.953143790364265 6.430560424923897 5
    endloop
  endfacet
  facet normal 0.9916065562214949 0.1292920634012284 0
    outer loop
      vertex 19.227661602199078 16.34277004748583 0
      vertex 19.75797026604414 12.275563336908817 5
      vertex 19.75797026604414 12.275563336908817 0
    endloop
  endfacet
  facet normal 0.9916065562214949 0.1292920634012284 0
    outer loop
      vertex 19.227661602199078 16.34277004748583 0
      vertex 19.227661602199078 16.34277004748583 5
      vertex 19.75797026604414 12.275563336908817 5
    endloop
  endfacet
  facet normal 0.8877730908969341 0.4602813694679635 0
    outer loop
      vertex 18.24264068901539 18.24264068901539 0
      vertex 19.227661602199078 16.34277004748583 5
      vertex 19.227661602199078 16.34277004748583 0
    endloop
  endfacet
  facet normal 0.8877730908969341 0.4602813694679635 0
    outer loop
      vertex 18.24264068901539 18.24264068901539 0
      vertex 18.24264068901539 18.24264068901539 5
      vertex 19.227661602199078 16.34277004748583 5
    endloop
  endfacet
  facet normal 0.4602813694679635 0.8877730908969341 0
    outer loop
      vertex 16.34277004748583 19.227661602199078 0
      vertex 18.24264068901539 18.24264068901539 5
      vertex 18.24264068901539 18.24264068901539 0
    endloop
  endfacet
  facet normal 0.4602813694679635 0.8877730908969341 0
    outer loop
      vertex 16.34277004748583 19.227661602199078 0
      vertex 16.34277004748583 19.227661602199078 5
      vertex 18.24264068901539 18.24264068901539 5
    endloop
  endfacet
  facet normal 0.1292920634012284 0.9916065562214949 0
    outer loop
      vertex 12.275563336908817 19.75797026604414 0
      vertex 16.34277004748583 19.227661602199078 5
      vertex 16.34277004748583 19.227661602199078 0
    endloop
  endfacet
  facet normal 0.1292920634012284 0.9916065562214949 0
    outer loop
      vertex 12.275563336908817 19.75797026604414 0
      vertex 12.275563336908817 19.75797026604414 5
      vertex 16.34277004748583 19.227661602199078 5
    endloop
  endfacet
  facet normal 0.0333729186376439 0.9994429690090402 0
    outer loop
      vertex 6.430560424923897 19.953143790364265 0
      vertex 12.275563336908817 19.75797026604414 5
      vertex 12.275563336908817 19.75797026604414 0
    endloop
  endfacet
  facet normal 0.0333729186376439 0.9994429690090402 0
    outer loop
      vertex 6.430560424923897 19.953143790364265 0
      vertex 6.430560424923897 19.953143790364265 5
      vertex 12.275563336908817 19.75797026604414 5
    endloop
  endfacet
  facet normal -0.9517913365409957 0.30674623336808077 0
    outer loop
      vertex 0 0 0
      vertex 6.430560424923897 19.953143790364265 5
      vertex 6.430560424923897 19.953143790364265 0
    endloop
  endfacet
  facet normal -0.9517913365409957 0.30674623336808077 0
    outer loop
      vertex 0 0 0
      vertex 0 0 5
      vertex 6.430560424923897 19.953143790364265 5
    endloop
  endfacet
  facet normal 0.9517913365409957 0.30674623336808077 0
    outer loop
      vertex -6.430560424923897 19.953143790364265 0
      vertex 0 0 5
      vertex 0 0 0
    endloop
  endfacet
  facet normal 0.9517913365409957 0.30674623336808077 0
    outer loop
      vertex -6.430560424923897 19.953143790364265 0
      vertex -6.430560424923897 19.953143790364265 5
      vertex 0 0 5
    endloop
  endfacet
  facet normal -0.0333729186376439 0.9994429690090402 0
    outer loop
      vertex -12.275563336908817 19.75797026604414 0
      vertex -6.430560424923897 19.953143790364265 5
      vertex -6.430560424923897 19.953143790364265 0
    endloop
  endfacet
  facet normal -0.0333729186376439 0.9994429690090402 0
    outer loop
      vertex -12.275563336908817 19.75797026604414 0
      vertex -12.275563336908817 19.75797026604414 5
      vertex -6.430560424923897 19.953143790364265 5
    endloop
  endfacet
  facet normal -0.1292920634012284 0.9916065562214949 0
    outer loop
      vertex -16.34277004748583 19.227661602199078 0
      vertex -12.275563336908817 19.75797026604414 5
      vertex -12.275563336908817 19.75797026604414 0
    endloop
  endfacet
  facet normal -0.1292920634012284 0.9916065562214949 0
    outer loop
      vertex -16.34277004748583 19.227661602199078 0
      vertex -16.34277004748583 19.227661602199078 5
      vertex -12.275563336908817 19.75797026604414 5
    endloop
  endfacet
  facet normal -0.4602813694679635 0.8877730908969341 0
    outer loop
      vertex -18.24264068901539 18.24264068901539 0
      vertex -16.34277004748583 19.227661602199078 5
      vertex -16.34277004748583 19.227661602199078 0
    endloop
  endfacet
  facet normal -0.4602813694679635 0.8877730908969341 0
    outer loop
      vertex -18.24264068901539 18.24264068901539 0
      vertex -18.24264068901539 18.24264068901539 5
      vertex -16.34277004748583 19.227661602199078 5
    endloop
  endfacet
  facet normal -0.8877730908969341 0.4602813694679635 0
    outer loop
      vertex -19.227661602199078 16.34277004748583 0
      vertex -18.24264068901539 18.24264068901539 5
      vertex -18.24264068901539 18.24264068901539 0
    endloop
  endfacet
  facet normal -0.8877730908969341 0.4602813694679635 0
    outer loop
      vertex -19.227661602199078 16.34277004748583 0
      vertex -19.227661602199078 16.34277004748583 5
      vertex -18.24264068901539 18.24264068901539 5
    endloop
  endfacet
  facet normal -0.9916065562214949 0.1292920634012284 0
    outer loop
      vertex -19.75797026604414 12.275563336908817 0
      vertex -19.227661602199078 16.34277004748583 5
      vertex -19.227661602199078 16.34277004748583 0
    endloop
  endfacet
  facet normal -0.9916065562214949 0.1292920634012284 0
    outer loop
      vertex -19.75797026604414 12.275563336908817 0
      vertex -19.75797026604414 12.275563336908817 5
      vertex -19.227661602199078 16.34277004748583 5
    endloop
  endfacet
  facet normal -0.9994429690090402 0.0333729186376439 0
    outer loop
      vertex -19.953143790364265 6.430560424923897 0
      vertex -19.75797026604414 12.275563336908817 5
      vertex -19.75797026604414 12.275563336908817 0
    endloop
  endfacet
  facet normal -0.9994429690090402 0.0333729186376439 0
    outer loop
      vertex -19.953143790364265 6.430560424923897 0
      vertex -19.953143790364265 6.430560424923897 5
      vertex -19.75797026604414 12.275563336908817 5
    endloop
  endfacet
  facet normal -0.30674623336808077 -0.9517913365409957 0
    outer loop
      vertex 0 0 0
      vertex -19.953143790364265 6.430560424923897 5
      vertex -19.953143790364265 6.430560424923897 0
    endloop
  endfacet
  facet normal -0.30674623336808077 -0.9517913365409957 0
    outer loop
      vertex 0 0 0
      vertex 0 0 5
      vertex -19.953143790364265 6.430560424923897 5
    endloop
  endfacet
  facet normal -0.30674623336808077 0.9517913365409957 0
    outer loop
      vertex -19.953143790364265 -6.430560424923897 0
      vertex 0 0 5
      vertex 0 0 0
    endloop
  endfacet
  facet normal -0.30674623336808077 0.9517913365409957 0
    outer loop
      vertex -19.953143790364265 -6.430560424923897 0
      vertex -19.953143790364265 -6.430560424923897 5
      vertex 0 0 5
    endloop
  endfacet
  facet normal -0.9994429690090402 -0.0333729186376439 0
    outer loop
      vertex -19.75797026604414 -12.275563336908817 0
      vertex -19.953143790364265 -6.430560424923897 5
      vertex -19.953143790364265 -6.430560424923897 0
    endloop
  endfacet
  facet normal -0.9994429690090402 -0.0333729186376439 0
    outer loop
      vertex -19.75797026604414 -12.275563336908817 0
      vertex -19.75797026604414 -12.275563336908817 5
      vertex -19.953143790364265 -6.430560424923897 5
    endloop
  endfacet
  facet normal -0.9916065562214949 -0.1292920634012284 0
    outer loop
      vertex -19.227661602199078 -16.34277004748583 0
      vertex -19.75797026604414 -12.275563336908817 5
      vertex -19.75797026604414 -12.275563336908817 0
    endloop
  endfacet
  facet normal -0.9916065562214949 -0.1292920634012284 0
    outer loop
      vertex -19.227661602199078 -16.34277004748583 0
      vertex -19.227661602199078 -16.34277004748583 5
      vertex -19.75797026604414 -12.275563336908817 5
    endloop
  endfacet
  facet normal -0.8877730908969341 -0.4602813694679635 0
    outer loop
      vertex -18.24264068901539 -18.24264068901539 0
      vertex -19.227661602199078 -16.34277004748583 5
      vertex -19.227661602199078 -16.34277004748583 0
    endloop
  endfacet
  facet normal -0.8877730908969341 -0.4602813694679635 0
    outer loop
      vertex -18.24264068901539 -18.24264068901539 0
      vertex -18.24264068901539 -18.24264068901539 5
      vertex -19.227661602199078 -16.34277004748583 5
    endloop
  endfacet
  facet normal -0.4602813694679635 -0.8877730908969341 0
    outer loop
      vertex -16.34277004748583 -19.227661602199078 0
      vertex -18.24264068901539 -18.24264068901539 5
      vertex -18.24264068901539 -18.24264068901539 0
    endloop
  endfacet
  facet normal -0.4602813694679635 -0.8877730908969341 0
    outer loop
      vertex -16.34277004748583 -19.227661602199078 0
      vertex -16.34277004748583 -19.227661602199078 5
      vertex -18.24264068901539 -18.24264068901539 5
    endloop
  endfacet
  facet normal -0.1292920634012284 -0.9916065562214949 0
    outer loop
      vertex -12.275563336908817 -19.75797026604414 0
      vertex -16.34277004748583 -19.227661602199078 5
      vertex -16.34277004748583 -19.227661602199078 0
    endloop
  endfacet
  facet normal -0.1292920634012284 -0.9916065562214949 0
    outer loop
      vertex -12.275563336908817 -19.75797026604414 0
      vertex -12.275563336908817 -19.75797026604414 5
      vertex -16.34277004748583 -19.227661602199078 5
    endloop
  endfacet
  facet normal -0.0333729186376439 -0.9994429690090402 0
    outer loop
      vertex -6.430560424923897 -19.953143790364265 0
      vertex -12.275563336908817 -19.75797026604414 5
      vertex -12.275563336908817 -19.75797026604414 0
    endloop
  endfacet
  facet normal -0.0333729186376439 -0.9994429690090402 0
    outer loop
      vertex -6.430560424923897 -19.953143790364265 0
      vertex -6.430560424923897 -19.953143790364265 5
      vertex -12.275563336908817 -19.75797026604414 5
    endloop
  endfacet
  facet normal 0.9517913365409957 -0.30674623336808077 0
    outer loop
      vertex 0 0 0
      vertex -6.430560424923897 -19.953143790364265 5
      vertex -6.430560424923897 -19.953143790364265 0
    endloop
  endfacet
  facet normal 0.9517913365409957 -0.30674623336808077 0
    outer loop
      vertex 0 0 0
      vertex 0 0 5
      vertex -6.430560424923897 -19.953143790364265 5
    endloop
  endfacet
  facet normal -0.9517913365409957 -0.30674623336808077 0
    outer loop
      vertex 6.430560424923897 -19.953143790364265 0
      vertex 0 0 5
      vertex 0 0 0
    endloop
  endfacet
  facet normal -0.9517913365409957 -0.30674623336808077 0
    outer loop
      vertex 6.430560424923897 -19.953143790364265 0
      vertex 6.430560424923897 -19.953143790364265 5
      vertex 0 0 5
    endloop
  endfacet
  facet normal 0.0333729186376439 -0.9994429690090402 0
    outer loop
      vertex 12.275563336908817 -19.75797026604414 0
      vertex 6.430560424923897 -19.953143790364265 5
      vertex 6.430560424923897 -19.953143790364265 0
    endloop
  endfacet
  facet normal 0.0333729186376439 -0.9994429690090402 0
    outer loop
      vertex 12.275563336908817 -19.75797026604414 0
      vertex 12.275563336908817 -19.75797026604414 5
      vertex 6.430560424923897 -19.953143790364265 5
    endloop
  endfacet
  facet normal 0 0 -1
    outer loop
      vertex 16.34277004748583 19.227661602199078 0
      vertex 18.24264068901539 18.24264068901539 0
      vertex 19.227661602199078 16.34277004748583 0
    endloop
  endfacet
  facet normal 0 0 -1
    outer loop
      vertex 16.34277004748583 19.227661602199078 0
      vertex 19.227661602199078 16.34277004748583 0
      vertex 19.75797026604414 12.275563336908817 0
    endloop
  endfacet
  facet normal 0 0 -1
    outer loop
      vertex 12.275563336908817 19.75797026604414 0
      vertex 16.34277004748583 19.227661602199078 0
      vertex 19.75797026604414 12.275563336908817 0
    endloop
  endfacet
  facet normal 0 0 -1
    outer loop
      vertex 12.275563336908817 19.75797026604414 0
      vertex 19.75797026604414 12.275563336908817 0
      vertex 19.953143790364265 6.430560424923897 0
    endloop
  endfacet
  facet normal 0 0 -1
    outer loop
      vertex 6.430560424923897 19.953143790364265 0
      vertex 12.275563336908817 19.75797026604414 0
      vertex 19.953143790364265 6.430560424923897 0
    endloop
  endfacet
  facet normal 0 0 -1
    outer loop
      vertex -19.227661602199078 16.34277004748583 0
      vertex -18.24264068901539 18.24264068901539 0
      vertex -16.34277004748583 19.227661602199078 0
    endloop
  endfacet
  facet normal 0 0 -1
    outer loop
      vertex -19.227661602199078 16.34277004748583 0
      vertex -16.34277004748583 19.227661602199078 0
      vertex -12.275563336908817 19.75797026604414 0
    endloop
  endfacet
  facet normal 0 0 -1
    outer loop
      vertex -19.75797026604414 12.275563336908817 0
      vertex -19.227661602199078 16.34277004748583 0
      vertex -12.275563336908817 19.75797026604414 0
    endloop
  endfacet
  facet normal 0 0 -1
    outer loop
      vertex -19.75797026604414 12.275563336908817 0
      vertex -12.275563336908817 19.75797026604414 0
      vertex -6.430560424923897 19.953143790364265 0
    endloop
  endfacet
  facet normal 0 0 -1
    outer loop
      vertex -19.953143790364265 6.430560424923897 0
      vertex -19.75797026604414 12.275563336908817 0
      vertex -6.430560424923897 19.953143790364265 0
    endloop
  endfacet
  facet normal 0 0 -1
    outer loop
      vertex -16.34277004748583 -19.227661602199078 0
      vertex -18.24264068901539 -18.24264068901539 0
      vertex -19.227661602199078 -16.34277004748583 0
    endloop
  endfacet
  facet normal 0 0 -1
    outer loop
      vertex -16.34277004748583 -19.227661602199078 0
      vertex -19.227661602199078 -16.34277004748583 0
      vertex -19.75797026604414 -12.275563336908817 0
    endloop
  endfacet
  facet normal 0 0 -1
    outer loop
      vertex -12.275563336908817 -19.75797026604414 0
      vertex -16.34277004748583 -19.227661602199078 0
      vertex -19.75797026604414 -12.275563336908817 0
    endloop
  endfacet
  facet normal 0 0 -1
    outer loop
      vertex -12.275563336908817 -19.75797026604414 0
      vertex -19.75797026604414 -12.275563336908817 0
      vertex -19.953143790364265 -6.430560424923897 0
    endloop
  endfacet
  facet normal 0 0 -1
    outer loop
      vertex -6.430560424923897 -19.953143790364265 0
      vertex -12.275563336908817 -19.75797026604414 0
      vertex -19.953143790364265 -6.430560424923897 0
    endloop
  endfacet
  facet normal 0 0 -1
    outer loop
      vertex 19.227661602199078 -16.34277004748583 0
      vertex 18.24264068901539 -18.24264068901539 0
      vertex 16.34277004748583 -19.227661602199078 0
    endloop
  endfacet
  facet normal 0 0 -1
    outer loop
      vertex 19.227661602199078 -16.34277004748583 0
      vertex 16.34277004748583 -19.227661602199078 0
      vertex 12.275563336908817 -19.75797026604414 0
    endloop
  endfacet
  facet normal 0 0 -1
    outer loop
      vertex 19.75797026604414 -12.275563336908817 0
      vertex 19.227661602199078 -16.34277004748583 0
      vertex 12.275563336908817 -19.75797026604414 0
    endloop
  endfacet
  facet normal 0 0 -1
    outer loop
      vertex 19.75797026604414 -12.275563336908817 0
      vertex 12.275563336908817 -19.75797026604414 0
      vertex 6.430560424923897 -19.953143790364265 0
    endloop
  endfacet
  facet normal 0 0 -1
    outer loop
      vertex 19.953143790364265 -6.430560424923897 0
      vertex 19.75797026604414 -12.275563336908817 0
      vertex 6.430560424923897 -19.953143790364265 0
    endloop
  endfacet
  facet normal 0 0 -1
    outer loop
      vertex 6.430560424923897 19.953143790364265 0
      vertex 19.953143790364265 6.430560424923897 0
      vertex 0 0 0
    endloop
  endfacet
  facet normal 0 0 0
    outer loop
      vertex 0 0 0
      vertex 6.430560424923897 19.953143790364265 0
      vertex 0 0 0
    endloop
  endfacet
  facet normal 0 0 0
    outer loop
      vertex 0 0 0
      vertex 0 0 0
      vertex 19.953143790364265 -6.430560424923897 0
    endloop
  endfacet
  facet normal 0 0 -1
    outer loop
      vertex -19.953143790364265 6.430560424923897 0
      vertex -6.430560424923897 19.953143790364265 0
      vertex 0 0 0
    endloop
  endfacet
  facet normal 0 0 0
    outer loop
      vertex 0 0 0
      vertex -19.953143790364265 6.430560424923897 0
      vertex 0 0 0
    endloop
  endfacet
  facet normal 0 0 0
    outer loop
      vertex 0 0 0
      vertex 0 0 0
      vertex 19.953143790364265 -6.430560424923897 0
    endloop
  endfacet
  facet normal 0 0 -1
    outer loop
      vertex -6.430560424923897 -19.953143790364265 0
      vertex -19.953143790364265 -6.430560424923897 0
      vertex 0 0 0
    endloop
  endfacet
  facet normal 0 0 0
    outer loop
      vertex 0 0 0
      vertex -6.430560424923897 -19.953143790364265 0
      vertex 0 0 0
    endloop
  endfacet
  facet normal 0 0 0
    outer loop
      vertex 0 0 0
      vertex 0 0 0
      vertex 19.953143790364265 -6.430560424923897 0
    endloop
  endfacet
  facet normal 0 0 -1
    outer loop
      vertex 6.430560424923897 -19.953143790364265 0
      vertex 0 0 0
      vertex 19.953143790364265 -6.430560424923897 0
    endloop
  endfacet
  facet normal 0 0 1
    outer loop
      vertex 19.227661602199078 16.34277004748583 5
      vertex 18.24264068901539 18.24264068901539 5
      vertex 16.34277004748583 19.227661602199078 5
    endloop
  endfacet
  facet normal 0 0 1
    outer loop
      vertex 19.75797026604414 12.275563336908817 5
      vertex 19.227661602199078 16.34277004748583 5
      vertex 16.34277004748583 19.227661602199078 5
    endloop
  endfacet
  facet normal 0 0 1
    outer loop
      vertex 19.75797026604414 12.275563336908817 5
      vertex 16.34277004748583 19.227661602199078 5
      vertex 12.275563336908817 19.75797026604414 5
    endloop
  endfacet
  facet normal 0 0 1
    outer loop
      vertex 19.953143790364265 6.430560424923897 5
      vertex 19.75797026604414 12.275563336908817 5
      vertex 12.275563336908817 19.75797026604414 5
    endloop
  endfacet
  facet normal 0 0 1
    outer loop
      vertex 19.953143790364265 6.430560424923897 5
      vertex 12.275563336908817 19.75797026604414 5
      vertex 6.430560424923897 19.953143790364265 5
    endloop
  endfacet
  facet normal 0 0 1
    outer loop
      vertex -16.34277004748583 19.227661602199078 5
      vertex -18.24264068901539 18.24264068901539 5
      vertex -19.227661602199078 16.34277004748583 5
    endloop
  endfacet
  facet normal 0 0 1
    outer loop
      vertex -12.275563336908817 19.75797026604414 5
      vertex -16.34277004748583 19.227661602199078 5
      vertex -19.227661602199078 16.34277004748583 5
    endloop
  endfacet
  facet normal 0 0 1
    outer loop
      vertex -12.275563336908817 19.75797026604414 5
      vertex -19.227661602199078 16.34277004748583 5
      vertex -19.75797026604414 12.275563336908817 5
    endloop
  endfacet
  facet normal 0 0 1
    outer loop
      vertex -6.430560424923897 19.953143790364265 5
      vertex -12.275563336908817 19.75797026604414 5
      vertex -19.75797026604414 12.275563336908817 5
    endloop
  endfacet
  facet normal 0 0 1
    outer loop
      vertex -6.430560424923897 19.953143790364265 5
      vertex -19.75797026604414 12.275563336908817 5
      vertex -19.953143790364265 6.430560424923897 5
    endloop
  endfacet
  facet normal 0 0 1
    outer loop
      vertex -19.227661602199078 -16.34277004748583 5
      vertex -18.24264068901539 -18.24264068901539 5
      vertex -16.34277004748583 -19.227661602199078 5
    endloop
  endfacet
  facet normal 0 0 1
    outer loop
      vertex -19.75797026604414 -12.275563336908817 5
      vertex -19.227661602199078 -16.34277004748583 5
      vertex -16.34277004748583 -19.227661602199078 5
    endloop
  endfacet
  facet normal 0 0 1
    outer loop
      vertex -19.75797026604414 -12.275563336908817 5
      vertex -16.34277004748583 -19.227661602199078 5
      vertex -12.275563336908817 -19.75797026604414 5
    endloop
  endfacet
  facet normal 0 0 1
    outer loop
      vertex -19.953143790364265 -6.430560424923897 5
      vertex -19.75797026604414 -12.275563336908817 5
      vertex -12.275563336908817 -19.75797026604414 5
    endloop
  endfacet
  facet normal 0 0 1
    outer loop
      vertex -19.953143790364265 -6.430560424923897 5
      vertex -12.275563336908817 -19.75797026604414 5
      vertex -6.430560424923897 -19.953143790364265 5
    endloop
  endfacet
  facet normal 0 0 1
    outer loop
      vertex 16.34277004748583 -19.227661602199078 5
      vertex 18.24264068901539 -18.24264068901539 5
      vertex 19.227661602199078 -16.34277004748583 5
    endloop
  endfacet
  facet normal 0 0 1
    outer loop
      vertex 12.275563336908817 -19.75797026604414 5
      vertex 16.34277004748583 -19.227661602199078 5
      vertex 19.227661602199078 -16.34277004748583 5
    endloop
  endfacet
  facet normal 0 0 1
    outer loop
      vertex 12.275563336908817 -19.75797026604414 5
      vertex 19.227661602199078 -16.34277004748583 5
      vertex 19.75797026604414 -12.275563336908817 5
    endloop
  endfacet
  facet normal 0 0 1
    outer loop
      vertex 6.430560424923897 -19.953143790364265 5
      vertex 12.275563336908817 -19.75797026604414 5
      vertex 19.75797026604414 -12.275563336908817 5
    endloop
  endfacet
  facet normal 0 0 1
    outer loop
      vertex 6.430560424923897 -19.953143790364265 5
      vertex 19.75797026604414 -12.275563336908817 5
      vertex 19.953143790364265 -6.430560424923897 5
    endloop
  endfacet
  facet normal 0 0 1
    outer loop
      vertex 0 0 5
      vertex 19.953143790364265 6.430560424923897 5
      vertex 6.430560424923897 19.953143790364265 5
    endloop
  endfacet
  facet normal 0 0 0
    outer loop
      vertex 0 0 5
      vertex 6.430560424923897 19.953143790364265 5
      vertex 0 0 5
    endloop
  endfacet
  facet normal 0 0 0
    outer loop
      vertex 19.953143790364265 -6.430560424923897 5
      vertex 0 0 5
      vertex 0 0 5
    endloop
  endfacet
  facet normal 0 0 1
    outer loop
      vertex 0 0 5
      vertex -6.430560424923897 19.953143790364265 5
      vertex -19.953143790364265 6.430560424923897 5
    endloop
  endfacet
  facet normal 0 0 0
    outer loop
      vertex 0 0 5
      vertex -19.953143790364265 6.430560424923897 5
      vertex 0 0 5
    endloop
  endfacet
  facet normal 0 0 0
    outer loop
      vertex 19.953143790364265 -6.430560424923897 5
      vertex 0 0 5
      vertex 0 0 5
    endloop
  endfacet
  facet normal 0 0 1
    outer loop
      vertex 0 0 5
      vertex -19.953143790364265 -6.430560424923897 5
      vertex -6.430560424923897 -19.953143790364265 5
    endloop
  endfacet
  facet normal 0 0 0
    outer loop
      vertex 0 0 5
      vertex -6.430560424923897 -19.953143790364265 5
      vertex 0 0 5
    endloop
  endfacet
  facet normal 0 0 0
    outer loop
      vertex 19.953143790364265 -6.430560424923897 5
      vertex 0 0 5
      vertex 0 0 5
    endloop
  endfacet
  facet normal 0 0 1
    outer loop
      vertex 19.953143790364265 -6.430560424923897 5
      vertex 0 0 5
      vertex 6.430560424923897 -19.953143790364265 5
    endloop
  endfacet
endsolid PythonSCAD_Model
