solid PythonSCAD_Model
  facet normal 0 0 1
    outer loop
      vertex -10 10 0
      vertex 10 -10 0
      vertex 10 10 0
    endloop
  endfacet
  facet normal 0 0 1
    outer loop
      vertex 10 -10 0
      vertex -10 10 0
      vertex -10 -10 0
    endloop
  endfacet
  facet normal 0 0 -1
    outer loop
      vertex 1.4641016151377564 -5.464101615137755 40
      vertex -1.4641016151377564 5.464101615137755 40
      vertex 5.464101615137755 1.4641016151377564 40
    endloop
  endfacet
  facet normal 0 0 -1
    outer loop
      vertex -1.4641016151377564 5.464101615137755 40
      vertex 1.4641016151377564 -5.464101615137755 40
      vertex -5.464101615137755 -1.4641016151377564 40
    endloop
  endfacet
  facet normal 0.07307174866878545 0.8352139091384485 -0.5450488469193906
    outer loop
      vertex -10.562666798184186 -8.86312981460485 1.6666666666666665
      vertex 8.86312981460485 -10.562666798184186 1.6666666666666665
      vertex -10 -10 0
    endloop
  endfacet
  facet normal 0 0.9474635455212856 0.3198637677328189
    outer loop
      vertex 8.86312981460485 -10.562666798184186 1.6666666666666665
      vertex 10 -10 0
      vertex -10 -10 0
    endloop
  endfacet
  facet normal -0.8352139091384485 0.07307174866878545 -0.5450488469193906
    outer loop
      vertex 8.86312981460485 -10.562666798184186 1.6666666666666665
      vertex 10.562666798184186 8.86312981460485 1.6666666666666665
      vertex 10 -10 0
    endloop
  endfacet
  facet normal -0.9474635455212856 0 0.3198637677328189
    outer loop
      vertex 10.562666798184186 8.86312981460485 1.6666666666666665
      vertex 10 10 0
      vertex 10 -10 0
    endloop
  endfacet
  facet normal -0.07307174866878545 -0.8352139091384485 -0.5450488469193906
    outer loop
      vertex 10.562666798184186 8.86312981460485 1.6666666666666665
      vertex -8.86312981460485 10.562666798184186 1.6666666666666665
      vertex 10 10 0
    endloop
  endfacet
  facet normal 0 -0.9474635455212856 0.3198637677328189
    outer loop
      vertex -8.86312981460485 10.562666798184186 1.6666666666666665
      vertex -10 10 0
      vertex 10 10 0
    endloop
  endfacet
  facet normal 0.8352139091384485 -0.07307174866878545 -0.5450488469193906
    outer loop
      vertex -8.86312981460485 10.562666798184186 1.6666666666666665
      vertex -10.562666798184186 -8.86312981460485 1.6666666666666665
      vertex -10 10 0
    endloop
  endfacet
  facet normal 0.9474635455212856 0 0.3198637677328189
    outer loop
      vertex -10.562666798184186 -8.86312981460485 1.6666666666666665
      vertex -10 -10 0
      vertex -10 10 0
    endloop
  endfacet
  facet normal 0.1464182238052411 0.8303790107273812 -0.537617338151528
    outer loop
      vertex -11.005331341451813 -7.7060159657801375 3.333333333333333
      vertex 7.7060159657801375 -11.005331341451813 3.333333333333333
      vertex -10.562666798184186 -8.86312981460485 1.6666666666666665
    endloop
  endfacet
  facet normal 0.08288570447887852 0.947387937344801 0.30916994706245904
    outer loop
      vertex 7.7060159657801375 -11.005331341451813 3.333333333333333
      vertex 8.86312981460485 -10.562666798184186 1.6666666666666665
      vertex -10.562666798184186 -8.86312981460485 1.6666666666666665
    endloop
  endfacet
  facet normal -0.8303790107273812 0.1464182238052411 -0.537617338151528
    outer loop
      vertex 7.7060159657801375 -11.005331341451813 3.333333333333333
      vertex 11.005331341451813 7.7060159657801375 3.333333333333333
      vertex 8.86312981460485 -10.562666798184186 1.6666666666666665
    endloop
  endfacet
  facet normal -0.947387937344801 0.08288570447887852 0.30916994706245904
    outer loop
      vertex 11.005331341451813 7.7060159657801375 3.333333333333333
      vertex 10.562666798184186 8.86312981460485 1.6666666666666665
      vertex 8.86312981460485 -10.562666798184186 1.6666666666666665
    endloop
  endfacet
  facet normal -0.1464182238052411 -0.8303790107273812 -0.537617338151528
    outer loop
      vertex 11.005331341451813 7.7060159657801375 3.333333333333333
      vertex -7.7060159657801375 11.005331341451813 3.333333333333333
      vertex 10.562666798184186 8.86312981460485 1.6666666666666665
    endloop
  endfacet
  facet normal -0.08288570447887852 -0.947387937344801 0.30916994706245904
    outer loop
      vertex -7.7060159657801375 11.005331341451813 3.333333333333333
      vertex -8.86312981460485 10.562666798184186 1.6666666666666665
      vertex 10.562666798184186 8.86312981460485 1.6666666666666665
    endloop
  endfacet
  facet normal 0.8303790107273812 -0.1464182238052411 -0.537617338151528
    outer loop
      vertex -7.7060159657801375 11.005331341451813 3.333333333333333
      vertex -11.005331341451813 -7.7060159657801375 3.333333333333333
      vertex -8.86312981460485 10.562666798184186 1.6666666666666665
    endloop
  endfacet
  facet normal 0.947387937344801 -0.08288570447887852 0.30916994706245904
    outer loop
      vertex -11.005331341451813 -7.7060159657801375 3.333333333333333
      vertex -10.562666798184186 -8.86312981460485 1.6666666666666665
      vertex -8.86312981460485 10.562666798184186 1.6666666666666665
    endloop
  endfacet
  facet normal 0.21946849233191676 0.8190675640432539 -0.5300583990522229
    outer loop
      vertex -11.3288900603722 -6.540737725975565 5
      vertex 6.540737725975565 -11.3288900603722 5
      vertex -11.005331341451813 -7.7060159657801375 3.333333333333333
    endloop
  endfacet
  facet normal 0.16573922807545763 0.9399538709818163 0.2983575517784835
    outer loop
      vertex 6.540737725975565 -11.3288900603722 5
      vertex 7.7060159657801375 -11.005331341451813 3.333333333333333
      vertex -11.005331341451813 -7.7060159657801375 3.333333333333333
    endloop
  endfacet
  facet normal -0.8190675640432539 0.21946849233191676 -0.5300583990522229
    outer loop
      vertex 6.540737725975565 -11.3288900603722 5
      vertex 11.3288900603722 6.540737725975565 5
      vertex 7.7060159657801375 -11.005331341451813 3.333333333333333
    endloop
  endfacet
  facet normal -0.9399538709818163 0.16573922807545763 0.2983575517784835
    outer loop
      vertex 11.3288900603722 6.540737725975565 5
      vertex 11.005331341451813 7.7060159657801375 3.333333333333333
      vertex 7.7060159657801375 -11.005331341451813 3.333333333333333
    endloop
  endfacet
  facet normal -0.21946849233191676 -0.8190675640432539 -0.5300583990522229
    outer loop
      vertex 11.3288900603722 6.540737725975565 5
      vertex -6.540737725975565 11.3288900603722 5
      vertex 11.005331341451813 7.7060159657801375 3.333333333333333
    endloop
  endfacet
  facet normal -0.16573922807545763 -0.9399538709818163 0.2983575517784835
    outer loop
      vertex -6.540737725975565 11.3288900603722 5
      vertex -7.7060159657801375 11.005331341451813 3.333333333333333
      vertex 11.005331341451813 7.7060159657801375 3.333333333333333
    endloop
  endfacet
  facet normal 0.8190675640432539 -0.21946849233191676 -0.5300583990522229
    outer loop
      vertex -6.540737725975565 11.3288900603722 5
      vertex -11.3288900603722 -6.540737725975565 5
      vertex -7.7060159657801375 11.005331341451813 3.333333333333333
    endloop
  endfacet
  facet normal 0.9399538709818163 -0.16573922807545763 0.2983575517784835
    outer loop
      vertex -11.3288900603722 -6.540737725975565 5
      vertex -11.005331341451813 -7.7060159657801375 3.333333333333333
      vertex -7.7060159657801375 11.005331341451813 3.333333333333333
    endloop
  endfacet
  facet normal 0.29164685285808833 0.8012931426826025 -0.5223709531624158
    outer loop
      vertex -11.535414877004195 -5.379052297142158 6.666666666666666
      vertex 5.379052297142158 -11.535414877004195 6.666666666666666
      vertex -11.3288900603722 -6.540737725975565 5
    endloop
  endfacet
  facet normal 0.24789738062690317 0.9251656195628433 0.28742906091281134
    outer loop
      vertex 5.379052297142158 -11.535414877004195 6.666666666666666
      vertex 6.540737725975565 -11.3288900603722 5
      vertex -11.3288900603722 -6.540737725975565 5
    endloop
  endfacet
  facet normal -0.8012931426826025 0.29164685285808833 -0.5223709531624158
    outer loop
      vertex 5.379052297142158 -11.535414877004195 6.666666666666666
      vertex 11.535414877004195 5.379052297142158 6.666666666666666
      vertex 6.540737725975565 -11.3288900603722 5
    endloop
  endfacet
  facet normal -0.9251656195628433 0.24789738062690317 0.28742906091281134
    outer loop
      vertex 11.535414877004195 5.379052297142158 6.666666666666666
      vertex 11.3288900603722 6.540737725975565 5
      vertex 6.540737725975565 -11.3288900603722 5
    endloop
  endfacet
  facet normal -0.29164685285808833 -0.8012931426826025 -0.5223709531624158
    outer loop
      vertex 11.535414877004195 5.379052297142158 6.666666666666666
      vertex -5.379052297142158 11.535414877004195 6.666666666666666
      vertex 11.3288900603722 6.540737725975565 5
    endloop
  endfacet
  facet normal -0.24789738062690317 -0.9251656195628433 0.28742906091281134
    outer loop
      vertex -5.379052297142158 11.535414877004195 6.666666666666666
      vertex -6.540737725975565 11.3288900603722 5
      vertex 11.3288900603722 6.540737725975565 5
    endloop
  endfacet
  facet normal 0.8012931426826025 -0.29164685285808833 -0.5223709531624158
    outer loop
      vertex -5.379052297142158 11.535414877004195 6.666666666666666
      vertex -11.535414877004195 -5.379052297142158 6.666666666666666
      vertex -6.540737725975565 11.3288900603722 5
    endloop
  endfacet
  facet normal 0.9251656195628433 -0.24789738062690317 0.28742906091281134
    outer loop
      vertex -11.535414877004195 -5.379052297142158 6.666666666666666
      vertex -11.3288900603722 -6.540737725975565 5
      vertex -6.540737725975565 11.3288900603722 5
    endloop
  endfacet
  facet normal 0.3623773997877509 0.7771208416810906 -0.5145539986706369
    outer loop
      vertex -11.628102926801807 -4.232283346339566 8.333333333333334
      vertex 4.232283346339566 -11.628102926801807 8.333333333333334
      vertex -11.535414877004195 -5.379052297142158 6.666666666666666
    endloop
  endfacet
  facet normal 0.32869722042811206 0.9030881909637366 0.2763871498906538
    outer loop
      vertex 4.232283346339566 -11.628102926801807 8.333333333333334
      vertex 5.379052297142158 -11.535414877004195 6.666666666666666
      vertex -11.535414877004195 -5.379052297142158 6.666666666666666
    endloop
  endfacet
  facet normal -0.7771208416810906 0.3623773997877509 -0.5145539986706369
    outer loop
      vertex 4.232283346339566 -11.628102926801807 8.333333333333334
      vertex 11.628102926801807 4.232283346339566 8.333333333333334
      vertex 5.379052297142158 -11.535414877004195 6.666666666666666
    endloop
  endfacet
  facet normal -0.9030881909637366 0.32869722042811206 0.2763871498906538
    outer loop
      vertex 11.628102926801807 4.232283346339566 8.333333333333334
      vertex 11.535414877004195 5.379052297142158 6.666666666666666
      vertex 5.379052297142158 -11.535414877004195 6.666666666666666
    endloop
  endfacet
  facet normal -0.3623773997877509 -0.7771208416810906 -0.5145539986706369
    outer loop
      vertex 11.628102926801807 4.232283346339566 8.333333333333334
      vertex -4.232283346339566 11.628102926801807 8.333333333333334
      vertex 11.535414877004195 5.379052297142158 6.666666666666666
    endloop
  endfacet
  facet normal -0.32869722042811206 -0.9030881909637366 0.2763871498906538
    outer loop
      vertex -4.232283346339566 11.628102926801807 8.333333333333334
      vertex -5.379052297142158 11.535414877004195 6.666666666666666
      vertex 11.535414877004195 5.379052297142158 6.666666666666666
    endloop
  endfacet
  facet normal 0.7771208416810906 -0.3623773997877509 -0.5145539986706369
    outer loop
      vertex -4.232283346339566 11.628102926801807 8.333333333333334
      vertex -11.628102926801807 -4.232283346339566 8.333333333333334
      vertex -5.379052297142158 11.535414877004195 6.666666666666666
    endloop
  endfacet
  facet normal 0.9030881909637366 -0.32869722042811206 0.2763871498906538
    outer loop
      vertex -11.628102926801807 -4.232283346339566 8.333333333333334
      vertex -11.535414877004195 -5.379052297142158 6.666666666666666
      vertex -5.379052297142158 11.535414877004195 6.666666666666666
    endloop
  endfacet
  facet normal 0.4310886621809262 0.7466674654642602 -0.5066066140075915
    outer loop
      vertex -11.611215932167728 -3.1112159321677293 10
      vertex 3.1112159321677293 -11.611215932167728 10
      vertex -11.628102926801807 -4.232283346339566 8.333333333333334
    endloop
  endfacet
  facet normal 0.4074817162938679 0.873847360573312 0.2652346909913175
    outer loop
      vertex 3.1112159321677293 -11.611215932167728 10
      vertex 4.232283346339566 -11.628102926801807 8.333333333333334
      vertex -11.628102926801807 -4.232283346339566 8.333333333333334
    endloop
  endfacet
  facet normal -0.7466674654642602 0.4310886621809262 -0.5066066140075915
    outer loop
      vertex 3.1112159321677293 -11.611215932167728 10
      vertex 11.611215932167728 3.1112159321677293 10
      vertex 4.232283346339566 -11.628102926801807 8.333333333333334
    endloop
  endfacet
  facet normal -0.873847360573312 0.4074817162938679 0.2652346909913175
    outer loop
      vertex 11.611215932167728 3.1112159321677293 10
      vertex 11.628102926801807 4.232283346339566 8.333333333333334
      vertex 4.232283346339566 -11.628102926801807 8.333333333333334
    endloop
  endfacet
  facet normal -0.4310886621809262 -0.7466674654642602 -0.5066066140075915
    outer loop
      vertex 11.611215932167728 3.1112159321677293 10
      vertex -3.1112159321677293 11.611215932167728 10
      vertex 11.628102926801807 4.232283346339566 8.333333333333334
    endloop
  endfacet
  facet normal -0.4074817162938679 -0.873847360573312 0.2652346909913175
    outer loop
      vertex -3.1112159321677293 11.611215932167728 10
      vertex -4.232283346339566 11.628102926801807 8.333333333333334
      vertex 11.628102926801807 4.232283346339566 8.333333333333334
    endloop
  endfacet
  facet normal 0.7466674654642602 -0.4310886621809262 -0.5066066140075915
    outer loop
      vertex -3.1112159321677293 11.611215932167728 10
      vertex -11.611215932167728 -3.1112159321677293 10
      vertex -4.232283346339566 11.628102926801807 8.333333333333334
    endloop
  endfacet
  facet normal 0.873847360573312 -0.4074817162938679 0.2652346909913175
    outer loop
      vertex -11.611215932167728 -3.1112159321677293 10
      vertex -11.628102926801807 -4.232283346339566 8.333333333333334
      vertex -4.232283346339566 11.628102926801807 8.333333333333334
    endloop
  endfacet
  facet normal 0.4972182805646089 0.7101012963040877 -0.49852796356837203
    outer loop
      vertex -11.490009965280311 -2.025998765488051 11.666666666666668
      vertex 2.025998765488051 -11.490009965280311 11.666666666666668
      vertex -11.611215932167728 -3.1112159321677293 10
    endloop
  endfacet
  facet normal 0.48360542407240176 0.8376291653092931 0.2539747531370181
    outer loop
      vertex 2.025998765488051 -11.490009965280311 11.666666666666668
      vertex 3.1112159321677293 -11.611215932167728 10
      vertex -11.611215932167728 -3.1112159321677293 10
    endloop
  endfacet
  facet normal -0.7101012963040877 0.4972182805646089 -0.49852796356837203
    outer loop
      vertex 2.025998765488051 -11.490009965280311 11.666666666666668
      vertex 11.490009965280311 2.025998765488051 11.666666666666668
      vertex 3.1112159321677293 -11.611215932167728 10
    endloop
  endfacet
  facet normal -0.8376291653092931 0.48360542407240176 0.2539747531370181
    outer loop
      vertex 11.490009965280311 2.025998765488051 11.666666666666668
      vertex 11.611215932167728 3.1112159321677293 10
      vertex 3.1112159321677293 -11.611215932167728 10
    endloop
  endfacet
  facet normal -0.4972182805646089 -0.7101012963040877 -0.49852796356837203
    outer loop
      vertex 11.490009965280311 2.025998765488051 11.666666666666668
      vertex -2.025998765488051 11.490009965280311 11.666666666666668
      vertex 11.611215932167728 3.1112159321677293 10
    endloop
  endfacet
  facet normal -0.48360542407240176 -0.8376291653092931 0.2539747531370181
    outer loop
      vertex -2.025998765488051 11.490009965280311 11.666666666666668
      vertex -3.1112159321677293 11.611215932167728 10
      vertex 11.611215932167728 3.1112159321677293 10
    endloop
  endfacet
  facet normal 0.7101012963040877 -0.4972182805646089 -0.49852796356837203
    outer loop
      vertex -2.025998765488051 11.490009965280311 11.666666666666668
      vertex -11.490009965280311 -2.025998765488051 11.666666666666668
      vertex -3.1112159321677293 11.611215932167728 10
    endloop
  endfacet
  facet normal 0.8376291653092931 -0.48360542407240176 0.2539747531370181
    outer loop
      vertex -11.490009965280311 -2.025998765488051 11.666666666666668
      vertex -11.611215932167728 -3.1112159321677293 10
      vertex -3.1112159321677293 11.611215932167728 10
    endloop
  endfacet
  facet normal 0.5602176837242094 0.6676414372131336 -0.4903173035480828
    outer loop
      vertex -11.270656422444139 -0.986054667459511 13.333333333333332
      vertex 0.986054667459511 -11.270656422444139 13.333333333333332
      vertex -11.490009965280311 -2.025998765488051 11.666666666666668
    endloop
  endfacet
  facet normal 0.5564401251116617 0.7946788555495525 0.24261060098060788
    outer loop
      vertex 0.986054667459511 -11.270656422444139 13.333333333333332
      vertex 2.025998765488051 -11.490009965280311 11.666666666666668
      vertex -11.490009965280311 -2.025998765488051 11.666666666666668
    endloop
  endfacet
  facet normal -0.6676414372131336 0.5602176837242094 -0.4903173035480828
    outer loop
      vertex 0.986054667459511 -11.270656422444139 13.333333333333332
      vertex 11.270656422444139 0.986054667459511 13.333333333333332
      vertex 2.025998765488051 -11.490009965280311 11.666666666666668
    endloop
  endfacet
  facet normal -0.7946788555495525 0.5564401251116617 0.24261060098060788
    outer loop
      vertex 11.270656422444139 0.986054667459511 13.333333333333332
      vertex 11.490009965280311 2.025998765488051 11.666666666666668
      vertex 2.025998765488051 -11.490009965280311 11.666666666666668
    endloop
  endfacet
  facet normal -0.5602176837242094 -0.6676414372131336 -0.4903173035480828
    outer loop
      vertex 11.270656422444139 0.986054667459511 13.333333333333332
      vertex -0.986054667459511 11.270656422444139 13.333333333333332
      vertex 11.490009965280311 2.025998765488051 11.666666666666668
    endloop
  endfacet
  facet normal -0.5564401251116617 -0.7946788555495525 0.24261060098060788
    outer loop
      vertex -0.986054667459511 11.270656422444139 13.333333333333332
      vertex -2.025998765488051 11.490009965280311 11.666666666666668
      vertex 11.490009965280311 2.025998765488051 11.666666666666668
    endloop
  endfacet
  facet normal 0.6676414372131336 -0.5602176837242094 -0.4903173035480828
    outer loop
      vertex -0.986054667459511 11.270656422444139 13.333333333333332
      vertex -11.270656422444139 -0.986054667459511 13.333333333333332
      vertex -2.025998765488051 11.490009965280311 11.666666666666668
    endloop
  endfacet
  facet normal 0.7946788555495525 -0.5564401251116617 0.24261060098060788
    outer loop
      vertex -11.270656422444139 -0.986054667459511 13.333333333333332
      vertex -11.490009965280311 -2.025998765488051 11.666666666666668
      vertex -2.025998765488051 11.490009965280311 11.666666666666668
    endloop
  endfacet
  facet normal 0.61955672662477 0.61955672662477 -0.4819739878748645
    outer loop
      vertex -10.960155108391486 -8.881784197001252e-16 15
      vertex 8.881784197001252e-16 -10.960155108391486 15
      vertex -11.270656422444139 -0.986054667459511 13.333333333333332
    endloop
  endfacet
  facet normal 0.6253803735411105 0.7452993069055277 0.2311456932666516
    outer loop
      vertex 8.881784197001252e-16 -10.960155108391486 15
      vertex 0.986054667459511 -11.270656422444139 13.333333333333332
      vertex -11.270656422444139 -0.986054667459511 13.333333333333332
    endloop
  endfacet
  facet normal -0.61955672662477 0.61955672662477 -0.4819739878748645
    outer loop
      vertex 8.881784197001252e-16 -10.960155108391486 15
      vertex 10.960155108391486 8.881784197001252e-16 15
      vertex 0.986054667459511 -11.270656422444139 13.333333333333332
    endloop
  endfacet
  facet normal -0.7452993069055277 0.6253803735411105 0.2311456932666516
    outer loop
      vertex 10.960155108391486 8.881784197001252e-16 15
      vertex 11.270656422444139 0.986054667459511 13.333333333333332
      vertex 0.986054667459511 -11.270656422444139 13.333333333333332
    endloop
  endfacet
  facet normal -0.61955672662477 -0.61955672662477 -0.4819739878748645
    outer loop
      vertex 10.960155108391486 8.881784197001252e-16 15
      vertex -8.881784197001252e-16 10.960155108391486 15
      vertex 11.270656422444139 0.986054667459511 13.333333333333332
    endloop
  endfacet
  facet normal -0.6253803735411105 -0.7452993069055277 0.2311456932666516
    outer loop
      vertex -8.881784197001252e-16 10.960155108391486 15
      vertex -0.986054667459511 11.270656422444139 13.333333333333332
      vertex 11.270656422444139 0.986054667459511 13.333333333333332
    endloop
  endfacet
  facet normal 0.61955672662477 -0.61955672662477 -0.4819739878748645
    outer loop
      vertex -8.881784197001252e-16 10.960155108391486 15
      vertex -10.960155108391486 -8.881784197001252e-16 15
      vertex -0.986054667459511 11.270656422444139 13.333333333333332
    endloop
  endfacet
  facet normal 0.7452993069055277 -0.6253803735411105 0.2311456932666516
    outer loop
      vertex -10.960155108391486 -8.881784197001252e-16 15
      vertex -11.270656422444139 -0.986054667459511 13.333333333333332
      vertex -0.986054667459511 11.270656422444139 13.333333333333332
    endloop
  endfacet
  facet normal 0.6747282500313391 0.5661642257461883 -0.4734974742222664
    outer loop
      vertex -10.566240396041382 0.9244262507432897 16.666666666666668
      vertex -0.9244262507432897 -10.566240396041382 16.666666666666668
      vertex -10.960155108391486 -8.881784197001252e-16 15
    endloop
  endfacet
  facet normal 0.6898488991375523 0.6898488991375524 0.2195836804441849
    outer loop
      vertex -0.9244262507432897 -10.566240396041382 16.666666666666668
      vertex 8.881784197001252e-16 -10.960155108391486 15
      vertex -10.960155108391486 -8.881784197001252e-16 15
    endloop
  endfacet
  facet normal -0.5661642257461883 0.6747282500313391 -0.4734974742222664
    outer loop
      vertex -0.9244262507432897 -10.566240396041382 16.666666666666668
      vertex 10.566240396041382 -0.9244262507432897 16.666666666666668
      vertex 8.881784197001252e-16 -10.960155108391486 15
    endloop
  endfacet
  facet normal -0.6898488991375524 0.6898488991375523 0.2195836804441849
    outer loop
      vertex 10.566240396041382 -0.9244262507432897 16.666666666666668
      vertex 10.960155108391486 8.881784197001252e-16 15
      vertex 8.881784197001252e-16 -10.960155108391486 15
    endloop
  endfacet
  facet normal -0.6747282500313391 -0.5661642257461883 -0.4734974742222664
    outer loop
      vertex 10.566240396041382 -0.9244262507432897 16.666666666666668
      vertex 0.9244262507432897 10.566240396041382 16.666666666666668
      vertex 10.960155108391486 8.881784197001252e-16 15
    endloop
  endfacet
  facet normal -0.6898488991375523 -0.6898488991375524 0.2195836804441849
    outer loop
      vertex 0.9244262507432897 10.566240396041382 16.666666666666668
      vertex -8.881784197001252e-16 10.960155108391486 15
      vertex 10.960155108391486 8.881784197001252e-16 15
    endloop
  endfacet
  facet normal 0.5661642257461883 -0.6747282500313391 -0.4734974742222664
    outer loop
      vertex 0.9244262507432897 10.566240396041382 16.666666666666668
      vertex -10.566240396041382 0.9244262507432897 16.666666666666668
      vertex -8.881784197001252e-16 10.960155108391486 15
    endloop
  endfacet
  facet normal 0.6898488991375524 -0.6898488991375523 0.2195836804441849
    outer loop
      vertex -10.566240396041382 0.9244262507432897 16.666666666666668
      vertex -10.960155108391486 -8.881784197001252e-16 15
      vertex -8.881784197001252e-16 10.960155108391486 15
    endloop
  endfacet
  facet normal 0.7252525221357488 0.5078272831050556 -0.464887330081035
    outer loop
      vertex -10.097281484640277 1.780423157550107 18.333333333333332
      vertex -1.780423157550107 -10.097281484640277 18.333333333333332
      vertex -10.566240396041382 0.9244262507432897 16.666666666666668
    endloop
  endfacet
  facet normal 0.7493018130125769 0.6287388749393207 0.20792840151384454
    outer loop
      vertex -1.780423157550107 -10.097281484640277 18.333333333333332
      vertex -0.9244262507432897 -10.566240396041382 16.666666666666668
      vertex -10.566240396041382 0.9244262507432897 16.666666666666668
    endloop
  endfacet
  facet normal -0.5078272831050556 0.7252525221357488 -0.464887330081035
    outer loop
      vertex -1.780423157550107 -10.097281484640277 18.333333333333332
      vertex 10.097281484640277 -1.780423157550107 18.333333333333332
      vertex -0.9244262507432897 -10.566240396041382 16.666666666666668
    endloop
  endfacet
  facet normal -0.6287388749393207 0.7493018130125769 0.20792840151384454
    outer loop
      vertex 10.097281484640277 -1.780423157550107 18.333333333333332
      vertex 10.566240396041382 -0.9244262507432897 16.666666666666668
      vertex -0.9244262507432897 -10.566240396041382 16.666666666666668
    endloop
  endfacet
  facet normal -0.7252525221357488 -0.5078272831050556 -0.464887330081035
    outer loop
      vertex 10.097281484640277 -1.780423157550107 18.333333333333332
      vertex 1.780423157550107 10.097281484640277 18.333333333333332
      vertex 10.566240396041382 -0.9244262507432897 16.666666666666668
    endloop
  endfacet
  facet normal -0.7493018130125769 -0.6287388749393207 0.20792840151384454
    outer loop
      vertex 1.780423157550107 10.097281484640277 18.333333333333332
      vertex 0.9244262507432897 10.566240396041382 16.666666666666668
      vertex 10.566240396041382 -0.9244262507432897 16.666666666666668
    endloop
  endfacet
  facet normal 0.5078272831050556 -0.7252525221357488 -0.464887330081035
    outer loop
      vertex 1.780423157550107 10.097281484640277 18.333333333333332
      vertex -10.097281484640277 1.780423157550107 18.333333333333332
      vertex 0.9244262507432897 10.566240396041382 16.666666666666668
    endloop
  endfacet
  facet normal 0.6287388749393207 -0.7493018130125769 0.20792840151384454
    outer loop
      vertex -10.097281484640277 1.780423157550107 18.333333333333332
      vertex -10.566240396041382 0.9244262507432897 16.666666666666668
      vertex 0.9244262507432897 10.566240396041382 16.666666666666668
    endloop
  endfacet
  facet normal 0.7706815225669224 0.44495318451348337 -0.45614323886827535
    outer loop
      vertex -9.56217782649107 2.562177826491069 20
      vertex -2.562177826491069 -9.56217782649107 20
      vertex -10.097281484640277 1.780423157550107 18.333333333333332
    endloop
  endfacet
  facet normal 0.8032335644045985 0.5624301967391543 0.19618388009681137
    outer loop
      vertex -2.562177826491069 -9.56217782649107 20
      vertex -1.780423157550107 -10.097281484640277 18.333333333333332
      vertex -10.097281484640277 1.780423157550107 18.333333333333332
    endloop
  endfacet
  facet normal -0.44495318451348337 0.7706815225669224 -0.45614323886827535
    outer loop
      vertex -2.562177826491069 -9.56217782649107 20
      vertex 9.56217782649107 -2.562177826491069 20
      vertex -1.780423157550107 -10.097281484640277 18.333333333333332
    endloop
  endfacet
  facet normal -0.5624301967391543 0.8032335644045985 0.19618388009681137
    outer loop
      vertex 9.56217782649107 -2.562177826491069 20
      vertex 10.097281484640277 -1.780423157550107 18.333333333333332
      vertex -1.780423157550107 -10.097281484640277 18.333333333333332
    endloop
  endfacet
  facet normal -0.7706815225669224 -0.44495318451348337 -0.45614323886827535
    outer loop
      vertex 9.56217782649107 -2.562177826491069 20
      vertex 2.562177826491069 9.56217782649107 20
      vertex 10.097281484640277 -1.780423157550107 18.333333333333332
    endloop
  endfacet
  facet normal -0.8032335644045985 -0.5624301967391543 0.19618388009681137
    outer loop
      vertex 2.562177826491069 9.56217782649107 20
      vertex 1.780423157550107 10.097281484640277 18.333333333333332
      vertex 10.097281484640277 -1.780423157550107 18.333333333333332
    endloop
  endfacet
  facet normal 0.44495318451348337 -0.7706815225669224 -0.45614323886827535
    outer loop
      vertex 2.562177826491069 9.56217782649107 20
      vertex -9.56217782649107 2.562177826491069 20
      vertex 1.780423157550107 10.097281484640277 18.333333333333332
    endloop
  endfacet
  facet normal 0.5624301967391543 -0.8032335644045985 0.19618388009681137
    outer loop
      vertex -9.56217782649107 2.562177826491069 20
      vertex -10.097281484640277 1.780423157550107 18.333333333333332
      vertex 1.780423157550107 10.097281484640277 18.333333333333332
    endloop
  endfacet
  facet normal 0.8106030295757276 0.37799040041480464 -0.4472650060500014
    outer loop
      vertex -8.970250829247108 3.264904295747666 21.666666666666664
      vertex -3.264904295747666 -8.970250829247108 21.666666666666664
      vertex -9.56217782649107 2.562177826491069 20
    endloop
  endfacet
  facet normal 0.8511815984858682 0.49142992501507204 0.18435431971809854
    outer loop
      vertex -3.264904295747666 -8.970250829247108 21.666666666666664
      vertex -2.562177826491069 -9.56217782649107 20
      vertex -9.56217782649107 2.562177826491069 20
    endloop
  endfacet
  facet normal -0.37799040041480464 0.8106030295757276 -0.4472650060500014
    outer loop
      vertex -3.264904295747666 -8.970250829247108 21.666666666666664
      vertex 8.970250829247108 -3.264904295747666 21.666666666666664
      vertex -2.562177826491069 -9.56217782649107 20
    endloop
  endfacet
  facet normal -0.49142992501507204 0.8511815984858682 0.18435431971809854
    outer loop
      vertex 8.970250829247108 -3.264904295747666 21.666666666666664
      vertex 9.56217782649107 -2.562177826491069 20
      vertex -2.562177826491069 -9.56217782649107 20
    endloop
  endfacet
  facet normal -0.8106030295757276 -0.37799040041480464 -0.4472650060500014
    outer loop
      vertex 8.970250829247108 -3.264904295747666 21.666666666666664
      vertex 3.264904295747666 8.970250829247108 21.666666666666664
      vertex 9.56217782649107 -2.562177826491069 20
    endloop
  endfacet
  facet normal -0.8511815984858682 -0.49142992501507204 0.18435431971809854
    outer loop
      vertex 3.264904295747666 8.970250829247108 21.666666666666664
      vertex 2.562177826491069 9.56217782649107 20
      vertex 9.56217782649107 -2.562177826491069 20
    endloop
  endfacet
  facet normal 0.37799040041480464 -0.8106030295757276 -0.4472650060500014
    outer loop
      vertex 3.264904295747666 8.970250829247108 21.666666666666664
      vertex -8.970250829247108 3.264904295747666 21.666666666666664
      vertex 2.562177826491069 9.56217782649107 20
    endloop
  endfacet
  facet normal 0.49142992501507204 -0.8511815984858682 0.18435431971809854
    outer loop
      vertex -8.970250829247108 3.264904295747666 21.666666666666664
      vertex -9.56217782649107 2.562177826491069 20
      vertex 2.562177826491069 9.56217782649107 20
    endloop
  endfacet
  facet normal 0.8446444719529884 0.3074254463283821 -0.4382525652509663
    outer loop
      vertex -8.33113296672525 3.884871103491556 23.333333333333336
      vertex -3.884871103491556 -8.33113296672525 23.333333333333336
      vertex -8.970250829247108 3.264904295747666 21.666666666666664
    endloop
  endfacet
  facet normal 0.8927306673025406 0.4162871468329969 0.17244409830203997
    outer loop
      vertex -3.884871103491556 -8.33113296672525 23.333333333333336
      vertex -3.264904295747666 -8.970250829247108 21.666666666666664
      vertex -8.970250829247108 3.264904295747666 21.666666666666664
    endloop
  endfacet
  facet normal -0.3074254463283821 0.8446444719529884 -0.4382525652509663
    outer loop
      vertex -3.884871103491556 -8.33113296672525 23.333333333333336
      vertex 8.33113296672525 -3.884871103491556 23.333333333333336
      vertex -3.264904295747666 -8.970250829247108 21.666666666666664
    endloop
  endfacet
  facet normal -0.4162871468329969 0.8927306673025406 0.17244409830203997
    outer loop
      vertex 8.33113296672525 -3.884871103491556 23.333333333333336
      vertex 8.970250829247108 -3.264904295747666 21.666666666666664
      vertex -3.264904295747666 -8.970250829247108 21.666666666666664
    endloop
  endfacet
  facet normal -0.8446444719529884 -0.3074254463283821 -0.4382525652509663
    outer loop
      vertex 8.33113296672525 -3.884871103491556 23.333333333333336
      vertex 3.884871103491556 8.33113296672525 23.333333333333336
      vertex 8.970250829247108 -3.264904295747666 21.666666666666664
    endloop
  endfacet
  facet normal -0.8927306673025406 -0.4162871468329969 0.17244409830203997
    outer loop
      vertex 3.884871103491556 8.33113296672525 23.333333333333336
      vertex 3.264904295747666 8.970250829247108 21.666666666666664
      vertex 8.970250829247108 -3.264904295747666 21.666666666666664
    endloop
  endfacet
  facet normal 0.3074254463283821 -0.8446444719529884 -0.4382525652509663
    outer loop
      vertex 3.884871103491556 8.33113296672525 23.333333333333336
      vertex -8.33113296672525 3.884871103491556 23.333333333333336
      vertex 3.264904295747666 8.970250829247108 21.666666666666664
    endloop
  endfacet
  facet normal 0.4162871468329969 -0.8927306673025406 0.17244409830203997
    outer loop
      vertex -8.33113296672525 3.884871103491556 23.333333333333336
      vertex -8.970250829247108 3.264904295747666 21.666666666666664
      vertex 3.264904295747666 8.970250829247108 21.666666666666664
    endloop
  endfacet
  facet normal 0.8724765083674618 0.233779375832187 -0.4291059843237279
    outer loop
      vertex -7.654655446197431 4.419417382415922 25
      vertex -4.419417382415922 -7.654655446197431 25
      vertex -8.33113296672525 3.884871103491556 23.333333333333336
    endloop
  endfacet
  facet normal 0.9275167487441287 0.33758848832622695 0.16045776188372407
    outer loop
      vertex -4.419417382415922 -7.654655446197431 25
      vertex -3.884871103491556 -8.33113296672525 23.333333333333336
      vertex -8.33113296672525 3.884871103491556 23.333333333333336
    endloop
  endfacet
  facet normal -0.233779375832187 0.8724765083674618 -0.4291059843237279
    outer loop
      vertex -4.419417382415922 -7.654655446197431 25
      vertex 7.654655446197431 -4.419417382415922 25
      vertex -3.884871103491556 -8.33113296672525 23.333333333333336
    endloop
  endfacet
  facet normal -0.33758848832622695 0.9275167487441287 0.16045776188372407
    outer loop
      vertex 7.654655446197431 -4.419417382415922 25
      vertex 8.33113296672525 -3.884871103491556 23.333333333333336
      vertex -3.884871103491556 -8.33113296672525 23.333333333333336
    endloop
  endfacet
  facet normal -0.8724765083674618 -0.233779375832187 -0.4291059843237279
    outer loop
      vertex 7.654655446197431 -4.419417382415922 25
      vertex 4.419417382415922 7.654655446197431 25
      vertex 8.33113296672525 -3.884871103491556 23.333333333333336
    endloop
  endfacet
  facet normal -0.9275167487441287 -0.33758848832622695 0.16045776188372407
    outer loop
      vertex 4.419417382415922 7.654655446197431 25
      vertex 3.884871103491556 8.33113296672525 23.333333333333336
      vertex 8.33113296672525 -3.884871103491556 23.333333333333336
    endloop
  endfacet
  facet normal 0.233779375832187 -0.8724765083674618 -0.4291059843237279
    outer loop
      vertex 4.419417382415922 7.654655446197431 25
      vertex -7.654655446197431 4.419417382415922 25
      vertex 3.884871103491556 8.33113296672525 23.333333333333336
    endloop
  endfacet
  facet normal 0.33758848832622695 -0.9275167487441287 0.16045776188372407
    outer loop
      vertex -7.654655446197431 4.419417382415922 25
      vertex -8.33113296672525 3.884871103491556 23.333333333333336
      vertex 3.884871103491556 8.33113296672525 23.333333333333336
    endloop
  endfacet
  facet normal 0.8938162983034684 0.15760392918786725 -0.4198254713468809
    outer loop
      vertex -6.950735584074831 4.8669574520716665 26.666666666666664
      vertex -4.8669574520716665 -6.950735584074831 26.666666666666664
      vertex -7.654655446197431 4.419417382415922 25
    endloop
  endfacet
  facet normal 0.9552305317698554 0.25595324957328464 0.14840001754567037
    outer loop
      vertex -4.8669574520716665 -6.950735584074831 26.666666666666664
      vertex -4.419417382415922 -7.654655446197431 25
      vertex -7.654655446197431 4.419417382415922 25
    endloop
  endfacet
  facet normal -0.15760392918786725 0.8938162983034684 -0.4198254713468809
    outer loop
      vertex -4.8669574520716665 -6.950735584074831 26.666666666666664
      vertex 6.950735584074831 -4.8669574520716665 26.666666666666664
      vertex -4.419417382415922 -7.654655446197431 25
    endloop
  endfacet
  facet normal -0.25595324957328464 0.9552305317698554 0.14840001754567037
    outer loop
      vertex 6.950735584074831 -4.8669574520716665 26.666666666666664
      vertex 7.654655446197431 -4.419417382415922 25
      vertex -4.419417382415922 -7.654655446197431 25
    endloop
  endfacet
  facet normal -0.8938162983034684 -0.15760392918786725 -0.4198254713468809
    outer loop
      vertex 6.950735584074831 -4.8669574520716665 26.666666666666664
      vertex 4.8669574520716665 6.950735584074831 26.666666666666664
      vertex 7.654655446197431 -4.419417382415922 25
    endloop
  endfacet
  facet normal -0.9552305317698554 -0.25595324957328464 0.14840001754567037
    outer loop
      vertex 4.8669574520716665 6.950735584074831 26.666666666666664
      vertex 4.419417382415922 7.654655446197431 25
      vertex 7.654655446197431 -4.419417382415922 25
    endloop
  endfacet
  facet normal 0.15760392918786725 -0.8938162983034684 -0.4198254713468809
    outer loop
      vertex 4.8669574520716665 6.950735584074831 26.666666666666664
      vertex -6.950735584074831 4.8669574520716665 26.666666666666664
      vertex 4.419417382415922 7.654655446197431 25
    endloop
  endfacet
  facet normal 0.25595324957328464 -0.9552305317698554 0.14840001754567037
    outer loop
      vertex -6.950735584074831 4.8669574520716665 26.666666666666664
      vertex -7.654655446197431 4.419417382415922 25
      vertex 4.419417382415922 7.654655446197431 25
    endloop
  endfacet
  facet normal 0.9084304306362179 0.07947736428264228 -0.4104113805205455
    outer loop
      vertex -6.229265034826571 5.226973993228502 28.333333333333336
      vertex -5.226973993228502 -6.229265034826571 28.333333333333336
      vertex -6.950735584074831 4.8669574520716665 26.666666666666664
    endloop
  endfacet
  facet normal 0.9756204299772329 0.17202820473537986 0.13627572559543252
    outer loop
      vertex -5.226973993228502 -6.229265034826571 28.333333333333336
      vertex -4.8669574520716665 -6.950735584074831 26.666666666666664
      vertex -6.950735584074831 4.8669574520716665 26.666666666666664
    endloop
  endfacet
  facet normal -0.07947736428264228 0.9084304306362179 -0.4104113805205455
    outer loop
      vertex -5.226973993228502 -6.229265034826571 28.333333333333336
      vertex 6.229265034826571 -5.226973993228502 28.333333333333336
      vertex -4.8669574520716665 -6.950735584074831 26.666666666666664
    endloop
  endfacet
  facet normal -0.17202820473537986 0.9756204299772329 0.13627572559543252
    outer loop
      vertex 6.229265034826571 -5.226973993228502 28.333333333333336
      vertex 6.950735584074831 -4.8669574520716665 26.666666666666664
      vertex -4.8669574520716665 -6.950735584074831 26.666666666666664
    endloop
  endfacet
  facet normal -0.9084304306362179 -0.07947736428264228 -0.4104113805205455
    outer loop
      vertex 6.229265034826571 -5.226973993228502 28.333333333333336
      vertex 5.226973993228502 6.229265034826571 28.333333333333336
      vertex 6.950735584074831 -4.8669574520716665 26.666666666666664
    endloop
  endfacet
  facet normal -0.9756204299772329 -0.17202820473537986 0.13627572559543252
    outer loop
      vertex 5.226973993228502 6.229265034826571 28.333333333333336
      vertex 4.8669574520716665 6.950735584074831 26.666666666666664
      vertex 6.950735584074831 -4.8669574520716665 26.666666666666664
    endloop
  endfacet
  facet normal 0.07947736428264228 -0.9084304306362179 -0.4104113805205455
    outer loop
      vertex 5.226973993228502 6.229265034826571 28.333333333333336
      vertex -6.229265034826571 5.226973993228502 28.333333333333336
      vertex 4.8669574520716665 6.950735584074831 26.666666666666664
    endloop
  endfacet
  facet normal 0.17202820473537986 -0.9756204299772329 0.13627572559543252
    outer loop
      vertex -6.229265034826571 5.226973993228502 28.333333333333336
      vertex -6.950735584074831 4.8669574520716665 26.666666666666664
      vertex 4.8669574520716665 6.950735584074831 26.666666666666664
    endloop
  endfacet
  facet normal 0.9161374781041872 0 -0.4008642179253466
    outer loop
      vertex -5.5 5.5 30
      vertex -5.5 -5.5 30
      vertex -6.229265034826571 5.226973993228502 28.333333333333336
    endloop
  endfacet
  facet normal 0.9884950899487012 0.08648211432154988 0.12408989100560767
    outer loop
      vertex -5.5 -5.5 30
      vertex -5.226973993228502 -6.229265034826571 28.333333333333336
      vertex -6.229265034826571 5.226973993228502 28.333333333333336
    endloop
  endfacet
  facet normal 0 0.9161374781041872 -0.4008642179253466
    outer loop
      vertex -5.5 -5.5 30
      vertex 5.5 -5.5 30
      vertex -5.226973993228502 -6.229265034826571 28.333333333333336
    endloop
  endfacet
  facet normal -0.08648211432154988 0.9884950899487012 0.12408989100560767
    outer loop
      vertex 5.5 -5.5 30
      vertex 6.229265034826571 -5.226973993228502 28.333333333333336
      vertex -5.226973993228502 -6.229265034826571 28.333333333333336
    endloop
  endfacet
  facet normal -0.9161374781041872 0 -0.4008642179253466
    outer loop
      vertex 5.5 -5.5 30
      vertex 5.5 5.5 30
      vertex 6.229265034826571 -5.226973993228502 28.333333333333336
    endloop
  endfacet
  facet normal -0.9884950899487012 -0.08648211432154988 0.12408989100560767
    outer loop
      vertex 5.5 5.5 30
      vertex 5.226973993228502 6.229265034826571 28.333333333333336
      vertex 6.229265034826571 -5.226973993228502 28.333333333333336
    endloop
  endfacet
  facet normal 0 -0.9161374781041872 -0.4008642179253466
    outer loop
      vertex 5.5 5.5 30
      vertex -5.5 5.5 30
      vertex 5.226973993228502 6.229265034826571 28.333333333333336
    endloop
  endfacet
  facet normal 0.08648211432154988 -0.9884950899487012 0.12408989100560767
    outer loop
      vertex -5.5 5.5 30
      vertex -6.229265034826571 5.226973993228502 28.333333333333336
      vertex 5.226973993228502 6.229265034826571 28.333333333333336
    endloop
  endfacet
  facet normal 0.9168101485159007 -0.08021049460066017 -0.39118464710948153
    outer loop
      vertex -4.772454515556459 5.687589814406871 31.666666666666664
      vertex -5.687589814406871 -4.772454515556459 31.666666666666664
      vertex -5.5 5.5 30
    endloop
  endfacet
  facet normal 0.9937253656128924 0 0.11184765414403357
    outer loop
      vertex -5.687589814406871 -4.772454515556459 31.666666666666664
      vertex -5.5 -5.5 30
      vertex -5.5 5.5 30
    endloop
  endfacet
  facet normal 0.08021049460066017 0.9168101485159007 -0.39118464710948153
    outer loop
      vertex -5.687589814406871 -4.772454515556459 31.666666666666664
      vertex 4.772454515556459 -5.687589814406871 31.666666666666664
      vertex -5.5 -5.5 30
    endloop
  endfacet
  facet normal 0 0.9937253656128924 0.11184765414403357
    outer loop
      vertex 4.772454515556459 -5.687589814406871 31.666666666666664
      vertex 5.5 -5.5 30
      vertex -5.5 -5.5 30
    endloop
  endfacet
  facet normal -0.9168101485159007 0.08021049460066017 -0.39118464710948153
    outer loop
      vertex 4.772454515556459 -5.687589814406871 31.666666666666664
      vertex 5.687589814406871 4.772454515556459 31.666666666666664
      vertex 5.5 -5.5 30
    endloop
  endfacet
  facet normal -0.9937253656128924 0 0.11184765414403357
    outer loop
      vertex 5.687589814406871 4.772454515556459 31.666666666666664
      vertex 5.5 5.5 30
      vertex 5.5 -5.5 30
    endloop
  endfacet
  facet normal -0.08021049460066017 -0.9168101485159007 -0.39118464710948153
    outer loop
      vertex 5.687589814406871 4.772454515556459 31.666666666666664
      vertex -4.772454515556459 5.687589814406871 31.666666666666664
      vertex 5.5 5.5 30
    endloop
  endfacet
  facet normal 0 -0.9937253656128924 0.11184765414403357
    outer loop
      vertex -4.772454515556459 5.687589814406871 31.666666666666664
      vertex -5.5 5.5 30
      vertex 5.5 5.5 30
    endloop
  endfacet
  facet normal 0.9103770064530728 -0.160524028854281 -0.38137349446694824
    outer loop
      vertex -4.0557978767263885 5.792279653395691 33.333333333333336
      vertex -5.792279653395691 -4.0557978767263885 33.333333333333336
      vertex -4.772454515556459 5.687589814406871 31.666666666666664
    endloop
  endfacet
  facet normal 0.9912457350583604 -0.08672276458602823 0.09955428082793308
    outer loop
      vertex -5.792279653395691 -4.0557978767263885 33.333333333333336
      vertex -5.687589814406871 -4.772454515556459 31.666666666666664
      vertex -4.772454515556459 5.687589814406871 31.666666666666664
    endloop
  endfacet
  facet normal 0.160524028854281 0.9103770064530728 -0.38137349446694824
    outer loop
      vertex -5.792279653395691 -4.0557978767263885 33.333333333333336
      vertex 4.0557978767263885 -5.792279653395691 33.333333333333336
      vertex -5.687589814406871 -4.772454515556459 31.666666666666664
    endloop
  endfacet
  facet normal 0.08672276458602823 0.9912457350583604 0.09955428082793308
    outer loop
      vertex 4.0557978767263885 -5.792279653395691 33.333333333333336
      vertex 4.772454515556459 -5.687589814406871 31.666666666666664
      vertex -5.687589814406871 -4.772454515556459 31.666666666666664
    endloop
  endfacet
  facet normal -0.9103770064530728 0.160524028854281 -0.38137349446694824
    outer loop
      vertex 4.0557978767263885 -5.792279653395691 33.333333333333336
      vertex 5.792279653395691 4.0557978767263885 33.333333333333336
      vertex 4.772454515556459 -5.687589814406871 31.666666666666664
    endloop
  endfacet
  facet normal -0.9912457350583604 0.08672276458602823 0.09955428082793308
    outer loop
      vertex 5.792279653395691 4.0557978767263885 33.333333333333336
      vertex 5.687589814406871 4.772454515556459 31.666666666666664
      vertex 4.772454515556459 -5.687589814406871 31.666666666666664
    endloop
  endfacet
  facet normal -0.160524028854281 -0.9103770064530728 -0.38137349446694824
    outer loop
      vertex 5.792279653395691 4.0557978767263885 33.333333333333336
      vertex -4.0557978767263885 5.792279653395691 33.333333333333336
      vertex 5.687589814406871 4.772454515556459 31.666666666666664
    endloop
  endfacet
  facet normal -0.08672276458602823 -0.9912457350583604 0.09955428082793308
    outer loop
      vertex -4.0557978767263885 5.792279653395691 33.333333333333336
      vertex -4.772454515556459 5.687589814406871 31.666666666666664
      vertex 5.687589814406871 4.772454515556459 31.666666666666664
    endloop
  endfacet
  facet normal 0.8968237424892346 -0.24030319755304758 -0.3714317543686645
    outer loop
      vertex -3.3587572106361003 5.817538139110048 35
      vertex -5.817538139110048 -3.3587572106361003 35
      vertex -4.0557978767263885 5.792279653395691 33.333333333333336
    endloop
  endfacet
  facet normal 0.9810551417824427 -0.17298649105901306 0.08721515174166267
    outer loop
      vertex -5.817538139110048 -3.3587572106361003 35
      vertex -5.792279653395691 -4.0557978767263885 33.333333333333336
      vertex -4.0557978767263885 5.792279653395691 33.333333333333336
    endloop
  endfacet
  facet normal 0.24030319755304758 0.8968237424892346 -0.3714317543686645
    outer loop
      vertex -5.817538139110048 -3.3587572106361003 35
      vertex 3.3587572106361003 -5.817538139110048 35
      vertex -5.792279653395691 -4.0557978767263885 33.333333333333336
    endloop
  endfacet
  facet normal 0.17298649105901306 0.9810551417824427 0.08721515174166267
    outer loop
      vertex 3.3587572106361003 -5.817538139110048 35
      vertex 4.0557978767263885 -5.792279653395691 33.333333333333336
      vertex -5.792279653395691 -4.0557978767263885 33.333333333333336
    endloop
  endfacet
  facet normal -0.8968237424892346 0.24030319755304758 -0.3714317543686645
    outer loop
      vertex 3.3587572106361003 -5.817538139110048 35
      vertex 5.817538139110048 3.3587572106361003 35
      vertex 4.0557978767263885 -5.792279653395691 33.333333333333336
    endloop
  endfacet
  facet normal -0.9810551417824427 0.17298649105901306 0.08721515174166267
    outer loop
      vertex 5.817538139110048 3.3587572106361003 35
      vertex 5.792279653395691 4.0557978767263885 33.333333333333336
      vertex 4.0557978767263885 -5.792279653395691 33.333333333333336
    endloop
  endfacet
  facet normal -0.24030319755304758 -0.8968237424892346 -0.3714317543686645
    outer loop
      vertex 5.817538139110048 3.3587572106361003 35
      vertex -3.3587572106361003 5.817538139110048 35
      vertex 5.792279653395691 4.0557978767263885 33.333333333333336
    endloop
  endfacet
  facet normal -0.17298649105901306 -0.9810551417824427 0.08721515174166267
    outer loop
      vertex -3.3587572106361003 5.817538139110048 35
      vertex -4.0557978767263885 5.792279653395691 33.333333333333336
      vertex 5.792279653395691 4.0557978767263885 33.333333333333336
    endloop
  endfacet
  facet normal 0.8761939705143348 -0.31890852471073633 -0.361360594007076
    outer loop
      vertex -2.6895261485710797 5.767707438502098 36.666666666666664
      vertex -5.767707438502098 -2.6895261485710797 36.666666666666664
      vertex -3.3587572106361003 5.817538139110048 35
    endloop
  endfacet
  facet normal 0.9632172481829959 -0.25809328378636204 0.07483575126334571
    outer loop
      vertex -5.767707438502098 -2.6895261485710797 36.666666666666664
      vertex -5.817538139110048 -3.3587572106361003 35
      vertex -3.3587572106361003 5.817538139110048 35
    endloop
  endfacet
  facet normal 0.31890852471073633 0.8761939705143348 -0.361360594007076
    outer loop
      vertex -5.767707438502098 -2.6895261485710797 36.666666666666664
      vertex 2.6895261485710797 -5.767707438502098 36.666666666666664
      vertex -5.817538139110048 -3.3587572106361003 35
    endloop
  endfacet
  facet normal 0.25809328378636204 0.9632172481829959 0.07483575126334571
    outer loop
      vertex 2.6895261485710797 -5.767707438502098 36.666666666666664
      vertex 3.3587572106361003 -5.817538139110048 35
      vertex -5.817538139110048 -3.3587572106361003 35
    endloop
  endfacet
  facet normal -0.8761939705143348 0.31890852471073633 -0.361360594007076
    outer loop
      vertex 2.6895261485710797 -5.767707438502098 36.666666666666664
      vertex 5.767707438502098 2.6895261485710797 36.666666666666664
      vertex 3.3587572106361003 -5.817538139110048 35
    endloop
  endfacet
  facet normal -0.9632172481829959 0.25809328378636204 0.07483575126334571
    outer loop
      vertex 5.767707438502098 2.6895261485710797 36.666666666666664
      vertex 5.817538139110048 3.3587572106361003 35
      vertex 3.3587572106361003 -5.817538139110048 35
    endloop
  endfacet
  facet normal -0.31890852471073633 -0.8761939705143348 -0.361360594007076
    outer loop
      vertex 5.767707438502098 2.6895261485710797 36.666666666666664
      vertex -2.6895261485710797 5.767707438502098 36.666666666666664
      vertex 5.817538139110048 3.3587572106361003 35
    endloop
  endfacet
  facet normal -0.25809328378636204 -0.9632172481829959 0.07483575126334571
    outer loop
      vertex -2.6895261485710797 5.767707438502098 36.666666666666664
      vertex -3.3587572106361003 5.817538139110048 35
      vertex 5.817538139110048 3.3587572106361003 35
    endloop
  endfacet
  facet normal 0.8485895376188639 -0.3957038000218854 -0.35116135791405434
    outer loop
      vertex -2.055680482507791 5.647935707303736 38.333333333333336
      vertex -5.647935707303736 -2.055680482507791 38.333333333333336
      vertex -2.6895261485710797 5.767707438502098 36.666666666666664
    endloop
  endfacet
  facet normal 0.9378600951372067 -0.34135315853601184 0.06242165575117291
    outer loop
      vertex -5.647935707303736 -2.055680482507791 38.333333333333336
      vertex -5.767707438502098 -2.6895261485710797 36.666666666666664
      vertex -2.6895261485710797 5.767707438502098 36.666666666666664
    endloop
  endfacet
  facet normal 0.3957038000218854 0.8485895376188639 -0.35116135791405434
    outer loop
      vertex -5.647935707303736 -2.055680482507791 38.333333333333336
      vertex 2.055680482507791 -5.647935707303736 38.333333333333336
      vertex -5.767707438502098 -2.6895261485710797 36.666666666666664
    endloop
  endfacet
  facet normal 0.34135315853601184 0.9378600951372067 0.06242165575117291
    outer loop
      vertex 2.055680482507791 -5.647935707303736 38.333333333333336
      vertex 2.6895261485710797 -5.767707438502098 36.666666666666664
      vertex -5.767707438502098 -2.6895261485710797 36.666666666666664
    endloop
  endfacet
  facet normal -0.8485895376188639 0.3957038000218854 -0.35116135791405434
    outer loop
      vertex 2.055680482507791 -5.647935707303736 38.333333333333336
      vertex 5.647935707303736 2.055680482507791 38.333333333333336
      vertex 2.6895261485710797 -5.767707438502098 36.666666666666664
    endloop
  endfacet
  facet normal -0.9378600951372067 0.34135315853601184 0.06242165575117291
    outer loop
      vertex 5.647935707303736 2.055680482507791 38.333333333333336
      vertex 5.767707438502098 2.6895261485710797 36.666666666666664
      vertex 2.6895261485710797 -5.767707438502098 36.666666666666664
    endloop
  endfacet
  facet normal -0.3957038000218854 -0.8485895376188639 -0.35116135791405434
    outer loop
      vertex 5.647935707303736 2.055680482507791 38.333333333333336
      vertex -2.055680482507791 5.647935707303736 38.333333333333336
      vertex 5.767707438502098 2.6895261485710797 36.666666666666664
    endloop
  endfacet
  facet normal -0.34135315853601184 -0.9378600951372067 0.06242165575117291
    outer loop
      vertex -2.055680482507791 5.647935707303736 38.333333333333336
      vertex -2.6895261485710797 5.767707438502098 36.666666666666664
      vertex 5.767707438502098 2.6895261485710797 36.666666666666664
    endloop
  endfacet
  facet normal 0.8141703351189639 -0.47006146214714134 -0.3408355721111952
    outer loop
      vertex -1.4641016151377564 5.464101615137755 40
      vertex -5.464101615137755 -1.4641016151377564 40
      vertex -2.055680482507791 5.647935707303736 38.333333333333336
    endloop
  endfacet
  facet normal 0.9051751676861463 -0.422090112663785 0.04997852134497612
    outer loop
      vertex -5.464101615137755 -1.4641016151377564 40
      vertex -5.647935707303736 -2.055680482507791 38.333333333333336
      vertex -2.055680482507791 5.647935707303736 38.333333333333336
    endloop
  endfacet
  facet normal 0.47006146214714134 0.8141703351189639 -0.3408355721111952
    outer loop
      vertex -5.464101615137755 -1.4641016151377564 40
      vertex 1.4641016151377564 -5.464101615137755 40
      vertex -5.647935707303736 -2.055680482507791 38.333333333333336
    endloop
  endfacet
  facet normal 0.422090112663785 0.9051751676861463 0.04997852134497612
    outer loop
      vertex 1.4641016151377564 -5.464101615137755 40
      vertex 2.055680482507791 -5.647935707303736 38.333333333333336
      vertex -5.647935707303736 -2.055680482507791 38.333333333333336
    endloop
  endfacet
  facet normal -0.8141703351189639 0.47006146214714134 -0.3408355721111952
    outer loop
      vertex 1.4641016151377564 -5.464101615137755 40
      vertex 5.464101615137755 1.4641016151377564 40
      vertex 2.055680482507791 -5.647935707303736 38.333333333333336
    endloop
  endfacet
  facet normal -0.9051751676861463 0.422090112663785 0.04997852134497612
    outer loop
      vertex 5.464101615137755 1.4641016151377564 40
      vertex 5.647935707303736 2.055680482507791 38.333333333333336
      vertex 2.055680482507791 -5.647935707303736 38.333333333333336
    endloop
  endfacet
  facet normal -0.47006146214714134 -0.8141703351189639 -0.3408355721111952
    outer loop
      vertex 5.464101615137755 1.4641016151377564 40
      vertex -1.4641016151377564 5.464101615137755 40
      vertex 5.647935707303736 2.055680482507791 38.333333333333336
    endloop
  endfacet
  facet normal -0.422090112663785 -0.9051751676861463 0.04997852134497612
    outer loop
      vertex -1.4641016151377564 5.464101615137755 40
      vertex -2.055680482507791 5.647935707303736 38.333333333333336
      vertex 5.647935707303736 2.055680482507791 38.333333333333336
    endloop
  endfacet
endsolid PythonSCAD_Model
