solid PythonSCAD_Model
  facet normal 0.8660254037844386 0.5000000000000001 0
    outer loop
      vertex 15 0 10
      vertex 7.5 12.990381056766578 -10
      vertex 7.5 12.990381056766578 10
    endloop
  endfacet
  facet normal 0.8660254037844386 0.5000000000000001 0
    outer loop
      vertex 7.5 12.990381056766578 -10
      vertex 15 0 10
      vertex 15 0 -10
    endloop
  endfacet
  facet normal 0 1 0
    outer loop
      vertex 7.5 12.990381056766578 -10
      vertex -7.5 12.990381056766578 10
      vertex 7.5 12.990381056766578 10
    endloop
  endfacet
  facet normal 0 1 0
    outer loop
      vertex -7.5 12.990381056766578 10
      vertex 7.5 12.990381056766578 -10
      vertex -7.5 12.990381056766578 -10
    endloop
  endfacet
  facet normal -0.8660254037844386 0.5000000000000001 0
    outer loop
      vertex -15 0 -10
      vertex -7.5 12.990381056766578 10
      vertex -7.5 12.990381056766578 -10
    endloop
  endfacet
  facet normal -0.8660254037844386 0.5000000000000001 0
    outer loop
      vertex -7.5 12.990381056766578 10
      vertex -15 0 -10
      vertex -15 0 10
    endloop
  endfacet
  facet normal -0.8660254037844386 -0.5000000000000001 0
    outer loop
      vertex -7.5 -12.990381056766578 -10
      vertex -15 0 10
      vertex -15 0 -10
    endloop
  endfacet
  facet normal -0.8660254037844386 -0.5000000000000001 0
    outer loop
      vertex -15 0 10
      vertex -7.5 -12.990381056766578 -10
      vertex -7.5 -12.990381056766578 10
    endloop
  endfacet
  facet normal 0 -1 0
    outer loop
      vertex -7.5 -12.990381056766578 -10
      vertex 7.5 -12.990381056766578 10
      vertex -7.5 -12.990381056766578 10
    endloop
  endfacet
  facet normal 0 -1 0
    outer loop
      vertex 7.5 -12.990381056766578 10
      vertex -7.5 -12.990381056766578 -10
      vertex 7.5 -12.990381056766578 -10
    endloop
  endfacet
  facet normal 0.8660254037844386 -0.5000000000000001 0
    outer loop
      vertex 7.5 -12.990381056766578 10
      vertex 15 0 -10
      vertex 15 0 10
    endloop
  endfacet
  facet normal 0.8660254037844386 -0.5000000000000001 0
    outer loop
      vertex 15 0 -10
      vertex 7.5 -12.990381056766578 10
      vertex 7.5 -12.990381056766578 -10
    endloop
  endfacet
  facet normal 0 0 -1
    outer loop
      vertex 7.5 -12.990381056766578 -10
      vertex 7.5 12.990381056766578 -10
      vertex 15 0 -10
    endloop
  endfacet
  facet normal 0 0 -1
    outer loop
      vertex -7.5 -12.990381056766578 -10
      vertex 7.5 12.990381056766578 -10
      vertex 7.5 -12.990381056766578 -10
    endloop
  endfacet
  facet normal 0 0 -1
    outer loop
      vertex -7.5 -12.990381056766578 -10
      vertex -7.5 12.990381056766578 -10
      vertex 7.5 12.990381056766578 -10
    endloop
  endfacet
  facet normal 0 0 -1
    outer loop
      vertex -7.5 12.990381056766578 -10
      vertex -7.5 -12.990381056766578 -10
      vertex -15 0 -10
    endloop
  endfacet
  facet normal 0 0 1
    outer loop
      vertex 7.5 12.990381056766578 10
      vertex 7.5 -12.990381056766578 10
      vertex 15 0 10
    endloop
  endfacet
  facet normal 0 0 1
    outer loop
      vertex -7.5 12.990381056766578 10
      vertex 7.5 -12.990381056766578 10
      vertex 7.5 12.990381056766578 10
    endloop
  endfacet
  facet normal 0 0 1
    outer loop
      vertex -7.5 12.990381056766578 10
      vertex -7.5 -12.990381056766578 10
      vertex 7.5 -12.990381056766578 10
    endloop
  endfacet
  facet normal 0 0 1
    outer loop
      vertex -7.5 -12.990381056766578 10
      vertex -7.5 12.990381056766578 10
      vertex -15 0 10
    endloop
  endfacet
endsolid PythonSCAD_Model
