solid PythonSCAD_Model
  facet normal -0.5226344454761548 0.11190269273322029 0.8451810597504459
    outer loop
      vertex 4 0 2.473479212278948
      vertex 4 4 1.9438758027266256
      vertex 0 0 0
    endloop
  endfacet
  facet normal -0.4370892814700361 0 0.8994181230239957
    outer loop
      vertex 4 4 1.9438758027266256
      vertex 0 4 0
      vertex 0 0 0
    endloop
  endfacet
  facet normal -0.41792906849984524 0.29283145616612694 0.8599912976202011
    outer loop
      vertex 4 4 1.9438758027266256
      vertex 4 8 0.5818552475118896
      vertex 0 4 0
    endloop
  endfacet
  facet normal -0.1439488256345203 0 0.9895851330726643
    outer loop
      vertex 4 8 0.5818552475118896
      vertex 0 8 0
      vertex 0 4 0
    endloop
  endfacet
  facet normal -0.13371752179588461 0.37027039430238645 0.9192494000367488
    outer loop
      vertex 4 8 0.5818552475118896
      vertex 4 12 -1.029330549455002
      vertex 0 8 0
    endloop
  endfacet
  facet normal 0.24921342918370143 0 0.9684485875432418
    outer loop
      vertex 4 12 -1.029330549455002
      vertex 0 12 0
      vertex 0 8 0
    endloop
  endfacet
  facet normal 0.23977271349407536 0.272633547267344 0.9317617693209531
    outer loop
      vertex 4 12 -1.029330549455002
      vertex 4 16 -2.1997307794023335
      vertex 0 12 0
    endloop
  endfacet
  facet normal 0.4818734704195422 0 0.876240810796796
    outer loop
      vertex 4 16 -2.1997307794023335
      vertex 0 16 0
      vertex 0 12 0
    endloop
  endfacet
  facet normal 0.48127135241150837 0.04997509041526772 0.8751459167967267
    outer loop
      vertex 4 16 -2.1997307794023335
      vertex 4 20 -2.42815024388748
      vertex 0 16 0
    endloop
  endfacet
  facet normal 0.5189123658050718 0 0.854827442595629
    outer loop
      vertex 4 20 -2.42815024388748
      vertex 0 20 0
      vertex 0 16 0
    endloop
  endfacet
  facet normal 0.5112830639462077 -0.1708473270312836 0.8422593539807341
    outer loop
      vertex 4 20 -2.42815024388748
      vertex 4 24 -1.6167739084448862
      vertex 0 20 0
    endloop
  endfacet
  facet normal 0.37473989311686395 0 0.9271299868447582
    outer loop
      vertex 4 24 -1.6167739084448862
      vertex 0 24 0
      vertex 0 20 0
    endloop
  endfacet
  facet normal 0.35386260975298944 -0.32911857482368184 0.8754782790708356
    outer loop
      vertex 4 24 -1.6167739084448862
      vertex 4 28 -0.1130537925193025
      vertex 0 24 0
    endloop
  endfacet
  facet normal 0.028252166149451193 0 0.9996008278847432
    outer loop
      vertex 4 28 -0.1130537925193025
      vertex 0 28 0
      vertex 0 24 0
    endloop
  endfacet
  facet normal 0.026340132942480148 -0.3616276722422994 0.9319504407773991
    outer loop
      vertex 4 28 -0.1130537925193025
      vertex 4 32 1.4390788377980042
      vertex 0 28 0
    endloop
  endfacet
  facet normal -0.33852762927509306 0 0.9409564518177158
    outer loop
      vertex 4 32 1.4390788377980042
      vertex 0 32 0
      vertex 0 28 0
    endloop
  endfacet
  facet normal -0.330610299358613 -0.21500723549247877 0.9189497911441571
    outer loop
      vertex 4 32 1.4390788377980042
      vertex 4 36 2.3749612442775994
      vertex 0 32 0
    endloop
  endfacet
  facet normal -0.5105325945358564 0 0.8598584010850198
    outer loop
      vertex 4 36 2.3749612442775994
      vertex 0 36 0
      vertex 0 32 0
    endloop
  endfacet
  facet normal -0.5104549589323766 0.017438824859407627 0.8597276442507061
    outer loop
      vertex 4 36 2.3749612442775994
      vertex 4 40 2.2938247356354635
      vertex 0 36 0
    endloop
  endfacet
  facet normal -0.497464316588755 0 0.867484440045401
    outer loop
      vertex 4 40 2.2938247356354635
      vertex 0 40 0
      vertex 0 36 0
    endloop
  endfacet
  facet normal -0.4847403700051138 0.22472427378122176 0.8452962643125829
    outer loop
      vertex 4 40 2.2938247356354635
      vertex 4 44 1.2304140321043249
      vertex 0 40 0
    endloop
  endfacet
  facet normal -0.29400831343311146 0 0.9558028623268593
    outer loop
      vertex 4 44 1.2304140321043249
      vertex 0 44 0
      vertex 0 40 0
    endloop
  endfacet
  facet normal -0.2748337242282295 0.3552215174362102 0.8934674574807734
    outer loop
      vertex 4 44 1.2304140321043249
      vertex 4 48 -0.3598913090114897
      vertex 0 44 0
    endloop
  endfacet
  facet normal 0.08961085348850827 0 0.9959768546191528
    outer loop
      vertex 4 48 -0.3598913090114897
      vertex 0 48 0
      vertex 0 44 0
    endloop
  endfacet
  facet normal 0.0843779868904099 0.3367207768842957 0.9378163326274278
    outer loop
      vertex 4 48 -0.3598913090114897
      vertex 4 52 -1.7960820221372629
      vertex 0 48 0
    endloop
  endfacet
  facet normal 0.409621464753018 0 0.912255586781244
    outer loop
      vertex 4 52 -1.7960820221372629
      vertex 0 52 0
      vertex 0 48 0
    endloop
  endfacet
  facet normal 0.404961965956983 0.1504023706479557 0.9018785578068315
    outer loop
      vertex 4 52 -1.7960820221372629
      vertex 4 56 -2.4631446520048623
      vertex 0 52 0
    endloop
  endfacet
  facet normal 0.5243454055541767 0 0.851505663912006
    outer loop
      vertex 4 56 -2.4631446520048623
      vertex 0 56 0
      vertex 0 52 0
    endloop
  endfacet
  facet normal -0.32710906297847275 0.19253093947036293 0.9251656599031358
    outer loop
      vertex 8 0 3.887751605453251
      vertex 8 4 3.055334459790837
      vertex 4 0 2.473479212278948
    endloop
  endfacet
  facet normal -0.26556942584559873 0.12654224474006345 0.9557509823966621
    outer loop
      vertex 8 4 3.055334459790837
      vertex 4 4 1.9438758027266256
      vertex 4 0 2.473479212278948
    endloop
  endfacet
  facet normal -0.23794833571431717 0.45831414922074903 0.8563461508962643
    outer loop
      vertex 8 4 3.055334459790837
      vertex 8 8 0.9145452532716238
      vertex 4 4 1.9438758027266256
    endloop
  endfacet
  facet normal -0.07849042562705057 0.32133689392762405 0.9437064446562984
    outer loop
      vertex 8 8 0.9145452532716238
      vertex 4 8 0.5818552475118896
      vertex 4 4 1.9438758027266256
    endloop
  endfacet
  facet normal -0.07010008751814541 0.5335985920804515 0.8428276931020411
    outer loop
      vertex 8 8 0.9145452532716238
      vertex 8 12 -1.6178755318904445
      vertex 4 8 0.5818552475118896
    endloop
  endfacet
  facet normal 0.1352269492827565 0.3701938620731309 0.9190593977926882
    outer loop
      vertex 8 12 -1.6178755318904445
      vertex 4 12 -1.029330549455002
      vertex 4 8 0.5818552475118896
    endloop
  endfacet
  facet normal 0.1324982846863588 0.4141476844025797 0.9005142420079507
    outer loop
      vertex 8 12 -1.6178755318904445
      vertex 8 16 -3.4574807933424814
      vertex 4 12 -1.029330549455002
    endloop
  endfacet
  facet normal 0.28891455519876974 0.2688496585903138 0.9188298214958898
    outer loop
      vertex 8 16 -3.4574807933424814
      vertex 4 16 -2.1997307794023335
      vertex 4 12 -1.029330549455002
    endloop
  endfacet
  facet normal 0.29886484570419025 0.0853107689493392 0.9504745534223854
    outer loop
      vertex 8 16 -3.4574807933424814
      vertex 8 20 -3.8165046878472197
      vertex 4 16 -2.1997307794023335
    endloop
  endfacet
  facet normal 0.32742293093251096 0.05386936374147556 0.9433410390466709
    outer loop
      vertex 8 20 -3.8165046878472197
      vertex 4 20 -2.42815024388748
      vertex 4 16 -2.1997307794023335
    endloop
  endfacet
  facet normal 0.3139665926443853 -0.28840027261909335 0.9045718663856991
    outer loop
      vertex 8 20 -3.8165046878472197
      vertex 8 24 -2.5412040364067834
      vertex 4 20 -2.42815024388748
    endloop
  endfacet
  facet normal 0.22089964842889126 -0.19388458015528748 0.9558305890177401
    outer loop
      vertex 8 24 -2.5412040364067834
      vertex 4 24 -1.6167739084448862
      vertex 4 20 -2.42815024388748
    endloop
  endfacet
  facet normal 0.19514411062679782 -0.4989288439771509 0.8443866322575814
    outer loop
      vertex 8 24 -2.5412040364067834
      vertex 8 28 -0.17769507064688012
      vertex 4 24 -1.6167739084448862
    endloop
  endfacet
  facet normal 0.015125018127344455 -0.3518462918839453 0.935935585771887
    outer loop
      vertex 8 28 -0.17769507064688012
      vertex 4 28 -0.1130537925193025
      vertex 4 24 -1.6167739084448862
    endloop
  endfacet
  facet normal 0.013795419668443124 -0.5206478212628903 0.8536600802487937
    outer loop
      vertex 8 28 -0.17769507064688012
      vertex 8 32 2.2619074517582947
      vertex 4 28 -0.1130537925193025
    endloop
  endfacet
  facet normal -0.18834325680042244 -0.35527898473676023 0.9155892423036802
    outer loop
      vertex 8 32 2.2619074517582947
      vertex 4 32 1.4390788377980042
      vertex 4 28 -0.1130537925193025
    endloop
  endfacet
  facet normal -0.1895652964208741 -0.3388917340844539 0.9215299186472992
    outer loop
      vertex 8 32 2.2619074517582947
      vertex 8 36 3.7329035734334686
      vertex 4 32 1.4390788377980042
    endloop
  endfacet
  facet normal -0.31385551057265193 -0.21630657224169936 0.9245032099934681
    outer loop
      vertex 8 36 3.7329035734334686
      vertex 4 36 2.3749612442775994
      vertex 4 32 1.4390788377980042
    endloop
  endfacet
  facet normal -0.3213196653675497 0.03017606039202618 0.9464898721208286
    outer loop
      vertex 8 36 3.7329035734334686
      vertex 8 40 3.6053752763819227
      vertex 4 36 2.3749612442775994
    endloop
  endfacet
  facet normal -0.3115089263374136 0.019270890376434206 0.9500477996375821
    outer loop
      vertex 8 40 3.6053752763819227
      vertex 4 40 2.2938247356354635
      vertex 4 36 2.3749612442775994
    endloop
  endfacet
  facet normal -0.2895750214187571 0.36903481368578844 0.8831532218467086
    outer loop
      vertex 8 40 3.6053752763819227
      vertex 8 44 1.9339334266239752
      vertex 4 40 2.2938247356354635
    endloop
  endfacet
  facet normal -0.16757216435007358 0.25329512529703263 0.9527650021048172
    outer loop
      vertex 8 44 1.9339334266239752
      vertex 4 44 1.2304140321043249
      vertex 4 40 2.2938247356354635
    endloop
  endfacet
  facet normal -0.1475206125230023 0.5241401088883454 0.8387579001925118
    outer loop
      vertex 8 44 1.9339334266239752
      vertex 8 48 -0.5656679900329395
      vertex 4 44 1.2304140321043249
    endloop
  endfacet
  facet normal 0.047750031159834214 0.36902689466555905 0.9281912979217858
    outer loop
      vertex 8 48 -0.5656679900329395
      vertex 4 48 -0.3598913090114897
      vertex 4 44 1.2304140321043249
    endloop
  endfacet
  facet normal 0.044757276807725274 0.490986843760329 0.8700164972154418
    outer loop
      vertex 8 48 -0.5656679900329395
      vertex 8 52 -2.82303596101635
      vertex 4 48 -0.3598913090114897
    endloop
  endfacet
  facet normal 0.2348756177641807 0.32847255188561264 0.9148438264740315
    outer loop
      vertex 8 52 -2.82303596101635
      vertex 4 52 -1.7960820221372629
      vertex 4 48 -0.3598913090114897
    endloop
  endfacet
  facet normal 0.2410269806409369 0.2460772990336178 0.9388034711820322
    outer loop
      vertex 8 52 -2.82303596101635
      vertex 8 56 -3.87150800692298
      vertex 4 52 -1.7960820221372629
    endloop
  endfacet
  facet normal 0.32807277755102493 0.1553896507012413 0.931784475662104
    outer loop
      vertex 8 56 -3.87150800692298
      vertex 4 56 -2.4631446520048623
      vertex 4 52 -1.7960820221372629
    endloop
  endfacet
  facet normal 0.06137010208138366 0.19074373231170905 0.9797196227259715
    outer loop
      vertex 12 0 3.637189707302727
      vertex 12 4 2.8584210559982495
      vertex 8 0 3.887751605453251
    endloop
  endfacet
  facet normal 0.04813991655659217 0.2035031194457147 0.9778900903525852
    outer loop
      vertex 12 4 2.8584210559982495
      vertex 8 4 3.055334459790837
      vertex 8 0 3.887751605453251
    endloop
  endfacet
  facet normal 0.04397618228324229 0.44728423912996473 0.8933100832397
    outer loop
      vertex 12 4 2.8584210559982495
      vertex 12 8 0.8556036803885039
      vertex 8 4 3.055334459790837
    endloop
  endfacet
  facet normal 0.012990652434800767 0.47182739037540156 0.8815952340166414
    outer loop
      vertex 12 8 0.8556036803885039
      vertex 8 8 0.9145452532716238
      vertex 8 4 3.055334459790837
    endloop
  endfacet
  facet normal 0.012677329794118381 0.509576487430468 0.8603319642831581
    outer loop
      vertex 12 8 0.8556036803885039
      vertex 12 12 -1.5136049906158566
      vertex 8 8 0.9145452532716238
    endloop
  endfacet
  facet normal -0.022019366519411145 0.5347848085204918 0.8447013413472153
    outer loop
      vertex 12 12 -1.5136049906158566
      vertex 8 12 -1.6178755318904445
      vertex 8 8 0.9145452532716238
    endloop
  endfacet
  facet normal -0.023938401916923133 0.39511690694862944 0.918318889469781
    outer loop
      vertex 12 12 -1.5136049906158566
      vertex 12 16 -3.2346494403353305
      vertex 8 12 -1.6178755318904445
    endloop
  endfacet
  facet normal -0.050547236611350646 0.4172974815582511 0.9073630964261755
    outer loop
      vertex 12 16 -3.2346494403353305
      vertex 8 16 -3.4574807933424814
      vertex 8 12 -1.6178755318904445
    endloop
  endfacet
  facet normal -0.055427130554128914 0.08354816124861007 0.9949610735855509
    outer loop
      vertex 12 16 -3.2346494403353305
      vertex 12 20 -3.570534585861785
      vertex 8 16 -3.4574807933424814
    endloop
  endfacet
  facet normal -0.06113176737745839 0.08922940237310831 0.9941333013079513
    outer loop
      vertex 12 20 -3.570534585861785
      vertex 8 20 -3.8165046878472197
      vertex 8 16 -3.4574807933424814
    endloop
  endfacet
  facet normal -0.058824981767796165 -0.2853379295477498 0.9566200329709919
    outer loop
      vertex 12 20 -3.570534585861785
      vertex 12 24 -2.377425850049215
      vertex 8 20 -3.8165046878472197
    endloop
  endfacet
  facet normal -0.03898020795372203 -0.3035293386881995 0.9520244135227778
    outer loop
      vertex 12 24 -2.377425850049215
      vertex 8 24 -2.5412040364067834
      vertex 8 20 -3.8165046878472197
    endloop
  endfacet
  facet normal -0.03581089243648007 -0.48348586832963314 0.8746193429763851
    outer loop
      vertex 12 24 -2.377425850049215
      vertex 12 28 -0.16624279212918325
      vertex 8 24 -2.5412040364067834
    endloop
  endfacet
  facet normal -0.002464919491376069 -0.5087074426928363 0.8609359220759787
    outer loop
      vertex 12 28 -0.16624279212918325
      vertex 8 28 -0.17769507064688012
      vertex 8 24 -2.5412040364067834
    endloop
  endfacet
  facet normal -0.002486727338204755 -0.49559028592519044 0.8685528680994228
    outer loop
      vertex 12 28 -0.16624279212918325
      vertex 12 32 2.116129664988582
      vertex 8 28 -0.17769507064688012
    endloop
  endfacet
  facet normal 0.031099080451236945 -0.5204455136444833 0.8533283743802368
    outer loop
      vertex 12 32 2.116129664988582
      vertex 8 32 2.2619074517582947
      vertex 8 28 -0.17769507064688012
    endloop
  endfacet
  facet normal 0.03444142138749676 -0.3251387155351841 0.945038943193845
    outer loop
      vertex 12 32 2.116129664988582
      vertex 12 36 3.49232148386262
      vertex 8 32 2.2619074517582947
    endloop
  endfacet
  facet normal 0.05635970812468998 -0.3446013467504999 0.93705575880939
    outer loop
      vertex 12 36 3.49232148386262
      vertex 8 36 3.7329035734334686
      vertex 8 32 2.2619074517582947
    endloop
  endfacet
  facet normal 0.06001043635641372 0.029760313133648915 0.9977540134173855
    outer loop
      vertex 12 36 3.49232148386262
      vertex 12 40 3.3730122644219787
      vertex 8 36 3.7329035734334686
    endloop
  endfacet
  facet normal 0.05796363316140765 0.03181230681098721 0.9978117028608621
    outer loop
      vertex 12 40 3.3730122644219787
      vertex 8 40 3.6053752763819227
      vertex 8 36 3.7329035734334686
    endloop
  endfacet
  facet normal 0.05402445687131828 0.36356505070070266 0.9300009741762394
    outer loop
      vertex 12 40 3.3730122644219787
      vertex 12 44 1.8092932542446605
      vertex 8 40 3.6053752763819227
    endloop
  endfacet
  facet normal 0.028739040643084524 0.38539448667128157 0.9223042649724084
    outer loop
      vertex 12 44 1.8092932542446605
      vertex 8 44 1.9339334266239752
      vertex 8 40 3.6053752763819227
    endloop
  endfacet
  facet normal 0.02689051194893295 0.5045209859035803 0.8629805763457273
    outer loop
      vertex 12 44 1.8092932542446605
      vertex 12 48 -0.5292112253808879
      vertex 8 44 1.9339334266239752
    endloop
  endfacet
  facet normal -0.00772893391690998 0.5299223436950999 0.8480109511281092
    outer loop
      vertex 12 48 -0.5292112253808879
      vertex 8 48 -0.5656679900329395
      vertex 8 44 1.9339334266239752
    endloop
  endfacet
  facet normal -0.008059548016915068 0.4668768769702235 0.8842856017352616
    outer loop
      vertex 12 48 -0.5292112253808879
      vertex 12 52 -2.6410939748186544
      vertex 8 48 -0.5656679900329395
    endloop
  endfacet
  facet normal -0.03958178553058636 0.4910942040282723 0.8702067369447609
    outer loop
      vertex 12 52 -2.6410939748186544
      vertex 8 52 -2.82303596101635
      vertex 8 48 -0.5656679900329395
    endloop
  endfacet
  facet normal -0.04413355901737125 0.23793608955000906 0.9702776129840934
    outer loop
      vertex 12 52 -2.6410939748186544
      vertex 12 56 -3.621992993268582
      vertex 8 52 -2.82303596101635
    endloop
  endfacet
  facet normal -0.06023076933040145 0.2530920966296862 0.9655654535294111
    outer loop
      vertex 12 56 -3.621992993268582
      vertex 8 56 -3.87150800692298
      vertex 8 52 -2.82303596101635
    endloop
  endfacet
  facet normal 0.410268896571581 0.08886362848061664 0.9076247506757384
    outer loop
      vertex 16 0 1.829090506543248
      vertex 16 4 1.4374589279003935
      vertex 12 0 3.637189707302727
    endloop
  endfacet
  facet normal 0.32925107695913736 0.18044845254760808 0.9268398374554375
    outer loop
      vertex 16 4 1.4374589279003935
      vertex 12 4 2.8584210559982495
      vertex 12 0 3.637189707302727
    endloop
  endfacet
  facet normal 0.32570353779977873 0.23086099626152928 0.9168535356695977
    outer loop
      vertex 16 4 1.4374589279003935
      vertex 16 8 0.43027081211076934
      vertex 12 4 2.8584210559982495
    endloop
  endfacet
  facet normal 0.09465363159173147 0.445707238154694 0.8901605180432414
    outer loop
      vertex 16 8 0.43027081211076934
      vertex 12 8 0.8556036803885039
      vertex 12 4 2.8584210559982495
    endloop
  endfacet
  facet normal 0.1013834777573474 0.2839950664619272 0.9534506765759364
    outer loop
      vertex 16 8 0.43027081211076934
      vertex 16 12 -0.7611702280563829
      vertex 12 8 0.8556036803885039
    endloop
  endfacet
  facet normal -0.1597698611619281 0.5030710425212224 0.8493486431618694
    outer loop
      vertex 16 12 -0.7611702280563829
      vertex 12 12 -1.5136049906158566
      vertex 12 8 0.8556036803885039
    endloop
  endfacet
  facet normal -0.18082344461032776 0.2079922799789434 0.9612710821346996
    outer loop
      vertex 16 12 -0.7611702280563829
      vertex 16 16 -1.62665878313516
      vertex 12 12 -1.5136049906158566
    endloop
  endfacet
  facet normal -0.34640470882594343 0.37075955560565504 0.8617082624823268
    outer loop
      vertex 16 16 -1.62665878313516
      vertex 12 16 -3.2346494403353305
      vertex 12 12 -1.5136049906158566
    endloop
  endfacet
  facet normal -0.372702014011944 0.03915058523488193 0.927124824620292
    outer loop
      vertex 16 16 -1.62665878313516
      vertex 16 20 -1.7955706025373261
      vertex 12 16 -3.2346494403353305
    endloop
  endfacet
  facet normal -0.404411987906114 0.07652886519763114 0.9113694513364973
    outer loop
      vertex 16 20 -1.7955706025373261
      vertex 12 20 -3.570534585861785
      vertex 12 16 -3.2346494403353305
    endloop
  endfacet
  facet normal -0.4018420805541197 -0.13583607889135932 0.9055779933099948
    outer loop
      vertex 16 20 -1.7955706025373261
      vertex 16 24 -1.1955733415841867
      vertex 12 20 -3.570534585861785
    endloop
  endfacet
  facet normal -0.2724270309140223 -0.2750216868238081 0.9220339389653495
    outer loop
      vertex 16 24 -1.1955733415841867
      vertex 12 24 -2.377425850049215
      vertex 12 20 -3.570534585861785
    endloop
  endfacet
  facet normal -0.2737908231535846 -0.2576021874305877 0.9266497170926341
    outer loop
      vertex 16 24 -1.1955733415841867
      vertex 16 28 -0.08360111441375069
      vertex 12 24 -2.377425850049215
    endloop
  endfacet
  facet normal -0.018078645175876915 -0.48371711499731274 0.8750376650449291
    outer loop
      vertex 16 28 -0.08360111441375069
      vertex 12 28 -0.16624279212918325
      vertex 12 24 -2.377425850049215
    endloop
  endfacet
  facet normal -0.019855114352321658 -0.2757585757793639 0.9610218427893267
    outer loop
      vertex 16 28 -0.08360111441375069
      vertex 16 32 1.0641712399751397
      vertex 12 28 -0.16624279212918325
    endloop
  endfacet
  facet normal 0.22268550618212232 -0.4831476737333124 0.8467464146381138
    outer loop
      vertex 16 32 1.0641712399751397
      vertex 12 32 2.116129664988582
      vertex 12 28 -0.16624279212918325
    endloop
  endfacet
  facet normal 0.2508535833362879 -0.16503267793694615 0.9538536024675401
    outer loop
      vertex 16 32 1.0641712399751397
      vertex 16 36 1.7562383559770935
      vertex 12 32 2.116129664988582
    endloop
  endfacet
  facet normal 0.3796779956594573 -0.30097046796914145 0.874792202195729
    outer loop
      vertex 16 36 1.7562383559770935
      vertex 12 36 3.49232148386262
      vertex 12 32 2.116129664988582
    endloop
  endfacet
  facet normal 0.3981006064532694 0.013758325165704273 0.9172385816297599
    outer loop
      vertex 16 36 1.7562383559770935
      vertex 16 40 1.6962394617253567
      vertex 12 36 3.49232148386262
    endloop
  endfacet
  facet normal 0.38645371002192463 0.027497756654034946 0.921898803225867
    outer loop
      vertex 16 40 1.6962394617253567
      vertex 12 40 3.3730122644219787
      vertex 12 36 3.49232148386262
    endloop
  endfacet
  facet normal 0.38039815783313186 0.17839888765348105 0.907453072285923
    outer loop
      vertex 16 40 1.6962394617253567
      vertex 16 44 0.9098676124171178
      vertex 12 40 3.3730122644219787
    endloop
  endfacet
  facet normal 0.20497585662351578 0.35636591700710035 0.9115855590108612
    outer loop
      vertex 16 44 0.9098676124171178
      vertex 12 44 1.8092932542446605
      vertex 12 40 3.3730122644219787
    endloop
  endfacet
  facet normal 0.21087530220323966 0.2757197662371832 0.937822060641999
    outer loop
      vertex 16 44 0.9098676124171178
      vertex 16 48 -0.26613273054105663
      vertex 12 44 1.8092932542446605
    endloop
  endfacet
  facet normal -0.05668713949484315 0.5038919267291565 0.8619045738323186
    outer loop
      vertex 16 48 -0.26613273054105663
      vertex 12 48 -0.5292112253808879
      vertex 12 44 1.8092932542446605
    endloop
  endfacet
  facet normal -0.06343915131729655 0.2561008741841761 0.9645661285377182
    outer loop
      vertex 16 48 -0.26613273054105663
      vertex 16 52 -1.3281682576331177
      vertex 12 48 -0.5292112253808879
    endloop
  endfacet
  facet normal -0.27875454849660075 0.44838555189493057 0.8492622083575454
    outer loop
      vertex 16 52 -1.3281682576331177
      vertex 12 52 -2.6410939748186544
      vertex 12 48 -0.5292112253808879
    endloop
  endfacet
  facet normal -0.3097427666493941 0.11637362431923313 0.9436718699162253
    outer loop
      vertex 16 52 -1.3281682576331177
      vertex 16 56 -1.82144829714331
      vertex 12 52 -2.6410939748186544
    endloop
  endfacet
  facet normal -0.40057504767751084 0.21822489157195898 0.8898974816666055
    outer loop
      vertex 16 56 -1.82144829714331
      vertex 12 56 -3.621992993268582
      vertex 12 52 -2.6410939748186544
    endloop
  endfacet
  facet normal 0.5433951477178126 -0.03422472762511192 0.8387791017042112
    outer loop
      vertex 20 0 -0.7622718515019415
      vertex 20 4 -0.5990597373442333
      vertex 16 0 1.829090506543248
    endloop
  endfacet
  facet normal 0.45199329699398916 0.08692031723484422 0.8877763895961065
    outer loop
      vertex 20 4 -0.5990597373442333
      vertex 16 4 1.4374589279003935
      vertex 16 0 1.829090506543248
    endloop
  endfacet
  facet normal 0.45173957642237356 -0.09310757710116548 0.8872780478407459
    outer loop
      vertex 20 4 -0.5990597373442333
      vertex 20 8 -0.17931498054449344
      vertex 16 4 1.4374589279003935
    endloop
  endfacet
  facet normal 0.1461957389891384 0.24155190731653733 0.9593119836493041
    outer loop
      vertex 20 8 -0.17931498054449344
      vertex 16 8 0.43027081211076934
      vertex 16 4 1.4374589279003935
    endloop
  endfacet
  facet normal 0.14953527188017457 -0.12180245755748349 0.9812254398438107
    outer loop
      vertex 20 8 -0.17931498054449344
      vertex 20 12 0.3172170195914661
      vertex 16 8 0.43027081211076934
    endloop
  endfacet
  facet normal -0.2501630986230111 0.27638919422030206 0.9279156413196115
    outer loop
      vertex 20 12 0.3172170195914661
      vertex 16 12 -0.7611702280563829
      vertex 16 8 0.43027081211076934
    endloop
  endfacet
  facet normal -0.2593219945614068 -0.08673624691248977 0.9618882089974018
    outer loop
      vertex 20 12 0.3172170195914661
      vertex 20 16 0.6779086097416227
      vertex 16 12 -0.7611702280563829
    endloop
  endfacet
  facet normal -0.490665656906655 0.1842712483633692 0.851640370202685
    outer loop
      vertex 20 16 0.6779086097416227
      vertex 16 16 -1.62665878313516
      vertex 16 12 -0.7611702280563829
    endloop
  endfacet
  facet normal -0.49915646220980187 -0.015246916160994694 0.8663777223484999
    outer loop
      vertex 20 16 0.6779086097416227
      vertex 20 20 0.7483024611424399
      vertex 16 16 -1.62665878313516
    endloop
  endfacet
  facet normal -0.5362976595437038 0.035609879560426834 0.8432773902137051
    outer loop
      vertex 20 20 0.7483024611424399
      vertex 16 20 -1.7955706025373261
      vertex 16 16 -1.62665878313516
    endloop
  endfacet
  facet normal -0.5358929959785881 0.052675249236400525 0.8426410949977317
    outer loop
      vertex 20 20 0.7483024611424399
      vertex 20 24 0.4982541330981386
      vertex 16 20 -1.7955706025373261
    endloop
  endfacet
  facet normal -0.38626937663079336 -0.13682654900376975 0.9121811575366909
    outer loop
      vertex 20 24 0.4982541330981386
      vertex 16 24 -1.1955733415841867
      vertex 16 20 -1.7955706025373261
    endloop
  endfacet
  facet normal -0.3877365168750898 0.1060806468096685 0.9156458321065059
    outer loop
      vertex 20 24 0.4982541330981386
      vertex 20 28 0.0348406905201378
      vertex 16 24 -1.1955733415841867
    endloop
  endfacet
  facet normal -0.02851701332864319 -0.26772748727529305 0.9630725686614025
    outer loop
      vertex 20 28 0.0348406905201378
      vertex 16 28 -0.08360111441375069
      vertex 16 24 -1.1955733415841867
    endloop
  endfacet
  facet normal -0.029388278969558732 0.11868602476001637 0.9924968295092294
    outer loop
      vertex 20 28 0.0348406905201378
      vertex 20 32 -0.4434924234252411
      vertex 16 28 -0.08360111441375069
    endloop
  endfacet
  facet normal 0.3406296681233643 -0.2593186568381426 0.903728534135018
    outer loop
      vertex 20 32 -0.4434924234252411
      vertex 16 32 1.0641712399751397
      vertex 16 28 -0.08360111441375069
    endloop
  endfacet
  facet normal 0.3518946506608052 0.06731798348377754 0.9336157903206155
    outer loop
      vertex 20 32 -0.4434924234252411
      vertex 20 36 -0.7319107821621245
      vertex 16 32 1.0641712399751397
    endloop
  endfacet
  facet normal 0.5225792384802139 -0.14535298584552256 0.8401091887458625
    outer loop
      vertex 20 36 -0.7319107821621245
      vertex 16 36 1.7562383559770935
      vertex 16 32 1.0641712399751397
    endloop
  endfacet
  facet normal 0.5281812349378359 -0.005307921524071662 0.8491150740792658
    outer loop
      vertex 20 36 -0.7319107821621245
      vertex 20 40 -0.7069062960277697
      vertex 16 36 1.7562383559770935
    endloop
  endfacet
  facet normal 0.5149487909600243 0.012856630919781363 0.85712452405132
    outer loop
      vertex 20 40 -0.7069062960277697
      vertex 16 40 1.6962394617253567
      vertex 16 36 1.7562383559770935
    endloop
  endfacet
  facet normal 0.5137260011531736 -0.07005741034317589 0.8550892087935489
    outer loop
      vertex 20 40 -0.7069062960277697
      vertex 20 44 -0.37918652306036027
      vertex 16 40 1.6962394617253567
    endloop
  endfacet
  facet normal 0.3014967054221821 0.1839244103703704 0.9355594838862368
    outer loop
      vertex 20 44 -0.37918652306036027
      vertex 16 44 0.9098676124171178
      vertex 16 40 1.6962394617253567
    endloop
  endfacet
  facet normal 0.3046646946908309 -0.11583321461334342 0.9453899143746363
    outer loop
      vertex 20 44 -0.37918652306036027
      vertex 20 48 0.11091058016488693
      vertex 16 44 0.9098676124171178
    endloop
  endfacet
  facet normal -0.09006592448101133 0.2809161575634465 0.9554968559169462
    outer loop
      vertex 20 48 0.11091058016488693
      vertex 16 48 -0.26613273054105663
      vertex 16 44 0.9098676124171178
    endloop
  endfacet
  facet normal -0.09328053249833759 -0.10949984604853441 0.9896001849091248
    outer loop
      vertex 20 48 0.11091058016488693
      vertex 20 52 0.55351294713429
      vertex 16 48 -0.26613273054105663
    endloop
  endfacet
  facet normal -0.4138948842131607 0.23360549619262766 0.8798406088438805
    outer loop
      vertex 20 52 0.55351294713429
      vertex 16 52 -1.3281682576331177
      vertex 16 48 -0.26613273054105663
    endloop
  endfacet
  facet normal -0.42521306802193304 -0.046454606487013606 0.9039003353907509
    outer loop
      vertex 20 52 0.55351294713429
      vertex 20 56 0.7590869674909991
      vertex 16 52 -1.3281682576331177
    endloop
  endfacet
  facet normal -0.5392230783934824 0.10307473223096521 0.8358313653503145
    outer loop
      vertex 20 56 0.7590869674909991
      vertex 16 56 -1.82144829714331
      vertex 16 52 -1.3281682576331177
    endloop
  endfacet
  facet normal 0.4879014235341147 -0.13962423171643423 0.8616596049664739
    outer loop
      vertex 24 0 -3.027209981231713
      vertex 24 4 -2.379045759946827
      vertex 20 0 -0.7622718515019415
    endloop
  endfacet
  facet normal 0.40627740011737606 -0.037252760732750204 0.9129900908397933
    outer loop
      vertex 24 4 -2.379045759946827
      vertex 20 4 -0.5990597373442333
      vertex 20 0 -0.7622718515019415
    endloop
  endfacet
  facet normal 0.37995212571148873 -0.3558198975692428 0.8538317062870966
    outer loop
      vertex 24 4 -2.379045759946827
      vertex 24 8 -0.7121135298635363
      vertex 20 4 -0.5990597373442333
    endloop
  endfacet
  facet normal 0.1313249751504151 -0.10345930901406213 0.9859259212943311
    outer loop
      vertex 24 8 -0.7121135298635363
      vertex 20 8 -0.17931498054449344
      vertex 20 4 -0.5990597373442333
    endloop
  endfacet
  facet normal 0.11862785374852411 -0.43903945044127857 0.8906019275025396
    outer loop
      vertex 24 8 -0.7121135298635363
      vertex 24 12 1.2597638572535117
      vertex 20 8 -0.17931498054449344
    endloop
  endfacet
  facet normal -0.22769928390010097 -0.11995157836918122 0.9663149874435993
    outer loop
      vertex 24 12 1.2597638572535117
      vertex 20 12 0.3172170195914661
      vertex 20 8 -0.17931498054449344
    endloop
  endfacet
  facet normal -0.21657613369252118 -0.3291367194014146 0.9191103297518061
    outer loop
      vertex 24 12 1.2597638572535117
      vertex 24 16 2.6921782638690646
      vertex 20 12 0.3172170195914661
    endloop
  endfacet
  facet normal -0.4483091715175912 -0.0802779050075232 0.890266445903031
    outer loop
      vertex 24 16 2.6921782638690646
      vertex 20 16 0.6779086097416227
      vertex 20 12 0.3172170195914661
    endloop
  endfacet
  facet normal -0.4488870951521924 -0.06229983568288942 0.891414104824302
    outer loop
      vertex 24 16 2.6921782638690646
      vertex 24 20 2.971733345377086
      vertex 20 16 0.6779086097416227
    endloop
  endfacet
  facet normal -0.48578726974537423 -0.015380031428607199 0.8739417504539935
    outer loop
      vertex 24 20 2.971733345377086
      vertex 20 20 0.7483024611424399
      vertex 20 16 0.6779086097416227
    endloop
  endfacet
  facet normal -0.47479596295886944 0.21205084263453308 0.8541681530564953
    outer loop
      vertex 24 20 2.971733345377086
      vertex 24 24 1.9787164932467636
      vertex 20 20 0.7483024611424399
    endloop
  endfacet
  facet normal -0.3465092735558978 0.058525003294105586 0.9362190701588966
    outer loop
      vertex 24 24 1.9787164932467636
      vertex 20 24 0.4982541330981386
      vertex 20 20 0.7483024611424399
    endloop
  endfacet
  facet normal -0.3187021763311371 0.3961767184148071 0.8610882246250214
    outer loop
      vertex 24 24 1.9787164932467636
      vertex 24 28 0.13836282408664757
      vertex 20 24 0.4982541330981386
    endloop
  endfacet
  facet normal -0.025700086591910705 0.11504559645168444 0.9930277016711289
    outer loop
      vertex 24 28 0.13836282408664757
      vertex 20 28 0.0348406905201378
      vertex 20 24 0.4982541330981386
    endloop
  endfacet
  facet normal -0.023371814217348585 0.42886669627117047 0.9030653991431858
    outer loop
      vertex 24 28 0.13836282408664757
      vertex 24 32 -1.761241331617125
      vertex 20 28 0.0348406905201378
    endloop
  endfacet
  facet normal 0.31089651524282114 0.11285313713893881 0.9437200465433434
    outer loop
      vertex 24 32 -1.761241331617125
      vertex 20 32 -0.4434924234252411
      vertex 20 28 0.0348406905201378
    endloop
  endfacet
  facet normal 0.3019280672374187 0.26243779903861664 0.9164965050942877
    outer loop
      vertex 24 32 -1.761241331617125
      vertex 24 36 -2.906637075430103
      vertex 20 32 -0.4434924234252411
    endloop
  endfacet
  facet normal 0.47669569736112 0.06322073314487052 0.8767920796962189
    outer loop
      vertex 24 36 -2.906637075430103
      vertex 20 36 -0.7319107821621245
      vertex 20 32 -0.4434924234252411
    endloop
  endfacet
  facet normal 0.47753764208891103 -0.021804875086171797 0.8783406786723701
    outer loop
      vertex 24 36 -2.906637075430103
      vertex 24 40 -2.8073367669478393
      vertex 20 36 -0.7319107821621245
    endloop
  endfacet
  facet normal 0.46490147032973783 -0.005534399985927148 0.8853451266608089
    outer loop
      vertex 24 40 -2.8073367669478393
      vertex 20 40 -0.7069062960277697
      vertex 20 36 -0.7319107821621245
    endloop
  endfacet
  facet normal 0.44674196580629455 -0.27681125868473183 0.8507626831572376
    outer loop
      vertex 24 40 -2.8073367669478393
      vertex 24 44 -1.50586332828
      vertex 20 40 -0.7069062960277697
    endloop
  endfacet
  facet normal 0.2702803305732865 -0.07861722914919361 0.9595665032638949
    outer loop
      vertex 24 44 -1.50586332828
      vertex 20 44 -0.37918652306036027
      vertex 20 40 -0.7069062960277697
    endloop
  endfacet
  facet normal 0.24552471083344835 -0.4241413887173017 0.8716775199275878
    outer loop
      vertex 24 44 -1.50586332828
      vertex 24 48 0.4404591546149866
      vertex 20 44 -0.37918652306036027
    endloop
  endfacet
  facet normal -0.0815035510250314 -0.12121021711774223 0.9892751156460874
    outer loop
      vertex 24 48 0.4404591546149866
      vertex 20 48 0.11091058016488693
      vertex 20 44 -0.37918652306036027
    endloop
  endfacet
  facet normal -0.07521248145997039 -0.401159310418756 0.9129152700535695
    outer loop
      vertex 24 48 0.4404591546149866
      vertex 24 52 2.198165805289002
      vertex 20 48 0.11091058016488693
    endloop
  endfacet
  facet normal -0.3782982932975526 -0.10180611622919862 0.9200684300564204
    outer loop
      vertex 24 52 2.198165805289002
      vertex 20 52 0.55351294713429
      vertex 20 48 0.11091058016488693
    endloop
  endfacet
  facet normal -0.37367487837750724 -0.18549002122732805 0.9088237107902943
    outer loop
      vertex 24 52 2.198165805289002
      vertex 24 56 3.014561852289271
      vertex 20 52 0.55351294713429
    endloop
  endfacet
  facet normal -0.49067522365673555 -0.04472232393115932 0.8701940810138903
    outer loop
      vertex 24 56 3.014561852289271
      vertex 20 56 0.7590869674909991
      vertex 20 52 0.55351294713429
    endloop
  endfacet
  facet normal 0.23042431962942567 -0.20352974736970844 0.9515672729024148
    outer loop
      vertex 28 0 -3.995819668391713
      vertex 28 4 -3.140263773751016
      vertex 24 0 -3.027209981231713
    endloop
  endfacet
  facet normal 0.18462482325068325 -0.15720490401179762 0.9701547777516202
    outer loop
      vertex 28 4 -3.140263773751016
      vertex 24 4 -2.379045759946827
      vertex 24 0 -3.027209981231713
    endloop
  endfacet
  facet normal 0.16447186934157168 -0.4754051135506588 0.8642563174227736
    outer loop
      vertex 28 4 -3.140263773751016
      vertex 28 8 -0.9399669221488225
      vertex 24 4 -2.379045759946827
    endloop
  endfacet
  facet normal 0.052507778878147046 -0.38413695782277835 0.9217818238563529
    outer loop
      vertex 28 8 -0.9399669221488225
      vertex 24 8 -0.7121135298635363
      vertex 24 4 -2.379045759946827
    endloop
  endfacet
  facet normal 0.04769087092746927 -0.544782307761429 0.8372202923844543
    outer loop
      vertex 28 8 -0.9399669221488225
      vertex 28 12 1.662847714414063
      vertex 24 8 -0.7121135298635363
    endloop
  endfacet
  facet normal -0.09001809168796027 -0.4403665298861536 0.8932939395993266
    outer loop
      vertex 28 12 1.662847714414063
      vertex 24 12 1.2597638572535117
      vertex 24 8 -0.7121135298635363
    endloop
  endfacet
  facet normal -0.09072995179161605 -0.4255859561404817 0.9003580786464256
    outer loop
      vertex 28 12 1.662847714414063
      vertex 28 16 3.553588592888975
      vertex 24 12 1.2597638572535117
    endloop
  endfacet
  facet normal -0.19870204024997157 -0.3304158952932452 0.9226824130425711
    outer loop
      vertex 28 16 3.553588592888975
      vertex 24 16 2.6921782638690646
      vertex 24 12 1.2597638572535117
    endloop
  endfacet
  facet normal -0.20967522615661646 -0.08981890777288905 0.9736369258315222
    outer loop
      vertex 28 16 3.553588592888975
      vertex 28 20 3.9225922959733888
      vertex 24 16 2.6921782638690646
    endloop
  endfacet
  facet normal -0.23073743046021272 -0.06783742335159652 0.9706484029645517
    outer loop
      vertex 28 20 3.9225922959733888
      vertex 24 20 2.971733345377086
      vertex 24 16 2.6921782638690646
    endloop
  endfacet
  facet normal -0.2203436896687315 0.30374173609567073 0.9269248168955008
    outer loop
      vertex 28 20 3.9225922959733888
      vertex 28 24 2.6118420363655965
      vertex 24 20 2.971733345377086
    endloop
  endfacet
  facet normal -0.1518372666880953 0.23814702509070143 0.9592869429347701
    outer loop
      vertex 28 24 2.6118420363655965
      vertex 24 24 1.9787164932467636
      vertex 24 20 2.971733345377086
    endloop
  endfacet
  facet normal -0.1340660855294156 0.5143914232365772 0.8470110674669298
    outer loop
      vertex 28 24 2.6118420363655965
      vertex 28 28 0.1826344711094986
      vertex 24 24 1.9787164932467636
    endloop
  endfacet
  facet normal -0.010054246388664475 0.4179507760907994 0.908414036051103
    outer loop
      vertex 28 28 0.1826344711094986
      vertex 24 28 0.13836282408664757
      vertex 24 24 1.9787164932467636
    endloop
  endfacet
  facet normal -0.009377335344910278 0.5311047830034511 0.847254256438223
    outer loop
      vertex 28 28 0.1826344711094986
      vertex 28 32 -2.3247818279182124
      vertex 24 28 0.13836282408664757
    endloop
  endfacet
  facet normal 0.12624502203012278 0.4255516152954646 0.8960848269734483
    outer loop
      vertex 28 32 -2.3247818279182124
      vertex 24 32 -1.761241331617125
      vertex 24 28 0.13836282408664757
    endloop
  endfacet
  facet normal 0.13065596822316122 0.35052824710394315 0.927393641314143
    outer loop
      vertex 28 32 -2.3247818279182124
      vertex 28 36 -3.836667316402842
      vertex 24 32 -1.761241331617125
    endloop
  endfacet
  facet normal 0.2181410045766278 0.2686555417077891 0.938210371948634
    outer loop
      vertex 28 36 -3.836667316402842
      vertex 24 36 -2.906637075430103
      vertex 24 32 -1.761241331617125
    endloop
  endfacet
  facet normal 0.22635149511457445 -0.03190070113453618 0.9735231614740977
    outer loop
      vertex 28 36 -3.836667316402842
      vertex 28 40 -3.7055941076823324
      vertex 24 36 -2.906637075430103
    endloop
  endfacet
  facet normal 0.21904333374141124 -0.024214742952971595 0.9754146114177142
    outer loop
      vertex 28 40 -3.7055941076823324
      vertex 24 40 -2.8073367669478393
      vertex 24 36 -2.906637075430103
    endloop
  endfacet
  facet normal 0.2020824775315282 -0.38647955588682853 0.8998867846325109
    outer loop
      vertex 28 40 -3.7055941076823324
      vertex 28 44 -1.9876910892724946
      vertex 24 40 -2.8073367669478393
    endloop
  endfacet
  facet normal 0.11380208800490949 -0.3073928212401957 0.9447532684334656
    outer loop
      vertex 28 44 -1.9876910892724946
      vertex 24 44 -1.50586332828
      vertex 24 40 -2.8073367669478393
    endloop
  endfacet
  facet normal 0.10083621975012023 -0.5376539865837765 0.83711423802076
    outer loop
      vertex 28 44 -1.9876910892724946
      vertex 28 48 0.5813918968441172
      vertex 24 44 -1.50586332828
    endloop
  endfacet
  facet normal -0.031665855400407256 -0.43731474553806726 0.8987508480867966
    outer loop
      vertex 28 48 0.5813918968441172
      vertex 24 48 0.4404591546149866
      vertex 24 44 -1.50586332828
    endloop
  endfacet
  facet normal -0.030463275292515496 -0.501504024287805 0.8646188191807931
    outer loop
      vertex 28 48 0.5813918968441172
      vertex 28 52 2.9015080597699665
      vertex 24 48 0.4404591546149866
    endloop
  endfacet
  facet normal -0.15893280063127127 -0.3971853516549865 0.9038717615426456
    outer loop
      vertex 28 52 2.9015080597699665
      vertex 24 52 2.198165805289002
      vertex 24 48 0.4404591546149866
    endloop
  endfacet
  facet normal -0.16738679478823118 -0.2564594525957315 0.9519507393267891
    outer loop
      vertex 28 52 2.9015080597699665
      vertex 28 56 3.9791245455855973
      vertex 24 52 2.198165805289002
    endloop
  endfacet
  facet normal -0.2299389684790937 -0.1946180027719372 0.9535470118310019
    outer loop
      vertex 28 56 3.9791245455855973
      vertex 24 56 3.014561852289271
      vertex 24 52 2.198165805289002
    endloop
  endfacet
  facet normal -0.17989004698386798 -0.1687634571682981 0.9691018865530836
    outer loop
      vertex 32 0 -3.2533175662703204
      vertex 32 4 -2.5567408305937094
      vertex 28 0 -3.995819668391713
    endloop
  endfacet
  facet normal -0.14122438586998712 -0.20706187685495614 0.9680811184962487
    outer loop
      vertex 32 4 -2.5567408305937094
      vertex 28 4 -3.140263773751016
      vertex 28 0 -3.995819668391713
    endloop
  endfacet
  facet normal -0.13197368096975298 -0.40516437202934547 0.9046683255035295
    outer loop
      vertex 32 4 -2.5567408305937094
      vertex 32 8 -0.7653025294734176
      vertex 28 4 -3.140263773751016
    endloop
  endfacet
  facet normal -0.03823175913305585 -0.4816163040626516 0.8755478674833395
    outer loop
      vertex 32 8 -0.7653025294734176
      vertex 28 8 -0.9399669221488225
      vertex 28 4 -3.140263773751016
    endloop
  endfacet
  facet normal -0.03855684000705254 -0.46780070649343763 0.8829925645739669
    outer loop
      vertex 32 8 -0.7653025294734176
      vertex 32 12 1.3538578134866421
      vertex 28 8 -0.9399669221488225
    endloop
  endfacet
  facet normal 0.064611537387653 -0.544263274296837 0.8364226428595116
    outer loop
      vertex 32 12 1.3538578134866421
      vertex 28 12 1.662847714414063
      vertex 28 8 -0.9399669221488225
    endloop
  endfacet
  facet normal 0.07190627905446881 -0.3582408630634447 0.9308560420731549
    outer loop
      vertex 32 12 1.3538578134866421
      vertex 32 16 2.893261746518388
      vertex 28 12 1.662847714414063
    endloop
  endfacet
  facet normal 0.14761323213657804 -0.42266700761670933 0.8941828305053332
    outer loop
      vertex 32 16 2.893261746518388
      vertex 28 16 3.553588592888975
      vertex 28 12 1.662847714414063
    endloop
  endfacet
  facet normal 0.16243186452879843 -0.07390325680710289 0.9839482699913656
    outer loop
      vertex 32 16 2.893261746518388
      vertex 32 20 3.1936972838774866
      vertex 28 16 3.553588592888975
    endloop
  endfacet
  facet normal 0.17853788102573667 -0.09038495002168183 0.9797728235914782
    outer loop
      vertex 32 20 3.1936972838774866
      vertex 28 20 3.9225922959733888
      vertex 28 16 3.553588592888975
    endloop
  endfacet
  facet normal 0.17339818210590252 0.25387509097655664 0.9515673957340138
    outer loop
      vertex 32 20 3.1936972838774866
      vertex 32 24 2.126510273836126
      vertex 28 20 3.9225922959733888
    endloop
  endfacet
  facet normal 0.11454147803704877 0.3093456552079781 0.9440262260197199
    outer loop
      vertex 32 24 2.126510273836126
      vertex 28 24 2.6118420363655965
      vertex 28 20 3.9225922959733888
    endloop
  endfacet
  facet normal 0.10812606241630927 0.4406328545665946 0.8911517503224905
    outer loop
      vertex 32 24 2.126510273836126
      vertex 32 28 0.14869738436073346
      vertex 28 24 2.6118420363655965
    endloop
  endfacet
  facet normal 0.007251547185525297 0.5190638021848057 0.8547047351716668
    outer loop
      vertex 32 28 0.14869738436073346
      vertex 28 28 0.1826344711094986
      vertex 28 24 2.6118420363655965
    endloop
  endfacet
  facet normal 0.00755673548414957 0.45457619006895333 0.890675801384105
    outer loop
      vertex 32 28 0.14869738436073346
      vertex 32 32 -1.8927915136762161
      vertex 28 28 0.1826344711094986
    endloop
  endfacet
  facet normal -0.0911247219643281 0.5289183705395035 0.8437663434581639
    outer loop
      vertex 32 32 -1.8927915136762161
      vertex 28 32 -2.3247818279182124
      vertex 28 28 0.1826344711094986
    endloop
  endfacet
  facet normal -0.10267500155699094 0.29257026500614525 0.9507157746085345
    outer loop
      vertex 32 32 -1.8927915136762161
      vertex 32 36 -3.123738860170445
      vertex 28 32 -2.3247818279182124
    endloop
  endfacet
  facet normal -0.16445064862673464 0.34874544150556036 0.9226768671617047
    outer loop
      vertex 32 36 -3.123738860170445
      vertex 28 36 -3.836667316402842
      vertex 28 32 -2.3247818279182124
    endloop
  endfacet
  facet normal -0.17540640833580162 -0.026256329589938815 0.9841459226513102
    outer loop
      vertex 32 36 -3.123738860170445
      vertex 32 40 -3.017021638727496
      vertex 28 36 -3.836667316402842
    endloop
  endfacet
  facet normal -0.16955946877609757 -0.032276491790562536 0.9849912764212998
    outer loop
      vertex 32 40 -3.017021638727496
      vertex 28 40 -3.7055941076823324
      vertex 28 36 -3.836667316402842
    endloop
  endfacet
  facet normal -0.16039164363258435 -0.3258001681697471 0.9317342813664219
    outer loop
      vertex 32 40 -3.017021638727496
      vertex 32 44 -1.6183388825582181
      vertex 28 40 -3.7055941076823324
    endloop
  endfacet
  facet normal -0.084540517272539 -0.39320845296254775 0.915554484155963
    outer loop
      vertex 32 44 -1.6183388825582181
      vertex 28 44 -1.9876910892724946
      vertex 28 40 -3.7055941076823324
    endloop
  endfacet
  facet normal -0.08155315330434285 -0.4618476847116374 0.8832020150071094
    outer loop
      vertex 32 44 -1.6183388825582181
      vertex 32 48 0.47335781588248793
      vertex 28 44 -1.9876910892724946
    endloop
  endfacet
  facet normal 0.02271917986476466 -0.5402689404079859 0.8411856578049253
    outer loop
      vertex 32 48 0.47335781588248793
      vertex 28 48 0.5813918968441172
      vertex 28 44 -1.9876910892724946
    endloop
  endfacet
  facet normal 0.024414892900030447 -0.426898225165874 0.9039700317792104
    outer loop
      vertex 32 48 0.47335781588248793
      vertex 32 52 2.3623506371407106
      vertex 28 48 0.5813918968441172
    endloop
  endfacet
  facet normal 0.11581098720413334 -0.4983608348492919 0.8591997983770253
    outer loop
      vertex 32 52 2.3623506371407106
      vertex 28 52 2.9015080597699665
      vertex 28 48 0.5813918968441172
    endloop
  endfacet
  facet normal 0.1305329088872976 -0.2124169811382496 0.9684214918213727
    outer loop
      vertex 32 52 2.3623506371407106
      vertex 32 56 3.239724726551896
      vertex 28 52 2.9015080597699665
    endloop
  endfacet
  facet normal 0.1757093850249356 -0.2560824673487868 0.9505514094096734
    outer loop
      vertex 32 56 3.239724726551896
      vertex 28 56 3.9791245455855973
      vertex 28 52 2.9015080597699665
    endloop
  endfacet
  facet normal -0.47033237182091714 -0.05270194554632399 0.8809142778687056
    outer loop
      vertex 36 0 -1.1176619927957034
      vertex 36 4 -0.8783563219927204
      vertex 32 0 -3.2533175662703204
    endloop
  endfacet
  facet normal -0.3820217832573191 -0.15854977531969355 0.9104511661055593
    outer loop
      vertex 36 4 -0.8783563219927204
      vertex 32 4 -2.5567408305937094
      vertex 32 0 -3.2533175662703204
    endloop
  endfacet
  facet normal -0.3830795944305879 -0.14046995271968696 0.9129721883572495
    outer loop
      vertex 36 4 -0.8783563219927204
      vertex 36 8 -0.26291609495824453
      vertex 32 4 -2.5567408305937094
    endloop
  endfacet
  facet normal -0.11388018123943346 -0.4060804679324599 0.9067138235874803
    outer loop
      vertex 36 8 -0.26291609495824453
      vertex 32 8 -0.7653025294734176
      vertex 32 4 -2.5567408305937094
    endloop
  endfacet
  facet normal -0.12263393360939885 -0.17771357253051326 0.9764111861638658
    outer loop
      vertex 36 8 -0.26291609495824453
      vertex 36 12 0.46511150263090706
      vertex 32 8 -0.7653025294734176
    endloop
  endfacet
  facet normal 0.19265698013544164 -0.45937859556836363 0.8670954929756755
    outer loop
      vertex 36 12 0.46511150263090706
      vertex 32 12 1.3538578134866421
      vertex 32 8 -0.7653025294734176
    endloop
  endfacet
  facet normal 0.21511301040340006 -0.1280045724230047 0.9681638405734798
    outer loop
      vertex 36 12 0.46511150263090706
      vertex 36 16 0.9939665044751519
      vertex 32 12 1.3538578134866421
    endloop
  endfacet
  facet normal 0.40514213996077547 -0.3283730669601278 0.8532473119343552
    outer loop
      vertex 36 16 0.9939665044751519
      vertex 32 16 2.893261746518388
      vertex 32 12 1.3538578134866421
    endloop
  endfacet
  facet normal 0.42881047683940005 -0.02330280678026465 0.9030938789234085
    outer loop
      vertex 36 16 0.9939665044751519
      vertex 36 20 1.0971797243811234
      vertex 32 16 2.893261746518388
    endloop
  endfacet
  facet normal 0.46320544686772425 -0.06637835047315171 0.8837616356125305
    outer loop
      vertex 36 20 1.0971797243811234
      vertex 32 20 3.1936972838774866
      vertex 32 16 2.893261746518388
    endloop
  endfacet
  facet normal 0.46270706548304325 0.0809155856256888 0.8828107608966503
    outer loop
      vertex 36 20 1.0971797243811234
      vertex 36 24 0.7305526318726238
      vertex 32 20 3.1936972838774866
    endloop
  endfacet
  facet normal 0.3195190371513135 0.2442671293587288 0.9155551072506468
    outer loop
      vertex 36 24 0.7305526318726238
      vertex 32 24 2.126510273836126
      vertex 32 20 3.1936972838774866
    endloop
  endfacet
  facet normal 0.3253425928999936 0.15835723506359864 0.9322420197288476
    outer loop
      vertex 36 24 0.7305526318726238
      vertex 36 28 0.05108428905040895
      vertex 32 24 2.126510273836126
    endloop
  endfacet
  facet normal 0.021870038636755136 0.4431254246326937 0.8961928137706314
    outer loop
      vertex 36 28 0.05108428905040895
      vertex 32 28 0.14869738436073346
      vertex 32 24 2.126510273836126
    endloop
  endfacet
  facet normal 0.024029654992050932 0.17265155645257105 0.9846898068607532
    outer loop
      vertex 36 28 0.05108428905040895
      vertex 36 32 -0.6502596478914955
      vertex 32 28 0.14869738436073346
    endloop
  endfacet
  facet normal -0.2666625312430347 0.43812847947467165 0.8584489093150911
    outer loop
      vertex 36 32 -0.6502596478914955
      vertex 32 32 -1.8927915136762161
      vertex 32 28 0.14869738436073346
    endloop
  endfacet
  facet normal -0.2951497160897453 0.10045194155236392 0.950155804345005
    outer loop
      vertex 36 32 -0.6502596478914955
      vertex 36 36 -1.0731458360008699
      vertex 32 32 -1.8927915136762161
    endloop
  endfacet
  facet normal -0.43999519560994976 0.26412404222705865 0.8582789279469705
    outer loop
      vertex 36 36 -1.0731458360008699
      vertex 32 36 -3.123738860170445
      vertex 32 32 -1.8927915136762161
    endloop
  endfacet
  facet normal -0.45618010062197273 -0.008155965773481171 0.889850097498915
    outer loop
      vertex 36 36 -1.0731458360008699
      vertex 36 40 -1.0364836350463271
      vertex 32 36 -3.123738860170445
    endloop
  endfacet
  facet normal -0.44359519362316646 -0.023902215671157644 0.8959084709279376
    outer loop
      vertex 36 40 -1.0364836350463271
      vertex 32 40 -3.017021638727496
      vertex 32 36 -3.123738860170445
    endloop
  endfacet
  facet normal -0.44117285840422565 -0.1070357486216253 0.8910161937498404
    outer loop
      vertex 36 40 -1.0364836350463271
      vertex 36 44 -0.5559727335725144
      vertex 32 40 -3.017021638727496
    endloop
  endfacet
  facet normal -0.24318057338623436 -0.32016501556965626 0.9156186823852078
    outer loop
      vertex 36 44 -0.5559727335725144
      vertex 32 44 -1.6183388825582181
      vertex 32 40 -3.017021638727496
    endloop
  endfacet
  facet normal -0.2529085011356593 -0.17106924516480682 0.9522460834322489
    outer loop
      vertex 36 44 -0.5559727335725144
      vertex 36 48 0.16261985773837723
      vertex 32 44 -1.6183388825582181
    endloop
  endfacet
  facet normal 0.06867786560107596 -0.4622971251780677 0.884061490411484
    outer loop
      vertex 36 48 0.16261985773837723
      vertex 32 48 0.47335781588248793
      vertex 32 44 -1.6183388825582181
    endloop
  endfacet
  facet normal 0.07645739874149379 -0.15967596240719178 0.9842041725206316
    outer loop
      vertex 36 48 0.16261985773837723
      vertex 36 52 0.8115744826644142
      vertex 32 48 0.47335781588248793
    endloop
  endfacet
  facet normal 0.33082814865048205 -0.40298014388927134 0.8533227640766867
    outer loop
      vertex 36 52 0.8115744826644142
      vertex 32 52 2.3623506371407106
      vertex 32 48 0.47335781588248793
    endloop
  endfacet
  facet normal 0.3605894627252112 -0.07008623751540273 0.9300877155851904
    outer loop
      vertex 36 52 0.8115744826644142
      vertex 36 56 1.1129922364568339
      vertex 32 52 2.3623506371407106
    endloop
  endfacet
  facet normal 0.4608893993912041 -0.1901378847567476 0.8668497830126307
    outer loop
      vertex 36 56 1.1129922364568339
      vertex 32 56 3.239724726551896
      vertex 32 52 2.3623506371407106
    endloop
  endfacet
  facet normal -0.5458595493094616 0.06690840275055168 0.8352009447247061
    outer loop
      vertex 40 0 1.4966049222848798
      vertex 40 4 1.1761627428397614
      vertex 36 0 -1.1176619927957034
    endloop
  endfacet
  facet normal -0.45624092033435265 -0.05314189649405125 0.8882680684621498
    outer loop
      vertex 40 4 1.1761627428397614
      vertex 36 4 -0.8783563219927204
      vertex 36 0 -1.1176619927957034
    endloop
  endfacet
  facet normal -0.4494019769704981 0.1802633216107772 0.8749531404463083
    outer loop
      vertex 40 4 1.1761627428397614
      vertex 40 8 0.3520577101116042
      vertex 36 4 -0.8783563219927204
    endloop
  endfacet
  facet normal -0.15023080967554012 -0.15034475103177142 0.9771525774726414
    outer loop
      vertex 40 8 0.3520577101116042
      vertex 36 8 -0.26291609495824453
      vertex 36 4 -0.8783563219927204
    endloop
  endfacet
  facet normal -0.14773229535183643 0.23418730972664498 0.9609013856130473
    outer loop
      vertex 40 8 0.3520577101116042
      vertex 40 12 -0.6228074039697347
      vertex 36 8 -0.26291609495824453
    endloop
  endfacet
  facet normal 0.2584896800290176 -0.17297945610774734 0.950400543498984
    outer loop
      vertex 40 12 -0.6228074039697347
      vertex 36 12 0.46511150263090706
      vertex 36 8 -0.26291609495824453
    endloop
  endfacet
  facet normal 0.2586980911694758 0.1683953143147308 0.9511668180409327
    outer loop
      vertex 40 12 -0.6228074039697347
      vertex 40 16 -1.3309705195063577
      vertex 36 12 0.46511150263090706
    endloop
  endfacet
  facet normal 0.4992651845280721 -0.11356819017496998 0.8589741216698743
    outer loop
      vertex 40 16 -1.3309705195063577
      vertex 36 16 0.9939665044751519
      vertex 36 12 0.46511150263090706
    endloop
  endfacet
  facet normal 0.502292299088633 0.029859143071562583 0.8641822017672472
    outer loop
      vertex 40 16 -1.3309705195063577
      vertex 40 20 -1.4691781475297112
      vertex 36 16 0.9939665044751519
    endloop
  endfacet
  facet normal 0.5398751124232677 -0.02171257925879785 0.8414650479300341
    outer loop
      vertex 40 20 -1.4691781475297112
      vertex 36 20 1.0971797243811234
      vertex 36 16 0.9939665044751519
    endloop
  endfacet
  facet normal 0.5371441255281336 -0.10275308135702588 0.8372084523475938
    outer loop
      vertex 40 20 -1.4691781475297112
      vertex 40 24 -0.9782462604045934
      vertex 36 20 1.0971797243811234
    endloop
  endfacet
  facet normal 0.39146524567161095 0.08398985128521774 0.9163518245261217
    outer loop
      vertex 40 24 -0.9782462604045934
      vertex 36 24 0.7305526318726238
      vertex 36 20 1.0971797243811234
    endloop
  endfacet
  facet normal 0.3845311521908654 -0.20474178695226503 0.9001203217739053
    outer loop
      vertex 40 24 -0.9782462604045934
      vertex 40 28 -0.06840440037960602
      vertex 36 24 0.7305526318726238
    endloop
  endfacet
  facet normal 0.029437539155897266 0.16739555888038055 0.9854502311915959
    outer loop
      vertex 40 28 -0.06840440037960602
      vertex 36 28 0.05108428905040895
      vertex 36 24 0.7305526318726238
    endloop
  endfacet
  facet normal 0.029069102462204077 -0.22847177647849715 0.9731164548165865
    outer loop
      vertex 40 28 -0.06840440037960602
      vertex 40 32 0.870729966725756
      vertex 36 28 0.05108428905040895
    endloop
  endfacet
  facet normal -0.35074072845646154 0.16173015316967052 0.9224013762769142
    outer loop
      vertex 40 32 0.870729966725756
      vertex 36 32 -0.6502596478914955
      vertex 36 28 0.05108428905040895
    endloop
  endfacet
  facet normal -0.35234850427386016 -0.13117962079841505 0.926629612425136
    outer loop
      vertex 40 32 0.870729966725756
      vertex 40 36 1.436995577232622
      vertex 36 32 -0.6502596478914955
    endloop
  endfacet
  facet normal -0.5294238323098155 0.08919259495079641 0.8436557869109484
    outer loop
      vertex 40 36 1.436995577232622
      vertex 36 36 -1.0731458360008699
      vertex 36 32 -0.6502596478914955
    endloop
  endfacet
  facet normal -0.5315136286912425 0.010395166173825283 0.8469859520887502
    outer loop
      vertex 40 36 1.436995577232622
      vertex 40 40 1.3879030691541123
      vertex 36 36 -1.0731458360008699
    endloop
  endfacet
  facet normal -0.5183083542555365 -0.007837992597142891 0.8551578893870795
    outer loop
      vertex 40 40 1.3879030691541123
      vertex 36 40 -1.0364836350463271
      vertex 36 36 -1.0731458360008699
    endloop
  endfacet
  facet normal -0.513488570801195 0.1362789628511312 0.8472057199646177
    outer loop
      vertex 40 40 1.3879030691541123
      vertex 40 44 0.7444751052502676
      vertex 36 40 -1.0364836350463271
    endloop
  endfacet
  facet normal -0.3071843107775602 -0.11350352215891694 0.9448569995875754
    outer loop
      vertex 40 44 0.7444751052502676
      vertex 36 44 -0.5559727335725144
      vertex 36 40 -1.0364836350463271
    endloop
  endfacet
  facet normal -0.30139598658517236 0.2230098007489415 0.9270529046609303
    outer loop
      vertex 40 44 0.7444751052502676
      vertex 40 48 -0.21775606679058745
      vertex 36 44 -0.5559727335725144
    endloop
  endfacet
  facet normal 0.09318836492193551 -0.1760481258434101 0.9799607063705152
    outer loop
      vertex 40 48 -0.21775606679058745
      vertex 36 48 0.16261985773837723
      vertex 36 44 -0.5559727335725144
    endloop
  endfacet
  facet normal 0.0925277556106073 0.21138298456489074 0.9730137965507494
    outer loop
      vertex 40 48 -0.21775606679058745
      vertex 40 52 -1.0867385429455005
      vertex 36 48 0.16261985773837723
    endloop
  endfacet
  facet normal 0.4242134606879804 -0.14502101790135163 0.8938746243953808
    outer loop
      vertex 40 52 -1.0867385429455005
      vertex 36 52 0.8115744826644142
      vertex 36 48 0.16261985773837723
    endloop
  endfacet
  facet normal 0.4269755262439321 0.09078219317982769 0.8996946667565489
    outer loop
      vertex 40 52 -1.0867385429455005
      vertex 40 56 -1.4903518866017555
      vertex 36 52 0.8115744826644142
    endloop
  endfacet
  facet normal 0.5443961964557007 -0.0630307293052096 0.8364567582653748
    outer loop
      vertex 40 56 -1.4903518866017555
      vertex 36 56 1.1129922364568339
      vertex 36 52 0.8115744826644142
    endloop
  endfacet
  facet normal -0.4364199023429645 0.1643098798600318 0.8846128713846184
    outer loop
      vertex 44 0 3.4699874784752236
      vertex 44 4 2.7270189543892025
      vertex 40 0 1.4966049222848798
    endloop
  endfacet
  facet normal -0.36049038608425915 0.07448551588831132 0.9297841628376307
    outer loop
      vertex 44 4 2.7270189543892025
      vertex 40 4 1.1761627428397614
      vertex 40 0 1.4966049222848798
    endloop
  endfacet
  facet normal -0.33022280623446165 0.40685422900345736 0.851717403006795
    outer loop
      vertex 44 4 2.7270189543892025
      vertex 44 8 0.8162714338282708
      vertex 40 4 1.1761627428397614
    endloop
  endfacet
  facet normal -0.11293887560711098 0.2004970793049776 0.9731627467010721
    outer loop
      vertex 44 8 0.8162714338282708
      vertex 40 8 0.3520577101116042
      vertex 40 4 1.1761627428397614
    endloop
  endfacet
  facet normal -0.1005261956376608 0.4894705191554569 0.8662061503293002
    outer loop
      vertex 44 8 0.8162714338282708
      vertex 44 12 -1.4440243120256597
      vertex 40 8 0.3520577101116042
    endloop
  endfacet
  facet normal 0.19561235715901099 0.2322110772523846 0.9527926434056797
    outer loop
      vertex 44 12 -1.4440243120256597
      vertex 40 12 -0.6228074039697347
      vertex 40 8 0.3520577101116042
    endloop
  endfacet
  facet normal 0.1865904623303184 0.37306593891457585 0.9088486147808907
    outer loop
      vertex 44 12 -1.4440243120256597
      vertex 44 16 -3.0859520559745954
      vertex 40 12 -0.6228074039697347
    endloop
  endfacet
  facet normal 0.3965975894351153 0.1600334697046932 0.90393563964949
    outer loop
      vertex 44 16 -3.0859520559745954
      vertex 40 16 -1.3309705195063577
      vertex 40 12 -0.6228074039697347
    endloop
  endfacet
  facet normal 0.4006990462919673 0.07316417988577065 0.9132837878131587
    outer loop
      vertex 44 16 -3.0859520559745954
      vertex 44 20 -3.4063965042920716
      vertex 40 16 -1.3309705195063577
    endloop
  endfacet
  facet normal 0.4356665272997667 0.031081905215839655 0.8995713380042271
    outer loop
      vertex 44 20 -3.4063965042920716
      vertex 40 20 -1.4691781475297112
      vertex 40 16 -1.3309705195063577
    endloop
  endfacet
  facet normal 0.42224885094807835 -0.24810292276824625 0.8718663014401238
    outer loop
      vertex 44 20 -3.4063965042920716
      vertex 44 24 -2.26813517978194
      vertex 40 20 -1.4691781475297112
    endloop
  endfacet
  facet normal 0.3048366925198379 -0.11602088402773791 0.9453114541583574
    outer loop
      vertex 44 24 -2.26813517978194
      vertex 40 24 -0.9782462604045934
      vertex 40 20 -1.4691781475297112
    endloop
  endfacet
  facet normal 0.27429579755594385 -0.44859403478692117 0.850602849393734
    outer loop
      vertex 44 24 -2.26813517978194
      vertex 44 28 -0.1586005827292452
      vertex 40 24 -0.9782462604045934
    endloop
  endfacet
  facet normal 0.0219821098470026 -0.22174157696542954 0.9748576613493678
    outer loop
      vertex 44 28 -0.1586005827292452
      vertex 40 28 -0.06840440037960602
      vertex 40 24 -0.9782462604045934
    endloop
  endfacet
  facet normal 0.01980090639313726 -0.4780192506137179 0.8781261413650716
    outer loop
      vertex 44 28 -0.1586005827292452
      vertex 44 32 2.0188508247445087
      vertex 40 28 -0.06840440037960602
    endloop
  endfacet
  facet normal -0.2691225351336712 -0.22013555449440558 0.9376104728140928
    outer loop
      vertex 44 32 2.0188508247445087
      vertex 40 32 0.870729966725756
      vertex 40 28 -0.06840440037960602
    endloop
  endfacet
  facet normal -0.26310661354560927 -0.3008742937630881 0.9166512800739026
    outer loop
      vertex 44 32 2.0188508247445087
      vertex 44 36 3.3317788718807364
      vertex 40 32 0.870729966725756
    endloop
  endfacet
  facet normal -0.4246337730194279 -0.12690395962422493 0.8964270990119486
    outer loop
      vertex 44 36 3.3317788718807364
      vertex 40 36 1.436995577232622
      vertex 40 32 0.870729966725756
    endloop
  endfacet
  facet normal -0.42795342594464875 0.025708273937681804 0.9034350833753265
    outer loop
      vertex 44 36 3.3317788718807364
      vertex 44 40 3.217954317529214
      vertex 40 36 1.436995577232622
    endloop
  endfacet
  facet normal -0.4160120985601916 0.011159839008583805 0.9092905981284795
    outer loop
      vertex 44 40 3.217954317529214
      vertex 40 40 1.3879030691541123
      vertex 40 36 1.436995577232622
    endloop
  endfacet
  facet normal -0.3939955274791933 0.32118016006840777 0.8611682931371918
    outer loop
      vertex 44 40 3.217954317529214
      vertex 44 44 1.726119735936039
      vertex 40 40 1.3879030691541123
    endloop
  endfacet
  facet normal -0.23548273747533013 0.1543493170256602 0.9595437294281262
    outer loop
      vertex 44 44 1.726119735936039
      vertex 40 44 0.7444751052502676
      vertex 40 40 1.3879030691541123
    endloop
  endfacet
  facet normal -0.2095685361115574 0.4762905278847784 0.8539486879896812
    outer loop
      vertex 44 44 1.726119735936039
      vertex 44 48 -0.5048832954336107
      vertex 40 44 0.7444751052502676
    endloop
  endfacet
  facet normal 0.06962152489030266 0.23331817679247918 0.9699048776298542
    outer loop
      vertex 44 48 -0.5048832954336107
      vertex 40 48 -0.21775606679058745
      vertex 40 44 0.7444751052502676
    endloop
  endfacet
  facet normal 0.06397711003284341 0.4489334812407639 0.8912719331454874
    outer loop
      vertex 44 48 -0.5048832954336107
      vertex 44 52 -2.5196824360567542
      vertex 40 48 -0.21775606679058745
    endloop
  endfacet
  facet normal 0.33040954243067144 0.2003707917015595 0.922323739314805
    outer loop
      vertex 44 52 -2.5196824360567542
      vertex 40 52 -1.0867385429455005
      vertex 40 48 -0.21775606679058745
    endloop
  endfacet
  facet normal 0.3293552798186659 0.21509073227674325 0.9193808114944659
    outer loop
      vertex 44 52 -2.5196824360567542
      vertex 44 56 -3.4554893599672516
      vertex 40 52 -1.0867385429455005
    endloop
  endfacet
  facet normal 0.4391473476492279 0.09019507884042816 0.8938760847039241
    outer loop
      vertex 44 56 -3.4554893599672516
      vertex 40 56 -1.4903518866017555
      vertex 40 52 -1.0867385429455005
    endloop
  endfacet
  facet normal -0.11837764925681467 0.20577836676868505 0.9714123717178216
    outer loop
      vertex 48 0 3.957432986493527
      vertex 48 4 3.110096169463735
      vertex 44 0 3.4699874784752236
    endloop
  endfacet
  facet normal -0.09374418443619818 0.18181446353748507 0.9788541917634968
    outer loop
      vertex 48 4 3.110096169463735
      vertex 44 4 2.7270189543892025
      vertex 44 0 3.4699874784752236
    endloop
  endfacet
  facet normal -0.08380310556016225 0.476719325509693 0.8750518408551894
    outer loop
      vertex 48 4 3.110096169463735
      vertex 48 8 0.9309369322519394
      vertex 44 4 2.7270189543892025
    endloop
  endfacet
  facet normal -0.025858044530487907 0.4308898068940446 0.902033999274901
    outer loop
      vertex 48 8 0.9309369322519394
      vertex 44 8 0.8162714338282708
      vertex 44 4 2.7270189543892025
    endloop
  endfacet
  facet normal -0.024089043115208077 0.5415489463714415 0.8403240188675885
    outer loop
      vertex 48 8 0.9309369322519394
      vertex 48 12 -1.6468732181765915
      vertex 44 8 0.8162714338282708
    endloop
  endfacet
  facet normal 0.04410792387294029 0.4914838072347082 0.8697690258210482
    outer loop
      vertex 48 12 -1.6468732181765915
      vertex 44 12 -1.4440243120256597
      vertex 44 8 0.8162714338282708
    endloop
  endfacet
  facet normal 0.04588015957906042 0.42353758184887336 0.9047159375840623
    outer loop
      vertex 48 12 -1.6468732181765915
      vertex 48 16 -3.519450296811376
      vertex 44 12 -1.4440243120256597
    endloop
  endfacet
  facet normal 0.09975670546404213 0.3778407543942587 0.9204808330615787
    outer loop
      vertex 48 16 -3.519450296811376
      vertex 44 16 -3.0859520559745954
      vertex 44 12 -1.4440243120256597
    endloop
  endfacet
  facet normal 0.10730193641202346 0.09046042706420233 0.9901026237605839
    outer loop
      vertex 48 16 -3.519450296811376
      vertex 48 20 -3.8849090882268262
      vertex 44 16 -3.0859520559745954
    endloop
  endfacet
  facet normal 0.11840722756199212 0.07929350237961133 0.9897940538018285
    outer loop
      vertex 48 20 -3.8849090882268262
      vertex 44 20 -3.4063965042920716
      vertex 44 16 -3.0859520559745954
    endloop
  endfacet
  facet normal 0.11305630449099395 -0.30671079639172516 0.9450644207627293
    outer loop
      vertex 48 20 -3.8849090882268262
      vertex 48 24 -2.5867508266167265
      vertex 44 20 -3.4063965042920716
    endloop
  endfacet
  facet normal 0.07638850070058648 -0.27289957931626435 0.9590050138397205
    outer loop
      vertex 48 24 -2.5867508266167265
      vertex 44 24 -2.26813517978194
      vertex 44 20 -3.4063965042920716
    endloop
  endfacet
  facet normal 0.06809996543854917 -0.5142237202021978 0.8549481623400802
    outer loop
      vertex 48 24 -2.5867508266167265
      vertex 48 28 -0.1808799546578226
      vertex 44 24 -2.26813517978194
    endloop
  endfacet
  facet normal 0.0049266257273202965 -0.46648026936438314 0.8845178837381841
    outer loop
      vertex 48 28 -0.1808799546578226
      vertex 44 28 -0.1586005827292452
      vertex 44 24 -2.26813517978194
    endloop
  endfacet
  facet normal 0.004732007352947735 -0.5274442971109716 0.8495764365561963
    outer loop
      vertex 48 28 -0.1808799546578226
      vertex 48 32 2.302448322425734
      vertex 44 28 -0.1586005827292452
    endloop
  endfacet
  facet normal -0.062150420431162486 -0.47718869718320267 0.8766004064115116
    outer loop
      vertex 48 32 2.302448322425734
      vertex 44 32 2.0188508247445087
      vertex 44 28 -0.1586005827292452
    endloop
  endfacet
  facet normal -0.06625365063565547 -0.34981143858723557 0.9344744037216736
    outer loop
      vertex 48 32 2.302448322425734
      vertex 48 36 3.7998095650411043
      vertex 44 32 2.0188508247445087
    endloop
  endfacet
  facet normal -0.11049148991728613 -0.30995269797950664 0.9443097773882695
    outer loop
      vertex 48 36 3.7998095650411043
      vertex 44 36 3.3317788718807364
      vertex 44 32 2.0188508247445087
    endloop
  endfacet
  facet normal -0.1161545139644736 0.03221687244044185 0.9927085181541625
    outer loop
      vertex 48 36 3.7998095650411043
      vertex 48 40 3.6699955386626635
      vertex 44 36 3.3317788718807364
    endloop
  endfacet
  facet normal -0.11225063340822214 0.02826485224362998 0.993277853083969
    outer loop
      vertex 48 40 3.6699955386626635
      vertex 44 40 3.217954317529214
      vertex 44 36 3.3317788718807364
    endloop
  endfacet
  facet normal -0.10343596394223374 0.3893138539276557 0.9152790418792167
    outer loop
      vertex 48 40 3.6699955386626635
      vertex 48 44 1.9685959168453384
      vertex 44 40 3.217954317529214
    endloop
  endfacet
  facet normal -0.056706016587350215 0.3488837386508046 0.9354488572807347
    outer loop
      vertex 48 44 1.9685959168453384
      vertex 44 44 1.726119735936039
      vertex 44 40 3.217954317529214
    endloop
  endfacet
  facet normal -0.051081272101959174 0.5360168512842463 0.8426604528395574
    outer loop
      vertex 48 44 1.9685959168453384
      vertex 48 48 -0.5758066333301306
      vertex 44 44 1.726119735936039
    endloop
  endfacet
  facet normal 0.015483229021135232 0.48704886016423926 0.8732374690952024
    outer loop
      vertex 48 48 -0.5758066333301306
      vertex 44 48 -0.5048832954336107
      vertex 44 44 1.726119735936039
    endloop
  endfacet
  facet normal 0.015372762540388564 0.498058287201752 0.8670072783555706
    outer loop
      vertex 48 48 -0.5758066333301306
      vertex 48 52 -2.8736341124553615
      vertex 44 48 -0.5048832954336107
    endloop
  endfacet
  facet normal 0.0787830613186025 0.4484568228506498 0.8903256186856415
    outer loop
      vertex 48 52 -2.8736341124553615
      vertex 44 52 -2.5196824360567542
      vertex 44 48 -0.5048832954336107
    endloop
  endfacet
  facet normal 0.08518616208112778 0.25686030543832084 0.9626869175801759
    outer loop
      vertex 48 52 -2.8736341124553615
      vertex 48 56 -3.9408982488953526
      vertex 44 52 -2.5196824360567542
    endloop
  endfacet
  facet normal 0.1173452478593879 0.2262267913496618 0.9669806263211561
    outer loop
      vertex 48 56 -3.9408982488953526
      vertex 44 56 -3.4554893599672516
      vertex 44 52 -2.5196824360567542
    endloop
  endfacet
  facet normal 0.2861071683995582 0.13955549674404125 0.9479804594604843
    outer loop
      vertex 52 0 2.7502048604522464
      vertex 52 4 2.1613509643562647
      vertex 48 0 3.957432986493527
    endloop
  endfacet
  facet normal 0.22603208640861067 0.20187222830009435 0.9529727694718904
    outer loop
      vertex 52 4 2.1613509643562647
      vertex 48 4 3.110096169463735
      vertex 48 0 3.957432986493527
    endloop
  endfacet
  facet normal 0.21655700855170165 0.34567111612996376 0.9130249402511431
    outer loop
      vertex 52 4 2.1613509643562647
      vertex 52 8 0.6469515174588731
      vertex 48 4 3.110096169463735
    endloop
  endfacet
  facet normal 0.062223987137924826 0.4774751423292726 0.8764391957701917
    outer loop
      vertex 52 8 0.6469515174588731
      vertex 48 8 0.9309369322519394
      vertex 48 4 3.110096169463735
    endloop
  endfacet
  facet normal 0.06465929549985316 0.40788462770169126 0.9107410751635809
    outer loop
      vertex 52 8 0.6469515174588731
      vertex 52 12 -1.1444890525337776
      vertex 48 8 0.9309369322519394
    endloop
  endfacet
  facet normal -0.10498855443037022 0.5387123635617276 0.8359224801286051
    outer loop
      vertex 52 12 -1.1444890525337776
      vertex 48 12 -1.6468732181765915
      vertex 48 8 0.9309369322519394
    endloop
  endfacet
  facet normal -0.11859150428158656 0.3071912309268514 0.9442296345454725
    outer loop
      vertex 52 12 -1.1444890525337776
      vertex 52 16 -2.4458302504288225
      vertex 48 12 -1.6468732181765915
    endloop
  endfacet
  facet normal -0.2362075691377027 0.4119864203892634 0.8800415749820564
    outer loop
      vertex 52 16 -2.4458302504288225
      vertex 48 16 -3.519450296811376
      vertex 48 12 -1.6468732181765915
    endloop
  endfacet
  facet normal -0.25874371930193907 0.06120812757556288 0.9640047991791809
    outer loop
      vertex 52 16 -2.4458302504288225
      vertex 52 20 -2.6998046191360308
      vertex 48 16 -3.519450296811376
    endloop
  endfacet
  facet normal -0.28298681273109844 0.08726658388737728 0.9551455423949388
    outer loop
      vertex 52 20 -2.6998046191360308
      vertex 48 20 -3.8849090882268262
      vertex 48 16 -3.519450296811376
    endloop
  endfacet
  facet normal -0.2776528476846345 -0.21136088250993387 0.9371421842587362
    outer loop
      vertex 52 20 -2.6998046191360308
      vertex 52 24 -1.797653863102711
      vertex 48 20 -3.8849090882268262
    endloop
  endfacet
  facet normal -0.18442136756246136 -0.30339506168228947 0.9348476858468396
    outer loop
      vertex 52 24 -1.797653863102711
      vertex 48 24 -2.5867508266167265
      vertex 48 20 -3.8849090882268262
    endloop
  endfacet
  facet normal -0.17907173258665607 -0.37942020415080946 0.9077299285969208
    outer loop
      vertex 52 24 -1.797653863102711
      vertex 52 28 -0.12570192146174433
      vertex 48 24 -2.5867508266167265
    endloop
  endfacet
  facet normal -0.011820206184756118 -0.5153842591561314 0.8568776739650972
    outer loop
      vertex 52 28 -0.12570192146174433
      vertex 48 28 -0.1808799546578226
      vertex 48 24 -2.5867508266167265
    endloop
  endfacet
  facet normal -0.01266492175918207 -0.39611556198939296 0.9181133161580117
    outer loop
      vertex 52 28 -0.12570192146174433
      vertex 52 32 1.6000787856387704
      vertex 48 28 -0.1808799546578226
    endloop
  endfacet
  facet normal 0.1475480222031067 -0.5216772034859244 0.8402871393202784
    outer loop
      vertex 52 32 1.6000787856387704
      vertex 48 32 2.302448322425734
      vertex 48 28 -0.1808799546578226
    endloop
  endfacet
  facet normal 0.16753435699708935 -0.24820828834983227 0.9541094721362001
    outer loop
      vertex 52 32 1.6000787856387704
      vertex 52 36 2.6406649892076635
      vertex 48 32 2.302448322425734
    endloop
  endfacet
  facet normal 0.2619195901407957 -0.3383428186052991 0.9038375215704973
    outer loop
      vertex 52 36 2.6406649892076635
      vertex 48 36 3.7998095650411043
      vertex 48 32 2.302448322425734
    endloop
  endfacet
  facet normal 0.2782696922932228 0.02165715459926603 0.9602587911629334
    outer loop
      vertex 52 36 2.6406649892076635
      vertex 52 40 2.5504511643572276
      vertex 48 36 3.7998095650411043
    endloop
  endfacet
  facet normal 0.26939667741119777 0.03123723202969763 0.9625225532604054
    outer loop
      vertex 52 40 2.5504511643572276
      vertex 48 40 3.6699955386626635
      vertex 48 36 3.7998095650411043
    endloop
  endfacet
  facet normal 0.2592301522258703 0.273780183776062 0.9261987579070153
    outer loop
      vertex 52 40 2.5504511643572276
      vertex 52 44 1.3680691693964964
      vertex 48 40 3.6699955386626635
    endloop
  endfacet
  facet normal 0.13685357964590905 0.38773065420159714 0.9115569304933743
    outer loop
      vertex 52 44 1.3680691693964964
      vertex 48 44 1.9685959168453384
      vertex 48 40 3.6699955386626635
    endloop
  endfacet
  facet normal 0.1360370142318075 0.4005548860885773 0.9061179360267965
    outer loop
      vertex 52 44 1.3680691693964964
      vertex 52 48 -0.40015490017641514
      vertex 48 44 1.9685959168453384
    endloop
  endfacet
  facet normal -0.03702665632648477 0.5363494973268115 0.8431833984600012
    outer loop
      vertex 52 48 -0.40015490017641514
      vertex 48 48 -0.5758066333301306
      vertex 48 44 1.9685959168453384
    endloop
  endfacet
  facet normal -0.04074926441336796 0.37045565504225314 0.9279558745419874
    outer loop
      vertex 52 48 -0.40015490017641514
      vertex 52 52 -1.9970224461687265
      vertex 48 48 -0.5758066333301306
    endloop
  endfacet
  facet normal -0.18668873978741496 0.4893598075690157 0.8518651848576761
    outer loop
      vertex 52 52 -1.9970224461687265
      vertex 48 52 -2.8736341124553615
      vertex 48 48 -0.5758066333301306
    endloop
  endfacet
  facet normal -0.21064513125603543 0.17822456820338334 0.9611787721162204
    outer loop
      vertex 52 52 -1.9970224461687265
      vertex 52 56 -2.738714099682828
      vertex 48 52 -2.8736341124553615
    endloop
  endfacet
  facet normal -0.2788674978611362 0.24757045705593625 0.9278694883601811
    outer loop
      vertex 52 56 -2.738714099682828
      vertex 48 56 -3.9408982488953526
      vertex 48 52 -2.8736341124553615
    endloop
  endfacet
  facet normal 0.5120431217420722 0.016791329226815907 0.8587956059153015
    outer loop
      vertex 56 0 0.3652689422189972
      vertex 56 4 0.287060208447381
      vertex 52 0 2.7502048604522464
    endloop
  endfacet
  facet normal 0.42058178520065387 0.1321359677315978 0.897580663778507
    outer loop
      vertex 56 4 0.287060208447381
      vertex 52 4 2.1613509643562647
      vertex 52 0 2.7502048604522464
    endloop
  endfacet
  facet normal 0.42386307577649585 0.045485897260056134 0.9045833992196277
    outer loop
      vertex 56 4 0.287060208447381
      vertex 56 8 0.08592497957054676
      vertex 52 4 2.1613509643562647
    endloop
  endfacet
  facet normal 0.13005640058391707 0.3510659974322898 0.9272744998726252
    outer loop
      vertex 56 8 0.08592497957054676
      vertex 52 8 0.6469515174588731
      vertex 52 4 2.1613509643562647
    endloop
  endfacet
  facet normal 0.1386567457333293 0.0588041132303584 0.9885931332605109
    outer loop
      vertex 56 8 0.08592497957054676
      vertex 56 12 -0.15200551479335664
      vertex 52 8 0.6469515174588731
    endloop
  endfacet
  facet normal -0.22085594496638628 0.3986467129093368 0.8901142903355643
    outer loop
      vertex 56 12 -0.15200551479335664
      vertex 52 12 -1.1444890525337776
      vertex 52 8 0.6469515174588731
    endloop
  endfacet
  facet normal -0.24060722045007996 0.04190098426566892 0.9697177285091032
    outer loop
      vertex 56 12 -0.15200551479335664
      vertex 56 16 -0.32484337485842846
      vertex 52 12 -1.1444890525337776
    endloop
  endfacet
  facet normal -0.4502347719868939 0.27624360351303884 0.8491043054961155
    outer loop
      vertex 56 16 -0.32484337485842846
      vertex 52 16 -2.4458302504288225
      vertex 52 12 -1.1444890525337776
    endloop
  endfacet
  facet normal -0.4684507980973792 0.00745012557819316 0.8834581741037872
    outer loop
      vertex 56 16 -0.32484337485842846
      vertex 56 20 -0.3585750253047027
      vertex 52 16 -2.4458302504288225
    endloop
  endfacet
  facet normal -0.5043849256024778 0.054715198971874275 0.8617436357910925
    outer loop
      vertex 56 20 -0.3585750253047027
      vertex 52 20 -2.6998046191360308
      vertex 52 16 -2.4458302504288225
    endloop
  endfacet
  facet normal -0.5049729105294106 -0.02584347410273474 0.8627482103590579
    outer loop
      vertex 56 20 -0.3585750253047027
      vertex 56 24 -0.23875571398104678
      vertex 52 20 -2.6998046191360308
    endloop
  endfacet
  facet normal -0.3553608847006484 -0.20565108180928302 0.9118257915717475
    outer loop
      vertex 56 24 -0.23875571398104678
      vertex 52 24 -1.797653863102711
      vertex 52 20 -2.6998046191360308
    endloop
  endfacet
  facet normal -0.3626376859062743 -0.05165670313998906 0.9304974442636849
    outer loop
      vertex 56 24 -0.23875571398104678
      vertex 56 28 -0.0166951228061158
      vertex 52 24 -1.797653863102711
    endloop
  endfacet
  facet normal -0.025135659962389274 -0.38553205852150646 0.9223520100538757
    outer loop
      vertex 56 28 -0.0166951228061158
      vertex 52 28 -0.12570192146174433
      vertex 52 24 -1.797653863102711
    endloop
  endfacet
  facet normal -0.027197003995278527 -0.05718745781060747 0.9979929446859035
    outer loop
      vertex 56 28 -0.0166951228061158
      vertex 56 32 0.2125147453201803
      vertex 52 28 -0.12570192146174433
    endloop
  endfacet
  facet normal 0.3034882926188285 -0.37746311162127966 0.87488082366028
    outer loop
      vertex 56 32 0.2125147453201803
      vertex 52 32 1.6000787856387704
      vertex 52 28 -0.12570192146174433
    endloop
  endfacet
  facet normal 0.327557950262371 -0.03262577777891342 0.9442676251170719
    outer loop
      vertex 56 32 0.2125147453201803
      vertex 56 36 0.35072038495489055
      vertex 52 32 1.6000787856387704
    endloop
  endfacet
  facet normal 0.48463306275388807 -0.22022475039722256 0.8465411116999971
    outer loop
      vertex 56 36 0.35072038495489055
      vertex 52 36 2.6406649892076635
      vertex 52 32 1.6000787856387704
    endloop
  endfacet
  facet normal 0.4968289955291389 0.0025995774156362308 0.8678445663820032
    outer loop
      vertex 56 36 0.35072038495489055
      vertex 56 40 0.33873861994149085
      vertex 52 36 2.6406649892076635
    endloop
  endfacet
  facet normal 0.48379068566523065 0.019733399935299854 0.8749612365074008
    outer loop
      vertex 56 40 0.33873861994149085
      vertex 52 40 2.5504511643572276
      vertex 52 36 2.6406649892076635
    endloop
  endfacet
  facet normal 0.48359956699923423 0.03433703029189971 0.8746155882151234
    outer loop
      vertex 56 40 0.33873861994149085
      vertex 56 44 0.1817003473354734
      vertex 52 40 2.5504511643572276
    endloop
  endfacet
  facet normal 0.273575564227057 0.2726562055477357 0.9223963379340566
    outer loop
      vertex 56 44 0.1817003473354734
      vertex 52 44 1.3680691693964964
      vertex 52 40 2.5504511643572276
    endloop
  endfacet
  facet normal 0.28389972524145873 0.05619921470939263 0.9572056175524001
    outer loop
      vertex 56 44 0.1817003473354734
      vertex 56 48 -0.0531466434421006
      vertex 52 44 1.3680691693964964
    endloop
  endfacet
  facet normal -0.07909662168167665 0.40304675051731387 0.9117549239439182
    outer loop
      vertex 56 48 -0.0531466434421006
      vertex 52 48 -0.40015490017641514
      vertex 52 44 1.3680691693964964
    endloop
  endfacet
  facet normal -0.08630712153912816 0.05275011615255075 0.9948711002021933
    outer loop
      vertex 56 48 -0.0531466434421006
      vertex 56 52 -0.26523488740387635
      vertex 52 48 -0.40015490017641514
    endloop
  endfacet
  facet normal -0.37306139337319943 0.3439969462335329 0.8616793474120468
    outer loop
      vertex 56 52 -0.26523488740387635
      vertex 52 52 -1.9970224461687265
      vertex 52 48 -0.40015490017641514
    endloop
  endfacet
  facet normal -0.39720742353104993 0.022594036952632835 0.9174506919644283
    outer loop
      vertex 56 52 -0.26523488740387635
      vertex 56 56 -0.3637427948065288
      vertex 52 52 -1.9970224461687265
    endloop
  endfacet
  facet normal -0.5041663909304384 0.1574486409025941 0.8491326019733917
    outer loop
      vertex 56 56 -0.3637427948065288
      vertex 52 56 -2.738714099682828
      vertex 52 52 -1.9970224461687265
    endloop
  endfacet
endsolid PythonSCAD_Model
