solid PythonSCAD_Model
  facet normal 0 0 -1
    outer loop
      vertex 18 0 0
      vertex 24 10 0
      vertex 24 0 0
    endloop
  endfacet
  facet normal 0 0 -1
    outer loop
      vertex 18 0 0
      vertex 18 10 0
      vertex 24 10 0
    endloop
  endfacet
  facet normal 0 -1 0
    outer loop
      vertex 18 0 0
      vertex 24 0 0
      vertex 20 0 12
    endloop
  endfacet
  facet normal -0.9863939238321437 0 0.1643989873053573
    outer loop
      vertex 18 0 0
      vertex 20 10 12
      vertex 18 10 0
    endloop
  endfacet
  facet normal 0.9863939238321437 0 0.1643989873053573
    outer loop
      vertex 24 0 0
      vertex 24 10 0
      vertex 22 10 12
    endloop
  endfacet
  facet normal 0 1 0
    outer loop
      vertex 18 10 0
      vertex 22 10 12
      vertex 24 10 0
    endloop
  endfacet
  facet normal -0.9863939238321437 0 0.1643989873053573
    outer loop
      vertex 18 0 0
      vertex 20 0 12
      vertex 20 10 12
    endloop
  endfacet
  facet normal 0 -1 0
    outer loop
      vertex 24 0 0
      vertex 22 0 12
      vertex 20 0 12
    endloop
  endfacet
  facet normal 0.9863939238321437 0 0.1643989873053573
    outer loop
      vertex 24 0 0
      vertex 22 10 12
      vertex 22 0 12
    endloop
  endfacet
  facet normal 0 1 0
    outer loop
      vertex 18 10 0
      vertex 20 10 12
      vertex 22 10 12
    endloop
  endfacet
  facet normal 0 0 1
    outer loop
      vertex 20 0 12
      vertex 22 0 12
      vertex 22 10 12
    endloop
  endfacet
  facet normal 0 0 1
    outer loop
      vertex 20 0 12
      vertex 22 10 12
      vertex 20 10 12
    endloop
  endfacet
  facet normal 0 0 -1
    outer loop
      vertex 5.656854249492383 19.79898987322333 0
      vertex 9.899494936611667 24.041630560342615 0
      vertex 12.727922061357857 12.727922061357855 0
    endloop
  endfacet
  facet normal -0.6974858324629157 -0.6974858324629155 0.16439898730535726
    outer loop
      vertex 5.656854249492383 19.79898987322333 0
      vertex 12.727922061357857 12.727922061357855 0
      vertex 7.071067811865477 21.213203435596427 12
    endloop
  endfacet
  facet normal -0.7071067811865475 0.7071067811865475 9.868649107779171e-17
    outer loop
      vertex 5.656854249492383 19.79898987322333 0
      vertex 8.485281374238573 22.62741699796952 12
      vertex 9.899494936611667 24.041630560342615 0
    endloop
  endfacet
  facet normal 0.6974858324629157 0.6974858324629157 0.1643989873053573
    outer loop
      vertex 9.899494936611667 24.041630560342615 0
      vertex 8.485281374238573 22.62741699796952 12
      vertex 16.970562748477143 16.97056274847714 0
    endloop
  endfacet
  facet normal 0 0 -1
    outer loop
      vertex 9.899494936611667 24.041630560342615 0
      vertex 16.970562748477143 16.97056274847714 0
      vertex 12.727922061357857 12.727922061357855 0
    endloop
  endfacet
  facet normal 0.7071067811865474 -0.7071067811865476 -7.401486830834377e-17
    outer loop
      vertex 12.727922061357857 12.727922061357855 0
      vertex 16.970562748477143 16.97056274847714 0
      vertex 14.142135623730953 14.14213562373095 12
    endloop
  endfacet
  facet normal -0.6974858324629157 -0.6974858324629155 0.16439898730535724
    outer loop
      vertex 12.727922061357857 12.727922061357855 0
      vertex 14.142135623730953 14.14213562373095 12
      vertex 7.071067811865477 21.213203435596427 12
    endloop
  endfacet
  facet normal -0.7071067811865467 0.7071067811865485 -3.1456319031046123e-16
    outer loop
      vertex 5.656854249492383 19.79898987322333 0
      vertex 7.071067811865477 21.213203435596427 12
      vertex 8.485281374238573 22.62741699796952 12
    endloop
  endfacet
  facet normal 0 0 1
    outer loop
      vertex 7.071067811865477 21.213203435596427 12
      vertex 14.142135623730953 14.14213562373095 12
      vertex 8.485281374238573 22.62741699796952 12
    endloop
  endfacet
  facet normal 0.7071067811865476 -0.7071067811865476 0
    outer loop
      vertex 16.970562748477143 16.97056274847714 0
      vertex 15.556349186104047 15.556349186104043 12
      vertex 14.142135623730953 14.14213562373095 12
    endloop
  endfacet
  facet normal 0.6974858324629157 0.6974858324629156 0.16439898730535735
    outer loop
      vertex 16.970562748477143 16.97056274847714 0
      vertex 8.485281374238573 22.62741699796952 12
      vertex 15.556349186104047 15.556349186104043 12
    endloop
  endfacet
  facet normal 0 0 1
    outer loop
      vertex 8.485281374238573 22.62741699796952 12
      vertex 14.142135623730953 14.14213562373095 12
      vertex 15.556349186104047 15.556349186104043 12
    endloop
  endfacet
  facet normal 0 0 -1
    outer loop
      vertex -9.999999999999998 18 0
      vertex -9.999999999999998 24 0
      vertex 1.102182119232618e-15 18 0
    endloop
  endfacet
  facet normal 0 0 -1
    outer loop
      vertex -9.999999999999998 24 0
      vertex 1.4695761589768238e-15 24 0
      vertex 1.102182119232618e-15 18 0
    endloop
  endfacet
  facet normal -1 0 0
    outer loop
      vertex -9.999999999999998 18 0
      vertex -9.999999999999998 22 12
      vertex -9.999999999999998 24 0
    endloop
  endfacet
  facet normal 0 -0.9863939238321437 0.1643989873053573
    outer loop
      vertex -9.999999999999998 18 0
      vertex 1.102182119232618e-15 18 0
      vertex -9.999999999999998 20 12
    endloop
  endfacet
  facet normal 0 0.9863939238321437 0.1643989873053573
    outer loop
      vertex -9.999999999999998 24 0
      vertex -9.999999999999998 22 12
      vertex 1.4695761589768238e-15 24 0
    endloop
  endfacet
  facet normal -1 0 0
    outer loop
      vertex -9.999999999999998 18 0
      vertex -9.999999999999998 20 12
      vertex -9.999999999999998 22 12
    endloop
  endfacet
  facet normal 0 -0.9863939238321437 0.1643989873053573
    outer loop
      vertex -9.999999999999998 20 12
      vertex 1.102182119232618e-15 18 0
      vertex 1.224646799147353e-15 20 12
    endloop
  endfacet
  facet normal 0 0.9863939238321437 0.1643989873053573
    outer loop
      vertex -9.999999999999998 22 12
      vertex 1.3471114790620884e-15 22 12
      vertex 1.4695761589768238e-15 24 0
    endloop
  endfacet
  facet normal 0 0 1
    outer loop
      vertex -9.999999999999998 20 12
      vertex 1.224646799147353e-15 20 12
      vertex -9.999999999999998 22 12
    endloop
  endfacet
  facet normal 0 0 1
    outer loop
      vertex -9.999999999999998 22 12
      vertex 1.224646799147353e-15 20 12
      vertex 1.3471114790620884e-15 22 12
    endloop
  endfacet
  facet normal 1 -6.123233995736764e-17 1.0956401461402941e-32
    outer loop
      vertex 1.102182119232618e-15 18 0
      vertex 1.4695761589768238e-15 24 0
      vertex 1.224646799147353e-15 20 12
    endloop
  endfacet
  facet normal 1 -6.123233995736767e-17 0
    outer loop
      vertex 1.4695761589768238e-15 24 0
      vertex 1.3471114790620884e-15 22 12
      vertex 1.224646799147353e-15 20 12
    endloop
  endfacet
  facet normal 0 0 -1
    outer loop
      vertex -19.79898987322333 5.656854249492383 0
      vertex -24.041630560342615 9.899494936611667 0
      vertex -12.727922061357855 12.727922061357857 0
    endloop
  endfacet
  facet normal -0.7071067811865475 -0.7071067811865475 9.868649107779171e-17
    outer loop
      vertex -19.79898987322333 5.656854249492383 0
      vertex -22.62741699796952 8.485281374238573 12
      vertex -24.041630560342615 9.899494936611667 0
    endloop
  endfacet
  facet normal -0.6974858324629157 0.6974858324629157 0.1643989873053573
    outer loop
      vertex -24.041630560342615 9.899494936611667 0
      vertex -22.62741699796952 8.485281374238573 12
      vertex -16.97056274847714 16.970562748477143 0
    endloop
  endfacet
  facet normal 0.6974858324629155 -0.6974858324629157 0.16439898730535726
    outer loop
      vertex -19.79898987322333 5.656854249492383 0
      vertex -12.727922061357855 12.727922061357857 0
      vertex -21.213203435596427 7.071067811865477 12
    endloop
  endfacet
  facet normal 0 0 -1
    outer loop
      vertex -24.041630560342615 9.899494936611667 0
      vertex -16.97056274847714 16.970562748477143 0
      vertex -12.727922061357855 12.727922061357857 0
    endloop
  endfacet
  facet normal 0.7071067811865476 0.7071067811865474 -7.401486830834377e-17
    outer loop
      vertex -16.97056274847714 16.970562748477143 0
      vertex -14.14213562373095 14.142135623730953 12
      vertex -12.727922061357855 12.727922061357857 0
    endloop
  endfacet
  facet normal -0.7071067811865485 -0.7071067811865467 -3.1456319031046123e-16
    outer loop
      vertex -19.79898987322333 5.656854249492383 0
      vertex -21.213203435596427 7.071067811865477 12
      vertex -22.62741699796952 8.485281374238573 12
    endloop
  endfacet
  facet normal 0.6974858324629155 -0.6974858324629157 0.16439898730535724
    outer loop
      vertex -12.727922061357855 12.727922061357857 0
      vertex -14.14213562373095 14.142135623730953 12
      vertex -21.213203435596427 7.071067811865477 12
    endloop
  endfacet
  facet normal 0 0 1
    outer loop
      vertex -22.62741699796952 8.485281374238573 12
      vertex -21.213203435596427 7.071067811865477 12
      vertex -14.14213562373095 14.142135623730953 12
    endloop
  endfacet
  facet normal -0.6974858324629156 0.6974858324629157 0.16439898730535735
    outer loop
      vertex -16.97056274847714 16.970562748477143 0
      vertex -22.62741699796952 8.485281374238573 12
      vertex -15.556349186104043 15.556349186104047 12
    endloop
  endfacet
  facet normal 0.7071067811865476 0.7071067811865476 0
    outer loop
      vertex -16.97056274847714 16.970562748477143 0
      vertex -15.556349186104043 15.556349186104047 12
      vertex -14.14213562373095 14.142135623730953 12
    endloop
  endfacet
  facet normal 0 0 1
    outer loop
      vertex -22.62741699796952 8.485281374238573 12
      vertex -14.14213562373095 14.142135623730953 12
      vertex -15.556349186104043 15.556349186104047 12
    endloop
  endfacet
  facet normal 0 0 -1
    outer loop
      vertex -24 -9.999999999999996 0
      vertex -18 2.204364238465236e-15 0
      vertex -18 -9.999999999999996 0
    endloop
  endfacet
  facet normal 0 0 -1
    outer loop
      vertex -24 -9.999999999999996 0
      vertex -24 2.9391523179536475e-15 0
      vertex -18 2.204364238465236e-15 0
    endloop
  endfacet
  facet normal 0 -1 0
    outer loop
      vertex -24 -9.999999999999996 0
      vertex -18 -9.999999999999996 0
      vertex -22 -9.999999999999996 12
    endloop
  endfacet
  facet normal -0.9863939238321437 0 0.1643989873053573
    outer loop
      vertex -24 -9.999999999999996 0
      vertex -22 -9.999999999999996 12
      vertex -24 2.9391523179536475e-15 0
    endloop
  endfacet
  facet normal 0.9863939238321437 0 0.1643989873053573
    outer loop
      vertex -18 -9.999999999999996 0
      vertex -18 2.204364238465236e-15 0
      vertex -20 -9.999999999999996 12
    endloop
  endfacet
  facet normal 0 -1 0
    outer loop
      vertex -18 -9.999999999999996 0
      vertex -20 -9.999999999999996 12
      vertex -22 -9.999999999999996 12
    endloop
  endfacet
  facet normal -0.9863939238321437 0 0.1643989873053573
    outer loop
      vertex -22 -9.999999999999996 12
      vertex -22 2.694222958124177e-15 12
      vertex -24 2.9391523179536475e-15 0
    endloop
  endfacet
  facet normal 0.9863939238321437 0 0.1643989873053573
    outer loop
      vertex -20 -9.999999999999996 12
      vertex -18 2.204364238465236e-15 0
      vertex -20 2.449293598294706e-15 12
    endloop
  endfacet
  facet normal 0 0 1
    outer loop
      vertex -22 -9.999999999999996 12
      vertex -20 -9.999999999999996 12
      vertex -20 2.449293598294706e-15 12
    endloop
  endfacet
  facet normal 0 0 1
    outer loop
      vertex -22 -9.999999999999996 12
      vertex -20 2.449293598294706e-15 12
      vertex -22 2.694222958124177e-15 12
    endloop
  endfacet
  facet normal 1.2246467991473527e-16 1 2.1912802922805882e-32
    outer loop
      vertex -24 2.9391523179536475e-15 0
      vertex -20 2.449293598294706e-15 12
      vertex -18 2.204364238465236e-15 0
    endloop
  endfacet
  facet normal 1.2246467991473535e-16 1 0
    outer loop
      vertex -24 2.9391523179536475e-15 0
      vertex -22 2.694222958124177e-15 12
      vertex -20 2.449293598294706e-15 12
    endloop
  endfacet
  facet normal 0 0 -1
    outer loop
      vertex -16.970562748477143 -16.970562748477136 0
      vertex -12.727922061357857 -12.727922061357852 0
      vertex -9.899494936611669 -24.04163056034261 0
    endloop
  endfacet
  facet normal -0.7071067811865474 0.7071067811865476 4.9343245538895844e-17
    outer loop
      vertex -16.970562748477143 -16.970562748477136 0
      vertex -14.142135623730951 -14.142135623730946 12
      vertex -12.727922061357857 -12.727922061357852 0
    endloop
  endfacet
  facet normal 0 0 -1
    outer loop
      vertex -12.727922061357857 -12.727922061357852 0
      vertex -5.656854249492383 -19.798989873223327 0
      vertex -9.899494936611669 -24.04163056034261 0
    endloop
  endfacet
  facet normal -0.6974858324629157 -0.6974858324629155 0.16439898730535718
    outer loop
      vertex -16.970562748477143 -16.970562748477136 0
      vertex -9.899494936611669 -24.04163056034261 0
      vertex -8.485281374238573 -22.62741699796952 12
    endloop
  endfacet
  facet normal 0.7071067811865474 -0.7071067811865476 -1.8503717077085943e-16
    outer loop
      vertex -9.899494936611669 -24.04163056034261 0
      vertex -5.656854249492383 -19.798989873223327 0
      vertex -8.485281374238573 -22.62741699796952 12
    endloop
  endfacet
  facet normal 0.6974858324629157 0.6974858324629155 0.16439898730535737
    outer loop
      vertex -12.727922061357857 -12.727922061357852 0
      vertex -7.071067811865479 -21.213203435596423 12
      vertex -5.656854249492383 -19.798989873223327 0
    endloop
  endfacet
  facet normal -0.6974858324629158 -0.6974858324629155 0.16439898730535726
    outer loop
      vertex -16.970562748477143 -16.970562748477136 0
      vertex -8.485281374238573 -22.62741699796952 12
      vertex -15.556349186104047 -15.556349186104041 12
    endloop
  endfacet
  facet normal -0.7071067811865476 0.7071067811865476 1.110223024625156e-16
    outer loop
      vertex -16.970562748477143 -16.970562748477136 0
      vertex -15.556349186104047 -15.556349186104041 12
      vertex -14.142135623730951 -14.142135623730946 12
    endloop
  endfacet
  facet normal 0 0 1
    outer loop
      vertex -15.556349186104047 -15.556349186104041 12
      vertex -8.485281374238573 -22.62741699796952 12
      vertex -14.142135623730951 -14.142135623730946 12
    endloop
  endfacet
  facet normal 0.707106781186548 -0.7071067811865471 1.1102230246251568e-16
    outer loop
      vertex -5.656854249492383 -19.798989873223327 0
      vertex -7.071067811865479 -21.213203435596423 12
      vertex -8.485281374238573 -22.62741699796952 12
    endloop
  endfacet
  facet normal 0.697485832462916 0.6974858324629154 0.16439898730535718
    outer loop
      vertex -12.727922061357857 -12.727922061357852 0
      vertex -14.142135623730951 -14.142135623730946 12
      vertex -7.071067811865479 -21.213203435596423 12
    endloop
  endfacet
  facet normal 0 0 1
    outer loop
      vertex -14.142135623730951 -14.142135623730946 12
      vertex -8.485281374238573 -22.62741699796952 12
      vertex -7.071067811865479 -21.213203435596423 12
    endloop
  endfacet
  facet normal 0 0 -1
    outer loop
      vertex -4.408728476930472e-15 -24 0
      vertex -3.3065463576978537e-15 -18 0
      vertex 9.999999999999996 -24.000000000000004 0
    endloop
  endfacet
  facet normal 0 0 -1
    outer loop
      vertex -3.3065463576978537e-15 -18 0
      vertex 9.999999999999998 -18 0
      vertex 9.999999999999996 -24.000000000000004 0
    endloop
  endfacet
  facet normal -1 1.83697019872103e-16 -2.1912802922805882e-32
    outer loop
      vertex -4.408728476930472e-15 -24 0
      vertex -3.67394039744206e-15 -20 12
      vertex -3.3065463576978537e-15 -18 0
    endloop
  endfacet
  facet normal -3.5043751858841563e-16 -0.9863939238321437 0.16439898730535757
    outer loop
      vertex -4.408728476930472e-15 -24 0
      vertex 9.999999999999996 -24.000000000000004 0
      vertex 9.999999999999996 -22 12
    endloop
  endfacet
  facet normal 0 0.9863939238321437 0.16439898730535726
    outer loop
      vertex -3.3065463576978537e-15 -18 0
      vertex 9.999999999999996 -20 12
      vertex 9.999999999999998 -18 0
    endloop
  endfacet
  facet normal 1 -2.960594732333749e-16 4.9343245538895905e-17
    outer loop
      vertex 9.999999999999996 -24.000000000000004 0
      vertex 9.999999999999998 -18 0
      vertex 9.999999999999996 -22 12
    endloop
  endfacet
  facet normal -1 1.8369701987210272e-16 6.573840876841765e-32
    outer loop
      vertex -4.408728476930472e-15 -24 0
      vertex -4.0413344371862654e-15 -22 12
      vertex -3.67394039744206e-15 -20 12
    endloop
  endfacet
  facet normal 0 -0.9863939238321437 0.1643989873053573
    outer loop
      vertex -4.408728476930472e-15 -24 0
      vertex 9.999999999999996 -22 12
      vertex -4.0413344371862654e-15 -22 12
    endloop
  endfacet
  facet normal 0 0.9863939238321437 0.1643989873053573
    outer loop
      vertex -3.3065463576978537e-15 -18 0
      vertex -3.67394039744206e-15 -20 12
      vertex 9.999999999999996 -20 12
    endloop
  endfacet
  facet normal 1 0 1.4802973661668753e-16
    outer loop
      vertex 9.999999999999998 -18 0
      vertex 9.999999999999996 -20 12
      vertex 9.999999999999996 -22 12
    endloop
  endfacet
  facet normal 0 0 1
    outer loop
      vertex -4.0413344371862654e-15 -22 12
      vertex 9.999999999999996 -22 12
      vertex -3.67394039744206e-15 -20 12
    endloop
  endfacet
  facet normal 0 0 1
    outer loop
      vertex -3.67394039744206e-15 -20 12
      vertex 9.999999999999996 -22 12
      vertex 9.999999999999996 -20 12
    endloop
  endfacet
  facet normal 0 0 -1
    outer loop
      vertex 12.727922061357852 -12.727922061357857 0
      vertex 24.04163056034261 -9.899494936611669 0
      vertex 16.970562748477136 -16.970562748477143 0
    endloop
  endfacet
  facet normal -0.7071067811865476 -0.7071067811865474 3.700743415417188e-17
    outer loop
      vertex 12.727922061357852 -12.727922061357857 0
      vertex 16.970562748477136 -16.970562748477143 0
      vertex 14.142135623730946 -14.142135623730951 12
    endloop
  endfacet
  facet normal 0 0 -1
    outer loop
      vertex 12.727922061357852 -12.727922061357857 0
      vertex 19.798989873223327 -5.656854249492383 0
      vertex 24.04163056034261 -9.899494936611669 0
    endloop
  endfacet
  facet normal -0.6974858324629155 0.6974858324629157 0.16439898730535737
    outer loop
      vertex 12.727922061357852 -12.727922061357857 0
      vertex 21.213203435596423 -7.071067811865479 12
      vertex 19.798989873223327 -5.656854249492383 0
    endloop
  endfacet
  facet normal 0.6974858324629155 -0.6974858324629157 0.16439898730535718
    outer loop
      vertex 16.970562748477136 -16.970562748477143 0
      vertex 24.04163056034261 -9.899494936611669 0
      vertex 22.62741699796952 -8.485281374238573 12
    endloop
  endfacet
  facet normal 0.7071067811865476 0.7071067811865474 -1.7270135938613546e-16
    outer loop
      vertex 19.798989873223327 -5.656854249492383 0
      vertex 22.62741699796952 -8.485281374238573 12
      vertex 24.04163056034261 -9.899494936611669 0
    endloop
  endfacet
  facet normal -0.7071067811865476 -0.7071067811865476 1.110223024625156e-16
    outer loop
      vertex 14.142135623730946 -14.142135623730951 12
      vertex 16.970562748477136 -16.970562748477143 0
      vertex 15.556349186104041 -15.556349186104047 12
    endloop
  endfacet
  facet normal 0.6974858324629155 -0.6974858324629158 0.16439898730535726
    outer loop
      vertex 16.970562748477136 -16.970562748477143 0
      vertex 22.62741699796952 -8.485281374238573 12
      vertex 15.556349186104041 -15.556349186104047 12
    endloop
  endfacet
  facet normal 0 0 1
    outer loop
      vertex 14.142135623730946 -14.142135623730951 12
      vertex 15.556349186104041 -15.556349186104047 12
      vertex 22.62741699796952 -8.485281374238573 12
    endloop
  endfacet
  facet normal -0.6974858324629154 0.697485832462916 0.16439898730535718
    outer loop
      vertex 12.727922061357852 -12.727922061357857 0
      vertex 14.142135623730946 -14.142135623730951 12
      vertex 21.213203435596423 -7.071067811865479 12
    endloop
  endfacet
  facet normal 0.7071067811865471 0.707106781186548 1.1102230246251568e-16
    outer loop
      vertex 19.798989873223327 -5.656854249492383 0
      vertex 21.213203435596423 -7.071067811865479 12
      vertex 22.62741699796952 -8.485281374238573 12
    endloop
  endfacet
  facet normal 0 0 1
    outer loop
      vertex 14.142135623730946 -14.142135623730951 12
      vertex 22.62741699796952 -8.485281374238573 12
      vertex 21.213203435596423 -7.071067811865479 12
    endloop
  endfacet
endsolid PythonSCAD_Model
