solid PythonSCAD_Model
  facet normal 0 0 -1
    outer loop
      vertex -0.970941817426052 -0.23931566428755763 -4
      vertex -0.748510748171101 0.6631226582407953 -4
      vertex -0.748510748171101 -0.6631226582407953 -4
    endloop
  endfacet
  facet normal 0 0 -1
    outer loop
      vertex -0.748510748171101 -0.6631226582407953 -4
      vertex -0.3546048870425357 0.9350162426854148 -4
      vertex -0.3546048870425357 -0.9350162426854148 -4
    endloop
  endfacet
  facet normal 0 0 -1
    outer loop
      vertex -0.3546048870425357 -0.9350162426854148 -4
      vertex 0.12053668025532299 0.992708874098054 -4
      vertex 0.12053668025532276 -0.9927088740980541 -4
    endloop
  endfacet
  facet normal -0.7157822211191605 -0.3756714897791091 -0.5886652220888083
    outer loop
      vertex -0.970941817426052 -0.23931566428755763 -4
      vertex -0.748510748171101 -0.6631226582407953 -4
      vertex -3.883767269704208 -0.9572626571502305 0
    endloop
  endfacet
  facet normal -0.4592104343688432 -0.6652811685820608 -0.5886652220888083
    outer loop
      vertex -0.748510748171101 -0.6631226582407953 -4
      vertex -0.3546048870425357 -0.9350162426854148 -4
      vertex -1.4184195481701427 -3.7400649707416593 0
    endloop
  endfacet
  facet normal -0.8083769271219546 0 -0.5886652220888084
    outer loop
      vertex -0.970941817426052 -0.23931566428755763 -4
      vertex -3.883767269704208 -0.9572626571502305 0
      vertex -3.883767269704208 0.9572626571502305 0
    endloop
  endfacet
  facet normal -0.7157822211191605 -0.375671489779109 -0.5886652220888082
    outer loop
      vertex -0.748510748171101 -0.6631226582407953 -4
      vertex -2.994042992684404 -2.652490632963181 0
      vertex -3.883767269704208 -0.9572626571502305 0
    endloop
  endfacet
  facet normal 0 0 1
    outer loop
      vertex -2.994042992684404 -2.652490632963181 0
      vertex -3.883767269704208 0.9572626571502305 0
      vertex -3.883767269704208 -0.9572626571502305 0
    endloop
  endfacet
  facet normal 0 0 1
    outer loop
      vertex -2.994042992684404 -2.652490632963181 0
      vertex -1.4184195481701427 -3.7400649707416593 0
      vertex -2.994042992684404 2.652490632963181 0
    endloop
  endfacet
  facet normal -0.4592104343688432 -0.6652811685820608 -0.5886652220888083
    outer loop
      vertex -0.748510748171101 -0.6631226582407953 -4
      vertex -1.4184195481701427 -3.7400649707416593 0
      vertex -2.994042992684404 -2.652490632963181 0
    endloop
  endfacet
  facet normal -0.09743907119027981 -0.8024829491700802 -0.5886652220888083
    outer loop
      vertex -0.3546048870425357 -0.9350162426854148 -4
      vertex 0.482146721021291 -3.9708354963922163 0
      vertex -1.4184195481701427 -3.7400649707416593 0
    endloop
  endfacet
  facet normal 0 0 1
    outer loop
      vertex -1.4184195481701427 -3.7400649707416593 0
      vertex 0.482146721021291 -3.9708354963922163 0
      vertex -1.4184195481701427 3.7400649707416593 0
    endloop
  endfacet
  facet normal -0.8083769271219546 0 -0.5886652220888084
    outer loop
      vertex -0.970941817426052 -0.23931566428755763 -4
      vertex -3.883767269704208 0.9572626571502305 0
      vertex -0.970941817426052 0.23931566428755763 -4
    endloop
  endfacet
  facet normal 0 0 -1
    outer loop
      vertex -0.970941817426052 -0.23931566428755763 -4
      vertex -0.970941817426052 0.23931566428755763 -4
      vertex -0.748510748171101 0.6631226582407953 -4
    endloop
  endfacet
  facet normal 0 0 -1
    outer loop
      vertex -0.748510748171101 -0.6631226582407953 -4
      vertex -0.748510748171101 0.6631226582407953 -4
      vertex -0.3546048870425357 0.9350162426854148 -4
    endloop
  endfacet
  facet normal 0 0 -1
    outer loop
      vertex -0.3546048870425357 -0.9350162426854148 -4
      vertex -0.3546048870425357 0.9350162426854148 -4
      vertex 0.12053668025532299 0.992708874098054 -4
    endloop
  endfacet
  facet normal -0.7157822211191605 0.3756714897791091 -0.5886652220888083
    outer loop
      vertex -0.970941817426052 0.23931566428755763 -4
      vertex -3.883767269704208 0.9572626571502305 0
      vertex -0.748510748171101 0.6631226582407953 -4
    endloop
  endfacet
  facet normal -0.4592104343688432 0.6652811685820608 -0.5886652220888083
    outer loop
      vertex -0.748510748171101 0.6631226582407953 -4
      vertex -1.4184195481701427 3.7400649707416593 0
      vertex -0.3546048870425357 0.9350162426854148 -4
    endloop
  endfacet
  facet normal -0.7157822211191605 0.375671489779109 -0.5886652220888082
    outer loop
      vertex -0.748510748171101 0.6631226582407953 -4
      vertex -3.883767269704208 0.9572626571502305 0
      vertex -2.994042992684404 2.652490632963181 0
    endloop
  endfacet
  facet normal 0 0 1
    outer loop
      vertex -2.994042992684404 -2.652490632963181 0
      vertex -2.994042992684404 2.652490632963181 0
      vertex -3.883767269704208 0.9572626571502305 0
    endloop
  endfacet
  facet normal 0 0 1
    outer loop
      vertex -1.4184195481701427 -3.7400649707416593 0
      vertex -1.4184195481701427 3.7400649707416593 0
      vertex -2.994042992684404 2.652490632963181 0
    endloop
  endfacet
  facet normal 0 0 1
    outer loop
      vertex -1.4184195481701427 3.7400649707416593 0
      vertex 0.482146721021291 -3.9708354963922163 0
      vertex 0.48214672102129197 3.970835496392216 0
    endloop
  endfacet
  facet normal -0.4592104343688432 0.6652811685820608 -0.5886652220888083
    outer loop
      vertex -0.748510748171101 0.6631226582407953 -4
      vertex -2.994042992684404 2.652490632963181 0
      vertex -1.4184195481701427 3.7400649707416593 0
    endloop
  endfacet
  facet normal -0.09743907119027959 0.8024829491700803 -0.5886652220888083
    outer loop
      vertex -0.3546048870425357 0.9350162426854148 -4
      vertex -1.4184195481701427 3.7400649707416593 0
      vertex 0.48214672102129197 3.970835496392216 0
    endloop
  endfacet
  facet normal 0 0 -1
    outer loop
      vertex 0.12053668025532276 -0.9927088740980541 -4
      vertex 0.5680647467311557 0.8229838658936565 -4
      vertex 0.5680647467311561 -0.8229838658936561 -4
    endloop
  endfacet
  facet normal 0 0 -1
    outer loop
      vertex 0.5680647467311561 -0.8229838658936561 -4
      vertex 0.8854560256532099 0.46472317204376856 -4
      vertex 0.88545602565321 -0.46472317204376834 -4
    endloop
  endfacet
  facet normal -0.09743907119027981 -0.8024829491700802 -0.5886652220888083
    outer loop
      vertex -0.3546048870425357 -0.9350162426854148 -4
      vertex 0.12053668025532276 -0.9927088740980541 -4
      vertex 0.482146721021291 -3.9708354963922163 0
    endloop
  endfacet
  facet normal 0.28665440892987293 -0.7558455570711513 -0.5886652220888083
    outer loop
      vertex 0.12053668025532276 -0.9927088740980541 -4
      vertex 0.5680647467311561 -0.8229838658936561 -4
      vertex 0.482146721021291 -3.9708354963922163 0
    endloop
  endfacet
  facet normal 0.6050788185243101 -0.536053056773636 -0.5886652220888083
    outer loop
      vertex 0.5680647467311561 -0.8229838658936561 -4
      vertex 0.88545602565321 -0.46472317204376834 -4
      vertex 3.54182410261284 -1.8588926881750734 0
    endloop
  endfacet
  facet normal 0.7848869627850779 -0.19345726130892513 -0.5886652220888083
    outer loop
      vertex 0.88545602565321 -0.46472317204376834 -4
      vertex 1 0 -4
      vertex 4 0 0
    endloop
  endfacet
  facet normal 0.28665440892987293 -0.7558455570711513 -0.5886652220888083
    outer loop
      vertex 0.5680647467311561 -0.8229838658936561 -4
      vertex 2.2722589869246246 -3.2919354635746245 0
      vertex 0.482146721021291 -3.9708354963922163 0
    endloop
  endfacet
  facet normal 0 0 1
    outer loop
      vertex 0.482146721021291 -3.9708354963922163 0
      vertex 2.2722589869246246 -3.2919354635746245 0
      vertex 0.48214672102129197 3.970835496392216 0
    endloop
  endfacet
  facet normal 0.60507881852431 -0.5360530567736359 -0.5886652220888083
    outer loop
      vertex 0.5680647467311561 -0.8229838658936561 -4
      vertex 3.54182410261284 -1.8588926881750734 0
      vertex 2.2722589869246246 -3.2919354635746245 0
    endloop
  endfacet
  facet normal 0.7848869627850779 -0.19345726130892513 -0.5886652220888083
    outer loop
      vertex 0.88545602565321 -0.46472317204376834 -4
      vertex 4 0 0
      vertex 3.54182410261284 -1.8588926881750734 0
    endloop
  endfacet
  facet normal 0 0 1
    outer loop
      vertex 2.2722589869246246 -3.2919354635746245 0
      vertex 3.54182410261284 -1.8588926881750734 0
      vertex 2.272258986924623 3.291935463574626 0
    endloop
  endfacet
  facet normal 0 0 -1
    outer loop
      vertex 0.12053668025532276 -0.9927088740980541 -4
      vertex 0.12053668025532299 0.992708874098054 -4
      vertex 0.5680647467311557 0.8229838658936565 -4
    endloop
  endfacet
  facet normal 0 0 -1
    outer loop
      vertex 0.5680647467311561 -0.8229838658936561 -4
      vertex 0.5680647467311557 0.8229838658936565 -4
      vertex 0.8854560256532099 0.46472317204376856 -4
    endloop
  endfacet
  facet normal 0 0 -1
    outer loop
      vertex 0.88545602565321 -0.46472317204376834 -4
      vertex 0.8854560256532099 0.46472317204376856 -4
      vertex 1 0 -4
    endloop
  endfacet
  facet normal -0.09743907119027959 0.8024829491700802 -0.5886652220888083
    outer loop
      vertex -0.3546048870425357 0.9350162426854148 -4
      vertex 0.48214672102129197 3.970835496392216 0
      vertex 0.12053668025532299 0.992708874098054 -4
    endloop
  endfacet
  facet normal 0.2866544089298727 0.7558455570711515 -0.5886652220888084
    outer loop
      vertex 0.5680647467311557 0.8229838658936565 -4
      vertex 0.12053668025532299 0.992708874098054 -4
      vertex 0.48214672102129197 3.970835496392216 0
    endloop
  endfacet
  facet normal 0.7848869627850777 0.1934572613089252 -0.5886652220888083
    outer loop
      vertex 1 0 -4
      vertex 0.8854560256532099 0.46472317204376856 -4
      vertex 4 0 0
    endloop
  endfacet
  facet normal 0.6050788185243098 0.5360530567736361 -0.5886652220888083
    outer loop
      vertex 0.8854560256532099 0.46472317204376856 -4
      vertex 0.5680647467311557 0.8229838658936565 -4
      vertex 3.5418241026128396 1.8588926881750742 0
    endloop
  endfacet
  facet normal 0 0 1
    outer loop
      vertex 2.2722589869246246 -3.2919354635746245 0
      vertex 2.272258986924623 3.291935463574626 0
      vertex 0.48214672102129197 3.970835496392216 0
    endloop
  endfacet
  facet normal 0.2866544089298727 0.7558455570711515 -0.5886652220888084
    outer loop
      vertex 0.5680647467311557 0.8229838658936565 -4
      vertex 0.48214672102129197 3.970835496392216 0
      vertex 2.272258986924623 3.291935463574626 0
    endloop
  endfacet
  facet normal 0.7848869627850777 0.1934572613089252 -0.5886652220888084
    outer loop
      vertex 0.8854560256532099 0.46472317204376856 -4
      vertex 3.5418241026128396 1.8588926881750742 0
      vertex 4 0 0
    endloop
  endfacet
  facet normal 0 0 1
    outer loop
      vertex 3.54182410261284 -1.8588926881750734 0
      vertex 4 0 0
      vertex 3.5418241026128396 1.8588926881750742 0
    endloop
  endfacet
  facet normal 0 0 1
    outer loop
      vertex 3.54182410261284 -1.8588926881750734 0
      vertex 3.5418241026128396 1.8588926881750742 0
      vertex 2.272258986924623 3.291935463574626 0
    endloop
  endfacet
  facet normal 0.6050788185243098 0.5360530567736361 -0.5886652220888083
    outer loop
      vertex 0.5680647467311557 0.8229838658936565 -4
      vertex 2.272258986924623 3.291935463574626 0
      vertex 3.5418241026128396 1.8588926881750742 0
    endloop
  endfacet
endsolid PythonSCAD_Model
