solid PythonSCAD_Model
  facet normal 0.3989264529576208 -0.9169829252121608 0
    outer loop
      vertex 4.416608341038227 -32.84178365021944 0
      vertex 2.7263162955641747 -33.57713235914707 4
      vertex 2.7263162955641747 -33.57713235914707 0
    endloop
  endfacet
  facet normal 0.3989264529576208 -0.9169829252121608 0
    outer loop
      vertex 4.416608341038227 -32.84178365021944 0
      vertex 4.416608341038227 -32.84178365021944 4
      vertex 2.7263162955641747 -33.57713235914707 4
    endloop
  endfacet
  facet normal 0.5773821169744205 -0.8164740602114292 0
    outer loop
      vertex 5.92163047939539 -31.777484230697155 0
      vertex 4.416608341038227 -32.84178365021944 4
      vertex 4.416608341038227 -32.84178365021944 0
    endloop
  endfacet
  facet normal 0.5773821169744205 -0.8164740602114292 0
    outer loop
      vertex 5.92163047939539 -31.777484230697155 0
      vertex 5.92163047939539 -31.777484230697155 4
      vertex 4.416608341038227 -32.84178365021944 4
    endloop
  endfacet
  facet normal 0.7316174924054027 -0.6817153693488438 0
    outer loop
      vertex 7.17824936658144 -30.42887981235981 0
      vertex 5.92163047939539 -31.777484230697155 4
      vertex 5.92163047939539 -31.777484230697155 0
    endloop
  endfacet
  facet normal 0.7316174924054027 -0.6817153693488438 0
    outer loop
      vertex 7.17824936658144 -30.42887981235981 0
      vertex 7.17824936658144 -30.42887981235981 4
      vertex 5.92163047939539 -31.777484230697155 4
    endloop
  endfacet
  facet normal 0.8551626438775454 -0.518359771313676 0
    outer loop
      vertex 8.133751779794693 -28.852542266249657 0
      vertex 7.17824936658144 -30.42887981235981 4
      vertex 7.17824936658144 -30.42887981235981 0
    endloop
  endfacet
  facet normal 0.8551626438775454 -0.518359771313676 0
    outer loop
      vertex 8.133751779794693 -28.852542266249657 0
      vertex 8.133751779794693 -28.852542266249657 4
      vertex 7.17824936658144 -30.42887981235981 4
    endloop
  endfacet
  facet normal 0.9428350419267978 -0.33325978412477775 0
    outer loop
      vertex 8.74805586785078 -27.114596530795097 0
      vertex 8.133751779794693 -28.852542266249657 4
      vertex 8.133751779794693 -28.852542266249657 0
    endloop
  endfacet
  facet normal 0.9428350419267978 -0.33325978412477775 0
    outer loop
      vertex 8.74805586785078 -27.114596530795097 0
      vertex 8.74805586785078 -27.114596530795097 4
      vertex 8.133751779794693 -28.852542266249657 4
    endloop
  endfacet
  facet normal 0.9909569673352552 -0.13418006144623013 0
    outer loop
      vertex 8.99539252370596 -25.287946730852127 0
      vertex 8.74805586785078 -27.114596530795097 4
      vertex 8.74805586785078 -27.114596530795097 0
    endloop
  endfacet
  facet normal 0.9909569673352552 -0.13418006144623013 0
    outer loop
      vertex 8.99539252370596 -25.287946730852127 0
      vertex 8.99539252370596 -25.287946730852127 4
      vertex 8.74805586785078 -27.114596530795097 4
    endloop
  endfacet
  facet normal 0.997509778199561 0.07052830918335193 0
    outer loop
      vertex 8.865386351943016 -23.44921801239252 0
      vertex 8.99539252370596 -25.287946730852127 4
      vertex 8.99539252370596 -25.287946730852127 0
    endloop
  endfacet
  facet normal 0.997509778199561 0.07052830918335193 0
    outer loop
      vertex 8.865386351943016 -23.44921801239252 0
      vertex 8.865386351943016 -23.44921801239252 4
      vertex 8.99539252370596 -25.287946730852127 4
    endloop
  endfacet
  facet normal 0.9622185947594561 0.27227812232924153 0
    outer loop
      vertex 8.363490916788578 -21.675542198121548 0
      vertex 8.865386351943016 -23.44921801239252 4
      vertex 8.865386351943016 -23.44921801239252 0
    endloop
  endfacet
  facet normal 0.9622185947594561 0.27227812232924153 0
    outer loop
      vertex 8.363490916788578 -21.675542198121548 0
      vertex 8.363490916788578 -21.675542198121548 4
      vertex 8.865386351943016 -23.44921801239252 4
    endloop
  endfacet
  facet normal 0.8865638256123285 0.46260629385648544 0
    outer loop
      vertex 7.510759949684143 -20.041322261095047 0
      vertex 8.363490916788578 -21.675542198121548 4
      vertex 8.363490916788578 -21.675542198121548 0
    endloop
  endfacet
  facet normal 0.8865638256123285 0.46260629385648544 0
    outer loop
      vertex 7.510759949684143 -20.041322261095047 0
      vertex 7.510759949684143 -20.041322261095047 4
      vertex 8.363490916788578 -21.675542198121548 4
    endloop
  endfacet
  facet normal 0.773719076681571 0.6335288394217087 0
    outer loop
      vertex 6.342964209616184 -18.61511119455099 0
      vertex 7.510759949684143 -20.041322261095047 4
      vertex 7.510759949684143 -20.041322261095047 0
    endloop
  endfacet
  facet normal 0.773719076681571 0.6335288394217087 0
    outer loop
      vertex 6.342964209616184 -18.61511119455099 0
      vertex 6.342964209616184 -18.61511119455099 4
      vertex 7.510759949684143 -20.041322261095047 4
    endloop
  endfacet
  facet normal 0.6284180013623892 0.7778758355699836 0
    outer loop
      vertex 4.909090906381607 -17.456736356019974 0
      vertex 6.342964209616184 -18.61511119455099 4
      vertex 6.342964209616184 -18.61511119455099 0
    endloop
  endfacet
  facet normal 0.6284180013623892 0.7778758355699836 0
    outer loop
      vertex 4.909090906381607 -17.456736356019974 0
      vertex 4.909090906381607 -17.456736356019974 4
      vertex 6.342964209616184 -18.61511119455099 4
    endloop
  endfacet
  facet normal 0.6761876071696661 0.7367294753911786 0
    outer loop
      vertex 4.423180356621742 -17.010756246745586 0
      vertex 4.909090906381607 -17.456736356019974 4
      vertex 4.909090906381607 -17.456736356019974 0
    endloop
  endfacet
  facet normal 0.6761876071696661 0.7367294753911786 0
    outer loop
      vertex 4.423180356621742 -17.010756246745586 0
      vertex 4.423180356621742 -17.010756246745586 4
      vertex 4.909090906381607 -17.456736356019974 4
    endloop
  endfacet
  facet normal 0.8790490769553382 0.4767312873138997 0
    outer loop
      vertex 4.108751833438873 -16.430978685617447 0
      vertex 4.423180356621742 -17.010756246745586 4
      vertex 4.423180356621742 -17.010756246745586 0
    endloop
  endfacet
  facet normal 0.8790490769553382 0.4767312873138997 0
    outer loop
      vertex 4.108751833438873 -16.430978685617447 0
      vertex 4.108751833438873 -16.430978685617447 4
      vertex 4.423180356621742 -17.010756246745586 4
    endloop
  endfacet
  facet normal 0.986312344378554 0.164887717330554 0
    outer loop
      vertex 4 -15.78045554459095 0
      vertex 4.108751833438873 -16.430978685617447 4
      vertex 4.108751833438873 -16.430978685617447 0
    endloop
  endfacet
  facet normal 0.986312344378554 0.164887717330554 0
    outer loop
      vertex 4 -15.78045554459095 0
      vertex 4 -15.78045554459095 4
      vertex 4.108751833438873 -16.430978685617447 4
    endloop
  endfacet
  facet normal 0.9998453541309595 0.01758601213283038 0
    outer loop
      vertex 3.6955181285738945 1.5307337269186974 0
      vertex 4 -15.78045554459095 4
      vertex 4 -15.78045554459095 0
    endloop
  endfacet
  facet normal 0.9998453541309595 0.01758601213283038 0
    outer loop
      vertex 3.6955181285738945 1.5307337269186974 0
      vertex 3.6955181285738945 1.5307337269186974 4
      vertex 4 -15.78045554459095 4
    endloop
  endfacet
  facet normal 0.8314696114123308 0.5555702343519024 0
    outer loop
      vertex 2.8284271210432053 2.8284271210432053 0
      vertex 3.6955181285738945 1.5307337269186974 4
      vertex 3.6955181285738945 1.5307337269186974 0
    endloop
  endfacet
  facet normal 0.8314696114123308 0.5555702343519024 0
    outer loop
      vertex 2.8284271210432053 2.8284271210432053 0
      vertex 2.8284271210432053 2.8284271210432053 4
      vertex 3.6955181285738945 1.5307337269186974 4
    endloop
  endfacet
  facet normal 0.5555702343519024 0.8314696114123308 0
    outer loop
      vertex 1.5307337269186974 3.6955181285738945 0
      vertex 2.8284271210432053 2.8284271210432053 4
      vertex 2.8284271210432053 2.8284271210432053 0
    endloop
  endfacet
  facet normal 0.5555702343519024 0.8314696114123308 0
    outer loop
      vertex 1.5307337269186974 3.6955181285738945 0
      vertex 1.5307337269186974 3.6955181285738945 4
      vertex 2.8284271210432053 2.8284271210432053 4
    endloop
  endfacet
  facet normal 0.19509032323452688 0.9807852801608758 0
    outer loop
      vertex 0 4 0
      vertex 1.5307337269186974 3.6955181285738945 4
      vertex 1.5307337269186974 3.6955181285738945 0
    endloop
  endfacet
  facet normal 0.19509032323452688 0.9807852801608758 0
    outer loop
      vertex 0 4 0
      vertex 0 4 4
      vertex 1.5307337269186974 3.6955181285738945 4
    endloop
  endfacet
  facet normal -0.19509032323452688 0.9807852801608758 0
    outer loop
      vertex -1.5307337269186974 3.6955181285738945 0
      vertex 0 4 4
      vertex 0 4 0
    endloop
  endfacet
  facet normal -0.19509032323452688 0.9807852801608758 0
    outer loop
      vertex -1.5307337269186974 3.6955181285738945 0
      vertex -1.5307337269186974 3.6955181285738945 4
      vertex 0 4 4
    endloop
  endfacet
  facet normal -0.5555702343519024 0.8314696114123308 0
    outer loop
      vertex -2.8284271210432053 2.8284271210432053 0
      vertex -1.5307337269186974 3.6955181285738945 4
      vertex -1.5307337269186974 3.6955181285738945 0
    endloop
  endfacet
  facet normal -0.5555702343519024 0.8314696114123308 0
    outer loop
      vertex -2.8284271210432053 2.8284271210432053 0
      vertex -2.8284271210432053 2.8284271210432053 4
      vertex -1.5307337269186974 3.6955181285738945 4
    endloop
  endfacet
  facet normal -0.8314696114123308 0.5555702343519024 0
    outer loop
      vertex -3.6955181285738945 1.5307337269186974 0
      vertex -2.8284271210432053 2.8284271210432053 4
      vertex -2.8284271210432053 2.8284271210432053 0
    endloop
  endfacet
  facet normal -0.8314696114123308 0.5555702343519024 0
    outer loop
      vertex -3.6955181285738945 1.5307337269186974 0
      vertex -3.6955181285738945 1.5307337269186974 4
      vertex -2.8284271210432053 2.8284271210432053 4
    endloop
  endfacet
  facet normal -0.9807852801608758 0.19509032323452688 0
    outer loop
      vertex -4 0 0
      vertex -3.6955181285738945 1.5307337269186974 4
      vertex -3.6955181285738945 1.5307337269186974 0
    endloop
  endfacet
  facet normal -0.9807852801608758 0.19509032323452688 0
    outer loop
      vertex -4 0 0
      vertex -4 0 4
      vertex -3.6955181285738945 1.5307337269186974 4
    endloop
  endfacet
  facet normal -0.9999780970785345 0.006618562018536247 0
    outer loop
      vertex -4.108751833438873 -16.430978685617447 0
      vertex -4 0 4
      vertex -4 0 0
    endloop
  endfacet
  facet normal -0.9999780970785345 0.006618562018536247 0
    outer loop
      vertex -4.108751833438873 -16.430978685617447 0
      vertex -4.108751833438873 -16.430978685617447 4
      vertex -4 0 4
    endloop
  endfacet
  facet normal -0.8790490769553382 0.4767312873138997 0
    outer loop
      vertex -4.423180356621742 -17.010756246745586 0
      vertex -4.108751833438873 -16.430978685617447 4
      vertex -4.108751833438873 -16.430978685617447 0
    endloop
  endfacet
  facet normal -0.8790490769553382 0.4767312873138997 0
    outer loop
      vertex -4.423180356621742 -17.010756246745586 0
      vertex -4.423180356621742 -17.010756246745586 4
      vertex -4.108751833438873 -16.430978685617447 4
    endloop
  endfacet
  facet normal -0.6761876071696661 0.7367294753911786 0
    outer loop
      vertex -4.909090906381607 -17.456736356019974 0
      vertex -4.423180356621742 -17.010756246745586 4
      vertex -4.423180356621742 -17.010756246745586 0
    endloop
  endfacet
  facet normal -0.6761876071696661 0.7367294753911786 0
    outer loop
      vertex -4.909090906381607 -17.456736356019974 0
      vertex -4.909090906381607 -17.456736356019974 4
      vertex -4.423180356621742 -17.010756246745586 4
    endloop
  endfacet
  facet normal -0.6284180013623892 0.7778758355699836 0
    outer loop
      vertex -6.342964209616184 -18.61511119455099 0
      vertex -4.909090906381607 -17.456736356019974 4
      vertex -4.909090906381607 -17.456736356019974 0
    endloop
  endfacet
  facet normal -0.6284180013623892 0.7778758355699836 0
    outer loop
      vertex -6.342964209616184 -18.61511119455099 0
      vertex -6.342964209616184 -18.61511119455099 4
      vertex -4.909090906381607 -17.456736356019974 4
    endloop
  endfacet
  facet normal -0.773719076681571 0.6335288394217087 0
    outer loop
      vertex -7.510759949684143 -20.041322261095047 0
      vertex -6.342964209616184 -18.61511119455099 4
      vertex -6.342964209616184 -18.61511119455099 0
    endloop
  endfacet
  facet normal -0.773719076681571 0.6335288394217087 0
    outer loop
      vertex -7.510759949684143 -20.041322261095047 0
      vertex -7.510759949684143 -20.041322261095047 4
      vertex -6.342964209616184 -18.61511119455099 4
    endloop
  endfacet
  facet normal -0.8865638256123285 0.46260629385648544 0
    outer loop
      vertex -8.363490916788578 -21.675542198121548 0
      vertex -7.510759949684143 -20.041322261095047 4
      vertex -7.510759949684143 -20.041322261095047 0
    endloop
  endfacet
  facet normal -0.8865638256123285 0.46260629385648544 0
    outer loop
      vertex -8.363490916788578 -21.675542198121548 0
      vertex -8.363490916788578 -21.675542198121548 4
      vertex -7.510759949684143 -20.041322261095047 4
    endloop
  endfacet
  facet normal -0.9622185947594561 0.27227812232924153 0
    outer loop
      vertex -8.865386351943016 -23.44921801239252 0
      vertex -8.363490916788578 -21.675542198121548 4
      vertex -8.363490916788578 -21.675542198121548 0
    endloop
  endfacet
  facet normal -0.9622185947594561 0.27227812232924153 0
    outer loop
      vertex -8.865386351943016 -23.44921801239252 0
      vertex -8.865386351943016 -23.44921801239252 4
      vertex -8.363490916788578 -21.675542198121548 4
    endloop
  endfacet
  facet normal -0.997509778199561 0.07052830918335193 0
    outer loop
      vertex -8.99539252370596 -25.287946730852127 0
      vertex -8.865386351943016 -23.44921801239252 4
      vertex -8.865386351943016 -23.44921801239252 0
    endloop
  endfacet
  facet normal -0.997509778199561 0.07052830918335193 0
    outer loop
      vertex -8.99539252370596 -25.287946730852127 0
      vertex -8.99539252370596 -25.287946730852127 4
      vertex -8.865386351943016 -23.44921801239252 4
    endloop
  endfacet
  facet normal -0.9909569673352552 -0.13418006144623013 0
    outer loop
      vertex -8.74805586785078 -27.114596530795097 0
      vertex -8.99539252370596 -25.287946730852127 4
      vertex -8.99539252370596 -25.287946730852127 0
    endloop
  endfacet
  facet normal -0.9909569673352552 -0.13418006144623013 0
    outer loop
      vertex -8.74805586785078 -27.114596530795097 0
      vertex -8.74805586785078 -27.114596530795097 4
      vertex -8.99539252370596 -25.287946730852127 4
    endloop
  endfacet
  facet normal -0.9428350419267978 -0.33325978412477775 0
    outer loop
      vertex -8.133751779794693 -28.852542266249657 0
      vertex -8.74805586785078 -27.114596530795097 4
      vertex -8.74805586785078 -27.114596530795097 0
    endloop
  endfacet
  facet normal -0.9428350419267978 -0.33325978412477775 0
    outer loop
      vertex -8.133751779794693 -28.852542266249657 0
      vertex -8.133751779794693 -28.852542266249657 4
      vertex -8.74805586785078 -27.114596530795097 4
    endloop
  endfacet
  facet normal -0.8551626438775454 -0.518359771313676 0
    outer loop
      vertex -7.17824936658144 -30.42887981235981 0
      vertex -8.133751779794693 -28.852542266249657 4
      vertex -8.133751779794693 -28.852542266249657 0
    endloop
  endfacet
  facet normal -0.8551626438775454 -0.518359771313676 0
    outer loop
      vertex -7.17824936658144 -30.42887981235981 0
      vertex -7.17824936658144 -30.42887981235981 4
      vertex -8.133751779794693 -28.852542266249657 4
    endloop
  endfacet
  facet normal -0.7316174924054027 -0.6817153693488438 0
    outer loop
      vertex -5.92163047939539 -31.777484230697155 0
      vertex -7.17824936658144 -30.42887981235981 4
      vertex -7.17824936658144 -30.42887981235981 0
    endloop
  endfacet
  facet normal -0.7316174924054027 -0.6817153693488438 0
    outer loop
      vertex -5.92163047939539 -31.777484230697155 0
      vertex -5.92163047939539 -31.777484230697155 4
      vertex -7.17824936658144 -30.42887981235981 4
    endloop
  endfacet
  facet normal -0.5773821169744205 -0.8164740602114292 0
    outer loop
      vertex -4.416608341038227 -32.84178365021944 0
      vertex -5.92163047939539 -31.777484230697155 4
      vertex -5.92163047939539 -31.777484230697155 0
    endloop
  endfacet
  facet normal -0.5773821169744205 -0.8164740602114292 0
    outer loop
      vertex -4.416608341038227 -32.84178365021944 0
      vertex -4.416608341038227 -32.84178365021944 4
      vertex -5.92163047939539 -31.777484230697155 4
    endloop
  endfacet
  facet normal -0.3989264529576208 -0.9169829252121608 0
    outer loop
      vertex -2.7263162955641747 -33.57713235914707 0
      vertex -4.416608341038227 -32.84178365021944 4
      vertex -4.416608341038227 -32.84178365021944 0
    endloop
  endfacet
  facet normal -0.3989264529576208 -0.9169829252121608 0
    outer loop
      vertex -2.7263162955641747 -33.57713235914707 0
      vertex -2.7263162955641747 -33.57713235914707 4
      vertex -4.416608341038227 -32.84178365021944 4
    endloop
  endfacet
  facet normal -0.20373643879064565 -0.979025772647945 0
    outer loop
      vertex -0.9216594994068146 -33.952683605253696 0
      vertex -2.7263162955641747 -33.57713235914707 4
      vertex -2.7263162955641747 -33.57713235914707 0
    endloop
  endfacet
  facet normal -0.20373643879064565 -0.979025772647945 0
    outer loop
      vertex -0.9216594994068146 -33.952683605253696 0
      vertex -0.9216594994068146 -33.952683605253696 4
      vertex -2.7263162955641747 -33.57713235914707 4
    endloop
  endfacet
  facet normal 0 -1 0
    outer loop
      vertex 0.9216594994068146 -33.952683605253696 0
      vertex -0.9216594994068146 -33.952683605253696 4
      vertex -0.9216594994068146 -33.952683605253696 0
    endloop
  endfacet
  facet normal 0 -1 0
    outer loop
      vertex 0.9216594994068146 -33.952683605253696 0
      vertex 0.9216594994068146 -33.952683605253696 4
      vertex -0.9216594994068146 -33.952683605253696 4
    endloop
  endfacet
  facet normal 0.20373643879064565 -0.979025772647945 0
    outer loop
      vertex 2.7263162955641747 -33.57713235914707 0
      vertex 0.9216594994068146 -33.952683605253696 4
      vertex 0.9216594994068146 -33.952683605253696 0
    endloop
  endfacet
  facet normal 0.20373643879064565 -0.979025772647945 0
    outer loop
      vertex 2.7263162955641747 -33.57713235914707 0
      vertex 2.7263162955641747 -33.57713235914707 4
      vertex 0.9216594994068146 -33.952683605253696 4
    endloop
  endfacet
  facet normal 0 0 -1
    outer loop
      vertex 2.8284271210432053 2.8284271210432053 0
      vertex 3.6955181285738945 1.5307337269186974 0
      vertex 4 -15.78045554459095 0
    endloop
  endfacet
  facet normal 0 0 -1
    outer loop
      vertex 1.5307337269186974 3.6955181285738945 0
      vertex 2.8284271210432053 2.8284271210432053 0
      vertex 4 -15.78045554459095 0
    endloop
  endfacet
  facet normal 0 0 -1
    outer loop
      vertex 0 4 0
      vertex 1.5307337269186974 3.6955181285738945 0
      vertex 4 -15.78045554459095 0
    endloop
  endfacet
  facet normal 0 0 -1
    outer loop
      vertex -1.5307337269186974 3.6955181285738945 0
      vertex 0 4 0
      vertex 4 -15.78045554459095 0
    endloop
  endfacet
  facet normal 0 0 -1
    outer loop
      vertex -2.8284271210432053 2.8284271210432053 0
      vertex -1.5307337269186974 3.6955181285738945 0
      vertex 4 -15.78045554459095 0
    endloop
  endfacet
  facet normal 0 0 -1
    outer loop
      vertex -3.6955181285738945 1.5307337269186974 0
      vertex -2.8284271210432053 2.8284271210432053 0
      vertex 4 -15.78045554459095 0
    endloop
  endfacet
  facet normal 0 0 -1
    outer loop
      vertex -4 0 0
      vertex -3.6955181285738945 1.5307337269186974 0
      vertex 4 -15.78045554459095 0
    endloop
  endfacet
  facet normal 0 0 -1
    outer loop
      vertex -4.108751833438873 -16.430978685617447 0
      vertex -4 0 0
      vertex 4 -15.78045554459095 0
    endloop
  endfacet
  facet normal 0 0 -1
    outer loop
      vertex -4.108751833438873 -16.430978685617447 0
      vertex 4 -15.78045554459095 0
      vertex 4.108751833438873 -16.430978685617447 0
    endloop
  endfacet
  facet normal 0 0 -1
    outer loop
      vertex -4.108751833438873 -16.430978685617447 0
      vertex 4.108751833438873 -16.430978685617447 0
      vertex 4.423180356621742 -17.010756246745586 0
    endloop
  endfacet
  facet normal 0 0 -1
    outer loop
      vertex -4.423180356621742 -17.010756246745586 0
      vertex -4.108751833438873 -16.430978685617447 0
      vertex 4.423180356621742 -17.010756246745586 0
    endloop
  endfacet
  facet normal 0 0 -1
    outer loop
      vertex -4.423180356621742 -17.010756246745586 0
      vertex 4.423180356621742 -17.010756246745586 0
      vertex 4.909090906381607 -17.456736356019974 0
    endloop
  endfacet
  facet normal 0 0 -1
    outer loop
      vertex -4.909090906381607 -17.456736356019974 0
      vertex -4.423180356621742 -17.010756246745586 0
      vertex 4.909090906381607 -17.456736356019974 0
    endloop
  endfacet
  facet normal 0 0 -1
    outer loop
      vertex -4.909090906381607 -17.456736356019974 0
      vertex 4.909090906381607 -17.456736356019974 0
      vertex 6.342964209616184 -18.61511119455099 0
    endloop
  endfacet
  facet normal 0 0 -1
    outer loop
      vertex -4.909090906381607 -17.456736356019974 0
      vertex 6.342964209616184 -18.61511119455099 0
      vertex 7.510759949684143 -20.041322261095047 0
    endloop
  endfacet
  facet normal 0 0 -1
    outer loop
      vertex -4.909090906381607 -17.456736356019974 0
      vertex 7.510759949684143 -20.041322261095047 0
      vertex 8.363490916788578 -21.675542198121548 0
    endloop
  endfacet
  facet normal 0 0 -1
    outer loop
      vertex -4.909090906381607 -17.456736356019974 0
      vertex 8.363490916788578 -21.675542198121548 0
      vertex 8.865386351943016 -23.44921801239252 0
    endloop
  endfacet
  facet normal 0 0 -1
    outer loop
      vertex -4.909090906381607 -17.456736356019974 0
      vertex 8.865386351943016 -23.44921801239252 0
      vertex 8.99539252370596 -25.287946730852127 0
    endloop
  endfacet
  facet normal 0 0 -1
    outer loop
      vertex -4.909090906381607 -17.456736356019974 0
      vertex 8.99539252370596 -25.287946730852127 0
      vertex 8.74805586785078 -27.114596530795097 0
    endloop
  endfacet
  facet normal 0 0 -1
    outer loop
      vertex -4.909090906381607 -17.456736356019974 0
      vertex 8.74805586785078 -27.114596530795097 0
      vertex 8.133751779794693 -28.852542266249657 0
    endloop
  endfacet
  facet normal 0 0 -1
    outer loop
      vertex -4.909090906381607 -17.456736356019974 0
      vertex 8.133751779794693 -28.852542266249657 0
      vertex 7.17824936658144 -30.42887981235981 0
    endloop
  endfacet
  facet normal 0 0 -1
    outer loop
      vertex -4.909090906381607 -17.456736356019974 0
      vertex 7.17824936658144 -30.42887981235981 0
      vertex 5.92163047939539 -31.777484230697155 0
    endloop
  endfacet
  facet normal 0 0 -1
    outer loop
      vertex -4.909090906381607 -17.456736356019974 0
      vertex 5.92163047939539 -31.777484230697155 0
      vertex 4.416608341038227 -32.84178365021944 0
    endloop
  endfacet
  facet normal 0 0 -1
    outer loop
      vertex -6.342964209616184 -18.61511119455099 0
      vertex -4.909090906381607 -17.456736356019974 0
      vertex 4.416608341038227 -32.84178365021944 0
    endloop
  endfacet
  facet normal 0 0 -1
    outer loop
      vertex -7.510759949684143 -20.041322261095047 0
      vertex -6.342964209616184 -18.61511119455099 0
      vertex 4.416608341038227 -32.84178365021944 0
    endloop
  endfacet
  facet normal 0 0 -1
    outer loop
      vertex -8.363490916788578 -21.675542198121548 0
      vertex -7.510759949684143 -20.041322261095047 0
      vertex 4.416608341038227 -32.84178365021944 0
    endloop
  endfacet
  facet normal 0 0 -1
    outer loop
      vertex -8.865386351943016 -23.44921801239252 0
      vertex -8.363490916788578 -21.675542198121548 0
      vertex 4.416608341038227 -32.84178365021944 0
    endloop
  endfacet
  facet normal 0 0 -1
    outer loop
      vertex -8.99539252370596 -25.287946730852127 0
      vertex -8.865386351943016 -23.44921801239252 0
      vertex 4.416608341038227 -32.84178365021944 0
    endloop
  endfacet
  facet normal 0 0 -1
    outer loop
      vertex -8.74805586785078 -27.114596530795097 0
      vertex -8.99539252370596 -25.287946730852127 0
      vertex 4.416608341038227 -32.84178365021944 0
    endloop
  endfacet
  facet normal 0 0 -1
    outer loop
      vertex -8.133751779794693 -28.852542266249657 0
      vertex -8.74805586785078 -27.114596530795097 0
      vertex 4.416608341038227 -32.84178365021944 0
    endloop
  endfacet
  facet normal 0 0 -1
    outer loop
      vertex -8.133751779794693 -28.852542266249657 0
      vertex 4.416608341038227 -32.84178365021944 0
      vertex 2.7263162955641747 -33.57713235914707 0
    endloop
  endfacet
  facet normal 0 0 -1
    outer loop
      vertex -8.133751779794693 -28.852542266249657 0
      vertex 2.7263162955641747 -33.57713235914707 0
      vertex 0.9216594994068146 -33.952683605253696 0
    endloop
  endfacet
  facet normal 0 0 -1
    outer loop
      vertex -7.17824936658144 -30.42887981235981 0
      vertex -8.133751779794693 -28.852542266249657 0
      vertex 0.9216594994068146 -33.952683605253696 0
    endloop
  endfacet
  facet normal 0 0 -1
    outer loop
      vertex -7.17824936658144 -30.42887981235981 0
      vertex 0.9216594994068146 -33.952683605253696 0
      vertex -0.9216594994068146 -33.952683605253696 0
    endloop
  endfacet
  facet normal 0 0 -1
    outer loop
      vertex -5.92163047939539 -31.777484230697155 0
      vertex -7.17824936658144 -30.42887981235981 0
      vertex -0.9216594994068146 -33.952683605253696 0
    endloop
  endfacet
  facet normal 0 0 -1
    outer loop
      vertex -0.9216594994068146 -33.952683605253696 0
      vertex -2.7263162955641747 -33.57713235914707 0
      vertex -4.416608341038227 -32.84178365021944 0
    endloop
  endfacet
  facet normal 0 0 -1
    outer loop
      vertex -5.92163047939539 -31.777484230697155 0
      vertex -0.9216594994068146 -33.952683605253696 0
      vertex -4.416608341038227 -32.84178365021944 0
    endloop
  endfacet
  facet normal 0 0 1
    outer loop
      vertex 4 -15.78045554459095 4
      vertex 3.6955181285738945 1.5307337269186974 4
      vertex 2.8284271210432053 2.8284271210432053 4
    endloop
  endfacet
  facet normal 0 0 1
    outer loop
      vertex 4 -15.78045554459095 4
      vertex 2.8284271210432053 2.8284271210432053 4
      vertex 1.5307337269186974 3.6955181285738945 4
    endloop
  endfacet
  facet normal 0 0 1
    outer loop
      vertex 4 -15.78045554459095 4
      vertex 1.5307337269186974 3.6955181285738945 4
      vertex 0 4 4
    endloop
  endfacet
  facet normal 0 0 1
    outer loop
      vertex 4 -15.78045554459095 4
      vertex 0 4 4
      vertex -1.5307337269186974 3.6955181285738945 4
    endloop
  endfacet
  facet normal 0 0 1
    outer loop
      vertex 4 -15.78045554459095 4
      vertex -1.5307337269186974 3.6955181285738945 4
      vertex -2.8284271210432053 2.8284271210432053 4
    endloop
  endfacet
  facet normal 0 0 1
    outer loop
      vertex 4 -15.78045554459095 4
      vertex -2.8284271210432053 2.8284271210432053 4
      vertex -3.6955181285738945 1.5307337269186974 4
    endloop
  endfacet
  facet normal 0 0 1
    outer loop
      vertex 4 -15.78045554459095 4
      vertex -3.6955181285738945 1.5307337269186974 4
      vertex -4 0 4
    endloop
  endfacet
  facet normal 0 0 1
    outer loop
      vertex 4 -15.78045554459095 4
      vertex -4 0 4
      vertex -4.108751833438873 -16.430978685617447 4
    endloop
  endfacet
  facet normal 0 0 1
    outer loop
      vertex 4.108751833438873 -16.430978685617447 4
      vertex 4 -15.78045554459095 4
      vertex -4.108751833438873 -16.430978685617447 4
    endloop
  endfacet
  facet normal 0 0 1
    outer loop
      vertex 4.423180356621742 -17.010756246745586 4
      vertex 4.108751833438873 -16.430978685617447 4
      vertex -4.108751833438873 -16.430978685617447 4
    endloop
  endfacet
  facet normal 0 0 1
    outer loop
      vertex 4.423180356621742 -17.010756246745586 4
      vertex -4.108751833438873 -16.430978685617447 4
      vertex -4.423180356621742 -17.010756246745586 4
    endloop
  endfacet
  facet normal 0 0 1
    outer loop
      vertex 4.909090906381607 -17.456736356019974 4
      vertex 4.423180356621742 -17.010756246745586 4
      vertex -4.423180356621742 -17.010756246745586 4
    endloop
  endfacet
  facet normal 0 0 1
    outer loop
      vertex 4.909090906381607 -17.456736356019974 4
      vertex -4.423180356621742 -17.010756246745586 4
      vertex -4.909090906381607 -17.456736356019974 4
    endloop
  endfacet
  facet normal 0 0 1
    outer loop
      vertex 6.342964209616184 -18.61511119455099 4
      vertex 4.909090906381607 -17.456736356019974 4
      vertex -4.909090906381607 -17.456736356019974 4
    endloop
  endfacet
  facet normal 0 0 1
    outer loop
      vertex 7.510759949684143 -20.041322261095047 4
      vertex 6.342964209616184 -18.61511119455099 4
      vertex -4.909090906381607 -17.456736356019974 4
    endloop
  endfacet
  facet normal 0 0 1
    outer loop
      vertex 8.363490916788578 -21.675542198121548 4
      vertex 7.510759949684143 -20.041322261095047 4
      vertex -4.909090906381607 -17.456736356019974 4
    endloop
  endfacet
  facet normal 0 0 1
    outer loop
      vertex 8.865386351943016 -23.44921801239252 4
      vertex 8.363490916788578 -21.675542198121548 4
      vertex -4.909090906381607 -17.456736356019974 4
    endloop
  endfacet
  facet normal 0 0 1
    outer loop
      vertex 8.99539252370596 -25.287946730852127 4
      vertex 8.865386351943016 -23.44921801239252 4
      vertex -4.909090906381607 -17.456736356019974 4
    endloop
  endfacet
  facet normal 0 0 1
    outer loop
      vertex 8.74805586785078 -27.114596530795097 4
      vertex 8.99539252370596 -25.287946730852127 4
      vertex -4.909090906381607 -17.456736356019974 4
    endloop
  endfacet
  facet normal 0 0 1
    outer loop
      vertex 8.133751779794693 -28.852542266249657 4
      vertex 8.74805586785078 -27.114596530795097 4
      vertex -4.909090906381607 -17.456736356019974 4
    endloop
  endfacet
  facet normal 0 0 1
    outer loop
      vertex 7.17824936658144 -30.42887981235981 4
      vertex 8.133751779794693 -28.852542266249657 4
      vertex -4.909090906381607 -17.456736356019974 4
    endloop
  endfacet
  facet normal 0 0 1
    outer loop
      vertex 5.92163047939539 -31.777484230697155 4
      vertex 7.17824936658144 -30.42887981235981 4
      vertex -4.909090906381607 -17.456736356019974 4
    endloop
  endfacet
  facet normal 0 0 1
    outer loop
      vertex 4.416608341038227 -32.84178365021944 4
      vertex 5.92163047939539 -31.777484230697155 4
      vertex -4.909090906381607 -17.456736356019974 4
    endloop
  endfacet
  facet normal 0 0 1
    outer loop
      vertex 4.416608341038227 -32.84178365021944 4
      vertex -4.909090906381607 -17.456736356019974 4
      vertex -6.342964209616184 -18.61511119455099 4
    endloop
  endfacet
  facet normal 0 0 1
    outer loop
      vertex 4.416608341038227 -32.84178365021944 4
      vertex -6.342964209616184 -18.61511119455099 4
      vertex -7.510759949684143 -20.041322261095047 4
    endloop
  endfacet
  facet normal 0 0 1
    outer loop
      vertex 4.416608341038227 -32.84178365021944 4
      vertex -7.510759949684143 -20.041322261095047 4
      vertex -8.363490916788578 -21.675542198121548 4
    endloop
  endfacet
  facet normal 0 0 1
    outer loop
      vertex 4.416608341038227 -32.84178365021944 4
      vertex -8.363490916788578 -21.675542198121548 4
      vertex -8.865386351943016 -23.44921801239252 4
    endloop
  endfacet
  facet normal 0 0 1
    outer loop
      vertex 4.416608341038227 -32.84178365021944 4
      vertex -8.865386351943016 -23.44921801239252 4
      vertex -8.99539252370596 -25.287946730852127 4
    endloop
  endfacet
  facet normal 0 0 1
    outer loop
      vertex 4.416608341038227 -32.84178365021944 4
      vertex -8.99539252370596 -25.287946730852127 4
      vertex -8.74805586785078 -27.114596530795097 4
    endloop
  endfacet
  facet normal 0 0 1
    outer loop
      vertex 4.416608341038227 -32.84178365021944 4
      vertex -8.74805586785078 -27.114596530795097 4
      vertex -8.133751779794693 -28.852542266249657 4
    endloop
  endfacet
  facet normal 0 0 1
    outer loop
      vertex 2.7263162955641747 -33.57713235914707 4
      vertex 4.416608341038227 -32.84178365021944 4
      vertex -8.133751779794693 -28.852542266249657 4
    endloop
  endfacet
  facet normal 0 0 1
    outer loop
      vertex 0.9216594994068146 -33.952683605253696 4
      vertex 2.7263162955641747 -33.57713235914707 4
      vertex -8.133751779794693 -28.852542266249657 4
    endloop
  endfacet
  facet normal 0 0 1
    outer loop
      vertex 0.9216594994068146 -33.952683605253696 4
      vertex -8.133751779794693 -28.852542266249657 4
      vertex -7.17824936658144 -30.42887981235981 4
    endloop
  endfacet
  facet normal 0 0 1
    outer loop
      vertex -0.9216594994068146 -33.952683605253696 4
      vertex 0.9216594994068146 -33.952683605253696 4
      vertex -7.17824936658144 -30.42887981235981 4
    endloop
  endfacet
  facet normal 0 0 1
    outer loop
      vertex -0.9216594994068146 -33.952683605253696 4
      vertex -7.17824936658144 -30.42887981235981 4
      vertex -5.92163047939539 -31.777484230697155 4
    endloop
  endfacet
  facet normal 0 0 1
    outer loop
      vertex -4.416608341038227 -32.84178365021944 4
      vertex -2.7263162955641747 -33.57713235914707 4
      vertex -0.9216594994068146 -33.952683605253696 4
    endloop
  endfacet
  facet normal 0 0 1
    outer loop
      vertex -4.416608341038227 -32.84178365021944 4
      vertex -0.9216594994068146 -33.952683605253696 4
      vertex -5.92163047939539 -31.777484230697155 4
    endloop
  endfacet
endsolid PythonSCAD_Model
