solid PythonSCAD_Model
  facet normal 0 0 -1
    outer loop
      vertex 20 20 14
      vertex 20 -4 14
      vertex -4 20 14
    endloop
  endfacet
  facet normal 0 0 -1
    outer loop
      vertex -12 7 6
      vertex 7 -12 6
      vertex -12 -12 6
    endloop
  endfacet
  facet normal 0.408248290463863 0.408248290463863 -0.816496580927726
    outer loop
      vertex 15 -4 14
      vertex 7 -12 6
      vertex -12 7 6
    endloop
  endfacet
  facet normal 0.408248290463863 0.408248290463863 -0.816496580927726
    outer loop
      vertex -4 15 14
      vertex 15 -4 14
      vertex -12 7 6
    endloop
  endfacet
  facet normal 0 0 -1
    outer loop
      vertex 20 -4 14
      vertex 15 -4 14
      vertex -4 15 14
    endloop
  endfacet
  facet normal 0 0 -1
    outer loop
      vertex -4 20 14
      vertex 20 -4 14
      vertex -4 15 14
    endloop
  endfacet
  facet normal 0 0 1
    outer loop
      vertex 3.5 3.5 -6
      vertex -12 -12 -6
      vertex 12 -12 -6
    endloop
  endfacet
  facet normal 0 0 1
    outer loop
      vertex 12 -5 -6
      vertex 3.5 3.5 -6
      vertex 12 -12 -6
    endloop
  endfacet
  facet normal -0.408248290463863 -0.408248290463863 0.816496580927726
    outer loop
      vertex 11.5 11.5 2
      vertex 3.5 3.5 -6
      vertex 12 -5 -6
    endloop
  endfacet
  facet normal -0.408248290463863 -0.408248290463863 0.816496580927726
    outer loop
      vertex 20 3 2
      vertex 11.5 11.5 2
      vertex 12 -5 -6
    endloop
  endfacet
  facet normal 0 0 1
    outer loop
      vertex 20 20 2
      vertex 11.5 11.5 2
      vertex 20 3 2
    endloop
  endfacet
  facet normal 0 0 1
    outer loop
      vertex -5 12 -6
      vertex -12 12 -6
      vertex -12 -12 -6
    endloop
  endfacet
  facet normal 0 0 1
    outer loop
      vertex 3.5 3.5 -6
      vertex -5 12 -6
      vertex -12 -12 -6
    endloop
  endfacet
  facet normal -0.408248290463863 -0.408248290463863 0.816496580927726
    outer loop
      vertex 3 20 2
      vertex -5 12 -6
      vertex 3.5 3.5 -6
    endloop
  endfacet
  facet normal -0.408248290463863 -0.408248290463863 0.816496580927726
    outer loop
      vertex 11.5 11.5 2
      vertex 3 20 2
      vertex 3.5 3.5 -6
    endloop
  endfacet
  facet normal 0 0 1
    outer loop
      vertex 20 20 2
      vertex 3 20 2
      vertex 11.5 11.5 2
    endloop
  endfacet
  facet normal 0 1 0
    outer loop
      vertex 8.666666666666668 -12 4.333333333333334
      vertex -12 -12 -6
      vertex -12 -12 6
    endloop
  endfacet
  facet normal 0 1 0
    outer loop
      vertex 7 -12 6
      vertex 8.666666666666668 -12 4.333333333333334
      vertex -12 -12 6
    endloop
  endfacet
  facet normal -0.40824829046386285 0.8164965809277261 -0.4082482904638633
    outer loop
      vertex 16.666666666666668 -4 12.333333333333334
      vertex 8.666666666666668 -12 4.333333333333334
      vertex 7 -12 6
    endloop
  endfacet
  facet normal -0.40824829046386285 0.8164965809277261 -0.4082482904638633
    outer loop
      vertex 15 -4 14
      vertex 16.666666666666668 -4 12.333333333333334
      vertex 7 -12 6
    endloop
  endfacet
  facet normal 0 1 0
    outer loop
      vertex 20 -4 14
      vertex 16.666666666666668 -4 12.333333333333334
      vertex 15 -4 14
    endloop
  endfacet
  facet normal 0 1 0
    outer loop
      vertex 12 -12 1
      vertex 12 -12 -6
      vertex -12 -12 -6
    endloop
  endfacet
  facet normal 0 1 0
    outer loop
      vertex 8.666666666666668 -12 4.333333333333334
      vertex 12 -12 1
      vertex -12 -12 -6
    endloop
  endfacet
  facet normal -0.40824829046386313 0.8164965809277261 -0.40824829046386296
    outer loop
      vertex 20 -4 9
      vertex 12 -12 1
      vertex 8.666666666666668 -12 4.333333333333334
    endloop
  endfacet
  facet normal -0.40824829046386313 0.8164965809277261 -0.40824829046386296
    outer loop
      vertex 16.666666666666668 -4 12.333333333333334
      vertex 20 -4 9
      vertex 8.666666666666668 -12 4.333333333333334
    endloop
  endfacet
  facet normal 0 1 0
    outer loop
      vertex 20 -4 14
      vertex 20 -4 9
      vertex 16.666666666666668 -4 12.333333333333334
    endloop
  endfacet
  facet normal -1 0 0
    outer loop
      vertex 20 20 14
      vertex 20 20 2
      vertex 20 -4 14
    endloop
  endfacet
  facet normal -1 0 0
    outer loop
      vertex 12 -12 1
      vertex 12 -5 -6
      vertex 12 -12 -6
    endloop
  endfacet
  facet normal -0.8164965809277259 0.40824829046386296 0.40824829046386296
    outer loop
      vertex 20 3 2
      vertex 12 -5 -6
      vertex 12 -12 1
    endloop
  endfacet
  facet normal -0.8164965809277259 0.40824829046386296 0.40824829046386296
    outer loop
      vertex 20 -4 9
      vertex 20 3 2
      vertex 12 -12 1
    endloop
  endfacet
  facet normal -1 0 0
    outer loop
      vertex 20 20 2
      vertex 20 3 2
      vertex 20 -4 9
    endloop
  endfacet
  facet normal -1 0 0
    outer loop
      vertex 20 -4 14
      vertex 20 20 2
      vertex 20 -4 9
    endloop
  endfacet
  facet normal 0 -1 0
    outer loop
      vertex 20 20 14
      vertex -4 20 14
      vertex 20 20 2
    endloop
  endfacet
  facet normal 0 -1 0
    outer loop
      vertex -5 12 -6
      vertex -12 12 1
      vertex -12 12 -6
    endloop
  endfacet
  facet normal 0.40824829046386296 -0.8164965809277259 0.40824829046386296
    outer loop
      vertex -4 20 9
      vertex -12 12 1
      vertex -5 12 -6
    endloop
  endfacet
  facet normal 0.40824829046386296 -0.8164965809277259 0.40824829046386296
    outer loop
      vertex 3 20 2
      vertex -4 20 9
      vertex -5 12 -6
    endloop
  endfacet
  facet normal 0 -1 0
    outer loop
      vertex -4 20 14
      vertex -4 20 9
      vertex 3 20 2
    endloop
  endfacet
  facet normal 0 -1 0
    outer loop
      vertex 20 20 2
      vertex -4 20 14
      vertex 3 20 2
    endloop
  endfacet
  facet normal 1 0 0
    outer loop
      vertex -12 8.666666666666668 4.333333333333334
      vertex -12 -12 -6
      vertex -12 12 -6
    endloop
  endfacet
  facet normal 1 0 0
    outer loop
      vertex -12 12 1
      vertex -12 8.666666666666668 4.333333333333334
      vertex -12 12 -6
    endloop
  endfacet
  facet normal 0.8164965809277261 -0.40824829046386313 -0.40824829046386296
    outer loop
      vertex -4 16.666666666666668 12.333333333333334
      vertex -12 8.666666666666668 4.333333333333334
      vertex -12 12 1
    endloop
  endfacet
  facet normal 0.8164965809277261 -0.40824829046386313 -0.40824829046386296
    outer loop
      vertex -4 20 9
      vertex -4 16.666666666666668 12.333333333333334
      vertex -12 12 1
    endloop
  endfacet
  facet normal 1 0 0
    outer loop
      vertex -4 20 14
      vertex -4 16.666666666666668 12.333333333333334
      vertex -4 20 9
    endloop
  endfacet
  facet normal 1 0 0
    outer loop
      vertex -12 7 6
      vertex -12 -12 6
      vertex -12 -12 -6
    endloop
  endfacet
  facet normal 1 0 0
    outer loop
      vertex -12 8.666666666666668 4.333333333333334
      vertex -12 7 6
      vertex -12 -12 -6
    endloop
  endfacet
  facet normal 0.8164965809277261 -0.40824829046386285 -0.4082482904638633
    outer loop
      vertex -4 15 14
      vertex -12 7 6
      vertex -12 8.666666666666668 4.333333333333334
    endloop
  endfacet
  facet normal 0.8164965809277261 -0.40824829046386285 -0.4082482904638633
    outer loop
      vertex -4 16.666666666666668 12.333333333333334
      vertex -4 15 14
      vertex -12 8.666666666666668 4.333333333333334
    endloop
  endfacet
  facet normal 1 0 0
    outer loop
      vertex -4 20 14
      vertex -4 15 14
      vertex -4 16.666666666666668 12.333333333333334
    endloop
  endfacet
endsolid PythonSCAD_Model
