solid PythonSCAD_Model
  facet normal -0.9238795325112868 -0.3826834323650897 0
    outer loop
      vertex -1.7677669529663689 -1.7677669529663689 -6
      vertex -1.7677669529663689 -1.7677669529663689 3.8000000000000003
      vertex -2.251471862576143 -0.6 -6
    endloop
  endfacet
  facet normal -0.9238795325112868 -0.3826834323650897 0
    outer loop
      vertex -1.7677669529663689 -1.7677669529663689 3.8000000000000003
      vertex -2.251471862576143 -0.6 3.8000000000000003
      vertex -2.251471862576143 -0.6 -6
    endloop
  endfacet
  facet normal -0.3826834323650897 -0.9238795325112867 0
    outer loop
      vertex -1.7677669529663689 -1.7677669529663689 -6
      vertex 0 -2.5 -6
      vertex -1.7677669529663689 -1.7677669529663689 3.8000000000000003
    endloop
  endfacet
  facet normal -0.3826834323650897 -0.9238795325112867 0
    outer loop
      vertex -1.7677669529663689 -1.7677669529663689 3.8000000000000003
      vertex 0 -2.5 -6
      vertex 0 -2.5 3.8000000000000003
    endloop
  endfacet
  facet normal 0 0 -1
    outer loop
      vertex -1.7677669529663689 -1.7677669529663689 -6
      vertex -2.251471862576143 -0.6 -6
      vertex 2.251471862576143 -0.6 -6
    endloop
  endfacet
  facet normal 0 0 1
    outer loop
      vertex -1.7677669529663689 -1.7677669529663689 6
      vertex -1.8579591589834497 -1.0905960435160045 6
      vertex -1.834840784377436 -1.6058363994934441 6
    endloop
  endfacet
  facet normal -0.923879532511287 -0.38268343236508945 0
    outer loop
      vertex -1.7677669529663689 -1.7677669529663689 5.646927688316638
      vertex -1.7677669529663689 -1.7677669529663689 6
      vertex -1.834840784377436 -1.6058363994934441 6
    endloop
  endfacet
  facet normal -0.38268343236508934 -0.923879532511287 0
    outer loop
      vertex -1.7677669529663689 -1.7677669529663689 5.646927688316638
      vertex -1.4053331895548702 -1.917891933233333 6
      vertex -1.7677669529663689 -1.7677669529663689 6
    endloop
  endfacet
  facet normal 0 0 1
    outer loop
      vertex -1.7677669529663689 -1.7677669529663689 6
      vertex -1.6332037060954707 -1.6332037060954707 6
      vertex -1.8579591589834497 -1.0905960435160045 6
    endloop
  endfacet
  facet normal 0 0 1
    outer loop
      vertex -1.7677669529663689 -1.7677669529663689 6
      vertex -1.4053331895548702 -1.917891933233333 6
      vertex -1.6332037060954707 -1.6332037060954707 6
    endloop
  endfacet
  facet normal 0 0 1
    outer loop
      vertex -1.6332037060954707 -1.6332037060954707 6
      vertex -1.4053331895548702 -1.917891933233333 6
      vertex -0.8376066980751404 -1.9627507770009478 6
    endloop
  endfacet
  facet normal 0 0 1
    outer loop
      vertex -1.4053331895548702 -1.917891933233333 6
      vertex -0.8467460128373661 -2.14926631759742 6
      vertex -0.8376066980751404 -1.9627507770009478 6
    endloop
  endfacet
  facet normal -0.3826834323650899 -0.9238795325112868 0
    outer loop
      vertex -0.29540005537506764 -2.3776412907378837 6
      vertex 0 -2.5 5.52826294448255
      vertex 0 -2.5 6
    endloop
  endfacet
  facet normal 0 0 1
    outer loop
      vertex -0.29540005537506764 -2.3776412907378837 6
      vertex 0 -2.5 6
      vertex -0.05068263685083503 -2.3776412907378837 6
    endloop
  endfacet
  facet normal 0 0 1
    outer loop
      vertex -0.05068263685083503 -2.3776412907378837 6
      vertex 0 -2.5 6
      vertex 0 -2.309698831278217 6
    endloop
  endfacet
  facet normal 0 0 1
    outer loop
      vertex -0.05068263685083503 -2.3776412907378837 6
      vertex 0 -2.309698831278217 6
      vertex -0.09515058436089148 -2.2702861687682105 6
    endloop
  endfacet
  facet normal -0.9238795325112868 0.3826834323650897 0
    outer loop
      vertex -1.7677669529663689 1.7677669529663689 -6
      vertex -2.251471862576143 0.6 -6
      vertex -2.251471862576143 0.6 3.8000000000000003
    endloop
  endfacet
  facet normal -0.9238795325112868 0.3826834323650897 0
    outer loop
      vertex -1.7677669529663689 1.7677669529663689 -6
      vertex -2.251471862576143 0.6 3.8000000000000003
      vertex -1.7677669529663689 1.7677669529663689 3.8000000000000003
    endloop
  endfacet
  facet normal 0 0 -1
    outer loop
      vertex -1.7677669529663689 1.7677669529663689 -6
      vertex 0 2.5 -6
      vertex -2.251471862576143 0.6 -6
    endloop
  endfacet
  facet normal 0 0 -1
    outer loop
      vertex 0 2.5 -6
      vertex 1.7677669529663689 1.7677669529663689 -6
      vertex -2.251471862576143 0.6 -6
    endloop
  endfacet
  facet normal -0.3826834323650897 0.9238795325112867 0
    outer loop
      vertex -1.7677669529663689 1.7677669529663689 -6
      vertex 0 2.5 3.8000000000000003
      vertex 0 2.5 -6
    endloop
  endfacet
  facet normal -0.3826834323650897 0.9238795325112867 0
    outer loop
      vertex -1.7677669529663689 1.7677669529663689 -6
      vertex -1.7677669529663689 1.7677669529663689 3.8000000000000003
      vertex 0 2.5 3.8000000000000003
    endloop
  endfacet
  facet normal 0 0 1
    outer loop
      vertex -1.946262015960746 0.8774140886051245 6
      vertex -1.6332037060954707 1.6332037060954707 6
      vertex -1.9648613751878086 1.2919389257712797 6
    endloop
  endfacet
  facet normal 0 0 1
    outer loop
      vertex -1.9648613751878086 1.2919389257712797 6
      vertex -1.6332037060954707 1.6332037060954707 6
      vertex -1.834840784377436 1.6058363994934441 6
    endloop
  endfacet
  facet normal -0.923879532511287 0.38268343236508945 0
    outer loop
      vertex -1.834840784377436 1.6058363994934441 6
      vertex -1.7677669529663689 1.7677669529663689 6
      vertex -1.7677669529663689 1.7677669529663689 5.646927688316638
    endloop
  endfacet
  facet normal 0 0 1
    outer loop
      vertex -1.834840784377436 1.6058363994934441 6
      vertex -1.6332037060954707 1.6332037060954707 6
      vertex -1.7677669529663689 1.7677669529663689 6
    endloop
  endfacet
  facet normal -0.38268343236508934 0.923879532511287 0
    outer loop
      vertex -1.7677669529663689 1.7677669529663689 5.646927688316638
      vertex -1.7677669529663689 1.7677669529663689 6
      vertex -1.4053331895548702 1.917891933233333 6
    endloop
  endfacet
  facet normal 0 0 1
    outer loop
      vertex -1.7677669529663689 1.7677669529663689 6
      vertex -1.6332037060954707 1.6332037060954707 6
      vertex -1.4053331895548702 1.917891933233333 6
    endloop
  endfacet
  facet normal 0 0 1
    outer loop
      vertex -1.6332037060954707 1.6332037060954707 6
      vertex 0 2.309698831278217 6
      vertex -1.4053331895548702 1.917891933233333 6
    endloop
  endfacet
  facet normal 0 0 1
    outer loop
      vertex -1.4053331895548702 1.917891933233333 6
      vertex 0 2.309698831278217 6
      vertex -0.29540005537506764 2.3776412907378837 6
    endloop
  endfacet
  facet normal -0.3826834323650899 0.9238795325112868 0
    outer loop
      vertex -0.29540005537506764 2.3776412907378837 6
      vertex 0 2.5 6
      vertex 0 2.5 5.52826294448255
    endloop
  endfacet
  facet normal 0 0 1
    outer loop
      vertex -0.29540005537506764 2.3776412907378837 6
      vertex 0 2.309698831278217 6
      vertex 0 2.5 6
    endloop
  endfacet
  facet normal 0.3826834323650897 -0.9238795325112867 0
    outer loop
      vertex 0 -2.5 -6
      vertex 1.7677669529663689 -1.7677669529663689 -6
      vertex 0 -2.5 3.8000000000000003
    endloop
  endfacet
  facet normal 0 0 -1
    outer loop
      vertex -1.7677669529663689 -1.7677669529663689 -6
      vertex 2.251471862576143 -0.6 -6
      vertex 0 -2.5 -6
    endloop
  endfacet
  facet normal 0 0 -1
    outer loop
      vertex 0 -2.5 -6
      vertex 2.251471862576143 -0.6 -6
      vertex 1.7677669529663689 -1.7677669529663689 -6
    endloop
  endfacet
  facet normal 0.3826834323650897 -0.9238795325112867 0
    outer loop
      vertex 1.7677669529663689 -1.7677669529663689 -6
      vertex 1.7677669529663689 -1.7677669529663689 3.8000000000000003
      vertex 0 -2.5 3.8000000000000003
    endloop
  endfacet
  facet normal 0.9238795325112868 -0.3826834323650897 0
    outer loop
      vertex 1.7677669529663689 -1.7677669529663689 -6
      vertex 2.251471862576143 -0.6 -6
      vertex 2.251471862576143 -0.6 3.8000000000000003
    endloop
  endfacet
  facet normal 0.9238795325112868 -0.3826834323650897 0
    outer loop
      vertex 1.7677669529663689 -1.7677669529663689 -6
      vertex 2.251471862576143 -0.6 3.8000000000000003
      vertex 1.7677669529663689 -1.7677669529663689 3.8000000000000003
    endloop
  endfacet
  facet normal 0.3826834323650899 -0.9238795325112868 0
    outer loop
      vertex 0 -2.5 5.52826294448255
      vertex 0.29540005537506764 -2.3776412907378837 6
      vertex 0 -2.5 6
    endloop
  endfacet
  facet normal 0 0 1
    outer loop
      vertex 0 -2.5 6
      vertex 0.29540005537506764 -2.3776412907378837 6
      vertex 0 -2.309698831278217 6
    endloop
  endfacet
  facet normal 0 0 1
    outer loop
      vertex 0 -2.309698831278217 6
      vertex 0.29540005537506764 -2.3776412907378837 6
      vertex 0.7159432047191072 -2.2034466147164884 6
    endloop
  endfacet
  facet normal 0 0 1
    outer loop
      vertex 0 -2.309698831278217 6
      vertex 0.7159432047191072 -2.2034466147164884 6
      vertex 0.7197695691743665 -2.011560513942755 6
    endloop
  endfacet
  facet normal 0.38268343236508934 -0.923879532511287 0
    outer loop
      vertex 1.4053331895548702 -1.917891933233333 6
      vertex 1.7677669529663689 -1.7677669529663689 5.646927688316638
      vertex 1.7677669529663689 -1.7677669529663689 6
    endloop
  endfacet
  facet normal 0 0 1
    outer loop
      vertex 1.4053331895548702 -1.917891933233333 6
      vertex 1.7677669529663689 -1.7677669529663689 6
      vertex 1.7317251339969493 -1.6807543047978 6
    endloop
  endfacet
  facet normal 0.923879532511287 -0.38268343236508945 0
    outer loop
      vertex 1.7677669529663689 -1.7677669529663689 5.646927688316638
      vertex 1.834840784377436 -1.6058363994934441 6
      vertex 1.7677669529663689 -1.7677669529663689 6
    endloop
  endfacet
  facet normal 0 0 1
    outer loop
      vertex 1.7317251339969493 -1.6807543047978 6
      vertex 1.7677669529663689 -1.7677669529663689 6
      vertex 1.834840784377436 -1.6058363994934441 6
    endloop
  endfacet
  facet normal 0 0 1
    outer loop
      vertex 1.7317251339969493 -1.6807543047978 6
      vertex 1.834840784377436 -1.6058363994934441 6
      vertex 1.6726163686054774 -1.538053121734579 6
    endloop
  endfacet
  facet normal 0 0 1
    outer loop
      vertex 1.6726163686054774 -1.538053121734579 6
      vertex 1.834840784377436 -1.6058363994934441 6
      vertex 1.9648613751878086 -1.2919389257712797 6
    endloop
  endfacet
  facet normal 0 0 1
    outer loop
      vertex 1.6726163686054774 -1.538053121734579 6
      vertex 1.9648613751878086 -1.2919389257712797 6
      vertex 1.946262015960746 -0.8774140886051245 6
    endloop
  endfacet
  facet normal 0 0 -1
    outer loop
      vertex 1.7677669529663689 1.7677669529663689 -6
      vertex 2.251471862576143 0.6 -6
      vertex -2.251471862576143 0.6 -6
    endloop
  endfacet
  facet normal 0.3826834323650897 0.9238795325112867 0
    outer loop
      vertex 0 2.5 -6
      vertex 1.7677669529663689 1.7677669529663689 3.8000000000000003
      vertex 1.7677669529663689 1.7677669529663689 -6
    endloop
  endfacet
  facet normal 0.3826834323650897 0.9238795325112867 0
    outer loop
      vertex 0 2.5 -6
      vertex 0 2.5 3.8000000000000003
      vertex 1.7677669529663689 1.7677669529663689 3.8000000000000003
    endloop
  endfacet
  facet normal 0.9238795325112868 0.3826834323650897 0
    outer loop
      vertex 1.7677669529663689 1.7677669529663689 -6
      vertex 1.7677669529663689 1.7677669529663689 3.8000000000000003
      vertex 2.251471862576143 0.6 -6
    endloop
  endfacet
  facet normal 0.9238795325112868 0.3826834323650897 0
    outer loop
      vertex 1.7677669529663689 1.7677669529663689 3.8000000000000003
      vertex 2.251471862576143 0.6 3.8000000000000003
      vertex 2.251471862576143 0.6 -6
    endloop
  endfacet
  facet normal 0 0 1
    outer loop
      vertex 0 2.309698831278217 6
      vertex 1.6332037060954707 1.6332037060954707 6
      vertex 0 2.5 6
    endloop
  endfacet
  facet normal 0 0 1
    outer loop
      vertex 0 2.5 6
      vertex 1.6332037060954707 1.6332037060954707 6
      vertex 0.29540005537506764 2.3776412907378837 6
    endloop
  endfacet
  facet normal 0.3826834323650899 0.9238795325112868 0
    outer loop
      vertex 0 2.5 5.52826294448255
      vertex 0 2.5 6
      vertex 0.29540005537506764 2.3776412907378837 6
    endloop
  endfacet
  facet normal 0 0 1
    outer loop
      vertex 0.29540005537506764 2.3776412907378837 6
      vertex 1.6332037060954707 1.6332037060954707 6
      vertex 1.4053331895548702 1.917891933233333 6
    endloop
  endfacet
  facet normal 0 0 1
    outer loop
      vertex 1.4053331895548702 1.917891933233333 6
      vertex 1.6332037060954707 1.6332037060954707 6
      vertex 1.7677669529663689 1.7677669529663689 6
    endloop
  endfacet
  facet normal 0 0 1
    outer loop
      vertex 1.8579591589834497 1.0905960435160045 6
      vertex 1.7677669529663689 1.7677669529663689 6
      vertex 1.6332037060954707 1.6332037060954707 6
    endloop
  endfacet
  facet normal 0.38268343236508934 0.923879532511287 0
    outer loop
      vertex 1.4053331895548702 1.917891933233333 6
      vertex 1.7677669529663689 1.7677669529663689 6
      vertex 1.7677669529663689 1.7677669529663689 5.646927688316638
    endloop
  endfacet
  facet normal 0.923879532511287 0.38268343236508945 0
    outer loop
      vertex 1.834840784377436 1.6058363994934441 6
      vertex 1.7677669529663689 1.7677669529663689 5.646927688316638
      vertex 1.7677669529663689 1.7677669529663689 6
    endloop
  endfacet
  facet normal 0 0 1
    outer loop
      vertex 1.8579591589834497 1.0905960435160045 6
      vertex 1.834840784377436 1.6058363994934441 6
      vertex 1.7677669529663689 1.7677669529663689 6
    endloop
  endfacet
  facet normal -0.5689577402910374 -0.7831031472487175 0.25107080780542756
    outer loop
      vertex -2.5079526825623373 -1.8221342821066668 3.8000000000000003
      vertex -0.9579526825623369 -2.948275200514976 3.8000000000000003
      vertex -2.0225424859373686 -1.469463130731183 6
    endloop
  endfacet
  facet normal 0 0 -1
    outer loop
      vertex -2.5079526825623373 -1.8221342821066668 3.8000000000000003
      vertex -1.7677669529663689 -1.7677669529663689 3.8000000000000003
      vertex -0.9579526825623369 -2.948275200514976 3.8000000000000003
    endloop
  endfacet
  facet normal -0.5689577402910371 -0.7831031472487177 0.25107080780542773
    outer loop
      vertex -1.7677669529663689 -1.7677669529663689 5.646927688316638
      vertex -1.834840784377436 -1.6058363994934441 6
      vertex -2.0225424859373686 -1.469463130731183 6
    endloop
  endfacet
  facet normal -0.5689577402910373 -0.7831031472487175 0.2510708078054277
    outer loop
      vertex -1.7677669529663689 -1.7677669529663689 5.646927688316638
      vertex -2.0225424859373686 -1.469463130731183 6
      vertex -0.9579526825623369 -2.948275200514976 3.8000000000000003
    endloop
  endfacet
  facet normal 0 0 -1
    outer loop
      vertex -2.5079526825623373 -1.8221342821066668 3.8000000000000003
      vertex -2.9050481822602565 -0.6 3.8000000000000003
      vertex -2.251471862576143 -0.6 3.8000000000000003
    endloop
  endfacet
  facet normal -0.920592961953234 -0.2991187855519963 0.25107080780542756
    outer loop
      vertex -2.5079526825623373 -1.8221342821066668 3.8000000000000003
      vertex -2.0225424859373686 -1.469463130731183 6
      vertex -2.9050481822602565 -0.6 3.8000000000000003
    endloop
  endfacet
  facet normal 0 0 -1
    outer loop
      vertex -2.5079526825623373 -1.8221342821066668 3.8000000000000003
      vertex -2.251471862576143 -0.6 3.8000000000000003
      vertex -1.7677669529663689 -1.7677669529663689 3.8000000000000003
    endloop
  endfacet
  facet normal -0.9205929619532341 -0.2991187855519964 0.2510708078054275
    outer loop
      vertex -2.0225424859373686 -1.469463130731183 6
      vertex -2.3050481822602564 -0.6 6
      vertex -2.9050481822602565 -0.6 3.8000000000000003
    endloop
  endfacet
  facet normal 0 0 1
    outer loop
      vertex -1.834840784377436 -1.6058363994934441 6
      vertex -1.8579591589834497 -1.0905960435160045 6
      vertex -2.0225424859373686 -1.469463130731183 6
    endloop
  endfacet
  facet normal 0 0 1
    outer loop
      vertex -2.0225424859373686 -1.469463130731183 6
      vertex -1.8579591589834497 -1.0905960435160045 6
      vertex -2.3050481822602564 -0.6 6
    endloop
  endfacet
  facet normal 0 0 1
    outer loop
      vertex -1.8579591589834497 -1.0905960435160045 6
      vertex -2.06117069385436 -0.6 6
      vertex -2.3050481822602564 -0.6 6
    endloop
  endfacet
  facet normal 0 0 -1
    outer loop
      vertex -1.7677669529663689 -1.7677669529663689 3.8000000000000003
      vertex 0 -2.5 3.8000000000000003
      vertex -0.9579526825623369 -2.948275200514976 3.8000000000000003
    endloop
  endfacet
  facet normal -0.5689577402910372 -0.7831031472487177 0.25107080780542773
    outer loop
      vertex -1.7677669529663689 -1.7677669529663689 5.646927688316638
      vertex -0.9579526825623369 -2.948275200514976 3.8000000000000003
      vertex -1.4053331895548702 -1.917891933233333 6
    endloop
  endfacet
  facet normal -0.5689577402910373 -0.7831031472487177 0.25107080780542756
    outer loop
      vertex -0.9579526825623369 -2.948275200514976 3.8000000000000003
      vertex -0.7725424859373685 -2.3776412907378837 6
      vertex -1.4053331895548702 -1.917891933233333 6
    endloop
  endfacet
  facet normal 0 0 1
    outer loop
      vertex -1.4053331895548702 -1.917891933233333 6
      vertex -0.7725424859373685 -2.3776412907378837 6
      vertex -0.8467460128373661 -2.14926631759742 6
    endloop
  endfacet
  facet normal 0 0 1
    outer loop
      vertex -0.8467460128373661 -2.14926631759742 6
      vertex -0.7725424859373685 -2.3776412907378837 6
      vertex -0.8376066980751404 -1.9627507770009478 6
    endloop
  endfacet
  facet normal 0 -0.9679687233934422 0.2510708078054276
    outer loop
      vertex -0.9579526825623369 -2.948275200514976 3.8000000000000003
      vertex 0 -2.5 5.52826294448255
      vertex -0.29540005537506764 -2.3776412907378837 6
    endloop
  endfacet
  facet normal 0 -0.9679687233934421 0.25107080780542756
    outer loop
      vertex -0.9579526825623369 -2.948275200514976 3.8000000000000003
      vertex -0.29540005537506764 -2.3776412907378837 6
      vertex -0.7725424859373685 -2.3776412907378837 6
    endloop
  endfacet
  facet normal 0 0 1
    outer loop
      vertex -0.8376066980751404 -1.9627507770009478 6
      vertex -0.7725424859373685 -2.3776412907378837 6
      vertex -0.29540005537506764 -2.3776412907378837 6
    endloop
  endfacet
  facet normal 0 -0.9679687233934421 0.25107080780542756
    outer loop
      vertex -0.9579526825623369 -2.948275200514976 3.8000000000000003
      vertex 0.7725424859373685 -2.3776412907378837 6
      vertex 0 -2.5 5.52826294448255
    endloop
  endfacet
  facet normal 0 0 1
    outer loop
      vertex -0.29540005537506764 -2.3776412907378837 6
      vertex -0.05068263685083503 -2.3776412907378837 6
      vertex -0.09515058436089148 -2.2702861687682105 6
    endloop
  endfacet
  facet normal 0 0 1
    outer loop
      vertex -0.8376066980751404 -1.9627507770009478 6
      vertex -0.29540005537506764 -2.3776412907378837 6
      vertex -0.09515058436089148 -2.2702861687682105 6
    endloop
  endfacet
  facet normal 0 0 -1
    outer loop
      vertex -2.5079526825623373 1.8221342821066668 3.8000000000000003
      vertex -2.251471862576143 0.6 3.8000000000000003
      vertex -2.9050481822602565 0.6 3.8000000000000003
    endloop
  endfacet
  facet normal -0.9205929619532343 0.2991187855519963 0.25107080780542756
    outer loop
      vertex -2.5079526825623373 1.8221342821066668 3.8000000000000003
      vertex -2.9050481822602565 0.6 3.8000000000000003
      vertex -2.3050481822602564 0.6 6
    endloop
  endfacet
  facet normal 0 0 -1
    outer loop
      vertex -2.5079526825623373 1.8221342821066668 3.8000000000000003
      vertex -1.7677669529663689 1.7677669529663689 3.8000000000000003
      vertex -2.251471862576143 0.6 3.8000000000000003
    endloop
  endfacet
  facet normal -0.9205929619532341 0.2991187855519964 0.25107080780542756
    outer loop
      vertex -2.0225424859373686 1.469463130731183 6
      vertex -2.5079526825623373 1.8221342821066668 3.8000000000000003
      vertex -2.3050481822602564 0.6 6
    endloop
  endfacet
  facet normal 0 0 1
    outer loop
      vertex -1.946262015960746 0.8774140886051245 6
      vertex -2.3050481822602564 0.6 6
      vertex -2.06117069385436 0.6 6
    endloop
  endfacet
  facet normal 0 0 1
    outer loop
      vertex -1.946262015960746 0.8774140886051245 6
      vertex -2.0225424859373686 1.469463130731183 6
      vertex -2.3050481822602564 0.6 6
    endloop
  endfacet
  facet normal 0 0 1
    outer loop
      vertex -1.946262015960746 0.8774140886051245 6
      vertex -1.9648613751878086 1.2919389257712797 6
      vertex -2.0225424859373686 1.469463130731183 6
    endloop
  endfacet
  facet normal 0 0 1
    outer loop
      vertex -1.9648613751878086 1.2919389257712797 6
      vertex -1.834840784377436 1.6058363994934441 6
      vertex -2.0225424859373686 1.469463130731183 6
    endloop
  endfacet
  facet normal -0.5689577402910374 0.7831031472487175 0.25107080780542756
    outer loop
      vertex -2.0225424859373686 1.469463130731183 6
      vertex -0.9579526825623369 2.948275200514976 3.8000000000000003
      vertex -2.5079526825623373 1.8221342821066668 3.8000000000000003
    endloop
  endfacet
  facet normal 0 0 -1
    outer loop
      vertex -2.5079526825623373 1.8221342821066668 3.8000000000000003
      vertex -0.9579526825623369 2.948275200514976 3.8000000000000003
      vertex -1.7677669529663689 1.7677669529663689 3.8000000000000003
    endloop
  endfacet
  facet normal -0.5689577402910372 0.7831031472487175 0.25107080780542773
    outer loop
      vertex -2.0225424859373686 1.469463130731183 6
      vertex -1.834840784377436 1.6058363994934441 6
      vertex -1.7677669529663689 1.7677669529663689 5.646927688316638
    endloop
  endfacet
  facet normal -0.5689577402910373 0.7831031472487177 0.2510708078054276
    outer loop
      vertex -2.0225424859373686 1.469463130731183 6
      vertex -1.7677669529663689 1.7677669529663689 5.646927688316638
      vertex -0.9579526825623369 2.948275200514976 3.8000000000000003
    endloop
  endfacet
  facet normal 0 0 -1
    outer loop
      vertex -1.7677669529663689 1.7677669529663689 3.8000000000000003
      vertex -0.9579526825623369 2.948275200514976 3.8000000000000003
      vertex 0 2.5 3.8000000000000003
    endloop
  endfacet
  facet normal 0 0.9679687233934421 0.25107080780542756
    outer loop
      vertex -0.9579526825623369 2.948275200514976 3.8000000000000003
      vertex -0.7725424859373685 2.3776412907378837 6
      vertex 0.9579526825623369 2.948275200514976 3.8000000000000003
    endloop
  endfacet
  facet normal -0.5689577402910372 0.7831031472487177 0.25107080780542773
    outer loop
      vertex -1.7677669529663689 1.7677669529663689 5.646927688316638
      vertex -1.4053331895548702 1.917891933233333 6
      vertex -0.9579526825623369 2.948275200514976 3.8000000000000003
    endloop
  endfacet
  facet normal -0.5689577402910373 0.7831031472487177 0.25107080780542756
    outer loop
      vertex -0.9579526825623369 2.948275200514976 3.8000000000000003
      vertex -1.4053331895548702 1.917891933233333 6
      vertex -0.7725424859373685 2.3776412907378837 6
    endloop
  endfacet
  facet normal 0 0 1
    outer loop
      vertex -1.4053331895548702 1.917891933233333 6
      vertex -0.29540005537506764 2.3776412907378837 6
      vertex -0.7725424859373685 2.3776412907378837 6
    endloop
  endfacet
  facet normal 0 0.9679687233934421 0.2510708078054276
    outer loop
      vertex -0.7725424859373685 2.3776412907378837 6
      vertex -0.29540005537506764 2.3776412907378837 6
      vertex 0 2.5 5.52826294448255
    endloop
  endfacet
  facet normal 0 0 -1
    outer loop
      vertex -0.9579526825623369 -2.948275200514976 3.8000000000000003
      vertex 0 -2.5 3.8000000000000003
      vertex 0.9579526825623369 -2.948275200514976 3.8000000000000003
    endloop
  endfacet
  facet normal 0 -0.9679687233934421 0.25107080780542756
    outer loop
      vertex -0.9579526825623369 -2.948275200514976 3.8000000000000003
      vertex 0.9579526825623369 -2.948275200514976 3.8000000000000003
      vertex 0.7725424859373685 -2.3776412907378837 6
    endloop
  endfacet
  facet normal 0 0 -1
    outer loop
      vertex 0 -2.5 3.8000000000000003
      vertex 1.7677669529663689 -1.7677669529663689 3.8000000000000003
      vertex 0.9579526825623369 -2.948275200514976 3.8000000000000003
    endloop
  endfacet
  facet normal 0 -0.9679687233934421 0.2510708078054276
    outer loop
      vertex 0 -2.5 5.52826294448255
      vertex 0.7725424859373685 -2.3776412907378837 6
      vertex 0.29540005537506764 -2.3776412907378837 6
    endloop
  endfacet
  facet normal 0 0 1
    outer loop
      vertex 0.29540005537506764 -2.3776412907378837 6
      vertex 0.7725424859373685 -2.3776412907378837 6
      vertex 0.7159432047191072 -2.2034466147164884 6
    endloop
  endfacet
  facet normal 0.5689577402910373 -0.7831031472487177 0.25107080780542756
    outer loop
      vertex 0.9579526825623369 -2.948275200514976 3.8000000000000003
      vertex 1.4053331895548702 -1.917891933233333 6
      vertex 0.7725424859373685 -2.3776412907378837 6
    endloop
  endfacet
  facet normal 0.5689577402910373 -0.7831031472487175 0.2510708078054276
    outer loop
      vertex 0.9579526825623369 -2.948275200514976 3.8000000000000003
      vertex 1.7677669529663689 -1.7677669529663689 5.646927688316638
      vertex 1.4053331895548702 -1.917891933233333 6
    endloop
  endfacet
  facet normal 0 0 1
    outer loop
      vertex 0.7725424859373685 -2.3776412907378837 6
      vertex 0.7197695691743665 -2.011560513942755 6
      vertex 0.7159432047191072 -2.2034466147164884 6
    endloop
  endfacet
  facet normal 0 0 1
    outer loop
      vertex 0.7725424859373685 -2.3776412907378837 6
      vertex 1.4053331895548702 -1.917891933233333 6
      vertex 0.7197695691743665 -2.011560513942755 6
    endloop
  endfacet
  facet normal 0 0 1
    outer loop
      vertex 0.7197695691743665 -2.011560513942755 6
      vertex 1.4053331895548702 -1.917891933233333 6
      vertex 1.6332037060954707 -1.6332037060954707 6
    endloop
  endfacet
  facet normal 0 0 -1
    outer loop
      vertex 0.9579526825623369 -2.948275200514976 3.8000000000000003
      vertex 1.7677669529663689 -1.7677669529663689 3.8000000000000003
      vertex 2.5079526825623373 -1.8221342821066668 3.8000000000000003
    endloop
  endfacet
  facet normal 0.5689577402910374 -0.7831031472487175 0.2510708078054275
    outer loop
      vertex 0.9579526825623369 -2.948275200514976 3.8000000000000003
      vertex 2.5079526825623373 -1.8221342821066668 3.8000000000000003
      vertex 2.0225424859373686 -1.469463130731183 6
    endloop
  endfacet
  facet normal 0.5689577402910375 -0.7831031472487175 0.2510708078054272
    outer loop
      vertex 0.9579526825623369 -2.948275200514976 3.8000000000000003
      vertex 2.0225424859373686 -1.469463130731183 6
      vertex 1.7677669529663689 -1.7677669529663689 5.646927688316638
    endloop
  endfacet
  facet normal 0 0 1
    outer loop
      vertex 1.4053331895548702 -1.917891933233333 6
      vertex 1.7317251339969493 -1.6807543047978 6
      vertex 1.6332037060954707 -1.6332037060954707 6
    endloop
  endfacet
  facet normal 0 0 1
    outer loop
      vertex 1.7317251339969493 -1.6807543047978 6
      vertex 1.6726163686054774 -1.538053121734579 6
      vertex 1.6332037060954707 -1.6332037060954707 6
    endloop
  endfacet
  facet normal 0.5689577402910371 -0.7831031472487177 0.25107080780542773
    outer loop
      vertex 1.7677669529663689 -1.7677669529663689 5.646927688316638
      vertex 2.0225424859373686 -1.469463130731183 6
      vertex 1.834840784377436 -1.6058363994934441 6
    endloop
  endfacet
  facet normal 0 0 -1
    outer loop
      vertex 1.7677669529663689 -1.7677669529663689 3.8000000000000003
      vertex 2.251471862576143 -0.6 3.8000000000000003
      vertex 2.5079526825623373 -1.8221342821066668 3.8000000000000003
    endloop
  endfacet
  facet normal 0 0 -1
    outer loop
      vertex 2.5079526825623373 -1.8221342821066668 3.8000000000000003
      vertex 2.251471862576143 -0.6 3.8000000000000003
      vertex 2.9050481822602565 -0.6 3.8000000000000003
    endloop
  endfacet
  facet normal 0.9205929619532343 -0.2991187855519963 0.25107080780542756
    outer loop
      vertex 2.5079526825623373 -1.8221342821066668 3.8000000000000003
      vertex 2.9050481822602565 -0.6 3.8000000000000003
      vertex 2.3050481822602564 -0.6 6
    endloop
  endfacet
  facet normal 0 0 1
    outer loop
      vertex 1.834840784377436 -1.6058363994934441 6
      vertex 2.0225424859373686 -1.469463130731183 6
      vertex 1.9648613751878086 -1.2919389257712797 6
    endloop
  endfacet
  facet normal 0 0 1
    outer loop
      vertex 2.0225424859373686 -1.469463130731183 6
      vertex 1.946262015960746 -0.8774140886051245 6
      vertex 1.9648613751878086 -1.2919389257712797 6
    endloop
  endfacet
  facet normal 0 0 1
    outer loop
      vertex 2.0225424859373686 -1.469463130731183 6
      vertex 2.3050481822602564 -0.6 6
      vertex 1.946262015960746 -0.8774140886051245 6
    endloop
  endfacet
  facet normal 0 0 1
    outer loop
      vertex 1.946262015960746 -0.8774140886051245 6
      vertex 2.3050481822602564 -0.6 6
      vertex 2.06117069385436 -0.6 6
    endloop
  endfacet
  facet normal 0.9205929619532341 -0.2991187855519964 0.25107080780542756
    outer loop
      vertex 2.5079526825623373 -1.8221342821066668 3.8000000000000003
      vertex 2.3050481822602564 -0.6 6
      vertex 2.0225424859373686 -1.469463130731183 6
    endloop
  endfacet
  facet normal 0 0 -1
    outer loop
      vertex -0.9579526825623369 2.948275200514976 3.8000000000000003
      vertex 0.9579526825623369 2.948275200514976 3.8000000000000003
      vertex 0 2.5 3.8000000000000003
    endloop
  endfacet
  facet normal 0 0 -1
    outer loop
      vertex 0 2.5 3.8000000000000003
      vertex 0.9579526825623369 2.948275200514976 3.8000000000000003
      vertex 1.7677669529663689 1.7677669529663689 3.8000000000000003
    endloop
  endfacet
  facet normal 0 0.9679687233934421 0.25107080780542756
    outer loop
      vertex -0.7725424859373685 2.3776412907378837 6
      vertex 0 2.5 5.52826294448255
      vertex 0.9579526825623369 2.948275200514976 3.8000000000000003
    endloop
  endfacet
  facet normal 0 0.9679687233934421 0.25107080780542756
    outer loop
      vertex 0.9579526825623369 2.948275200514976 3.8000000000000003
      vertex 0.29540005537506764 2.3776412907378837 6
      vertex 0.7725424859373685 2.3776412907378837 6
    endloop
  endfacet
  facet normal 0 0.9679687233934422 0.2510708078054276
    outer loop
      vertex 0.9579526825623369 2.948275200514976 3.8000000000000003
      vertex 0 2.5 5.52826294448255
      vertex 0.29540005537506764 2.3776412907378837 6
    endloop
  endfacet
  facet normal 0.5689577402910373 0.7831031472487177 0.25107080780542756
    outer loop
      vertex 0.9579526825623369 2.948275200514976 3.8000000000000003
      vertex 0.7725424859373685 2.3776412907378837 6
      vertex 1.4053331895548702 1.917891933233333 6
    endloop
  endfacet
  facet normal 0 0 1
    outer loop
      vertex 0.29540005537506764 2.3776412907378837 6
      vertex 1.4053331895548702 1.917891933233333 6
      vertex 0.7725424859373685 2.3776412907378837 6
    endloop
  endfacet
  facet normal 0.5689577402910373 0.7831031472487175 0.2510708078054276
    outer loop
      vertex 0.9579526825623369 2.948275200514976 3.8000000000000003
      vertex 1.4053331895548702 1.917891933233333 6
      vertex 1.7677669529663689 1.7677669529663689 5.646927688316638
    endloop
  endfacet
  facet normal 0 0 -1
    outer loop
      vertex 1.7677669529663689 1.7677669529663689 3.8000000000000003
      vertex 2.5079526825623373 1.8221342821066668 3.8000000000000003
      vertex 2.251471862576143 0.6 3.8000000000000003
    endloop
  endfacet
  facet normal 0.9205929619532341 0.2991187855519964 0.2510708078054276
    outer loop
      vertex 2.0225424859373686 1.469463130731183 6
      vertex 2.9050481822602565 0.6 3.8000000000000003
      vertex 2.5079526825623373 1.8221342821066668 3.8000000000000003
    endloop
  endfacet
  facet normal 0 0 -1
    outer loop
      vertex 2.5079526825623373 1.8221342821066668 3.8000000000000003
      vertex 2.9050481822602565 0.6 3.8000000000000003
      vertex 2.251471862576143 0.6 3.8000000000000003
    endloop
  endfacet
  facet normal 0 0 1
    outer loop
      vertex 1.8579591589834497 1.0905960435160045 6
      vertex 2.06117069385436 0.6 6
      vertex 2.3050481822602564 0.6 6
    endloop
  endfacet
  facet normal 0 0 1
    outer loop
      vertex 1.8579591589834497 1.0905960435160045 6
      vertex 2.3050481822602564 0.6 6
      vertex 2.0225424859373686 1.469463130731183 6
    endloop
  endfacet
  facet normal 0 0 1
    outer loop
      vertex 1.8579591589834497 1.0905960435160045 6
      vertex 2.0225424859373686 1.469463130731183 6
      vertex 1.834840784377436 1.6058363994934441 6
    endloop
  endfacet
  facet normal 0.9205929619532341 0.2991187855519964 0.2510708078054275
    outer loop
      vertex 2.0225424859373686 1.469463130731183 6
      vertex 2.3050481822602564 0.6 6
      vertex 2.9050481822602565 0.6 3.8000000000000003
    endloop
  endfacet
  facet normal 0 0 -1
    outer loop
      vertex 0.9579526825623369 2.948275200514976 3.8000000000000003
      vertex 2.5079526825623373 1.8221342821066668 3.8000000000000003
      vertex 1.7677669529663689 1.7677669529663689 3.8000000000000003
    endloop
  endfacet
  facet normal 0.5689577402910374 0.7831031472487175 0.2510708078054275
    outer loop
      vertex 0.9579526825623369 2.948275200514976 3.8000000000000003
      vertex 2.0225424859373686 1.469463130731183 6
      vertex 2.5079526825623373 1.8221342821066668 3.8000000000000003
    endloop
  endfacet
  facet normal 0.5689577402910375 0.7831031472487175 0.2510708078054272
    outer loop
      vertex 0.9579526825623369 2.948275200514976 3.8000000000000003
      vertex 1.7677669529663689 1.7677669529663689 5.646927688316638
      vertex 2.0225424859373686 1.469463130731183 6
    endloop
  endfacet
  facet normal 0.5689577402910372 0.7831031472487175 0.25107080780542773
    outer loop
      vertex 2.0225424859373686 1.469463130731183 6
      vertex 1.7677669529663689 1.7677669529663689 5.646927688316638
      vertex 1.834840784377436 1.6058363994934441 6
    endloop
  endfacet
  facet normal -0.9238795325112868 -0.3826834323650899 -1.6390157556711876e-16
    outer loop
      vertex -1.6332037060954707 -1.6332037060954707 6.956708580912725
      vertex -2.06117069385436 -0.6 6
      vertex -1.8579591589834497 -1.0905960435160045 6
    endloop
  endfacet
  facet normal -0.9238795325112868 -0.38268343236508956 0
    outer loop
      vertex -1.6332037060954707 -1.6332037060954707 6
      vertex -1.6332037060954707 -1.6332037060954707 6.956708580912725
      vertex -1.8579591589834497 -1.0905960435160045 6
    endloop
  endfacet
  facet normal -0.9238795325112867 -0.38268343236508967 0
    outer loop
      vertex -1.6332037060954707 -1.6332037060954707 6.956708580912725
      vertex -2.06117069385436 -0.6 6.956708580912725
      vertex -2.06117069385436 -0.6 6
    endloop
  endfacet
  facet normal -0.678598344545847 -0.2810846377148202 0.6785983445458472
    outer loop
      vertex -1.6332037060954707 -1.6332037060954707 6.956708580912725
      vertex -1.9178792747670852 -0.6 7.1
      vertex -2.06117069385436 -0.6 6.956708580912725
    endloop
  endfacet
  facet normal -0.678598344545847 -0.28108463771482023 0.6785983445458472
    outer loop
      vertex -0.9567085809127245 0 8.309698831278217
      vertex -2.1664074121909422 0 7.1
      vertex -1.9178792747670852 -0.6 7.1
    endloop
  endfacet
  facet normal -0.38268343236508995 -0.9238795325112866 0
    outer loop
      vertex -1.6332037060954707 -1.6332037060954707 6
      vertex -0.8376066980751404 -1.9627507770009478 6
      vertex -1.6332037060954707 -1.6332037060954707 6.956708580912725
    endloop
  endfacet
  facet normal -0.3826834323650898 -0.9238795325112868 1.9693676716299955e-16
    outer loop
      vertex -1.6332037060954707 -1.6332037060954707 6.956708580912725
      vertex -0.8376066980751404 -1.9627507770009478 6
      vertex 0 -2.309698831278217 6.956708580912725
    endloop
  endfacet
  facet normal -0.28108463771482023 -0.6785983445458469 0.6785983445458472
    outer loop
      vertex -1.6332037060954707 -1.6332037060954707 6.956708580912725
      vertex 0 -2.309698831278217 6.956708580912725
      vertex -0.6764951251827463 -0.6764951251827463 8.309698831278217
    endloop
  endfacet
  facet normal -0.38268343236508856 -0.9238795325112872 0
    outer loop
      vertex -0.09515058436089148 -2.2702861687682105 6
      vertex 0 -2.309698831278217 6
      vertex 0 -2.309698831278217 6.956708580912725
    endloop
  endfacet
  facet normal -0.38268343236508967 -0.9238795325112867 1.4440263518877886e-16
    outer loop
      vertex -0.8376066980751404 -1.9627507770009478 6
      vertex -0.09515058436089148 -2.2702861687682105 6
      vertex 0 -2.309698831278217 6.956708580912725
    endloop
  endfacet
  facet normal -0.678598344545847 -0.2810846377148202 0.6785983445458472
    outer loop
      vertex -1.6332037060954707 -1.6332037060954707 6.956708580912725
      vertex -0.6764951251827463 -0.6764951251827463 8.309698831278217
      vertex -1.9178792747670852 -0.6 7.1
    endloop
  endfacet
  facet normal -0.678598344545847 -0.2810846377148202 0.6785983445458471
    outer loop
      vertex -0.6764951251827463 -0.6764951251827463 8.309698831278217
      vertex -0.9567085809127245 0 8.309698831278217
      vertex -1.9178792747670852 -0.6 7.1
    endloop
  endfacet
  facet normal -0.2810846377148202 -0.6785983445458471 0.6785983445458471
    outer loop
      vertex -0.6764951251827463 -0.6764951251827463 8.309698831278217
      vertex 0 -2.309698831278217 6.956708580912725
      vertex 0 -0.9567085809127245 8.309698831278217
    endloop
  endfacet
  facet normal 0 0 1
    outer loop
      vertex -0.6764951251827463 -0.6764951251827463 8.309698831278217
      vertex 0 -0.9567085809127245 8.309698831278217
      vertex -0.6764951251827463 0.6764951251827463 8.309698831278217
    endloop
  endfacet
  facet normal -0.9238795325112868 0.3826834323650894 0
    outer loop
      vertex -1.946262015960746 0.8774140886051245 6
      vertex -2.06117069385436 0.6 6
      vertex -2.06117069385436 0.6 6.956708580912725
    endloop
  endfacet
  facet normal -0.678598344545847 0.2810846377148203 0.6785983445458471
    outer loop
      vertex -0.6764951251827463 0.6764951251827463 8.309698831278217
      vertex -1.9178792747670852 0.6 7.1
      vertex -2.1664074121909422 0 7.1
    endloop
  endfacet
  facet normal -0.9238795325112867 0.3826834323650899 0
    outer loop
      vertex -1.946262015960746 0.8774140886051245 6
      vertex -1.6332037060954707 1.6332037060954707 6.956708580912725
      vertex -1.6332037060954707 1.6332037060954707 6
    endloop
  endfacet
  facet normal -0.9238795325112867 0.38268343236508967 1.167380604979719e-16
    outer loop
      vertex -1.946262015960746 0.8774140886051245 6
      vertex -2.06117069385436 0.6 6.956708580912725
      vertex -1.6332037060954707 1.6332037060954707 6.956708580912725
    endloop
  endfacet
  facet normal -0.678598344545847 0.2810846377148202 0.6785983445458472
    outer loop
      vertex -1.6332037060954707 1.6332037060954707 6.956708580912725
      vertex -2.06117069385436 0.6 6.956708580912725
      vertex -1.9178792747670852 0.6 7.1
    endloop
  endfacet
  facet normal -0.678598344545847 0.2810846377148202 0.6785983445458472
    outer loop
      vertex -0.9567085809127245 0 8.309698831278217
      vertex -0.6764951251827463 0.6764951251827463 8.309698831278217
      vertex -2.1664074121909422 0 7.1
    endloop
  endfacet
  facet normal 0 0 1
    outer loop
      vertex -0.6764951251827463 -0.6764951251827463 8.309698831278217
      vertex -0.6764951251827463 0.6764951251827463 8.309698831278217
      vertex -0.9567085809127245 0 8.309698831278217
    endloop
  endfacet
  facet normal -0.678598344545847 0.2810846377148202 0.6785983445458472
    outer loop
      vertex -1.6332037060954707 1.6332037060954707 6.956708580912725
      vertex -1.9178792747670852 0.6 7.1
      vertex -0.6764951251827463 0.6764951251827463 8.309698831278217
    endloop
  endfacet
  facet normal 0 0 1
    outer loop
      vertex -0.6764951251827463 0.6764951251827463 8.309698831278217
      vertex 0 -0.9567085809127245 8.309698831278217
      vertex 0 0.9567085809127245 8.309698831278217
    endloop
  endfacet
  facet normal -0.2810846377148202 0.6785983445458471 0.6785983445458471
    outer loop
      vertex -0.6764951251827463 0.6764951251827463 8.309698831278217
      vertex 0 0.9567085809127245 8.309698831278217
      vertex 0 2.309698831278217 6.956708580912725
    endloop
  endfacet
  facet normal -0.3826834323650898 0.9238795325112868 0
    outer loop
      vertex -1.6332037060954707 1.6332037060954707 6
      vertex -1.6332037060954707 1.6332037060954707 6.956708580912725
      vertex 0 2.309698831278217 6
    endloop
  endfacet
  facet normal -0.28108463771482023 0.6785983445458469 0.6785983445458472
    outer loop
      vertex -1.6332037060954707 1.6332037060954707 6.956708580912725
      vertex -0.6764951251827463 0.6764951251827463 8.309698831278217
      vertex 0 2.309698831278217 6.956708580912725
    endloop
  endfacet
  facet normal -0.3826834323650898 0.9238795325112868 0
    outer loop
      vertex -1.6332037060954707 1.6332037060954707 6.956708580912725
      vertex 0 2.309698831278217 6.956708580912725
      vertex 0 2.309698831278217 6
    endloop
  endfacet
  facet normal 0.3826834323650897 -0.9238795325112868 0
    outer loop
      vertex 0 -2.309698831278217 6
      vertex 0.7197695691743665 -2.011560513942755 6
      vertex 0 -2.309698831278217 6.956708580912725
    endloop
  endfacet
  facet normal 0.38268343236508984 -0.9238795325112867 0
    outer loop
      vertex 0.7197695691743665 -2.011560513942755 6
      vertex 1.6332037060954707 -1.6332037060954707 6
      vertex 1.6332037060954707 -1.6332037060954707 6.956708580912725
    endloop
  endfacet
  facet normal 0.3826834323650898 -0.9238795325112868 6.564558905433318e-17
    outer loop
      vertex 0 -2.309698831278217 6.956708580912725
      vertex 0.7197695691743665 -2.011560513942755 6
      vertex 1.6332037060954707 -1.6332037060954707 6.956708580912725
    endloop
  endfacet
  facet normal 0.28108463771482023 -0.6785983445458469 0.6785983445458472
    outer loop
      vertex 0 -2.309698831278217 6.956708580912725
      vertex 1.6332037060954707 -1.6332037060954707 6.956708580912725
      vertex 0.6764951251827463 -0.6764951251827463 8.309698831278217
    endloop
  endfacet
  facet normal 0.2810846377148201 -0.678598344545847 0.6785983445458471
    outer loop
      vertex 0 -2.309698831278217 6.956708580912725
      vertex 0.6764951251827463 -0.6764951251827463 8.309698831278217
      vertex 0 -0.9567085809127245 8.309698831278217
    endloop
  endfacet
  facet normal 0 0 1
    outer loop
      vertex 0 -0.9567085809127245 8.309698831278217
      vertex 0.6764951251827463 -0.6764951251827463 8.309698831278217
      vertex 0 0.9567085809127245 8.309698831278217
    endloop
  endfacet
  facet normal 0.6785983445458469 -0.28108463771482023 0.6785983445458471
    outer loop
      vertex 0.6764951251827463 -0.6764951251827463 8.309698831278217
      vertex 1.6332037060954707 -1.6332037060954707 6.956708580912725
      vertex 1.9178792747670852 -0.6 7.1
    endloop
  endfacet
  facet normal 0.678598344545847 -0.2810846377148202 0.6785983445458471
    outer loop
      vertex 0.6764951251827463 -0.6764951251827463 8.309698831278217
      vertex 2.1664074121909422 0 7.1
      vertex 0.9567085809127245 0 8.309698831278217
    endloop
  endfacet
  facet normal 0.923879532511287 -0.3826834323650894 0
    outer loop
      vertex 1.6332037060954707 -1.6332037060954707 6
      vertex 1.6726163686054774 -1.538053121734579 6
      vertex 1.6332037060954707 -1.6332037060954707 6.956708580912725
    endloop
  endfacet
  facet normal 0.9238795325112866 -0.38268343236508995 -5.578589221547867e-17
    outer loop
      vertex 1.6726163686054774 -1.538053121734579 6
      vertex 1.946262015960746 -0.8774140886051245 6
      vertex 1.6332037060954707 -1.6332037060954707 6.956708580912725
    endloop
  endfacet
  facet normal 0.9238795325112867 -0.38268343236508967 1.556507473306292e-16
    outer loop
      vertex 1.6332037060954707 -1.6332037060954707 6.956708580912725
      vertex 1.946262015960746 -0.8774140886051245 6
      vertex 2.06117069385436 -0.6 6.956708580912725
    endloop
  endfacet
  facet normal 0.678598344545847 -0.2810846377148202 0.6785983445458472
    outer loop
      vertex 1.6332037060954707 -1.6332037060954707 6.956708580912725
      vertex 2.06117069385436 -0.6 6.956708580912725
      vertex 1.9178792747670852 -0.6 7.1
    endloop
  endfacet
  facet normal 0.9238795325112868 -0.3826834323650894 0
    outer loop
      vertex 1.946262015960746 -0.8774140886051245 6
      vertex 2.06117069385436 -0.6 6
      vertex 2.06117069385436 -0.6 6.956708580912725
    endloop
  endfacet
  facet normal 0.678598344545847 -0.2810846377148203 0.6785983445458471
    outer loop
      vertex 0.6764951251827463 -0.6764951251827463 8.309698831278217
      vertex 1.9178792747670852 -0.6 7.1
      vertex 2.1664074121909422 0 7.1
    endloop
  endfacet
  facet normal 0 0 1
    outer loop
      vertex 0.6764951251827463 -0.6764951251827463 8.309698831278217
      vertex 0.6764951251827463 0.6764951251827463 8.309698831278217
      vertex 0 0.9567085809127245 8.309698831278217
    endloop
  endfacet
  facet normal 0.2810846377148202 0.6785983445458471 0.6785983445458471
    outer loop
      vertex 0.6764951251827463 0.6764951251827463 8.309698831278217
      vertex 0 2.309698831278217 6.956708580912725
      vertex 0 0.9567085809127245 8.309698831278217
    endloop
  endfacet
  facet normal 0 0 1
    outer loop
      vertex 0.6764951251827463 -0.6764951251827463 8.309698831278217
      vertex 0.9567085809127245 0 8.309698831278217
      vertex 0.6764951251827463 0.6764951251827463 8.309698831278217
    endloop
  endfacet
  facet normal 0.678598344545847 0.2810846377148202 0.6785983445458471
    outer loop
      vertex 0.6764951251827463 0.6764951251827463 8.309698831278217
      vertex 0.9567085809127245 0 8.309698831278217
      vertex 1.9178792747670852 0.6 7.1
    endloop
  endfacet
  facet normal 0.6785983445458469 0.28108463771482023 0.6785983445458471
    outer loop
      vertex 0.6764951251827463 0.6764951251827463 8.309698831278217
      vertex 1.9178792747670852 0.6 7.1
      vertex 1.6332037060954707 1.6332037060954707 6.956708580912725
    endloop
  endfacet
  facet normal 0.3826834323650898 0.9238795325112868 0
    outer loop
      vertex 0 2.309698831278217 6
      vertex 0 2.309698831278217 6.956708580912725
      vertex 1.6332037060954707 1.6332037060954707 6
    endloop
  endfacet
  facet normal 0.28108463771482023 0.6785983445458469 0.6785983445458472
    outer loop
      vertex 0.6764951251827463 0.6764951251827463 8.309698831278217
      vertex 1.6332037060954707 1.6332037060954707 6.956708580912725
      vertex 0 2.309698831278217 6.956708580912725
    endloop
  endfacet
  facet normal 0.3826834323650898 0.9238795325112868 0
    outer loop
      vertex 0 2.309698831278217 6.956708580912725
      vertex 1.6332037060954707 1.6332037060954707 6.956708580912725
      vertex 1.6332037060954707 1.6332037060954707 6
    endloop
  endfacet
  facet normal 0.678598344545847 0.28108463771482023 0.6785983445458472
    outer loop
      vertex 0.9567085809127245 0 8.309698831278217
      vertex 2.1664074121909422 0 7.1
      vertex 1.9178792747670852 0.6 7.1
    endloop
  endfacet
  facet normal 0.9238795325112868 0.38268343236508956 0
    outer loop
      vertex 1.8579591589834497 1.0905960435160045 6
      vertex 1.6332037060954707 1.6332037060954707 6
      vertex 1.6332037060954707 1.6332037060954707 6.956708580912725
    endloop
  endfacet
  facet normal 0.9238795325112867 0.3826834323650899 -1.9121850482830524e-16
    outer loop
      vertex 1.8579591589834497 1.0905960435160045 6
      vertex 1.6332037060954707 1.6332037060954707 6.956708580912725
      vertex 2.06117069385436 0.6 6
    endloop
  endfacet
  facet normal 0.9238795325112867 0.38268343236508967 0
    outer loop
      vertex 1.6332037060954707 1.6332037060954707 6.956708580912725
      vertex 2.06117069385436 0.6 6.956708580912725
      vertex 2.06117069385436 0.6 6
    endloop
  endfacet
  facet normal 0.678598344545847 0.2810846377148202 0.6785983445458472
    outer loop
      vertex 1.6332037060954707 1.6332037060954707 6.956708580912725
      vertex 1.9178792747670852 0.6 7.1
      vertex 2.06117069385436 0.6 6.956708580912725
    endloop
  endfacet
  facet normal 0 1 0
    outer loop
      vertex -2.9050481822602565 -0.6 3.8000000000000003
      vertex -2.3050481822602564 -0.6 6
      vertex -2.06117069385436 -0.6 6
    endloop
  endfacet
  facet normal 0 1 0
    outer loop
      vertex -2.251471862576143 -0.6 -6
      vertex -2.251471862576143 -0.6 3.8000000000000003
      vertex 2.3050481822602564 -0.6 6
    endloop
  endfacet
  facet normal 0 1 0
    outer loop
      vertex -2.251471862576143 -0.6 3.8000000000000003
      vertex -2.9050481822602565 -0.6 3.8000000000000003
      vertex 2.06117069385436 -0.6 6
    endloop
  endfacet
  facet normal 0 1 0
    outer loop
      vertex -2.9050481822602565 -0.6 3.8000000000000003
      vertex -2.06117069385436 -0.6 6
      vertex 2.06117069385436 -0.6 6
    endloop
  endfacet
  facet normal 0 1 0
    outer loop
      vertex -2.06117069385436 -0.6 6
      vertex -2.06117069385436 -0.6 6.956708580912725
      vertex 2.06117069385436 -0.6 6.956708580912725
    endloop
  endfacet
  facet normal 0 1 0
    outer loop
      vertex -2.06117069385436 -0.6 6.956708580912725
      vertex -1.9178792747670852 -0.6 7.1
      vertex 1.9178792747670852 -0.6 7.1
    endloop
  endfacet
  facet normal 0 0 -1
    outer loop
      vertex -1.9178792747670852 -0.6 7.1
      vertex -2.1664074121909422 0 7.1
      vertex 1.9178792747670852 -0.6 7.1
    endloop
  endfacet
  facet normal 0 -1 0
    outer loop
      vertex -2.251471862576143 0.6 3.8000000000000003
      vertex -2.251471862576143 0.6 -6
      vertex 2.251471862576143 0.6 -6
    endloop
  endfacet
  facet normal 0 -1 0
    outer loop
      vertex -2.251471862576143 0.6 3.8000000000000003
      vertex -2.3050481822602564 0.6 6
      vertex -2.9050481822602565 0.6 3.8000000000000003
    endloop
  endfacet
  facet normal 0 -1 0
    outer loop
      vertex -2.251471862576143 0.6 3.8000000000000003
      vertex 2.251471862576143 0.6 -6
      vertex -2.3050481822602564 0.6 6
    endloop
  endfacet
  facet normal 0 -1 0
    outer loop
      vertex -2.06117069385436 0.6 6
      vertex -2.3050481822602564 0.6 6
      vertex 2.251471862576143 0.6 3.8000000000000003
    endloop
  endfacet
  facet normal 0 -1 0
    outer loop
      vertex -2.06117069385436 0.6 6
      vertex 2.06117069385436 0.6 6
      vertex -2.06117069385436 0.6 6.956708580912725
    endloop
  endfacet
  facet normal 0 0 -1
    outer loop
      vertex -2.1664074121909422 0 7.1
      vertex -1.9178792747670852 0.6 7.1
      vertex 2.1664074121909422 0 7.1
    endloop
  endfacet
  facet normal 0 -1 0
    outer loop
      vertex -2.06117069385436 0.6 6.956708580912725
      vertex 2.06117069385436 0.6 6.956708580912725
      vertex -1.9178792747670852 0.6 7.1
    endloop
  endfacet
  facet normal 0 1 0
    outer loop
      vertex 2.251471862576143 -0.6 3.8000000000000003
      vertex 2.251471862576143 -0.6 -6
      vertex -2.251471862576143 -0.6 -6
    endloop
  endfacet
  facet normal 0 1 0
    outer loop
      vertex 2.251471862576143 -0.6 3.8000000000000003
      vertex -2.251471862576143 -0.6 -6
      vertex 2.3050481822602564 -0.6 6
    endloop
  endfacet
  facet normal 0 1 0
    outer loop
      vertex -2.251471862576143 -0.6 3.8000000000000003
      vertex 2.06117069385436 -0.6 6
      vertex 2.3050481822602564 -0.6 6
    endloop
  endfacet
  facet normal 0 1 0
    outer loop
      vertex -2.06117069385436 -0.6 6
      vertex 2.06117069385436 -0.6 6.956708580912725
      vertex 2.06117069385436 -0.6 6
    endloop
  endfacet
  facet normal 0 1 0
    outer loop
      vertex -2.06117069385436 -0.6 6.956708580912725
      vertex 1.9178792747670852 -0.6 7.1
      vertex 2.06117069385436 -0.6 6.956708580912725
    endloop
  endfacet
  facet normal 0 0 -1
    outer loop
      vertex 1.9178792747670852 -0.6 7.1
      vertex -2.1664074121909422 0 7.1
      vertex 2.1664074121909422 0 7.1
    endloop
  endfacet
  facet normal 0 1 0
    outer loop
      vertex 2.251471862576143 -0.6 3.8000000000000003
      vertex 2.3050481822602564 -0.6 6
      vertex 2.9050481822602565 -0.6 3.8000000000000003
    endloop
  endfacet
  facet normal 0 -1 0
    outer loop
      vertex 2.251471862576143 0.6 -6
      vertex 2.251471862576143 0.6 3.8000000000000003
      vertex -2.3050481822602564 0.6 6
    endloop
  endfacet
  facet normal 0 -1 0
    outer loop
      vertex -2.06117069385436 0.6 6
      vertex 2.251471862576143 0.6 3.8000000000000003
      vertex 2.9050481822602565 0.6 3.8000000000000003
    endloop
  endfacet
  facet normal 0 0 -1
    outer loop
      vertex 2.1664074121909422 0 7.1
      vertex -1.9178792747670852 0.6 7.1
      vertex 1.9178792747670852 0.6 7.1
    endloop
  endfacet
  facet normal 0 -1 0
    outer loop
      vertex -2.06117069385436 0.6 6.956708580912725
      vertex 2.06117069385436 0.6 6
      vertex 2.06117069385436 0.6 6.956708580912725
    endloop
  endfacet
  facet normal 0 -1 0
    outer loop
      vertex 2.06117069385436 0.6 6.956708580912725
      vertex 1.9178792747670852 0.6 7.1
      vertex -1.9178792747670852 0.6 7.1
    endloop
  endfacet
  facet normal 0 -1 0
    outer loop
      vertex -2.06117069385436 0.6 6
      vertex 2.9050481822602565 0.6 3.8000000000000003
      vertex 2.06117069385436 0.6 6
    endloop
  endfacet
  facet normal 0 -1 0
    outer loop
      vertex 2.06117069385436 0.6 6
      vertex 2.9050481822602565 0.6 3.8000000000000003
      vertex 2.3050481822602564 0.6 6
    endloop
  endfacet
endsolid PythonSCAD_Model
