solid PythonSCAD_Model
  facet normal 0.7071067811865476 -0.7071067811865476 0
    outer loop
      vertex 76.33012701570988 5.5 0
      vertex 74.5 3.669872984290123 4
      vertex 74.5 3.669872984290123 0
    endloop
  endfacet
  facet normal 0.7071067811865476 -0.7071067811865476 0
    outer loop
      vertex 76.33012701570988 5.5 0
      vertex 76.33012701570988 5.5 4
      vertex 74.5 3.669872984290123 4
    endloop
  endfacet
  facet normal 0.9659258259787824 -0.2588190462605236 0
    outer loop
      vertex 77 8 0
      vertex 76.33012701570988 5.5 4
      vertex 76.33012701570988 5.5 0
    endloop
  endfacet
  facet normal 0.9659258259787824 -0.2588190462605236 0
    outer loop
      vertex 77 8 0
      vertex 77 8 4
      vertex 76.33012701570988 5.5 4
    endloop
  endfacet
  facet normal 1 0 0
    outer loop
      vertex 77 52 0
      vertex 77 8 4
      vertex 77 8 0
    endloop
  endfacet
  facet normal 1 0 0
    outer loop
      vertex 77 52 0
      vertex 77 52 4
      vertex 77 8 4
    endloop
  endfacet
  facet normal 0.9659258259787824 0.2588190462605236 0
    outer loop
      vertex 76.33012701570988 54.5 0
      vertex 77 52 4
      vertex 77 52 0
    endloop
  endfacet
  facet normal 0.9659258259787824 0.2588190462605236 0
    outer loop
      vertex 76.33012701570988 54.5 0
      vertex 76.33012701570988 54.5 4
      vertex 77 52 4
    endloop
  endfacet
  facet normal 0.7071067811865476 0.7071067811865476 0
    outer loop
      vertex 74.5 56.33012701570988 0
      vertex 76.33012701570988 54.5 4
      vertex 76.33012701570988 54.5 0
    endloop
  endfacet
  facet normal 0.7071067811865476 0.7071067811865476 0
    outer loop
      vertex 74.5 56.33012701570988 0
      vertex 74.5 56.33012701570988 4
      vertex 76.33012701570988 54.5 4
    endloop
  endfacet
  facet normal 0.2588190462605236 0.9659258259787824 0
    outer loop
      vertex 72 57 0
      vertex 74.5 56.33012701570988 4
      vertex 74.5 56.33012701570988 0
    endloop
  endfacet
  facet normal 0.2588190462605236 0.9659258259787824 0
    outer loop
      vertex 72 57 0
      vertex 72 57 4
      vertex 74.5 56.33012701570988 4
    endloop
  endfacet
  facet normal 0 1 0
    outer loop
      vertex 8 57 0
      vertex 72 57 4
      vertex 72 57 0
    endloop
  endfacet
  facet normal 0 1 0
    outer loop
      vertex 8 57 0
      vertex 8 57 4
      vertex 72 57 4
    endloop
  endfacet
  facet normal -0.2588190462605236 0.9659258259787824 0
    outer loop
      vertex 5.5 56.33012701570988 0
      vertex 8 57 4
      vertex 8 57 0
    endloop
  endfacet
  facet normal -0.2588190462605236 0.9659258259787824 0
    outer loop
      vertex 5.5 56.33012701570988 0
      vertex 5.5 56.33012701570988 4
      vertex 8 57 4
    endloop
  endfacet
  facet normal -0.7071067811865476 0.7071067811865476 0
    outer loop
      vertex 3.669872984290123 54.5 0
      vertex 5.5 56.33012701570988 4
      vertex 5.5 56.33012701570988 0
    endloop
  endfacet
  facet normal -0.7071067811865476 0.7071067811865476 0
    outer loop
      vertex 3.669872984290123 54.5 0
      vertex 3.669872984290123 54.5 4
      vertex 5.5 56.33012701570988 4
    endloop
  endfacet
  facet normal -0.9659258259787824 0.2588190462605236 0
    outer loop
      vertex 3 52 0
      vertex 3.669872984290123 54.5 4
      vertex 3.669872984290123 54.5 0
    endloop
  endfacet
  facet normal -0.9659258259787824 0.2588190462605236 0
    outer loop
      vertex 3 52 0
      vertex 3 52 4
      vertex 3.669872984290123 54.5 4
    endloop
  endfacet
  facet normal -1 0 0
    outer loop
      vertex 3 8 0
      vertex 3 52 4
      vertex 3 52 0
    endloop
  endfacet
  facet normal -1 0 0
    outer loop
      vertex 3 8 0
      vertex 3 8 4
      vertex 3 52 4
    endloop
  endfacet
  facet normal -0.9659258259787824 -0.2588190462605236 0
    outer loop
      vertex 3.669872984290123 5.5 0
      vertex 3 8 4
      vertex 3 8 0
    endloop
  endfacet
  facet normal -0.9659258259787824 -0.2588190462605236 0
    outer loop
      vertex 3.669872984290123 5.5 0
      vertex 3.669872984290123 5.5 4
      vertex 3 8 4
    endloop
  endfacet
  facet normal -0.7071067811865476 -0.7071067811865476 0
    outer loop
      vertex 5.5 3.669872984290123 0
      vertex 3.669872984290123 5.5 4
      vertex 3.669872984290123 5.5 0
    endloop
  endfacet
  facet normal -0.7071067811865476 -0.7071067811865476 0
    outer loop
      vertex 5.5 3.669872984290123 0
      vertex 5.5 3.669872984290123 4
      vertex 3.669872984290123 5.5 4
    endloop
  endfacet
  facet normal -0.2588190462605236 -0.9659258259787824 0
    outer loop
      vertex 8 3 0
      vertex 5.5 3.669872984290123 4
      vertex 5.5 3.669872984290123 0
    endloop
  endfacet
  facet normal -0.2588190462605236 -0.9659258259787824 0
    outer loop
      vertex 8 3 0
      vertex 8 3 4
      vertex 5.5 3.669872984290123 4
    endloop
  endfacet
  facet normal 0 -1 0
    outer loop
      vertex 72 3 0
      vertex 8 3 4
      vertex 8 3 0
    endloop
  endfacet
  facet normal 0 -1 0
    outer loop
      vertex 72 3 0
      vertex 72 3 4
      vertex 8 3 4
    endloop
  endfacet
  facet normal 0.2588190462605236 -0.9659258259787824 0
    outer loop
      vertex 74.5 3.669872984290123 0
      vertex 72 3 4
      vertex 72 3 0
    endloop
  endfacet
  facet normal 0.2588190462605236 -0.9659258259787824 0
    outer loop
      vertex 74.5 3.669872984290123 0
      vertex 74.5 3.669872984290123 4
      vertex 72 3 4
    endloop
  endfacet
  facet normal 0 0 -1
    outer loop
      vertex 72 3 0
      vertex 76.33012701570988 5.5 0
      vertex 74.5 3.669872984290123 0
    endloop
  endfacet
  facet normal 0 0 -1
    outer loop
      vertex 72 3 0
      vertex 8 3 0
      vertex 76.33012701570988 5.5 0
    endloop
  endfacet
  facet normal 0 0 -1
    outer loop
      vertex 8 3 0
      vertex 77 8 0
      vertex 76.33012701570988 5.5 0
    endloop
  endfacet
  facet normal 0 0 -1
    outer loop
      vertex 8 3 0
      vertex 5.5 3.669872984290123 0
      vertex 77 8 0
    endloop
  endfacet
  facet normal 0 0 -1
    outer loop
      vertex 5.5 3.669872984290123 0
      vertex 77 52 0
      vertex 77 8 0
    endloop
  endfacet
  facet normal 0 0 -1
    outer loop
      vertex 5.5 3.669872984290123 0
      vertex 3.669872984290123 5.5 0
      vertex 77 52 0
    endloop
  endfacet
  facet normal 0 0 -1
    outer loop
      vertex 3.669872984290123 5.5 0
      vertex 76.33012701570988 54.5 0
      vertex 77 52 0
    endloop
  endfacet
  facet normal 0 0 -1
    outer loop
      vertex 3.669872984290123 5.5 0
      vertex 3 8 0
      vertex 76.33012701570988 54.5 0
    endloop
  endfacet
  facet normal 0 0 -1
    outer loop
      vertex 3 8 0
      vertex 74.5 56.33012701570988 0
      vertex 76.33012701570988 54.5 0
    endloop
  endfacet
  facet normal 0 0 -1
    outer loop
      vertex 3 8 0
      vertex 3 52 0
      vertex 74.5 56.33012701570988 0
    endloop
  endfacet
  facet normal 0 0 -1
    outer loop
      vertex 3 52 0
      vertex 72 57 0
      vertex 74.5 56.33012701570988 0
    endloop
  endfacet
  facet normal 0 0 -1
    outer loop
      vertex 3 52 0
      vertex 3.669872984290123 54.5 0
      vertex 72 57 0
    endloop
  endfacet
  facet normal 0 0 -1
    outer loop
      vertex 3.669872984290123 54.5 0
      vertex 8 57 0
      vertex 72 57 0
    endloop
  endfacet
  facet normal 0 0 -1
    outer loop
      vertex 3.669872984290123 54.5 0
      vertex 5.5 56.33012701570988 0
      vertex 8 57 0
    endloop
  endfacet
  facet normal 0 0 1
    outer loop
      vertex 74.5 3.669872984290123 4
      vertex 76.33012701570988 5.5 4
      vertex 72 3 4
    endloop
  endfacet
  facet normal 0 0 1
    outer loop
      vertex 76.33012701570988 5.5 4
      vertex 8 3 4
      vertex 72 3 4
    endloop
  endfacet
  facet normal 0 0 1
    outer loop
      vertex 76.33012701570988 5.5 4
      vertex 77 8 4
      vertex 8 3 4
    endloop
  endfacet
  facet normal 0 0 1
    outer loop
      vertex 77 8 4
      vertex 5.5 3.669872984290123 4
      vertex 8 3 4
    endloop
  endfacet
  facet normal 0 0 1
    outer loop
      vertex 77 8 4
      vertex 77 52 4
      vertex 5.5 3.669872984290123 4
    endloop
  endfacet
  facet normal 0 0 1
    outer loop
      vertex 77 52 4
      vertex 3.669872984290123 5.5 4
      vertex 5.5 3.669872984290123 4
    endloop
  endfacet
  facet normal 0 0 1
    outer loop
      vertex 77 52 4
      vertex 76.33012701570988 54.5 4
      vertex 3.669872984290123 5.5 4
    endloop
  endfacet
  facet normal 0 0 1
    outer loop
      vertex 76.33012701570988 54.5 4
      vertex 3 8 4
      vertex 3.669872984290123 5.5 4
    endloop
  endfacet
  facet normal 0 0 1
    outer loop
      vertex 76.33012701570988 54.5 4
      vertex 74.5 56.33012701570988 4
      vertex 3 8 4
    endloop
  endfacet
  facet normal 0 0 1
    outer loop
      vertex 74.5 56.33012701570988 4
      vertex 3 52 4
      vertex 3 8 4
    endloop
  endfacet
  facet normal 0 0 1
    outer loop
      vertex 74.5 56.33012701570988 4
      vertex 72 57 4
      vertex 3 52 4
    endloop
  endfacet
  facet normal 0 0 1
    outer loop
      vertex 72 57 4
      vertex 3.669872984290123 54.5 4
      vertex 3 52 4
    endloop
  endfacet
  facet normal 0 0 1
    outer loop
      vertex 72 57 4
      vertex 8 57 4
      vertex 3.669872984290123 54.5 4
    endloop
  endfacet
  facet normal 0 0 1
    outer loop
      vertex 8 57 4
      vertex 5.5 56.33012701570988 4
      vertex 3.669872984290123 54.5 4
    endloop
  endfacet
endsolid PythonSCAD_Model
