solid PythonSCAD_Model
  facet normal 0 -1 0
    outer loop
      vertex 44.29999999701977 -1.5 0
      vertex 3.435000002384186 -1.5 3
      vertex 3.435000002384186 -1.5 0
    endloop
  endfacet
  facet normal 0 -1 0
    outer loop
      vertex 44.29999999701977 -1.5 0
      vertex 44.29999999701977 -1.5 3
      vertex 3.435000002384186 -1.5 3
    endloop
  endfacet
  facet normal -0.7071067811865475 0.7071067811865475 0
    outer loop
      vertex 40.54999999701977 -5.25 0
      vertex 44.29999999701977 -1.5 3
      vertex 44.29999999701977 -1.5 0
    endloop
  endfacet
  facet normal -0.7071067811865475 0.7071067811865475 0
    outer loop
      vertex 40.54999999701977 -5.25 0
      vertex 40.54999999701977 -5.25 3
      vertex 44.29999999701977 -1.5 3
    endloop
  endfacet
  facet normal 0 -1 0
    outer loop
      vertex 44.75 -5.25 0
      vertex 40.54999999701977 -5.25 3
      vertex 40.54999999701977 -5.25 0
    endloop
  endfacet
  facet normal 0 -1 0
    outer loop
      vertex 44.75 -5.25 0
      vertex 44.75 -5.25 3
      vertex 40.54999999701977 -5.25 3
    endloop
  endfacet
  facet normal 0.7071067811865476 -0.7071067811865476 0
    outer loop
      vertex 50 0 0
      vertex 44.75 -5.25 3
      vertex 44.75 -5.25 0
    endloop
  endfacet
  facet normal 0.7071067811865476 -0.7071067811865476 0
    outer loop
      vertex 50 0 0
      vertex 50 0 3
      vertex 44.75 -5.25 3
    endloop
  endfacet
  facet normal 0.7071067811865476 0.7071067811865476 0
    outer loop
      vertex 44.75 5.25 0
      vertex 50 0 3
      vertex 50 0 0
    endloop
  endfacet
  facet normal 0.7071067811865476 0.7071067811865476 0
    outer loop
      vertex 44.75 5.25 0
      vertex 44.75 5.25 3
      vertex 50 0 3
    endloop
  endfacet
  facet normal 0 1 0
    outer loop
      vertex 40.54999999701977 5.25 0
      vertex 44.75 5.25 3
      vertex 44.75 5.25 0
    endloop
  endfacet
  facet normal 0 1 0
    outer loop
      vertex 40.54999999701977 5.25 0
      vertex 40.54999999701977 5.25 3
      vertex 44.75 5.25 3
    endloop
  endfacet
  facet normal -0.7071067811865475 -0.7071067811865475 0
    outer loop
      vertex 44.29999999701977 1.5 0
      vertex 40.54999999701977 5.25 3
      vertex 40.54999999701977 5.25 0
    endloop
  endfacet
  facet normal -0.7071067811865475 -0.7071067811865475 0
    outer loop
      vertex 44.29999999701977 1.5 0
      vertex 44.29999999701977 1.5 3
      vertex 40.54999999701977 5.25 3
    endloop
  endfacet
  facet normal 0 1 0
    outer loop
      vertex 3.435000002384186 1.5 0
      vertex 44.29999999701977 1.5 3
      vertex 44.29999999701977 1.5 0
    endloop
  endfacet
  facet normal 0 1 0
    outer loop
      vertex 3.435000002384186 1.5 0
      vertex 3.435000002384186 1.5 3
      vertex 44.29999999701977 1.5 3
    endloop
  endfacet
  facet normal 0.7071067811865475 0.7071067811865475 0
    outer loop
      vertex -0.3149999976158142 5.25 0
      vertex 3.435000002384186 1.5 3
      vertex 3.435000002384186 1.5 0
    endloop
  endfacet
  facet normal 0.7071067811865475 0.7071067811865475 0
    outer loop
      vertex -0.3149999976158142 5.25 0
      vertex -0.3149999976158142 5.25 3
      vertex 3.435000002384186 1.5 3
    endloop
  endfacet
  facet normal 0 1 0
    outer loop
      vertex -5.25 5.25 0
      vertex -0.3149999976158142 5.25 3
      vertex -0.3149999976158142 5.25 0
    endloop
  endfacet
  facet normal 0 1 0
    outer loop
      vertex -5.25 5.25 0
      vertex -5.25 5.25 3
      vertex -0.3149999976158142 5.25 3
    endloop
  endfacet
  facet normal -0.7071067811865476 -0.7071067811865476 0
    outer loop
      vertex 0 0 0
      vertex -5.25 5.25 3
      vertex -5.25 5.25 0
    endloop
  endfacet
  facet normal -0.7071067811865476 -0.7071067811865476 0
    outer loop
      vertex 0 0 0
      vertex 0 0 3
      vertex -5.25 5.25 3
    endloop
  endfacet
  facet normal -0.7071067811865476 0.7071067811865476 0
    outer loop
      vertex -5.25 -5.25 0
      vertex 0 0 3
      vertex 0 0 0
    endloop
  endfacet
  facet normal -0.7071067811865476 0.7071067811865476 0
    outer loop
      vertex -5.25 -5.25 0
      vertex -5.25 -5.25 3
      vertex 0 0 3
    endloop
  endfacet
  facet normal 0 -1 0
    outer loop
      vertex -0.3149999976158142 -5.25 0
      vertex -5.25 -5.25 3
      vertex -5.25 -5.25 0
    endloop
  endfacet
  facet normal 0 -1 0
    outer loop
      vertex -0.3149999976158142 -5.25 0
      vertex -0.3149999976158142 -5.25 3
      vertex -5.25 -5.25 3
    endloop
  endfacet
  facet normal 0.7071067811865475 -0.7071067811865475 0
    outer loop
      vertex 3.435000002384186 -1.5 0
      vertex -0.3149999976158142 -5.25 3
      vertex -0.3149999976158142 -5.25 0
    endloop
  endfacet
  facet normal 0.7071067811865475 -0.7071067811865475 0
    outer loop
      vertex 3.435000002384186 -1.5 0
      vertex 3.435000002384186 -1.5 3
      vertex -0.3149999976158142 -5.25 3
    endloop
  endfacet
  facet normal 0 0 -1
    outer loop
      vertex 44.75 -5.25 0
      vertex 40.54999999701977 -5.25 0
      vertex 44.29999999701977 -1.5 0
    endloop
  endfacet
  facet normal 0 0 -1
    outer loop
      vertex 44.29999999701977 1.5 0
      vertex 40.54999999701977 5.25 0
      vertex 44.75 5.25 0
    endloop
  endfacet
  facet normal 0 0 -1
    outer loop
      vertex 0 0 0
      vertex -5.25 5.25 0
      vertex -0.3149999976158142 5.25 0
    endloop
  endfacet
  facet normal 0 0 -1
    outer loop
      vertex 0 0 0
      vertex -0.3149999976158142 5.25 0
      vertex 3.435000002384186 1.5 0
    endloop
  endfacet
  facet normal 0 0 -1
    outer loop
      vertex -0.3149999976158142 -5.25 0
      vertex -5.25 -5.25 0
      vertex 0 0 0
    endloop
  endfacet
  facet normal 0 0 -1
    outer loop
      vertex 3.435000002384186 -1.5 0
      vertex -0.3149999976158142 -5.25 0
      vertex 0 0 0
    endloop
  endfacet
  facet normal 0 0 -1
    outer loop
      vertex 3.435000002384186 -1.5 0
      vertex 0 0 0
      vertex 3.435000002384186 1.5 0
    endloop
  endfacet
  facet normal 0 0 -1
    outer loop
      vertex 50 0 0
      vertex 44.75 -5.25 0
      vertex 44.29999999701977 -1.5 0
    endloop
  endfacet
  facet normal 0 0 -1
    outer loop
      vertex 44.29999999701977 1.5 0
      vertex 44.75 5.25 0
      vertex 50 0 0
    endloop
  endfacet
  facet normal 0 0 -1
    outer loop
      vertex 44.29999999701977 1.5 0
      vertex 50 0 0
      vertex 44.29999999701977 -1.5 0
    endloop
  endfacet
  facet normal 0 0 -1
    outer loop
      vertex 3.435000002384186 -1.5 0
      vertex 3.435000002384186 1.5 0
      vertex 44.29999999701977 1.5 0
    endloop
  endfacet
  facet normal 0 0 -1
    outer loop
      vertex 44.29999999701977 -1.5 0
      vertex 3.435000002384186 -1.5 0
      vertex 44.29999999701977 1.5 0
    endloop
  endfacet
  facet normal 0 0 1
    outer loop
      vertex 44.29999999701977 -1.5 3
      vertex 40.54999999701977 -5.25 3
      vertex 44.75 -5.25 3
    endloop
  endfacet
  facet normal 0 0 1
    outer loop
      vertex 44.75 5.25 3
      vertex 40.54999999701977 5.25 3
      vertex 44.29999999701977 1.5 3
    endloop
  endfacet
  facet normal 0 0 1
    outer loop
      vertex -0.3149999976158142 5.25 3
      vertex -5.25 5.25 3
      vertex 0 0 3
    endloop
  endfacet
  facet normal 0 0 1
    outer loop
      vertex 3.435000002384186 1.5 3
      vertex -0.3149999976158142 5.25 3
      vertex 0 0 3
    endloop
  endfacet
  facet normal 0 0 1
    outer loop
      vertex 0 0 3
      vertex -5.25 -5.25 3
      vertex -0.3149999976158142 -5.25 3
    endloop
  endfacet
  facet normal 0 0 1
    outer loop
      vertex 0 0 3
      vertex -0.3149999976158142 -5.25 3
      vertex 3.435000002384186 -1.5 3
    endloop
  endfacet
  facet normal 0 0 1
    outer loop
      vertex 3.435000002384186 1.5 3
      vertex 0 0 3
      vertex 3.435000002384186 -1.5 3
    endloop
  endfacet
  facet normal 0 0 1
    outer loop
      vertex 44.29999999701977 -1.5 3
      vertex 44.75 -5.25 3
      vertex 50 0 3
    endloop
  endfacet
  facet normal 0 0 1
    outer loop
      vertex 50 0 3
      vertex 44.75 5.25 3
      vertex 44.29999999701977 1.5 3
    endloop
  endfacet
  facet normal 0 0 1
    outer loop
      vertex 44.29999999701977 -1.5 3
      vertex 50 0 3
      vertex 44.29999999701977 1.5 3
    endloop
  endfacet
  facet normal 0 0 1
    outer loop
      vertex 44.29999999701977 1.5 3
      vertex 3.435000002384186 1.5 3
      vertex 3.435000002384186 -1.5 3
    endloop
  endfacet
  facet normal 0 0 1
    outer loop
      vertex 44.29999999701977 1.5 3
      vertex 3.435000002384186 -1.5 3
      vertex 44.29999999701977 -1.5 3
    endloop
  endfacet
endsolid PythonSCAD_Model
