solid PythonSCAD_Model
  facet normal 0 -1 0
    outer loop
      vertex 1.1099997076876535 -50 0
      vertex 3.182584478269934 -50 4
      vertex -3.182584478269934 -50 4
    endloop
  endfacet
  facet normal 0 -1 0
    outer loop
      vertex -1.1099997076876535 -50 0
      vertex 1.1099997076876535 -50 0
      vertex -3.182584478269934 -50 4
    endloop
  endfacet
  facet normal 0 -1 0
    outer loop
      vertex -4 -50 -5.05
      vertex 4 -50 -5.05
      vertex 1.1099997076876535 -50 0
    endloop
  endfacet
  facet normal 0 -1 0
    outer loop
      vertex -1.1099997076876535 -50 0
      vertex -4 -50 -5.05
      vertex 1.1099997076876535 -50 0
    endloop
  endfacet
  facet normal -0.8032799123292285 -0.4268275496062725 0.4154029674249476
    outer loop
      vertex -3.585786437626905 -48.267949192431125 5
      vertex -4.182584478269934 -48.267949192431125 3.8459497996903407
      vertex -3.182584478269934 -50 4
    endloop
  endfacet
  facet normal 0 -0.5000000000000004 0.8660254037844384
    outer loop
      vertex 3.585786437626905 -48.267949192431125 5
      vertex -3.585786437626905 -48.267949192431125 5
      vertex -3.182584478269934 -50 4
    endloop
  endfacet
  facet normal 0 -0.5000000000000004 0.8660254037844383
    outer loop
      vertex 3.182584478269934 -50 4
      vertex 3.585786437626905 -48.267949192431125 5
      vertex -3.182584478269934 -50 4
    endloop
  endfacet
  facet normal 0.8032799123292285 -0.4268275496062725 0.4154029674249476
    outer loop
      vertex 4.182584478269934 -48.267949192431125 3.8459497996903407
      vertex 3.585786437626905 -48.267949192431125 5
      vertex 3.182584478269934 -50 4
    endloop
  endfacet
  facet normal 0.7711978462979414 -0.4822150439637233 -0.4155990053410635
    outer loop
      vertex 2.1099997076876535 -48.267949192431125 0
      vertex 4.182584478269934 -48.267949192431125 3.8459497996903407
      vertex 3.182584478269934 -50 4
    endloop
  endfacet
  facet normal 0.7901229216760194 -0.45617768152254395 -0.4093991835884234
    outer loop
      vertex 1.1099997076876535 -50 0
      vertex 2.1099997076876535 -48.267949192431125 0
      vertex 3.182584478269934 -50 4
    endloop
  endfacet
  facet normal 0.7759554803982582 -0.44799810548710045 0.4440616960737294
    outer loop
      vertex 5 -48.267949192431125 -5.05
      vertex 2.1099997076876535 -48.267949192431125 0
      vertex 1.1099997076876535 -50 0
    endloop
  endfacet
  facet normal 0.7759554803982582 -0.44799810548710034 0.4440616960737294
    outer loop
      vertex 4 -50 -5.05
      vertex 5 -48.267949192431125 -5.05
      vertex 1.1099997076876535 -50 0
    endloop
  endfacet
  facet normal 0 0 -1
    outer loop
      vertex -5 -48.267949192431125 -5.05
      vertex 5 -48.267949192431125 -5.05
      vertex 4 -50 -5.05
    endloop
  endfacet
  facet normal 0 0 -1
    outer loop
      vertex -4 -50 -5.05
      vertex -5 -48.267949192431125 -5.05
      vertex 4 -50 -5.05
    endloop
  endfacet
  facet normal -0.7759554803982582 -0.44799810548710045 0.4440616960737294
    outer loop
      vertex -2.1099997076876535 -48.267949192431125 0
      vertex -5 -48.267949192431125 -5.05
      vertex -4 -50 -5.05
    endloop
  endfacet
  facet normal -0.7759554803982582 -0.44799810548710034 0.4440616960737294
    outer loop
      vertex -1.1099997076876535 -50 0
      vertex -2.1099997076876535 -48.267949192431125 0
      vertex -4 -50 -5.05
    endloop
  endfacet
  facet normal -0.7847671030510421 -0.4530854981976825 -0.4229114863559903
    outer loop
      vertex -4.182584478269934 -48.267949192431125 3.8459497996903407
      vertex -2.1099997076876535 -48.267949192431125 0
      vertex -1.1099997076876535 -50 0
    endloop
  endfacet
  facet normal -0.7768185339600657 -0.4842956068746441 -0.40250556574792157
    outer loop
      vertex -3.182584478269934 -50 4
      vertex -4.182584478269934 -48.267949192431125 3.8459497996903407
      vertex -1.1099997076876535 -50 0
    endloop
  endfacet
  facet normal 0 1 0
    outer loop
      vertex -1.1099997076876535 50 0
      vertex -3.182584478269934 50 4
      vertex 3.182584478269934 50 4
    endloop
  endfacet
  facet normal 0 1 0
    outer loop
      vertex 1.1099997076876535 50 0
      vertex -1.1099997076876535 50 0
      vertex 3.182584478269934 50 4
    endloop
  endfacet
  facet normal 0 1 0
    outer loop
      vertex 4 50 -5.05
      vertex -4 50 -5.05
      vertex -1.1099997076876535 50 0
    endloop
  endfacet
  facet normal 0 1 0
    outer loop
      vertex 1.1099997076876535 50 0
      vertex 4 50 -5.05
      vertex -1.1099997076876535 50 0
    endloop
  endfacet
  facet normal 0.8032799123292285 0.4268275496062725 0.4154029674249476
    outer loop
      vertex 3.585786437626905 48.267949192431125 5
      vertex 4.182584478269934 48.267949192431125 3.8459497996903407
      vertex 3.182584478269934 50 4
    endloop
  endfacet
  facet normal 0 0.5000000000000004 0.8660254037844384
    outer loop
      vertex -3.585786437626905 48.267949192431125 5
      vertex 3.585786437626905 48.267949192431125 5
      vertex 3.182584478269934 50 4
    endloop
  endfacet
  facet normal 0 0.5000000000000004 0.8660254037844383
    outer loop
      vertex -3.182584478269934 50 4
      vertex -3.585786437626905 48.267949192431125 5
      vertex 3.182584478269934 50 4
    endloop
  endfacet
  facet normal -0.8032799123292285 0.4268275496062725 0.4154029674249476
    outer loop
      vertex -4.182584478269934 48.267949192431125 3.8459497996903407
      vertex -3.585786437626905 48.267949192431125 5
      vertex -3.182584478269934 50 4
    endloop
  endfacet
  facet normal -0.7711978462979414 0.4822150439637233 -0.4155990053410635
    outer loop
      vertex -2.1099997076876535 48.267949192431125 0
      vertex -4.182584478269934 48.267949192431125 3.8459497996903407
      vertex -3.182584478269934 50 4
    endloop
  endfacet
  facet normal -0.7901229216760194 0.45617768152254395 -0.4093991835884234
    outer loop
      vertex -1.1099997076876535 50 0
      vertex -2.1099997076876535 48.267949192431125 0
      vertex -3.182584478269934 50 4
    endloop
  endfacet
  facet normal -0.7759554803982582 0.44799810548710045 0.4440616960737294
    outer loop
      vertex -5 48.267949192431125 -5.05
      vertex -2.1099997076876535 48.267949192431125 0
      vertex -1.1099997076876535 50 0
    endloop
  endfacet
  facet normal -0.7759554803982582 0.44799810548710034 0.4440616960737294
    outer loop
      vertex -4 50 -5.05
      vertex -5 48.267949192431125 -5.05
      vertex -1.1099997076876535 50 0
    endloop
  endfacet
  facet normal 0 0 -1
    outer loop
      vertex 5 48.267949192431125 -5.05
      vertex -5 48.267949192431125 -5.05
      vertex -4 50 -5.05
    endloop
  endfacet
  facet normal 0 0 -1
    outer loop
      vertex 4 50 -5.05
      vertex 5 48.267949192431125 -5.05
      vertex -4 50 -5.05
    endloop
  endfacet
  facet normal 0.7759554803982582 0.44799810548710045 0.4440616960737294
    outer loop
      vertex 2.1099997076876535 48.267949192431125 0
      vertex 5 48.267949192431125 -5.05
      vertex 4 50 -5.05
    endloop
  endfacet
  facet normal 0.7759554803982582 0.44799810548710034 0.4440616960737294
    outer loop
      vertex 1.1099997076876535 50 0
      vertex 2.1099997076876535 48.267949192431125 0
      vertex 4 50 -5.05
    endloop
  endfacet
  facet normal 0.7847671030510421 0.4530854981976825 -0.4229114863559903
    outer loop
      vertex 4.182584478269934 48.267949192431125 3.8459497996903407
      vertex 2.1099997076876535 48.267949192431125 0
      vertex 1.1099997076876535 50 0
    endloop
  endfacet
  facet normal 0.7768185339600657 0.4842956068746441 -0.40250556574792157
    outer loop
      vertex 3.182584478269934 50 4
      vertex 4.182584478269934 48.267949192431125 3.8459497996903407
      vertex 1.1099997076876535 50 0
    endloop
  endfacet
  facet normal 0 0 1
    outer loop
      vertex 3.585786437626905 48.267949192431125 5
      vertex -3.585786437626905 48.267949192431125 5
      vertex -3.585786437626905 -48.267949192431125 5
    endloop
  endfacet
  facet normal 0 0 1
    outer loop
      vertex 3.585786437626905 -48.267949192431125 5
      vertex 3.585786437626905 48.267949192431125 5
      vertex -3.585786437626905 -48.267949192431125 5
    endloop
  endfacet
  facet normal 0.8882567361023697 0 0.4593473312960088
    outer loop
      vertex 4.182584478269934 48.267949192431125 3.8459497996903407
      vertex 3.585786437626905 48.267949192431125 5
      vertex 3.585786437626905 -48.267949192431125 5
    endloop
  endfacet
  facet normal 0.8882567361023697 0 0.4593473312960088
    outer loop
      vertex 4.182584478269934 -48.267949192431125 3.8459497996903407
      vertex 4.182584478269934 48.267949192431125 3.8459497996903407
      vertex 3.585786437626905 -48.267949192431125 5
    endloop
  endfacet
  facet normal 0.880309696466848 0 -0.4743994501540299
    outer loop
      vertex 2.1099997076876535 48.267949192431125 0
      vertex 4.182584478269934 48.267949192431125 3.8459497996903407
      vertex 4.182584478269934 -48.267949192431125 3.8459497996903407
    endloop
  endfacet
  facet normal 0.880309696466848 0 -0.4743994501540299
    outer loop
      vertex 2.1099997076876535 -48.267949192431125 0
      vertex 2.1099997076876535 48.267949192431125 0
      vertex 4.182584478269934 -48.267949192431125 3.8459497996903407
    endloop
  endfacet
  facet normal 0.8679256509716864 0 0.49669413564624904
    outer loop
      vertex 5 48.267949192431125 -5.05
      vertex 2.1099997076876535 48.267949192431125 0
      vertex 2.1099997076876535 -48.267949192431125 0
    endloop
  endfacet
  facet normal 0.8679256509716864 0 0.49669413564624904
    outer loop
      vertex 5 -48.267949192431125 -5.05
      vertex 5 48.267949192431125 -5.05
      vertex 2.1099997076876535 -48.267949192431125 0
    endloop
  endfacet
  facet normal 0 0 -1
    outer loop
      vertex -5 48.267949192431125 -5.05
      vertex 5 48.267949192431125 -5.05
      vertex 5 -48.267949192431125 -5.05
    endloop
  endfacet
  facet normal 0 0 -1
    outer loop
      vertex -5 -48.267949192431125 -5.05
      vertex -5 48.267949192431125 -5.05
      vertex 5 -48.267949192431125 -5.05
    endloop
  endfacet
  facet normal -0.8679256509716864 0 0.49669413564624904
    outer loop
      vertex -2.1099997076876535 48.267949192431125 0
      vertex -5 48.267949192431125 -5.05
      vertex -5 -48.267949192431125 -5.05
    endloop
  endfacet
  facet normal -0.8679256509716864 0 0.49669413564624904
    outer loop
      vertex -2.1099997076876535 -48.267949192431125 0
      vertex -2.1099997076876535 48.267949192431125 0
      vertex -5 -48.267949192431125 -5.05
    endloop
  endfacet
  facet normal -0.880309696466848 0 -0.4743994501540299
    outer loop
      vertex -4.182584478269934 48.267949192431125 3.8459497996903407
      vertex -2.1099997076876535 48.267949192431125 0
      vertex -2.1099997076876535 -48.267949192431125 0
    endloop
  endfacet
  facet normal -0.880309696466848 0 -0.4743994501540299
    outer loop
      vertex -4.182584478269934 -48.267949192431125 3.8459497996903407
      vertex -4.182584478269934 48.267949192431125 3.8459497996903407
      vertex -2.1099997076876535 -48.267949192431125 0
    endloop
  endfacet
  facet normal -0.8882567361023697 0 0.4593473312960088
    outer loop
      vertex -3.585786437626905 48.267949192431125 5
      vertex -4.182584478269934 48.267949192431125 3.8459497996903407
      vertex -4.182584478269934 -48.267949192431125 3.8459497996903407
    endloop
  endfacet
  facet normal -0.8882567361023697 0 0.4593473312960088
    outer loop
      vertex -3.585786437626905 -48.267949192431125 5
      vertex -3.585786437626905 48.267949192431125 5
      vertex -4.182584478269934 -48.267949192431125 3.8459497996903407
    endloop
  endfacet
endsolid PythonSCAD_Model
