solid PythonSCAD_Model
  facet normal 0 -1 0
    outer loop
      vertex -16.333333333333336 0 8
      vertex -15 0 0
      vertex 0 0 0
    endloop
  endfacet
  facet normal 0 0 -1
    outer loop
      vertex -15 0 0
      vertex 0 30 0
      vertex 0 0 0
    endloop
  endfacet
  facet normal -0.9863939238321437 0 -0.16439898730535757
    outer loop
      vertex -16.333333333333336 30 8
      vertex -15 0 0
      vertex -16.333333333333336 0 8
    endloop
  endfacet
  facet normal 0 -1 0
    outer loop
      vertex -16.333333333333336 0 8
      vertex 0 0 0
      vertex 1.333333333333334 0 8
    endloop
  endfacet
  facet normal 0.9863939238321437 0 -0.16439898730535735
    outer loop
      vertex 0 0 0
      vertex 1.333333333333334 30 8
      vertex 1.333333333333334 0 8
    endloop
  endfacet
  facet normal 0 0 1
    outer loop
      vertex 1.333333333333334 30 8
      vertex -16.333333333333336 0 8
      vertex 1.333333333333334 0 8
    endloop
  endfacet
  facet normal 0 0 -1
    outer loop
      vertex 0 30 0
      vertex -15 0 0
      vertex -15 30 0
    endloop
  endfacet
  facet normal -0.9863939238321437 0 -0.16439898730535757
    outer loop
      vertex -15 0 0
      vertex -16.333333333333336 30 8
      vertex -15 30 0
    endloop
  endfacet
  facet normal 0 1 0
    outer loop
      vertex -16.333333333333336 30 8
      vertex 0 30 0
      vertex -15 30 0
    endloop
  endfacet
  facet normal 0.9863939238321437 0 -0.16439898730535735
    outer loop
      vertex 1.333333333333334 30 8
      vertex 0 0 0
      vertex 0 30 0
    endloop
  endfacet
  facet normal 0 0 1
    outer loop
      vertex 1.333333333333334 30 8
      vertex -16.333333333333336 30 8
      vertex -16.333333333333336 0 8
    endloop
  endfacet
  facet normal 0 1 0
    outer loop
      vertex -16.333333333333336 30 8
      vertex 1.333333333333334 30 8
      vertex 0 30 0
    endloop
  endfacet
  facet normal 0 -1 0
    outer loop
      vertex 7.666666666666664 0 8
      vertex 9 0 0
      vertex 24 0 0
    endloop
  endfacet
  facet normal 0 0 -1
    outer loop
      vertex 9 0 0
      vertex 24 30 0
      vertex 24 0 0
    endloop
  endfacet
  facet normal -0.9863939238321437 0 -0.16439898730535757
    outer loop
      vertex 7.666666666666664 30 8
      vertex 9 0 0
      vertex 7.666666666666664 0 8
    endloop
  endfacet
  facet normal 0 -1 0
    outer loop
      vertex 7.666666666666664 0 8
      vertex 24 0 0
      vertex 25.333333333333336 0 8
    endloop
  endfacet
  facet normal 0.9863939238321437 0 -0.16439898730535757
    outer loop
      vertex 24 0 0
      vertex 25.333333333333336 30 8
      vertex 25.333333333333336 0 8
    endloop
  endfacet
  facet normal 0 0 1
    outer loop
      vertex 25.333333333333336 30 8
      vertex 7.666666666666664 0 8
      vertex 25.333333333333336 0 8
    endloop
  endfacet
  facet normal 0 0 -1
    outer loop
      vertex 24 30 0
      vertex 9 0 0
      vertex 9 30 0
    endloop
  endfacet
  facet normal -0.9863939238321437 0 -0.16439898730535757
    outer loop
      vertex 9 0 0
      vertex 7.666666666666664 30 8
      vertex 9 30 0
    endloop
  endfacet
  facet normal 0 1 0
    outer loop
      vertex 7.666666666666664 30 8
      vertex 24 30 0
      vertex 9 30 0
    endloop
  endfacet
  facet normal 0.9863939238321437 0 -0.16439898730535757
    outer loop
      vertex 25.333333333333336 30 8
      vertex 24 0 0
      vertex 24 30 0
    endloop
  endfacet
  facet normal 0 0 1
    outer loop
      vertex 25.333333333333336 30 8
      vertex 7.666666666666664 30 8
      vertex 7.666666666666664 0 8
    endloop
  endfacet
  facet normal 0 1 0
    outer loop
      vertex 7.666666666666664 30 8
      vertex 25.333333333333336 30 8
      vertex 24 30 0
    endloop
  endfacet
endsolid PythonSCAD_Model
