solid PythonSCAD_Model
  facet normal -0.32344514233710125 0.9462469233231526 0
    outer loop
      vertex 7.536522631059061 2.5761263524840023 -2
      vertex -7.536522631059061 -2.5761263524840023 2
      vertex 7.536522631059061 2.5761263524840023 2
    endloop
  endfacet
  facet normal -0.32344514233710125 0.9462469233231526 0
    outer loop
      vertex -7.536522631059061 -2.5761263524840023 2
      vertex 7.536522631059061 2.5761263524840023 -2
      vertex -7.536522631059061 -2.5761263524840023 -2
    endloop
  endfacet
  facet normal 0.2437642442345901 -0.9698345184786625 0
    outer loop
      vertex 75.58184571602806 3.7147370664697954 -2
      vertex 98.41815428397194 9.454556997714292 2
      vertex 75.58184571602806 3.7147370664697954 2
    endloop
  endfacet
  facet normal 0.2437642442345901 -0.9698345184786625 0
    outer loop
      vertex 98.41815428397194 9.454556997714292 2
      vertex 75.58184571602806 3.7147370664697954 -2
      vertex 98.41815428397194 9.454556997714292 -2
    endloop
  endfacet
  facet normal 0 0 -1
    outer loop
      vertex 4.077077394041392 0.2937784899176747 -2
      vertex 1.9229226059586066 3.6646848581546907 -2
      vertex 7.536522631059061 2.5761263524840023 -2
    endloop
  endfacet
  facet normal 0 0 1
    outer loop
      vertex 1.9229226059586066 3.6646848581546907 -2
      vertex -7.536522631059061 -2.5761263524840023 -2
      vertex 7.536522631059061 2.5761263524840023 -2
    endloop
  endfacet
  facet normal 0.5506932891010082 -0.8347076741824728 0
    outer loop
      vertex 1.9229226059586066 3.6646848581546907 -2
      vertex -7.536522631059061 -2.5761263524840023 2
      vertex -7.536522631059061 -2.5761263524840023 -2
    endloop
  endfacet
  facet normal 0.5506932891010082 -0.8347076741824728 0
    outer loop
      vertex 1.9229226059586066 3.6646848581546907 2
      vertex -7.536522631059061 -2.5761263524840023 2
      vertex 1.9229226059586066 3.6646848581546907 -2
    endloop
  endfacet
  facet normal 0 0 -1
    outer loop
      vertex 1.9229226059586066 3.6646848581546907 2
      vertex 7.536522631059061 2.5761263524840023 2
      vertex -7.536522631059061 -2.5761263524840023 2
    endloop
  endfacet
  facet normal 0 0 1
    outer loop
      vertex 4.077077394041392 0.2937784899176747 2
      vertex 7.536522631059061 2.5761263524840023 2
      vertex 1.9229226059586066 3.6646848581546907 2
    endloop
  endfacet
  facet normal 0.5506932891010085 -0.8347076741824729 0
    outer loop
      vertex 4.077077394041392 0.2937784899176747 2
      vertex 7.536522631059061 2.5761263524840023 -2
      vertex 7.536522631059061 2.5761263524840023 2
    endloop
  endfacet
  facet normal 0.5506932891010085 -0.8347076741824729 0
    outer loop
      vertex 4.077077394041392 0.2937784899176747 -2
      vertex 7.536522631059061 2.5761263524840023 -2
      vertex 4.077077394041392 0.2937784899176747 2
    endloop
  endfacet
  facet normal 0 0 1
    outer loop
      vertex 7.001670707902254 2.103295182284373 -2
      vertex 1.9229226059586066 3.6646848581546907 -2
      vertex 4.077077394041392 0.2937784899176747 -2
    endloop
  endfacet
  facet normal 0 0 1
    outer loop
      vertex 4.998329292097741 5.567513435382872 -2
      vertex 1.9229226059586066 3.6646848581546907 -2
      vertex 7.001670707902254 2.103295182284373 -2
    endloop
  endfacet
  facet normal 0.5261557729315259 -0.8503882070036181 0
    outer loop
      vertex 4.998329292097741 5.567513435382872 -2
      vertex 1.9229226059586066 3.6646848581546907 2
      vertex 1.9229226059586066 3.6646848581546907 -2
    endloop
  endfacet
  facet normal 0.5261557729315259 -0.8503882070036181 0
    outer loop
      vertex 4.998329292097741 5.567513435382872 2
      vertex 1.9229226059586066 3.6646848581546907 2
      vertex 4.998329292097741 5.567513435382872 -2
    endloop
  endfacet
  facet normal 0 0 -1
    outer loop
      vertex 4.998329292097741 5.567513435382872 2
      vertex 7.001670707902254 2.103295182284373 2
      vertex 1.9229226059586066 3.6646848581546907 2
    endloop
  endfacet
  facet normal 0 0 -1
    outer loop
      vertex 7.001670707902254 2.103295182284373 2
      vertex 4.077077394041392 0.2937784899176747 2
      vertex 1.9229226059586066 3.6646848581546907 2
    endloop
  endfacet
  facet normal -0.5261557729315258 0.8503882070036183 0
    outer loop
      vertex 7.001670707902254 2.103295182284373 2
      vertex 4.077077394041392 0.2937784899176747 -2
      vertex 4.077077394041392 0.2937784899176747 2
    endloop
  endfacet
  facet normal -0.5261557729315258 0.8503882070036183 0
    outer loop
      vertex 7.001670707902254 2.103295182284373 -2
      vertex 4.077077394041392 0.2937784899176747 -2
      vertex 7.001670707902254 2.103295182284373 2
    endloop
  endfacet
  facet normal 0 0 1
    outer loop
      vertex 9.868540272798748 3.649212329234195 -2
      vertex 4.998329292097741 5.567513435382872 -2
      vertex 7.001670707902254 2.103295182284373 -2
    endloop
  endfacet
  facet normal 0 0 1
    outer loop
      vertex 8.131459727201252 7.257007831139151 -2
      vertex 4.998329292097741 5.567513435382872 -2
      vertex 9.868540272798748 3.649212329234195 -2
    endloop
  endfacet
  facet normal 0.47462768205603356 -0.8801866639674317 0
    outer loop
      vertex 8.131459727201252 7.257007831139151 -2
      vertex 4.998329292097741 5.567513435382872 2
      vertex 4.998329292097741 5.567513435382872 -2
    endloop
  endfacet
  facet normal 0.47462768205603356 -0.8801866639674317 0
    outer loop
      vertex 8.131459727201252 7.257007831139151 2
      vertex 4.998329292097741 5.567513435382872 2
      vertex 8.131459727201252 7.257007831139151 -2
    endloop
  endfacet
  facet normal 0 0 -1
    outer loop
      vertex 8.131459727201252 7.257007831139151 2
      vertex 9.868540272798748 3.649212329234195 2
      vertex 4.998329292097741 5.567513435382872 2
    endloop
  endfacet
  facet normal 0 0 -1
    outer loop
      vertex 9.868540272798748 3.649212329234195 2
      vertex 7.001670707902254 2.103295182284373 2
      vertex 4.998329292097741 5.567513435382872 2
    endloop
  endfacet
  facet normal -0.47462768205603384 0.8801866639674316 0
    outer loop
      vertex 9.868540272798748 3.649212329234195 2
      vertex 7.001670707902254 2.103295182284373 -2
      vertex 7.001670707902254 2.103295182284373 2
    endloop
  endfacet
  facet normal -0.47462768205603384 0.8801866639674316 0
    outer loop
      vertex 9.868540272798748 3.649212329234195 -2
      vertex 7.001670707902254 2.103295182284373 -2
      vertex 9.868540272798748 3.649212329234195 2
    endloop
  endfacet
  facet normal 0 0 1
    outer loop
      vertex 12.670250481356549 4.84335519812863 -2
      vertex 8.131459727201252 7.257007831139151 -2
      vertex 9.868540272798748 3.649212329234195 -2
    endloop
  endfacet
  facet normal 0 0 1
    outer loop
      vertex 11.329749518643446 8.620180558797712 -2
      vertex 8.131459727201252 7.257007831139151 -2
      vertex 12.670250481356549 4.84335519812863 -2
    endloop
  endfacet
  facet normal 0.3920904672138389 -0.9199266631205085 0
    outer loop
      vertex 11.329749518643446 8.620180558797712 -2
      vertex 8.131459727201252 7.257007831139151 2
      vertex 8.131459727201252 7.257007831139151 -2
    endloop
  endfacet
  facet normal 0.3920904672138389 -0.9199266631205085 0
    outer loop
      vertex 11.329749518643446 8.620180558797712 2
      vertex 8.131459727201252 7.257007831139151 2
      vertex 11.329749518643446 8.620180558797712 -2
    endloop
  endfacet
  facet normal 0 0 -1
    outer loop
      vertex 11.329749518643446 8.620180558797712 2
      vertex 12.670250481356549 4.84335519812863 2
      vertex 8.131459727201252 7.257007831139151 2
    endloop
  endfacet
  facet normal 0 0 -1
    outer loop
      vertex 12.670250481356549 4.84335519812863 2
      vertex 9.868540272798748 3.649212329234195 2
      vertex 8.131459727201252 7.257007831139151 2
    endloop
  endfacet
  facet normal -0.3920904672138384 0.9199266631205086 0
    outer loop
      vertex 12.670250481356549 4.84335519812863 2
      vertex 9.868540272798748 3.649212329234195 -2
      vertex 9.868540272798748 3.649212329234195 2
    endloop
  endfacet
  facet normal -0.3920904672138384 0.9199266631205086 0
    outer loop
      vertex 12.670250481356549 4.84335519812863 -2
      vertex 9.868540272798748 3.649212329234195 -2
      vertex 12.670250481356549 4.84335519812863 2
    endloop
  endfacet
  facet normal 0 0 1
    outer loop
      vertex 15.406189501952298 5.627757192808885 -2
      vertex 11.329749518643446 8.620180558797712 -2
      vertex 12.670250481356549 4.84335519812863 -2
    endloop
  endfacet
  facet normal 0 0 1
    outer loop
      vertex 14.593810498047697 9.555996716880493 -2
      vertex 11.329749518643446 8.620180558797712 -2
      vertex 15.406189501952298 5.627757192808885 -2
    endloop
  endfacet
  facet normal 0.27559972954140466 -0.9612724843022943 0
    outer loop
      vertex 14.593810498047697 9.555996716880493 -2
      vertex 11.329749518643446 8.620180558797712 2
      vertex 11.329749518643446 8.620180558797712 -2
    endloop
  endfacet
  facet normal 0.27559972954140466 -0.9612724843022943 0
    outer loop
      vertex 14.593810498047697 9.555996716880493 2
      vertex 11.329749518643446 8.620180558797712 2
      vertex 14.593810498047697 9.555996716880493 -2
    endloop
  endfacet
  facet normal 0 0 -1
    outer loop
      vertex 14.593810498047697 9.555996716880493 2
      vertex 15.406189501952298 5.627757192808885 2
      vertex 11.329749518643446 8.620180558797712 2
    endloop
  endfacet
  facet normal 0 0 -1
    outer loop
      vertex 15.406189501952298 5.627757192808885 2
      vertex 12.670250481356549 4.84335519812863 2
      vertex 11.329749518643446 8.620180558797712 2
    endloop
  endfacet
  facet normal -0.27559972954140466 0.9612724843022942 0
    outer loop
      vertex 15.406189501952298 5.627757192808885 2
      vertex 12.670250481356549 4.84335519812863 -2
      vertex 12.670250481356549 4.84335519812863 2
    endloop
  endfacet
  facet normal -0.27559972954140466 0.9612724843022942 0
    outer loop
      vertex 15.406189501952298 5.627757192808885 -2
      vertex 12.670250481356549 4.84335519812863 -2
      vertex 15.406189501952298 5.627757192808885 2
    endloop
  endfacet
  facet normal 0 0 1
    outer loop
      vertex 18.092919614386712 5.975315231346783 -2
      vertex 14.593810498047697 9.555996716880493 -2
      vertex 15.406189501952298 5.627757192808885 -2
    endloop
  endfacet
  facet normal 0 0 1
    outer loop
      vertex 17.907080385613288 9.984604554318087 -2
      vertex 14.593810498047697 9.555996716880493 -2
      vertex 18.092919614386712 5.975315231346783 -2
    endloop
  endfacet
  facet normal 0.12829199692582563 -0.9917364385383769 0
    outer loop
      vertex 17.907080385613288 9.984604554318087 -2
      vertex 14.593810498047697 9.555996716880493 2
      vertex 14.593810498047697 9.555996716880493 -2
    endloop
  endfacet
  facet normal 0.12829199692582563 -0.9917364385383769 0
    outer loop
      vertex 17.907080385613288 9.984604554318087 2
      vertex 14.593810498047697 9.555996716880493 2
      vertex 17.907080385613288 9.984604554318087 -2
    endloop
  endfacet
  facet normal 0 0 -1
    outer loop
      vertex 17.907080385613288 9.984604554318087 2
      vertex 18.092919614386712 5.975315231346783 2
      vertex 14.593810498047697 9.555996716880493 2
    endloop
  endfacet
  facet normal 0 0 -1
    outer loop
      vertex 18.092919614386712 5.975315231346783 2
      vertex 15.406189501952298 5.627757192808885 2
      vertex 14.593810498047697 9.555996716880493 2
    endloop
  endfacet
  facet normal -0.12829199692582544 0.991736438538377 0
    outer loop
      vertex 18.092919614386712 5.975315231346783 2
      vertex 15.406189501952298 5.627757192808885 -2
      vertex 15.406189501952298 5.627757192808885 2
    endloop
  endfacet
  facet normal -0.12829199692582544 0.991736438538377 0
    outer loop
      vertex 18.092919614386712 5.975315231346783 -2
      vertex 15.406189501952298 5.627757192808885 -2
      vertex 18.092919614386712 5.975315231346783 2
    endloop
  endfacet
  facet normal 0 0 1
    outer loop
      vertex 20.76716858073664 5.878977803254391 -2
      vertex 21.232831419263352 9.8647973467286 -2
      vertex 18.092919614386712 5.975315231346783 -2
    endloop
  endfacet
  facet normal 0 0 1
    outer loop
      vertex 21.232831419263352 9.8647973467286 -2
      vertex 17.907080385613288 9.984604554318087 -2
      vertex 18.092919614386712 5.975315231346783 -2
    endloop
  endfacet
  facet normal -0.03600075377989061 -0.9993517627578787 0
    outer loop
      vertex 21.232831419263352 9.8647973467286 -2
      vertex 17.907080385613288 9.984604554318087 2
      vertex 17.907080385613288 9.984604554318087 -2
    endloop
  endfacet
  facet normal -0.03600075377989061 -0.9993517627578787 0
    outer loop
      vertex 21.232831419263352 9.8647973467286 2
      vertex 17.907080385613288 9.984604554318087 2
      vertex 21.232831419263352 9.8647973467286 -2
    endloop
  endfacet
  facet normal 0 0 -1
    outer loop
      vertex 21.232831419263352 9.8647973467286 2
      vertex 18.092919614386712 5.975315231346783 2
      vertex 17.907080385613288 9.984604554318087 2
    endloop
  endfacet
  facet normal 0 0 -1
    outer loop
      vertex 20.76716858073664 5.878977803254391 2
      vertex 18.092919614386712 5.975315231346783 2
      vertex 21.232831419263352 9.8647973467286 2
    endloop
  endfacet
  facet normal 0.036000753779891155 0.9993517627578787 0
    outer loop
      vertex 20.76716858073664 5.878977803254391 2
      vertex 18.092919614386712 5.975315231346783 -2
      vertex 18.092919614386712 5.975315231346783 2
    endloop
  endfacet
  facet normal 0.036000753779891155 0.9993517627578787 0
    outer loop
      vertex 20.76716858073664 5.878977803254391 -2
      vertex 18.092919614386712 5.975315231346783 -2
      vertex 20.76716858073664 5.878977803254391 2
    endloop
  endfacet
  facet normal 0 0 1
    outer loop
      vertex 23.471789945077493 5.340300024605027 -2
      vertex 24.52821005492251 9.208458804605877 -2
      vertex 20.76716858073664 5.878977803254391 -2
    endloop
  endfacet
  facet normal 0 0 1
    outer loop
      vertex 24.52821005492251 9.208458804605877 -2
      vertex 21.232831419263352 9.8647973467286 -2
      vertex 20.76716858073664 5.878977803254391 -2
    endloop
  endfacet
  facet normal -0.19533279072543105 -0.9807370192194312 0
    outer loop
      vertex 24.52821005492251 9.208458804605877 -2
      vertex 21.232831419263352 9.8647973467286 2
      vertex 21.232831419263352 9.8647973467286 -2
    endloop
  endfacet
  facet normal -0.19533279072543105 -0.9807370192194312 0
    outer loop
      vertex 24.52821005492251 9.208458804605877 2
      vertex 21.232831419263352 9.8647973467286 2
      vertex 24.52821005492251 9.208458804605877 -2
    endloop
  endfacet
  facet normal 0 0 -1
    outer loop
      vertex 24.52821005492251 9.208458804605877 2
      vertex 20.76716858073664 5.878977803254391 2
      vertex 21.232831419263352 9.8647973467286 2
    endloop
  endfacet
  facet normal 0 0 -1
    outer loop
      vertex 23.471789945077493 5.340300024605027 2
      vertex 20.76716858073664 5.878977803254391 2
      vertex 24.52821005492251 9.208458804605877 2
    endloop
  endfacet
  facet normal 0.195332790725431 0.9807370192194312 0
    outer loop
      vertex 23.471789945077493 5.340300024605027 2
      vertex 20.76716858073664 5.878977803254391 -2
      vertex 20.76716858073664 5.878977803254391 2
    endloop
  endfacet
  facet normal 0.195332790725431 0.9807370192194312 0
    outer loop
      vertex 23.471789945077493 5.340300024605027 -2
      vertex 20.76716858073664 5.878977803254391 -2
      vertex 23.471789945077493 5.340300024605027 2
    endloop
  endfacet
  facet normal 0 0 1
    outer loop
      vertex 26.23544408870048 4.373210993108422 -2
      vertex 27.76455591129952 8.075960157098319 -2
      vertex 23.471789945077493 5.340300024605027 -2
    endloop
  endfacet
  facet normal 0 0 1
    outer loop
      vertex 27.76455591129952 8.075960157098319 -2
      vertex 24.52821005492251 9.208458804605877 -2
      vertex 23.471789945077493 5.340300024605027 -2
    endloop
  endfacet
  facet normal -0.33029263926034286 -0.9438785792941997 0
    outer loop
      vertex 27.76455591129952 8.075960157098319 -2
      vertex 24.52821005492251 9.208458804605877 2
      vertex 24.52821005492251 9.208458804605877 -2
    endloop
  endfacet
  facet normal -0.33029263926034286 -0.9438785792941997 0
    outer loop
      vertex 27.76455591129952 8.075960157098319 2
      vertex 24.52821005492251 9.208458804605877 2
      vertex 27.76455591129952 8.075960157098319 -2
    endloop
  endfacet
  facet normal 0 0 -1
    outer loop
      vertex 27.76455591129952 8.075960157098319 2
      vertex 23.471789945077493 5.340300024605027 2
      vertex 24.52821005492251 9.208458804605877 2
    endloop
  endfacet
  facet normal 0 0 -1
    outer loop
      vertex 26.23544408870048 4.373210993108422 2
      vertex 23.471789945077493 5.340300024605027 2
      vertex 27.76455591129952 8.075960157098319 2
    endloop
  endfacet
  facet normal 0.330292639260343 0.9438785792941998 0
    outer loop
      vertex 26.23544408870048 4.373210993108422 2
      vertex 23.471789945077493 5.340300024605027 -2
      vertex 23.471789945077493 5.340300024605027 2
    endloop
  endfacet
  facet normal 0.330292639260343 0.9438785792941998 0
    outer loop
      vertex 26.23544408870048 4.373210993108422 -2
      vertex 23.471789945077493 5.340300024605027 -2
      vertex 26.23544408870048 4.373210993108422 2
    endloop
  endfacet
  facet normal 0 0 1
    outer loop
      vertex 29.066117758310423 3.0174990700423026 -2
      vertex 30.933882241689577 6.5580552356210005 -2
      vertex 26.23544408870048 4.373210993108422 -2
    endloop
  endfacet
  facet normal 0 0 1
    outer loop
      vertex 30.933882241689577 6.5580552356210005 -2
      vertex 27.76455591129952 8.075960157098319 -2
      vertex 26.23544408870048 4.373210993108422 -2
    endloop
  endfacet
  facet normal -0.4319510849066608 -0.9018970341718388 0
    outer loop
      vertex 30.933882241689577 6.5580552356210005 -2
      vertex 27.76455591129952 8.075960157098319 2
      vertex 27.76455591129952 8.075960157098319 -2
    endloop
  endfacet
  facet normal -0.4319510849066608 -0.9018970341718388 0
    outer loop
      vertex 30.933882241689577 6.5580552356210005 2
      vertex 27.76455591129952 8.075960157098319 2
      vertex 30.933882241689577 6.5580552356210005 -2
    endloop
  endfacet
  facet normal 0 0 -1
    outer loop
      vertex 30.933882241689577 6.5580552356210005 2
      vertex 26.23544408870048 4.373210993108422 2
      vertex 27.76455591129952 8.075960157098319 2
    endloop
  endfacet
  facet normal 0 0 -1
    outer loop
      vertex 29.066117758310423 3.0174990700423026 2
      vertex 26.23544408870048 4.373210993108422 2
      vertex 30.933882241689577 6.5580552356210005 2
    endloop
  endfacet
  facet normal 0.4319510849066607 0.9018970341718388 0
    outer loop
      vertex 29.066117758310423 3.0174990700423026 2
      vertex 26.23544408870048 4.373210993108422 -2
      vertex 26.23544408870048 4.373210993108422 2
    endloop
  endfacet
  facet normal 0.4319510849066607 0.9018970341718388 0
    outer loop
      vertex 29.066117758310423 3.0174990700423026 -2
      vertex 26.23544408870048 4.373210993108422 -2
      vertex 29.066117758310423 3.0174990700423026 2
    endloop
  endfacet
  facet normal 0 0 1
    outer loop
      vertex 31.95900384122496 1.3449391650001352 -2
      vertex 34.04099615877511 4.7616367078371304 -2
      vertex 29.066117758310423 3.0174990700423026 -2
    endloop
  endfacet
  facet normal 0 0 1
    outer loop
      vertex 34.04099615877511 4.7616367078371304 -2
      vertex 30.933882241689577 6.5580552356210005 -2
      vertex 29.066117758310423 3.0174990700423026 -2
    endloop
  endfacet
  facet normal -0.5005276523225837 -0.8657205491730243 0
    outer loop
      vertex 34.04099615877511 4.7616367078371304 -2
      vertex 30.933882241689577 6.5580552356210005 2
      vertex 30.933882241689577 6.5580552356210005 -2
    endloop
  endfacet
  facet normal -0.5005276523225837 -0.8657205491730243 0
    outer loop
      vertex 34.04099615877511 4.7616367078371304 2
      vertex 30.933882241689577 6.5580552356210005 2
      vertex 34.04099615877511 4.7616367078371304 -2
    endloop
  endfacet
  facet normal 0 0 -1
    outer loop
      vertex 34.04099615877511 4.7616367078371304 2
      vertex 29.066117758310423 3.0174990700423026 2
      vertex 30.933882241689577 6.5580552356210005 2
    endloop
  endfacet
  facet normal 0 0 -1
    outer loop
      vertex 31.95900384122496 1.3449391650001352 2
      vertex 29.066117758310423 3.0174990700423026 2
      vertex 34.04099615877511 4.7616367078371304 2
    endloop
  endfacet
  facet normal 0.5005276523225832 0.8657205491730245 0
    outer loop
      vertex 31.95900384122496 1.3449391650001352 2
      vertex 29.066117758310423 3.0174990700423026 -2
      vertex 29.066117758310423 3.0174990700423026 2
    endloop
  endfacet
  facet normal 0.5005276523225832 0.8657205491730245 0
    outer loop
      vertex 31.95900384122496 1.3449391650001352 -2
      vertex 29.066117758310423 3.0174990700423026 -2
      vertex 31.95900384122496 1.3449391650001352 2
    endloop
  endfacet
  facet normal 0 0 1
    outer loop
      vertex 34.90636473976735 -0.5456237435766677 -2
      vertex 37.093635260232666 2.803543872534537 -2
      vertex 31.95900384122496 1.3449391650001352 -2
    endloop
  endfacet
  facet normal 0 0 1
    outer loop
      vertex 37.093635260232666 2.803543872534537 -2
      vertex 34.04099615877511 4.7616367078371304 -2
      vertex 31.95900384122496 1.3449391650001352 -2
    endloop
  endfacet
  facet normal -0.5399148538590328 -0.8417196389430268 0
    outer loop
      vertex 37.093635260232666 2.803543872534537 -2
      vertex 34.04099615877511 4.7616367078371304 2
      vertex 34.04099615877511 4.7616367078371304 -2
    endloop
  endfacet
  facet normal -0.5399148538590328 -0.8417196389430268 0
    outer loop
      vertex 37.093635260232666 2.803543872534537 2
      vertex 34.04099615877511 4.7616367078371304 2
      vertex 37.093635260232666 2.803543872534537 -2
    endloop
  endfacet
  facet normal 0 0 -1
    outer loop
      vertex 37.093635260232666 2.803543872534537 2
      vertex 31.95900384122496 1.3449391650001352 2
      vertex 34.04099615877511 4.7616367078371304 2
    endloop
  endfacet
  facet normal 0 0 -1
    outer loop
      vertex 34.90636473976735 -0.5456237435766677 2
      vertex 31.95900384122496 1.3449391650001352 2
      vertex 37.093635260232666 2.803543872534537 2
    endloop
  endfacet
  facet normal 0.5399148538590336 0.8417196389430261 0
    outer loop
      vertex 34.90636473976735 -0.5456237435766677 2
      vertex 31.95900384122496 1.3449391650001352 -2
      vertex 31.95900384122496 1.3449391650001352 2
    endloop
  endfacet
  facet normal 0.5399148538590336 0.8417196389430261 0
    outer loop
      vertex 34.90636473976735 -0.5456237435766677 -2
      vertex 31.95900384122496 1.3449391650001352 -2
      vertex 34.90636473976735 -0.5456237435766677 2
    endloop
  endfacet
  facet normal 0 0 1
    outer loop
      vertex 37.90315178405872 -2.538008781601454 -2
      vertex 40.09684821594128 0.8068866291197201 -2
      vertex 34.90636473976735 -0.5456237435766677 -2
    endloop
  endfacet
  facet normal 0 0 1
    outer loop
      vertex 40.09684821594128 0.8068866291197201 -2
      vertex 37.093635260232666 2.803543872534537 -2
      vertex 34.90636473976735 -0.5456237435766677 -2
    endloop
  endfacet
  facet normal -0.553646860896529 -0.832751555639147 0
    outer loop
      vertex 40.09684821594128 0.8068866291197201 -2
      vertex 37.093635260232666 2.803543872534537 2
      vertex 37.093635260232666 2.803543872534537 -2
    endloop
  endfacet
  facet normal -0.553646860896529 -0.832751555639147 0
    outer loop
      vertex 40.09684821594128 0.8068866291197201 2
      vertex 37.093635260232666 2.803543872534537 2
      vertex 40.09684821594128 0.8068866291197201 -2
    endloop
  endfacet
  facet normal 0 0 -1
    outer loop
      vertex 40.09684821594128 0.8068866291197201 2
      vertex 34.90636473976735 -0.5456237435766677 2
      vertex 37.093635260232666 2.803543872534537 2
    endloop
  endfacet
  facet normal 0 0 -1
    outer loop
      vertex 37.90315178405872 -2.538008781601454 2
      vertex 34.90636473976735 -0.5456237435766677 2
      vertex 40.09684821594128 0.8068866291197201 2
    endloop
  endfacet
  facet normal 0.5536468608965279 0.8327515556391478 0
    outer loop
      vertex 37.90315178405872 -2.538008781601454 2
      vertex 34.90636473976735 -0.5456237435766677 -2
      vertex 34.90636473976735 -0.5456237435766677 2
    endloop
  endfacet
  facet normal 0.5536468608965279 0.8327515556391478 0
    outer loop
      vertex 37.90315178405872 -2.538008781601454 -2
      vertex 34.90636473976735 -0.5456237435766677 -2
      vertex 37.90315178405872 -2.538008781601454 2
    endloop
  endfacet
  facet normal 0 0 1
    outer loop
      vertex 40.94903208415872 -4.508393565583801 -2
      vertex 43.050967915841284 -1.104138077450119 -2
      vertex 37.90315178405872 -2.538008781601454 -2
    endloop
  endfacet
  facet normal 0 0 1
    outer loop
      vertex 43.050967915841284 -1.104138077450119 -2
      vertex 40.09684821594128 0.8068866291197201 -2
      vertex 37.90315178405872 -2.538008781601454 -2
    endloop
  endfacet
  facet normal -0.5431582133196422 -0.8396303682593992 0
    outer loop
      vertex 43.050967915841284 -1.104138077450119 -2
      vertex 40.09684821594128 0.8068866291197201 2
      vertex 40.09684821594128 0.8068866291197201 -2
    endloop
  endfacet
  facet normal -0.5431582133196422 -0.8396303682593992 0
    outer loop
      vertex 43.050967915841284 -1.104138077450119 2
      vertex 40.09684821594128 0.8068866291197201 2
      vertex 43.050967915841284 -1.104138077450119 -2
    endloop
  endfacet
  facet normal 0 0 -1
    outer loop
      vertex 43.050967915841284 -1.104138077450119 2
      vertex 37.90315178405872 -2.538008781601454 2
      vertex 40.09684821594128 0.8068866291197201 2
    endloop
  endfacet
  facet normal 0 0 -1
    outer loop
      vertex 40.94903208415872 -4.508393565583801 2
      vertex 37.90315178405872 -2.538008781601454 2
      vertex 43.050967915841284 -1.104138077450119 2
    endloop
  endfacet
  facet normal 0.5431582133196426 0.8396303682593987 0
    outer loop
      vertex 40.94903208415872 -4.508393565583801 2
      vertex 37.90315178405872 -2.538008781601454 -2
      vertex 37.90315178405872 -2.538008781601454 2
    endloop
  endfacet
  facet normal 0.5431582133196426 0.8396303682593987 0
    outer loop
      vertex 40.94903208415872 -4.508393565583801 -2
      vertex 37.90315178405872 -2.538008781601454 -2
      vertex 40.94903208415872 -4.508393565583801 2
    endloop
  endfacet
  facet normal 0 0 1
    outer loop
      vertex 44.048490925973645 -6.333173849296828 -2
      vertex 45.951509074026355 -2.811807250580671 -2
      vertex 40.94903208415872 -4.508393565583801 -2
    endloop
  endfacet
  facet normal 0 0 1
    outer loop
      vertex 45.951509074026355 -2.811807250580671 -2
      vertex 43.050967915841284 -1.104138077450119 -2
      vertex 40.94903208415872 -4.508393565583801 -2
    endloop
  endfacet
  facet normal -0.5073442203630367 -0.8617434897138605 0
    outer loop
      vertex 45.951509074026355 -2.811807250580671 -2
      vertex 43.050967915841284 -1.104138077450119 2
      vertex 43.050967915841284 -1.104138077450119 -2
    endloop
  endfacet
  facet normal -0.5073442203630367 -0.8617434897138605 0
    outer loop
      vertex 45.951509074026355 -2.811807250580671 2
      vertex 43.050967915841284 -1.104138077450119 2
      vertex 45.951509074026355 -2.811807250580671 -2
    endloop
  endfacet
  facet normal 0 0 -1
    outer loop
      vertex 45.951509074026355 -2.811807250580671 2
      vertex 40.94903208415872 -4.508393565583801 2
      vertex 43.050967915841284 -1.104138077450119 2
    endloop
  endfacet
  facet normal 0 0 -1
    outer loop
      vertex 44.048490925973645 -6.333173849296828 2
      vertex 40.94903208415872 -4.508393565583801 2
      vertex 45.951509074026355 -2.811807250580671 2
    endloop
  endfacet
  facet normal 0.5073442203630367 0.8617434897138605 0
    outer loop
      vertex 44.048490925973645 -6.333173849296828 2
      vertex 40.94903208415872 -4.508393565583801 -2
      vertex 40.94903208415872 -4.508393565583801 2
    endloop
  endfacet
  facet normal 0.5073442203630367 0.8617434897138605 0
    outer loop
      vertex 44.048490925973645 -6.333173849296828 -2
      vertex 40.94903208415872 -4.508393565583801 -2
      vertex 44.048490925973645 -6.333173849296828 2
    endloop
  endfacet
  facet normal 0 0 1
    outer loop
      vertex 47.20913350470845 -7.894456915931809 -2
      vertex 48.79086649529155 -4.214383008995042 -2
      vertex 44.048490925973645 -6.333173849296828 -2
    endloop
  endfacet
  facet normal 0 0 1
    outer loop
      vertex 48.79086649529155 -4.214383008995042 -2
      vertex 45.951509074026355 -2.811807250580671 -2
      vertex 44.048490925973645 -6.333173849296828 -2
    endloop
  endfacet
  facet normal -0.44288793203119303 -0.8965769792165831 0
    outer loop
      vertex 48.79086649529155 -4.214383008995042 -2
      vertex 45.951509074026355 -2.811807250580671 2
      vertex 45.951509074026355 -2.811807250580671 -2
    endloop
  endfacet
  facet normal -0.44288793203119303 -0.8965769792165831 0
    outer loop
      vertex 48.79086649529155 -4.214383008995042 2
      vertex 45.951509074026355 -2.811807250580671 2
      vertex 48.79086649529155 -4.214383008995042 -2
    endloop
  endfacet
  facet normal 0 0 -1
    outer loop
      vertex 48.79086649529155 -4.214383008995042 2
      vertex 44.048490925973645 -6.333173849296828 2
      vertex 45.951509074026355 -2.811807250580671 2
    endloop
  endfacet
  facet normal 0 0 -1
    outer loop
      vertex 47.20913350470845 -7.894456915931809 2
      vertex 44.048490925973645 -6.333173849296828 2
      vertex 48.79086649529155 -4.214383008995042 2
    endloop
  endfacet
  facet normal 0.4428879320311934 0.896576979216583 0
    outer loop
      vertex 47.20913350470845 -7.894456915931809 2
      vertex 44.048490925973645 -6.333173849296828 -2
      vertex 44.048490925973645 -6.333173849296828 2
    endloop
  endfacet
  facet normal 0.4428879320311934 0.896576979216583 0
    outer loop
      vertex 47.20913350470845 -7.894456915931809 -2
      vertex 44.048490925973645 -6.333173849296828 -2
      vertex 47.20913350470845 -7.894456915931809 2
    endloop
  endfacet
  facet normal 0 0 1
    outer loop
      vertex 50.436651410004465 -9.083791780873414 -2
      vertex 51.56334858999554 -5.236037950783927 -2
      vertex 47.20913350470845 -7.894456915931809 -2
    endloop
  endfacet
  facet normal 0 0 1
    outer loop
      vertex 51.56334858999554 -5.236037950783927 -2
      vertex 48.79086649529155 -4.214383008995042 -2
      vertex 47.20913350470845 -7.894456915931809 -2
    endloop
  endfacet
  facet normal -0.3457691791054974 -0.9383196016180789 0
    outer loop
      vertex 51.56334858999554 -5.236037950783927 -2
      vertex 48.79086649529155 -4.214383008995042 2
      vertex 48.79086649529155 -4.214383008995042 -2
    endloop
  endfacet
  facet normal -0.3457691791054974 -0.9383196016180789 0
    outer loop
      vertex 51.56334858999554 -5.236037950783927 2
      vertex 48.79086649529155 -4.214383008995042 2
      vertex 51.56334858999554 -5.236037950783927 -2
    endloop
  endfacet
  facet normal 0 0 -1
    outer loop
      vertex 51.56334858999554 -5.236037950783927 2
      vertex 47.20913350470845 -7.894456915931809 2
      vertex 48.79086649529155 -4.214383008995042 2
    endloop
  endfacet
  facet normal 0 0 -1
    outer loop
      vertex 50.436651410004465 -9.083791780873414 2
      vertex 47.20913350470845 -7.894456915931809 2
      vertex 51.56334858999554 -5.236037950783927 2
    endloop
  endfacet
  facet normal 0.34576917910549715 0.938319601618079 0
    outer loop
      vertex 50.436651410004465 -9.083791780873414 2
      vertex 47.20913350470845 -7.894456915931809 -2
      vertex 47.20913350470845 -7.894456915931809 2
    endloop
  endfacet
  facet normal 0.34576917910549715 0.938319601618079 0
    outer loop
      vertex 50.436651410004465 -9.083791780873414 -2
      vertex 47.20913350470845 -7.894456915931809 -2
      vertex 50.436651410004465 -9.083791780873414 2
    endloop
  endfacet
  facet normal 0 0 1
    outer loop
      vertex 53.725375453375484 -9.807668527851988 -2
      vertex 54.27462454662451 -5.832813354789565 -2
      vertex 50.436651410004465 -9.083791780873414 -2
    endloop
  endfacet
  facet normal 0 0 1
    outer loop
      vertex 54.27462454662451 -5.832813354789565 -2
      vertex 51.56334858999554 -5.236037950783927 -2
      vertex 50.436651410004465 -9.083791780873414 -2
    endloop
  endfacet
  facet normal -0.21496303185750318 -0.9766221863825488 0
    outer loop
      vertex 54.27462454662451 -5.832813354789565 -2
      vertex 51.56334858999554 -5.236037950783927 2
      vertex 51.56334858999554 -5.236037950783927 -2
    endloop
  endfacet
  facet normal -0.21496303185750318 -0.9766221863825488 0
    outer loop
      vertex 54.27462454662451 -5.832813354789565 2
      vertex 51.56334858999554 -5.236037950783927 2
      vertex 54.27462454662451 -5.832813354789565 -2
    endloop
  endfacet
  facet normal 0 0 -1
    outer loop
      vertex 54.27462454662451 -5.832813354789565 2
      vertex 50.436651410004465 -9.083791780873414 2
      vertex 51.56334858999554 -5.236037950783927 2
    endloop
  endfacet
  facet normal 0 0 -1
    outer loop
      vertex 53.725375453375484 -9.807668527851988 2
      vertex 50.436651410004465 -9.083791780873414 2
      vertex 54.27462454662451 -5.832813354789565 2
    endloop
  endfacet
  facet normal 0.21496303185750346 0.9766221863825489 0
    outer loop
      vertex 53.725375453375484 -9.807668527851988 2
      vertex 50.436651410004465 -9.083791780873414 -2
      vertex 50.436651410004465 -9.083791780873414 2
    endloop
  endfacet
  facet normal 0.21496303185750346 0.9766221863825489 0
    outer loop
      vertex 53.725375453375484 -9.807668527851988 -2
      vertex 50.436651410004465 -9.083791780873414 -2
      vertex 53.725375453375484 -9.807668527851988 2
    endloop
  endfacet
  facet normal 0 0 1
    outer loop
      vertex 57.04943120175142 -10.000576081635868 -2
      vertex 56.95056879824858 -5.988108541970179 -2
      vertex 53.725375453375484 -9.807668527851988 -2
    endloop
  endfacet
  facet normal 0 0 1
    outer loop
      vertex 56.95056879824858 -5.988108541970179 -2
      vertex 54.27462454662451 -5.832813354789565 -2
      vertex 53.725375453375484 -9.807668527851988 -2
    endloop
  endfacet
  facet normal -0.05793630971706411 -0.9983202812806962 0
    outer loop
      vertex 56.95056879824858 -5.988108541970179 -2
      vertex 54.27462454662451 -5.832813354789565 2
      vertex 54.27462454662451 -5.832813354789565 -2
    endloop
  endfacet
  facet normal -0.05793630971706411 -0.9983202812806962 0
    outer loop
      vertex 56.95056879824858 -5.988108541970179 2
      vertex 54.27462454662451 -5.832813354789565 2
      vertex 56.95056879824858 -5.988108541970179 -2
    endloop
  endfacet
  facet normal 0 0 -1
    outer loop
      vertex 56.95056879824858 -5.988108541970179 2
      vertex 53.725375453375484 -9.807668527851988 2
      vertex 54.27462454662451 -5.832813354789565 2
    endloop
  endfacet
  facet normal 0 0 -1
    outer loop
      vertex 57.04943120175142 -10.000576081635868 2
      vertex 53.725375453375484 -9.807668527851988 2
      vertex 56.95056879824858 -5.988108541970179 2
    endloop
  endfacet
  facet normal 0.057936309717064 0.9983202812806962 0
    outer loop
      vertex 57.04943120175142 -10.000576081635868 2
      vertex 53.725375453375484 -9.807668527851988 -2
      vertex 53.725375453375484 -9.807668527851988 2
    endloop
  endfacet
  facet normal 0.057936309717064 0.9983202812806962 0
    outer loop
      vertex 57.04943120175142 -10.000576081635868 -2
      vertex 53.725375453375484 -9.807668527851988 -2
      vertex 57.04943120175142 -10.000576081635868 2
    endloop
  endfacet
  facet normal 0 0 1
    outer loop
      vertex 60.36682114189088 -9.643461139561738 -2
      vertex 56.95056879824858 -5.988108541970179 -2
      vertex 57.04943120175142 -10.000576081635868 -2
    endloop
  endfacet
  facet normal 0 0 1
    outer loop
      vertex 59.63317885810912 -5.699327255048477 -2
      vertex 56.95056879824858 -5.988108541970179 -2
      vertex 60.36682114189088 -9.643461139561738 -2
    endloop
  endfacet
  facet normal 0.10703099949121674 -0.9942556839907485 0
    outer loop
      vertex 59.63317885810912 -5.699327255048477 -2
      vertex 56.95056879824858 -5.988108541970179 2
      vertex 56.95056879824858 -5.988108541970179 -2
    endloop
  endfacet
  facet normal 0.10703099949121674 -0.9942556839907485 0
    outer loop
      vertex 59.63317885810912 -5.699327255048477 2
      vertex 56.95056879824858 -5.988108541970179 2
      vertex 59.63317885810912 -5.699327255048477 -2
    endloop
  endfacet
  facet normal 0 0 -1
    outer loop
      vertex 59.63317885810912 -5.699327255048477 2
      vertex 60.36682114189088 -9.643461139561738 2
      vertex 56.95056879824858 -5.988108541970179 2
    endloop
  endfacet
  facet normal 0 0 -1
    outer loop
      vertex 60.36682114189088 -9.643461139561738 2
      vertex 57.04943120175142 -10.000576081635868 2
      vertex 56.95056879824858 -5.988108541970179 2
    endloop
  endfacet
  facet normal -0.1070309994912156 0.9942556839907486 0
    outer loop
      vertex 60.36682114189088 -9.643461139561738 2
      vertex 57.04943120175142 -10.000576081635868 -2
      vertex 57.04943120175142 -10.000576081635868 2
    endloop
  endfacet
  facet normal -0.1070309994912156 0.9942556839907486 0
    outer loop
      vertex 60.36682114189088 -9.643461139561738 -2
      vertex 57.04943120175142 -10.000576081635868 -2
      vertex 60.36682114189088 -9.643461139561738 2
    endloop
  endfacet
  facet normal 0 0 1
    outer loop
      vertex 63.6388405764472 -8.771011786327032 -2
      vertex 59.63317885810912 -5.699327255048477 -2
      vertex 60.36682114189088 -9.643461139561738 -2
    endloop
  endfacet
  facet normal 0 0 1
    outer loop
      vertex 62.3611594235528 -4.9719401084984405 -2
      vertex 59.63317885810912 -5.699327255048477 -2
      vertex 63.6388405764472 -8.771011786327032 -2
    endloop
  endfacet
  facet normal 0.2576380684190093 -0.9662414945039992 0
    outer loop
      vertex 62.3611594235528 -4.9719401084984405 -2
      vertex 59.63317885810912 -5.699327255048477 2
      vertex 59.63317885810912 -5.699327255048477 -2
    endloop
  endfacet
  facet normal 0.2576380684190093 -0.9662414945039992 0
    outer loop
      vertex 62.3611594235528 -4.9719401084984405 2
      vertex 59.63317885810912 -5.699327255048477 2
      vertex 62.3611594235528 -4.9719401084984405 -2
    endloop
  endfacet
  facet normal 0 0 -1
    outer loop
      vertex 62.3611594235528 -4.9719401084984405 2
      vertex 63.6388405764472 -8.771011786327032 2
      vertex 59.63317885810912 -5.699327255048477 2
    endloop
  endfacet
  facet normal 0 0 -1
    outer loop
      vertex 63.6388405764472 -8.771011786327032 2
      vertex 60.36682114189088 -9.643461139561738 2
      vertex 59.63317885810912 -5.699327255048477 2
    endloop
  endfacet
  facet normal -0.25763806841900966 0.9662414945039991 0
    outer loop
      vertex 63.6388405764472 -8.771011786327032 2
      vertex 60.36682114189088 -9.643461139561738 -2
      vertex 60.36682114189088 -9.643461139561738 2
    endloop
  endfacet
  facet normal -0.25763806841900966 0.9662414945039991 0
    outer loop
      vertex 63.6388405764472 -8.771011786327032 -2
      vertex 60.36682114189088 -9.643461139561738 -2
      vertex 63.6388405764472 -8.771011786327032 2
    endloop
  endfacet
  facet normal 0 0 1
    outer loop
      vertex 66.84609631807982 -7.459080251421018 -2
      vertex 62.3611594235528 -4.9719401084984405 -2
      vertex 63.6388405764472 -8.771011786327032 -2
    endloop
  endfacet
  facet normal 0 0 1
    outer loop
      vertex 65.15390368192018 -3.8295649577052524 -2
      vertex 62.3611594235528 -4.9719401084984405 -2
      vertex 66.84609631807982 -7.459080251421018 -2
    endloop
  endfacet
  facet normal 0.3786012934318834 -0.9255598633322994 0
    outer loop
      vertex 65.15390368192018 -3.8295649577052524 -2
      vertex 62.3611594235528 -4.9719401084984405 2
      vertex 62.3611594235528 -4.9719401084984405 -2
    endloop
  endfacet
  facet normal 0.3786012934318834 -0.9255598633322994 0
    outer loop
      vertex 65.15390368192018 -3.8295649577052524 2
      vertex 62.3611594235528 -4.9719401084984405 2
      vertex 65.15390368192018 -3.8295649577052524 -2
    endloop
  endfacet
  facet normal 0 0 -1
    outer loop
      vertex 65.15390368192018 -3.8295649577052524 2
      vertex 66.84609631807982 -7.459080251421018 2
      vertex 62.3611594235528 -4.9719401084984405 2
    endloop
  endfacet
  facet normal 0 0 -1
    outer loop
      vertex 66.84609631807982 -7.459080251421018 2
      vertex 63.6388405764472 -8.771011786327032 2
      vertex 62.3611594235528 -4.9719401084984405 2
    endloop
  endfacet
  facet normal -0.37860129343188365 0.9255598633322993 0
    outer loop
      vertex 66.84609631807982 -7.459080251421018 2
      vertex 63.6388405764472 -8.771011786327032 -2
      vertex 63.6388405764472 -8.771011786327032 2
    endloop
  endfacet
  facet normal -0.37860129343188365 0.9255598633322993 0
    outer loop
      vertex 66.84609631807982 -7.459080251421018 -2
      vertex 63.6388405764472 -8.771011786327032 -2
      vertex 66.84609631807982 -7.459080251421018 2
    endloop
  endfacet
  facet normal 0 0 1
    outer loop
      vertex 69.98749757323377 -5.806608965330637 -2
      vertex 65.15390368192018 -3.8295649577052524 -2
      vertex 66.84609631807982 -7.459080251421018 -2
    endloop
  endfacet
  facet normal 0 0 1
    outer loop
      vertex 68.01250242676623 -2.3258562746574953 -2
      vertex 65.15390368192018 -3.8295649577052524 -2
      vertex 69.98749757323377 -5.806608965330637 -2
    endloop
  endfacet
  facet normal 0.46554835303337244 -0.8850224466011662 0
    outer loop
      vertex 68.01250242676623 -2.3258562746574953 -2
      vertex 65.15390368192018 -3.8295649577052524 2
      vertex 65.15390368192018 -3.8295649577052524 -2
    endloop
  endfacet
  facet normal 0.46554835303337244 -0.8850224466011662 0
    outer loop
      vertex 68.01250242676623 -2.3258562746574953 2
      vertex 65.15390368192018 -3.8295649577052524 2
      vertex 68.01250242676623 -2.3258562746574953 -2
    endloop
  endfacet
  facet normal 0 0 -1
    outer loop
      vertex 68.01250242676623 -2.3258562746574953 2
      vertex 69.98749757323377 -5.806608965330637 2
      vertex 65.15390368192018 -3.8295649577052524 2
    endloop
  endfacet
  facet normal 0 0 -1
    outer loop
      vertex 69.98749757323377 -5.806608965330637 2
      vertex 66.84609631807982 -7.459080251421018 2
      vertex 65.15390368192018 -3.8295649577052524 2
    endloop
  endfacet
  facet normal -0.4655483530333709 0.8850224466011672 0
    outer loop
      vertex 69.98749757323377 -5.806608965330637 2
      vertex 66.84609631807982 -7.459080251421018 -2
      vertex 66.84609631807982 -7.459080251421018 2
    endloop
  endfacet
  facet normal -0.4655483530333709 0.8850224466011672 0
    outer loop
      vertex 69.98749757323377 -5.806608965330637 -2
      vertex 66.84609631807982 -7.459080251421018 -2
      vertex 69.98749757323377 -5.806608965330637 2
    endloop
  endfacet
  facet normal 0 0 1
    outer loop
      vertex 73.07011850283385 -3.9252765397989227 -2
      vertex 68.01250242676623 -2.3258562746574953 -2
      vertex 69.98749757323377 -5.806608965330637 -2
    endloop
  endfacet
  facet normal 0 0 1
    outer loop
      vertex 70.92988149716615 -0.5453714313838943 -2
      vertex 68.01250242676623 -2.3258562746574953 -2
      vertex 73.07011850283385 -3.9252765397989227 -2
    endloop
  endfacet
  facet normal 0.5209476109826312 -0.8535886518760012 0
    outer loop
      vertex 70.92988149716615 -0.5453714313838943 -2
      vertex 68.01250242676623 -2.3258562746574953 2
      vertex 68.01250242676623 -2.3258562746574953 -2
    endloop
  endfacet
  facet normal 0.5209476109826312 -0.8535886518760012 0
    outer loop
      vertex 70.92988149716615 -0.5453714313838943 2
      vertex 68.01250242676623 -2.3258562746574953 2
      vertex 70.92988149716615 -0.5453714313838943 -2
    endloop
  endfacet
  facet normal 0 0 -1
    outer loop
      vertex 70.92988149716615 -0.5453714313838943 2
      vertex 73.07011850283385 -3.9252765397989227 2
      vertex 68.01250242676623 -2.3258562746574953 2
    endloop
  endfacet
  facet normal 0 0 -1
    outer loop
      vertex 73.07011850283385 -3.9252765397989227 2
      vertex 69.98749757323377 -5.806608965330637 2
      vertex 68.01250242676623 -2.3258562746574953 2
    endloop
  endfacet
  facet normal -0.5209476109826319 0.8535886518760007 0
    outer loop
      vertex 73.07011850283385 -3.9252765397989227 2
      vertex 69.98749757323377 -5.806608965330637 -2
      vertex 69.98749757323377 -5.806608965330637 2
    endloop
  endfacet
  facet normal -0.5209476109826319 0.8535886518760007 0
    outer loop
      vertex 73.07011850283385 -3.9252765397989227 -2
      vertex 69.98749757323377 -5.806608965330637 -2
      vertex 73.07011850283385 -3.9252765397989227 2
    endloop
  endfacet
  facet normal 0 0 1
    outer loop
      vertex 76.10096194567932 -1.9351335541090502 -2
      vertex 70.92988149716615 -0.5453714313838943 -2
      vertex 73.07011850283385 -3.9252765397989227 -2
    endloop
  endfacet
  facet normal 0 0 1
    outer loop
      vertex 73.89903805432068 1.4042660893481411 -2
      vertex 70.92988149716615 -0.5453714313838943 -2
      vertex 76.10096194567932 -1.9351335541090502 -2
    endloop
  endfacet
  facet normal 0.5488784961854287 -0.8359021452450175 0
    outer loop
      vertex 73.89903805432068 1.4042660893481411 -2
      vertex 70.92988149716615 -0.5453714313838943 2
      vertex 70.92988149716615 -0.5453714313838943 -2
    endloop
  endfacet
  facet normal 0.5488784961854287 -0.8359021452450175 0
    outer loop
      vertex 73.89903805432068 1.4042660893481411 2
      vertex 70.92988149716615 -0.5453714313838943 2
      vertex 73.89903805432068 1.4042660893481411 -2
    endloop
  endfacet
  facet normal 0 0 -1
    outer loop
      vertex 73.89903805432068 1.4042660893481411 2
      vertex 76.10096194567932 -1.9351335541090502 2
      vertex 70.92988149716615 -0.5453714313838943 2
    endloop
  endfacet
  facet normal 0 0 -1
    outer loop
      vertex 76.10096194567932 -1.9351335541090502 2
      vertex 73.07011850283385 -3.9252765397989227 2
      vertex 70.92988149716615 -0.5453714313838943 2
    endloop
  endfacet
  facet normal -0.548878496185429 0.8359021452450172 0
    outer loop
      vertex 76.10096194567932 -1.9351335541090502 2
      vertex 73.07011850283385 -3.9252765397989227 -2
      vertex 73.07011850283385 -3.9252765397989227 2
    endloop
  endfacet
  facet normal -0.548878496185429 0.8359021452450172 0
    outer loop
      vertex 76.10096194567932 -1.9351335541090502 -2
      vertex 73.07011850283385 -3.9252765397989227 -2
      vertex 76.10096194567932 -1.9351335541090502 2
    endloop
  endfacet
  facet normal 0 0 1
    outer loop
      vertex 79.08314235633439 0.039461176677201726 -2
      vertex 73.89903805432068 1.4042660893481411 -2
      vertex 76.10096194567932 -1.9351335541090502 -2
    endloop
  endfacet
  facet normal 0 0 1
    outer loop
      vertex 76.9168576436656 3.4024586327278423 -2
      vertex 73.89903805432068 1.4042660893481411 -2
      vertex 79.08314235633439 0.039461176677201726 -2
    endloop
  endfacet
  facet normal 0.552079403332164 -0.8337915401444187 0
    outer loop
      vertex 76.9168576436656 3.4024586327278423 -2
      vertex 73.89903805432068 1.4042660893481411 2
      vertex 73.89903805432068 1.4042660893481411 -2
    endloop
  endfacet
  facet normal 0.552079403332164 -0.8337915401444187 0
    outer loop
      vertex 76.9168576436656 3.4024586327278423 2
      vertex 73.89903805432068 1.4042660893481411 2
      vertex 76.9168576436656 3.4024586327278423 -2
    endloop
  endfacet
  facet normal 0 0 -1
    outer loop
      vertex 76.9168576436656 3.4024586327278423 2
      vertex 79.08314235633439 0.039461176677201726 2
      vertex 73.89903805432068 1.4042660893481411 2
    endloop
  endfacet
  facet normal 0 0 -1
    outer loop
      vertex 79.08314235633439 0.039461176677201726 2
      vertex 76.10096194567932 -1.9351335541090502 2
      vertex 73.89903805432068 1.4042660893481411 2
    endloop
  endfacet
  facet normal -0.5520794033321641 0.8337915401444185 0
    outer loop
      vertex 79.08314235633439 0.039461176677201726 2
      vertex 76.10096194567932 -1.9351335541090502 -2
      vertex 76.10096194567932 -1.9351335541090502 2
    endloop
  endfacet
  facet normal -0.5520794033321641 0.8337915401444185 0
    outer loop
      vertex 79.08314235633439 0.039461176677201726 -2
      vertex 76.10096194567932 -1.9351335541090502 -2
      vertex 79.08314235633439 0.039461176677201726 2
    endloop
  endfacet
  facet normal 0 0 1
    outer loop
      vertex 82.01482880198827 1.8760578640991132 -2
      vertex 76.9168576436656 3.4024586327278423 -2
      vertex 79.08314235633439 0.039461176677201726 -2
    endloop
  endfacet
  facet normal 0 0 1
    outer loop
      vertex 79.98517119801173 5.324647316390768 -2
      vertex 76.9168576436656 3.4024586327278423 -2
      vertex 82.01482880198827 1.8760578640991132 -2
    endloop
  endfacet
  facet normal 0.5308909403724655 -0.8474401509430854 0
    outer loop
      vertex 79.98517119801173 5.324647316390768 -2
      vertex 76.9168576436656 3.4024586327278423 2
      vertex 76.9168576436656 3.4024586327278423 -2
    endloop
  endfacet
  facet normal 0.5308909403724655 -0.8474401509430854 0
    outer loop
      vertex 79.98517119801173 5.324647316390768 2
      vertex 76.9168576436656 3.4024586327278423 2
      vertex 79.98517119801173 5.324647316390768 -2
    endloop
  endfacet
  facet normal 0 0 -1
    outer loop
      vertex 79.98517119801173 5.324647316390768 2
      vertex 82.01482880198827 1.8760578640991132 2
      vertex 76.9168576436656 3.4024586327278423 2
    endloop
  endfacet
  facet normal 0 0 -1
    outer loop
      vertex 82.01482880198827 1.8760578640991132 2
      vertex 79.08314235633439 0.039461176677201726 2
      vertex 76.9168576436656 3.4024586327278423 2
    endloop
  endfacet
  facet normal -0.5308909403724644 0.8474401509430861 0
    outer loop
      vertex 82.01482880198827 1.8760578640991132 2
      vertex 79.08314235633439 0.039461176677201726 -2
      vertex 79.08314235633439 0.039461176677201726 2
    endloop
  endfacet
  facet normal -0.5308909403724644 0.8474401509430861 0
    outer loop
      vertex 82.01482880198827 1.8760578640991132 -2
      vertex 79.08314235633439 0.039461176677201726 -2
      vertex 82.01482880198827 1.8760578640991132 2
    endloop
  endfacet
  facet normal 0 0 1
    outer loop
      vertex 84.88982712291381 3.4626162953666735 -2
      vertex 79.98517119801173 5.324647316390768 -2
      vertex 82.01482880198827 1.8760578640991132 -2
    endloop
  endfacet
  facet normal 0 0 1
    outer loop
      vertex 83.11017287708619 7.049169284133954 -2
      vertex 79.98517119801173 5.324647316390768 -2
      vertex 84.88982712291381 3.4626162953666735 -2
    endloop
  endfacet
  facet normal 0.48315962851705635 -0.8755322800281324 0
    outer loop
      vertex 83.11017287708619 7.049169284133954 -2
      vertex 79.98517119801173 5.324647316390768 2
      vertex 79.98517119801173 5.324647316390768 -2
    endloop
  endfacet
  facet normal 0.48315962851705635 -0.8755322800281324 0
    outer loop
      vertex 83.11017287708619 7.049169284133954 2
      vertex 79.98517119801173 5.324647316390768 2
      vertex 83.11017287708619 7.049169284133954 -2
    endloop
  endfacet
  facet normal 0 0 -1
    outer loop
      vertex 83.11017287708619 7.049169284133954 2
      vertex 84.88982712291381 3.4626162953666735 2
      vertex 79.98517119801173 5.324647316390768 2
    endloop
  endfacet
  facet normal 0 0 -1
    outer loop
      vertex 84.88982712291381 3.4626162953666735 2
      vertex 82.01482880198827 1.8760578640991132 2
      vertex 79.98517119801173 5.324647316390768 2
    endloop
  endfacet
  facet normal -0.48315962851705596 0.8755322800281327 0
    outer loop
      vertex 84.88982712291381 3.4626162953666735 2
      vertex 82.01482880198827 1.8760578640991132 -2
      vertex 82.01482880198827 1.8760578640991132 2
    endloop
  endfacet
  facet normal -0.48315962851705596 0.8755322800281327 0
    outer loop
      vertex 84.88982712291381 3.4626162953666735 -2
      vertex 82.01482880198827 1.8760578640991132 -2
      vertex 84.88982712291381 3.4626162953666735 2
    endloop
  endfacet
  facet normal 0 0 1
    outer loop
      vertex 98.41815428397194 9.454556997714292 -2
      vertex 75.58184571602806 3.7147370664697954 -2
      vertex 84.88982712291381 3.4626162953666735 -2
    endloop
  endfacet
  facet normal 0 0 -1
    outer loop
      vertex 75.58184571602806 3.7147370664697954 -2
      vertex 83.11017287708619 7.049169284133954 -2
      vertex 84.88982712291381 3.4626162953666735 -2
    endloop
  endfacet
  facet normal -0.4049727393452958 0.9143287594662913 0
    outer loop
      vertex 75.58184571602806 3.7147370664697954 -2
      vertex 83.11017287708619 7.049169284133954 2
      vertex 83.11017287708619 7.049169284133954 -2
    endloop
  endfacet
  facet normal -0.4049727393452958 0.9143287594662913 0
    outer loop
      vertex 75.58184571602806 3.7147370664697954 2
      vertex 83.11017287708619 7.049169284133954 2
      vertex 75.58184571602806 3.7147370664697954 -2
    endloop
  endfacet
  facet normal 0 0 1
    outer loop
      vertex 75.58184571602806 3.7147370664697954 2
      vertex 84.88982712291381 3.4626162953666735 2
      vertex 83.11017287708619 7.049169284133954 2
    endloop
  endfacet
  facet normal 0 0 -1
    outer loop
      vertex 98.41815428397194 9.454556997714292 2
      vertex 84.88982712291381 3.4626162953666735 2
      vertex 75.58184571602806 3.7147370664697954 2
    endloop
  endfacet
  facet normal -0.40497273934529554 0.9143287594662913 0
    outer loop
      vertex 98.41815428397194 9.454556997714292 2
      vertex 84.88982712291381 3.4626162953666735 -2
      vertex 84.88982712291381 3.4626162953666735 2
    endloop
  endfacet
  facet normal -0.40497273934529554 0.9143287594662913 0
    outer loop
      vertex 98.41815428397194 9.454556997714292 -2
      vertex 84.88982712291381 3.4626162953666735 -2
      vertex 98.41815428397194 9.454556997714292 2
    endloop
  endfacet
endsolid PythonSCAD_Model
