solid PythonSCAD_Model
  facet normal 0.7071067811865476 -0.7071067811865476 0
    outer loop
      vertex -0.597000002861023 -2.184965670108795 0
      vertex -0.6837814748287201 -2.2717471420764923 10
      vertex -0.6837814748287201 -2.2717471420764923 0
    endloop
  endfacet
  facet normal 0.7071067811865476 -0.7071067811865476 0
    outer loop
      vertex -0.597000002861023 -2.184965670108795 0
      vertex -0.597000002861023 -2.184965670108795 10
      vertex -0.6837814748287201 -2.2717471420764923 10
    endloop
  endfacet
  facet normal 0.2588190495571829 -0.9659258250954452 0
    outer loop
      vertex 0 -2.024999998509884 0
      vertex -0.597000002861023 -2.184965670108795 10
      vertex -0.597000002861023 -2.184965670108795 0
    endloop
  endfacet
  facet normal 0.2588190495571829 -0.9659258250954452 0
    outer loop
      vertex 0 -2.024999998509884 0
      vertex 0 -2.024999998509884 10
      vertex -0.597000002861023 -2.184965670108795 10
    endloop
  endfacet
  facet normal -0.2588190495571829 -0.9659258250954452 0
    outer loop
      vertex 0.597000002861023 -2.184965670108795 0
      vertex 0 -2.024999998509884 10
      vertex 0 -2.024999998509884 0
    endloop
  endfacet
  facet normal -0.2588190495571829 -0.9659258250954452 0
    outer loop
      vertex 0.597000002861023 -2.184965670108795 0
      vertex 0.597000002861023 -2.184965670108795 10
      vertex 0 -2.024999998509884 10
    endloop
  endfacet
  facet normal -0.7071067811865476 -0.7071067811865476 0
    outer loop
      vertex 0.6837814748287201 -2.2717471420764923 0
      vertex 0.597000002861023 -2.184965670108795 10
      vertex 0.597000002861023 -2.184965670108795 0
    endloop
  endfacet
  facet normal -0.7071067811865476 -0.7071067811865476 0
    outer loop
      vertex 0.6837814748287201 -2.2717471420764923 0
      vertex 0.6837814748287201 -2.2717471420764923 10
      vertex 0.597000002861023 -2.184965670108795 10
    endloop
  endfacet
  facet normal -0.5000000055076762 -0.8660254006045802 0
    outer loop
      vertex 0.9490000009536743 -2.4248711317777634 0
      vertex 0.6837814748287201 -2.2717471420764923 10
      vertex 0.6837814748287201 -2.2717471420764923 0
    endloop
  endfacet
  facet normal -0.5000000055076762 -0.8660254006045802 0
    outer loop
      vertex 0.9490000009536743 -2.4248711317777634 0
      vertex 0.9490000009536743 -2.4248711317777634 10
      vertex 0.6837814748287201 -2.2717471420764923 10
    endloop
  endfacet
  facet normal 0 -1 0
    outer loop
      vertex 1.3999999985098839 -2.4248711317777634 0
      vertex 0.9490000009536743 -2.4248711317777634 10
      vertex 0.9490000009536743 -2.4248711317777634 0
    endloop
  endfacet
  facet normal 0 -1 0
    outer loop
      vertex 1.3999999985098839 -2.4248711317777634 0
      vertex 1.3999999985098839 -2.4248711317777634 10
      vertex 0.9490000009536743 -2.4248711317777634 10
    endloop
  endfacet
  facet normal 0.8660254017902157 -0.5000000034540956 0
    outer loop
      vertex 1.625500001013279 -2.0342936739325523 0
      vertex 1.3999999985098839 -2.4248711317777634 10
      vertex 1.3999999985098839 -2.4248711317777634 0
    endloop
  endfacet
  facet normal 0.8660254017902157 -0.5000000034540956 0
    outer loop
      vertex 1.625500001013279 -2.0342936739325523 0
      vertex 1.625500001013279 -2.0342936739325523 10
      vertex 1.3999999985098839 -2.4248711317777634 10
    endloop
  endfacet
  facet normal 1 0 0
    outer loop
      vertex 1.625500001013279 -1.7280456945300102 0
      vertex 1.625500001013279 -2.0342936739325523 10
      vertex 1.625500001013279 -2.0342936739325523 0
    endloop
  endfacet
  facet normal 1 0 0
    outer loop
      vertex 1.625500001013279 -1.7280456945300102 0
      vertex 1.625500001013279 -1.7280456945300102 10
      vertex 1.625500001013279 -2.0342936739325523 10
    endloop
  endfacet
  facet normal 0.9659258250160894 0.25881904985334264 0
    outer loop
      vertex 1.5937357768416405 -1.6094999983906746 0
      vertex 1.625500001013279 -1.7280456945300102 10
      vertex 1.625500001013279 -1.7280456945300102 0
    endloop
  endfacet
  facet normal 0.9659258250160894 0.25881904985334264 0
    outer loop
      vertex 1.5937357768416405 -1.6094999983906746 0
      vertex 1.5937357768416405 -1.6094999983906746 10
      vertex 1.625500001013279 -1.7280456945300102 10
    endloop
  endfacet
  facet normal 0.9659258273016245 -0.2588190413236098 0
    outer loop
      vertex 1.7537014409899712 -1.0125000029802322 0
      vertex 1.5937357768416405 -1.6094999983906746 10
      vertex 1.5937357768416405 -1.6094999983906746 0
    endloop
  endfacet
  facet normal 0.9659258273016245 -0.2588190413236098 0
    outer loop
      vertex 1.7537014409899712 -1.0125000029802322 0
      vertex 1.7537014409899712 -1.0125000029802322 10
      vertex 1.5937357768416405 -1.6094999983906746 10
    endloop
  endfacet
  facet normal 0.7071067872139413 -0.7071067751591538 0
    outer loop
      vertex 2.190735772252083 -0.57546566426754 0
      vertex 1.7537014409899712 -1.0125000029802322 10
      vertex 1.7537014409899712 -1.0125000029802322 0
    endloop
  endfacet
  facet normal 0.7071067872139413 -0.7071067751591538 0
    outer loop
      vertex 2.190735772252083 -0.57546566426754 0
      vertex 2.190735772252083 -0.57546566426754 10
      vertex 1.7537014409899712 -1.0125000029802322 10
    endloop
  endfacet
  facet normal 0.25881904985334264 -0.9659258250160894 0
    outer loop
      vertex 2.3092814683914185 -0.5437014400959015 0
      vertex 2.190735772252083 -0.57546566426754 10
      vertex 2.190735772252083 -0.57546566426754 0
    endloop
  endfacet
  facet normal 0.25881904985334264 -0.9659258250160894 0
    outer loop
      vertex 2.3092814683914185 -0.5437014400959015 0
      vertex 2.3092814683914185 -0.5437014400959015 10
      vertex 2.190735772252083 -0.57546566426754 10
    endloop
  endfacet
  facet normal 0.4999999767266486 -0.8660254172213139 0
    outer loop
      vertex 2.5745000019669533 -0.39057745784521103 0
      vertex 2.3092814683914185 -0.5437014400959015 10
      vertex 2.3092814683914185 -0.5437014400959015 0
    endloop
  endfacet
  facet normal 0.4999999767266486 -0.8660254172213139 0
    outer loop
      vertex 2.5745000019669533 -0.39057745784521103 0
      vertex 2.5745000019669533 -0.39057745784521103 10
      vertex 2.3092814683914185 -0.5437014400959015 10
    endloop
  endfacet
  facet normal 0.8660254089436435 -0.4999999910639946 0
    outer loop
      vertex 2.7999999970197678 0 0
      vertex 2.5745000019669533 -0.39057745784521103 10
      vertex 2.5745000019669533 -0.39057745784521103 0
    endloop
  endfacet
  facet normal 0.8660254089436435 -0.4999999910639946 0
    outer loop
      vertex 2.7999999970197678 0 0
      vertex 2.7999999970197678 0 10
      vertex 2.5745000019669533 -0.39057745784521103 10
    endloop
  endfacet
  facet normal 0.8660254089436435 0.4999999910639946 0
    outer loop
      vertex 2.5745000019669533 0.39057745784521103 0
      vertex 2.7999999970197678 0 10
      vertex 2.7999999970197678 0 0
    endloop
  endfacet
  facet normal 0.8660254089436435 0.4999999910639946 0
    outer loop
      vertex 2.5745000019669533 0.39057745784521103 0
      vertex 2.5745000019669533 0.39057745784521103 10
      vertex 2.7999999970197678 0 10
    endloop
  endfacet
  facet normal 0.4999999767266486 0.8660254172213139 0
    outer loop
      vertex 2.3092814683914185 0.5437014400959015 0
      vertex 2.5745000019669533 0.39057745784521103 10
      vertex 2.5745000019669533 0.39057745784521103 0
    endloop
  endfacet
  facet normal 0.4999999767266486 0.8660254172213139 0
    outer loop
      vertex 2.3092814683914185 0.5437014400959015 0
      vertex 2.3092814683914185 0.5437014400959015 10
      vertex 2.5745000019669533 0.39057745784521103 10
    endloop
  endfacet
  facet normal 0.25881904985334264 0.9659258250160894 0
    outer loop
      vertex 2.190735772252083 0.57546566426754 0
      vertex 2.3092814683914185 0.5437014400959015 10
      vertex 2.3092814683914185 0.5437014400959015 0
    endloop
  endfacet
  facet normal 0.25881904985334264 0.9659258250160894 0
    outer loop
      vertex 2.190735772252083 0.57546566426754 0
      vertex 2.190735772252083 0.57546566426754 10
      vertex 2.3092814683914185 0.5437014400959015 10
    endloop
  endfacet
  facet normal 0.7071067872139413 0.7071067751591538 0
    outer loop
      vertex 1.7537014409899712 1.0125000029802322 0
      vertex 2.190735772252083 0.57546566426754 10
      vertex 2.190735772252083 0.57546566426754 0
    endloop
  endfacet
  facet normal 0.7071067872139413 0.7071067751591538 0
    outer loop
      vertex 1.7537014409899712 1.0125000029802322 0
      vertex 1.7537014409899712 1.0125000029802322 10
      vertex 2.190735772252083 0.57546566426754 10
    endloop
  endfacet
  facet normal 0.9659258273016245 0.2588190413236098 0
    outer loop
      vertex 1.5937357768416405 1.6094999983906746 0
      vertex 1.7537014409899712 1.0125000029802322 10
      vertex 1.7537014409899712 1.0125000029802322 0
    endloop
  endfacet
  facet normal 0.9659258273016245 0.2588190413236098 0
    outer loop
      vertex 1.5937357768416405 1.6094999983906746 0
      vertex 1.5937357768416405 1.6094999983906746 10
      vertex 1.7537014409899712 1.0125000029802322 10
    endloop
  endfacet
  facet normal 0.9659258250160894 -0.25881904985334264 0
    outer loop
      vertex 1.625500001013279 1.7280456945300102 0
      vertex 1.5937357768416405 1.6094999983906746 10
      vertex 1.5937357768416405 1.6094999983906746 0
    endloop
  endfacet
  facet normal 0.9659258250160894 -0.25881904985334264 0
    outer loop
      vertex 1.625500001013279 1.7280456945300102 0
      vertex 1.625500001013279 1.7280456945300102 10
      vertex 1.5937357768416405 1.6094999983906746 10
    endloop
  endfacet
  facet normal 1 0 0
    outer loop
      vertex 1.625500001013279 2.0342936739325523 0
      vertex 1.625500001013279 1.7280456945300102 10
      vertex 1.625500001013279 1.7280456945300102 0
    endloop
  endfacet
  facet normal 1 0 0
    outer loop
      vertex 1.625500001013279 2.0342936739325523 0
      vertex 1.625500001013279 2.0342936739325523 10
      vertex 1.625500001013279 1.7280456945300102 10
    endloop
  endfacet
  facet normal 0.8660254017902157 0.5000000034540956 0
    outer loop
      vertex 1.3999999985098839 2.4248711317777634 0
      vertex 1.625500001013279 2.0342936739325523 10
      vertex 1.625500001013279 2.0342936739325523 0
    endloop
  endfacet
  facet normal 0.8660254017902157 0.5000000034540956 0
    outer loop
      vertex 1.3999999985098839 2.4248711317777634 0
      vertex 1.3999999985098839 2.4248711317777634 10
      vertex 1.625500001013279 2.0342936739325523 10
    endloop
  endfacet
  facet normal 0 1 0
    outer loop
      vertex 0.9490000009536743 2.4248711317777634 0
      vertex 1.3999999985098839 2.4248711317777634 10
      vertex 1.3999999985098839 2.4248711317777634 0
    endloop
  endfacet
  facet normal 0 1 0
    outer loop
      vertex 0.9490000009536743 2.4248711317777634 0
      vertex 0.9490000009536743 2.4248711317777634 10
      vertex 1.3999999985098839 2.4248711317777634 10
    endloop
  endfacet
  facet normal -0.5000000055076762 0.8660254006045802 0
    outer loop
      vertex 0.6837814748287201 2.2717471420764923 0
      vertex 0.9490000009536743 2.4248711317777634 10
      vertex 0.9490000009536743 2.4248711317777634 0
    endloop
  endfacet
  facet normal -0.5000000055076762 0.8660254006045802 0
    outer loop
      vertex 0.6837814748287201 2.2717471420764923 0
      vertex 0.6837814748287201 2.2717471420764923 10
      vertex 0.9490000009536743 2.4248711317777634 10
    endloop
  endfacet
  facet normal -0.7071067811865476 0.7071067811865476 0
    outer loop
      vertex 0.597000002861023 2.184965670108795 0
      vertex 0.6837814748287201 2.2717471420764923 10
      vertex 0.6837814748287201 2.2717471420764923 0
    endloop
  endfacet
  facet normal -0.7071067811865476 0.7071067811865476 0
    outer loop
      vertex 0.597000002861023 2.184965670108795 0
      vertex 0.597000002861023 2.184965670108795 10
      vertex 0.6837814748287201 2.2717471420764923 10
    endloop
  endfacet
  facet normal -0.2588190495571829 0.9659258250954452 0
    outer loop
      vertex 0 2.024999998509884 0
      vertex 0.597000002861023 2.184965670108795 10
      vertex 0.597000002861023 2.184965670108795 0
    endloop
  endfacet
  facet normal -0.2588190495571829 0.9659258250954452 0
    outer loop
      vertex 0 2.024999998509884 0
      vertex 0 2.024999998509884 10
      vertex 0.597000002861023 2.184965670108795 10
    endloop
  endfacet
  facet normal 0.2588190495571829 0.9659258250954452 0
    outer loop
      vertex -0.597000002861023 2.184965670108795 0
      vertex 0 2.024999998509884 10
      vertex 0 2.024999998509884 0
    endloop
  endfacet
  facet normal 0.2588190495571829 0.9659258250954452 0
    outer loop
      vertex -0.597000002861023 2.184965670108795 0
      vertex -0.597000002861023 2.184965670108795 10
      vertex 0 2.024999998509884 10
    endloop
  endfacet
  facet normal 0.7071067811865476 0.7071067811865476 0
    outer loop
      vertex -0.6837814748287201 2.2717471420764923 0
      vertex -0.597000002861023 2.184965670108795 10
      vertex -0.597000002861023 2.184965670108795 0
    endloop
  endfacet
  facet normal 0.7071067811865476 0.7071067811865476 0
    outer loop
      vertex -0.6837814748287201 2.2717471420764923 0
      vertex -0.6837814748287201 2.2717471420764923 10
      vertex -0.597000002861023 2.184965670108795 10
    endloop
  endfacet
  facet normal 0.5000000055076762 0.8660254006045802 0
    outer loop
      vertex -0.9490000009536743 2.4248711317777634 0
      vertex -0.6837814748287201 2.2717471420764923 10
      vertex -0.6837814748287201 2.2717471420764923 0
    endloop
  endfacet
  facet normal 0.5000000055076762 0.8660254006045802 0
    outer loop
      vertex -0.9490000009536743 2.4248711317777634 0
      vertex -0.9490000009536743 2.4248711317777634 10
      vertex -0.6837814748287201 2.2717471420764923 10
    endloop
  endfacet
  facet normal 0 1 0
    outer loop
      vertex -1.3999999985098839 2.4248711317777634 0
      vertex -0.9490000009536743 2.4248711317777634 10
      vertex -0.9490000009536743 2.4248711317777634 0
    endloop
  endfacet
  facet normal 0 1 0
    outer loop
      vertex -1.3999999985098839 2.4248711317777634 0
      vertex -1.3999999985098839 2.4248711317777634 10
      vertex -0.9490000009536743 2.4248711317777634 10
    endloop
  endfacet
  facet normal -0.8660254017902157 0.5000000034540956 0
    outer loop
      vertex -1.625500001013279 2.0342936739325523 0
      vertex -1.3999999985098839 2.4248711317777634 10
      vertex -1.3999999985098839 2.4248711317777634 0
    endloop
  endfacet
  facet normal -0.8660254017902157 0.5000000034540956 0
    outer loop
      vertex -1.625500001013279 2.0342936739325523 0
      vertex -1.625500001013279 2.0342936739325523 10
      vertex -1.3999999985098839 2.4248711317777634 10
    endloop
  endfacet
  facet normal -1 0 0
    outer loop
      vertex -1.625500001013279 1.7280456945300102 0
      vertex -1.625500001013279 2.0342936739325523 10
      vertex -1.625500001013279 2.0342936739325523 0
    endloop
  endfacet
  facet normal -1 0 0
    outer loop
      vertex -1.625500001013279 1.7280456945300102 0
      vertex -1.625500001013279 1.7280456945300102 10
      vertex -1.625500001013279 2.0342936739325523 10
    endloop
  endfacet
  facet normal -0.9659258250160894 -0.25881904985334264 0
    outer loop
      vertex -1.5937357768416405 1.6094999983906746 0
      vertex -1.625500001013279 1.7280456945300102 10
      vertex -1.625500001013279 1.7280456945300102 0
    endloop
  endfacet
  facet normal -0.9659258250160894 -0.25881904985334264 0
    outer loop
      vertex -1.5937357768416405 1.6094999983906746 0
      vertex -1.5937357768416405 1.6094999983906746 10
      vertex -1.625500001013279 1.7280456945300102 10
    endloop
  endfacet
  facet normal -0.9659258273016245 0.2588190413236098 0
    outer loop
      vertex -1.7537014409899712 1.0125000029802322 0
      vertex -1.5937357768416405 1.6094999983906746 10
      vertex -1.5937357768416405 1.6094999983906746 0
    endloop
  endfacet
  facet normal -0.9659258273016245 0.2588190413236098 0
    outer loop
      vertex -1.7537014409899712 1.0125000029802322 0
      vertex -1.7537014409899712 1.0125000029802322 10
      vertex -1.5937357768416405 1.6094999983906746 10
    endloop
  endfacet
  facet normal -0.7071067872139413 0.7071067751591538 0
    outer loop
      vertex -2.190735772252083 0.57546566426754 0
      vertex -1.7537014409899712 1.0125000029802322 10
      vertex -1.7537014409899712 1.0125000029802322 0
    endloop
  endfacet
  facet normal -0.7071067872139413 0.7071067751591538 0
    outer loop
      vertex -2.190735772252083 0.57546566426754 0
      vertex -2.190735772252083 0.57546566426754 10
      vertex -1.7537014409899712 1.0125000029802322 10
    endloop
  endfacet
  facet normal -0.25881904985334264 0.9659258250160894 0
    outer loop
      vertex -2.3092814683914185 0.5437014400959015 0
      vertex -2.190735772252083 0.57546566426754 10
      vertex -2.190735772252083 0.57546566426754 0
    endloop
  endfacet
  facet normal -0.25881904985334264 0.9659258250160894 0
    outer loop
      vertex -2.3092814683914185 0.5437014400959015 0
      vertex -2.3092814683914185 0.5437014400959015 10
      vertex -2.190735772252083 0.57546566426754 10
    endloop
  endfacet
  facet normal -0.4999999767266486 0.8660254172213139 0
    outer loop
      vertex -2.5745000019669533 0.39057745784521103 0
      vertex -2.3092814683914185 0.5437014400959015 10
      vertex -2.3092814683914185 0.5437014400959015 0
    endloop
  endfacet
  facet normal -0.4999999767266486 0.8660254172213139 0
    outer loop
      vertex -2.5745000019669533 0.39057745784521103 0
      vertex -2.5745000019669533 0.39057745784521103 10
      vertex -2.3092814683914185 0.5437014400959015 10
    endloop
  endfacet
  facet normal -0.8660254089436435 0.4999999910639946 0
    outer loop
      vertex -2.7999999970197678 0 0
      vertex -2.5745000019669533 0.39057745784521103 10
      vertex -2.5745000019669533 0.39057745784521103 0
    endloop
  endfacet
  facet normal -0.8660254089436435 0.4999999910639946 0
    outer loop
      vertex -2.7999999970197678 0 0
      vertex -2.7999999970197678 0 10
      vertex -2.5745000019669533 0.39057745784521103 10
    endloop
  endfacet
  facet normal -0.8660254089436435 -0.4999999910639946 0
    outer loop
      vertex -2.5745000019669533 -0.39057745784521103 0
      vertex -2.7999999970197678 0 10
      vertex -2.7999999970197678 0 0
    endloop
  endfacet
  facet normal -0.8660254089436435 -0.4999999910639946 0
    outer loop
      vertex -2.5745000019669533 -0.39057745784521103 0
      vertex -2.5745000019669533 -0.39057745784521103 10
      vertex -2.7999999970197678 0 10
    endloop
  endfacet
  facet normal -0.4999999767266486 -0.8660254172213139 0
    outer loop
      vertex -2.3092814683914185 -0.5437014400959015 0
      vertex -2.5745000019669533 -0.39057745784521103 10
      vertex -2.5745000019669533 -0.39057745784521103 0
    endloop
  endfacet
  facet normal -0.4999999767266486 -0.8660254172213139 0
    outer loop
      vertex -2.3092814683914185 -0.5437014400959015 0
      vertex -2.3092814683914185 -0.5437014400959015 10
      vertex -2.5745000019669533 -0.39057745784521103 10
    endloop
  endfacet
  facet normal -0.25881904985334264 -0.9659258250160894 0
    outer loop
      vertex -2.190735772252083 -0.57546566426754 0
      vertex -2.3092814683914185 -0.5437014400959015 10
      vertex -2.3092814683914185 -0.5437014400959015 0
    endloop
  endfacet
  facet normal -0.25881904985334264 -0.9659258250160894 0
    outer loop
      vertex -2.190735772252083 -0.57546566426754 0
      vertex -2.190735772252083 -0.57546566426754 10
      vertex -2.3092814683914185 -0.5437014400959015 10
    endloop
  endfacet
  facet normal -0.7071067872139413 -0.7071067751591538 0
    outer loop
      vertex -1.7537014409899712 -1.0125000029802322 0
      vertex -2.190735772252083 -0.57546566426754 10
      vertex -2.190735772252083 -0.57546566426754 0
    endloop
  endfacet
  facet normal -0.7071067872139413 -0.7071067751591538 0
    outer loop
      vertex -1.7537014409899712 -1.0125000029802322 0
      vertex -1.7537014409899712 -1.0125000029802322 10
      vertex -2.190735772252083 -0.57546566426754 10
    endloop
  endfacet
  facet normal -0.9659258273016245 -0.2588190413236098 0
    outer loop
      vertex -1.5937357768416405 -1.6094999983906746 0
      vertex -1.7537014409899712 -1.0125000029802322 10
      vertex -1.7537014409899712 -1.0125000029802322 0
    endloop
  endfacet
  facet normal -0.9659258273016245 -0.2588190413236098 0
    outer loop
      vertex -1.5937357768416405 -1.6094999983906746 0
      vertex -1.5937357768416405 -1.6094999983906746 10
      vertex -1.7537014409899712 -1.0125000029802322 10
    endloop
  endfacet
  facet normal -0.9659258250160894 0.25881904985334264 0
    outer loop
      vertex -1.625500001013279 -1.7280456945300102 0
      vertex -1.5937357768416405 -1.6094999983906746 10
      vertex -1.5937357768416405 -1.6094999983906746 0
    endloop
  endfacet
  facet normal -0.9659258250160894 0.25881904985334264 0
    outer loop
      vertex -1.625500001013279 -1.7280456945300102 0
      vertex -1.625500001013279 -1.7280456945300102 10
      vertex -1.5937357768416405 -1.6094999983906746 10
    endloop
  endfacet
  facet normal -1 0 0
    outer loop
      vertex -1.625500001013279 -2.0342936739325523 0
      vertex -1.625500001013279 -1.7280456945300102 10
      vertex -1.625500001013279 -1.7280456945300102 0
    endloop
  endfacet
  facet normal -1 0 0
    outer loop
      vertex -1.625500001013279 -2.0342936739325523 0
      vertex -1.625500001013279 -2.0342936739325523 10
      vertex -1.625500001013279 -1.7280456945300102 10
    endloop
  endfacet
  facet normal -0.8660254017902157 -0.5000000034540956 0
    outer loop
      vertex -1.3999999985098839 -2.4248711317777634 0
      vertex -1.625500001013279 -2.0342936739325523 10
      vertex -1.625500001013279 -2.0342936739325523 0
    endloop
  endfacet
  facet normal -0.8660254017902157 -0.5000000034540956 0
    outer loop
      vertex -1.3999999985098839 -2.4248711317777634 0
      vertex -1.3999999985098839 -2.4248711317777634 10
      vertex -1.625500001013279 -2.0342936739325523 10
    endloop
  endfacet
  facet normal 0 -1 0
    outer loop
      vertex -0.9490000009536743 -2.4248711317777634 0
      vertex -1.3999999985098839 -2.4248711317777634 10
      vertex -1.3999999985098839 -2.4248711317777634 0
    endloop
  endfacet
  facet normal 0 -1 0
    outer loop
      vertex -0.9490000009536743 -2.4248711317777634 0
      vertex -0.9490000009536743 -2.4248711317777634 10
      vertex -1.3999999985098839 -2.4248711317777634 10
    endloop
  endfacet
  facet normal 0.5000000055076762 -0.8660254006045802 0
    outer loop
      vertex -0.6837814748287201 -2.2717471420764923 0
      vertex -0.9490000009536743 -2.4248711317777634 10
      vertex -0.9490000009536743 -2.4248711317777634 0
    endloop
  endfacet
  facet normal 0.5000000055076762 -0.8660254006045802 0
    outer loop
      vertex -0.6837814748287201 -2.2717471420764923 0
      vertex -0.6837814748287201 -2.2717471420764923 10
      vertex -0.9490000009536743 -2.4248711317777634 10
    endloop
  endfacet
  facet normal 0 0 -1
    outer loop
      vertex 0.9490000009536743 2.4248711317777634 0
      vertex 1.3999999985098839 2.4248711317777634 0
      vertex 1.625500001013279 2.0342936739325523 0
    endloop
  endfacet
  facet normal 0 0 -1
    outer loop
      vertex 0.6837814748287201 2.2717471420764923 0
      vertex 0.9490000009536743 2.4248711317777634 0
      vertex 1.625500001013279 2.0342936739325523 0
    endloop
  endfacet
  facet normal 0 0 -1
    outer loop
      vertex 0.6837814748287201 2.2717471420764923 0
      vertex 1.625500001013279 2.0342936739325523 0
      vertex 1.625500001013279 1.7280456945300102 0
    endloop
  endfacet
  facet normal 0 0 -1
    outer loop
      vertex 0.6837814748287201 2.2717471420764923 0
      vertex 1.625500001013279 1.7280456945300102 0
      vertex 1.5937357768416405 1.6094999983906746 0
    endloop
  endfacet
  facet normal 0 0 -1
    outer loop
      vertex 0.597000002861023 2.184965670108795 0
      vertex 0.6837814748287201 2.2717471420764923 0
      vertex 1.5937357768416405 1.6094999983906746 0
    endloop
  endfacet
  facet normal 0 0 -1
    outer loop
      vertex -1.625500001013279 2.0342936739325523 0
      vertex -1.3999999985098839 2.4248711317777634 0
      vertex -0.9490000009536743 2.4248711317777634 0
    endloop
  endfacet
  facet normal 0 0 -1
    outer loop
      vertex -1.625500001013279 2.0342936739325523 0
      vertex -0.9490000009536743 2.4248711317777634 0
      vertex -0.6837814748287201 2.2717471420764923 0
    endloop
  endfacet
  facet normal 0 0 -1
    outer loop
      vertex -1.625500001013279 1.7280456945300102 0
      vertex -1.625500001013279 2.0342936739325523 0
      vertex -0.6837814748287201 2.2717471420764923 0
    endloop
  endfacet
  facet normal 0 0 -1
    outer loop
      vertex -1.5937357768416405 1.6094999983906746 0
      vertex -1.625500001013279 1.7280456945300102 0
      vertex -0.6837814748287201 2.2717471420764923 0
    endloop
  endfacet
  facet normal 0 0 -1
    outer loop
      vertex -1.5937357768416405 1.6094999983906746 0
      vertex -0.6837814748287201 2.2717471420764923 0
      vertex -0.597000002861023 2.184965670108795 0
    endloop
  endfacet
  facet normal 0 0 -1
    outer loop
      vertex -0.9490000009536743 -2.4248711317777634 0
      vertex -1.3999999985098839 -2.4248711317777634 0
      vertex -1.625500001013279 -2.0342936739325523 0
    endloop
  endfacet
  facet normal 0 0 -1
    outer loop
      vertex -0.6837814748287201 -2.2717471420764923 0
      vertex -0.9490000009536743 -2.4248711317777634 0
      vertex -1.625500001013279 -2.0342936739325523 0
    endloop
  endfacet
  facet normal 0 0 -1
    outer loop
      vertex -0.6837814748287201 -2.2717471420764923 0
      vertex -1.625500001013279 -2.0342936739325523 0
      vertex -1.625500001013279 -1.7280456945300102 0
    endloop
  endfacet
  facet normal 0 0 -1
    outer loop
      vertex -0.6837814748287201 -2.2717471420764923 0
      vertex -1.625500001013279 -1.7280456945300102 0
      vertex -1.5937357768416405 -1.6094999983906746 0
    endloop
  endfacet
  facet normal 0 0 -1
    outer loop
      vertex -0.597000002861023 -2.184965670108795 0
      vertex -0.6837814748287201 -2.2717471420764923 0
      vertex -1.5937357768416405 -1.6094999983906746 0
    endloop
  endfacet
  facet normal 0 0 -1
    outer loop
      vertex 1.625500001013279 -2.0342936739325523 0
      vertex 1.3999999985098839 -2.4248711317777634 0
      vertex 0.9490000009536743 -2.4248711317777634 0
    endloop
  endfacet
  facet normal 0 0 -1
    outer loop
      vertex 1.625500001013279 -2.0342936739325523 0
      vertex 0.9490000009536743 -2.4248711317777634 0
      vertex 0.6837814748287201 -2.2717471420764923 0
    endloop
  endfacet
  facet normal 0 0 -1
    outer loop
      vertex 1.625500001013279 -1.7280456945300102 0
      vertex 1.625500001013279 -2.0342936739325523 0
      vertex 0.6837814748287201 -2.2717471420764923 0
    endloop
  endfacet
  facet normal 0 0 -1
    outer loop
      vertex 1.5937357768416405 -1.6094999983906746 0
      vertex 1.625500001013279 -1.7280456945300102 0
      vertex 0.6837814748287201 -2.2717471420764923 0
    endloop
  endfacet
  facet normal 0 0 -1
    outer loop
      vertex 1.5937357768416405 -1.6094999983906746 0
      vertex 0.6837814748287201 -2.2717471420764923 0
      vertex 0.597000002861023 -2.184965670108795 0
    endloop
  endfacet
  facet normal 0 0 -1
    outer loop
      vertex 2.5745000019669533 0.39057745784521103 0
      vertex 2.7999999970197678 0 0
      vertex 2.5745000019669533 -0.39057745784521103 0
    endloop
  endfacet
  facet normal 0 0 -1
    outer loop
      vertex 2.5745000019669533 0.39057745784521103 0
      vertex 2.5745000019669533 -0.39057745784521103 0
      vertex 2.3092814683914185 -0.5437014400959015 0
    endloop
  endfacet
  facet normal 0 0 -1
    outer loop
      vertex 2.3092814683914185 0.5437014400959015 0
      vertex 2.5745000019669533 0.39057745784521103 0
      vertex 2.3092814683914185 -0.5437014400959015 0
    endloop
  endfacet
  facet normal 0 0 -1
    outer loop
      vertex 2.3092814683914185 0.5437014400959015 0
      vertex 2.3092814683914185 -0.5437014400959015 0
      vertex 2.190735772252083 -0.57546566426754 0
    endloop
  endfacet
  facet normal 0 0 -1
    outer loop
      vertex 2.190735772252083 0.57546566426754 0
      vertex 2.3092814683914185 0.5437014400959015 0
      vertex 2.190735772252083 -0.57546566426754 0
    endloop
  endfacet
  facet normal 0 0 -1
    outer loop
      vertex -2.5745000019669533 -0.39057745784521103 0
      vertex -2.7999999970197678 0 0
      vertex -2.5745000019669533 0.39057745784521103 0
    endloop
  endfacet
  facet normal 0 0 -1
    outer loop
      vertex -2.5745000019669533 -0.39057745784521103 0
      vertex -2.5745000019669533 0.39057745784521103 0
      vertex -2.3092814683914185 0.5437014400959015 0
    endloop
  endfacet
  facet normal 0 0 -1
    outer loop
      vertex -2.3092814683914185 -0.5437014400959015 0
      vertex -2.5745000019669533 -0.39057745784521103 0
      vertex -2.3092814683914185 0.5437014400959015 0
    endloop
  endfacet
  facet normal 0 0 -1
    outer loop
      vertex -2.3092814683914185 -0.5437014400959015 0
      vertex -2.3092814683914185 0.5437014400959015 0
      vertex -2.190735772252083 0.57546566426754 0
    endloop
  endfacet
  facet normal 0 0 -1
    outer loop
      vertex -2.190735772252083 -0.57546566426754 0
      vertex -2.3092814683914185 -0.5437014400959015 0
      vertex -2.190735772252083 0.57546566426754 0
    endloop
  endfacet
  facet normal 0 0 -1
    outer loop
      vertex 0 2.024999998509884 0
      vertex 0.597000002861023 2.184965670108795 0
      vertex 1.5937357768416405 1.6094999983906746 0
    endloop
  endfacet
  facet normal 0 0 -1
    outer loop
      vertex 0 2.024999998509884 0
      vertex 1.5937357768416405 1.6094999983906746 0
      vertex 1.7537014409899712 1.0125000029802322 0
    endloop
  endfacet
  facet normal 0 0 -1
    outer loop
      vertex -1.5937357768416405 1.6094999983906746 0
      vertex -0.597000002861023 2.184965670108795 0
      vertex 0 2.024999998509884 0
    endloop
  endfacet
  facet normal 0 0 -1
    outer loop
      vertex -1.7537014409899712 1.0125000029802322 0
      vertex -1.5937357768416405 1.6094999983906746 0
      vertex 0 2.024999998509884 0
    endloop
  endfacet
  facet normal 0 0 -1
    outer loop
      vertex -1.7537014409899712 1.0125000029802322 0
      vertex 0 2.024999998509884 0
      vertex 1.7537014409899712 1.0125000029802322 0
    endloop
  endfacet
  facet normal 0 0 -1
    outer loop
      vertex -1.7537014409899712 1.0125000029802322 0
      vertex 1.7537014409899712 1.0125000029802322 0
      vertex 2.190735772252083 0.57546566426754 0
    endloop
  endfacet
  facet normal 0 0 -1
    outer loop
      vertex -1.7537014409899712 1.0125000029802322 0
      vertex 2.190735772252083 0.57546566426754 0
      vertex 2.190735772252083 -0.57546566426754 0
    endloop
  endfacet
  facet normal 0 0 -1
    outer loop
      vertex -1.7537014409899712 1.0125000029802322 0
      vertex 2.190735772252083 -0.57546566426754 0
      vertex 1.7537014409899712 -1.0125000029802322 0
    endloop
  endfacet
  facet normal 0 0 -1
    outer loop
      vertex -2.190735772252083 0.57546566426754 0
      vertex -1.7537014409899712 1.0125000029802322 0
      vertex 1.7537014409899712 -1.0125000029802322 0
    endloop
  endfacet
  facet normal 0 0 -1
    outer loop
      vertex -2.190735772252083 0.57546566426754 0
      vertex 1.7537014409899712 -1.0125000029802322 0
      vertex 1.5937357768416405 -1.6094999983906746 0
    endloop
  endfacet
  facet normal 0 0 -1
    outer loop
      vertex 0 -2.024999998509884 0
      vertex -0.597000002861023 -2.184965670108795 0
      vertex -1.5937357768416405 -1.6094999983906746 0
    endloop
  endfacet
  facet normal 0 0 -1
    outer loop
      vertex 0 -2.024999998509884 0
      vertex -1.5937357768416405 -1.6094999983906746 0
      vertex -1.7537014409899712 -1.0125000029802322 0
    endloop
  endfacet
  facet normal 0 0 -1
    outer loop
      vertex 1.5937357768416405 -1.6094999983906746 0
      vertex 0.597000002861023 -2.184965670108795 0
      vertex 0 -2.024999998509884 0
    endloop
  endfacet
  facet normal 0 0 -1
    outer loop
      vertex -1.7537014409899712 -1.0125000029802322 0
      vertex -2.190735772252083 -0.57546566426754 0
      vertex -2.190735772252083 0.57546566426754 0
    endloop
  endfacet
  facet normal 0 0 -1
    outer loop
      vertex 0 -2.024999998509884 0
      vertex -1.7537014409899712 -1.0125000029802322 0
      vertex -2.190735772252083 0.57546566426754 0
    endloop
  endfacet
  facet normal 0 0 -1
    outer loop
      vertex 0 -2.024999998509884 0
      vertex -2.190735772252083 0.57546566426754 0
      vertex 1.5937357768416405 -1.6094999983906746 0
    endloop
  endfacet
  facet normal 0 0 1
    outer loop
      vertex 1.625500001013279 2.0342936739325523 10
      vertex 1.3999999985098839 2.4248711317777634 10
      vertex 0.9490000009536743 2.4248711317777634 10
    endloop
  endfacet
  facet normal 0 0 1
    outer loop
      vertex 1.625500001013279 2.0342936739325523 10
      vertex 0.9490000009536743 2.4248711317777634 10
      vertex 0.6837814748287201 2.2717471420764923 10
    endloop
  endfacet
  facet normal 0 0 1
    outer loop
      vertex 1.625500001013279 1.7280456945300102 10
      vertex 1.625500001013279 2.0342936739325523 10
      vertex 0.6837814748287201 2.2717471420764923 10
    endloop
  endfacet
  facet normal 0 0 1
    outer loop
      vertex 1.5937357768416405 1.6094999983906746 10
      vertex 1.625500001013279 1.7280456945300102 10
      vertex 0.6837814748287201 2.2717471420764923 10
    endloop
  endfacet
  facet normal 0 0 1
    outer loop
      vertex 1.5937357768416405 1.6094999983906746 10
      vertex 0.6837814748287201 2.2717471420764923 10
      vertex 0.597000002861023 2.184965670108795 10
    endloop
  endfacet
  facet normal 0 0 1
    outer loop
      vertex -0.9490000009536743 2.4248711317777634 10
      vertex -1.3999999985098839 2.4248711317777634 10
      vertex -1.625500001013279 2.0342936739325523 10
    endloop
  endfacet
  facet normal 0 0 1
    outer loop
      vertex -0.6837814748287201 2.2717471420764923 10
      vertex -0.9490000009536743 2.4248711317777634 10
      vertex -1.625500001013279 2.0342936739325523 10
    endloop
  endfacet
  facet normal 0 0 1
    outer loop
      vertex -0.6837814748287201 2.2717471420764923 10
      vertex -1.625500001013279 2.0342936739325523 10
      vertex -1.625500001013279 1.7280456945300102 10
    endloop
  endfacet
  facet normal 0 0 1
    outer loop
      vertex -0.6837814748287201 2.2717471420764923 10
      vertex -1.625500001013279 1.7280456945300102 10
      vertex -1.5937357768416405 1.6094999983906746 10
    endloop
  endfacet
  facet normal 0 0 1
    outer loop
      vertex -0.597000002861023 2.184965670108795 10
      vertex -0.6837814748287201 2.2717471420764923 10
      vertex -1.5937357768416405 1.6094999983906746 10
    endloop
  endfacet
  facet normal 0 0 1
    outer loop
      vertex -1.625500001013279 -2.0342936739325523 10
      vertex -1.3999999985098839 -2.4248711317777634 10
      vertex -0.9490000009536743 -2.4248711317777634 10
    endloop
  endfacet
  facet normal 0 0 1
    outer loop
      vertex -1.625500001013279 -2.0342936739325523 10
      vertex -0.9490000009536743 -2.4248711317777634 10
      vertex -0.6837814748287201 -2.2717471420764923 10
    endloop
  endfacet
  facet normal 0 0 1
    outer loop
      vertex -1.625500001013279 -1.7280456945300102 10
      vertex -1.625500001013279 -2.0342936739325523 10
      vertex -0.6837814748287201 -2.2717471420764923 10
    endloop
  endfacet
  facet normal 0 0 1
    outer loop
      vertex -1.5937357768416405 -1.6094999983906746 10
      vertex -1.625500001013279 -1.7280456945300102 10
      vertex -0.6837814748287201 -2.2717471420764923 10
    endloop
  endfacet
  facet normal 0 0 1
    outer loop
      vertex -1.5937357768416405 -1.6094999983906746 10
      vertex -0.6837814748287201 -2.2717471420764923 10
      vertex -0.597000002861023 -2.184965670108795 10
    endloop
  endfacet
  facet normal 0 0 1
    outer loop
      vertex 0.9490000009536743 -2.4248711317777634 10
      vertex 1.3999999985098839 -2.4248711317777634 10
      vertex 1.625500001013279 -2.0342936739325523 10
    endloop
  endfacet
  facet normal 0 0 1
    outer loop
      vertex 0.6837814748287201 -2.2717471420764923 10
      vertex 0.9490000009536743 -2.4248711317777634 10
      vertex 1.625500001013279 -2.0342936739325523 10
    endloop
  endfacet
  facet normal 0 0 1
    outer loop
      vertex 0.6837814748287201 -2.2717471420764923 10
      vertex 1.625500001013279 -2.0342936739325523 10
      vertex 1.625500001013279 -1.7280456945300102 10
    endloop
  endfacet
  facet normal 0 0 1
    outer loop
      vertex 0.6837814748287201 -2.2717471420764923 10
      vertex 1.625500001013279 -1.7280456945300102 10
      vertex 1.5937357768416405 -1.6094999983906746 10
    endloop
  endfacet
  facet normal 0 0 1
    outer loop
      vertex 0.597000002861023 -2.184965670108795 10
      vertex 0.6837814748287201 -2.2717471420764923 10
      vertex 1.5937357768416405 -1.6094999983906746 10
    endloop
  endfacet
  facet normal 0 0 1
    outer loop
      vertex 2.5745000019669533 -0.39057745784521103 10
      vertex 2.7999999970197678 0 10
      vertex 2.5745000019669533 0.39057745784521103 10
    endloop
  endfacet
  facet normal 0 0 1
    outer loop
      vertex 2.3092814683914185 -0.5437014400959015 10
      vertex 2.5745000019669533 -0.39057745784521103 10
      vertex 2.5745000019669533 0.39057745784521103 10
    endloop
  endfacet
  facet normal 0 0 1
    outer loop
      vertex 2.3092814683914185 -0.5437014400959015 10
      vertex 2.5745000019669533 0.39057745784521103 10
      vertex 2.3092814683914185 0.5437014400959015 10
    endloop
  endfacet
  facet normal 0 0 1
    outer loop
      vertex 2.190735772252083 -0.57546566426754 10
      vertex 2.3092814683914185 -0.5437014400959015 10
      vertex 2.3092814683914185 0.5437014400959015 10
    endloop
  endfacet
  facet normal 0 0 1
    outer loop
      vertex 2.190735772252083 -0.57546566426754 10
      vertex 2.3092814683914185 0.5437014400959015 10
      vertex 2.190735772252083 0.57546566426754 10
    endloop
  endfacet
  facet normal 0 0 1
    outer loop
      vertex -2.5745000019669533 0.39057745784521103 10
      vertex -2.7999999970197678 0 10
      vertex -2.5745000019669533 -0.39057745784521103 10
    endloop
  endfacet
  facet normal 0 0 1
    outer loop
      vertex -2.3092814683914185 0.5437014400959015 10
      vertex -2.5745000019669533 0.39057745784521103 10
      vertex -2.5745000019669533 -0.39057745784521103 10
    endloop
  endfacet
  facet normal 0 0 1
    outer loop
      vertex -2.3092814683914185 0.5437014400959015 10
      vertex -2.5745000019669533 -0.39057745784521103 10
      vertex -2.3092814683914185 -0.5437014400959015 10
    endloop
  endfacet
  facet normal 0 0 1
    outer loop
      vertex -2.190735772252083 0.57546566426754 10
      vertex -2.3092814683914185 0.5437014400959015 10
      vertex -2.3092814683914185 -0.5437014400959015 10
    endloop
  endfacet
  facet normal 0 0 1
    outer loop
      vertex -2.190735772252083 0.57546566426754 10
      vertex -2.3092814683914185 -0.5437014400959015 10
      vertex -2.190735772252083 -0.57546566426754 10
    endloop
  endfacet
  facet normal 0 0 1
    outer loop
      vertex 1.5937357768416405 1.6094999983906746 10
      vertex 0.597000002861023 2.184965670108795 10
      vertex 0 2.024999998509884 10
    endloop
  endfacet
  facet normal 0 0 1
    outer loop
      vertex 1.7537014409899712 1.0125000029802322 10
      vertex 1.5937357768416405 1.6094999983906746 10
      vertex 0 2.024999998509884 10
    endloop
  endfacet
  facet normal 0 0 1
    outer loop
      vertex 0 2.024999998509884 10
      vertex -0.597000002861023 2.184965670108795 10
      vertex -1.5937357768416405 1.6094999983906746 10
    endloop
  endfacet
  facet normal 0 0 1
    outer loop
      vertex 0 2.024999998509884 10
      vertex -1.5937357768416405 1.6094999983906746 10
      vertex -1.7537014409899712 1.0125000029802322 10
    endloop
  endfacet
  facet normal 0 0 1
    outer loop
      vertex 1.7537014409899712 1.0125000029802322 10
      vertex 0 2.024999998509884 10
      vertex -1.7537014409899712 1.0125000029802322 10
    endloop
  endfacet
  facet normal 0 0 1
    outer loop
      vertex 2.190735772252083 0.57546566426754 10
      vertex 1.7537014409899712 1.0125000029802322 10
      vertex -1.7537014409899712 1.0125000029802322 10
    endloop
  endfacet
  facet normal 0 0 1
    outer loop
      vertex 2.190735772252083 -0.57546566426754 10
      vertex 2.190735772252083 0.57546566426754 10
      vertex -1.7537014409899712 1.0125000029802322 10
    endloop
  endfacet
  facet normal 0 0 1
    outer loop
      vertex 1.7537014409899712 -1.0125000029802322 10
      vertex 2.190735772252083 -0.57546566426754 10
      vertex -1.7537014409899712 1.0125000029802322 10
    endloop
  endfacet
  facet normal 0 0 1
    outer loop
      vertex 1.7537014409899712 -1.0125000029802322 10
      vertex -1.7537014409899712 1.0125000029802322 10
      vertex -2.190735772252083 0.57546566426754 10
    endloop
  endfacet
  facet normal 0 0 1
    outer loop
      vertex 1.5937357768416405 -1.6094999983906746 10
      vertex 1.7537014409899712 -1.0125000029802322 10
      vertex -2.190735772252083 0.57546566426754 10
    endloop
  endfacet
  facet normal 0 0 1
    outer loop
      vertex -1.5937357768416405 -1.6094999983906746 10
      vertex -0.597000002861023 -2.184965670108795 10
      vertex 0 -2.024999998509884 10
    endloop
  endfacet
  facet normal 0 0 1
    outer loop
      vertex -1.7537014409899712 -1.0125000029802322 10
      vertex -1.5937357768416405 -1.6094999983906746 10
      vertex 0 -2.024999998509884 10
    endloop
  endfacet
  facet normal 0 0 1
    outer loop
      vertex 0 -2.024999998509884 10
      vertex 0.597000002861023 -2.184965670108795 10
      vertex 1.5937357768416405 -1.6094999983906746 10
    endloop
  endfacet
  facet normal 0 0 1
    outer loop
      vertex -2.190735772252083 0.57546566426754 10
      vertex -2.190735772252083 -0.57546566426754 10
      vertex -1.7537014409899712 -1.0125000029802322 10
    endloop
  endfacet
  facet normal 0 0 1
    outer loop
      vertex -2.190735772252083 0.57546566426754 10
      vertex -1.7537014409899712 -1.0125000029802322 10
      vertex 0 -2.024999998509884 10
    endloop
  endfacet
  facet normal 0 0 1
    outer loop
      vertex 1.5937357768416405 -1.6094999983906746 10
      vertex -2.190735772252083 0.57546566426754 10
      vertex 0 -2.024999998509884 10
    endloop
  endfacet
endsolid PythonSCAD_Model
