solid PythonSCAD_Model
  facet normal 0.08212696906687168 -0.9966218746103706 0
    outer loop
      vertex 34.24935223162174 0.19509220868349075 0
      vertex 32.19631154090166 0.02591068297624588 4
      vertex 32.19631154090166 0.02591068297624588 0
    endloop
  endfacet
  facet normal 0.08212696906687168 -0.9966218746103706 0
    outer loop
      vertex 34.24935223162174 0.19509220868349075 0
      vertex 34.24935223162174 0.19509220868349075 4
      vertex 32.19631154090166 0.02591068297624588 4
    endloop
  endfacet
  facet normal 0.22835005007579035 -0.9735790952102372 0
    outer loop
      vertex 36.04938271641731 0.6172839477658272 0
      vertex 34.24935223162174 0.19509220868349075 4
      vertex 34.24935223162174 0.19509220868349075 0
    endloop
  endfacet
  facet normal 0.22835005007579035 -0.9735790952102372 0
    outer loop
      vertex 36.04938271641731 0.6172839477658272 0
      vertex 36.04938271641731 0.6172839477658272 4
      vertex 34.24935223162174 0.19509220868349075 4
    endloop
  endfacet
  facet normal 0.4527374770657474 -0.8916438621221714 0
    outer loop
      vertex 37.52324340492487 1.365645483136177 0
      vertex 36.04938271641731 0.6172839477658272 4
      vertex 36.04938271641731 0.6172839477658272 0
    endloop
  endfacet
  facet normal 0.4527374770657474 -0.8916438621221714 0
    outer loop
      vertex 37.52324340492487 1.365645483136177 0
      vertex 37.52324340492487 1.365645483136177 4
      vertex 36.04938271641731 0.6172839477658272 4
    endloop
  endfacet
  facet normal 0.7071067811865476 -0.7071067811865476 0
    outer loop
      vertex 38.63435451686382 2.4767565950751305 0
      vertex 37.52324340492487 1.365645483136177 4
      vertex 37.52324340492487 1.365645483136177 0
    endloop
  endfacet
  facet normal 0.7071067811865476 -0.7071067811865476 0
    outer loop
      vertex 38.63435451686382 2.4767565950751305 0
      vertex 38.63435451686382 2.4767565950751305 4
      vertex 37.52324340492487 1.365645483136177 4
    endloop
  endfacet
  facet normal 0.8916438621221714 -0.4527374770657474 0
    outer loop
      vertex 39.38271605223417 3.9506172835826874 0
      vertex 38.63435451686382 2.4767565950751305 4
      vertex 38.63435451686382 2.4767565950751305 0
    endloop
  endfacet
  facet normal 0.8916438621221714 -0.4527374770657474 0
    outer loop
      vertex 39.38271605223417 3.9506172835826874 0
      vertex 39.38271605223417 3.9506172835826874 4
      vertex 38.63435451686382 2.4767565950751305 4
    endloop
  endfacet
  facet normal 0.9735790952102372 -0.22835005007579035 0
    outer loop
      vertex 39.80490779131651 5.750647768378258 0
      vertex 39.38271605223417 3.9506172835826874 4
      vertex 39.38271605223417 3.9506172835826874 0
    endloop
  endfacet
  facet normal 0.9735790952102372 -0.22835005007579035 0
    outer loop
      vertex 39.80490779131651 5.750647768378258 0
      vertex 39.80490779131651 5.750647768378258 4
      vertex 39.38271605223417 3.9506172835826874 4
    endloop
  endfacet
  facet normal 0.9966218746103706 -0.08212696906687168 0
    outer loop
      vertex 39.974089317023754 7.803688459098339 0
      vertex 39.80490779131651 5.750647768378258 4
      vertex 39.80490779131651 5.750647768378258 0
    endloop
  endfacet
  facet normal 0.9966218746103706 -0.08212696906687168 0
    outer loop
      vertex 39.974089317023754 7.803688459098339 0
      vertex 39.974089317023754 7.803688459098339 4
      vertex 39.80490779131651 5.750647768378258 4
    endloop
  endfacet
  facet normal 0.9999304183844325 -0.011796541422546755 0
    outer loop
      vertex 40 10 0
      vertex 39.974089317023754 7.803688459098339 4
      vertex 39.974089317023754 7.803688459098339 0
    endloop
  endfacet
  facet normal 0.9999304183844325 -0.011796541422546755 0
    outer loop
      vertex 40 10 0
      vertex 40 10 4
      vertex 39.974089317023754 7.803688459098339 4
    endloop
  endfacet
  facet normal 1 0 0
    outer loop
      vertex 40 30 0
      vertex 40 10 4
      vertex 40 10 0
    endloop
  endfacet
  facet normal 1 0 0
    outer loop
      vertex 40 30 0
      vertex 40 30 4
      vertex 40 10 4
    endloop
  endfacet
  facet normal 0.9999304183844325 0.011796541422546755 0
    outer loop
      vertex 39.974089317023754 32.19631154090166 0
      vertex 40 30 4
      vertex 40 30 0
    endloop
  endfacet
  facet normal 0.9999304183844325 0.011796541422546755 0
    outer loop
      vertex 39.974089317023754 32.19631154090166 0
      vertex 39.974089317023754 32.19631154090166 4
      vertex 40 30 4
    endloop
  endfacet
  facet normal 0.9966218746103706 0.08212696906687168 0
    outer loop
      vertex 39.80490779131651 34.24935223162174 0
      vertex 39.974089317023754 32.19631154090166 4
      vertex 39.974089317023754 32.19631154090166 0
    endloop
  endfacet
  facet normal 0.9966218746103706 0.08212696906687168 0
    outer loop
      vertex 39.80490779131651 34.24935223162174 0
      vertex 39.80490779131651 34.24935223162174 4
      vertex 39.974089317023754 32.19631154090166 4
    endloop
  endfacet
  facet normal 0.9735790952102372 0.22835005007579035 0
    outer loop
      vertex 39.38271605223417 36.04938271641731 0
      vertex 39.80490779131651 34.24935223162174 4
      vertex 39.80490779131651 34.24935223162174 0
    endloop
  endfacet
  facet normal 0.9735790952102372 0.22835005007579035 0
    outer loop
      vertex 39.38271605223417 36.04938271641731 0
      vertex 39.38271605223417 36.04938271641731 4
      vertex 39.80490779131651 34.24935223162174 4
    endloop
  endfacet
  facet normal 0.8916438621221714 0.4527374770657474 0
    outer loop
      vertex 38.63435451686382 37.52324340492487 0
      vertex 39.38271605223417 36.04938271641731 4
      vertex 39.38271605223417 36.04938271641731 0
    endloop
  endfacet
  facet normal 0.8916438621221714 0.4527374770657474 0
    outer loop
      vertex 38.63435451686382 37.52324340492487 0
      vertex 38.63435451686382 37.52324340492487 4
      vertex 39.38271605223417 36.04938271641731 4
    endloop
  endfacet
  facet normal 0.7071067811865476 0.7071067811865476 0
    outer loop
      vertex 37.52324340492487 38.63435451686382 0
      vertex 38.63435451686382 37.52324340492487 4
      vertex 38.63435451686382 37.52324340492487 0
    endloop
  endfacet
  facet normal 0.7071067811865476 0.7071067811865476 0
    outer loop
      vertex 37.52324340492487 38.63435451686382 0
      vertex 37.52324340492487 38.63435451686382 4
      vertex 38.63435451686382 37.52324340492487 4
    endloop
  endfacet
  facet normal 0.4527374770657474 0.8916438621221714 0
    outer loop
      vertex 36.04938271641731 39.38271605223417 0
      vertex 37.52324340492487 38.63435451686382 4
      vertex 37.52324340492487 38.63435451686382 0
    endloop
  endfacet
  facet normal 0.4527374770657474 0.8916438621221714 0
    outer loop
      vertex 36.04938271641731 39.38271605223417 0
      vertex 36.04938271641731 39.38271605223417 4
      vertex 37.52324340492487 38.63435451686382 4
    endloop
  endfacet
  facet normal 0.22835005007579035 0.9735790952102372 0
    outer loop
      vertex 34.24935223162174 39.80490779131651 0
      vertex 36.04938271641731 39.38271605223417 4
      vertex 36.04938271641731 39.38271605223417 0
    endloop
  endfacet
  facet normal 0.22835005007579035 0.9735790952102372 0
    outer loop
      vertex 34.24935223162174 39.80490779131651 0
      vertex 34.24935223162174 39.80490779131651 4
      vertex 36.04938271641731 39.38271605223417 4
    endloop
  endfacet
  facet normal 0.08212696906687168 0.9966218746103706 0
    outer loop
      vertex 32.19631154090166 39.974089317023754 0
      vertex 34.24935223162174 39.80490779131651 4
      vertex 34.24935223162174 39.80490779131651 0
    endloop
  endfacet
  facet normal 0.08212696906687168 0.9966218746103706 0
    outer loop
      vertex 32.19631154090166 39.974089317023754 0
      vertex 32.19631154090166 39.974089317023754 4
      vertex 34.24935223162174 39.80490779131651 4
    endloop
  endfacet
  facet normal 0.011796541422546755 0.9999304183844325 0
    outer loop
      vertex 30 40 0
      vertex 32.19631154090166 39.974089317023754 4
      vertex 32.19631154090166 39.974089317023754 0
    endloop
  endfacet
  facet normal 0.011796541422546755 0.9999304183844325 0
    outer loop
      vertex 30 40 0
      vertex 30 40 4
      vertex 32.19631154090166 39.974089317023754 4
    endloop
  endfacet
  facet normal 0 1 0
    outer loop
      vertex 10 40 0
      vertex 30 40 4
      vertex 30 40 0
    endloop
  endfacet
  facet normal 0 1 0
    outer loop
      vertex 10 40 0
      vertex 10 40 4
      vertex 30 40 4
    endloop
  endfacet
  facet normal -0.011796541422546755 0.9999304183844325 0
    outer loop
      vertex 7.803688459098339 39.974089317023754 0
      vertex 10 40 4
      vertex 10 40 0
    endloop
  endfacet
  facet normal -0.011796541422546755 0.9999304183844325 0
    outer loop
      vertex 7.803688459098339 39.974089317023754 0
      vertex 7.803688459098339 39.974089317023754 4
      vertex 10 40 4
    endloop
  endfacet
  facet normal -0.08212696906687168 0.9966218746103706 0
    outer loop
      vertex 5.750647768378258 39.80490779131651 0
      vertex 7.803688459098339 39.974089317023754 4
      vertex 7.803688459098339 39.974089317023754 0
    endloop
  endfacet
  facet normal -0.08212696906687168 0.9966218746103706 0
    outer loop
      vertex 5.750647768378258 39.80490779131651 0
      vertex 5.750647768378258 39.80490779131651 4
      vertex 7.803688459098339 39.974089317023754 4
    endloop
  endfacet
  facet normal -0.22835005007579035 0.9735790952102372 0
    outer loop
      vertex 3.9506172835826874 39.38271605223417 0
      vertex 5.750647768378258 39.80490779131651 4
      vertex 5.750647768378258 39.80490779131651 0
    endloop
  endfacet
  facet normal -0.22835005007579035 0.9735790952102372 0
    outer loop
      vertex 3.9506172835826874 39.38271605223417 0
      vertex 3.9506172835826874 39.38271605223417 4
      vertex 5.750647768378258 39.80490779131651 4
    endloop
  endfacet
  facet normal -0.4527374770657474 0.8916438621221714 0
    outer loop
      vertex 2.4767565950751305 38.63435451686382 0
      vertex 3.9506172835826874 39.38271605223417 4
      vertex 3.9506172835826874 39.38271605223417 0
    endloop
  endfacet
  facet normal -0.4527374770657474 0.8916438621221714 0
    outer loop
      vertex 2.4767565950751305 38.63435451686382 0
      vertex 2.4767565950751305 38.63435451686382 4
      vertex 3.9506172835826874 39.38271605223417 4
    endloop
  endfacet
  facet normal -0.7071067811865476 0.7071067811865476 0
    outer loop
      vertex 1.365645483136177 37.52324340492487 0
      vertex 2.4767565950751305 38.63435451686382 4
      vertex 2.4767565950751305 38.63435451686382 0
    endloop
  endfacet
  facet normal -0.7071067811865476 0.7071067811865476 0
    outer loop
      vertex 1.365645483136177 37.52324340492487 0
      vertex 1.365645483136177 37.52324340492487 4
      vertex 2.4767565950751305 38.63435451686382 4
    endloop
  endfacet
  facet normal -0.8916438621221714 0.4527374770657474 0
    outer loop
      vertex 0.6172839477658272 36.04938271641731 0
      vertex 1.365645483136177 37.52324340492487 4
      vertex 1.365645483136177 37.52324340492487 0
    endloop
  endfacet
  facet normal -0.8916438621221714 0.4527374770657474 0
    outer loop
      vertex 0.6172839477658272 36.04938271641731 0
      vertex 0.6172839477658272 36.04938271641731 4
      vertex 1.365645483136177 37.52324340492487 4
    endloop
  endfacet
  facet normal -0.9735790952102372 0.22835005007579035 0
    outer loop
      vertex 0.19509220868349075 34.24935223162174 0
      vertex 0.6172839477658272 36.04938271641731 4
      vertex 0.6172839477658272 36.04938271641731 0
    endloop
  endfacet
  facet normal -0.9735790952102372 0.22835005007579035 0
    outer loop
      vertex 0.19509220868349075 34.24935223162174 0
      vertex 0.19509220868349075 34.24935223162174 4
      vertex 0.6172839477658272 36.04938271641731 4
    endloop
  endfacet
  facet normal -0.9966218746103706 0.08212696906687168 0
    outer loop
      vertex 0.02591068297624588 32.19631154090166 0
      vertex 0.19509220868349075 34.24935223162174 4
      vertex 0.19509220868349075 34.24935223162174 0
    endloop
  endfacet
  facet normal -0.9966218746103706 0.08212696906687168 0
    outer loop
      vertex 0.02591068297624588 32.19631154090166 0
      vertex 0.02591068297624588 32.19631154090166 4
      vertex 0.19509220868349075 34.24935223162174 4
    endloop
  endfacet
  facet normal -0.9999304183844325 0.011796541422546755 0
    outer loop
      vertex 0 30 0
      vertex 0.02591068297624588 32.19631154090166 4
      vertex 0.02591068297624588 32.19631154090166 0
    endloop
  endfacet
  facet normal -0.9999304183844325 0.011796541422546755 0
    outer loop
      vertex 0 30 0
      vertex 0 30 4
      vertex 0.02591068297624588 32.19631154090166 4
    endloop
  endfacet
  facet normal -1 0 0
    outer loop
      vertex 0 10 0
      vertex 0 30 4
      vertex 0 30 0
    endloop
  endfacet
  facet normal -1 0 0
    outer loop
      vertex 0 10 0
      vertex 0 10 4
      vertex 0 30 4
    endloop
  endfacet
  facet normal -0.9999304183844325 -0.011796541422546755 0
    outer loop
      vertex 0.02591068297624588 7.803688459098339 0
      vertex 0 10 4
      vertex 0 10 0
    endloop
  endfacet
  facet normal -0.9999304183844325 -0.011796541422546755 0
    outer loop
      vertex 0.02591068297624588 7.803688459098339 0
      vertex 0.02591068297624588 7.803688459098339 4
      vertex 0 10 4
    endloop
  endfacet
  facet normal -0.9966218746103706 -0.08212696906687168 0
    outer loop
      vertex 0.19509220868349075 5.750647768378258 0
      vertex 0.02591068297624588 7.803688459098339 4
      vertex 0.02591068297624588 7.803688459098339 0
    endloop
  endfacet
  facet normal -0.9966218746103706 -0.08212696906687168 0
    outer loop
      vertex 0.19509220868349075 5.750647768378258 0
      vertex 0.19509220868349075 5.750647768378258 4
      vertex 0.02591068297624588 7.803688459098339 4
    endloop
  endfacet
  facet normal -0.9735790952102372 -0.22835005007579035 0
    outer loop
      vertex 0.6172839477658272 3.9506172835826874 0
      vertex 0.19509220868349075 5.750647768378258 4
      vertex 0.19509220868349075 5.750647768378258 0
    endloop
  endfacet
  facet normal -0.9735790952102372 -0.22835005007579035 0
    outer loop
      vertex 0.6172839477658272 3.9506172835826874 0
      vertex 0.6172839477658272 3.9506172835826874 4
      vertex 0.19509220868349075 5.750647768378258 4
    endloop
  endfacet
  facet normal -0.8916438621221714 -0.4527374770657474 0
    outer loop
      vertex 1.365645483136177 2.4767565950751305 0
      vertex 0.6172839477658272 3.9506172835826874 4
      vertex 0.6172839477658272 3.9506172835826874 0
    endloop
  endfacet
  facet normal -0.8916438621221714 -0.4527374770657474 0
    outer loop
      vertex 1.365645483136177 2.4767565950751305 0
      vertex 1.365645483136177 2.4767565950751305 4
      vertex 0.6172839477658272 3.9506172835826874 4
    endloop
  endfacet
  facet normal -0.7071067811865476 -0.7071067811865476 0
    outer loop
      vertex 2.4767565950751305 1.365645483136177 0
      vertex 1.365645483136177 2.4767565950751305 4
      vertex 1.365645483136177 2.4767565950751305 0
    endloop
  endfacet
  facet normal -0.7071067811865476 -0.7071067811865476 0
    outer loop
      vertex 2.4767565950751305 1.365645483136177 0
      vertex 2.4767565950751305 1.365645483136177 4
      vertex 1.365645483136177 2.4767565950751305 4
    endloop
  endfacet
  facet normal -0.4527374770657474 -0.8916438621221714 0
    outer loop
      vertex 3.9506172835826874 0.6172839477658272 0
      vertex 2.4767565950751305 1.365645483136177 4
      vertex 2.4767565950751305 1.365645483136177 0
    endloop
  endfacet
  facet normal -0.4527374770657474 -0.8916438621221714 0
    outer loop
      vertex 3.9506172835826874 0.6172839477658272 0
      vertex 3.9506172835826874 0.6172839477658272 4
      vertex 2.4767565950751305 1.365645483136177 4
    endloop
  endfacet
  facet normal -0.22835005007579035 -0.9735790952102372 0
    outer loop
      vertex 5.750647768378258 0.19509220868349075 0
      vertex 3.9506172835826874 0.6172839477658272 4
      vertex 3.9506172835826874 0.6172839477658272 0
    endloop
  endfacet
  facet normal -0.22835005007579035 -0.9735790952102372 0
    outer loop
      vertex 5.750647768378258 0.19509220868349075 0
      vertex 5.750647768378258 0.19509220868349075 4
      vertex 3.9506172835826874 0.6172839477658272 4
    endloop
  endfacet
  facet normal -0.08212696906687168 -0.9966218746103706 0
    outer loop
      vertex 7.803688459098339 0.02591068297624588 0
      vertex 5.750647768378258 0.19509220868349075 4
      vertex 5.750647768378258 0.19509220868349075 0
    endloop
  endfacet
  facet normal -0.08212696906687168 -0.9966218746103706 0
    outer loop
      vertex 7.803688459098339 0.02591068297624588 0
      vertex 7.803688459098339 0.02591068297624588 4
      vertex 5.750647768378258 0.19509220868349075 4
    endloop
  endfacet
  facet normal -0.011796541422546755 -0.9999304183844325 0
    outer loop
      vertex 10 0 0
      vertex 7.803688459098339 0.02591068297624588 4
      vertex 7.803688459098339 0.02591068297624588 0
    endloop
  endfacet
  facet normal -0.011796541422546755 -0.9999304183844325 0
    outer loop
      vertex 10 0 0
      vertex 10 0 4
      vertex 7.803688459098339 0.02591068297624588 4
    endloop
  endfacet
  facet normal 0 -1 0
    outer loop
      vertex 30 0 0
      vertex 10 0 4
      vertex 10 0 0
    endloop
  endfacet
  facet normal 0 -1 0
    outer loop
      vertex 30 0 0
      vertex 30 0 4
      vertex 10 0 4
    endloop
  endfacet
  facet normal 0.011796541422546755 -0.9999304183844325 0
    outer loop
      vertex 32.19631154090166 0.02591068297624588 0
      vertex 30 0 4
      vertex 30 0 0
    endloop
  endfacet
  facet normal 0.011796541422546755 -0.9999304183844325 0
    outer loop
      vertex 32.19631154090166 0.02591068297624588 0
      vertex 32.19631154090166 0.02591068297624588 4
      vertex 30 0 4
    endloop
  endfacet
  facet normal 0 0 -1
    outer loop
      vertex 30 0 0
      vertex 34.24935223162174 0.19509220868349075 0
      vertex 32.19631154090166 0.02591068297624588 0
    endloop
  endfacet
  facet normal 0 0 -1
    outer loop
      vertex 30 0 0
      vertex 10 0 0
      vertex 34.24935223162174 0.19509220868349075 0
    endloop
  endfacet
  facet normal 0 0 -1
    outer loop
      vertex 10 0 0
      vertex 36.04938271641731 0.6172839477658272 0
      vertex 34.24935223162174 0.19509220868349075 0
    endloop
  endfacet
  facet normal 0 0 -1
    outer loop
      vertex 10 0 0
      vertex 7.803688459098339 0.02591068297624588 0
      vertex 36.04938271641731 0.6172839477658272 0
    endloop
  endfacet
  facet normal 0 0 -1
    outer loop
      vertex 7.803688459098339 0.02591068297624588 0
      vertex 37.52324340492487 1.365645483136177 0
      vertex 36.04938271641731 0.6172839477658272 0
    endloop
  endfacet
  facet normal 0 0 -1
    outer loop
      vertex 7.803688459098339 0.02591068297624588 0
      vertex 5.750647768378258 0.19509220868349075 0
      vertex 37.52324340492487 1.365645483136177 0
    endloop
  endfacet
  facet normal 0 0 -1
    outer loop
      vertex 5.750647768378258 0.19509220868349075 0
      vertex 38.63435451686382 2.4767565950751305 0
      vertex 37.52324340492487 1.365645483136177 0
    endloop
  endfacet
  facet normal 0 0 -1
    outer loop
      vertex 5.750647768378258 0.19509220868349075 0
      vertex 3.9506172835826874 0.6172839477658272 0
      vertex 38.63435451686382 2.4767565950751305 0
    endloop
  endfacet
  facet normal 0 0 -1
    outer loop
      vertex 3.9506172835826874 0.6172839477658272 0
      vertex 39.38271605223417 3.9506172835826874 0
      vertex 38.63435451686382 2.4767565950751305 0
    endloop
  endfacet
  facet normal 0 0 -1
    outer loop
      vertex 3.9506172835826874 0.6172839477658272 0
      vertex 2.4767565950751305 1.365645483136177 0
      vertex 39.38271605223417 3.9506172835826874 0
    endloop
  endfacet
  facet normal 0 0 -1
    outer loop
      vertex 2.4767565950751305 1.365645483136177 0
      vertex 39.80490779131651 5.750647768378258 0
      vertex 39.38271605223417 3.9506172835826874 0
    endloop
  endfacet
  facet normal 0 0 -1
    outer loop
      vertex 2.4767565950751305 1.365645483136177 0
      vertex 1.365645483136177 2.4767565950751305 0
      vertex 39.80490779131651 5.750647768378258 0
    endloop
  endfacet
  facet normal 0 0 -1
    outer loop
      vertex 1.365645483136177 2.4767565950751305 0
      vertex 39.974089317023754 7.803688459098339 0
      vertex 39.80490779131651 5.750647768378258 0
    endloop
  endfacet
  facet normal 0 0 -1
    outer loop
      vertex 1.365645483136177 2.4767565950751305 0
      vertex 0.6172839477658272 3.9506172835826874 0
      vertex 39.974089317023754 7.803688459098339 0
    endloop
  endfacet
  facet normal 0 0 -1
    outer loop
      vertex 0.6172839477658272 3.9506172835826874 0
      vertex 40 10 0
      vertex 39.974089317023754 7.803688459098339 0
    endloop
  endfacet
  facet normal 0 0 -1
    outer loop
      vertex 0.6172839477658272 3.9506172835826874 0
      vertex 0.19509220868349075 5.750647768378258 0
      vertex 40 10 0
    endloop
  endfacet
  facet normal 0 0 -1
    outer loop
      vertex 0.19509220868349075 5.750647768378258 0
      vertex 40 30 0
      vertex 40 10 0
    endloop
  endfacet
  facet normal 0 0 -1
    outer loop
      vertex 0.19509220868349075 5.750647768378258 0
      vertex 0.02591068297624588 7.803688459098339 0
      vertex 40 30 0
    endloop
  endfacet
  facet normal 0 0 -1
    outer loop
      vertex 0.02591068297624588 7.803688459098339 0
      vertex 39.974089317023754 32.19631154090166 0
      vertex 40 30 0
    endloop
  endfacet
  facet normal 0 0 -1
    outer loop
      vertex 0.02591068297624588 7.803688459098339 0
      vertex 0 10 0
      vertex 39.974089317023754 32.19631154090166 0
    endloop
  endfacet
  facet normal 0 0 -1
    outer loop
      vertex 0 10 0
      vertex 39.80490779131651 34.24935223162174 0
      vertex 39.974089317023754 32.19631154090166 0
    endloop
  endfacet
  facet normal 0 0 -1
    outer loop
      vertex 0 10 0
      vertex 0 30 0
      vertex 39.80490779131651 34.24935223162174 0
    endloop
  endfacet
  facet normal 0 0 -1
    outer loop
      vertex 0 30 0
      vertex 39.38271605223417 36.04938271641731 0
      vertex 39.80490779131651 34.24935223162174 0
    endloop
  endfacet
  facet normal 0 0 -1
    outer loop
      vertex 0 30 0
      vertex 0.02591068297624588 32.19631154090166 0
      vertex 39.38271605223417 36.04938271641731 0
    endloop
  endfacet
  facet normal 0 0 -1
    outer loop
      vertex 0.02591068297624588 32.19631154090166 0
      vertex 38.63435451686382 37.52324340492487 0
      vertex 39.38271605223417 36.04938271641731 0
    endloop
  endfacet
  facet normal 0 0 -1
    outer loop
      vertex 0.02591068297624588 32.19631154090166 0
      vertex 0.19509220868349075 34.24935223162174 0
      vertex 38.63435451686382 37.52324340492487 0
    endloop
  endfacet
  facet normal 0 0 -1
    outer loop
      vertex 0.19509220868349075 34.24935223162174 0
      vertex 37.52324340492487 38.63435451686382 0
      vertex 38.63435451686382 37.52324340492487 0
    endloop
  endfacet
  facet normal 0 0 -1
    outer loop
      vertex 0.19509220868349075 34.24935223162174 0
      vertex 0.6172839477658272 36.04938271641731 0
      vertex 37.52324340492487 38.63435451686382 0
    endloop
  endfacet
  facet normal 0 0 -1
    outer loop
      vertex 0.6172839477658272 36.04938271641731 0
      vertex 36.04938271641731 39.38271605223417 0
      vertex 37.52324340492487 38.63435451686382 0
    endloop
  endfacet
  facet normal 0 0 -1
    outer loop
      vertex 0.6172839477658272 36.04938271641731 0
      vertex 1.365645483136177 37.52324340492487 0
      vertex 36.04938271641731 39.38271605223417 0
    endloop
  endfacet
  facet normal 0 0 -1
    outer loop
      vertex 1.365645483136177 37.52324340492487 0
      vertex 34.24935223162174 39.80490779131651 0
      vertex 36.04938271641731 39.38271605223417 0
    endloop
  endfacet
  facet normal 0 0 -1
    outer loop
      vertex 1.365645483136177 37.52324340492487 0
      vertex 2.4767565950751305 38.63435451686382 0
      vertex 34.24935223162174 39.80490779131651 0
    endloop
  endfacet
  facet normal 0 0 -1
    outer loop
      vertex 2.4767565950751305 38.63435451686382 0
      vertex 32.19631154090166 39.974089317023754 0
      vertex 34.24935223162174 39.80490779131651 0
    endloop
  endfacet
  facet normal 0 0 -1
    outer loop
      vertex 2.4767565950751305 38.63435451686382 0
      vertex 3.9506172835826874 39.38271605223417 0
      vertex 32.19631154090166 39.974089317023754 0
    endloop
  endfacet
  facet normal 0 0 -1
    outer loop
      vertex 3.9506172835826874 39.38271605223417 0
      vertex 30 40 0
      vertex 32.19631154090166 39.974089317023754 0
    endloop
  endfacet
  facet normal 0 0 -1
    outer loop
      vertex 3.9506172835826874 39.38271605223417 0
      vertex 5.750647768378258 39.80490779131651 0
      vertex 30 40 0
    endloop
  endfacet
  facet normal 0 0 -1
    outer loop
      vertex 5.750647768378258 39.80490779131651 0
      vertex 10 40 0
      vertex 30 40 0
    endloop
  endfacet
  facet normal 0 0 -1
    outer loop
      vertex 5.750647768378258 39.80490779131651 0
      vertex 7.803688459098339 39.974089317023754 0
      vertex 10 40 0
    endloop
  endfacet
  facet normal 0 0 1
    outer loop
      vertex 32.19631154090166 0.02591068297624588 4
      vertex 34.24935223162174 0.19509220868349075 4
      vertex 30 0 4
    endloop
  endfacet
  facet normal 0 0 1
    outer loop
      vertex 34.24935223162174 0.19509220868349075 4
      vertex 10 0 4
      vertex 30 0 4
    endloop
  endfacet
  facet normal 0 0 1
    outer loop
      vertex 34.24935223162174 0.19509220868349075 4
      vertex 36.04938271641731 0.6172839477658272 4
      vertex 10 0 4
    endloop
  endfacet
  facet normal 0 0 1
    outer loop
      vertex 36.04938271641731 0.6172839477658272 4
      vertex 7.803688459098339 0.02591068297624588 4
      vertex 10 0 4
    endloop
  endfacet
  facet normal 0 0 1
    outer loop
      vertex 36.04938271641731 0.6172839477658272 4
      vertex 37.52324340492487 1.365645483136177 4
      vertex 7.803688459098339 0.02591068297624588 4
    endloop
  endfacet
  facet normal 0 0 1
    outer loop
      vertex 37.52324340492487 1.365645483136177 4
      vertex 5.750647768378258 0.19509220868349075 4
      vertex 7.803688459098339 0.02591068297624588 4
    endloop
  endfacet
  facet normal 0 0 1
    outer loop
      vertex 37.52324340492487 1.365645483136177 4
      vertex 38.63435451686382 2.4767565950751305 4
      vertex 5.750647768378258 0.19509220868349075 4
    endloop
  endfacet
  facet normal 0 0 1
    outer loop
      vertex 38.63435451686382 2.4767565950751305 4
      vertex 3.9506172835826874 0.6172839477658272 4
      vertex 5.750647768378258 0.19509220868349075 4
    endloop
  endfacet
  facet normal 0 0 1
    outer loop
      vertex 38.63435451686382 2.4767565950751305 4
      vertex 39.38271605223417 3.9506172835826874 4
      vertex 3.9506172835826874 0.6172839477658272 4
    endloop
  endfacet
  facet normal 0 0 1
    outer loop
      vertex 39.38271605223417 3.9506172835826874 4
      vertex 2.4767565950751305 1.365645483136177 4
      vertex 3.9506172835826874 0.6172839477658272 4
    endloop
  endfacet
  facet normal 0 0 1
    outer loop
      vertex 39.38271605223417 3.9506172835826874 4
      vertex 39.80490779131651 5.750647768378258 4
      vertex 2.4767565950751305 1.365645483136177 4
    endloop
  endfacet
  facet normal 0 0 1
    outer loop
      vertex 39.80490779131651 5.750647768378258 4
      vertex 1.365645483136177 2.4767565950751305 4
      vertex 2.4767565950751305 1.365645483136177 4
    endloop
  endfacet
  facet normal 0 0 1
    outer loop
      vertex 39.80490779131651 5.750647768378258 4
      vertex 39.974089317023754 7.803688459098339 4
      vertex 1.365645483136177 2.4767565950751305 4
    endloop
  endfacet
  facet normal 0 0 1
    outer loop
      vertex 39.974089317023754 7.803688459098339 4
      vertex 0.6172839477658272 3.9506172835826874 4
      vertex 1.365645483136177 2.4767565950751305 4
    endloop
  endfacet
  facet normal 0 0 1
    outer loop
      vertex 39.974089317023754 7.803688459098339 4
      vertex 40 10 4
      vertex 0.6172839477658272 3.9506172835826874 4
    endloop
  endfacet
  facet normal 0 0 1
    outer loop
      vertex 40 10 4
      vertex 0.19509220868349075 5.750647768378258 4
      vertex 0.6172839477658272 3.9506172835826874 4
    endloop
  endfacet
  facet normal 0 0 1
    outer loop
      vertex 40 10 4
      vertex 40 30 4
      vertex 0.19509220868349075 5.750647768378258 4
    endloop
  endfacet
  facet normal 0 0 1
    outer loop
      vertex 40 30 4
      vertex 0.02591068297624588 7.803688459098339 4
      vertex 0.19509220868349075 5.750647768378258 4
    endloop
  endfacet
  facet normal 0 0 1
    outer loop
      vertex 40 30 4
      vertex 39.974089317023754 32.19631154090166 4
      vertex 0.02591068297624588 7.803688459098339 4
    endloop
  endfacet
  facet normal 0 0 1
    outer loop
      vertex 39.974089317023754 32.19631154090166 4
      vertex 0 10 4
      vertex 0.02591068297624588 7.803688459098339 4
    endloop
  endfacet
  facet normal 0 0 1
    outer loop
      vertex 39.974089317023754 32.19631154090166 4
      vertex 39.80490779131651 34.24935223162174 4
      vertex 0 10 4
    endloop
  endfacet
  facet normal 0 0 1
    outer loop
      vertex 39.80490779131651 34.24935223162174 4
      vertex 0 30 4
      vertex 0 10 4
    endloop
  endfacet
  facet normal 0 0 1
    outer loop
      vertex 39.80490779131651 34.24935223162174 4
      vertex 39.38271605223417 36.04938271641731 4
      vertex 0 30 4
    endloop
  endfacet
  facet normal 0 0 1
    outer loop
      vertex 39.38271605223417 36.04938271641731 4
      vertex 0.02591068297624588 32.19631154090166 4
      vertex 0 30 4
    endloop
  endfacet
  facet normal 0 0 1
    outer loop
      vertex 39.38271605223417 36.04938271641731 4
      vertex 38.63435451686382 37.52324340492487 4
      vertex 0.02591068297624588 32.19631154090166 4
    endloop
  endfacet
  facet normal 0 0 1
    outer loop
      vertex 38.63435451686382 37.52324340492487 4
      vertex 0.19509220868349075 34.24935223162174 4
      vertex 0.02591068297624588 32.19631154090166 4
    endloop
  endfacet
  facet normal 0 0 1
    outer loop
      vertex 38.63435451686382 37.52324340492487 4
      vertex 37.52324340492487 38.63435451686382 4
      vertex 0.19509220868349075 34.24935223162174 4
    endloop
  endfacet
  facet normal 0 0 1
    outer loop
      vertex 37.52324340492487 38.63435451686382 4
      vertex 0.6172839477658272 36.04938271641731 4
      vertex 0.19509220868349075 34.24935223162174 4
    endloop
  endfacet
  facet normal 0 0 1
    outer loop
      vertex 37.52324340492487 38.63435451686382 4
      vertex 36.04938271641731 39.38271605223417 4
      vertex 0.6172839477658272 36.04938271641731 4
    endloop
  endfacet
  facet normal 0 0 1
    outer loop
      vertex 36.04938271641731 39.38271605223417 4
      vertex 1.365645483136177 37.52324340492487 4
      vertex 0.6172839477658272 36.04938271641731 4
    endloop
  endfacet
  facet normal 0 0 1
    outer loop
      vertex 36.04938271641731 39.38271605223417 4
      vertex 34.24935223162174 39.80490779131651 4
      vertex 1.365645483136177 37.52324340492487 4
    endloop
  endfacet
  facet normal 0 0 1
    outer loop
      vertex 34.24935223162174 39.80490779131651 4
      vertex 2.4767565950751305 38.63435451686382 4
      vertex 1.365645483136177 37.52324340492487 4
    endloop
  endfacet
  facet normal 0 0 1
    outer loop
      vertex 34.24935223162174 39.80490779131651 4
      vertex 32.19631154090166 39.974089317023754 4
      vertex 2.4767565950751305 38.63435451686382 4
    endloop
  endfacet
  facet normal 0 0 1
    outer loop
      vertex 32.19631154090166 39.974089317023754 4
      vertex 3.9506172835826874 39.38271605223417 4
      vertex 2.4767565950751305 38.63435451686382 4
    endloop
  endfacet
  facet normal 0 0 1
    outer loop
      vertex 32.19631154090166 39.974089317023754 4
      vertex 30 40 4
      vertex 3.9506172835826874 39.38271605223417 4
    endloop
  endfacet
  facet normal 0 0 1
    outer loop
      vertex 30 40 4
      vertex 5.750647768378258 39.80490779131651 4
      vertex 3.9506172835826874 39.38271605223417 4
    endloop
  endfacet
  facet normal 0 0 1
    outer loop
      vertex 30 40 4
      vertex 10 40 4
      vertex 5.750647768378258 39.80490779131651 4
    endloop
  endfacet
  facet normal 0 0 1
    outer loop
      vertex 10 40 4
      vertex 7.803688459098339 39.974089317023754 4
      vertex 5.750647768378258 39.80490779131651 4
    endloop
  endfacet
endsolid PythonSCAD_Model
