solid PythonSCAD_Model
  facet normal -0.9486832980505138 0 0.31622776601683794
    outer loop
      vertex -30 32.5 30
      vertex -40 0 0
      vertex -30 7.5 30
    endloop
  endfacet
  facet normal 0 -0.9701425001453319 0.24253562503633297
    outer loop
      vertex -40 0 0
      vertex -10 7.5 30
      vertex -30 7.5 30
    endloop
  endfacet
  facet normal 0 0 1
    outer loop
      vertex -10 7.5 30
      vertex -30 32.5 30
      vertex -30 7.5 30
    endloop
  endfacet
  facet normal -0.9486832980505138 0 0.3162277660168379
    outer loop
      vertex -40 0 0
      vertex -30 32.5 30
      vertex -40 40 0
    endloop
  endfacet
  facet normal 0 0 -1
    outer loop
      vertex 0 40 0
      vertex -40 0 0
      vertex -40 40 0
    endloop
  endfacet
  facet normal 0 0.9701425001453319 0.24253562503633297
    outer loop
      vertex -30 32.5 30
      vertex 0 40 0
      vertex -40 40 0
    endloop
  endfacet
  facet normal 0 -0.9701425001453319 0.24253562503633297
    outer loop
      vertex -10 7.5 30
      vertex -40 0 0
      vertex 0 0 0
    endloop
  endfacet
  facet normal 0 0 -1
    outer loop
      vertex -40 0 0
      vertex 0 40 0
      vertex 0 0 0
    endloop
  endfacet
  facet normal 0.9486832980505138 0 0.3162277660168379
    outer loop
      vertex 0 40 0
      vertex -10 7.5 30
      vertex 0 0 0
    endloop
  endfacet
  facet normal 0 0 1
    outer loop
      vertex -30 32.5 30
      vertex -10 7.5 30
      vertex -10 32.5 30
    endloop
  endfacet
  facet normal 0 0.9701425001453319 0.24253562503633297
    outer loop
      vertex 0 40 0
      vertex -30 32.5 30
      vertex -10 32.5 30
    endloop
  endfacet
  facet normal 0.9486832980505138 0 0.31622776601683794
    outer loop
      vertex -10 7.5 30
      vertex 0 40 0
      vertex -10 32.5 30
    endloop
  endfacet
endsolid PythonSCAD_Model
