solid PythonSCAD_Model
  facet normal 0.3101515381641116 -0.19509032201612816 -0.9304546144923346
    outer loop
      vertex 1.1685305742090903 -1.5307337294603591 -3.5059079503932997
      vertex 1.2648161957375426 0 -3.7947648149786573
      vertex 33.377064117381195 -1.5307337294603591 7.2302698973307375
    endloop
  endfacet
  facet normal 0.3101515381641116 0.19509032201612778 -0.9304546144923347
    outer loop
      vertex 1.2648161957375426 0 -3.7947648149786573
      vertex 1.1685305742090897 1.5307337294603591 -3.5059079503933006
      vertex 32.29971037787445 0 6.550199912400314
    endloop
  endfacet
  facet normal 0.17568673365324294 -0.8314696123025451 -0.5270602009597288
    outer loop
      vertex 0.894332322670105 -2.8284271247461903 -2.683313195776349
      vertex 33.90358783621415 -3.695518130045147 9.687660919958478
      vertex 0.4839656393040632 -3.695518130045147 -1.452213145678218
    endloop
  endfacet
  facet normal 0.061692976702665867 -0.9807852804032303 -0.18507893010799759
    outer loop
      vertex 0.4839656393040632 -3.695518130045147 -1.452213145678218
      vertex 33.27259935229744 -4 11.090866450765816
      vertex -0.00009486832980809545 -4 -0.0000316227766032906
    endloop
  endfacet
  facet normal -0.06169297670266578 -0.9807852804032303 0.1850789301079974
    outer loop
      vertex -0.00009486832980809545 -4 -0.0000316227766032906
      vertex 32.14336780845462 -3.695518130045147 12.327990961597779
      vertex -0.4841553759636802 -3.695518130045147 1.4521499001250129
    endloop
  endfacet
  facet normal 0.1756867336532428 0.8314696123025453 -0.5270602009597285
    outer loop
      vertex 0.8943323226701076 2.8284271247461903 -2.683313195776349
      vertex 0.4839656393040621 3.695518130045147 -1.452213145678218
      vertex 29.31206360884387 2.8284271247461903 6.789263899614904
    endloop
  endfacet
  facet normal 0.2629337780093201 0.5555702330196026 -0.7888013340279605
    outer loop
      vertex 0.8943323226701076 2.8284271247461903 -2.683313195776349
      vertex 30.872355025966794 1.5307337294603591 6.395366866859268
      vertex 1.1685305742090897 1.5307337294603591 -3.5059079503933006
    endloop
  endfacet
  facet normal 0.06169297670266588 0.9807852804032304 -0.18507893010799764
    outer loop
      vertex 0.4839656393040621 3.695518130045147 -1.452213145678218
      vertex -0.00009486832980942772 4 -0.00003162277660373469
      vertex 27.856504271115554 3.695518130045147 7.671966398258945
    endloop
  endfacet
  facet normal -0.17568673365324286 0.8314696123025451 0.5270602009597287
    outer loop
      vertex -0.8945220593297232 2.8284271247461903 2.683249950223143
      vertex 26.096284243356024 3.695518130045147 10.312296439898244
      vertex -0.4841553759636812 3.695518130045147 1.4521499001250118
    endloop
  endfacet
  facet normal -0.06169297670266582 0.9807852804032304 0.1850789301079975
    outer loop
      vertex -0.00009486832980942772 4 -0.00003162277660373469
      vertex -0.4841553759636812 3.695518130045147 1.4521499001250118
      vertex 26.727272727272727 4 8.909090909090907
    endloop
  endfacet
  facet normal 0.26293377800932 -0.5555702330196027 -0.7888013340279604
    outer loop
      vertex 0.894332322670105 -2.8284271247461903 -2.683313195776349
      vertex 1.1685305742090903 -1.5307337294603591 -3.5059079503932997
      vertex 33.94027098345327 -2.8284271247461903 8.331999691151369
    endloop
  endfacet
  facet normal -0.2629337780093202 -0.5555702330196023 0.7888013340279606
    outer loop
      vertex -0.8945220593297254 -2.8284271247461903 2.683249950223143
      vertex 29.127644974033174 -1.5307337294603591 13.60463313314072
      vertex -1.1687203108687072 -1.5307337294603591 3.5058447048400936
    endloop
  endfacet
  facet normal -0.31015153816411145 -0.19509032201612891 0.9304546144923344
    outer loop
      vertex -1.1687203108687072 -1.5307337294603591 3.5058447048400936
      vertex 27.70016170169572 0 13.449757447456411
      vertex -1.2650059323971607 0 3.794701569425452
    endloop
  endfacet
  facet normal -0.17568673365324292 -0.8314696123025451 0.5270602009597288
    outer loop
      vertex -0.4841553759636802 -3.695518130045147 1.4521499001250129
      vertex 30.687808470726303 -2.8284271247461903 13.210693460241819
      vertex -0.8945220593297254 -2.8284271247461903 2.683249950223143
    endloop
  endfacet
  facet normal -0.31015153816411145 0.19509032201612875 0.9304546144923346
    outer loop
      vertex -1.2650059323971607 0 3.794701569425452
      vertex 26.62280796218898 1.5307337294603591 12.769687462525988
      vertex -1.1687203108687083 1.5307337294603591 3.5058447048400936
    endloop
  endfacet
  facet normal -0.2629337780093201 0.5555702330196027 0.7888013340279604
    outer loop
      vertex -0.8945220593297232 2.8284271247461903 2.683249950223143
      vertex -1.1687203108687083 1.5307337294603591 3.5058447048400936
      vertex 26.059601096116907 2.8284271247461903 11.667957668705352
    endloop
  endfacet
  facet normal 0.06169297670266589 0.9807852804032304 -0.18507893010799772
    outer loop
      vertex -0.00009486832980942772 4 -0.00003162277660373469
      vertex 26.727272727272727 4 8.909090909090907
      vertex 27.856504271115554 3.695518130045147 7.671966398258945
    endloop
  endfacet
  facet normal 0.2629337780093203 0.555570233019602 -0.7888013340279609
    outer loop
      vertex 0.8943323226701076 2.8284271247461903 -2.683313195776349
      vertex 29.31206360884387 2.8284271247461903 6.789263899614904
      vertex 30.872355025966794 1.5307337294603591 6.395366866859268
    endloop
  endfacet
  facet normal 0.17568673365324275 0.8314696123025457 -0.5270602009597282
    outer loop
      vertex 0.4839656393040621 3.695518130045147 -1.452213145678218
      vertex 27.856504271115554 3.695518130045147 7.671966398258945
      vertex 29.31206360884387 2.8284271247461903 6.789263899614904
    endloop
  endfacet
  facet normal 0.17568673365324233 -0.8314696123025463 -0.5270602009597272
    outer loop
      vertex 0.894332322670105 -2.8284271247461903 -2.683313195776349
      vertex 33.94027098345327 -2.8284271247461903 8.331999691151369
      vertex 33.90358783621415 -3.695518130045147 9.687660919958478
    endloop
  endfacet
  facet normal 0.2629337780093206 -0.5555702330196006 -0.7888013340279616
    outer loop
      vertex 1.1685305742090903 -1.5307337294603591 -3.5059079503932997
      vertex 33.377064117381195 -1.5307337294603591 7.2302698973307375
      vertex 33.94027098345327 -2.8284271247461903 8.331999691151369
    endloop
  endfacet
  facet normal 0.3101515381641115 -0.1950903220161287 -0.9304546144923345
    outer loop
      vertex 1.2648161957375426 0 -3.7947648149786573
      vertex 32.29971037787445 0 6.550199912400314
      vertex 33.377064117381195 -1.5307337294603591 7.2302698973307375
    endloop
  endfacet
  facet normal 0.31015153816419777 0.19509032201475746 -0.9304546144925933
    outer loop
      vertex 1.1685305742090897 1.5307337294603591 -3.5059079503933006
      vertex 30.872355025966794 1.5307337294603591 6.395366866859268
      vertex 30.872316574827135 1.5306377888193274 6.39533393374229
    endloop
  endfacet
  facet normal 0.3101515381641116 0.19509032201612772 -0.9304546144923348
    outer loop
      vertex 1.1685305742090897 1.5307337294603591 -3.5059079503933006
      vertex 30.872316574827135 1.5306377888193274 6.39533393374229
      vertex 32.29971037787445 0 6.550199912400314
    endloop
  endfacet
  facet normal -0.31015153816411145 0.195090322016129 0.9304546144923344
    outer loop
      vertex -1.2650059323971607 0 3.794701569425452
      vertex 27.70016170169572 0 13.449757447456411
      vertex 26.62280796218898 1.5307337294603591 12.769687462525988
    endloop
  endfacet
  facet normal -0.26293377799192497 -0.5555702330925 0.7888013339824156
    outer loop
      vertex -0.8945220593297254 -2.8284271247461903 2.683249950223143
      vertex 29.127555504743032 -1.5307657092491436 13.60458078597116
      vertex 29.127644974033174 -1.5307337294603591 13.60463313314072
    endloop
  endfacet
  facet normal -0.26293377800932044 -0.5555702330196014 0.7888013340279612
    outer loop
      vertex -0.8945220593297254 -2.8284271247461903 2.683249950223143
      vertex 30.687808470726303 -2.8284271247461903 13.210693460241819
      vertex 29.127555504743032 -1.5307657092491436 13.60458078597116
    endloop
  endfacet
  facet normal -0.31015153816411145 -0.1950903220161289 0.9304546144923345
    outer loop
      vertex -1.1687203108687072 -1.5307337294603591 3.5058447048400936
      vertex 29.127644974033174 -1.5307337294603591 13.60463313314072
      vertex 27.70016170169572 0 13.449757447456411
    endloop
  endfacet
  facet normal -0.17568673365324278 0.8314696123025456 0.5270602009597284
    outer loop
      vertex -0.8945220593297232 2.8284271247461903 2.683249950223143
      vertex 26.059601096116907 2.8284271247461903 11.667957668705352
      vertex 26.096284243356024 3.695518130045147 10.312296439898244
    endloop
  endfacet
  facet normal -0.26293377800932005 0.555570233019603 0.7888013340279603
    outer loop
      vertex -1.1687203108687083 1.5307337294603591 3.5058447048400936
      vertex 26.62280796218898 1.5307337294603591 12.769687462525988
      vertex 26.059601096116907 2.8284271247461903 11.667957668705352
    endloop
  endfacet
  facet normal -0.06169297670266585 0.9807852804032303 0.1850789301079976
    outer loop
      vertex -0.4841553759636812 3.695518130045147 1.4521499001250118
      vertex 26.096284243356024 3.695518130045147 10.312296439898244
      vertex 26.727272727272727 4 8.909090909090907
    endloop
  endfacet
  facet normal -0.061692976702665915 -0.9807852804032303 0.18507893010799772
    outer loop
      vertex -0.00009486832980809545 -4 -0.0000316227766032906
      vertex 33.27259935229744 -4 11.090866450765816
      vertex 32.14336780845462 -3.695518130045147 12.327990961597779
    endloop
  endfacet
  facet normal 0.061692976702665756 -0.9807852804032304 -0.18507893010799725
    outer loop
      vertex 0.4839656393040632 -3.695518130045147 -1.452213145678218
      vertex 33.90358783621415 -3.695518130045147 9.687660919958478
      vertex 33.27259935229744 -4 11.090866450765816
    endloop
  endfacet
  facet normal -0.17568673365324294 -0.8314696123025451 0.5270602009597289
    outer loop
      vertex -0.4841553759636802 -3.695518130045147 1.4521499001250129
      vertex 32.14336780845462 -3.695518130045147 12.327990961597779
      vertex 30.687808470726303 -2.8284271247461903 13.210693460241819
    endloop
  endfacet
  facet normal -0.31015153816356444 -0.1950903220248256 0.9304546144906934
    outer loop
      vertex 29.12777289446303 -1.5307337294603591 13.604675773284004
      vertex 29.12768342517286 -1.530637788819329 13.604666066257709
      vertex 29.127644974033174 -1.5307337294603591 13.60463313314072
    endloop
  endfacet
  facet normal 0.2629337779943189 -0.5555702330261828 -0.7888013340283262
    outer loop
      vertex 33.94052682431292 -2.8284271247461903 8.33208497143792
      vertex 33.37719203781102 -1.5307337294603527 7.230312537474011
      vertex 33.37731995824084 -1.5307337294603591 7.230355177617286
    endloop
  endfacet
  facet normal 0.17568673365559204 -0.8314696123022209 -0.5270602009594572
    outer loop
      vertex 33.94052682431292 -2.8284271247461903 8.33208497143792
      vertex 33.9038436770738 -3.695518130045147 9.687746200245028
      vertex 33.94039890388309 -2.8284271247461903 8.332042331294645
    endloop
  endfacet
  facet normal 0.17568673365480011 -0.8314696123023482 -0.5270602009595204
    outer loop
      vertex 33.94039890388309 -2.8284271247461903 8.332042331294645
      vertex 33.9038436770738 -3.695518130045147 9.687746200245028
      vertex 33.903715756643976 -3.695518130045147 9.687703560101752
    endloop
  endfacet
  facet normal 0.061692976703411784 -0.9807852804032461 -0.18507893010766527
    outer loop
      vertex 33.9038436770738 -3.695518130045147 9.687746200245028
      vertex 33.27285519315709 -4 11.090951731052366
      vertex 33.903715756643976 -3.695518130045147 9.687703560101752
    endloop
  endfacet
  facet normal 0.26293377801295104 -0.5555702330179708 -0.7888013340278994
    outer loop
      vertex 33.94052682431292 -2.8284271247461903 8.33208497143792
      vertex 33.94039890388309 -2.8284271247461903 8.332042331294645
      vertex 33.37719203781102 -1.5307337294603527 7.230312537474011
    endloop
  endfacet
  facet normal 0.3101515381004038 -0.19509032206577706 -0.9304546145031606
    outer loop
      vertex 32.2999662187341 0 6.550285192686863
      vertex 33.37731995824084 -1.5307337294603591 7.230355177617286
      vertex 32.29983829830427 2.154704436298931e-14 6.550242552543592
    endloop
  endfacet
  facet normal 0.3101515381627609 0.19509032201479393 -0.9304546144930647
    outer loop
      vertex 32.2999662187341 0 6.550285192686863
      vertex 32.29983829830427 2.154704436298931e-14 6.550242552543592
      vertex 30.872355025966794 1.5307337294603591 6.395366866859268
    endloop
  endfacet
  facet normal 0.3101515381688051 -0.19509032201196144 -0.9304546144916438
    outer loop
      vertex 32.29983829830427 2.154704436298931e-14 6.550242552543592
      vertex 33.37731995824084 -1.5307337294603591 7.230355177617286
      vertex 33.37719203781102 -1.5307337294603527 7.230312537474011
    endloop
  endfacet
  facet normal -0.1756867336553233 -0.8314696123028312 0.5270602009585842
    outer loop
      vertex 30.68806431158595 -2.8284271247461903 13.210778740528369
      vertex 32.143495728884446 -3.695518130045147 12.328033601741053
      vertex 32.14362364931427 -3.695518130045147 12.328076241884329
    endloop
  endfacet
  facet normal -0.2629337780093202 -0.5555702330196022 0.7888013340279606
    outer loop
      vertex 29.12777289446303 -1.5307337294603591 13.604675773284004
      vertex 29.127644974033174 -1.5307337294603591 13.60463313314072
      vertex 30.68793639115613 -2.8284271247461903 13.210736100385093
    endloop
  endfacet
  facet normal -0.26293377801755297 -0.5555702330270788 0.7888013340199507
    outer loop
      vertex 29.12777289446303 -1.5307337294603591 13.604675773284004
      vertex 30.68793639115613 -2.8284271247461903 13.210736100385093
      vertex 30.68806431158595 -2.8284271247461903 13.210778740528369
    endloop
  endfacet
  facet normal -0.17568673365854123 -0.8314696123052684 0.5270602009536667
    outer loop
      vertex 30.68806431158595 -2.8284271247461903 13.210778740528369
      vertex 30.68793639115613 -2.8284271247461903 13.210736100385093
      vertex 32.143495728884446 -3.695518130045147 12.328033601741053
    endloop
  endfacet
  facet normal -0.06169297670324706 -0.9807852804033128 0.1850789301073672
    outer loop
      vertex 33.27272727272727 -3.9999999999999996 11.090909090909092
      vertex 32.14362364931427 -3.695518130045147 12.328076241884329
      vertex 32.143495728884446 -3.695518130045147 12.328033601741053
    endloop
  endfacet
  facet normal 0.0616929767011206 -0.9807852804032318 -0.18507893010850546
    outer loop
      vertex 33.903715756643976 -3.695518130045147 9.687703560101752
      vertex 33.27285519315709 -4 11.090951731052366
      vertex 33.27272727272727 -3.9999999999999996 11.090909090909092
    endloop
  endfacet
  facet normal -0.06169297670661617 -0.980785280403643 0.18507893010449367
    outer loop
      vertex 33.27285519315709 -4 11.090951731052366
      vertex 32.14362364931427 -3.695518130045147 12.328076241884329
      vertex 33.27272727272727 -3.9999999999999996 11.090909090909092
    endloop
  endfacet
  facet normal 0.2629337780094084 0.5555702330114085 -0.7888013340337022
    outer loop
      vertex 30.87248294639662 1.5307337294603591 6.395409507002543
      vertex 30.872355025966794 1.5307337294603591 6.395366866859268
      vertex 30.872444495256964 1.5307657092491507 6.3954192140288395
    endloop
  endfacet
  facet normal 0.3101515381623215 0.19509032201439283 -0.9304546144932951
    outer loop
      vertex 32.2999662187341 0 6.550285192686863
      vertex 30.872355025966794 1.5307337294603591 6.395366866859268
      vertex 30.87248294639662 1.5307337294603591 6.395409507002543
    endloop
  endfacet
  facet normal -0.9486832980505139 8.364613851738285e-17 -0.31622776601683783
    outer loop
      vertex 0.4839656393040632 -3.695518130045147 -1.452213145678218
      vertex -0.00009486832980809545 -4 -0.0000316227766032906
      vertex 1.1685305742090903 -1.5307337294603591 -3.5059079503932997
    endloop
  endfacet
  facet normal -0.9486832980505152 4.049468836689184e-15 -0.316227766016834
    outer loop
      vertex 0.894332322670105 -2.8284271247461903 -2.683313195776349
      vertex 0.4839656393040632 -3.695518130045147 -1.452213145678218
      vertex 1.1685305742090903 -1.5307337294603591 -3.5059079503932997
    endloop
  endfacet
  facet normal -0.9486832980505139 -1.8904846673378038e-16 -0.316227766016838
    outer loop
      vertex 1.1685305742090903 -1.5307337294603591 -3.5059079503932997
      vertex -0.4841553759636802 -3.695518130045147 1.4521499001250129
      vertex 1.2648161957375426 0 -3.7947648149786573
    endloop
  endfacet
  facet normal -0.9486832980505137 -1.810758558315844e-16 -0.3162277660168379
    outer loop
      vertex 1.1685305742090903 -1.5307337294603591 -3.5059079503932997
      vertex -0.00009486832980809545 -4 -0.0000316227766032906
      vertex -0.4841553759636802 -3.695518130045147 1.4521499001250129
    endloop
  endfacet
  facet normal -0.9486832980505137 -9.260251665029195e-16 -0.31622776601683833
    outer loop
      vertex 1.2648161957375426 0 -3.7947648149786573
      vertex -0.4841553759636802 -3.695518130045147 1.4521499001250129
      vertex -0.8945220593297254 -2.8284271247461903 2.683249950223143
    endloop
  endfacet
  facet normal -0.9486832980505138 -3.630838810706231e-16 -0.31622776601683816
    outer loop
      vertex 1.2648161957375426 0 -3.7947648149786573
      vertex -0.8945220593297254 -2.8284271247461903 2.683249950223143
      vertex 1.1685305742090897 1.5307337294603591 -3.5059079503933006
    endloop
  endfacet
  facet normal -0.9486832980505141 1.0154034007097836e-15 -0.31622776601683733
    outer loop
      vertex -0.8945220593297254 -2.8284271247461903 2.683249950223143
      vertex 0.8943323226701076 2.8284271247461903 -2.683313195776349
      vertex 1.1685305742090897 1.5307337294603591 -3.5059079503933006
    endloop
  endfacet
  facet normal -0.9486832980505141 9.42874586373371e-16 -0.31622776601683744
    outer loop
      vertex -0.8945220593297254 -2.8284271247461903 2.683249950223143
      vertex -1.1687203108687072 -1.5307337294603591 3.5058447048400936
      vertex 0.8943323226701076 2.8284271247461903 -2.683313195776349
    endloop
  endfacet
  facet normal -0.9486832980505138 -4.710277376051327e-16 -0.3162277660168384
    outer loop
      vertex 0.8943323226701076 2.8284271247461903 -2.683313195776349
      vertex -1.1687203108687072 -1.5307337294603591 3.5058447048400936
      vertex -1.2650059323971607 0 3.794701569425452
    endloop
  endfacet
  facet normal -0.9486832980505138 -1.8107585583158463e-16 -0.316227766016838
    outer loop
      vertex 0.4839656393040621 3.695518130045147 -1.452213145678218
      vertex -1.1687203108687083 1.5307337294603591 3.5058447048400936
      vertex -0.00009486832980942772 4 -0.00003162277660373469
    endloop
  endfacet
  facet normal -0.9486832980505137 -1.064928941478357e-15 -0.31622776601683855
    outer loop
      vertex 0.8943323226701076 2.8284271247461903 -2.683313195776349
      vertex -1.2650059323971607 0 3.794701569425452
      vertex 0.4839656393040621 3.695518130045147 -1.452213145678218
    endloop
  endfacet
  facet normal -0.9486832980505138 0 -0.31622776601683783
    outer loop
      vertex 0.4839656393040621 3.695518130045147 -1.452213145678218
      vertex -1.2650059323971607 0 3.794701569425452
      vertex -1.1687203108687083 1.5307337294603591 3.5058447048400936
    endloop
  endfacet
  facet normal -0.9486832980505138 0 -0.3162277660168379
    outer loop
      vertex -0.00009486832980942772 4 -0.00003162277660373469
      vertex -1.1687203108687083 1.5307337294603591 3.5058447048400936
      vertex -0.4841553759636812 3.695518130045147 1.4521499001250118
    endloop
  endfacet
  facet normal -0.948683298050515 3.5730607382551615e-15 -0.31622776601683444
    outer loop
      vertex -0.8945220593297232 2.8284271247461903 2.683249950223143
      vertex -0.4841553759636812 3.695518130045147 1.4521499001250118
      vertex -1.1687203108687083 1.5307337294603591 3.5058447048400936
    endloop
  endfacet
  facet normal 0.6396021490674726 0.6396021490664648 0.4264014327108086
    outer loop
      vertex 33.94039890388309 -2.8282992043163637 8.33208497143792
      vertex 33.37731995824084 -1.5307337294603591 7.230355177617286
      vertex 33.37719203781102 -1.5306058090305381 7.230355177617282
    endloop
  endfacet
  facet normal 0.6396021490694224 0.6396021490649815 0.42640143271010905
    outer loop
      vertex 33.94052682431292 -2.8284271247461903 8.33208497143792
      vertex 33.94039890388309 -2.8282992043163637 8.33208497143792
      vertex 33.903715756643976 -3.6953902096153213 9.687746200245028
    endloop
  endfacet
  facet normal 0.639602149066894 0.6396021490667917 0.4264014327111859
    outer loop
      vertex 33.94052682431292 -2.8284271247461903 8.33208497143792
      vertex 33.903715756643976 -3.6953902096153213 9.687746200245028
      vertex 33.9038436770738 -3.695518130045147 9.687746200245028
    endloop
  endfacet
  facet normal 0.6396021490668308 0.6396021490668308 0.4264014327112224
    outer loop
      vertex 33.9038436770738 -3.695518130045147 9.687746200245028
      vertex 33.903715756643976 -3.6953902096153213 9.687746200245028
      vertex 33.27272727272727 -3.999872079570181 11.090951731052366
    endloop
  endfacet
  facet normal 0.6396021490700753 0.6396021490656344 0.4264014327081501
    outer loop
      vertex 33.94052682431292 -2.8284271247461903 8.33208497143792
      vertex 33.37731995824084 -1.5307337294603591 7.230355177617286
      vertex 33.94039890388309 -2.8282992043163637 8.33208497143792
    endloop
  endfacet
  facet normal 0.6396021490683746 0.6396021490668652 0.42640143270885483
    outer loop
      vertex 32.2999662187341 0 6.550285192686863
      vertex 32.29983829830427 0.0001279204298271648 6.550285192686861
      vertex 33.37719203781102 -1.5306058090305381 7.230355177617282
    endloop
  endfacet
  facet normal 0.639602149071518 0.6396021490700085 0.4264014326994249
    outer loop
      vertex 32.2999662187341 0 6.550285192686863
      vertex 30.87248294639662 1.5307337294603591 6.395409507002543
      vertex 32.29983829830427 0.0001279204298271648 6.550285192686861
    endloop
  endfacet
  facet normal 0.6396021490672765 0.6396021490672765 0.4264014327098852
    outer loop
      vertex 32.2999662187341 0 6.550285192686863
      vertex 33.37719203781102 -1.5306058090305381 7.230355177617282
      vertex 33.37731995824084 -1.5307337294603591 7.230355177617286
    endloop
  endfacet
  facet normal 0.6396021490670886 0.6396021490664597 0.4264014327113924
    outer loop
      vertex 30.687936391156125 -2.8282992043163655 13.21077874052837
      vertex 32.14362364931427 -3.695518130045147 12.328076241884329
      vertex 32.143495728884446 -3.6953902096153213 12.328076241884329
    endloop
  endfacet
  facet normal 0.6396021490677363 0.6396021490695869 0.42640143270573
    outer loop
      vertex 29.12777289446303 -1.5307337294603591 13.604675773284004
      vertex 30.687936391156125 -2.8282992043163655 13.21077874052837
      vertex 29.12768342517286 -1.530637788819329 13.604666066257709
    endloop
  endfacet
  facet normal 0.6396021490663828 0.6396021490649736 0.42640143271467995
    outer loop
      vertex 29.12777289446303 -1.5307337294603591 13.604675773284004
      vertex 30.68806431158595 -2.8284271247461903 13.210778740528369
      vertex 30.687936391156125 -2.8282992043163655 13.21077874052837
    endloop
  endfacet
  facet normal 0.6396021490670394 0.639602149065559 0.4264014327128168
    outer loop
      vertex 30.68806431158595 -2.8284271247461903 13.210778740528369
      vertex 32.14362364931427 -3.695518130045147 12.328076241884329
      vertex 30.687936391156125 -2.8282992043163655 13.21077874052837
    endloop
  endfacet
  facet normal 0.6396021490667191 0.6396021490669435 0.42640143271122083
    outer loop
      vertex 33.27285519315709 -4 11.090951731052366
      vertex 32.143495728884446 -3.6953902096153213 12.328076241884329
      vertex 32.14362364931427 -3.695518130045147 12.328076241884329
    endloop
  endfacet
  facet normal 0.6396021490677753 0.6396021490657974 0.4264014327113558
    outer loop
      vertex 33.9038436770738 -3.695518130045147 9.687746200245028
      vertex 33.27272727272727 -3.999872079570181 11.090951731052366
      vertex 33.27285519315709 -4 11.090951731052366
    endloop
  endfacet
  facet normal 0.6396021490675917 0.6396021490653713 0.4264014327122704
    outer loop
      vertex 33.27285519315709 -4 11.090951731052366
      vertex 33.27272727272727 -3.999872079570181 11.090951731052366
      vertex 32.143495728884446 -3.6953902096153213 12.328076241884329
    endloop
  endfacet
  facet normal 0.6396021490755889 0.6396021490729005 0.4264014326889809
    outer loop
      vertex 32.29983829830427 0.0001279204298271648 6.550285192686861
      vertex 30.87248294639662 1.5307337294603591 6.395409507002543
      vertex 30.872444495256964 1.5307657092491507 6.3954192140288395
    endloop
  endfacet
  facet normal -0.4042925332096392 -0.2892313170531504 0.8676939511294479
    outer loop
      vertex 29.127644974033203 -1.5308616498901793 13.604590492997458
      vertex 29.127644974033174 -1.5307337294603591 13.60463313314072
      vertex 29.127555504743032 -1.5307657092491436 13.60458078597116
    endloop
  endfacet
  facet normal 0.9326188779419822 0.11411486691259527 -0.34234460073989603
    outer loop
      vertex 33.94039890388309 -2.8284271247461903 8.332042331294645
      vertex 33.37719203781102 -1.530861649890181 7.230269897330735
      vertex 33.37719203781102 -1.5307337294603527 7.230312537474011
    endloop
  endfacet
  facet normal 0.9997237439807063 -0.007432601975146456 0.02229780592520714
    outer loop
      vertex 33.94039890388309 -2.8285550451760164 8.331999691151369
      vertex 33.94039890388309 -2.8284271247461903 8.332042331294645
      vertex 33.903715756643976 -3.695518130045147 9.687703560101752
    endloop
  endfacet
  facet normal 0.9997237439807048 -0.0074326019750069645 0.022297805925317642
    outer loop
      vertex 33.94039890388309 -2.8285550451760164 8.331999691151369
      vertex 33.903715756643976 -3.695518130045147 9.687703560101752
      vertex 33.903715756643976 -3.6956460504749704 9.687660919958478
    endloop
  endfacet
  facet normal 0.9146297325166325 -0.12784852458808008 0.38354557376823484
    outer loop
      vertex 33.903715756643976 -3.6956460504749704 9.687660919958478
      vertex 33.903715756643976 -3.695518130045147 9.687703560101752
      vertex 33.27272727272727 -4.000127920429829 11.090866450765816
    endloop
  endfacet
  facet normal 0.9326188779423056 0.11411486691403376 -0.34234460073853584
    outer loop
      vertex 33.94039890388309 -2.8285550451760164 8.331999691151369
      vertex 33.37719203781102 -1.530861649890181 7.230269897330735
      vertex 33.94039890388309 -2.8284271247461903 8.332042331294645
    endloop
  endfacet
  facet normal 0.7235312419475419 0.21828938176714216 -0.6548681453037446
    outer loop
      vertex 32.29983829830427 -0.00012792042982234797 6.550199912400311
      vertex 32.29983829830427 2.154704436298931e-14 6.550242552543592
      vertex 33.37719203781102 -1.5307337294603527 7.230312537474011
    endloop
  endfacet
  facet normal 0.4042925331934807 0.28923131704548666 -0.8676939511395314
    outer loop
      vertex 32.29983829830427 -0.00012792042982234797 6.550199912400311
      vertex 30.872355025966794 1.530605809030535 6.395324226715993
      vertex 32.29983829830427 2.154704436298931e-14 6.550242552543592
    endloop
  endfacet
  facet normal 0.7235312419467742 0.2182893817665094 -0.6548681453048036
    outer loop
      vertex 32.29983829830427 -0.00012792042982234797 6.550199912400311
      vertex 33.37719203781102 -1.5307337294603527 7.230312537474011
      vertex 33.37719203781102 -1.530861649890181 7.230269897330735
    endloop
  endfacet
  facet normal 0.36086289433448077 -0.2949199843139839 0.8847599529503926
    outer loop
      vertex 30.687936391156125 -2.828555045176014 13.21069346024182
      vertex 32.143495728884446 -3.6956460504749704 12.327990961597779
      vertex 32.143495728884446 -3.695518130045147 12.328033601741053
    endloop
  endfacet
  facet normal -0.023503951115154454 -0.316140406119683 0.9484212186051397
    outer loop
      vertex 29.127644974033203 -1.5308616498901793 13.604590492997458
      vertex 30.68793639115613 -2.8284271247461903 13.210736100385093
      vertex 29.127644974033174 -1.5307337294603591 13.60463313314072
    endloop
  endfacet
  facet normal -0.02350395116796992 -0.31614040617665795 0.9484212185848393
    outer loop
      vertex 29.127644974033203 -1.5308616498901793 13.604590492997458
      vertex 30.687936391156125 -2.828555045176014 13.21069346024182
      vertex 30.68793639115613 -2.8284271247461903 13.210736100385093
    endloop
  endfacet
  facet normal 0.3608628943365216 -0.294919984310543 0.8847599529507071
    outer loop
      vertex 30.687936391156125 -2.828555045176014 13.21069346024182
      vertex 32.143495728884446 -3.695518130045147 12.328033601741053
      vertex 30.68793639115613 -2.8284271247461903 13.210736100385093
    endloop
  endfacet
  facet normal 0.6902916354169374 -0.22880066828160664 0.6864020048537883
    outer loop
      vertex 33.27272727272727 -3.9999999999999996 11.090909090909092
      vertex 32.143495728884446 -3.695518130045147 12.328033601741053
      vertex 32.143495728884446 -3.6956460504749704 12.327990961597779
    endloop
  endfacet
  facet normal 0.9146297325166227 -0.12784852458762366 0.38354557376841025
    outer loop
      vertex 33.903715756643976 -3.695518130045147 9.687703560101752
      vertex 33.27272727272727 -3.9999999999999996 11.090909090909092
      vertex 33.27272727272727 -4.000127920429829 11.090866450765816
    endloop
  endfacet
  facet normal 0.6902916354171654 -0.228800668280654 0.6864020048538766
    outer loop
      vertex 33.27272727272727 -4.000127920429829 11.090866450765816
      vertex 33.27272727272727 -3.9999999999999996 11.090909090909092
      vertex 32.143495728884446 -3.6956460504749704 12.327990961597779
    endloop
  endfacet
  facet normal 0.023503951194333395 0.3161404061944032 -0.9484212185782708
    outer loop
      vertex 30.872355025966794 1.530605809030535 6.395324226715993
      vertex 30.872316574827135 1.5306377888193274 6.39533393374229
      vertex 30.872355025966794 1.5307337294603591 6.395366866859268
    endloop
  endfacet
  facet normal 0.4042925331956516 0.2892313170475686 -0.8676939511378259
    outer loop
      vertex 32.29983829830427 2.154704436298931e-14 6.550242552543592
      vertex 30.872355025966794 1.530605809030535 6.395324226715993
      vertex 30.872355025966794 1.5307337294603591 6.395366866859268
    endloop
  endfacet
  facet normal -0.9326188779420753 -0.1141148669131521 0.3423446007394564
    outer loop
      vertex 26.059601096116907 2.8284271247461903 11.667957668705352
      vertex 26.62280796218898 1.5307337294603591 12.769687462525988
      vertex 26.059601096116907 26.38050164566477 19.51864917567821
    endloop
  endfacet
  facet normal -0.3608628943325503 0.2949199843167523 -0.8847599529502571
    outer loop
      vertex 29.31206360884387 2.8284271247461903 6.789263899614904
      vertex 27.856504271115554 3.695518130045147 7.671966398258945
      vertex 29.312063608843875 31.702713030127075 16.414025868075196
    endloop
  endfacet
  facet normal -0.9146297325165814 0.12784852458931498 -0.38354557376794446
    outer loop
      vertex 26.727272727272727 4 8.909090909090907
      vertex 26.096284243356024 3.695518130045147 10.312296439898244
      vertex 26.72727272727273 28.644628099173556 17.12396694214876
    endloop
  endfacet
  facet normal -0.9997237439807058 0.007432601975082645 -0.02229780592524794
    outer loop
      vertex 26.059601096116907 2.8284271247461903 11.667957668705352
      vertex 26.059601096116907 26.38050164566477 19.51864917567821
      vertex 26.096284243356024 3.695518130045147 10.312296439898244
    endloop
  endfacet
  facet normal -0.6902916354159776 0.22880066828458673 -0.6864020048537604
    outer loop
      vertex 26.727272727272727 4 8.909090909090907
      vertex 27.856504271115554 30.18797966459788 16.50278690977652
      vertex 27.856504271115554 3.695518130045147 7.671966398258945
    endloop
  endfacet
  facet normal 0.9326188779420754 0.11411486691315209 -0.3423446007394564
    outer loop
      vertex 33.94039890388309 -2.8282992043163637 8.33208497143792
      vertex 33.37719203781102 -1.5306058090305381 7.230355177617282
      vertex 33.94039890388309 33.619370433905424 20.481308184178513
    endloop
  endfacet
  facet normal 0.9997237439807058 -0.007432601975082803 0.02229780592524784
    outer loop
      vertex 33.94039890388309 -2.8282992043163637 8.33208497143792
      vertex 33.90371575664398 32.692252460397015 21.81696042358247
      vertex 33.903715756643976 -3.6953902096153213 9.687746200245028
    endloop
  endfacet
  facet normal 0.9146297325165819 -0.12784852458931467 0.38354557376794407
    outer loop
      vertex 33.903715756643976 -3.6953902096153213 9.687746200245028
      vertex 33.27272727272727 31.355243980396633 22.875990417707968
      vertex 33.27272727272727 -3.999872079570181 11.090951731052366
    endloop
  endfacet
  facet normal 0.023503951182726183 0.31614040619300776 -0.9484212185790236
    outer loop
      vertex 29.31206360884387 2.8284271247461903 6.789263899614904
      vertex 29.312085645635474 31.70260284191592 16.41398968479135
      vertex 30.872355025966794 1.5307337294603591 6.395366866859268
    endloop
  endfacet
  facet normal 0.40429253318802605 0.28923131704717053 -0.8676939511415117
    outer loop
      vertex 30.872355025966794 1.5307337294603591 6.395366866859268
      vertex 30.872355025966797 32.95809585152167 16.871154240879704
      vertex 30.872444495256964 1.5307657092491507 6.3954192140288395
    endloop
  endfacet
  facet normal 0.40429253319427944 0.28923131704629623 -0.8676939511388894
    outer loop
      vertex 32.29983829830427 0.0001279204298271648 6.550285192686861
      vertex 30.872444495256964 1.5307657092491507 6.3954192140288395
      vertex 32.29983829830428 33.76324384043174 17.804657166020828
    endloop
  endfacet
  facet normal 0.7235312419479429 0.2182893817677047 -0.6548681453031141
    outer loop
      vertex 32.29983829830427 0.0001279204298271648 6.550285192686861
      vertex 33.37719203781102 33.995452593800586 19.072374645227658
      vertex 33.37719203781102 -1.5306058090305381 7.230355177617282
    endloop
  endfacet
  facet normal -0.723531241947945 -0.21828938176770396 0.6548681453031119
    outer loop
      vertex 27.70016170169572 0 13.449757447456411
      vertex 26.62280796218898 26.0044194857696 20.927582714629068
      vertex 26.62280796218898 1.5307337294603591 12.769687462525988
    endloop
  endfacet
  facet normal -0.4042925331942806 -0.28923131704629623 0.867693951138889
    outer loop
      vertex 27.70016170169572 0 13.449757447456411
      vertex 29.127644974033174 -1.5307337294603591 13.60463313314072
      vertex 27.700161701695727 26.236628239138458 22.195300193835898
    endloop
  endfacet
  facet normal -0.023503951456603174 -0.316140406190972 0.9484212185729148
    outer loop
      vertex 29.127644974033174 -1.5307337294603591 13.60463313314072
      vertex 29.12768342517286 -1.530637788819329 13.604666066257709
      vertex 29.127644974033206 27.041776228048523 23.128803118977025
    endloop
  endfacet
  facet normal -0.02350395118272664 -0.3161404061930079 0.9484212185790236
    outer loop
      vertex 29.12768342517286 -1.530637788819329 13.604666066257709
      vertex 30.687936391156125 -2.8282992043163655 13.21077874052837
      vertex 29.127644974033206 27.041776228048523 23.128803118977025
    endloop
  endfacet
  facet normal 0.3608628943325501 -0.2949199843167524 0.8847599529502571
    outer loop
      vertex 30.687936391156125 -2.8282992043163655 13.21077874052837
      vertex 32.143495728884446 -3.6953902096153213 12.328076241884329
      vertex 30.68793639115613 28.297286969872925 23.5859741319248
    endloop
  endfacet
  facet normal 0.6902916354159774 -0.22880066828458676 0.6864020048537605
    outer loop
      vertex 33.27272727272727 -3.999872079570181 11.090951731052366
      vertex 32.143495728884446 29.81189241497232 23.49717045008021
      vertex 32.143495728884446 -3.6953902096153213 12.328076241884329
    endloop
  endfacet
  facet normal -0.6902916354159793 0.22880066828458637 -0.6864020048537588
    outer loop
      vertex 26.727272727272727 4 8.909090909090907
      vertex 26.72727272727273 28.644628099173556 17.12396694214876
      vertex 27.856504271115554 30.18797966459788 16.50278690977652
    endloop
  endfacet
  facet normal -0.36086289433255053 0.2949199843167523 -0.884759952950257
    outer loop
      vertex 27.856504271115554 3.695518130045147 7.671966398258945
      vertex 27.856504271115554 30.18797966459788 16.50278690977652
      vertex 29.312063608843875 31.702713030127075 16.414025868075196
    endloop
  endfacet
  facet normal 0.023503951172184963 0.3161404061930861 -0.9484212185792587
    outer loop
      vertex 29.31206360884387 2.8284271247461903 6.789263899614904
      vertex 29.312063608843875 31.702713030127075 16.414025868075196
      vertex 29.312085645635474 31.70260284191592 16.41398968479135
    endloop
  endfacet
  facet normal 0.023503951182727603 0.31614040619300776 -0.9484212185790235
    outer loop
      vertex 30.872355025966794 1.5307337294603591 6.395366866859268
      vertex 29.312085645635474 31.70260284191592 16.41398968479135
      vertex 30.872355025966797 32.95809585152167 16.871154240879704
    endloop
  endfacet
  facet normal 0.40429253319427605 0.2892313170462969 -0.8676939511388907
    outer loop
      vertex 30.872444495256964 1.5307657092491507 6.3954192140288395
      vertex 30.872355025966797 32.95809585152167 16.871154240879704
      vertex 32.29983829830428 33.76324384043174 17.804657166020828
    endloop
  endfacet
  facet normal 0.7235312419479469 0.21828938176770316 -0.6548681453031102
    outer loop
      vertex 32.29983829830427 0.0001279204298271648 6.550285192686861
      vertex 32.29983829830428 33.76324384043174 17.804657166020828
      vertex 33.37719203781102 33.995452593800586 19.072374645227658
    endloop
  endfacet
  facet normal -0.9997237439807058 0.007432601975082659 -0.022297805925247972
    outer loop
      vertex 26.096284243356024 3.695518130045147 10.312296439898244
      vertex 26.059601096116907 26.38050164566477 19.51864917567821
      vertex 26.096284243356024 27.307619619173185 18.182996936274257
    endloop
  endfacet
  facet normal -0.9326188779420755 -0.11411486691315202 0.34234460073945605
    outer loop
      vertex 26.62280796218898 1.5307337294603591 12.769687462525988
      vertex 26.62280796218898 26.0044194857696 20.927582714629068
      vertex 26.059601096116907 26.38050164566477 19.51864917567821
    endloop
  endfacet
  facet normal -0.4042925331942807 -0.2892313170462962 0.8676939511388888
    outer loop
      vertex 29.127644974033174 -1.5307337294603591 13.60463313314072
      vertex 29.127644974033206 27.041776228048523 23.128803118977025
      vertex 27.700161701695727 26.236628239138458 22.195300193835898
    endloop
  endfacet
  facet normal -0.7235312419479429 -0.21828938176770452 0.6548681453031141
    outer loop
      vertex 27.70016170169572 0 13.449757447456411
      vertex 27.700161701695727 26.236628239138458 22.195300193835898
      vertex 26.62280796218898 26.0044194857696 20.927582714629068
    endloop
  endfacet
  facet normal -0.9146297325165809 0.12784852458931537 -0.38354557376794607
    outer loop
      vertex 26.096284243356024 3.695518130045147 10.312296439898244
      vertex 26.096284243356024 27.307619619173185 18.182996936274257
      vertex 26.72727272727273 28.644628099173556 17.12396694214876
    endloop
  endfacet
  facet normal 0.690291635415978 -0.2288006682845866 0.6864020048537599
    outer loop
      vertex 33.27272727272727 -3.999872079570181 11.090951731052366
      vertex 33.27272727272727 31.355243980396633 22.875990417707968
      vertex 32.143495728884446 29.81189241497232 23.49717045008021
    endloop
  endfacet
  facet normal -0.02350395118272608 -0.3161404061930078 0.9484212185790236
    outer loop
      vertex 30.687936391156125 -2.8282992043163655 13.21077874052837
      vertex 30.68793639115613 28.297286969872925 23.5859741319248
      vertex 29.127644974033206 27.041776228048523 23.128803118977025
    endloop
  endfacet
  facet normal 0.36086289433223573 -0.29491998431622984 0.8847599529505596
    outer loop
      vertex 32.143495728884446 -3.6953902096153213 12.328076241884329
      vertex 30.688042274794334 28.29726923765427 23.585925034922106
      vertex 30.68793639115613 28.297286969872925 23.5859741319248
    endloop
  endfacet
  facet normal 0.3608628943325505 -0.29491998431675237 0.8847599529502571
    outer loop
      vertex 32.143495728884446 -3.6953902096153213 12.328076241884329
      vertex 32.143495728884446 29.81189241497232 23.49717045008021
      vertex 30.688042274794334 28.29726923765427 23.585925034922106
    endloop
  endfacet
  facet normal 0.9326188779420752 0.11411486691315241 -0.34234460073945727
    outer loop
      vertex 33.37719203781102 -1.5306058090305381 7.230355177617282
      vertex 33.37719203781102 33.995452593800586 19.072374645227658
      vertex 33.94039890388309 33.619370433905424 20.481308184178513
    endloop
  endfacet
  facet normal 0.999723743980706 -0.00743260197508121 0.022297805925243636
    outer loop
      vertex 33.94039890388309 -2.8282992043163637 8.33208497143792
      vertex 33.94039890388309 33.619370433905424 20.481308184178513
      vertex 33.90371575664398 32.692252460397015 21.81696042358247
    endloop
  endfacet
  facet normal 0.9146297325165804 -0.1278485245893159 0.38354557376794723
    outer loop
      vertex 33.903715756643976 -3.6953902096153213 9.687746200245028
      vertex 33.90371575664398 32.692252460397015 21.81696042358247
      vertex 33.27272727272727 31.355243980396633 22.875990417707968
    endloop
  endfacet
  facet normal -0.3608628943208032 0.29491998432556144 -0.8847599529521121
    outer loop
      vertex 29.312063608843875 31.702840950556894 16.41406850821847
      vertex 29.312063608843875 31.702713030127075 16.414025868075196
      vertex 29.31195772520567 31.702730762345738 16.41407496507789
    endloop
  endfacet
  facet normal -0.023503951204631605 -0.3161404062007471 0.948421218575901
    outer loop
      vertex 30.68793639115613 28.297414890302733 23.58601677206807
      vertex 30.687914354364523 28.297397158084078 23.586010315208647
      vertex 30.68793639115613 28.297286969872925 23.5859741319248
    endloop
  endfacet
  facet normal 0.3608628943390919 -0.2949199843233236 0.8847599529453987
    outer loop
      vertex 30.68793639115613 28.297414890302733 23.58601677206807
      vertex 30.68793639115613 28.297286969872925 23.5859741319248
      vertex 32.143495728884446 29.812020335402124 23.49721309022348
    endloop
  endfacet
  facet normal 0.02350395117560404 0.3161404062009629 -0.9484212185765484
    outer loop
      vertex 29.312063608843875 31.702840950556894 16.41406850821847
      vertex 30.872355025966776 32.95822377195148 16.87119688102298
      vertex 29.312063608843875 31.702713030127075 16.414025868075196
    endloop
  endfacet
  facet normal 0.023503951193121375 0.3161404061813772 -0.9484212185826429
    outer loop
      vertex 29.312063608843875 31.702840950556894 16.41406850821847
      vertex 30.872355025966797 32.958351692381285 16.871239521166245
      vertex 30.872355025966776 32.95822377195148 16.87119688102298
    endloop
  endfacet
  facet normal 0.40429253323867115 0.2892313169722287 -0.8676939511428947
    outer loop
      vertex 30.872355025966797 32.958351692381285 16.871239521166245
      vertex 32.29983829830428 33.76349968129135 17.804742446307365
      vertex 30.872355025966776 32.95822377195148 16.87119688102298
    endloop
  endfacet
  facet normal 0.40429253319427016 0.28923131704629773 -0.8676939511388931
    outer loop
      vertex 32.29983829830428 33.76349968129135 17.804742446307365
      vertex 32.29983829830428 33.76337176086154 17.804699806164095
      vertex 30.872355025966776 32.95822377195148 16.87119688102298
    endloop
  endfacet
  facet normal 0.7235312419479464 0.21828938176770354 -0.6548681453031107
    outer loop
      vertex 32.29983829830428 33.76349968129135 17.804742446307365
      vertex 33.37719203781102 33.9955805142304 19.07241728537093
      vertex 32.29983829830428 33.76337176086154 17.804699806164095
    endloop
  endfacet
  facet normal 0.7235312419479817 0.2182893817676127 -0.6548681453031019
    outer loop
      vertex 32.29983829830428 33.76349968129135 17.804742446307365
      vertex 33.37719203781102 33.99570843466021 19.0724599255142
      vertex 33.37719203781102 33.9955805142304 19.07241728537093
    endloop
  endfacet
  facet normal 0.9326188779420753 0.11411486691315219 -0.34234460073945655
    outer loop
      vertex 33.37719203781102 33.99570843466021 19.0724599255142
      vertex 33.94039890388309 33.619498354335235 20.481350824321787
      vertex 33.37719203781102 33.9955805142304 19.07241728537093
    endloop
  endfacet
  facet normal 0.360862894325836 -0.2949199843100167 0.8847599529552408
    outer loop
      vertex 30.68793639115613 28.297414890302733 23.58601677206807
      vertex 32.143495728884446 29.812020335402124 23.49721309022348
      vertex 32.143495728884446 29.81214825583194 23.49725573036675
    endloop
  endfacet
  facet normal 0.6902916354124364 -0.22880066827993617 0.6864020048588718
    outer loop
      vertex 32.143495728884446 29.81214825583194 23.49725573036675
      vertex 32.143495728884446 29.812020335402124 23.49721309022348
      vertex 33.27272727272727 31.355371900826448 22.876033057851238
    endloop
  endfacet
  facet normal 0.6902916354235804 -0.22880066829384638 0.6864020048430278
    outer loop
      vertex 32.143495728884446 29.81214825583194 23.49725573036675
      vertex 33.27272727272727 31.355371900826448 22.876033057851238
      vertex 33.27272727272727 31.355499821256252 22.87607569799451
    endloop
  endfacet
  facet normal 0.9326188779421766 0.11411486691018108 -0.34234460074017103
    outer loop
      vertex 33.37719203781102 33.99570843466021 19.0724599255142
      vertex 33.94039890388309 33.61962627476504 20.481393464465054
      vertex 33.94039890388309 33.619498354335235 20.481350824321787
    endloop
  endfacet
  facet normal 0.999723743980706 -0.007432601975081236 0.02229780592524371
    outer loop
      vertex 33.90371575664398 32.69250830125663 21.817045703869006
      vertex 33.90371575664398 32.69238038082682 21.817003063725736
      vertex 33.94039890388309 33.619498354335235 20.481350824321787
    endloop
  endfacet
  facet normal 0.9997237439807045 -0.0074326019749244255 0.022297805925366773
    outer loop
      vertex 33.90371575664398 32.69250830125663 21.817045703869006
      vertex 33.94039890388309 33.619498354335235 20.481350824321787
      vertex 33.94039890388309 33.61962627476504 20.481393464465054
    endloop
  endfacet
  facet normal 0.9146297325182096 -0.12784852459454155 0.38354557376232035
    outer loop
      vertex 33.27272727272727 31.355499821256252 22.87607569799451
      vertex 33.27272727272727 31.355371900826448 22.876033057851238
      vertex 33.90371575664398 32.69238038082682 21.817003063725736
    endloop
  endfacet
  facet normal 0.9146297325165631 -0.12784852458932802 0.3835455737679841
    outer loop
      vertex 33.27272727272727 31.355499821256252 22.87607569799451
      vertex 33.90371575664398 32.69238038082682 21.817003063725736
      vertex 33.90371575664398 32.69250830125663 21.817045703869006
    endloop
  endfacet
  facet normal -0.6396021490594109 -0.639602149069488 -0.42640143271836645
    outer loop
      vertex 33.94027098345327 -2.8284271247461903 8.331999691151369
      vertex 33.377064117381195 -1.5307337294603591 7.2302698973307375
      vertex 33.37719203781102 -1.530861649890181 7.230269897330735
    endloop
  endfacet
  facet normal -0.639602149068127 -0.6396021490659065 -0.4264014327106646
    outer loop
      vertex 33.94039890388309 -2.8285550451760164 8.331999691151369
      vertex 33.90358783621415 -3.695518130045147 9.687660919958478
      vertex 33.94027098345327 -2.8284271247461903 8.331999691151369
    endloop
  endfacet
  facet normal -0.6396021490602065 -0.6396021490715439 -0.4264014327140896
    outer loop
      vertex 33.94039890388309 -2.8285550451760164 8.331999691151369
      vertex 33.903715756643976 -3.6956460504749704 9.687660919958478
      vertex 33.90358783621415 -3.695518130045147 9.687660919958478
    endloop
  endfacet
  facet normal -0.6396021490616319 -0.639602149072734 -0.4264014327101657
    outer loop
      vertex 33.903715756643976 -3.6956460504749704 9.687660919958478
      vertex 33.27259935229744 -4 11.090866450765816
      vertex 33.90358783621415 -3.695518130045147 9.687660919958478
    endloop
  endfacet
  facet normal -0.6396021490684518 -0.6396021490662313 -0.4264014327096901
    outer loop
      vertex 33.94039890388309 -2.8285550451760164 8.331999691151369
      vertex 33.94027098345327 -2.8284271247461903 8.331999691151369
      vertex 33.37719203781102 -1.530861649890181 7.230269897330735
    endloop
  endfacet
  facet normal -0.6396021490588826 -0.6396021490666541 -0.42640143272340997
    outer loop
      vertex 32.29983829830427 -0.00012792042982234797 6.550199912400311
      vertex 33.377064117381195 -1.5307337294603591 7.2302698973307375
      vertex 32.29971037787445 0 6.550199912400314
    endloop
  endfacet
  facet normal -0.6396021490427038 -0.6396021490504755 -0.4264014327719454
    outer loop
      vertex 32.29983829830427 -0.00012792042982234797 6.550199912400311
      vertex 32.29971037787445 0 6.550199912400314
      vertex 30.872355025966794 1.530605809030535 6.395324226715993
    endloop
  endfacet
  facet normal -0.6396021490572217 -0.6396021490662005 -0.4264014327265813
    outer loop
      vertex 32.29983829830427 -0.00012792042982234797 6.550199912400311
      vertex 33.37719203781102 -1.530861649890181 7.230269897330735
      vertex 33.377064117381195 -1.5307337294603591 7.2302698973307375
    endloop
  endfacet
  facet normal -0.639602149065059 -0.6396021490763788 -0.42640143269955805
    outer loop
      vertex 30.687808470726303 -2.8284271247461903 13.210693460241819
      vertex 32.14336780845462 -3.695518130045147 12.327990961597779
      vertex 32.143495728884446 -3.6956460504749704 12.327990961597779
    endloop
  endfacet
  facet normal -0.6396021490657462 -0.6396021490635252 -0.4264014327178075
    outer loop
      vertex 29.127644974033203 -1.5308616498901793 13.604590492997458
      vertex 29.127555504743032 -1.5307657092491436 13.60458078597116
      vertex 30.687936391156125 -2.828555045176014 13.21069346024182
    endloop
  endfacet
  facet normal -0.6396021490662548 -0.6396021490620268 -0.4264014327192924
    outer loop
      vertex 29.127555504743032 -1.5307657092491436 13.60458078597116
      vertex 30.687808470726303 -2.8284271247461903 13.210693460241819
      vertex 30.687936391156125 -2.828555045176014 13.21069346024182
    endloop
  endfacet
  facet normal -0.6396021490672487 -0.639602149064288 -0.4264014327144099
    outer loop
      vertex 30.687936391156125 -2.828555045176014 13.21069346024182
      vertex 30.687808470726303 -2.8284271247461903 13.210693460241819
      vertex 32.143495728884446 -3.6956460504749704 12.327990961597779
    endloop
  endfacet
  facet normal -0.6396021490630376 -0.6396021490742554 -0.42640143270577513
    outer loop
      vertex 33.27272727272727 -4.000127920429829 11.090866450765816
      vertex 32.143495728884446 -3.6956460504749704 12.327990961597779
      vertex 32.14336780845462 -3.695518130045147 12.327990961597779
    endloop
  endfacet
  facet normal -0.6396021490584967 -0.6396021490762989 -0.4264014327095216
    outer loop
      vertex 33.903715756643976 -3.6956460504749704 9.687660919958478
      vertex 33.27272727272727 -4.000127920429829 11.090866450765816
      vertex 33.27259935229744 -4 11.090866450765816
    endloop
  endfacet
  facet normal -0.639602149060758 -0.6396021490785215 -0.42640143270279585
    outer loop
      vertex 33.27272727272727 -4.000127920429829 11.090866450765816
      vertex 32.14336780845462 -3.695518130045147 12.327990961597779
      vertex 33.27259935229744 -4 11.090866450765816
    endloop
  endfacet
  facet normal -0.6396021490357117 -0.6396021490464651 -0.4264014327884498
    outer loop
      vertex 32.29971037787445 0 6.550199912400314
      vertex 30.872316574827135 1.5306377888193274 6.39533393374229
      vertex 30.872355025966794 1.530605809030535 6.395324226715993
    endloop
  endfacet
  facet normal -0.6396021490368498 0.6396021490427679 0.4264014327922882
    outer loop
      vertex 30.68793639115613 28.297414890302733 23.58601677206807
      vertex 32.143495728884446 29.81214825583194 23.49725573036675
      vertex 30.687914354364523 28.297397158084078 23.586010315208647
    endloop
  endfacet
  facet normal -0.6396021490607903 0.6396021490430274 0.4264014327559883
    outer loop
      vertex 29.312063608843875 31.702840950556894 16.41406850821847
      vertex 29.31195772520567 31.702730762345738 16.41407496507789
      vertex 30.87222710553699 32.95822377195148 16.871239521166242
    endloop
  endfacet
  facet normal -0.6396021490694805 0.6396021490743374 0.42640143269598774
    outer loop
      vertex 29.312063608843875 31.702840950556894 16.41406850821847
      vertex 30.87222710553699 32.95822377195148 16.871239521166242
      vertex 30.872355025966797 32.958351692381285 16.871239521166245
    endloop
  endfacet
  facet normal -0.6396021490657998 0.639602149071721 0.42640143270543346
    outer loop
      vertex 30.872355025966797 32.958351692381285 16.871239521166245
      vertex 30.87222710553699 32.95822377195148 16.871239521166242
      vertex 32.299710377874476 33.76337176086154 17.80474244630737
    endloop
  endfacet
  facet normal -0.6396021490711831 0.6396021490468022 0.42640143273473674
    outer loop
      vertex 30.872355025966797 32.958351692381285 16.871239521166245
      vertex 32.299710377874476 33.76337176086154 17.80474244630737
      vertex 32.29983829830428 33.76349968129135 17.804742446307365
    endloop
  endfacet
  facet normal -0.6396021490753393 0.6396021490516545 0.4264014327212241
    outer loop
      vertex 32.29983829830428 33.76349968129135 17.804742446307365
      vertex 32.299710377874476 33.76337176086154 17.80474244630737
      vertex 33.37706411738121 33.9955805142304 19.072459925514202
    endloop
  endfacet
  facet normal -0.6396021490626316 0.6396021490744545 0.4264014327060857
    outer loop
      vertex 32.29983829830428 33.76349968129135 17.804742446307365
      vertex 33.37706411738121 33.9955805142304 19.072459925514202
      vertex 33.37719203781102 33.99570843466021 19.0724599255142
    endloop
  endfacet
  facet normal -0.6396021490611237 0.6396021490729661 0.42640143271058
    outer loop
      vertex 33.37719203781102 33.99570843466021 19.0724599255142
      vertex 33.37706411738121 33.9955805142304 19.072459925514202
      vertex 33.94027098345329 33.619498354335235 20.481393464465054
    endloop
  endfacet
  facet normal -0.6396021490968004 0.6396021490908791 0.4264014326301954
    outer loop
      vertex 32.143495728884446 29.81214825583194 23.49725573036675
      vertex 32.143367808454634 29.812020335402124 23.497255730366753
      vertex 30.687914354364523 28.297397158084078 23.586010315208647
    endloop
  endfacet
  facet normal -0.6396021490732682 0.6396021490673469 0.4264014327007922
    outer loop
      vertex 32.143495728884446 29.81214825583194 23.49725573036675
      vertex 33.27272727272727 31.355499821256252 22.87607569799451
      vertex 32.143367808454634 29.812020335402124 23.497255730366753
    endloop
  endfacet
  facet normal -0.6396021490668333 0.6396021490668333 0.42640143271121483
    outer loop
      vertex 33.27272727272727 31.355499821256252 22.87607569799451
      vertex 33.27259935229747 31.355371900826448 22.87607569799451
      vertex 32.143367808454634 29.812020335402124 23.497255730366753
    endloop
  endfacet
  facet normal -0.6396021490668223 0.6396021490668223 0.42640143271124775
    outer loop
      vertex 33.37719203781102 33.99570843466021 19.0724599255142
      vertex 33.94027098345329 33.619498354335235 20.481393464465054
      vertex 33.94039890388309 33.61962627476504 20.481393464465054
    endloop
  endfacet
  facet normal -0.6396021490668315 0.6396021490668315 0.42640143271121994
    outer loop
      vertex 33.90371575664398 32.69250830125663 21.817045703869006
      vertex 33.94039890388309 33.61962627476504 20.481393464465054
      vertex 33.90358783621417 32.69238038082682 21.817045703869006
    endloop
  endfacet
  facet normal -0.6396021490668317 0.6396021490668317 0.42640143271122
    outer loop
      vertex 33.94039890388309 33.61962627476504 20.481393464465054
      vertex 33.94027098345329 33.619498354335235 20.481393464465054
      vertex 33.90358783621417 32.69238038082682 21.817045703869006
    endloop
  endfacet
  facet normal -0.6396021490668312 0.6396021490668312 0.42640143271122083
    outer loop
      vertex 33.27272727272727 31.355499821256252 22.87607569799451
      vertex 33.90371575664398 32.69250830125663 21.817045703869006
      vertex 33.27259935229747 31.355371900826448 22.87607569799451
    endloop
  endfacet
  facet normal -0.6396021490668312 0.6396021490668312 0.4264014327112209
    outer loop
      vertex 33.90371575664398 32.69250830125663 21.817045703869006
      vertex 33.90358783621417 32.69238038082682 21.817045703869006
      vertex 33.27259935229747 31.355371900826448 22.87607569799451
    endloop
  endfacet
  facet normal -0.27089965330336385 -0.5158815546239007 -0.8126989599100914
    outer loop
      vertex -0.9355673631119266 27.307619619173185 27.193614138430238
      vertex -1.1901775129579049 28.644628099173556 26.429783688892304
      vertex 26.72727272727273 28.644628099173556 17.12396694214876
    endloop
  endfacet
  facet normal -0.3127081168539305 -0.14878285027746083 -0.9381243505617917
    outer loop
      vertex -1.1901775129579049 28.644628099173556 26.429783688892304
      vertex -1.2636083682852957 30.187979664597883 26.209491122910137
      vertex 27.856504271115554 30.18797966459788 16.50278690977652
    endloop
  endfacet
  facet normal -0.30690960431962466 0.24096669430382714 -0.9207288129588741
    outer loop
      vertex -1.2636083682852957 30.187979664597883 26.209491122910137
      vertex -1.144680747022863 31.70271303012708 26.566273986697443
      vertex 29.312063608843875 31.702713030127075 16.414025868075196
    endloop
  endfacet
  facet normal -0.2543868866701474 0.5940312440458798 -0.7631606600104425
    outer loop
      vertex -1.144680747022863 31.70271303012708 26.566273986697443
      vertex -0.8515003014262377 32.95822377195149 27.445815323487317
      vertex 29.312063608843875 31.702713030127075 16.414025868075196
    endloop
  endfacet
  facet normal -0.16313607154800844 0.8566599217885882 -0.48940821464402595
    outer loop
      vertex -0.8515003014262377 32.95822377195149 27.445815323487317
      vertex -0.4287010966501499 33.763371760861546 28.714212937815578
      vertex 30.87222710553699 32.95822377195148 16.871239521166242
    endloop
  endfacet
  facet normal -0.18784917324883174 -0.8044419687567923 -0.5635475197464951
    outer loop
      vertex -0.5385400060146539 26.380501645664765 28.38469620972207
      vertex -0.9355673631119266 27.307619619173185 27.193614138430238
      vertex 26.059601096116907 26.38050164566477 19.51864917567821
    endloop
  endfacet
  facet normal -0.07620035942416202 -0.9705333854310655 -0.22860107827248624
    outer loop
      vertex -0.5385400060146539 26.380501645664765 28.38469620972207
      vertex 26.059601096116907 26.38050164566477 19.51864917567821
      vertex -0.059539257722188044 26.0044194857696 29.821698454599456
    endloop
  endfacet
  facet normal 0.04704926836485929 -0.9888698920805075 0.1411478050945779
    outer loop
      vertex -0.059539257722188044 26.0044194857696 29.821698454599456
      vertex 26.62280796218898 26.0044194857696 20.927582714629068
      vertex 0.42851135999053547 26.236628239138458 31.285850307737626
    endloop
  endfacet
  facet normal 0.16313607154801005 -0.8566599217885855 0.4894082146440303
    outer loop
      vertex 0.42851135999053547 26.236628239138458 31.285850307737626
      vertex 27.700161701695727 26.236628239138458 22.195300193835898
      vertex 0.8513105647666201 27.041776228048523 32.55424792206588
    endloop
  endfacet
  facet normal 0.25438688667014653 -0.5940312440458835 0.7631606600104399
    outer loop
      vertex 0.8513105647666201 27.041776228048523 32.55424792206588
      vertex 29.127644974033206 27.041776228048523 23.128803118977025
      vertex 1.1444910103632466 28.297286969872925 33.43378925885576
    endloop
  endfacet
  facet normal 0.3069096043196246 -0.2409666943038288 0.9207288129588738
    outer loop
      vertex 1.1444910103632466 28.297286969872925 33.43378925885576
      vertex 30.687914354364523 28.297397158084078 23.586010315208647
      vertex 1.2634186316256801 29.812020335402124 33.79057212264307
    endloop
  endfacet
  facet normal -0.047049268364859106 0.9888698920805075 -0.14114780509457794
    outer loop
      vertex -0.4287010966501499 33.763371760861546 28.714212937815578
      vertex 0.059349521062573185 33.995580514230404 30.178364790953747
      vertex 32.299710377874476 33.76337176086154 17.80474244630737
    endloop
  endfacet
  facet normal 0.07620035942416126 0.9705333854310663 0.2286010782724832
    outer loop
      vertex 0.059349521062573185 33.995580514230404 30.178364790953747
      vertex 0.538350269355039 33.61949835433524 31.61536703583114
      vertex 33.37706411738121 33.9955805142304 19.072459925514202
    endloop
  endfacet
  facet normal 0.18784917324883346 0.8044419687567883 0.5635475197465004
    outer loop
      vertex 0.9353776264523126 32.69238038082682 32.80644910712296
      vertex 33.90358783621417 32.69238038082682 21.817045703869006
      vertex 0.538350269355039 33.61949835433524 31.61536703583114
    endloop
  endfacet
  facet normal 0.31270811685393046 0.14878285027746255 0.9381243505617914
    outer loop
      vertex 1.2634186316256801 29.812020335402124 33.79057212264307
      vertex 32.143367808454634 29.812020335402124 23.497255730366753
      vertex 1.1899877762982913 31.35537190082645 33.5702795566609
    endloop
  endfacet
  facet normal 0.270899653303363 0.5158815546239051 0.8126989599100891
    outer loop
      vertex 1.1899877762982913 31.35537190082645 33.5702795566609
      vertex 33.90358783621417 32.69238038082682 21.817045703869006
      vertex 0.9353776264523126 32.69238038082682 32.80644910712296
    endloop
  endfacet
  facet normal -0.07620035942416249 -0.9705333854310652 -0.2286010782724875
    outer loop
      vertex -0.059539257722188044 26.0044194857696 29.821698454599456
      vertex 26.059601096116907 26.38050164566477 19.51864917567821
      vertex 26.62280796218898 26.0044194857696 20.927582714629068
    endloop
  endfacet
  facet normal -0.2708996533033634 -0.5158815546239024 -0.8126989599100904
    outer loop
      vertex -0.9355673631119266 27.307619619173185 27.193614138430238
      vertex 26.72727272727273 28.644628099173556 17.12396694214876
      vertex 26.096284243356024 27.307619619173185 18.182996936274257
    endloop
  endfacet
  facet normal -0.18784917324883194 -0.8044419687567919 -0.5635475197464959
    outer loop
      vertex -0.9355673631119266 27.307619619173185 27.193614138430238
      vertex 26.096284243356024 27.307619619173185 18.182996936274257
      vertex 26.059601096116907 26.38050164566477 19.51864917567821
    endloop
  endfacet
  facet normal -0.3127081168539305 -0.14878285027745985 -0.9381243505617917
    outer loop
      vertex -1.1901775129579049 28.644628099173556 26.429783688892304
      vertex 27.856504271115554 30.18797966459788 16.50278690977652
      vertex 26.72727272727273 28.644628099173556 17.12396694214876
    endloop
  endfacet
  facet normal -0.30690960431962466 0.24096669430382697 -0.9207288129588741
    outer loop
      vertex -1.2636083682852957 30.187979664597883 26.209491122910137
      vertex 29.312063608843875 31.702713030127075 16.414025868075196
      vertex 27.856504271115554 30.18797966459788 16.50278690977652
    endloop
  endfacet
  facet normal -0.2543868867225383 0.5940312438605205 -0.7631606601372593
    outer loop
      vertex -0.8515003014262377 32.95822377195149 27.445815323487317
      vertex 29.31195772520567 31.702730762345738 16.41407496507789
      vertex 29.312063608843875 31.702713030127075 16.414025868075196
    endloop
  endfacet
  facet normal -0.25438688667014664 0.5940312440458826 -0.7631606600104405
    outer loop
      vertex -0.8515003014262377 32.95822377195149 27.445815323487317
      vertex 30.87222710553699 32.95822377195148 16.871239521166242
      vertex 29.31195772520567 31.702730762345738 16.41407496507789
    endloop
  endfacet
  facet normal -0.1631360715480087 0.856659921788588 -0.48940821464402656
    outer loop
      vertex -0.4287010966501499 33.763371760861546 28.714212937815578
      vertex 32.299710377874476 33.76337176086154 17.80474244630737
      vertex 30.87222710553699 32.95822377195148 16.871239521166242
    endloop
  endfacet
  facet normal -0.04704926836485909 0.9888698920805075 -0.14114780509457792
    outer loop
      vertex 0.059349521062573185 33.995580514230404 30.178364790953747
      vertex 33.37706411738121 33.9955805142304 19.072459925514202
      vertex 32.299710377874476 33.76337176086154 17.80474244630737
    endloop
  endfacet
  facet normal 0.07620035942416153 0.970533385431066 0.2286010782724839
    outer loop
      vertex 0.538350269355039 33.61949835433524 31.61536703583114
      vertex 33.94027098345329 33.619498354335235 20.481393464465054
      vertex 33.37706411738121 33.9955805142304 19.072459925514202
    endloop
  endfacet
  facet normal 0.04704926836485922 -0.9888698920805075 0.1411478050945777
    outer loop
      vertex 0.42851135999053547 26.236628239138458 31.285850307737626
      vertex 26.62280796218898 26.0044194857696 20.927582714629068
      vertex 27.700161701695727 26.236628239138458 22.195300193835898
    endloop
  endfacet
  facet normal 0.1631360715480101 -0.8566599217885854 0.4894082146440305
    outer loop
      vertex 0.8513105647666201 27.041776228048523 32.55424792206588
      vertex 27.700161701695727 26.236628239138458 22.195300193835898
      vertex 29.127644974033206 27.041776228048523 23.128803118977025
    endloop
  endfacet
  facet normal 0.2543868866701471 -0.5940312440458814 0.7631606600104412
    outer loop
      vertex 1.1444910103632466 28.297286969872925 33.43378925885576
      vertex 29.127644974033206 27.041776228048523 23.128803118977025
      vertex 30.68793639115613 28.297286969872925 23.5859741319248
    endloop
  endfacet
  facet normal 0.30690960432014175 -0.24096669429724146 0.9207288129604253
    outer loop
      vertex 1.1444910103632466 28.297286969872925 33.43378925885576
      vertex 30.68793639115613 28.297286969872925 23.5859741319248
      vertex 30.687914354364523 28.297397158084078 23.586010315208647
    endloop
  endfacet
  facet normal 0.31270811685393046 0.14878285027746208 0.9381243505617914
    outer loop
      vertex 1.1899877762982913 31.35537190082645 33.5702795566609
      vertex 32.143367808454634 29.812020335402124 23.497255730366753
      vertex 33.27259935229747 31.355371900826448 22.87607569799451
    endloop
  endfacet
  facet normal 0.30690960431962444 -0.24096669430383005 0.9207288129588734
    outer loop
      vertex 1.2634186316256801 29.812020335402124 33.79057212264307
      vertex 30.687914354364523 28.297397158084078 23.586010315208647
      vertex 32.143367808454634 29.812020335402124 23.497255730366753
    endloop
  endfacet
  facet normal 0.2708996533033632 0.5158815546239044 0.8126989599100894
    outer loop
      vertex 1.1899877762982913 31.35537190082645 33.5702795566609
      vertex 33.27259935229747 31.355371900826448 22.87607569799451
      vertex 33.90358783621417 32.69238038082682 21.817045703869006
    endloop
  endfacet
  facet normal 0.18784917324883224 0.8044419687567916 0.563547519746496
    outer loop
      vertex 0.538350269355039 33.61949835433524 31.61536703583114
      vertex 33.90358783621417 32.69238038082682 21.817045703869006
      vertex 33.94027098345329 33.619498354335235 20.481393464465054
    endloop
  endfacet
  facet normal -0.30690960432658054 0.24096669431294115 -0.9207288129541704
    outer loop
      vertex 29.312191529273683 31.702713030127075 16.413983227931926
      vertex 29.312085645635474 31.70260284191592 16.41398968479135
      vertex 29.312063608843875 31.702713030127075 16.414025868075196
    endloop
  endfacet
  facet normal 0.2543868866748704 -0.5940312440528838 0.7631606600034162
    outer loop
      vertex 30.688064311585936 28.297286969872925 23.58593149178153
      vertex 30.68793639115613 28.297286969872925 23.5859741319248
      vertex 30.688042274794334 28.29726923765427 23.585925034922106
    endloop
  endfacet
  facet normal 0.3069096043267398 -0.2409666943109121 0.9207288129546481
    outer loop
      vertex 30.688064311585936 28.297286969872925 23.58593149178153
      vertex 32.143495728884446 29.812020335402124 23.49721309022348
      vertex 30.68793639115613 28.297286969872925 23.5859741319248
    endloop
  endfacet
  facet normal -0.25438688667542825 0.5940312440504951 -0.7631606600050896
    outer loop
      vertex 29.312191529273683 31.702713030127075 16.413983227931926
      vertex 29.312063608843875 31.702713030127075 16.414025868075196
      vertex 30.872355025966776 32.95822377195148 16.87119688102298
    endloop
  endfacet
  facet normal -0.2543868866700214 0.5940312440457417 -0.7631606600105918
    outer loop
      vertex 29.312191529273683 31.702713030127075 16.413983227931926
      vertex 30.872355025966776 32.95822377195148 16.87119688102298
      vertex 30.87248294639661 32.95822377195148 16.8711542408797
    endloop
  endfacet
  facet normal -0.16313607154800916 0.8566599217885873 -0.48940821464402745
    outer loop
      vertex 30.87248294639661 32.95822377195148 16.8711542408797
      vertex 30.872355025966776 32.95822377195148 16.87119688102298
      vertex 32.29983829830428 33.76337176086154 17.804699806164095
    endloop
  endfacet
  facet normal -0.16313607153456164 0.8566599217828511 -0.48940821465855044
    outer loop
      vertex 30.87248294639661 32.95822377195148 16.8711542408797
      vertex 32.29983829830428 33.76337176086154 17.804699806164095
      vertex 32.299966218734085 33.76337176086154 17.80465716602083
    endloop
  endfacet
  facet normal -0.04704926836077225 0.9888698920802139 -0.14114780509799704
    outer loop
      vertex 32.299966218734085 33.76337176086154 17.80465716602083
      vertex 32.29983829830428 33.76337176086154 17.804699806164095
      vertex 33.37719203781102 33.9955805142304 19.07241728537093
    endloop
  endfacet
  facet normal -0.047049268361647585 0.9888698920803413 -0.14114780509681268
    outer loop
      vertex 32.299966218734085 33.76337176086154 17.80465716602083
      vertex 33.37719203781102 33.9955805142304 19.07241728537093
      vertex 33.37731995824083 33.9955805142304 19.07237464522766
    endloop
  endfacet
  facet normal 0.07620035941855223 0.9705333854309837 0.2286010782747034
    outer loop
      vertex 33.37731995824083 33.9955805142304 19.07237464522766
      vertex 33.37719203781102 33.9955805142304 19.07241728537093
      vertex 33.94039890388309 33.619498354335235 20.481350824321787
    endloop
  endfacet
  facet normal 0.30690960431231745 -0.2409666942966121 0.9207288129631981
    outer loop
      vertex 30.688064311585936 28.297286969872925 23.58593149178153
      vertex 32.14362364931425 29.812020335402124 23.497170450080212
      vertex 32.143495728884446 29.812020335402124 23.49721309022348
    endloop
  endfacet
  facet normal 0.3127081168457993 0.14878285028407978 0.9381243505634522
    outer loop
      vertex 32.14362364931425 29.812020335402124 23.497170450080212
      vertex 33.27272727272727 31.355371900826448 22.876033057851238
      vertex 32.143495728884446 29.812020335402124 23.49721309022348
    endloop
  endfacet
  facet normal 0.3127081168540903 0.14878285027742963 0.9381243505617433
    outer loop
      vertex 32.14362364931425 29.812020335402124 23.497170450080212
      vertex 33.272855193157085 31.355371900826448 22.875990417707968
      vertex 33.27272727272727 31.355371900826448 22.876033057851238
    endloop
  endfacet
  facet normal 0.0762003594245886 0.9705333854310102 0.2286010782725788
    outer loop
      vertex 33.37731995824083 33.9955805142304 19.07237464522766
      vertex 33.94039890388309 33.619498354335235 20.481350824321787
      vertex 33.940526824312904 33.619498354335235 20.481308184178516
    endloop
  endfacet
  facet normal 0.1878491732437679 0.8044419687576525 0.563547519746955
    outer loop
      vertex 33.90384367707379 32.69238038082682 21.81696042358247
      vertex 33.94039890388309 33.619498354335235 20.481350824321787
      vertex 33.90371575664398 32.69238038082682 21.817003063725736
    endloop
  endfacet
  facet normal 0.18784917324883205 0.8044419687567916 0.5635475197464961
    outer loop
      vertex 33.940526824312904 33.619498354335235 20.481308184178516
      vertex 33.94039890388309 33.619498354335235 20.481350824321787
      vertex 33.90384367707379 32.69238038082682 21.81696042358247
    endloop
  endfacet
  facet normal 0.2708996533033634 0.5158815546239033 0.8126989599100901
    outer loop
      vertex 33.272855193157085 31.355371900826448 22.875990417707968
      vertex 33.90371575664398 32.69238038082682 21.817003063725736
      vertex 33.27272727272727 31.355371900826448 22.876033057851238
    endloop
  endfacet
  facet normal 0.27089965329578153 0.5158815546271492 0.8126989599105569
    outer loop
      vertex 33.272855193157085 31.355371900826448 22.875990417707968
      vertex 33.90384367707379 32.69238038082682 21.81696042358247
      vertex 33.90371575664398 32.69238038082682 21.817003063725736
    endloop
  endfacet
  facet normal 0.6396021491267914 -0.6396021491149464 -0.4264014325491079
    outer loop
      vertex 30.688064311585936 28.297286969872925 23.58593149178153
      vertex 30.688042274794334 28.29726923765427 23.585925034922106
      vertex 32.14362364931425 29.812020335402124 23.497170450080212
    endloop
  endfacet
  facet normal 0.6396021490708552 -0.6396021490826979 -0.42640143268138525
    outer loop
      vertex 29.312191529273683 31.702713030127075 16.413983227931926
      vertex 30.872355025966797 32.95809585152167 16.871154240879704
      vertex 29.312085645635474 31.70260284191592 16.41398968479135
    endloop
  endfacet
  facet normal 0.639602149070474 -0.6396021490826164 -0.4264014326820793
    outer loop
      vertex 29.312191529273683 31.702713030127075 16.413983227931926
      vertex 30.87248294639661 32.95822377195148 16.8711542408797
      vertex 30.872355025966797 32.95809585152167 16.871154240879704
    endloop
  endfacet
  facet normal 0.6396021490647733 -0.6396021490766157 -0.42640143269963154
    outer loop
      vertex 30.87248294639661 32.95822377195148 16.8711542408797
      vertex 32.29983829830428 33.76324384043174 17.804657166020828
      vertex 30.872355025966797 32.95809585152167 16.871154240879704
    endloop
  endfacet
  facet normal 0.6396021490625066 -0.6396021490862928 -0.4264014326885159
    outer loop
      vertex 30.87248294639661 32.95822377195148 16.8711542408797
      vertex 32.299966218734085 33.76337176086154 17.80465716602083
      vertex 32.29983829830428 33.76324384043174 17.804657166020828
    endloop
  endfacet
  facet normal 0.6396021490583239 -0.6396021490820086 -0.4264014327012157
    outer loop
      vertex 32.299966218734085 33.76337176086154 17.80465716602083
      vertex 33.37719203781102 33.995452593800586 19.072374645227658
      vertex 32.29983829830428 33.76324384043174 17.804657166020828
    endloop
  endfacet
  facet normal 0.6396021490707423 -0.6396021490595764 -0.4264014327162366
    outer loop
      vertex 32.299966218734085 33.76337176086154 17.80465716602083
      vertex 33.37731995824083 33.9955805142304 19.07237464522766
      vertex 33.37719203781102 33.995452593800586 19.072374645227658
    endloop
  endfacet
  facet normal 0.6396021490725383 -0.6396021490606959 -0.42640143271186337
    outer loop
      vertex 33.37731995824083 33.9955805142304 19.07237464522766
      vertex 33.94039890388309 33.619370433905424 20.481308184178513
      vertex 33.37719203781102 33.995452593800586 19.072374645227658
    endloop
  endfacet
  facet normal 0.6396021491267782 -0.6396021491149357 -0.42640143254914387
    outer loop
      vertex 32.14362364931425 29.812020335402124 23.497170450080212
      vertex 30.688042274794334 28.29726923765427 23.585925034922106
      vertex 32.143495728884446 29.81189241497232 23.49717045008021
    endloop
  endfacet
  facet normal 0.6396021490797023 -0.63960214906786 -0.4264014326903714
    outer loop
      vertex 32.14362364931425 29.812020335402124 23.497170450080212
      vertex 32.143495728884446 29.81189241497232 23.49717045008021
      vertex 33.272855193157085 31.355371900826448 22.875990417707968
    endloop
  endfacet
  facet normal 0.6396021490861372 -0.6396021490683736 -0.42640143267994846
    outer loop
      vertex 33.272855193157085 31.355371900826448 22.875990417707968
      vertex 32.143495728884446 29.81189241497232 23.49717045008021
      vertex 33.27272727272727 31.355243980396633 22.875990417707968
    endloop
  endfacet
  facet normal 0.6396021490727233 -0.6396021490605095 -0.4264014327118656
    outer loop
      vertex 33.37731995824083 33.9955805142304 19.07237464522766
      vertex 33.940526824312904 33.619498354335235 20.481308184178516
      vertex 33.94039890388309 33.619370433905424 20.481308184178513
    endloop
  endfacet
  facet normal 0.639602149066829 -0.639602149066829 -0.426401432711228
    outer loop
      vertex 33.940526824312904 33.619498354335235 20.481308184178516
      vertex 33.90384367707379 32.69238038082682 21.81696042358247
      vertex 33.90371575664398 32.692252460397015 21.81696042358247
    endloop
  endfacet
  facet normal 0.6396021490739184 -0.639602149062076 -0.4264014327077232
    outer loop
      vertex 33.940526824312904 33.619498354335235 20.481308184178516
      vertex 33.90371575664398 32.692252460397015 21.81696042358247
      vertex 33.94039890388309 33.619370433905424 20.481308184178513
    endloop
  endfacet
  facet normal 0.6396021490802141 -0.6396021490624505 -0.4264014326977179
    outer loop
      vertex 33.272855193157085 31.355371900826448 22.875990417707968
      vertex 33.27272727272727 31.355243980396633 22.875990417707968
      vertex 33.90384367707379 32.69238038082682 21.81696042358247
    endloop
  endfacet
  facet normal 0.6396021490668303 -0.6396021490668303 -0.42640143271122377
    outer loop
      vertex 33.90384367707379 32.69238038082682 21.81696042358247
      vertex 33.27272727272727 31.355243980396633 22.875990417707968
      vertex 33.90371575664398 32.692252460397015 21.81696042358247
    endloop
  endfacet
  facet normal -0.9486832980505157 -3.692162762863631e-15 0.3162277660168323
    outer loop
      vertex -0.5385400060146539 26.380501645664765 28.38469620972207
      vertex -1.1901775129579049 28.644628099173556 26.429783688892304
      vertex -0.9355673631119266 27.307619619173185 27.193614138430238
    endloop
  endfacet
  facet normal -0.948683298050513 2.1729102699790202e-15 0.31622776601684044
    outer loop
      vertex -0.5385400060146539 26.380501645664765 28.38469620972207
      vertex -0.059539257722188044 26.0044194857696 29.821698454599456
      vertex -1.2636083682852957 30.187979664597883 26.209491122910137
    endloop
  endfacet
  facet normal -0.948683298050515 -1.7565689088650268e-15 0.3162277660168342
    outer loop
      vertex -0.5385400060146539 26.380501645664765 28.38469620972207
      vertex -1.2636083682852957 30.187979664597883 26.209491122910137
      vertex -1.1901775129579049 28.644628099173556 26.429783688892304
    endloop
  endfacet
  facet normal -0.9486832980505138 -4.1671132492631298e-16 0.31622776601683833
    outer loop
      vertex -0.059539257722188044 26.0044194857696 29.821698454599456
      vertex 0.42851135999053547 26.236628239138458 31.285850307737626
      vertex -1.144680747022863 31.70271303012708 26.566273986697443
    endloop
  endfacet
  facet normal -0.948683298050514 -1.0009339424109054e-15 0.31622776601683766
    outer loop
      vertex 0.42851135999053547 26.236628239138458 31.285850307737626
      vertex 0.8513105647666201 27.041776228048523 32.55424792206588
      vertex -1.144680747022863 31.70271303012708 26.566273986697443
    endloop
  endfacet
  facet normal -0.9486832980505137 1.0879322150461975e-16 0.31622776601683833
    outer loop
      vertex 0.8513105647666201 27.041776228048523 32.55424792206588
      vertex 1.1444910103632466 28.297286969872925 33.43378925885576
      vertex -1.144680747022863 31.70271303012708 26.566273986697443
    endloop
  endfacet
  facet normal -0.9486832980505142 -1.3309012058058159e-15 0.31622776601683683
    outer loop
      vertex -0.059539257722188044 26.0044194857696 29.821698454599456
      vertex -1.144680747022863 31.70271303012708 26.566273986697443
      vertex -1.2636083682852957 30.187979664597883 26.209491122910137
    endloop
  endfacet
  facet normal -0.9486832980505134 2.9011525734565176e-16 0.31622776601683844
    outer loop
      vertex 1.1444910103632466 28.297286969872925 33.43378925885576
      vertex -0.8515003014262377 32.95822377195149 27.445815323487317
      vertex -1.144680747022863 31.70271303012708 26.566273986697443
    endloop
  endfacet
  facet normal -0.948683298050514 -1.619157848017639e-15 0.31622776601683716
    outer loop
      vertex 1.1444910103632466 28.297286969872925 33.43378925885576
      vertex 1.2634186316256801 29.812020335402124 33.79057212264307
      vertex -0.8515003014262377 32.95822377195149 27.445815323487317
    endloop
  endfacet
  facet normal -0.9486832980505138 5.556150999017518e-16 0.3162277660168382
    outer loop
      vertex 1.2634186316256801 29.812020335402124 33.79057212264307
      vertex -0.4287010966501499 33.763371760861546 28.714212937815578
      vertex -0.8515003014262377 32.95822377195149 27.445815323487317
    endloop
  endfacet
  facet normal -0.9486832980505139 -1.8107585583158436e-16 0.316227766016838
    outer loop
      vertex 1.1899877762982913 31.35537190082645 33.5702795566609
      vertex 0.059349521062573185 33.995580514230404 30.178364790953747
      vertex -0.4287010966501499 33.763371760861546 28.714212937815578
    endloop
  endfacet
  facet normal -0.9486832980505135 8.469371309673339e-16 0.31622776601683844
    outer loop
      vertex 1.2634186316256801 29.812020335402124 33.79057212264307
      vertex 1.1899877762982913 31.35537190082645 33.5702795566609
      vertex -0.4287010966501499 33.763371760861546 28.714212937815578
    endloop
  endfacet
  facet normal -0.9486832980505131 2.4257380170041246e-15 0.3162277660168398
    outer loop
      vertex 1.1899877762982913 31.35537190082645 33.5702795566609
      vertex 0.9353776264523126 32.69238038082682 32.80644910712296
      vertex 0.059349521062573185 33.995580514230404 30.178364790953747
    endloop
  endfacet
  facet normal -0.9486832980505137 -7.146121476510194e-16 0.3162277660168384
    outer loop
      vertex 0.9353776264523126 32.69238038082682 32.80644910712296
      vertex 0.538350269355039 33.61949835433524 31.61536703583114
      vertex 0.059349521062573185 33.995580514230404 30.178364790953747
    endloop
  endfacet
endsolid PythonSCAD_Model
