solid PythonSCAD_Model
  facet normal 0.984807752865622 0.17364817849826067 0
    outer loop
      vertex -2.7759666070342064 33.01960038393736 0
      vertex -1.7340775355696678 27.11075386404991 3
      vertex -1.7340775355696678 27.11075386404991 0
    endloop
  endfacet
  facet normal 0.984807752865622 0.17364817849826067 0
    outer loop
      vertex -2.7759666070342064 33.01960038393736 0
      vertex -2.7759666070342064 33.01960038393736 3
      vertex -1.7340775355696678 27.11075386404991 3
    endloop
  endfacet
  facet normal -0.17364817750629502 0.9848077530405323 0
    outer loop
      vertex -8.684813119471073 31.9777113199234 0
      vertex -2.7759666070342064 33.01960038393736 3
      vertex -2.7759666070342064 33.01960038393736 0
    endloop
  endfacet
  facet normal -0.17364817750629502 0.9848077530405323 0
    outer loop
      vertex -8.684813119471073 31.9777113199234 0
      vertex -8.684813119471073 31.9777113199234 3
      vertex -2.7759666070342064 33.01960038393736 3
    endloop
  endfacet
  facet normal -0.9848077530779762 -0.17364817729394097 0
    outer loop
      vertex -7.642924055457115 26.068864800035954 0
      vertex -8.684813119471073 31.9777113199234 3
      vertex -8.684813119471073 31.9777113199234 0
    endloop
  endfacet
  facet normal -0.9848077530779762 -0.17364817729394097 0
    outer loop
      vertex -7.642924055457115 26.068864800035954 0
      vertex -7.642924055457115 26.068864800035954 3
      vertex -8.684813119471073 31.9777113199234 3
    endloop
  endfacet
  facet normal 0.17364817729394097 -0.9848077530779762 0
    outer loop
      vertex -1.7340775355696678 27.11075386404991 0
      vertex -7.642924055457115 26.068864800035954 3
      vertex -7.642924055457115 26.068864800035954 0
    endloop
  endfacet
  facet normal 0.17364817729394097 -0.9848077530779762 0
    outer loop
      vertex -1.7340775355696678 27.11075386404991 0
      vertex -1.7340775355696678 27.11075386404991 3
      vertex -7.642924055457115 26.068864800035954 3
    endloop
  endfacet
  facet normal 0.17364817750629502 0.9848077530405323 0
    outer loop
      vertex 2.7759666070342064 33.01960038393736 0
      vertex 8.684813119471073 31.9777113199234 3
      vertex 8.684813119471073 31.9777113199234 0
    endloop
  endfacet
  facet normal 0.17364817750629502 0.9848077530405323 0
    outer loop
      vertex 2.7759666070342064 33.01960038393736 0
      vertex 2.7759666070342064 33.01960038393736 3
      vertex 8.684813119471073 31.9777113199234 3
    endloop
  endfacet
  facet normal -0.984807752865622 0.17364817849826067 0
    outer loop
      vertex 1.7340775355696678 27.11075386404991 0
      vertex 2.7759666070342064 33.01960038393736 3
      vertex 2.7759666070342064 33.01960038393736 0
    endloop
  endfacet
  facet normal -0.984807752865622 0.17364817849826067 0
    outer loop
      vertex 1.7340775355696678 27.11075386404991 0
      vertex 1.7340775355696678 27.11075386404991 3
      vertex 2.7759666070342064 33.01960038393736 3
    endloop
  endfacet
  facet normal -0.17364817729394097 -0.9848077530779762 0
    outer loop
      vertex 7.642924055457115 26.068864800035954 0
      vertex 1.7340775355696678 27.11075386404991 3
      vertex 1.7340775355696678 27.11075386404991 0
    endloop
  endfacet
  facet normal -0.17364817729394097 -0.9848077530779762 0
    outer loop
      vertex 7.642924055457115 26.068864800035954 0
      vertex 7.642924055457115 26.068864800035954 3
      vertex 1.7340775355696678 27.11075386404991 3
    endloop
  endfacet
  facet normal 0.9848077530779762 -0.17364817729394097 0
    outer loop
      vertex 8.684813119471073 31.9777113199234 0
      vertex 7.642924055457115 26.068864800035954 3
      vertex 7.642924055457115 26.068864800035954 0
    endloop
  endfacet
  facet normal 0.9848077530779762 -0.17364817729394097 0
    outer loop
      vertex 8.684813119471073 31.9777113199234 0
      vertex 8.684813119471073 31.9777113199234 3
      vertex 7.642924055457115 26.068864800035954 3
    endloop
  endfacet
  facet normal 0.8660254039342636 0.49999999974049536 0
    outer loop
      vertex -13.901923790574074 30.07883832603693 0
      vertex -10.901923790574074 24.882685899734497 3
      vertex -10.901923790574074 24.882685899734497 0
    endloop
  endfacet
  facet normal 0.8660254039342636 0.49999999974049536 0
    outer loop
      vertex -13.901923790574074 30.07883832603693 0
      vertex -13.901923790574074 30.07883832603693 3
      vertex -10.901923790574074 24.882685899734497 3
    endloop
  endfacet
  facet normal -0.5000000002781948 0.8660254036238229 0
    outer loop
      vertex -19.098076209425926 27.07883832603693 0
      vertex -13.901923790574074 30.07883832603693 3
      vertex -13.901923790574074 30.07883832603693 0
    endloop
  endfacet
  facet normal -0.5000000002781948 0.8660254036238229 0
    outer loop
      vertex -19.098076209425926 27.07883832603693 0
      vertex -19.098076209425926 27.07883832603693 3
      vertex -13.901923790574074 30.07883832603693 3
    endloop
  endfacet
  facet normal -0.8660254039342636 -0.49999999974049536 0
    outer loop
      vertex -16.098076209425926 21.882685899734497 0
      vertex -19.098076209425926 27.07883832603693 3
      vertex -19.098076209425926 27.07883832603693 0
    endloop
  endfacet
  facet normal -0.8660254039342636 -0.49999999974049536 0
    outer loop
      vertex -16.098076209425926 21.882685899734497 0
      vertex -16.098076209425926 21.882685899734497 3
      vertex -19.098076209425926 27.07883832603693 3
    endloop
  endfacet
  facet normal 0.5000000002781948 -0.8660254036238229 0
    outer loop
      vertex -10.901923790574074 24.882685899734497 0
      vertex -16.098076209425926 21.882685899734497 3
      vertex -16.098076209425926 21.882685899734497 0
    endloop
  endfacet
  facet normal 0.5000000002781948 -0.8660254036238229 0
    outer loop
      vertex -10.901923790574074 24.882685899734497 0
      vertex -10.901923790574074 24.882685899734497 3
      vertex -16.098076209425926 21.882685899734497 3
    endloop
  endfacet
  facet normal 0.5000000002781948 0.8660254036238229 0
    outer loop
      vertex 13.901923790574074 30.07883832603693 0
      vertex 19.098076209425926 27.07883832603693 3
      vertex 19.098076209425926 27.07883832603693 0
    endloop
  endfacet
  facet normal 0.5000000002781948 0.8660254036238229 0
    outer loop
      vertex 13.901923790574074 30.07883832603693 0
      vertex 13.901923790574074 30.07883832603693 3
      vertex 19.098076209425926 27.07883832603693 3
    endloop
  endfacet
  facet normal -0.8660254039342636 0.49999999974049536 0
    outer loop
      vertex 10.901923790574074 24.882685899734497 0
      vertex 13.901923790574074 30.07883832603693 3
      vertex 13.901923790574074 30.07883832603693 0
    endloop
  endfacet
  facet normal -0.8660254039342636 0.49999999974049536 0
    outer loop
      vertex 10.901923790574074 24.882685899734497 0
      vertex 10.901923790574074 24.882685899734497 3
      vertex 13.901923790574074 30.07883832603693 3
    endloop
  endfacet
  facet normal -0.5000000002781948 -0.8660254036238229 0
    outer loop
      vertex 16.098076209425926 21.882685899734497 0
      vertex 10.901923790574074 24.882685899734497 3
      vertex 10.901923790574074 24.882685899734497 0
    endloop
  endfacet
  facet normal -0.5000000002781948 -0.8660254036238229 0
    outer loop
      vertex 16.098076209425926 21.882685899734497 0
      vertex 16.098076209425926 21.882685899734497 3
      vertex 10.901923790574074 24.882685899734497 3
    endloop
  endfacet
  facet normal 0.8660254039342636 -0.49999999974049536 0
    outer loop
      vertex 19.098076209425926 27.07883832603693 0
      vertex 16.098076209425926 21.882685899734497 3
      vertex 16.098076209425926 21.882685899734497 0
    endloop
  endfacet
  facet normal 0.8660254039342636 -0.49999999974049536 0
    outer loop
      vertex 19.098076209425926 27.07883832603693 0
      vertex 19.098076209425926 27.07883832603693 3
      vertex 16.098076209425926 21.882685899734497 3
    endloop
  endfacet
  facet normal 0.6427876096785301 0.7660444431256984 0
    outer loop
      vertex -23.35110379755497 23.51012445241213 0
      vertex -18.75483713299036 19.653398789465427 3
      vertex -18.75483713299036 19.653398789465427 0
    endloop
  endfacet
  facet normal 0.6427876096785301 0.7660444431256984 0
    outer loop
      vertex -23.35110379755497 23.51012445241213 0
      vertex -23.35110379755497 23.51012445241213 3
      vertex -18.75483713299036 19.653398789465427 3
    endloop
  endfacet
  facet normal -0.7660444437371478 0.6427876089498336 0
    outer loop
      vertex -27.20782945305109 18.91385778784752 0
      vertex -23.35110379755497 23.51012445241213 3
      vertex -23.35110379755497 23.51012445241213 0
    endloop
  endfacet
  facet normal -0.7660444437371478 0.6427876089498336 0
    outer loop
      vertex -27.20782945305109 18.91385778784752 0
      vertex -27.20782945305109 18.91385778784752 3
      vertex -23.35110379755497 23.51012445241213 3
    endloop
  endfacet
  facet normal -0.6427876095612826 -0.7660444432240808 0
    outer loop
      vertex -22.61156279593706 15.057132132351398 0
      vertex -27.20782945305109 18.91385778784752 3
      vertex -27.20782945305109 18.91385778784752 0
    endloop
  endfacet
  facet normal -0.6427876095612826 -0.7660444432240808 0
    outer loop
      vertex -22.61156279593706 15.057132132351398 0
      vertex -22.61156279593706 15.057132132351398 3
      vertex -27.20782945305109 18.91385778784752 3
    endloop
  endfacet
  facet normal 0.7660444426126318 -0.6427876102899794 0
    outer loop
      vertex -18.75483713299036 19.653398789465427 0
      vertex -22.61156279593706 15.057132132351398 3
      vertex -22.61156279593706 15.057132132351398 0
    endloop
  endfacet
  facet normal 0.7660444426126318 -0.6427876102899794 0
    outer loop
      vertex -18.75483713299036 19.653398789465427 0
      vertex -18.75483713299036 19.653398789465427 3
      vertex -22.61156279593706 15.057132132351398 3
    endloop
  endfacet
  facet normal 0.7660444437371478 0.6427876089498336 0
    outer loop
      vertex 23.35110379755497 23.51012445241213 0
      vertex 27.20782945305109 18.91385778784752 3
      vertex 27.20782945305109 18.91385778784752 0
    endloop
  endfacet
  facet normal 0.7660444437371478 0.6427876089498336 0
    outer loop
      vertex 23.35110379755497 23.51012445241213 0
      vertex 23.35110379755497 23.51012445241213 3
      vertex 27.20782945305109 18.91385778784752 3
    endloop
  endfacet
  facet normal -0.6427876096785301 0.7660444431256984 0
    outer loop
      vertex 18.75483713299036 19.653398789465427 0
      vertex 23.35110379755497 23.51012445241213 3
      vertex 23.35110379755497 23.51012445241213 0
    endloop
  endfacet
  facet normal -0.6427876096785301 0.7660444431256984 0
    outer loop
      vertex 18.75483713299036 19.653398789465427 0
      vertex 18.75483713299036 19.653398789465427 3
      vertex 23.35110379755497 23.51012445241213 3
    endloop
  endfacet
  facet normal -0.7660444426126318 -0.6427876102899794 0
    outer loop
      vertex 22.61156279593706 15.057132132351398 0
      vertex 18.75483713299036 19.653398789465427 3
      vertex 18.75483713299036 19.653398789465427 0
    endloop
  endfacet
  facet normal -0.7660444426126318 -0.6427876102899794 0
    outer loop
      vertex 22.61156279593706 15.057132132351398 0
      vertex 22.61156279593706 15.057132132351398 3
      vertex 18.75483713299036 19.653398789465427 3
    endloop
  endfacet
  facet normal 0.6427876095612826 -0.7660444432240808 0
    outer loop
      vertex 27.20782945305109 18.91385778784752 0
      vertex 22.61156279593706 15.057132132351398 3
      vertex 22.61156279593706 15.057132132351398 0
    endloop
  endfacet
  facet normal 0.6427876095612826 -0.7660444432240808 0
    outer loop
      vertex 27.20782945305109 18.91385778784752 0
      vertex 27.20782945305109 18.91385778784752 3
      vertex 22.61156279593706 15.057132132351398 3
    endloop
  endfacet
  facet normal 0.34202014307437 0.9396926208773736 0
    outer loop
      vertex -29.983796052634716 14.10574258863926 0
      vertex -24.34564033150673 12.053621731698513 3
      vertex -24.34564033150673 12.053621731698513 0
    endloop
  endfacet
  facet normal 0.34202014307437 0.9396926208773736 0
    outer loop
      vertex -29.983796052634716 14.10574258863926 0
      vertex -29.983796052634716 14.10574258863926 3
      vertex -24.34564033150673 12.053621731698513 3
    endloop
  endfacet
  facet normal -0.9396926204782785 0.3420201441708747 0
    outer loop
      vertex -32.03591691702604 8.467586867511272 0
      vertex -29.983796052634716 14.10574258863926 3
      vertex -29.983796052634716 14.10574258863926 0
    endloop
  endfacet
  facet normal -0.9396926204782785 0.3420201441708747 0
    outer loop
      vertex -32.03591691702604 8.467586867511272 0
      vertex -32.03591691702604 8.467586867511272 3
      vertex -29.983796052634716 14.10574258863926 3
    endloop
  endfacet
  facet normal -0.3420201426752749 -0.9396926210226323 0
    outer loop
      vertex -26.397761188447475 6.415466010570526 0
      vertex -32.03591691702604 8.467586867511272 3
      vertex -32.03591691702604 8.467586867511272 0
    endloop
  endfacet
  facet normal -0.3420201426752749 -0.9396926210226323 0
    outer loop
      vertex -26.397761188447475 6.415466010570526 0
      vertex -26.397761188447475 6.415466010570526 3
      vertex -32.03591691702604 8.467586867511272 3
    endloop
  endfacet
  facet normal 0.9396926208773736 -0.34202014307437 0
    outer loop
      vertex -24.34564033150673 12.053621731698513 0
      vertex -26.397761188447475 6.415466010570526 3
      vertex -26.397761188447475 6.415466010570526 0
    endloop
  endfacet
  facet normal 0.9396926208773736 -0.34202014307437 0
    outer loop
      vertex -24.34564033150673 12.053621731698513 0
      vertex -24.34564033150673 12.053621731698513 3
      vertex -26.397761188447475 6.415466010570526 3
    endloop
  endfacet
  facet normal 0.9396926204782785 0.3420201441708747 0
    outer loop
      vertex 29.983796052634716 14.10574258863926 0
      vertex 32.03591691702604 8.467586867511272 3
      vertex 32.03591691702604 8.467586867511272 0
    endloop
  endfacet
  facet normal 0.9396926204782785 0.3420201441708747 0
    outer loop
      vertex 29.983796052634716 14.10574258863926 0
      vertex 29.983796052634716 14.10574258863926 3
      vertex 32.03591691702604 8.467586867511272 3
    endloop
  endfacet
  facet normal -0.34202014307437 0.9396926208773736 0
    outer loop
      vertex 24.34564033150673 12.053621731698513 0
      vertex 29.983796052634716 14.10574258863926 3
      vertex 29.983796052634716 14.10574258863926 0
    endloop
  endfacet
  facet normal -0.34202014307437 0.9396926208773736 0
    outer loop
      vertex 24.34564033150673 12.053621731698513 0
      vertex 24.34564033150673 12.053621731698513 3
      vertex 29.983796052634716 14.10574258863926 3
    endloop
  endfacet
  facet normal -0.9396926208773736 -0.34202014307437 0
    outer loop
      vertex 26.397761188447475 6.415466010570526 0
      vertex 24.34564033150673 12.053621731698513 3
      vertex 24.34564033150673 12.053621731698513 0
    endloop
  endfacet
  facet normal -0.9396926208773736 -0.34202014307437 0
    outer loop
      vertex 26.397761188447475 6.415466010570526 0
      vertex 26.397761188447475 6.415466010570526 3
      vertex 24.34564033150673 12.053621731698513 3
    endloop
  endfacet
  facet normal 0.3420201426752749 -0.9396926210226323 0
    outer loop
      vertex 32.03591691702604 8.467586867511272 0
      vertex 26.397761188447475 6.415466010570526 3
      vertex 26.397761188447475 6.415466010570526 0
    endloop
  endfacet
  facet normal 0.3420201426752749 -0.9396926210226323 0
    outer loop
      vertex 32.03591691702604 8.467586867511272 0
      vertex 32.03591691702604 8.467586867511272 3
      vertex 26.397761188447475 6.415466010570526 3
    endloop
  endfacet
  facet normal 0 1 0
    outer loop
      vertex -33 3 0
      vertex -27 3 3
      vertex -27 3 0
    endloop
  endfacet
  facet normal 0 1 0
    outer loop
      vertex -33 3 0
      vertex -33 3 3
      vertex -27 3 3
    endloop
  endfacet
  facet normal -1 0 0
    outer loop
      vertex -33 -3 0
      vertex -33 3 3
      vertex -33 3 0
    endloop
  endfacet
  facet normal -1 0 0
    outer loop
      vertex -33 -3 0
      vertex -33 -3 3
      vertex -33 3 3
    endloop
  endfacet
  facet normal 0 -1 0
    outer loop
      vertex -27 -3 0
      vertex -33 -3 3
      vertex -33 -3 0
    endloop
  endfacet
  facet normal 0 -1 0
    outer loop
      vertex -27 -3 0
      vertex -27 -3 3
      vertex -33 -3 3
    endloop
  endfacet
  facet normal 1 0 0
    outer loop
      vertex -27 3 0
      vertex -27 -3 3
      vertex -27 -3 0
    endloop
  endfacet
  facet normal 1 0 0
    outer loop
      vertex -27 3 0
      vertex -27 3 3
      vertex -27 -3 3
    endloop
  endfacet
  facet normal 0 1 0
    outer loop
      vertex 27 3 0
      vertex 33 3 3
      vertex 33 3 0
    endloop
  endfacet
  facet normal 0 1 0
    outer loop
      vertex 27 3 0
      vertex 27 3 3
      vertex 33 3 3
    endloop
  endfacet
  facet normal -1 0 0
    outer loop
      vertex 27 -3 0
      vertex 27 3 3
      vertex 27 3 0
    endloop
  endfacet
  facet normal -1 0 0
    outer loop
      vertex 27 -3 0
      vertex 27 -3 3
      vertex 27 3 3
    endloop
  endfacet
  facet normal 0 -1 0
    outer loop
      vertex 33 -3 0
      vertex 27 -3 3
      vertex 27 -3 0
    endloop
  endfacet
  facet normal 0 -1 0
    outer loop
      vertex 33 -3 0
      vertex 33 -3 3
      vertex 27 -3 3
    endloop
  endfacet
  facet normal 1 0 0
    outer loop
      vertex 33 3 0
      vertex 33 -3 3
      vertex 33 -3 0
    endloop
  endfacet
  facet normal 1 0 0
    outer loop
      vertex 33 3 0
      vertex 33 3 3
      vertex 33 -3 3
    endloop
  endfacet
  facet normal 0 0 -1
    outer loop
      vertex -7.642924055457115 26.068864800035954 0
      vertex -2.7759666070342064 33.01960038393736 0
      vertex -1.7340775355696678 27.11075386404991 0
    endloop
  endfacet
  facet normal 0 0 -1
    outer loop
      vertex -7.642924055457115 26.068864800035954 0
      vertex -8.684813119471073 31.9777113199234 0
      vertex -2.7759666070342064 33.01960038393736 0
    endloop
  endfacet
  facet normal 0 0 -1
    outer loop
      vertex 7.642924055457115 26.068864800035954 0
      vertex 2.7759666070342064 33.01960038393736 0
      vertex 8.684813119471073 31.9777113199234 0
    endloop
  endfacet
  facet normal 0 0 -1
    outer loop
      vertex 7.642924055457115 26.068864800035954 0
      vertex 1.7340775355696678 27.11075386404991 0
      vertex 2.7759666070342064 33.01960038393736 0
    endloop
  endfacet
  facet normal 0 0 -1
    outer loop
      vertex -16.098076209425926 21.882685899734497 0
      vertex -13.901923790574074 30.07883832603693 0
      vertex -10.901923790574074 24.882685899734497 0
    endloop
  endfacet
  facet normal 0 0 -1
    outer loop
      vertex -16.098076209425926 21.882685899734497 0
      vertex -19.098076209425926 27.07883832603693 0
      vertex -13.901923790574074 30.07883832603693 0
    endloop
  endfacet
  facet normal 0 0 -1
    outer loop
      vertex 16.098076209425926 21.882685899734497 0
      vertex 13.901923790574074 30.07883832603693 0
      vertex 19.098076209425926 27.07883832603693 0
    endloop
  endfacet
  facet normal 0 0 -1
    outer loop
      vertex 16.098076209425926 21.882685899734497 0
      vertex 10.901923790574074 24.882685899734497 0
      vertex 13.901923790574074 30.07883832603693 0
    endloop
  endfacet
  facet normal 0 0 -1
    outer loop
      vertex -22.61156279593706 15.057132132351398 0
      vertex -23.35110379755497 23.51012445241213 0
      vertex -18.75483713299036 19.653398789465427 0
    endloop
  endfacet
  facet normal 0 0 -1
    outer loop
      vertex -22.61156279593706 15.057132132351398 0
      vertex -27.20782945305109 18.91385778784752 0
      vertex -23.35110379755497 23.51012445241213 0
    endloop
  endfacet
  facet normal 0 0 -1
    outer loop
      vertex 22.61156279593706 15.057132132351398 0
      vertex 23.35110379755497 23.51012445241213 0
      vertex 27.20782945305109 18.91385778784752 0
    endloop
  endfacet
  facet normal 0 0 -1
    outer loop
      vertex 22.61156279593706 15.057132132351398 0
      vertex 18.75483713299036 19.653398789465427 0
      vertex 23.35110379755497 23.51012445241213 0
    endloop
  endfacet
  facet normal 0 0 -1
    outer loop
      vertex -26.397761188447475 6.415466010570526 0
      vertex -29.983796052634716 14.10574258863926 0
      vertex -24.34564033150673 12.053621731698513 0
    endloop
  endfacet
  facet normal 0 0 -1
    outer loop
      vertex -26.397761188447475 6.415466010570526 0
      vertex -32.03591691702604 8.467586867511272 0
      vertex -29.983796052634716 14.10574258863926 0
    endloop
  endfacet
  facet normal 0 0 -1
    outer loop
      vertex 26.397761188447475 6.415466010570526 0
      vertex 29.983796052634716 14.10574258863926 0
      vertex 32.03591691702604 8.467586867511272 0
    endloop
  endfacet
  facet normal 0 0 -1
    outer loop
      vertex 26.397761188447475 6.415466010570526 0
      vertex 24.34564033150673 12.053621731698513 0
      vertex 29.983796052634716 14.10574258863926 0
    endloop
  endfacet
  facet normal 0 0 -1
    outer loop
      vertex -27 -3 0
      vertex -33 3 0
      vertex -27 3 0
    endloop
  endfacet
  facet normal 0 0 -1
    outer loop
      vertex -27 -3 0
      vertex -33 -3 0
      vertex -33 3 0
    endloop
  endfacet
  facet normal 0 0 -1
    outer loop
      vertex 33 -3 0
      vertex 27 3 0
      vertex 33 3 0
    endloop
  endfacet
  facet normal 0 0 -1
    outer loop
      vertex 33 -3 0
      vertex 27 -3 0
      vertex 27 3 0
    endloop
  endfacet
  facet normal 0 0 1
    outer loop
      vertex -1.7340775355696678 27.11075386404991 3
      vertex -2.7759666070342064 33.01960038393736 3
      vertex -7.642924055457115 26.068864800035954 3
    endloop
  endfacet
  facet normal 0 0 1
    outer loop
      vertex -2.7759666070342064 33.01960038393736 3
      vertex -8.684813119471073 31.9777113199234 3
      vertex -7.642924055457115 26.068864800035954 3
    endloop
  endfacet
  facet normal 0 0 1
    outer loop
      vertex 8.684813119471073 31.9777113199234 3
      vertex 2.7759666070342064 33.01960038393736 3
      vertex 7.642924055457115 26.068864800035954 3
    endloop
  endfacet
  facet normal 0 0 1
    outer loop
      vertex 2.7759666070342064 33.01960038393736 3
      vertex 1.7340775355696678 27.11075386404991 3
      vertex 7.642924055457115 26.068864800035954 3
    endloop
  endfacet
  facet normal 0 0 1
    outer loop
      vertex -10.901923790574074 24.882685899734497 3
      vertex -13.901923790574074 30.07883832603693 3
      vertex -16.098076209425926 21.882685899734497 3
    endloop
  endfacet
  facet normal 0 0 1
    outer loop
      vertex -13.901923790574074 30.07883832603693 3
      vertex -19.098076209425926 27.07883832603693 3
      vertex -16.098076209425926 21.882685899734497 3
    endloop
  endfacet
  facet normal 0 0 1
    outer loop
      vertex 19.098076209425926 27.07883832603693 3
      vertex 13.901923790574074 30.07883832603693 3
      vertex 16.098076209425926 21.882685899734497 3
    endloop
  endfacet
  facet normal 0 0 1
    outer loop
      vertex 13.901923790574074 30.07883832603693 3
      vertex 10.901923790574074 24.882685899734497 3
      vertex 16.098076209425926 21.882685899734497 3
    endloop
  endfacet
  facet normal 0 0 1
    outer loop
      vertex -18.75483713299036 19.653398789465427 3
      vertex -23.35110379755497 23.51012445241213 3
      vertex -22.61156279593706 15.057132132351398 3
    endloop
  endfacet
  facet normal 0 0 1
    outer loop
      vertex -23.35110379755497 23.51012445241213 3
      vertex -27.20782945305109 18.91385778784752 3
      vertex -22.61156279593706 15.057132132351398 3
    endloop
  endfacet
  facet normal 0 0 1
    outer loop
      vertex 27.20782945305109 18.91385778784752 3
      vertex 23.35110379755497 23.51012445241213 3
      vertex 22.61156279593706 15.057132132351398 3
    endloop
  endfacet
  facet normal 0 0 1
    outer loop
      vertex 23.35110379755497 23.51012445241213 3
      vertex 18.75483713299036 19.653398789465427 3
      vertex 22.61156279593706 15.057132132351398 3
    endloop
  endfacet
  facet normal 0 0 1
    outer loop
      vertex -24.34564033150673 12.053621731698513 3
      vertex -29.983796052634716 14.10574258863926 3
      vertex -26.397761188447475 6.415466010570526 3
    endloop
  endfacet
  facet normal 0 0 1
    outer loop
      vertex -29.983796052634716 14.10574258863926 3
      vertex -32.03591691702604 8.467586867511272 3
      vertex -26.397761188447475 6.415466010570526 3
    endloop
  endfacet
  facet normal 0 0 1
    outer loop
      vertex 32.03591691702604 8.467586867511272 3
      vertex 29.983796052634716 14.10574258863926 3
      vertex 26.397761188447475 6.415466010570526 3
    endloop
  endfacet
  facet normal 0 0 1
    outer loop
      vertex 29.983796052634716 14.10574258863926 3
      vertex 24.34564033150673 12.053621731698513 3
      vertex 26.397761188447475 6.415466010570526 3
    endloop
  endfacet
  facet normal 0 0 1
    outer loop
      vertex -27 3 3
      vertex -33 3 3
      vertex -27 -3 3
    endloop
  endfacet
  facet normal 0 0 1
    outer loop
      vertex -33 3 3
      vertex -33 -3 3
      vertex -27 -3 3
    endloop
  endfacet
  facet normal 0 0 1
    outer loop
      vertex 33 3 3
      vertex 27 3 3
      vertex 33 -3 3
    endloop
  endfacet
  facet normal 0 0 1
    outer loop
      vertex 27 3 3
      vertex 27 -3 3
      vertex 33 -3 3
    endloop
  endfacet
endsolid PythonSCAD_Model
