solid PythonSCAD_Model
  facet normal 0.7071067811865475 0 0.7071067811865475
    outer loop
      vertex 15 15 0
      vertex 0 0 15
      vertex 15 -15 0
    endloop
  endfacet
  facet normal 0 0.7071067811865475 0.7071067811865475
    outer loop
      vertex -15 15 0
      vertex 0 0 15
      vertex 15 15 0
    endloop
  endfacet
  facet normal -0.7071067811865475 0 0.7071067811865475
    outer loop
      vertex -15 -15 0
      vertex 0 0 15
      vertex -15 15 0
    endloop
  endfacet
  facet normal 0 -0.7071067811865475 0.7071067811865475
    outer loop
      vertex 15 -15 0
      vertex 0 0 15
      vertex -15 -15 0
    endloop
  endfacet
  facet normal 0 0 -1
    outer loop
      vertex 15 -15 0
      vertex -15 15 0
      vertex 15 15 0
    endloop
  endfacet
  facet normal 0 0 -1
    outer loop
      vertex 15 -15 0
      vertex -15 -15 0
      vertex -15 15 0
    endloop
  endfacet
endsolid PythonSCAD_Model
