solid PythonSCAD_Model
  facet normal -1 0 0
    outer loop
      vertex -2.5 -45 -20
      vertex -2.5 -42.5 -20
      vertex -2.5 -50 -25
    endloop
  endfacet
  facet normal -1 0 0
    outer loop
      vertex -2.5 -42.5 -20
      vertex -2.5 -32.5 -20
      vertex -2.5 -50 -25
    endloop
  endfacet
  facet normal -1 0 0
    outer loop
      vertex -2.5 -32.5 -20
      vertex -2.5 -22.5 -20
      vertex -2.5 -50 -25
    endloop
  endfacet
  facet normal -1 0 0
    outer loop
      vertex -2.5 -22.5 -20
      vertex -2.5 -12.5 -20
      vertex -2.5 -50 -25
    endloop
  endfacet
  facet normal -1 0 0
    outer loop
      vertex -2.5 -50 -25
      vertex -2.5 -45 20
      vertex -2.5 -45 -20
    endloop
  endfacet
  facet normal -1 0 0
    outer loop
      vertex -2.5 -12.5 -20
      vertex -2.5 -2.5 -20
      vertex -2.5 -50 -25
    endloop
  endfacet
  facet normal -1 0 0
    outer loop
      vertex -2.5 -2.5 -20
      vertex -2.5 7.5 -20
      vertex -2.5 -50 -25
    endloop
  endfacet
  facet normal -1 0 0
    outer loop
      vertex -2.5 7.5 -20
      vertex -2.5 17.5 -20
      vertex -2.5 -50 -25
    endloop
  endfacet
  facet normal -1 0 0
    outer loop
      vertex -2.5 17.5 -20
      vertex -2.5 27.5 -20
      vertex -2.5 -50 -25
    endloop
  endfacet
  facet normal -1 0 0
    outer loop
      vertex -2.5 -50 -25
      vertex -2.5 -50 25
      vertex -2.5 -45 20
    endloop
  endfacet
  facet normal -1 0 0
    outer loop
      vertex -2.5 -45 20
      vertex -2.5 -50 25
      vertex -2.5 50 25
    endloop
  endfacet
  facet normal -1 0 0
    outer loop
      vertex -2.5 -45 20
      vertex -2.5 50 25
      vertex -2.5 -42.5 20
    endloop
  endfacet
  facet normal -1 0 0
    outer loop
      vertex -2.5 50 25
      vertex -2.5 -32.5 20
      vertex -2.5 -42.5 20
    endloop
  endfacet
  facet normal -1 0 0
    outer loop
      vertex -2.5 50 25
      vertex -2.5 -22.5 20
      vertex -2.5 -32.5 20
    endloop
  endfacet
  facet normal 0 -1 0
    outer loop
      vertex -2.5 -50 -25
      vertex 2.5 -50 25
      vertex -2.5 -50 25
    endloop
  endfacet
  facet normal 0 0 1
    outer loop
      vertex -2.5 -50 25
      vertex 2.5 -50 25
      vertex -2.5 50 25
    endloop
  endfacet
  facet normal -1 0 0
    outer loop
      vertex -2.5 -50 -25
      vertex -2.5 27.5 -20
      vertex -2.5 37.5 -20
    endloop
  endfacet
  facet normal -1 0 0
    outer loop
      vertex -2.5 -50 -25
      vertex -2.5 37.5 -20
      vertex -2.5 45 -20
    endloop
  endfacet
  facet normal -1 0 0
    outer loop
      vertex -2.5 -50 -25
      vertex -2.5 45 -20
      vertex -2.5 50 -25
    endloop
  endfacet
  facet normal -1 0 0
    outer loop
      vertex -2.5 50 -25
      vertex -2.5 45 -20
      vertex -2.5 50 25
    endloop
  endfacet
  facet normal 0 0 -1
    outer loop
      vertex -2.5 -50 -25
      vertex -2.5 50 -25
      vertex 2.5 50 -25
    endloop
  endfacet
  facet normal 0 1 0
    outer loop
      vertex -2.5 50 -25
      vertex -2.5 50 25
      vertex 2.5 50 -25
    endloop
  endfacet
  facet normal -1 0 0
    outer loop
      vertex -2.5 50 25
      vertex -2.5 -12.5 20
      vertex -2.5 -22.5 20
    endloop
  endfacet
  facet normal -1 0 0
    outer loop
      vertex -2.5 50 25
      vertex -2.5 -2.5 20
      vertex -2.5 -12.5 20
    endloop
  endfacet
  facet normal -1 0 0
    outer loop
      vertex -2.5 50 25
      vertex -2.5 7.5 20
      vertex -2.5 -2.5 20
    endloop
  endfacet
  facet normal -1 0 0
    outer loop
      vertex -2.5 45 -20
      vertex -2.5 45 20
      vertex -2.5 50 25
    endloop
  endfacet
  facet normal -1 0 0
    outer loop
      vertex -2.5 50 25
      vertex -2.5 17.5 20
      vertex -2.5 7.5 20
    endloop
  endfacet
  facet normal -1 0 0
    outer loop
      vertex -2.5 50 25
      vertex -2.5 27.5 20
      vertex -2.5 17.5 20
    endloop
  endfacet
  facet normal -1 0 0
    outer loop
      vertex -2.5 50 25
      vertex -2.5 37.5 20
      vertex -2.5 27.5 20
    endloop
  endfacet
  facet normal -1 0 0
    outer loop
      vertex -2.5 50 25
      vertex -2.5 45 20
      vertex -2.5 37.5 20
    endloop
  endfacet
  facet normal 0 -1 0
    outer loop
      vertex -2.5 -50 -25
      vertex 2.5 -50 -25
      vertex 2.5 -50 25
    endloop
  endfacet
  facet normal 0 0 -1
    outer loop
      vertex -2.5 -50 -25
      vertex 2.5 50 -25
      vertex 2.5 -50 -25
    endloop
  endfacet
  facet normal 1 0 0
    outer loop
      vertex 2.5 -50 -25
      vertex 2.5 -45 -20
      vertex 2.5 -50 25
    endloop
  endfacet
  facet normal 1 0 0
    outer loop
      vertex 2.5 -50 -25
      vertex 2.5 50 -25
      vertex 2.5 -45 -20
    endloop
  endfacet
  facet normal 1 0 0
    outer loop
      vertex 2.5 -45 -20
      vertex 2.5 50 -25
      vertex 2.5 -37.5 -20
    endloop
  endfacet
  facet normal 1 0 0
    outer loop
      vertex 2.5 50 -25
      vertex 2.5 -27.5 -20
      vertex 2.5 -37.5 -20
    endloop
  endfacet
  facet normal 1 0 0
    outer loop
      vertex 2.5 -45 -20
      vertex 2.5 -45 20
      vertex 2.5 -50 25
    endloop
  endfacet
  facet normal 1 0 0
    outer loop
      vertex 2.5 -45 20
      vertex 2.5 -37.5 20
      vertex 2.5 -50 25
    endloop
  endfacet
  facet normal 1 0 0
    outer loop
      vertex 2.5 -37.5 20
      vertex 2.5 -27.5 20
      vertex 2.5 -50 25
    endloop
  endfacet
  facet normal 1 0 0
    outer loop
      vertex 2.5 -27.5 20
      vertex 2.5 -17.5 20
      vertex 2.5 -50 25
    endloop
  endfacet
  facet normal 1 0 0
    outer loop
      vertex 2.5 -17.5 20
      vertex 2.5 -7.5 20
      vertex 2.5 -50 25
    endloop
  endfacet
  facet normal 1 0 0
    outer loop
      vertex 2.5 -7.5 20
      vertex 2.5 2.5 20
      vertex 2.5 -50 25
    endloop
  endfacet
  facet normal 1 0 0
    outer loop
      vertex 2.5 2.5 20
      vertex 2.5 12.5 20
      vertex 2.5 -50 25
    endloop
  endfacet
  facet normal 1 0 0
    outer loop
      vertex 2.5 12.5 20
      vertex 2.5 22.5 20
      vertex 2.5 -50 25
    endloop
  endfacet
  facet normal 1 0 0
    outer loop
      vertex 2.5 50 -25
      vertex 2.5 -17.5 -20
      vertex 2.5 -27.5 -20
    endloop
  endfacet
  facet normal 1 0 0
    outer loop
      vertex 2.5 50 -25
      vertex 2.5 -7.5 -20
      vertex 2.5 -17.5 -20
    endloop
  endfacet
  facet normal 1 0 0
    outer loop
      vertex 2.5 50 -25
      vertex 2.5 2.5 -20
      vertex 2.5 -7.5 -20
    endloop
  endfacet
  facet normal 1 0 0
    outer loop
      vertex 2.5 50 -25
      vertex 2.5 12.5 -20
      vertex 2.5 2.5 -20
    endloop
  endfacet
  facet normal 1 0 0
    outer loop
      vertex 2.5 50 -25
      vertex 2.5 22.5 -20
      vertex 2.5 12.5 -20
    endloop
  endfacet
  facet normal 1 0 0
    outer loop
      vertex 2.5 50 -25
      vertex 2.5 32.5 -20
      vertex 2.5 22.5 -20
    endloop
  endfacet
  facet normal 1 0 0
    outer loop
      vertex 2.5 50 -25
      vertex 2.5 42.5 -20
      vertex 2.5 32.5 -20
    endloop
  endfacet
  facet normal 1 0 0
    outer loop
      vertex 2.5 50 -25
      vertex 2.5 45 -20
      vertex 2.5 42.5 -20
    endloop
  endfacet
  facet normal 1 0 0
    outer loop
      vertex 2.5 50 -25
      vertex 2.5 45 20
      vertex 2.5 45 -20
    endloop
  endfacet
  facet normal 0 0 1
    outer loop
      vertex -2.5 50 25
      vertex 2.5 -50 25
      vertex 2.5 50 25
    endloop
  endfacet
  facet normal 0 1 0
    outer loop
      vertex -2.5 50 25
      vertex 2.5 50 25
      vertex 2.5 50 -25
    endloop
  endfacet
  facet normal 1 0 0
    outer loop
      vertex 2.5 22.5 20
      vertex 2.5 32.5 20
      vertex 2.5 -50 25
    endloop
  endfacet
  facet normal 1 0 0
    outer loop
      vertex 2.5 -50 25
      vertex 2.5 32.5 20
      vertex 2.5 42.5 20
    endloop
  endfacet
  facet normal 1 0 0
    outer loop
      vertex 2.5 42.5 20
      vertex 2.5 45 20
      vertex 2.5 -50 25
    endloop
  endfacet
  facet normal 1 0 0
    outer loop
      vertex 2.5 -50 25
      vertex 2.5 45 20
      vertex 2.5 50 25
    endloop
  endfacet
  facet normal 1 0 0
    outer loop
      vertex 2.5 50 -25
      vertex 2.5 50 25
      vertex 2.5 45 20
    endloop
  endfacet
  facet normal 0 0 1
    outer loop
      vertex -2.5 -45 -20
      vertex -2.060660168528557 -43.75 -20
      vertex -2.5 -42.5 -20
    endloop
  endfacet
  facet normal 0 0 1
    outer loop
      vertex -2.5 -42.5 -20
      vertex -2.060660168528557 -41.25 -20
      vertex -2.060660168528557 -33.75 -20
    endloop
  endfacet
  facet normal 0 0 1
    outer loop
      vertex -2.5 -42.5 -20
      vertex -2.060660168528557 -33.75 -20
      vertex -2.5 -32.5 -20
    endloop
  endfacet
  facet normal 0 0 1
    outer loop
      vertex -2.5 -32.5 -20
      vertex -2.060660168528557 -23.75 -20
      vertex -2.5 -22.5 -20
    endloop
  endfacet
  facet normal 0 0 1
    outer loop
      vertex -2.5 -32.5 -20
      vertex -2.060660168528557 -31.25 -20
      vertex -2.060660168528557 -23.75 -20
    endloop
  endfacet
  facet normal 0 0 1
    outer loop
      vertex -2.5 -45 -20
      vertex -1 -45 -20
      vertex -2.060660168528557 -43.75 -20
    endloop
  endfacet
  facet normal 0 0 1
    outer loop
      vertex -2.060660168528557 -41.25 -20
      vertex 0.060660168528556824 -38.75 -20
      vertex -2.060660168528557 -33.75 -20
    endloop
  endfacet
  facet normal 0 0 1
    outer loop
      vertex -2.060660168528557 -31.25 -20
      vertex 0.060660168528556824 -28.75 -20
      vertex -2.060660168528557 -23.75 -20
    endloop
  endfacet
  facet normal 0 1 0
    outer loop
      vertex -2.5 -45 -20
      vertex -1 -45 20
      vertex -1 -45 -20
    endloop
  endfacet
  facet normal 0 0 1
    outer loop
      vertex -2.5 -22.5 -20
      vertex -2.060660168528557 -21.25 -20
      vertex -2.060660168528557 -13.75 -20
    endloop
  endfacet
  facet normal 0 0 1
    outer loop
      vertex -2.5 -22.5 -20
      vertex -2.060660168528557 -13.75 -20
      vertex -2.5 -12.5 -20
    endloop
  endfacet
  facet normal 0 0 1
    outer loop
      vertex -2.5 -12.5 -20
      vertex -2.060660168528557 -11.25 -20
      vertex -2.060660168528557 -3.75 -20
    endloop
  endfacet
  facet normal 0 0 1
    outer loop
      vertex -2.5 -12.5 -20
      vertex -2.060660168528557 -3.75 -20
      vertex -2.5 -2.5 -20
    endloop
  endfacet
  facet normal 0 0 1
    outer loop
      vertex -2.060660168528557 -21.25 -20
      vertex 0.060660168528556824 -18.75 -20
      vertex -2.060660168528557 -13.75 -20
    endloop
  endfacet
  facet normal 0 0 1
    outer loop
      vertex -2.060660168528557 -11.25 -20
      vertex 0.060660168528556824 -8.75 -20
      vertex -2.060660168528557 -3.75 -20
    endloop
  endfacet
  facet normal 0 0 1
    outer loop
      vertex -2.060660168528557 -33.75 -20
      vertex 0.060660168528556824 -38.75 -20
      vertex 0.060660168528556824 -36.25 -20
    endloop
  endfacet
  facet normal 0 0 1
    outer loop
      vertex -2.060660168528557 -23.75 -20
      vertex 0.060660168528556824 -28.75 -20
      vertex 0.060660168528556824 -26.25 -20
    endloop
  endfacet
  facet normal 0 0 1
    outer loop
      vertex -0.060660168528556824 -31.25 -20
      vertex -0.5 -32.5 -20
      vertex -0.060660168528556824 -33.75 -20
    endloop
  endfacet
  facet normal 0 0 1
    outer loop
      vertex -2.060660168528557 -13.75 -20
      vertex 0.060660168528556824 -18.75 -20
      vertex 0.060660168528556824 -16.25 -20
    endloop
  endfacet
  facet normal 0 0 1
    outer loop
      vertex -2.060660168528557 -3.75 -20
      vertex 0.060660168528556824 -8.75 -20
      vertex 0.060660168528556824 -6.25 -20
    endloop
  endfacet
  facet normal 0 0 1
    outer loop
      vertex -0.5 -22.5 -20
      vertex -0.060660168528556824 -23.75 -20
      vertex -0.060660168528556824 -21.25 -20
    endloop
  endfacet
  facet normal 0 0 1
    outer loop
      vertex -0.060660168528556824 -11.25 -20
      vertex -0.5 -12.5 -20
      vertex -0.060660168528556824 -13.75 -20
    endloop
  endfacet
  facet normal 0 0 1
    outer loop
      vertex -0.060660168528556824 -1.25 -20
      vertex -0.5 -2.5 -20
      vertex -0.060660168528556824 -3.75 -20
    endloop
  endfacet
  facet normal 0 1 0
    outer loop
      vertex -2.5 -45 -20
      vertex -2.5 -45 20
      vertex -1 -45 20
    endloop
  endfacet
  facet normal 0 0 -1
    outer loop
      vertex -2.5 -45 20
      vertex -2.5 -42.5 20
      vertex -2.060660168528557 -43.75 20
    endloop
  endfacet
  facet normal 0 0 -1
    outer loop
      vertex -2.5 -32.5 20
      vertex -2.060660168528557 -41.25 20
      vertex -2.5 -42.5 20
    endloop
  endfacet
  facet normal 0 0 -1
    outer loop
      vertex -2.5 -32.5 20
      vertex -2.060660168528557 -33.75 20
      vertex -2.060660168528557 -41.25 20
    endloop
  endfacet
  facet normal 0 0 -1
    outer loop
      vertex -2.060660168528557 -31.25 20
      vertex -2.5 -32.5 20
      vertex -2.5 -22.5 20
    endloop
  endfacet
  facet normal 0 0 -1
    outer loop
      vertex -2.5 -22.5 20
      vertex -2.060660168528557 -23.75 20
      vertex -2.060660168528557 -31.25 20
    endloop
  endfacet
  facet normal 0 0 -1
    outer loop
      vertex -2.5 -45 20
      vertex -2.060660168528557 -43.75 20
      vertex -1 -45 20
    endloop
  endfacet
  facet normal 0 0 -1
    outer loop
      vertex -2.060660168528557 -41.25 20
      vertex -2.060660168528557 -33.75 20
      vertex 0.060660168528556824 -36.25 20
    endloop
  endfacet
  facet normal 0 0 -1
    outer loop
      vertex -2.060660168528557 -31.25 20
      vertex -2.060660168528557 -23.75 20
      vertex 0.060660168528556824 -28.75 20
    endloop
  endfacet
  facet normal 0 0 -1
    outer loop
      vertex -2.060660168528557 -21.25 20
      vertex -2.5 -22.5 20
      vertex -2.5 -12.5 20
    endloop
  endfacet
  facet normal 0 0 -1
    outer loop
      vertex -2.5 -12.5 20
      vertex -2.060660168528557 -13.75 20
      vertex -2.060660168528557 -21.25 20
    endloop
  endfacet
  facet normal 0 0 -1
    outer loop
      vertex -2.060660168528557 -11.25 20
      vertex -2.5 -12.5 20
      vertex -2.5 -2.5 20
    endloop
  endfacet
  facet normal 0 0 -1
    outer loop
      vertex -2.5 -2.5 20
      vertex -2.060660168528557 -3.75 20
      vertex -2.060660168528557 -11.25 20
    endloop
  endfacet
  facet normal 0 0 -1
    outer loop
      vertex -2.060660168528557 -21.25 20
      vertex -2.060660168528557 -13.75 20
      vertex 0.060660168528556824 -18.75 20
    endloop
  endfacet
  facet normal 0 0 -1
    outer loop
      vertex -2.060660168528557 -11.25 20
      vertex -2.060660168528557 -3.75 20
      vertex 0.060660168528556824 -8.75 20
    endloop
  endfacet
  facet normal 0 0 -1
    outer loop
      vertex 0.060660168528556824 -38.75 20
      vertex -2.060660168528557 -41.25 20
      vertex 0.060660168528556824 -36.25 20
    endloop
  endfacet
  facet normal 0 0 -1
    outer loop
      vertex 0.060660168528556824 -26.25 20
      vertex 0.060660168528556824 -28.75 20
      vertex -2.060660168528557 -23.75 20
    endloop
  endfacet
  facet normal 0 0 -1
    outer loop
      vertex -0.5 -32.5 20
      vertex -0.060660168528556824 -31.25 20
      vertex -0.060660168528556824 -33.75 20
    endloop
  endfacet
  facet normal 0 0 -1
    outer loop
      vertex 0.060660168528556824 -16.25 20
      vertex 0.060660168528556824 -18.75 20
      vertex -2.060660168528557 -13.75 20
    endloop
  endfacet
  facet normal 0 0 -1
    outer loop
      vertex 0.060660168528556824 -6.25 20
      vertex 0.060660168528556824 -8.75 20
      vertex -2.060660168528557 -3.75 20
    endloop
  endfacet
  facet normal 0 0 -1
    outer loop
      vertex -0.060660168528556824 -23.75 20
      vertex -0.5 -22.5 20
      vertex -0.060660168528556824 -21.25 20
    endloop
  endfacet
  facet normal 0 0 -1
    outer loop
      vertex -0.5 -12.5 20
      vertex -0.060660168528556824 -11.25 20
      vertex -0.060660168528556824 -13.75 20
    endloop
  endfacet
  facet normal 0 0 -1
    outer loop
      vertex -0.060660168528556824 -3.75 20
      vertex -0.5 -2.5 20
      vertex -0.060660168528556824 -1.25 20
    endloop
  endfacet
  facet normal 0 0 1
    outer loop
      vertex -2.5 -2.5 -20
      vertex -2.060660168528557 6.25 -20
      vertex -2.5 7.5 -20
    endloop
  endfacet
  facet normal 0 0 1
    outer loop
      vertex -2.5 -2.5 -20
      vertex -2.060660168528557 -1.25 -20
      vertex -2.060660168528557 6.25 -20
    endloop
  endfacet
  facet normal 0 0 1
    outer loop
      vertex -2.5 7.5 -20
      vertex -2.060660168528557 8.75 -20
      vertex -2.060660168528557 16.25 -20
    endloop
  endfacet
  facet normal 0 0 1
    outer loop
      vertex -2.5 7.5 -20
      vertex -2.060660168528557 16.25 -20
      vertex -2.5 17.5 -20
    endloop
  endfacet
  facet normal 0 0 1
    outer loop
      vertex -2.5 17.5 -20
      vertex -2.060660168528557 26.25 -20
      vertex -2.5 27.5 -20
    endloop
  endfacet
  facet normal 0 0 1
    outer loop
      vertex -2.5 17.5 -20
      vertex -2.060660168528557 18.75 -20
      vertex -2.060660168528557 26.25 -20
    endloop
  endfacet
  facet normal 0 0 1
    outer loop
      vertex -2.060660168528557 -1.25 -20
      vertex 0.060660168528556824 3.75 -20
      vertex -2.060660168528557 6.25 -20
    endloop
  endfacet
  facet normal 0 0 1
    outer loop
      vertex -2.060660168528557 8.75 -20
      vertex 0.060660168528556824 13.75 -20
      vertex -2.060660168528557 16.25 -20
    endloop
  endfacet
  facet normal 0 0 1
    outer loop
      vertex -2.060660168528557 18.75 -20
      vertex 0.060660168528556824 23.75 -20
      vertex -2.060660168528557 26.25 -20
    endloop
  endfacet
  facet normal 0 0 1
    outer loop
      vertex -2.5 27.5 -20
      vertex -2.060660168528557 28.75 -20
      vertex -2.060660168528557 36.25 -20
    endloop
  endfacet
  facet normal 0 0 1
    outer loop
      vertex -2.5 27.5 -20
      vertex -2.060660168528557 36.25 -20
      vertex -2.5 37.5 -20
    endloop
  endfacet
  facet normal 0 0 1
    outer loop
      vertex -2.5 45 -20
      vertex -2.5 37.5 -20
      vertex -2.060660168528557 38.75 -20
    endloop
  endfacet
  facet normal 0 0 1
    outer loop
      vertex -2.060660168528557 28.75 -20
      vertex 0.060660168528556824 33.75 -20
      vertex -2.060660168528557 36.25 -20
    endloop
  endfacet
  facet normal 0 0 1
    outer loop
      vertex -2.5 45 -20
      vertex -2.060660168528557 38.75 -20
      vertex 0.060660168528556824 41.25 -20
    endloop
  endfacet
  facet normal 0 -1 0
    outer loop
      vertex -2.5 45 -20
      vertex -1 45 -20
      vertex -2.5 45 20
    endloop
  endfacet
  facet normal 0 0 1
    outer loop
      vertex 0.060660168528556824 1.25 -20
      vertex 0.060660168528556824 3.75 -20
      vertex -2.060660168528557 -1.25 -20
    endloop
  endfacet
  facet normal 0 0 1
    outer loop
      vertex 0.060660168528556824 13.75 -20
      vertex -2.060660168528557 8.75 -20
      vertex 0.060660168528556824 11.25 -20
    endloop
  endfacet
  facet normal 0 0 1
    outer loop
      vertex 0.060660168528556824 21.25 -20
      vertex 0.060660168528556824 23.75 -20
      vertex -2.060660168528557 18.75 -20
    endloop
  endfacet
  facet normal 0 0 1
    outer loop
      vertex -0.060660168528556824 8.75 -20
      vertex -0.5 7.5 -20
      vertex -0.060660168528556824 6.25 -20
    endloop
  endfacet
  facet normal 0 0 1
    outer loop
      vertex -0.060660168528556824 18.75 -20
      vertex -0.5 17.5 -20
      vertex -0.060660168528556824 16.25 -20
    endloop
  endfacet
  facet normal 0 0 1
    outer loop
      vertex 0.060660168528556824 31.25 -20
      vertex 0.060660168528556824 33.75 -20
      vertex -2.060660168528557 28.75 -20
    endloop
  endfacet
  facet normal 0 0 1
    outer loop
      vertex -2.5 45 -20
      vertex 0.060660168528556824 43.75 -20
      vertex -1 45 -20
    endloop
  endfacet
  facet normal 0 0 1
    outer loop
      vertex -2.5 45 -20
      vertex 0.060660168528556824 41.25 -20
      vertex 0.5 42.5 -20
    endloop
  endfacet
  facet normal 0 0 1
    outer loop
      vertex -2.5 45 -20
      vertex 0.5 42.5 -20
      vertex 0.060660168528556824 43.75 -20
    endloop
  endfacet
  facet normal 0 0 1
    outer loop
      vertex -0.060660168528556824 28.75 -20
      vertex -0.5 27.5 -20
      vertex -0.060660168528556824 26.25 -20
    endloop
  endfacet
  facet normal 0 0 1
    outer loop
      vertex -0.060660168528556824 38.75 -20
      vertex -0.5 37.5 -20
      vertex -0.060660168528556824 36.25 -20
    endloop
  endfacet
  facet normal 0 0 -1
    outer loop
      vertex -2.060660168528557 -1.25 20
      vertex -2.5 -2.5 20
      vertex -2.5 7.5 20
    endloop
  endfacet
  facet normal 0 0 -1
    outer loop
      vertex -2.060660168528557 -1.25 20
      vertex -2.5 7.5 20
      vertex -2.060660168528557 6.25 20
    endloop
  endfacet
  facet normal 0 0 -1
    outer loop
      vertex -2.060660168528557 8.75 20
      vertex -2.5 7.5 20
      vertex -2.5 17.5 20
    endloop
  endfacet
  facet normal 0 0 -1
    outer loop
      vertex -2.5 17.5 20
      vertex -2.060660168528557 16.25 20
      vertex -2.060660168528557 8.75 20
    endloop
  endfacet
  facet normal 0 0 -1
    outer loop
      vertex -2.060660168528557 18.75 20
      vertex -2.5 17.5 20
      vertex -2.5 27.5 20
    endloop
  endfacet
  facet normal 0 0 -1
    outer loop
      vertex -2.5 27.5 20
      vertex -2.060660168528557 26.25 20
      vertex -2.060660168528557 18.75 20
    endloop
  endfacet
  facet normal 0 0 -1
    outer loop
      vertex -2.060660168528557 -1.25 20
      vertex -2.060660168528557 6.25 20
      vertex 0.060660168528556824 3.75 20
    endloop
  endfacet
  facet normal 0 0 -1
    outer loop
      vertex -2.060660168528557 8.75 20
      vertex -2.060660168528557 16.25 20
      vertex 0.060660168528556824 13.75 20
    endloop
  endfacet
  facet normal 0 0 -1
    outer loop
      vertex -2.060660168528557 18.75 20
      vertex -2.060660168528557 26.25 20
      vertex 0.060660168528556824 23.75 20
    endloop
  endfacet
  facet normal 0 -1 0
    outer loop
      vertex -2.5 45 20
      vertex -1 45 -20
      vertex -1 45 20
    endloop
  endfacet
  facet normal 0 0 -1
    outer loop
      vertex -2.060660168528557 28.75 20
      vertex -2.5 27.5 20
      vertex -2.5 37.5 20
    endloop
  endfacet
  facet normal 0 0 -1
    outer loop
      vertex -2.060660168528557 28.75 20
      vertex -2.5 37.5 20
      vertex -2.060660168528557 36.25 20
    endloop
  endfacet
  facet normal 0 0 -1
    outer loop
      vertex -2.5 45 20
      vertex -2.060660168528557 38.75 20
      vertex -2.5 37.5 20
    endloop
  endfacet
  facet normal 0 0 -1
    outer loop
      vertex -2.060660168528557 28.75 20
      vertex -2.060660168528557 36.25 20
      vertex 0.060660168528556824 33.75 20
    endloop
  endfacet
  facet normal 0 0 -1
    outer loop
      vertex -2.5 45 20
      vertex 0.060660168528556824 41.25 20
      vertex -2.060660168528557 38.75 20
    endloop
  endfacet
  facet normal 0 0 -1
    outer loop
      vertex -2.060660168528557 -1.25 20
      vertex 0.060660168528556824 3.75 20
      vertex 0.060660168528556824 1.25 20
    endloop
  endfacet
  facet normal 0 0 -1
    outer loop
      vertex 0.060660168528556824 11.25 20
      vertex -2.060660168528557 8.75 20
      vertex 0.060660168528556824 13.75 20
    endloop
  endfacet
  facet normal 0 0 -1
    outer loop
      vertex 0.060660168528556824 21.25 20
      vertex -2.060660168528557 18.75 20
      vertex 0.060660168528556824 23.75 20
    endloop
  endfacet
  facet normal 0 0 -1
    outer loop
      vertex -0.5 7.5 20
      vertex -0.060660168528556824 8.75 20
      vertex -0.060660168528556824 6.25 20
    endloop
  endfacet
  facet normal 0 0 -1
    outer loop
      vertex -0.5 17.5 20
      vertex -0.060660168528556824 18.75 20
      vertex -0.060660168528556824 16.25 20
    endloop
  endfacet
  facet normal 0 0 -1
    outer loop
      vertex 0.060660168528556824 31.25 20
      vertex -2.060660168528557 28.75 20
      vertex 0.060660168528556824 33.75 20
    endloop
  endfacet
  facet normal 0 0 -1
    outer loop
      vertex -2.5 45 20
      vertex -1 45 20
      vertex 0.060660168528556824 43.75 20
    endloop
  endfacet
  facet normal 0 0 -1
    outer loop
      vertex -2.5 45 20
      vertex 0.5 42.5 20
      vertex 0.060660168528556824 41.25 20
    endloop
  endfacet
  facet normal 0 0 -1
    outer loop
      vertex -2.5 45 20
      vertex 0.060660168528556824 43.75 20
      vertex 0.5 42.5 20
    endloop
  endfacet
  facet normal 0 0 -1
    outer loop
      vertex -0.5 27.5 20
      vertex -0.060660168528556824 28.75 20
      vertex -0.060660168528556824 26.25 20
    endloop
  endfacet
  facet normal 0 0 -1
    outer loop
      vertex -0.5 37.5 20
      vertex -0.060660168528556824 38.75 20
      vertex -0.060660168528556824 36.25 20
    endloop
  endfacet
  facet normal 0 0 1
    outer loop
      vertex 0.060660168528556824 -36.25 -20
      vertex 0.060660168528556824 -38.75 -20
      vertex 0.5 -37.5 -20
    endloop
  endfacet
  facet normal 0 0 1
    outer loop
      vertex 0.060660168528556824 -26.25 -20
      vertex 0.060660168528556824 -28.75 -20
      vertex 0.5 -27.5 -20
    endloop
  endfacet
  facet normal 0 0 1
    outer loop
      vertex 2.5 -45 -20
      vertex -0.5 -42.5 -20
      vertex -0.060660168528556824 -43.75 -20
    endloop
  endfacet
  facet normal 0 0 1
    outer loop
      vertex 2.5 -45 -20
      vertex -0.060660168528556824 -41.25 -20
      vertex -0.5 -42.5 -20
    endloop
  endfacet
  facet normal 0 0 1
    outer loop
      vertex 2.5 -45 -20
      vertex -0.060660168528556824 -43.75 -20
      vertex 1 -45 -20
    endloop
  endfacet
  facet normal 0 0 1
    outer loop
      vertex -0.060660168528556824 -31.25 -20
      vertex -0.060660168528556824 -33.75 -20
      vertex 2.060660168528557 -28.75 -20
    endloop
  endfacet
  facet normal 0 0 1
    outer loop
      vertex 0.060660168528556824 -16.25 -20
      vertex 0.060660168528556824 -18.75 -20
      vertex 0.5 -17.5 -20
    endloop
  endfacet
  facet normal 0 0 1
    outer loop
      vertex 0.060660168528556824 -6.25 -20
      vertex 0.060660168528556824 -8.75 -20
      vertex 0.5 -7.5 -20
    endloop
  endfacet
  facet normal 0 0 1
    outer loop
      vertex -0.060660168528556824 -21.25 -20
      vertex -0.060660168528556824 -23.75 -20
      vertex 2.060660168528557 -18.75 -20
    endloop
  endfacet
  facet normal 0 0 1
    outer loop
      vertex -0.060660168528556824 -11.25 -20
      vertex -0.060660168528556824 -13.75 -20
      vertex 2.060660168528557 -8.75 -20
    endloop
  endfacet
  facet normal 0 0 1
    outer loop
      vertex -0.060660168528556824 -1.25 -20
      vertex -0.060660168528556824 -3.75 -20
      vertex 2.060660168528557 1.25 -20
    endloop
  endfacet
  facet normal 0 0 1
    outer loop
      vertex 2.5 -45 -20
      vertex 2.060660168528557 -38.75 -20
      vertex -0.060660168528556824 -41.25 -20
    endloop
  endfacet
  facet normal 0 0 1
    outer loop
      vertex 2.060660168528557 -28.75 -20
      vertex -0.060660168528556824 -33.75 -20
      vertex 2.060660168528557 -36.25 -20
    endloop
  endfacet
  facet normal 0 0 1
    outer loop
      vertex 2.5 -45 -20
      vertex 2.5 -37.5 -20
      vertex 2.060660168528557 -38.75 -20
    endloop
  endfacet
  facet normal 0 0 1
    outer loop
      vertex 2.060660168528557 -36.25 -20
      vertex 2.5 -37.5 -20
      vertex 2.5 -27.5 -20
    endloop
  endfacet
  facet normal 0 0 1
    outer loop
      vertex 2.060660168528557 -36.25 -20
      vertex 2.5 -27.5 -20
      vertex 2.060660168528557 -28.75 -20
    endloop
  endfacet
  facet normal 0 1 0
    outer loop
      vertex 2.5 -45 -20
      vertex 1 -45 -20
      vertex 2.5 -45 20
    endloop
  endfacet
  facet normal 0 0 1
    outer loop
      vertex 2.060660168528557 -26.25 -20
      vertex 2.060660168528557 -18.75 -20
      vertex -0.060660168528556824 -23.75 -20
    endloop
  endfacet
  facet normal 0 0 1
    outer loop
      vertex 2.060660168528557 -8.75 -20
      vertex -0.060660168528556824 -13.75 -20
      vertex 2.060660168528557 -16.25 -20
    endloop
  endfacet
  facet normal 0 0 1
    outer loop
      vertex 2.060660168528557 -6.25 -20
      vertex 2.060660168528557 1.25 -20
      vertex -0.060660168528556824 -3.75 -20
    endloop
  endfacet
  facet normal 0 0 1
    outer loop
      vertex 2.5 -17.5 -20
      vertex 2.060660168528557 -18.75 -20
      vertex 2.060660168528557 -26.25 -20
    endloop
  endfacet
  facet normal 0 0 1
    outer loop
      vertex 2.060660168528557 -26.25 -20
      vertex 2.5 -27.5 -20
      vertex 2.5 -17.5 -20
    endloop
  endfacet
  facet normal 0 0 1
    outer loop
      vertex 2.060660168528557 -16.25 -20
      vertex 2.5 -17.5 -20
      vertex 2.5 -7.5 -20
    endloop
  endfacet
  facet normal 0 0 1
    outer loop
      vertex 2.5 -7.5 -20
      vertex 2.060660168528557 -8.75 -20
      vertex 2.060660168528557 -16.25 -20
    endloop
  endfacet
  facet normal 0 0 1
    outer loop
      vertex 2.060660168528557 -6.25 -20
      vertex 2.5 2.5 -20
      vertex 2.060660168528557 1.25 -20
    endloop
  endfacet
  facet normal 0 0 1
    outer loop
      vertex 2.060660168528557 -6.25 -20
      vertex 2.5 -7.5 -20
      vertex 2.5 2.5 -20
    endloop
  endfacet
  facet normal 0 0 -1
    outer loop
      vertex 0.060660168528556824 -36.25 20
      vertex 0.5 -37.5 20
      vertex 0.060660168528556824 -38.75 20
    endloop
  endfacet
  facet normal 0 0 -1
    outer loop
      vertex 0.060660168528556824 -26.25 20
      vertex 0.5 -27.5 20
      vertex 0.060660168528556824 -28.75 20
    endloop
  endfacet
  facet normal 0 0 -1
    outer loop
      vertex 2.5 -45 20
      vertex -0.060660168528556824 -43.75 20
      vertex -0.5 -42.5 20
    endloop
  endfacet
  facet normal 0 0 -1
    outer loop
      vertex 2.5 -45 20
      vertex -0.5 -42.5 20
      vertex -0.060660168528556824 -41.25 20
    endloop
  endfacet
  facet normal 0 0 -1
    outer loop
      vertex 2.5 -45 20
      vertex 1 -45 20
      vertex -0.060660168528556824 -43.75 20
    endloop
  endfacet
  facet normal 0 0 -1
    outer loop
      vertex -0.060660168528556824 -33.75 20
      vertex -0.060660168528556824 -31.25 20
      vertex 2.060660168528557 -28.75 20
    endloop
  endfacet
  facet normal 0 0 -1
    outer loop
      vertex 0.060660168528556824 -16.25 20
      vertex 0.5 -17.5 20
      vertex 0.060660168528556824 -18.75 20
    endloop
  endfacet
  facet normal 0 0 -1
    outer loop
      vertex 0.060660168528556824 -6.25 20
      vertex 0.5 -7.5 20
      vertex 0.060660168528556824 -8.75 20
    endloop
  endfacet
  facet normal 0 0 -1
    outer loop
      vertex -0.060660168528556824 -23.75 20
      vertex -0.060660168528556824 -21.25 20
      vertex 2.060660168528557 -18.75 20
    endloop
  endfacet
  facet normal 0 0 -1
    outer loop
      vertex -0.060660168528556824 -13.75 20
      vertex -0.060660168528556824 -11.25 20
      vertex 2.060660168528557 -8.75 20
    endloop
  endfacet
  facet normal 0 0 -1
    outer loop
      vertex -0.060660168528556824 -3.75 20
      vertex -0.060660168528556824 -1.25 20
      vertex 2.060660168528557 1.25 20
    endloop
  endfacet
  facet normal 0 1 0
    outer loop
      vertex 2.5 -45 20
      vertex 1 -45 -20
      vertex 1 -45 20
    endloop
  endfacet
  facet normal 0 0 -1
    outer loop
      vertex 2.5 -45 20
      vertex -0.060660168528556824 -41.25 20
      vertex 2.060660168528557 -38.75 20
    endloop
  endfacet
  facet normal 0 0 -1
    outer loop
      vertex 2.060660168528557 -36.25 20
      vertex -0.060660168528556824 -33.75 20
      vertex 2.060660168528557 -28.75 20
    endloop
  endfacet
  facet normal 0 0 -1
    outer loop
      vertex 2.5 -45 20
      vertex 2.060660168528557 -38.75 20
      vertex 2.5 -37.5 20
    endloop
  endfacet
  facet normal 0 0 -1
    outer loop
      vertex 2.5 -37.5 20
      vertex 2.060660168528557 -36.25 20
      vertex 2.060660168528557 -28.75 20
    endloop
  endfacet
  facet normal 0 0 -1
    outer loop
      vertex 2.5 -37.5 20
      vertex 2.060660168528557 -28.75 20
      vertex 2.5 -27.5 20
    endloop
  endfacet
  facet normal 0 0 -1
    outer loop
      vertex 2.060660168528557 -26.25 20
      vertex -0.060660168528556824 -23.75 20
      vertex 2.060660168528557 -18.75 20
    endloop
  endfacet
  facet normal 0 0 -1
    outer loop
      vertex 2.060660168528557 -16.25 20
      vertex -0.060660168528556824 -13.75 20
      vertex 2.060660168528557 -8.75 20
    endloop
  endfacet
  facet normal 0 0 -1
    outer loop
      vertex 2.060660168528557 -6.25 20
      vertex -0.060660168528556824 -3.75 20
      vertex 2.060660168528557 1.25 20
    endloop
  endfacet
  facet normal 0 0 -1
    outer loop
      vertex 2.5 -27.5 20
      vertex 2.060660168528557 -26.25 20
      vertex 2.060660168528557 -18.75 20
    endloop
  endfacet
  facet normal 0 0 -1
    outer loop
      vertex 2.5 -27.5 20
      vertex 2.060660168528557 -18.75 20
      vertex 2.5 -17.5 20
    endloop
  endfacet
  facet normal 0 0 -1
    outer loop
      vertex 2.5 -17.5 20
      vertex 2.060660168528557 -16.25 20
      vertex 2.060660168528557 -8.75 20
    endloop
  endfacet
  facet normal 0 0 -1
    outer loop
      vertex 2.5 -17.5 20
      vertex 2.060660168528557 -8.75 20
      vertex 2.5 -7.5 20
    endloop
  endfacet
  facet normal 0 0 -1
    outer loop
      vertex 2.5 -7.5 20
      vertex 2.060660168528557 -6.25 20
      vertex 2.060660168528557 1.25 20
    endloop
  endfacet
  facet normal 0 0 -1
    outer loop
      vertex 2.5 -7.5 20
      vertex 2.060660168528557 1.25 20
      vertex 2.5 2.5 20
    endloop
  endfacet
  facet normal 0 0 1
    outer loop
      vertex 0.060660168528556824 3.75 -20
      vertex 0.060660168528556824 1.25 -20
      vertex 0.5 2.5 -20
    endloop
  endfacet
  facet normal 0 0 1
    outer loop
      vertex 0.060660168528556824 13.75 -20
      vertex 0.060660168528556824 11.25 -20
      vertex 0.5 12.5 -20
    endloop
  endfacet
  facet normal 0 0 1
    outer loop
      vertex 0.060660168528556824 23.75 -20
      vertex 0.060660168528556824 21.25 -20
      vertex 0.5 22.5 -20
    endloop
  endfacet
  facet normal 0 0 1
    outer loop
      vertex -0.060660168528556824 8.75 -20
      vertex -0.060660168528556824 6.25 -20
      vertex 2.060660168528557 3.75 -20
    endloop
  endfacet
  facet normal 0 0 1
    outer loop
      vertex -0.060660168528556824 18.75 -20
      vertex -0.060660168528556824 16.25 -20
      vertex 2.060660168528557 13.75 -20
    endloop
  endfacet
  facet normal 0 0 1
    outer loop
      vertex 0.060660168528556824 33.75 -20
      vertex 0.060660168528556824 31.25 -20
      vertex 0.5 32.5 -20
    endloop
  endfacet
  facet normal 0 0 1
    outer loop
      vertex -0.060660168528556824 28.75 -20
      vertex -0.060660168528556824 26.25 -20
      vertex 2.060660168528557 23.75 -20
    endloop
  endfacet
  facet normal 0 0 1
    outer loop
      vertex -0.060660168528556824 38.75 -20
      vertex -0.060660168528556824 36.25 -20
      vertex 2.060660168528557 33.75 -20
    endloop
  endfacet
  facet normal 0 0 1
    outer loop
      vertex -0.060660168528556824 8.75 -20
      vertex 2.060660168528557 3.75 -20
      vertex 2.060660168528557 11.25 -20
    endloop
  endfacet
  facet normal 0 0 1
    outer loop
      vertex -0.060660168528556824 18.75 -20
      vertex 2.060660168528557 13.75 -20
      vertex 2.060660168528557 21.25 -20
    endloop
  endfacet
  facet normal 0 0 1
    outer loop
      vertex 2.060660168528557 3.75 -20
      vertex 2.5 12.5 -20
      vertex 2.060660168528557 11.25 -20
    endloop
  endfacet
  facet normal 0 0 1
    outer loop
      vertex 2.060660168528557 3.75 -20
      vertex 2.5 2.5 -20
      vertex 2.5 12.5 -20
    endloop
  endfacet
  facet normal 0 0 1
    outer loop
      vertex 2.060660168528557 13.75 -20
      vertex 2.5 12.5 -20
      vertex 2.5 22.5 -20
    endloop
  endfacet
  facet normal 0 0 1
    outer loop
      vertex 2.5 22.5 -20
      vertex 2.060660168528557 21.25 -20
      vertex 2.060660168528557 13.75 -20
    endloop
  endfacet
  facet normal 0 0 1
    outer loop
      vertex -0.060660168528556824 28.75 -20
      vertex 2.060660168528557 23.75 -20
      vertex 2.060660168528557 31.25 -20
    endloop
  endfacet
  facet normal 0 0 1
    outer loop
      vertex -0.060660168528556824 38.75 -20
      vertex 2.060660168528557 33.75 -20
      vertex 2.060660168528557 41.25 -20
    endloop
  endfacet
  facet normal 0 0 1
    outer loop
      vertex 2.5 45 -20
      vertex 1 45 -20
      vertex 2.060660168528557 43.75 -20
    endloop
  endfacet
  facet normal 0 0 1
    outer loop
      vertex 2.060660168528557 23.75 -20
      vertex 2.5 32.5 -20
      vertex 2.060660168528557 31.25 -20
    endloop
  endfacet
  facet normal 0 0 1
    outer loop
      vertex 2.060660168528557 23.75 -20
      vertex 2.5 22.5 -20
      vertex 2.5 32.5 -20
    endloop
  endfacet
  facet normal 0 0 1
    outer loop
      vertex 2.060660168528557 33.75 -20
      vertex 2.5 32.5 -20
      vertex 2.5 42.5 -20
    endloop
  endfacet
  facet normal 0 0 1
    outer loop
      vertex 2.060660168528557 33.75 -20
      vertex 2.5 42.5 -20
      vertex 2.060660168528557 41.25 -20
    endloop
  endfacet
  facet normal 0 0 1
    outer loop
      vertex 2.5 45 -20
      vertex 2.060660168528557 43.75 -20
      vertex 2.5 42.5 -20
    endloop
  endfacet
  facet normal 0 -1 0
    outer loop
      vertex 2.5 45 -20
      vertex 1 45 20
      vertex 1 45 -20
    endloop
  endfacet
  facet normal 0 0 -1
    outer loop
      vertex 0.060660168528556824 1.25 20
      vertex 0.060660168528556824 3.75 20
      vertex 0.5 2.5 20
    endloop
  endfacet
  facet normal 0 0 -1
    outer loop
      vertex 0.060660168528556824 13.75 20
      vertex 0.5 12.5 20
      vertex 0.060660168528556824 11.25 20
    endloop
  endfacet
  facet normal 0 0 -1
    outer loop
      vertex 0.5 22.5 20
      vertex 0.060660168528556824 21.25 20
      vertex 0.060660168528556824 23.75 20
    endloop
  endfacet
  facet normal 0 0 -1
    outer loop
      vertex -0.060660168528556824 6.25 20
      vertex -0.060660168528556824 8.75 20
      vertex 2.060660168528557 3.75 20
    endloop
  endfacet
  facet normal 0 0 -1
    outer loop
      vertex -0.060660168528556824 16.25 20
      vertex -0.060660168528556824 18.75 20
      vertex 2.060660168528557 13.75 20
    endloop
  endfacet
  facet normal 0 0 -1
    outer loop
      vertex 0.060660168528556824 33.75 20
      vertex 0.5 32.5 20
      vertex 0.060660168528556824 31.25 20
    endloop
  endfacet
  facet normal 0 0 -1
    outer loop
      vertex -0.060660168528556824 26.25 20
      vertex -0.060660168528556824 28.75 20
      vertex 2.060660168528557 23.75 20
    endloop
  endfacet
  facet normal 0 0 -1
    outer loop
      vertex -0.060660168528556824 36.25 20
      vertex -0.060660168528556824 38.75 20
      vertex 2.060660168528557 41.25 20
    endloop
  endfacet
  facet normal 0 0 -1
    outer loop
      vertex 2.060660168528557 3.75 20
      vertex -0.060660168528556824 8.75 20
      vertex 2.060660168528557 11.25 20
    endloop
  endfacet
  facet normal 0 0 -1
    outer loop
      vertex 2.060660168528557 13.75 20
      vertex -0.060660168528556824 18.75 20
      vertex 2.060660168528557 21.25 20
    endloop
  endfacet
  facet normal 0 0 -1
    outer loop
      vertex 2.5 2.5 20
      vertex 2.060660168528557 3.75 20
      vertex 2.060660168528557 11.25 20
    endloop
  endfacet
  facet normal 0 0 -1
    outer loop
      vertex 2.5 2.5 20
      vertex 2.060660168528557 11.25 20
      vertex 2.5 12.5 20
    endloop
  endfacet
  facet normal 0 0 -1
    outer loop
      vertex 2.5 12.5 20
      vertex 2.060660168528557 13.75 20
      vertex 2.060660168528557 21.25 20
    endloop
  endfacet
  facet normal 0 0 -1
    outer loop
      vertex 2.5 12.5 20
      vertex 2.060660168528557 21.25 20
      vertex 2.5 22.5 20
    endloop
  endfacet
  facet normal 0 -1 0
    outer loop
      vertex 2.5 45 -20
      vertex 2.5 45 20
      vertex 1 45 20
    endloop
  endfacet
  facet normal 0 0 -1
    outer loop
      vertex 2.060660168528557 23.75 20
      vertex -0.060660168528556824 28.75 20
      vertex 2.060660168528557 31.25 20
    endloop
  endfacet
  facet normal 0 0 -1
    outer loop
      vertex -0.060660168528556824 36.25 20
      vertex 2.060660168528557 41.25 20
      vertex 2.060660168528557 33.75 20
    endloop
  endfacet
  facet normal 0 0 -1
    outer loop
      vertex 2.5 45 20
      vertex 2.060660168528557 43.75 20
      vertex 1 45 20
    endloop
  endfacet
  facet normal 0 0 -1
    outer loop
      vertex 2.5 22.5 20
      vertex 2.060660168528557 23.75 20
      vertex 2.060660168528557 31.25 20
    endloop
  endfacet
  facet normal 0 0 -1
    outer loop
      vertex 2.5 22.5 20
      vertex 2.060660168528557 31.25 20
      vertex 2.5 32.5 20
    endloop
  endfacet
  facet normal 0 0 -1
    outer loop
      vertex 2.5 32.5 20
      vertex 2.060660168528557 33.75 20
      vertex 2.060660168528557 41.25 20
    endloop
  endfacet
  facet normal 0 0 -1
    outer loop
      vertex 2.5 32.5 20
      vertex 2.060660168528557 41.25 20
      vertex 2.5 42.5 20
    endloop
  endfacet
  facet normal 0 0 -1
    outer loop
      vertex 2.5 45 20
      vertex 2.5 42.5 20
      vertex 2.060660168528557 43.75 20
    endloop
  endfacet
  facet normal -0.9434245765937871 -0.33158719558938565 0
    outer loop
      vertex -2.060660168528557 -43.75 -20
      vertex -2.5 -42.5 20
      vertex -2.5 -42.5 -20
    endloop
  endfacet
  facet normal -0.9434245765937871 0.33158719558938565 0
    outer loop
      vertex -2.5 -42.5 -20
      vertex -2.060660168528557 -41.25 20
      vertex -2.060660168528557 -41.25 -20
    endloop
  endfacet
  facet normal -0.9434245765937871 -0.33158719558938565 0
    outer loop
      vertex -2.060660168528557 -33.75 -20
      vertex -2.5 -32.5 20
      vertex -2.5 -32.5 -20
    endloop
  endfacet
  facet normal -0.9434245765937871 0.33158719558938565 0
    outer loop
      vertex -2.5 -32.5 -20
      vertex -2.060660168528557 -31.25 20
      vertex -2.060660168528557 -31.25 -20
    endloop
  endfacet
  facet normal -0.7624928526414221 -0.6469966380675766 0
    outer loop
      vertex -2.060660168528557 -43.75 -20
      vertex -1 -45 -20
      vertex -1 -45 20
    endloop
  endfacet
  facet normal -0.7624928526414221 -0.6469966380675766 0
    outer loop
      vertex -2.060660168528557 -33.75 -20
      vertex 0.060660168528556824 -36.25 -20
      vertex -2.060660168528557 -33.75 20
    endloop
  endfacet
  facet normal -0.9434245765937871 -0.33158719558938565 0
    outer loop
      vertex -2.060660168528557 -23.75 -20
      vertex -2.5 -22.5 20
      vertex -2.5 -22.5 -20
    endloop
  endfacet
  facet normal -0.9434245765937871 0.33158719558938565 0
    outer loop
      vertex -2.5 -22.5 -20
      vertex -2.060660168528557 -21.25 20
      vertex -2.060660168528557 -21.25 -20
    endloop
  endfacet
  facet normal -0.9434245765937871 -0.33158719558938565 0
    outer loop
      vertex -2.060660168528557 -13.75 -20
      vertex -2.5 -12.5 20
      vertex -2.5 -12.5 -20
    endloop
  endfacet
  facet normal -0.9434245765937871 0.33158719558938565 0
    outer loop
      vertex -2.5 -12.5 -20
      vertex -2.060660168528557 -11.25 20
      vertex -2.060660168528557 -11.25 -20
    endloop
  endfacet
  facet normal -0.9434245765937871 -0.33158719558938565 0
    outer loop
      vertex -2.060660168528557 -3.75 -20
      vertex -2.5 -2.5 20
      vertex -2.5 -2.5 -20
    endloop
  endfacet
  facet normal -0.9434245765937871 0.33158719558938565 0
    outer loop
      vertex -2.5 -2.5 -20
      vertex -2.060660168528557 -1.25 20
      vertex -2.060660168528557 -1.25 -20
    endloop
  endfacet
  facet normal -0.7624928526414221 -0.6469966380675766 0
    outer loop
      vertex -2.060660168528557 -23.75 -20
      vertex 0.060660168528556824 -26.25 -20
      vertex -2.060660168528557 -23.75 20
    endloop
  endfacet
  facet normal -0.7624928526414221 -0.6469966380675766 0
    outer loop
      vertex -2.060660168528557 -13.75 -20
      vertex 0.060660168528556824 -16.25 -20
      vertex -2.060660168528557 -13.75 20
    endloop
  endfacet
  facet normal -0.7624928526414221 -0.6469966380675766 0
    outer loop
      vertex -2.060660168528557 -3.75 -20
      vertex 0.060660168528556824 -6.25 -20
      vertex -2.060660168528557 -3.75 20
    endloop
  endfacet
  facet normal -0.7624928526414221 0.6469966380675766 0
    outer loop
      vertex -2.060660168528557 -41.25 -20
      vertex 0.060660168528556824 -38.75 20
      vertex 0.060660168528556824 -38.75 -20
    endloop
  endfacet
  facet normal -0.7624928526414221 0.6469966380675766 0
    outer loop
      vertex -2.060660168528557 -31.25 -20
      vertex 0.060660168528556824 -28.75 20
      vertex 0.060660168528556824 -28.75 -20
    endloop
  endfacet
  facet normal 0.9434245765937871 -0.33158719558938565 0
    outer loop
      vertex -0.060660168528556824 -41.25 -20
      vertex -0.5 -42.5 20
      vertex -0.5 -42.5 -20
    endloop
  endfacet
  facet normal 0.9434245765937871 0.33158719558938565 0
    outer loop
      vertex -0.5 -42.5 -20
      vertex -0.060660168528556824 -43.75 20
      vertex -0.060660168528556824 -43.75 -20
    endloop
  endfacet
  facet normal 0.9434245765937871 -0.33158719558938565 0
    outer loop
      vertex -0.060660168528556824 -31.25 -20
      vertex -0.5 -32.5 20
      vertex -0.5 -32.5 -20
    endloop
  endfacet
  facet normal 0.9434245765937871 0.33158719558938565 0
    outer loop
      vertex -0.5 -32.5 -20
      vertex -0.060660168528556824 -33.75 20
      vertex -0.060660168528556824 -33.75 -20
    endloop
  endfacet
  facet normal -0.7624928526414221 0.6469966380675766 0
    outer loop
      vertex -2.060660168528557 -21.25 -20
      vertex 0.060660168528556824 -18.75 20
      vertex 0.060660168528556824 -18.75 -20
    endloop
  endfacet
  facet normal -0.7624928526414221 0.6469966380675766 0
    outer loop
      vertex -2.060660168528557 -11.25 -20
      vertex 0.060660168528556824 -8.75 20
      vertex 0.060660168528556824 -8.75 -20
    endloop
  endfacet
  facet normal 0.9434245765937871 -0.33158719558938565 0
    outer loop
      vertex -0.060660168528556824 -21.25 -20
      vertex -0.5 -22.5 20
      vertex -0.5 -22.5 -20
    endloop
  endfacet
  facet normal 0.9434245765937871 0.33158719558938565 0
    outer loop
      vertex -0.5 -22.5 -20
      vertex -0.060660168528556824 -23.75 20
      vertex -0.060660168528556824 -23.75 -20
    endloop
  endfacet
  facet normal 0.9434245765937871 0.33158719558938565 0
    outer loop
      vertex -0.5 -12.5 -20
      vertex -0.060660168528556824 -13.75 20
      vertex -0.060660168528556824 -13.75 -20
    endloop
  endfacet
  facet normal 0.9434245765937871 -0.33158719558938565 0
    outer loop
      vertex -0.060660168528556824 -11.25 -20
      vertex -0.5 -12.5 20
      vertex -0.5 -12.5 -20
    endloop
  endfacet
  facet normal 0.9434245765937871 -0.33158719558938565 0
    outer loop
      vertex -0.060660168528556824 -1.25 -20
      vertex -0.5 -2.5 20
      vertex -0.5 -2.5 -20
    endloop
  endfacet
  facet normal 0.9434245765937871 0.33158719558938565 0
    outer loop
      vertex -0.5 -2.5 -20
      vertex -0.060660168528556824 -3.75 20
      vertex -0.060660168528556824 -3.75 -20
    endloop
  endfacet
  facet normal -0.9434245765937871 0.33158719558938565 0
    outer loop
      vertex -2.5 -42.5 -20
      vertex -2.5 -42.5 20
      vertex -2.060660168528557 -41.25 20
    endloop
  endfacet
  facet normal -0.9434245765937871 -0.33158719558938565 0
    outer loop
      vertex -2.060660168528557 -43.75 -20
      vertex -2.060660168528557 -43.75 20
      vertex -2.5 -42.5 20
    endloop
  endfacet
  facet normal -0.9434245765937871 0.33158719558938565 0
    outer loop
      vertex -2.5 -32.5 -20
      vertex -2.5 -32.5 20
      vertex -2.060660168528557 -31.25 20
    endloop
  endfacet
  facet normal -0.9434245765937871 -0.33158719558938565 0
    outer loop
      vertex -2.060660168528557 -33.75 -20
      vertex -2.060660168528557 -33.75 20
      vertex -2.5 -32.5 20
    endloop
  endfacet
  facet normal -0.7624928526414221 -0.6469966380675766 0
    outer loop
      vertex -2.060660168528557 -43.75 -20
      vertex -1 -45 20
      vertex -2.060660168528557 -43.75 20
    endloop
  endfacet
  facet normal -0.7624928526414221 0.6469966380675766 0
    outer loop
      vertex -2.060660168528557 -41.25 -20
      vertex -2.060660168528557 -41.25 20
      vertex 0.060660168528556824 -38.75 20
    endloop
  endfacet
  facet normal -0.7624928526414221 0.6469966380675766 0
    outer loop
      vertex -2.060660168528557 -31.25 -20
      vertex -2.060660168528557 -31.25 20
      vertex 0.060660168528556824 -28.75 20
    endloop
  endfacet
  facet normal -0.9434245765937871 0.33158719558938565 0
    outer loop
      vertex -2.5 -22.5 -20
      vertex -2.5 -22.5 20
      vertex -2.060660168528557 -21.25 20
    endloop
  endfacet
  facet normal -0.9434245765937871 -0.33158719558938565 0
    outer loop
      vertex -2.060660168528557 -23.75 -20
      vertex -2.060660168528557 -23.75 20
      vertex -2.5 -22.5 20
    endloop
  endfacet
  facet normal -0.9434245765937871 -0.33158719558938565 0
    outer loop
      vertex -2.060660168528557 -13.75 -20
      vertex -2.060660168528557 -13.75 20
      vertex -2.5 -12.5 20
    endloop
  endfacet
  facet normal -0.9434245765937871 0.33158719558938565 0
    outer loop
      vertex -2.5 -12.5 -20
      vertex -2.5 -12.5 20
      vertex -2.060660168528557 -11.25 20
    endloop
  endfacet
  facet normal -0.9434245765937871 0.33158719558938565 0
    outer loop
      vertex -2.5 -2.5 -20
      vertex -2.5 -2.5 20
      vertex -2.060660168528557 -1.25 20
    endloop
  endfacet
  facet normal -0.9434245765937871 -0.33158719558938565 0
    outer loop
      vertex -2.060660168528557 -3.75 -20
      vertex -2.060660168528557 -3.75 20
      vertex -2.5 -2.5 20
    endloop
  endfacet
  facet normal -0.7624928526414221 0.6469966380675766 0
    outer loop
      vertex -2.060660168528557 -21.25 -20
      vertex -2.060660168528557 -21.25 20
      vertex 0.060660168528556824 -18.75 20
    endloop
  endfacet
  facet normal -0.7624928526414221 0.6469966380675766 0
    outer loop
      vertex -2.060660168528557 -11.25 -20
      vertex -2.060660168528557 -11.25 20
      vertex 0.060660168528556824 -8.75 20
    endloop
  endfacet
  facet normal -0.7624928526414221 0.6469966380675766 0
    outer loop
      vertex -2.060660168528557 -1.25 20
      vertex 0.060660168528556824 1.25 20
      vertex -2.060660168528557 -1.25 -20
    endloop
  endfacet
  facet normal -0.7624928526414221 -0.6469966380675766 0
    outer loop
      vertex 0.060660168528556824 -36.25 20
      vertex -2.060660168528557 -33.75 20
      vertex 0.060660168528556824 -36.25 -20
    endloop
  endfacet
  facet normal -0.7624928526414221 -0.6469966380675766 0
    outer loop
      vertex 0.060660168528556824 -26.25 20
      vertex -2.060660168528557 -23.75 20
      vertex 0.060660168528556824 -26.25 -20
    endloop
  endfacet
  facet normal 0.9434245765937871 0.33158719558938565 0
    outer loop
      vertex -0.5 -42.5 -20
      vertex -0.5 -42.5 20
      vertex -0.060660168528556824 -43.75 20
    endloop
  endfacet
  facet normal 0.9434245765937871 -0.33158719558938565 0
    outer loop
      vertex -0.060660168528556824 -41.25 -20
      vertex -0.060660168528556824 -41.25 20
      vertex -0.5 -42.5 20
    endloop
  endfacet
  facet normal 0.9434245765937871 0.33158719558938565 0
    outer loop
      vertex -0.5 -32.5 -20
      vertex -0.5 -32.5 20
      vertex -0.060660168528556824 -33.75 20
    endloop
  endfacet
  facet normal 0.9434245765937871 -0.33158719558938565 0
    outer loop
      vertex -0.060660168528556824 -31.25 -20
      vertex -0.060660168528556824 -31.25 20
      vertex -0.5 -32.5 20
    endloop
  endfacet
  facet normal -0.7624928526414221 -0.6469966380675766 0
    outer loop
      vertex 0.060660168528556824 -16.25 20
      vertex -2.060660168528557 -13.75 20
      vertex 0.060660168528556824 -16.25 -20
    endloop
  endfacet
  facet normal -0.7624928526414221 -0.6469966380675766 0
    outer loop
      vertex 0.060660168528556824 -6.25 20
      vertex -2.060660168528557 -3.75 20
      vertex 0.060660168528556824 -6.25 -20
    endloop
  endfacet
  facet normal 0.9434245765937871 0.33158719558938565 0
    outer loop
      vertex -0.5 -22.5 -20
      vertex -0.5 -22.5 20
      vertex -0.060660168528556824 -23.75 20
    endloop
  endfacet
  facet normal 0.9434245765937871 0.33158719558938565 0
    outer loop
      vertex -0.5 -12.5 -20
      vertex -0.5 -12.5 20
      vertex -0.060660168528556824 -13.75 20
    endloop
  endfacet
  facet normal 0.9434245765937871 -0.33158719558938565 0
    outer loop
      vertex -0.060660168528556824 -21.25 -20
      vertex -0.060660168528556824 -21.25 20
      vertex -0.5 -22.5 20
    endloop
  endfacet
  facet normal 0.9434245765937871 0.33158719558938565 0
    outer loop
      vertex -0.5 -2.5 -20
      vertex -0.5 -2.5 20
      vertex -0.060660168528556824 -3.75 20
    endloop
  endfacet
  facet normal 0.9434245765937871 -0.33158719558938565 0
    outer loop
      vertex -0.060660168528556824 -11.25 -20
      vertex -0.060660168528556824 -11.25 20
      vertex -0.5 -12.5 20
    endloop
  endfacet
  facet normal 0.9434245765937871 -0.33158719558938565 0
    outer loop
      vertex -0.060660168528556824 -1.25 -20
      vertex -0.060660168528556824 -1.25 20
      vertex -0.5 -2.5 20
    endloop
  endfacet
  facet normal -0.9434245765937871 -0.33158719558938565 0
    outer loop
      vertex -2.060660168528557 6.25 -20
      vertex -2.5 7.5 20
      vertex -2.5 7.5 -20
    endloop
  endfacet
  facet normal -0.9434245765937871 0.33158719558938565 0
    outer loop
      vertex -2.5 7.5 -20
      vertex -2.060660168528557 8.75 20
      vertex -2.060660168528557 8.75 -20
    endloop
  endfacet
  facet normal -0.9434245765937871 -0.33158719558938565 0
    outer loop
      vertex -2.060660168528557 16.25 -20
      vertex -2.5 17.5 20
      vertex -2.5 17.5 -20
    endloop
  endfacet
  facet normal -0.9434245765937871 0.33158719558938565 0
    outer loop
      vertex -2.5 17.5 -20
      vertex -2.060660168528557 18.75 20
      vertex -2.060660168528557 18.75 -20
    endloop
  endfacet
  facet normal -0.7624928526414221 -0.6469966380675766 0
    outer loop
      vertex -2.060660168528557 6.25 -20
      vertex 0.060660168528556824 3.75 -20
      vertex -2.060660168528557 6.25 20
    endloop
  endfacet
  facet normal -0.7624928526414221 -0.6469966380675766 0
    outer loop
      vertex -2.060660168528557 16.25 -20
      vertex 0.060660168528556824 13.75 -20
      vertex -2.060660168528557 16.25 20
    endloop
  endfacet
  facet normal -0.9434245765937871 -0.33158719558938565 0
    outer loop
      vertex -2.060660168528557 26.25 -20
      vertex -2.5 27.5 20
      vertex -2.5 27.5 -20
    endloop
  endfacet
  facet normal -0.9434245765937871 0.33158719558938565 0
    outer loop
      vertex -2.5 27.5 -20
      vertex -2.060660168528557 28.75 20
      vertex -2.060660168528557 28.75 -20
    endloop
  endfacet
  facet normal -0.9434245765937871 -0.33158719558938565 0
    outer loop
      vertex -2.060660168528557 36.25 -20
      vertex -2.5 37.5 20
      vertex -2.5 37.5 -20
    endloop
  endfacet
  facet normal -0.9434245765937871 0.33158719558938565 0
    outer loop
      vertex -2.060660168528557 38.75 20
      vertex -2.060660168528557 38.75 -20
      vertex -2.5 37.5 -20
    endloop
  endfacet
  facet normal -0.7624928526414221 -0.6469966380675766 0
    outer loop
      vertex -2.060660168528557 26.25 -20
      vertex 0.060660168528556824 23.75 -20
      vertex -2.060660168528557 26.25 20
    endloop
  endfacet
  facet normal -0.7624928526414221 -0.6469966380675766 0
    outer loop
      vertex -2.060660168528557 36.25 -20
      vertex 0.060660168528556824 33.75 -20
      vertex -2.060660168528557 36.25 20
    endloop
  endfacet
  facet normal -0.7624928526414221 0.6469966380675766 0
    outer loop
      vertex 0.060660168528556824 1.25 20
      vertex 0.060660168528556824 1.25 -20
      vertex -2.060660168528557 -1.25 -20
    endloop
  endfacet
  facet normal -0.7624928526414221 0.6469966380675766 0
    outer loop
      vertex 0.060660168528556824 11.25 20
      vertex 0.060660168528556824 11.25 -20
      vertex -2.060660168528557 8.75 -20
    endloop
  endfacet
  facet normal -0.7624928526414221 0.6469966380675766 0
    outer loop
      vertex 0.060660168528556824 21.25 20
      vertex 0.060660168528556824 21.25 -20
      vertex -2.060660168528557 18.75 -20
    endloop
  endfacet
  facet normal 0.9434245765937871 -0.33158719558938565 0
    outer loop
      vertex -0.5 7.5 20
      vertex -0.5 7.5 -20
      vertex -0.060660168528556824 8.75 -20
    endloop
  endfacet
  facet normal 0.9434245765937871 0.33158719558938565 0
    outer loop
      vertex -0.060660168528556824 6.25 20
      vertex -0.060660168528556824 6.25 -20
      vertex -0.5 7.5 -20
    endloop
  endfacet
  facet normal 0.9434245765937871 -0.33158719558938565 0
    outer loop
      vertex -0.5 17.5 20
      vertex -0.5 17.5 -20
      vertex -0.060660168528556824 18.75 -20
    endloop
  endfacet
  facet normal 0.9434245765937871 0.33158719558938565 0
    outer loop
      vertex -0.060660168528556824 16.25 20
      vertex -0.060660168528556824 16.25 -20
      vertex -0.5 17.5 -20
    endloop
  endfacet
  facet normal -0.7624928526414221 0.6469966380675766 0
    outer loop
      vertex 0.060660168528556824 31.25 20
      vertex 0.060660168528556824 31.25 -20
      vertex -2.060660168528557 28.75 -20
    endloop
  endfacet
  facet normal -0.7624928526414221 0.6469966380675766 0
    outer loop
      vertex 0.060660168528556824 41.25 20
      vertex 0.060660168528556824 41.25 -20
      vertex -2.060660168528557 38.75 -20
    endloop
  endfacet
  facet normal 0.9434245765937871 -0.33158719558938565 0
    outer loop
      vertex -0.5 27.5 20
      vertex -0.5 27.5 -20
      vertex -0.060660168528556824 28.75 -20
    endloop
  endfacet
  facet normal 0.9434245765937871 0.33158719558938565 0
    outer loop
      vertex -0.060660168528556824 26.25 20
      vertex -0.060660168528556824 26.25 -20
      vertex -0.5 27.5 -20
    endloop
  endfacet
  facet normal 0.9434245765937871 0.33158719558938565 0
    outer loop
      vertex -0.060660168528556824 36.25 20
      vertex -0.060660168528556824 36.25 -20
      vertex -0.5 37.5 -20
    endloop
  endfacet
  facet normal 0.9434245765937871 -0.33158719558938565 0
    outer loop
      vertex -0.5 37.5 20
      vertex -0.5 37.5 -20
      vertex -0.060660168528556824 38.75 -20
    endloop
  endfacet
  facet normal -0.7624928526414221 -0.6469966380675766 0
    outer loop
      vertex 0.060660168528556824 43.75 20
      vertex -1 45 -20
      vertex 0.060660168528556824 43.75 -20
    endloop
  endfacet
  facet normal -0.9434245765937871 0.33158719558938565 0
    outer loop
      vertex -2.5 7.5 -20
      vertex -2.5 7.5 20
      vertex -2.060660168528557 8.75 20
    endloop
  endfacet
  facet normal -0.9434245765937871 -0.33158719558938565 0
    outer loop
      vertex -2.060660168528557 6.25 -20
      vertex -2.060660168528557 6.25 20
      vertex -2.5 7.5 20
    endloop
  endfacet
  facet normal -0.9434245765937871 0.33158719558938565 0
    outer loop
      vertex -2.5 17.5 -20
      vertex -2.5 17.5 20
      vertex -2.060660168528557 18.75 20
    endloop
  endfacet
  facet normal -0.9434245765937871 -0.33158719558938565 0
    outer loop
      vertex -2.060660168528557 16.25 -20
      vertex -2.060660168528557 16.25 20
      vertex -2.5 17.5 20
    endloop
  endfacet
  facet normal -0.7624928526414221 0.6469966380675766 0
    outer loop
      vertex -2.060660168528557 8.75 -20
      vertex -2.060660168528557 8.75 20
      vertex 0.060660168528556824 11.25 20
    endloop
  endfacet
  facet normal -0.7624928526414221 0.6469966380675766 0
    outer loop
      vertex -2.060660168528557 18.75 -20
      vertex -2.060660168528557 18.75 20
      vertex 0.060660168528556824 21.25 20
    endloop
  endfacet
  facet normal -0.9434245765937871 0.33158719558938565 0
    outer loop
      vertex -2.5 27.5 -20
      vertex -2.5 27.5 20
      vertex -2.060660168528557 28.75 20
    endloop
  endfacet
  facet normal -0.9434245765937871 -0.33158719558938565 0
    outer loop
      vertex -2.060660168528557 26.25 -20
      vertex -2.060660168528557 26.25 20
      vertex -2.5 27.5 20
    endloop
  endfacet
  facet normal -0.9434245765937871 -0.33158719558938565 0
    outer loop
      vertex -2.060660168528557 36.25 -20
      vertex -2.060660168528557 36.25 20
      vertex -2.5 37.5 20
    endloop
  endfacet
  facet normal -0.9434245765937871 0.33158719558938565 0
    outer loop
      vertex -2.5 37.5 -20
      vertex -2.5 37.5 20
      vertex -2.060660168528557 38.75 20
    endloop
  endfacet
  facet normal -0.7624928526414221 0.6469966380675766 0
    outer loop
      vertex -2.060660168528557 28.75 -20
      vertex -2.060660168528557 28.75 20
      vertex 0.060660168528556824 31.25 20
    endloop
  endfacet
  facet normal -0.7624928526414221 0.6469966380675766 0
    outer loop
      vertex 0.060660168528556824 41.25 20
      vertex -2.060660168528557 38.75 -20
      vertex -2.060660168528557 38.75 20
    endloop
  endfacet
  facet normal -0.7624928526414221 -0.6469966380675766 0
    outer loop
      vertex 0.060660168528556824 3.75 20
      vertex -2.060660168528557 6.25 20
      vertex 0.060660168528556824 3.75 -20
    endloop
  endfacet
  facet normal -0.7624928526414221 -0.6469966380675766 0
    outer loop
      vertex 0.060660168528556824 13.75 20
      vertex -2.060660168528557 16.25 20
      vertex 0.060660168528556824 13.75 -20
    endloop
  endfacet
  facet normal -0.7624928526414221 -0.6469966380675766 0
    outer loop
      vertex 0.060660168528556824 23.75 20
      vertex -2.060660168528557 26.25 20
      vertex 0.060660168528556824 23.75 -20
    endloop
  endfacet
  facet normal 0.9434245765937871 0.33158719558938565 0
    outer loop
      vertex -0.5 7.5 -20
      vertex -0.5 7.5 20
      vertex -0.060660168528556824 6.25 20
    endloop
  endfacet
  facet normal 0.9434245765937871 -0.33158719558938565 0
    outer loop
      vertex -0.5 7.5 20
      vertex -0.060660168528556824 8.75 -20
      vertex -0.060660168528556824 8.75 20
    endloop
  endfacet
  facet normal 0.9434245765937871 0.33158719558938565 0
    outer loop
      vertex -0.060660168528556824 16.25 20
      vertex -0.5 17.5 -20
      vertex -0.5 17.5 20
    endloop
  endfacet
  facet normal 0.9434245765937871 -0.33158719558938565 0
    outer loop
      vertex -0.5 17.5 20
      vertex -0.060660168528556824 18.75 -20
      vertex -0.060660168528556824 18.75 20
    endloop
  endfacet
  facet normal -0.7624928526414221 -0.6469966380675766 0
    outer loop
      vertex 0.060660168528556824 33.75 20
      vertex -2.060660168528557 36.25 20
      vertex 0.060660168528556824 33.75 -20
    endloop
  endfacet
  facet normal -0.7624928526414221 -0.6469966380675766 0
    outer loop
      vertex 0.060660168528556824 43.75 20
      vertex -1 45 20
      vertex -1 45 -20
    endloop
  endfacet
  facet normal 0.9434245765937871 0.33158719558938565 0
    outer loop
      vertex -0.060660168528556824 26.25 20
      vertex -0.5 27.5 -20
      vertex -0.5 27.5 20
    endloop
  endfacet
  facet normal 0.9434245765937871 0.33158719558938565 0
    outer loop
      vertex -0.060660168528556824 36.25 20
      vertex -0.5 37.5 -20
      vertex -0.5 37.5 20
    endloop
  endfacet
  facet normal 0.9434245765937871 -0.33158719558938565 0
    outer loop
      vertex -0.5 27.5 20
      vertex -0.060660168528556824 28.75 -20
      vertex -0.060660168528556824 28.75 20
    endloop
  endfacet
  facet normal 0.9434245765937871 -0.33158719558938565 0
    outer loop
      vertex -0.5 37.5 20
      vertex -0.060660168528556824 38.75 -20
      vertex -0.060660168528556824 38.75 20
    endloop
  endfacet
  facet normal 0.7624928526414221 0.6469966380675766 0
    outer loop
      vertex -0.060660168528556824 -43.75 -20
      vertex -0.060660168528556824 -43.75 20
      vertex 1 -45 -20
    endloop
  endfacet
  facet normal -0.9434245765937871 0.33158719558938565 0
    outer loop
      vertex 0.060660168528556824 -38.75 -20
      vertex 0.5 -37.5 20
      vertex 0.5 -37.5 -20
    endloop
  endfacet
  facet normal -0.9434245765937871 -0.33158719558938565 0
    outer loop
      vertex 0.060660168528556824 -36.25 -20
      vertex 0.5 -37.5 -20
      vertex 0.060660168528556824 -36.25 20
    endloop
  endfacet
  facet normal -0.9434245765937871 -0.33158719558938565 0
    outer loop
      vertex 0.060660168528556824 -26.25 -20
      vertex 0.5 -27.5 -20
      vertex 0.060660168528556824 -26.25 20
    endloop
  endfacet
  facet normal -0.9434245765937871 0.33158719558938565 0
    outer loop
      vertex 0.060660168528556824 -28.75 -20
      vertex 0.5 -27.5 20
      vertex 0.5 -27.5 -20
    endloop
  endfacet
  facet normal 0.7624928526414221 -0.6469966380675766 0
    outer loop
      vertex -0.060660168528556824 -41.25 -20
      vertex 2.060660168528557 -38.75 -20
      vertex -0.060660168528556824 -41.25 20
    endloop
  endfacet
  facet normal 0.7624928526414221 -0.6469966380675766 0
    outer loop
      vertex -0.060660168528556824 -31.25 -20
      vertex 2.060660168528557 -28.75 -20
      vertex -0.060660168528556824 -31.25 20
    endloop
  endfacet
  facet normal -0.9434245765937871 -0.33158719558938565 0
    outer loop
      vertex 0.060660168528556824 -16.25 -20
      vertex 0.5 -17.5 -20
      vertex 0.060660168528556824 -16.25 20
    endloop
  endfacet
  facet normal -0.9434245765937871 0.33158719558938565 0
    outer loop
      vertex 0.060660168528556824 -18.75 -20
      vertex 0.5 -17.5 20
      vertex 0.5 -17.5 -20
    endloop
  endfacet
  facet normal -0.9434245765937871 -0.33158719558938565 0
    outer loop
      vertex 0.060660168528556824 -6.25 -20
      vertex 0.5 -7.5 -20
      vertex 0.060660168528556824 -6.25 20
    endloop
  endfacet
  facet normal -0.9434245765937871 0.33158719558938565 0
    outer loop
      vertex 0.5 -7.5 20
      vertex 0.5 -7.5 -20
      vertex 0.060660168528556824 -8.75 -20
    endloop
  endfacet
  facet normal 0.7624928526414221 -0.6469966380675766 0
    outer loop
      vertex -0.060660168528556824 -21.25 -20
      vertex 2.060660168528557 -18.75 -20
      vertex -0.060660168528556824 -21.25 20
    endloop
  endfacet
  facet normal 0.7624928526414221 -0.6469966380675766 0
    outer loop
      vertex -0.060660168528556824 -11.25 -20
      vertex 2.060660168528557 -8.75 -20
      vertex -0.060660168528556824 -11.25 20
    endloop
  endfacet
  facet normal 0.7624928526414221 -0.6469966380675766 0
    outer loop
      vertex -0.060660168528556824 -1.25 -20
      vertex 2.060660168528557 1.25 -20
      vertex -0.060660168528556824 -1.25 20
    endloop
  endfacet
  facet normal 0.7624928526414221 0.6469966380675766 0
    outer loop
      vertex 2.060660168528557 -36.25 20
      vertex 2.060660168528557 -36.25 -20
      vertex -0.060660168528556824 -33.75 -20
    endloop
  endfacet
  facet normal 0.7624928526414221 0.6469966380675766 0
    outer loop
      vertex 2.060660168528557 -26.25 20
      vertex 2.060660168528557 -26.25 -20
      vertex -0.060660168528556824 -23.75 -20
    endloop
  endfacet
  facet normal 0.9434245765937871 -0.33158719558938565 0
    outer loop
      vertex 2.060660168528557 -38.75 20
      vertex 2.060660168528557 -38.75 -20
      vertex 2.5 -37.5 -20
    endloop
  endfacet
  facet normal 0.9434245765937871 0.33158719558938565 0
    outer loop
      vertex 2.5 -37.5 20
      vertex 2.5 -37.5 -20
      vertex 2.060660168528557 -36.25 -20
    endloop
  endfacet
  facet normal 0.9434245765937871 -0.33158719558938565 0
    outer loop
      vertex 2.060660168528557 -28.75 20
      vertex 2.060660168528557 -28.75 -20
      vertex 2.5 -27.5 -20
    endloop
  endfacet
  facet normal 0.9434245765937871 0.33158719558938565 0
    outer loop
      vertex 2.5 -27.5 20
      vertex 2.5 -27.5 -20
      vertex 2.060660168528557 -26.25 -20
    endloop
  endfacet
  facet normal 0.7624928526414221 0.6469966380675766 0
    outer loop
      vertex 2.060660168528557 -16.25 20
      vertex 2.060660168528557 -16.25 -20
      vertex -0.060660168528556824 -13.75 -20
    endloop
  endfacet
  facet normal 0.7624928526414221 0.6469966380675766 0
    outer loop
      vertex 2.060660168528557 -6.25 20
      vertex 2.060660168528557 -6.25 -20
      vertex -0.060660168528556824 -3.75 -20
    endloop
  endfacet
  facet normal 0.9434245765937871 -0.33158719558938565 0
    outer loop
      vertex 2.060660168528557 -18.75 20
      vertex 2.060660168528557 -18.75 -20
      vertex 2.5 -17.5 -20
    endloop
  endfacet
  facet normal 0.9434245765937871 0.33158719558938565 0
    outer loop
      vertex 2.5 -17.5 20
      vertex 2.5 -17.5 -20
      vertex 2.060660168528557 -16.25 -20
    endloop
  endfacet
  facet normal 0.9434245765937871 -0.33158719558938565 0
    outer loop
      vertex 2.060660168528557 -8.75 20
      vertex 2.060660168528557 -8.75 -20
      vertex 2.5 -7.5 -20
    endloop
  endfacet
  facet normal 0.9434245765937871 0.33158719558938565 0
    outer loop
      vertex 2.5 -7.5 20
      vertex 2.5 -7.5 -20
      vertex 2.060660168528557 -6.25 -20
    endloop
  endfacet
  facet normal -0.9434245765937871 0.33158719558938565 0
    outer loop
      vertex 0.060660168528556824 -38.75 -20
      vertex 0.060660168528556824 -38.75 20
      vertex 0.5 -37.5 20
    endloop
  endfacet
  facet normal -0.9434245765937871 0.33158719558938565 0
    outer loop
      vertex 0.060660168528556824 -28.75 -20
      vertex 0.060660168528556824 -28.75 20
      vertex 0.5 -27.5 20
    endloop
  endfacet
  facet normal -0.9434245765937871 -0.33158719558938565 0
    outer loop
      vertex 0.5 -37.5 -20
      vertex 0.5 -37.5 20
      vertex 0.060660168528556824 -36.25 20
    endloop
  endfacet
  facet normal -0.9434245765937871 -0.33158719558938565 0
    outer loop
      vertex 0.5 -27.5 -20
      vertex 0.5 -27.5 20
      vertex 0.060660168528556824 -26.25 20
    endloop
  endfacet
  facet normal 0.7624928526414221 0.6469966380675766 0
    outer loop
      vertex -0.060660168528556824 -43.75 20
      vertex 1 -45 20
      vertex 1 -45 -20
    endloop
  endfacet
  facet normal 0.7624928526414221 0.6469966380675766 0
    outer loop
      vertex -0.060660168528556824 -33.75 -20
      vertex -0.060660168528556824 -33.75 20
      vertex 2.060660168528557 -36.25 20
    endloop
  endfacet
  facet normal -0.9434245765937871 0.33158719558938565 0
    outer loop
      vertex 0.060660168528556824 -18.75 -20
      vertex 0.060660168528556824 -18.75 20
      vertex 0.5 -17.5 20
    endloop
  endfacet
  facet normal -0.9434245765937871 -0.33158719558938565 0
    outer loop
      vertex 0.5 -17.5 -20
      vertex 0.5 -17.5 20
      vertex 0.060660168528556824 -16.25 20
    endloop
  endfacet
  facet normal -0.9434245765937871 0.33158719558938565 0
    outer loop
      vertex 0.060660168528556824 -8.75 -20
      vertex 0.060660168528556824 -8.75 20
      vertex 0.5 -7.5 20
    endloop
  endfacet
  facet normal -0.9434245765937871 -0.33158719558938565 0
    outer loop
      vertex 0.060660168528556824 -6.25 20
      vertex 0.5 -7.5 -20
      vertex 0.5 -7.5 20
    endloop
  endfacet
  facet normal 0.7624928526414221 0.6469966380675766 0
    outer loop
      vertex -0.060660168528556824 -23.75 -20
      vertex -0.060660168528556824 -23.75 20
      vertex 2.060660168528557 -26.25 20
    endloop
  endfacet
  facet normal 0.7624928526414221 0.6469966380675766 0
    outer loop
      vertex -0.060660168528556824 -13.75 -20
      vertex -0.060660168528556824 -13.75 20
      vertex 2.060660168528557 -16.25 20
    endloop
  endfacet
  facet normal 0.7624928526414221 0.6469966380675766 0
    outer loop
      vertex -0.060660168528556824 -3.75 -20
      vertex -0.060660168528556824 -3.75 20
      vertex 2.060660168528557 -6.25 20
    endloop
  endfacet
  facet normal 0.7624928526414221 -0.6469966380675766 0
    outer loop
      vertex 2.060660168528557 -38.75 20
      vertex -0.060660168528556824 -41.25 20
      vertex 2.060660168528557 -38.75 -20
    endloop
  endfacet
  facet normal 0.7624928526414221 -0.6469966380675766 0
    outer loop
      vertex 2.060660168528557 -28.75 20
      vertex -0.060660168528556824 -31.25 20
      vertex 2.060660168528557 -28.75 -20
    endloop
  endfacet
  facet normal 0.9434245765937871 -0.33158719558938565 0
    outer loop
      vertex 2.060660168528557 -38.75 20
      vertex 2.5 -37.5 -20
      vertex 2.5 -37.5 20
    endloop
  endfacet
  facet normal 0.9434245765937871 0.33158719558938565 0
    outer loop
      vertex 2.5 -37.5 20
      vertex 2.060660168528557 -36.25 -20
      vertex 2.060660168528557 -36.25 20
    endloop
  endfacet
  facet normal 0.9434245765937871 0.33158719558938565 0
    outer loop
      vertex 2.5 -27.5 20
      vertex 2.060660168528557 -26.25 -20
      vertex 2.060660168528557 -26.25 20
    endloop
  endfacet
  facet normal 0.9434245765937871 -0.33158719558938565 0
    outer loop
      vertex 2.060660168528557 -28.75 20
      vertex 2.5 -27.5 -20
      vertex 2.5 -27.5 20
    endloop
  endfacet
  facet normal 0.7624928526414221 -0.6469966380675766 0
    outer loop
      vertex 2.060660168528557 -18.75 20
      vertex -0.060660168528556824 -21.25 20
      vertex 2.060660168528557 -18.75 -20
    endloop
  endfacet
  facet normal 0.7624928526414221 -0.6469966380675766 0
    outer loop
      vertex 2.060660168528557 -8.75 20
      vertex -0.060660168528556824 -11.25 20
      vertex 2.060660168528557 -8.75 -20
    endloop
  endfacet
  facet normal 0.9434245765937871 0.33158719558938565 0
    outer loop
      vertex 2.5 -17.5 20
      vertex 2.060660168528557 -16.25 -20
      vertex 2.060660168528557 -16.25 20
    endloop
  endfacet
  facet normal 0.9434245765937871 -0.33158719558938565 0
    outer loop
      vertex 2.060660168528557 -18.75 20
      vertex 2.5 -17.5 -20
      vertex 2.5 -17.5 20
    endloop
  endfacet
  facet normal 0.9434245765937871 0.33158719558938565 0
    outer loop
      vertex 2.5 -7.5 20
      vertex 2.060660168528557 -6.25 -20
      vertex 2.060660168528557 -6.25 20
    endloop
  endfacet
  facet normal 0.9434245765937871 -0.33158719558938565 0
    outer loop
      vertex 2.060660168528557 -8.75 20
      vertex 2.5 -7.5 -20
      vertex 2.5 -7.5 20
    endloop
  endfacet
  facet normal -0.9434245765937871 -0.33158719558938565 0
    outer loop
      vertex 0.060660168528556824 3.75 -20
      vertex 0.5 2.5 -20
      vertex 0.060660168528556824 3.75 20
    endloop
  endfacet
  facet normal -0.9434245765937871 0.33158719558938565 0
    outer loop
      vertex 0.5 2.5 20
      vertex 0.5 2.5 -20
      vertex 0.060660168528556824 1.25 -20
    endloop
  endfacet
  facet normal -0.9434245765937871 0.33158719558938565 0
    outer loop
      vertex 0.5 12.5 20
      vertex 0.5 12.5 -20
      vertex 0.060660168528556824 11.25 -20
    endloop
  endfacet
  facet normal -0.9434245765937871 -0.33158719558938565 0
    outer loop
      vertex 0.060660168528556824 13.75 -20
      vertex 0.5 12.5 -20
      vertex 0.060660168528556824 13.75 20
    endloop
  endfacet
  facet normal -0.9434245765937871 -0.33158719558938565 0
    outer loop
      vertex 0.060660168528556824 23.75 -20
      vertex 0.5 22.5 -20
      vertex 0.060660168528556824 23.75 20
    endloop
  endfacet
  facet normal -0.9434245765937871 0.33158719558938565 0
    outer loop
      vertex 0.5 22.5 20
      vertex 0.5 22.5 -20
      vertex 0.060660168528556824 21.25 -20
    endloop
  endfacet
  facet normal 0.7624928526414221 -0.6469966380675766 0
    outer loop
      vertex -0.060660168528556824 8.75 -20
      vertex 2.060660168528557 11.25 -20
      vertex -0.060660168528556824 8.75 20
    endloop
  endfacet
  facet normal 0.7624928526414221 -0.6469966380675766 0
    outer loop
      vertex -0.060660168528556824 18.75 -20
      vertex 2.060660168528557 21.25 -20
      vertex -0.060660168528556824 18.75 20
    endloop
  endfacet
  facet normal -0.9434245765937871 -0.33158719558938565 0
    outer loop
      vertex 0.060660168528556824 33.75 -20
      vertex 0.5 32.5 -20
      vertex 0.060660168528556824 33.75 20
    endloop
  endfacet
  facet normal -0.9434245765937871 0.33158719558938565 0
    outer loop
      vertex 0.5 32.5 20
      vertex 0.5 32.5 -20
      vertex 0.060660168528556824 31.25 -20
    endloop
  endfacet
  facet normal -0.9434245765937871 -0.33158719558938565 0
    outer loop
      vertex 0.060660168528556824 43.75 -20
      vertex 0.5 42.5 -20
      vertex 0.060660168528556824 43.75 20
    endloop
  endfacet
  facet normal -0.9434245765937871 0.33158719558938565 0
    outer loop
      vertex 0.5 42.5 20
      vertex 0.5 42.5 -20
      vertex 0.060660168528556824 41.25 -20
    endloop
  endfacet
  facet normal 0.7624928526414221 -0.6469966380675766 0
    outer loop
      vertex -0.060660168528556824 28.75 -20
      vertex 2.060660168528557 31.25 -20
      vertex -0.060660168528556824 28.75 20
    endloop
  endfacet
  facet normal 0.7624928526414221 -0.6469966380675766 0
    outer loop
      vertex -0.060660168528556824 38.75 -20
      vertex 2.060660168528557 41.25 -20
      vertex -0.060660168528556824 38.75 20
    endloop
  endfacet
  facet normal 0.7624928526414221 0.6469966380675766 0
    outer loop
      vertex 2.060660168528557 3.75 20
      vertex 2.060660168528557 3.75 -20
      vertex -0.060660168528556824 6.25 -20
    endloop
  endfacet
  facet normal 0.7624928526414221 0.6469966380675766 0
    outer loop
      vertex 2.060660168528557 13.75 20
      vertex 2.060660168528557 13.75 -20
      vertex -0.060660168528556824 16.25 -20
    endloop
  endfacet
  facet normal 0.7624928526414221 0.6469966380675766 0
    outer loop
      vertex 2.060660168528557 23.75 20
      vertex 2.060660168528557 23.75 -20
      vertex -0.060660168528556824 26.25 -20
    endloop
  endfacet
  facet normal 0.9434245765937871 -0.33158719558938565 0
    outer loop
      vertex 2.060660168528557 1.25 20
      vertex 2.060660168528557 1.25 -20
      vertex 2.5 2.5 -20
    endloop
  endfacet
  facet normal 0.9434245765937871 0.33158719558938565 0
    outer loop
      vertex 2.5 2.5 20
      vertex 2.5 2.5 -20
      vertex 2.060660168528557 3.75 -20
    endloop
  endfacet
  facet normal 0.9434245765937871 -0.33158719558938565 0
    outer loop
      vertex 2.060660168528557 11.25 20
      vertex 2.060660168528557 11.25 -20
      vertex 2.5 12.5 -20
    endloop
  endfacet
  facet normal 0.9434245765937871 0.33158719558938565 0
    outer loop
      vertex 2.5 12.5 20
      vertex 2.5 12.5 -20
      vertex 2.060660168528557 13.75 -20
    endloop
  endfacet
  facet normal 0.9434245765937871 -0.33158719558938565 0
    outer loop
      vertex 2.060660168528557 21.25 20
      vertex 2.060660168528557 21.25 -20
      vertex 2.5 22.5 -20
    endloop
  endfacet
  facet normal 0.9434245765937871 0.33158719558938565 0
    outer loop
      vertex 2.5 22.5 20
      vertex 2.5 22.5 -20
      vertex 2.060660168528557 23.75 -20
    endloop
  endfacet
  facet normal 0.7624928526414221 0.6469966380675766 0
    outer loop
      vertex 2.060660168528557 33.75 20
      vertex 2.060660168528557 33.75 -20
      vertex -0.060660168528556824 36.25 -20
    endloop
  endfacet
  facet normal 0.7624928526414221 0.6469966380675766 0
    outer loop
      vertex 2.060660168528557 43.75 -20
      vertex 1 45 -20
      vertex 1 45 20
    endloop
  endfacet
  facet normal 0.9434245765937871 -0.33158719558938565 0
    outer loop
      vertex 2.060660168528557 31.25 20
      vertex 2.060660168528557 31.25 -20
      vertex 2.5 32.5 -20
    endloop
  endfacet
  facet normal 0.9434245765937871 0.33158719558938565 0
    outer loop
      vertex 2.5 32.5 20
      vertex 2.5 32.5 -20
      vertex 2.060660168528557 33.75 -20
    endloop
  endfacet
  facet normal 0.9434245765937871 -0.33158719558938565 0
    outer loop
      vertex 2.060660168528557 41.25 20
      vertex 2.060660168528557 41.25 -20
      vertex 2.5 42.5 -20
    endloop
  endfacet
  facet normal 0.9434245765937871 0.33158719558938565 0
    outer loop
      vertex 2.5 42.5 20
      vertex 2.5 42.5 -20
      vertex 2.060660168528557 43.75 -20
    endloop
  endfacet
  facet normal -0.9434245765937871 0.33158719558938565 0
    outer loop
      vertex 0.060660168528556824 1.25 -20
      vertex 0.060660168528556824 1.25 20
      vertex 0.5 2.5 20
    endloop
  endfacet
  facet normal -0.9434245765937871 0.33158719558938565 0
    outer loop
      vertex 0.5 12.5 20
      vertex 0.060660168528556824 11.25 -20
      vertex 0.060660168528556824 11.25 20
    endloop
  endfacet
  facet normal -0.9434245765937871 -0.33158719558938565 0
    outer loop
      vertex 0.5 2.5 -20
      vertex 0.5 2.5 20
      vertex 0.060660168528556824 3.75 20
    endloop
  endfacet
  facet normal -0.9434245765937871 0.33158719558938565 0
    outer loop
      vertex 0.5 22.5 20
      vertex 0.060660168528556824 21.25 -20
      vertex 0.060660168528556824 21.25 20
    endloop
  endfacet
  facet normal -0.9434245765937871 -0.33158719558938565 0
    outer loop
      vertex 0.060660168528556824 13.75 20
      vertex 0.5 12.5 -20
      vertex 0.5 12.5 20
    endloop
  endfacet
  facet normal -0.9434245765937871 -0.33158719558938565 0
    outer loop
      vertex 0.060660168528556824 23.75 20
      vertex 0.5 22.5 -20
      vertex 0.5 22.5 20
    endloop
  endfacet
  facet normal 0.7624928526414221 0.6469966380675766 0
    outer loop
      vertex -0.060660168528556824 6.25 -20
      vertex -0.060660168528556824 6.25 20
      vertex 2.060660168528557 3.75 20
    endloop
  endfacet
  facet normal 0.7624928526414221 0.6469966380675766 0
    outer loop
      vertex -0.060660168528556824 16.25 -20
      vertex -0.060660168528556824 16.25 20
      vertex 2.060660168528557 13.75 20
    endloop
  endfacet
  facet normal -0.9434245765937871 0.33158719558938565 0
    outer loop
      vertex 0.5 32.5 20
      vertex 0.060660168528556824 31.25 -20
      vertex 0.060660168528556824 31.25 20
    endloop
  endfacet
  facet normal -0.9434245765937871 -0.33158719558938565 0
    outer loop
      vertex 0.060660168528556824 33.75 20
      vertex 0.5 32.5 -20
      vertex 0.5 32.5 20
    endloop
  endfacet
  facet normal -0.9434245765937871 0.33158719558938565 0
    outer loop
      vertex 0.5 42.5 20
      vertex 0.060660168528556824 41.25 -20
      vertex 0.060660168528556824 41.25 20
    endloop
  endfacet
  facet normal -0.9434245765937871 -0.33158719558938565 0
    outer loop
      vertex 0.060660168528556824 43.75 20
      vertex 0.5 42.5 -20
      vertex 0.5 42.5 20
    endloop
  endfacet
  facet normal 0.7624928526414221 0.6469966380675766 0
    outer loop
      vertex -0.060660168528556824 26.25 -20
      vertex -0.060660168528556824 26.25 20
      vertex 2.060660168528557 23.75 20
    endloop
  endfacet
  facet normal 0.7624928526414221 0.6469966380675766 0
    outer loop
      vertex -0.060660168528556824 36.25 -20
      vertex -0.060660168528556824 36.25 20
      vertex 2.060660168528557 33.75 20
    endloop
  endfacet
  facet normal 0.7624928526414221 -0.6469966380675766 0
    outer loop
      vertex 2.060660168528557 1.25 20
      vertex -0.060660168528556824 -1.25 20
      vertex 2.060660168528557 1.25 -20
    endloop
  endfacet
  facet normal 0.7624928526414221 -0.6469966380675766 0
    outer loop
      vertex 2.060660168528557 11.25 20
      vertex -0.060660168528556824 8.75 20
      vertex 2.060660168528557 11.25 -20
    endloop
  endfacet
  facet normal 0.7624928526414221 -0.6469966380675766 0
    outer loop
      vertex 2.060660168528557 21.25 20
      vertex -0.060660168528556824 18.75 20
      vertex 2.060660168528557 21.25 -20
    endloop
  endfacet
  facet normal 0.9434245765937871 0.33158719558938565 0
    outer loop
      vertex 2.5 2.5 20
      vertex 2.060660168528557 3.75 -20
      vertex 2.060660168528557 3.75 20
    endloop
  endfacet
  facet normal 0.9434245765937871 -0.33158719558938565 0
    outer loop
      vertex 2.060660168528557 1.25 20
      vertex 2.5 2.5 -20
      vertex 2.5 2.5 20
    endloop
  endfacet
  facet normal 0.9434245765937871 -0.33158719558938565 0
    outer loop
      vertex 2.060660168528557 11.25 20
      vertex 2.5 12.5 -20
      vertex 2.5 12.5 20
    endloop
  endfacet
  facet normal 0.9434245765937871 0.33158719558938565 0
    outer loop
      vertex 2.5 12.5 20
      vertex 2.060660168528557 13.75 -20
      vertex 2.060660168528557 13.75 20
    endloop
  endfacet
  facet normal 0.9434245765937871 0.33158719558938565 0
    outer loop
      vertex 2.5 22.5 20
      vertex 2.060660168528557 23.75 -20
      vertex 2.060660168528557 23.75 20
    endloop
  endfacet
  facet normal 0.9434245765937871 -0.33158719558938565 0
    outer loop
      vertex 2.060660168528557 21.25 20
      vertex 2.5 22.5 -20
      vertex 2.5 22.5 20
    endloop
  endfacet
  facet normal 0.7624928526414221 -0.6469966380675766 0
    outer loop
      vertex 2.060660168528557 31.25 20
      vertex -0.060660168528556824 28.75 20
      vertex 2.060660168528557 31.25 -20
    endloop
  endfacet
  facet normal 0.7624928526414221 -0.6469966380675766 0
    outer loop
      vertex 2.060660168528557 41.25 20
      vertex -0.060660168528556824 38.75 20
      vertex 2.060660168528557 41.25 -20
    endloop
  endfacet
  facet normal 0.7624928526414221 0.6469966380675766 0
    outer loop
      vertex 2.060660168528557 43.75 20
      vertex 2.060660168528557 43.75 -20
      vertex 1 45 20
    endloop
  endfacet
  facet normal 0.9434245765937871 0.33158719558938565 0
    outer loop
      vertex 2.5 32.5 20
      vertex 2.060660168528557 33.75 -20
      vertex 2.060660168528557 33.75 20
    endloop
  endfacet
  facet normal 0.9434245765937871 -0.33158719558938565 0
    outer loop
      vertex 2.060660168528557 31.25 20
      vertex 2.5 32.5 -20
      vertex 2.5 32.5 20
    endloop
  endfacet
  facet normal 0.9434245765937871 0.33158719558938565 0
    outer loop
      vertex 2.060660168528557 43.75 -20
      vertex 2.060660168528557 43.75 20
      vertex 2.5 42.5 20
    endloop
  endfacet
  facet normal 0.9434245765937871 -0.33158719558938565 0
    outer loop
      vertex 2.5 42.5 -20
      vertex 2.5 42.5 20
      vertex 2.060660168528557 41.25 20
    endloop
  endfacet
endsolid PythonSCAD_Model
