solid PythonSCAD_Model
  facet normal 1 0 0
    outer loop
      vertex 2 40 -25
      vertex 2 38 -23
      vertex 2 -38 -23
    endloop
  endfacet
  facet normal 1 0 0
    outer loop
      vertex 2 40 25
      vertex 2 38 23
      vertex 2 38 -23
    endloop
  endfacet
  facet normal 1 0 0
    outer loop
      vertex 2 -40 25
      vertex 2 -38 23
      vertex 2 38 23
    endloop
  endfacet
  facet normal 1 0 0
    outer loop
      vertex 2 -40 -25
      vertex 2 -38 -23
      vertex 2 -38 23
    endloop
  endfacet
  facet normal 1 0 0
    outer loop
      vertex 2 -40 -25
      vertex 2 40 -25
      vertex 2 -38 -23
    endloop
  endfacet
  facet normal 1 0 0
    outer loop
      vertex 2 40 -25
      vertex 2 40 25
      vertex 2 38 -23
    endloop
  endfacet
  facet normal 1 0 0
    outer loop
      vertex 2 40 25
      vertex 2 -40 25
      vertex 2 38 23
    endloop
  endfacet
  facet normal 1 0 0
    outer loop
      vertex 2 -40 25
      vertex 2 -40 -25
      vertex 2 -38 23
    endloop
  endfacet
  facet normal 0.8660254037844388 0 0.4999999999999998
    outer loop
      vertex 2 38 -23
      vertex 1 36.267949192431125 -21.26794919243112
      vertex 1 -36.267949192431125 -21.26794919243112
    endloop
  endfacet
  facet normal 0.8660254037844383 -0.5000000000000004 0
    outer loop
      vertex 2 38 23
      vertex 1 36.267949192431125 21.26794919243112
      vertex 1 36.267949192431125 -21.26794919243112
    endloop
  endfacet
  facet normal 0.8660254037844388 0 -0.4999999999999998
    outer loop
      vertex 2 -38 23
      vertex 1 -36.267949192431125 21.26794919243112
      vertex 1 36.267949192431125 21.26794919243112
    endloop
  endfacet
  facet normal 0.8660254037844383 0.5000000000000004 0
    outer loop
      vertex 2 -38 -23
      vertex 1 -36.267949192431125 -21.26794919243112
      vertex 1 -36.267949192431125 21.26794919243112
    endloop
  endfacet
  facet normal 0.8660254037844387 0 0.4999999999999997
    outer loop
      vertex 2 -38 -23
      vertex 2 38 -23
      vertex 1 -36.267949192431125 -21.26794919243112
    endloop
  endfacet
  facet normal 0.8660254037844384 -0.5000000000000006 0
    outer loop
      vertex 2 38 -23
      vertex 2 38 23
      vertex 1 36.267949192431125 -21.26794919243112
    endloop
  endfacet
  facet normal 0.8660254037844387 0 -0.4999999999999997
    outer loop
      vertex 2 38 23
      vertex 2 -38 23
      vertex 1 36.267949192431125 21.26794919243112
    endloop
  endfacet
  facet normal 0.8660254037844384 0.5000000000000006 0
    outer loop
      vertex 2 -38 23
      vertex 2 -38 -23
      vertex 1 -36.267949192431125 21.26794919243112
    endloop
  endfacet
  facet normal 1 0 0
    outer loop
      vertex 1 36.267949192431125 -21.26794919243112
      vertex 1 36.267949192431125 21.26794919243112
      vertex 1 -36.267949192431125 21.26794919243112
    endloop
  endfacet
  facet normal -1 0 0
    outer loop
      vertex -1 36.267949192431125 21.26794919243112
      vertex -1 36.267949192431125 -21.26794919243112
      vertex -1 -36.267949192431125 -21.26794919243112
    endloop
  endfacet
  facet normal 1 0 0
    outer loop
      vertex 1 -36.267949192431125 -21.26794919243112
      vertex 1 36.267949192431125 -21.26794919243112
      vertex 1 -36.267949192431125 21.26794919243112
    endloop
  endfacet
  facet normal -1 0 0
    outer loop
      vertex -1 -36.267949192431125 21.26794919243112
      vertex -1 36.267949192431125 21.26794919243112
      vertex -1 -36.267949192431125 -21.26794919243112
    endloop
  endfacet
  facet normal -0.8660254037844388 0 0.4999999999999997
    outer loop
      vertex -1 36.267949192431125 -21.26794919243112
      vertex -2 38 -23
      vertex -2 -38 -23
    endloop
  endfacet
  facet normal -0.8660254037844384 -0.5000000000000006 0
    outer loop
      vertex -1 36.267949192431125 21.26794919243112
      vertex -2 38 23
      vertex -2 38 -23
    endloop
  endfacet
  facet normal -0.8660254037844388 0 -0.4999999999999997
    outer loop
      vertex -1 -36.267949192431125 21.26794919243112
      vertex -2 -38 23
      vertex -2 38 23
    endloop
  endfacet
  facet normal -0.8660254037844384 0.5000000000000006 0
    outer loop
      vertex -1 -36.267949192431125 -21.26794919243112
      vertex -2 -38 -23
      vertex -2 -38 23
    endloop
  endfacet
  facet normal -0.8660254037844387 0 0.4999999999999997
    outer loop
      vertex -1 -36.267949192431125 -21.26794919243112
      vertex -1 36.267949192431125 -21.26794919243112
      vertex -2 -38 -23
    endloop
  endfacet
  facet normal -0.8660254037844383 -0.5000000000000006 0
    outer loop
      vertex -1 36.267949192431125 -21.26794919243112
      vertex -1 36.267949192431125 21.26794919243112
      vertex -2 38 -23
    endloop
  endfacet
  facet normal -0.8660254037844387 0 -0.4999999999999997
    outer loop
      vertex -1 36.267949192431125 21.26794919243112
      vertex -1 -36.267949192431125 21.26794919243112
      vertex -2 38 23
    endloop
  endfacet
  facet normal -0.8660254037844383 0.5000000000000006 0
    outer loop
      vertex -1 -36.267949192431125 21.26794919243112
      vertex -1 -36.267949192431125 -21.26794919243112
      vertex -2 -38 23
    endloop
  endfacet
  facet normal -1 0 0
    outer loop
      vertex -2 38 -23
      vertex -2 40 -25
      vertex -2 -40 -25
    endloop
  endfacet
  facet normal -1 0 0
    outer loop
      vertex -2 38 23
      vertex -2 40 25
      vertex -2 40 -25
    endloop
  endfacet
  facet normal -1 0 0
    outer loop
      vertex -2 -38 23
      vertex -2 -40 25
      vertex -2 40 25
    endloop
  endfacet
  facet normal -1 0 0
    outer loop
      vertex -2 -38 -23
      vertex -2 -40 -25
      vertex -2 -40 25
    endloop
  endfacet
  facet normal -1 0 0
    outer loop
      vertex -2 -38 -23
      vertex -2 38 -23
      vertex -2 -40 -25
    endloop
  endfacet
  facet normal -1 0 0
    outer loop
      vertex -2 38 -23
      vertex -2 38 23
      vertex -2 40 -25
    endloop
  endfacet
  facet normal -1 0 0
    outer loop
      vertex -2 38 23
      vertex -2 -38 23
      vertex -2 40 25
    endloop
  endfacet
  facet normal -1 0 0
    outer loop
      vertex -2 -38 23
      vertex -2 -38 -23
      vertex -2 -40 25
    endloop
  endfacet
  facet normal 0 0 -1
    outer loop
      vertex -2 40 -25
      vertex 2 40 -25
      vertex 2 -40 -25
    endloop
  endfacet
  facet normal 0 1 0
    outer loop
      vertex -2 40 25
      vertex 2 40 25
      vertex 2 40 -25
    endloop
  endfacet
  facet normal 0 0 1
    outer loop
      vertex -2 -40 25
      vertex 2 -40 25
      vertex 2 40 25
    endloop
  endfacet
  facet normal 0 -1 0
    outer loop
      vertex -2 -40 -25
      vertex 2 -40 -25
      vertex 2 -40 25
    endloop
  endfacet
  facet normal 0 0 -1
    outer loop
      vertex -2 -40 -25
      vertex -2 40 -25
      vertex 2 -40 -25
    endloop
  endfacet
  facet normal 0 1 0
    outer loop
      vertex -2 40 -25
      vertex -2 40 25
      vertex 2 40 -25
    endloop
  endfacet
  facet normal 0 0 1
    outer loop
      vertex -2 40 25
      vertex -2 -40 25
      vertex 2 40 25
    endloop
  endfacet
  facet normal 0 -1 0
    outer loop
      vertex -2 -40 25
      vertex -2 -40 -25
      vertex 2 -40 25
    endloop
  endfacet
endsolid PythonSCAD_Model
