solid PythonSCAD_Model
  facet normal -0.42528817757925047 0.42528817757925047 0.7989117172896141
    outer loop
      vertex -50 39.856 5.4
      vertex -39.856 39.856 10.8
      vertex -50 50 0
    endloop
  endfacet
  facet normal -0.42528817757925047 0.42528817757925047 0.7989117172896141
    outer loop
      vertex -39.856 39.856 10.8
      vertex -39.856 50 5.4
      vertex -50 50 0
    endloop
  endfacet
  facet normal -0.34615947347905807 0.4408502352644509 0.8281453308375164
    outer loop
      vertex -39.856 39.856 10.8
      vertex -29.808000000000003 39.856 15.000000000000007
      vertex -39.856 50 5.4
    endloop
  endfacet
  facet normal -0.34615947347905757 0.4408502352644514 0.8281453308375164
    outer loop
      vertex -29.808000000000003 39.856 15.000000000000007
      vertex -29.808000000000003 50 9.600000000000001
      vertex -39.856 50 5.4
    endloop
  endfacet
  facet normal -0.2565670797693159 0.4541722927840766 0.8531710625929014
    outer loop
      vertex -29.808000000000003 39.856 15.000000000000007
      vertex -19.831999999999994 39.856 18
      vertex -29.808000000000003 50 9.600000000000001
    endloop
  endfacet
  facet normal -0.25656707976931614 0.4541722927840763 0.8531710625929014
    outer loop
      vertex -19.831999999999994 39.856 18
      vertex -19.831999999999994 50 12.599999999999998
      vertex -29.808000000000003 50 9.600000000000001
    endloop
  endfacet
  facet normal -0.15803063661691993 0.4639968928428955 0.8716267557404312
    outer loop
      vertex -19.831999999999994 39.856 18
      vertex -9.904 39.856 19.800000000000004
      vertex -19.831999999999994 50 12.599999999999998
    endloop
  endfacet
  facet normal -0.15803063661691982 0.46399689284289564 0.8716267557404312
    outer loop
      vertex -9.904 39.856 19.800000000000004
      vertex -9.904 50 14.4
      vertex -19.831999999999994 50 12.599999999999998
    endloop
  endfacet
  facet normal -0.05340020262361643 0.4692311180065748 0.8814593446404982
    outer loop
      vertex -9.904 39.856 19.800000000000004
      vertex 0 39.856 20.400000000000002
      vertex -9.904 50 14.4
    endloop
  endfacet
  facet normal -0.053400202623616604 0.4692311180065747 0.8814593446404982
    outer loop
      vertex 0 39.856 20.400000000000002
      vertex 0 50 15
      vertex -9.904 50 14.4
    endloop
  endfacet
  facet normal 0.05340020262361643 0.4692311180065747 0.8814593446404982
    outer loop
      vertex 0 39.856 20.400000000000002
      vertex 9.904 39.856 19.800000000000004
      vertex 0 50 15
    endloop
  endfacet
  facet normal 0.05340020262361654 0.4692311180065748 0.8814593446404982
    outer loop
      vertex 9.904 39.856 19.800000000000004
      vertex 9.904 50 14.4
      vertex 0 50 15
    endloop
  endfacet
  facet normal 0.15803063661691963 0.46399689284289564 0.8716267557404312
    outer loop
      vertex 9.904 39.856 19.800000000000004
      vertex 19.831999999999994 39.856 18.000000000000004
      vertex 9.904 50 14.4
    endloop
  endfacet
  facet normal 0.1580306366169195 0.4639968928428956 0.8716267557404314
    outer loop
      vertex 19.831999999999994 39.856 18.000000000000004
      vertex 19.831999999999994 50 12.600000000000001
      vertex 9.904 50 14.4
    endloop
  endfacet
  facet normal 0.2565670797693171 0.45417229278407617 0.8531710625929012
    outer loop
      vertex 19.831999999999994 39.856 18.000000000000004
      vertex 29.808000000000003 39.856 14.999999999999996
      vertex 19.831999999999994 50 12.600000000000001
    endloop
  endfacet
  facet normal 0.25656707976931686 0.454172292784076 0.8531710625929014
    outer loop
      vertex 29.808000000000003 39.856 14.999999999999996
      vertex 29.808000000000003 50 9.599999999999998
      vertex 19.831999999999994 50 12.600000000000001
    endloop
  endfacet
  facet normal 0.34615947347905746 0.44085023526445094 0.8281453308375167
    outer loop
      vertex 29.808000000000003 39.856 14.999999999999996
      vertex 39.856 39.856 10.799999999999999
      vertex 29.808000000000003 50 9.599999999999998
    endloop
  endfacet
  facet normal 0.3461594734790575 0.440850235264451 0.8281453308375166
    outer loop
      vertex 39.856 39.856 10.799999999999999
      vertex 39.856 50 5.399999999999999
      vertex 29.808000000000003 50 9.599999999999998
    endloop
  endfacet
  facet normal 0.42528817757925036 0.42528817757925047 0.7989117172896141
    outer loop
      vertex 39.856 39.856 10.799999999999999
      vertex 50 39.856 5.4
      vertex 39.856 50 5.399999999999999
    endloop
  endfacet
  facet normal 0.4252881775792503 0.42528817757925047 0.7989117172896141
    outer loop
      vertex 50 39.856 5.4
      vertex 50 50 0
      vertex 39.856 50 5.399999999999999
    endloop
  endfacet
  facet normal -0.44085023526445144 0.3461594734790576 0.8281453308375164
    outer loop
      vertex -50 29.808000000000003 9.600000000000001
      vertex -39.856 29.80800000000001 15.000000000000005
      vertex -50 39.856 5.4
    endloop
  endfacet
  facet normal -0.44085023526445094 0.3461594734790581 0.8281453308375164
    outer loop
      vertex -39.856 29.80800000000001 15.000000000000005
      vertex -39.856 39.856 10.8
      vertex -50 39.856 5.4
    endloop
  endfacet
  facet normal -0.3598266294174205 0.35982662941742133 0.8608423743776767
    outer loop
      vertex -39.856 29.80800000000001 15.000000000000005
      vertex -29.808000000000003 29.808000000000003 19.200000000000006
      vertex -39.856 39.856 10.8
    endloop
  endfacet
  facet normal -0.3598266294174212 0.3598266294174206 0.8608423743776767
    outer loop
      vertex -29.808000000000003 29.808000000000003 19.200000000000006
      vertex -29.808000000000003 39.856 15.000000000000007
      vertex -39.856 39.856 10.8
    endloop
  endfacet
  facet normal -0.2673581458286293 0.3716193081111653 0.8890549542621401
    outer loop
      vertex -29.808000000000003 29.808000000000003 19.200000000000006
      vertex -19.831999999999994 29.807999999999996 22.199999999999996
      vertex -29.808000000000003 39.856 15.000000000000007
    endloop
  endfacet
  facet normal -0.2673581458286299 0.3716193081111648 0.8890549542621403
    outer loop
      vertex -19.831999999999994 29.807999999999996 22.199999999999996
      vertex -19.831999999999994 39.856 18
      vertex -29.808000000000003 39.856 15.000000000000007
    endloop
  endfacet
  facet normal -0.16498745543410964 0.3803731489798556 0.9099974764165701
    outer loop
      vertex -19.831999999999994 29.807999999999996 22.199999999999996
      vertex -9.904 29.808000000000003 24.000000000000007
      vertex -19.831999999999994 39.856 18
    endloop
  endfacet
  facet normal -0.16498745543410867 0.3803731489798564 0.90999747641657
    outer loop
      vertex -9.904 29.808000000000003 24.000000000000007
      vertex -9.904 39.856 19.800000000000004
      vertex -19.831999999999994 39.856 18
    endloop
  endfacet
  facet normal -0.05580798150974896 0.3850572991747528 0.9212037481209315
    outer loop
      vertex -9.904 29.808000000000003 24.000000000000007
      vertex 0 29.808000000000003 24.6
      vertex -9.904 39.856 19.800000000000004
    endloop
  endfacet
  facet normal -0.05580798150974927 0.38505729917475245 0.9212037481209315
    outer loop
      vertex 0 29.808000000000003 24.6
      vertex 0 39.856 20.400000000000002
      vertex -9.904 39.856 19.800000000000004
    endloop
  endfacet
  facet normal 0.05580798150974896 0.38505729917475245 0.9212037481209315
    outer loop
      vertex 0 29.808000000000003 24.6
      vertex 9.904 29.808000000000003 24.000000000000007
      vertex 0 39.856 20.400000000000002
    endloop
  endfacet
  facet normal 0.05580798150974927 0.3850572991747528 0.9212037481209315
    outer loop
      vertex 9.904 29.808000000000003 24.000000000000007
      vertex 9.904 39.856 19.800000000000004
      vertex 0 39.856 20.400000000000002
    endloop
  endfacet
  facet normal 0.16498745543410867 0.3803731489798564 0.90999747641657
    outer loop
      vertex 9.904 29.808000000000003 24.000000000000007
      vertex 19.831999999999994 29.808000000000003 22.200000000000003
      vertex 9.904 39.856 19.800000000000004
    endloop
  endfacet
  facet normal 0.1649874554341084 0.3803731489798562 0.9099974764165703
    outer loop
      vertex 19.831999999999994 29.808000000000003 22.200000000000003
      vertex 19.831999999999994 39.856 18.000000000000004
      vertex 9.904 39.856 19.800000000000004
    endloop
  endfacet
  facet normal 0.2673581458286301 0.3716193081111652 0.8890549542621399
    outer loop
      vertex 19.831999999999994 29.808000000000003 22.200000000000003
      vertex 29.808000000000003 29.808000000000003 19.200000000000006
      vertex 19.831999999999994 39.856 18.000000000000004
    endloop
  endfacet
  facet normal 0.26735814582863093 0.37161930811116595 0.8890549542621394
    outer loop
      vertex 29.808000000000003 29.808000000000003 19.200000000000006
      vertex 29.808000000000003 39.856 14.999999999999996
      vertex 19.831999999999994 39.856 18.000000000000004
    endloop
  endfacet
  facet normal 0.359826629417421 0.35982662941742144 0.8608423743776765
    outer loop
      vertex 29.808000000000003 29.808000000000003 19.200000000000006
      vertex 39.856 29.808000000000003 15.000000000000002
      vertex 29.808000000000003 39.856 14.999999999999996
    endloop
  endfacet
  facet normal 0.35982662941742044 0.35982662941742094 0.8608423743776767
    outer loop
      vertex 39.856 29.808000000000003 15.000000000000002
      vertex 39.856 39.856 10.799999999999999
      vertex 29.808000000000003 39.856 14.999999999999996
    endloop
  endfacet
  facet normal 0.44085023526445094 0.34615947347905773 0.8281453308375165
    outer loop
      vertex 39.856 29.808000000000003 15.000000000000002
      vertex 50 29.808000000000003 9.600000000000001
      vertex 39.856 39.856 10.799999999999999
    endloop
  endfacet
  facet normal 0.4408502352644509 0.3461594734790577 0.8281453308375166
    outer loop
      vertex 50 29.808000000000003 9.600000000000001
      vertex 50 39.856 5.4
      vertex 39.856 39.856 10.799999999999999
    endloop
  endfacet
  facet normal -0.4541722927840763 0.2565670797693162 0.8531710625929014
    outer loop
      vertex -50 19.831999999999994 12.599999999999998
      vertex -39.856 19.831999999999994 18
      vertex -50 29.808000000000003 9.600000000000001
    endloop
  endfacet
  facet normal -0.45417229278407656 0.25656707976931586 0.8531710625929013
    outer loop
      vertex -39.856 19.831999999999994 18
      vertex -39.856 29.80800000000001 15.000000000000005
      vertex -50 29.808000000000003 9.600000000000001
    endloop
  endfacet
  facet normal -0.37161930811116495 0.2673581458286298 0.8890549542621401
    outer loop
      vertex -39.856 19.831999999999994 18
      vertex -29.808000000000003 19.831999999999994 22.199999999999996
      vertex -39.856 29.80800000000001 15.000000000000005
    endloop
  endfacet
  facet normal -0.3716193081111653 0.26735814582862955 0.8890549542621401
    outer loop
      vertex -29.808000000000003 19.831999999999994 22.199999999999996
      vertex -29.808000000000003 29.808000000000003 19.200000000000006
      vertex -39.856 29.80800000000001 15.000000000000005
    endloop
  endfacet
  facet normal -0.2767351332476307 0.2767351332476304 0.920236563092791
    outer loop
      vertex -29.808000000000003 19.831999999999994 22.199999999999996
      vertex -19.831999999999994 19.831999999999994 25.19999999999999
      vertex -29.808000000000003 29.808000000000003 19.200000000000006
    endloop
  endfacet
  facet normal -0.27673513324763016 0.2767351332476309 0.920236563092791
    outer loop
      vertex -19.831999999999994 19.831999999999994 25.19999999999999
      vertex -19.831999999999994 29.807999999999996 22.199999999999996
      vertex -29.808000000000003 29.808000000000003 19.200000000000006
    endloop
  endfacet
  facet normal -0.17106527127772492 0.2837369709377907 0.9435200073584692
    outer loop
      vertex -19.831999999999994 19.831999999999994 25.19999999999999
      vertex -9.904 19.831999999999994 26.999999999999996
      vertex -19.831999999999994 29.807999999999996 22.199999999999996
    endloop
  endfacet
  facet normal -0.17106527127772547 0.28373697093779016 0.9435200073584692
    outer loop
      vertex -9.904 19.831999999999994 26.999999999999996
      vertex -9.904 29.808000000000003 24.000000000000007
      vertex -19.831999999999994 29.807999999999996 22.199999999999996
    endloop
  endfacet
  facet normal -0.05791770941679618 0.2874984934161732 0.956028323439919
    outer loop
      vertex -9.904 19.831999999999994 26.999999999999996
      vertex 0 19.831999999999994 27.599999999999994
      vertex -9.904 29.808000000000003 24.000000000000007
    endloop
  endfacet
  facet normal -0.05791770941679585 0.2874984934161735 0.9560283234399188
    outer loop
      vertex 0 19.831999999999994 27.599999999999994
      vertex 0 29.808000000000003 24.6
      vertex -9.904 29.808000000000003 24.000000000000007
    endloop
  endfacet
  facet normal 0.05791770941679617 0.2874984934161735 0.9560283234399188
    outer loop
      vertex 0 19.831999999999994 27.599999999999994
      vertex 9.904 19.831999999999994 26.999999999999996
      vertex 0 29.808000000000003 24.6
    endloop
  endfacet
  facet normal 0.057917709416795825 0.2874984934161732 0.956028323439919
    outer loop
      vertex 9.904 19.831999999999994 26.999999999999996
      vertex 9.904 29.808000000000003 24.000000000000007
      vertex 0 29.808000000000003 24.6
    endloop
  endfacet
  facet normal 0.1710652712777243 0.2837369709377902 0.9435200073584694
    outer loop
      vertex 9.904 19.831999999999994 26.999999999999996
      vertex 19.831999999999994 19.831999999999994 25.199999999999996
      vertex 9.904 29.808000000000003 24.000000000000007
    endloop
  endfacet
  facet normal 0.17106527127772458 0.28373697093779054 0.9435200073584693
    outer loop
      vertex 19.831999999999994 19.831999999999994 25.199999999999996
      vertex 19.831999999999994 29.808000000000003 22.200000000000003
      vertex 9.904 29.808000000000003 24.000000000000007
    endloop
  endfacet
  facet normal 0.27673513324763127 0.27673513324763066 0.9202365630927908
    outer loop
      vertex 19.831999999999994 19.831999999999994 25.199999999999996
      vertex 29.808000000000003 19.831999999999994 22.199999999999996
      vertex 19.831999999999994 29.808000000000003 22.200000000000003
    endloop
  endfacet
  facet normal 0.27673513324763105 0.2767351332476304 0.920236563092791
    outer loop
      vertex 29.808000000000003 19.831999999999994 22.199999999999996
      vertex 29.808000000000003 29.808000000000003 19.200000000000006
      vertex 19.831999999999994 29.808000000000003 22.200000000000003
    endloop
  endfacet
  facet normal 0.371619308111165 0.2673581458286296 0.8890549542621402
    outer loop
      vertex 29.808000000000003 19.831999999999994 22.199999999999996
      vertex 39.856 19.831999999999994 18
      vertex 29.808000000000003 29.808000000000003 19.200000000000006
    endloop
  endfacet
  facet normal 0.3716193081111656 0.26735814582863027 0.8890549542621398
    outer loop
      vertex 39.856 19.831999999999994 18
      vertex 39.856 29.808000000000003 15.000000000000002
      vertex 29.808000000000003 29.808000000000003 19.200000000000006
    endloop
  endfacet
  facet normal 0.4541722927840763 0.25656707976931636 0.8531710625929014
    outer loop
      vertex 39.856 19.831999999999994 18
      vertex 50 19.831999999999994 12.599999999999998
      vertex 39.856 29.808000000000003 15.000000000000002
    endloop
  endfacet
  facet normal 0.4541722927840762 0.25656707976931625 0.8531710625929015
    outer loop
      vertex 50 19.831999999999994 12.599999999999998
      vertex 50 29.808000000000003 9.600000000000001
      vertex 39.856 29.808000000000003 15.000000000000002
    endloop
  endfacet
  facet normal -0.4639968928428952 0.15803063661691982 0.8716267557404316
    outer loop
      vertex -50 9.904 14.4
      vertex -39.856 9.904 19.799999999999997
      vertex -50 19.831999999999994 12.599999999999998
    endloop
  endfacet
  facet normal -0.4639968928428956 0.15803063661691935 0.8716267557404315
    outer loop
      vertex -39.856 9.904 19.799999999999997
      vertex -39.856 19.831999999999994 18
      vertex -50 19.831999999999994 12.599999999999998
    endloop
  endfacet
  facet normal -0.3803731489798562 0.16498745543410806 0.9099974764165703
    outer loop
      vertex -39.856 9.904 19.799999999999997
      vertex -29.808000000000003 9.904 23.999999999999996
      vertex -39.856 19.831999999999994 18
    endloop
  endfacet
  facet normal -0.38037314897985586 0.1649874554341084 0.9099974764165703
    outer loop
      vertex -29.808000000000003 9.904 23.999999999999996
      vertex -29.808000000000003 19.831999999999994 22.199999999999996
      vertex -39.856 19.831999999999994 18
    endloop
  endfacet
  facet normal -0.2837369709377909 0.17106527127772428 0.9435200073584693
    outer loop
      vertex -29.808000000000003 9.904 23.999999999999996
      vertex -19.831999999999994 9.904 26.999999999999993
      vertex -29.808000000000003 19.831999999999994 22.199999999999996
    endloop
  endfacet
  facet normal -0.2837369709377905 0.1710652712777246 0.9435200073584693
    outer loop
      vertex -19.831999999999994 9.904 26.999999999999993
      vertex -19.831999999999994 19.831999999999994 25.19999999999999
      vertex -29.808000000000003 19.831999999999994 22.199999999999996
    endloop
  endfacet
  facet normal -0.1756242295513398 0.17562422955134013 0.9686651949920553
    outer loop
      vertex -19.831999999999994 9.904 26.999999999999993
      vertex -9.904 9.904 28.799999999999994
      vertex -19.831999999999994 19.831999999999994 25.19999999999999
    endloop
  endfacet
  facet normal -0.1756242295513405 0.17562422955133944 0.9686651949920553
    outer loop
      vertex -9.904 9.904 28.799999999999994
      vertex -9.904 19.831999999999994 26.999999999999996
      vertex -19.831999999999994 19.831999999999994 25.19999999999999
    endloop
  endfacet
  facet normal -0.059504144218283664 0.17808089575077043 0.9822150738964724
    outer loop
      vertex -9.904 9.904 28.799999999999994
      vertex 0 9.904 29.39999999999999
      vertex -9.904 19.831999999999994 26.999999999999996
    endloop
  endfacet
  facet normal -0.05950414421828368 0.17808089575077043 0.9822150738964724
    outer loop
      vertex 0 9.904 29.39999999999999
      vertex 0 19.831999999999994 27.599999999999994
      vertex -9.904 19.831999999999994 26.999999999999996
    endloop
  endfacet
  facet normal 0.059504144218283664 0.17808089575077043 0.9822150738964724
    outer loop
      vertex 0 9.904 29.39999999999999
      vertex 9.904 9.904 28.799999999999994
      vertex 0 19.831999999999994 27.599999999999994
    endloop
  endfacet
  facet normal 0.05950414421828368 0.17808089575077043 0.9822150738964724
    outer loop
      vertex 9.904 9.904 28.799999999999994
      vertex 9.904 19.831999999999994 26.999999999999996
      vertex 0 19.831999999999994 27.599999999999994
    endloop
  endfacet
  facet normal 0.17562422955133983 0.17562422955133947 0.9686651949920555
    outer loop
      vertex 9.904 9.904 28.799999999999994
      vertex 19.831999999999994 9.904 26.999999999999993
      vertex 9.904 19.831999999999994 26.999999999999996
    endloop
  endfacet
  facet normal 0.17562422955133983 0.17562422955133947 0.9686651949920555
    outer loop
      vertex 19.831999999999994 9.904 26.999999999999993
      vertex 19.831999999999994 19.831999999999994 25.199999999999996
      vertex 9.904 19.831999999999994 26.999999999999996
    endloop
  endfacet
  facet normal 0.28373697093779116 0.17106527127772392 0.9435200073584692
    outer loop
      vertex 19.831999999999994 9.904 26.999999999999993
      vertex 29.808000000000003 9.904 23.999999999999993
      vertex 19.831999999999994 19.831999999999994 25.199999999999996
    endloop
  endfacet
  facet normal 0.28373697093779116 0.17106527127772392 0.9435200073584692
    outer loop
      vertex 29.808000000000003 9.904 23.999999999999993
      vertex 29.808000000000003 19.831999999999994 22.199999999999996
      vertex 19.831999999999994 19.831999999999994 25.199999999999996
    endloop
  endfacet
  facet normal 0.3803731489798559 0.1649874554341081 0.9099974764165704
    outer loop
      vertex 29.808000000000003 9.904 23.999999999999993
      vertex 39.856 9.904 19.799999999999997
      vertex 29.808000000000003 19.831999999999994 22.199999999999996
    endloop
  endfacet
  facet normal 0.3803731489798559 0.1649874554341081 0.9099974764165704
    outer loop
      vertex 39.856 9.904 19.799999999999997
      vertex 39.856 19.831999999999994 18
      vertex 29.808000000000003 19.831999999999994 22.199999999999996
    endloop
  endfacet
  facet normal 0.4639968928428952 0.15803063661691938 0.8716267557404316
    outer loop
      vertex 39.856 9.904 19.799999999999997
      vertex 50 9.904 14.4
      vertex 39.856 19.831999999999994 18
    endloop
  endfacet
  facet normal 0.4639968928428955 0.1580306366169198 0.8716267557404314
    outer loop
      vertex 50 9.904 14.4
      vertex 50 19.831999999999994 12.599999999999998
      vertex 39.856 19.831999999999994 18
    endloop
  endfacet
  facet normal -0.4692311180065747 0.05340020262361659 0.8814593446404982
    outer loop
      vertex -50 0 15
      vertex -39.856 0 20.400000000000002
      vertex -50 9.904 14.4
    endloop
  endfacet
  facet normal -0.4692311180065743 0.05340020262361707 0.8814593446404985
    outer loop
      vertex -39.856 0 20.400000000000002
      vertex -39.856 9.904 19.799999999999997
      vertex -50 9.904 14.4
    endloop
  endfacet
  facet normal -0.38505729917475245 0.05580798150974995 0.9212037481209315
    outer loop
      vertex -39.856 0 20.400000000000002
      vertex -29.808000000000003 0 24.6
      vertex -39.856 9.904 19.799999999999997
    endloop
  endfacet
  facet normal -0.38505729917475245 0.05580798150974995 0.9212037481209315
    outer loop
      vertex -29.808000000000003 0 24.6
      vertex -29.808000000000003 9.904 23.999999999999996
      vertex -39.856 9.904 19.799999999999997
    endloop
  endfacet
  facet normal -0.2874984934161738 0.05791770941679685 0.9560283234399187
    outer loop
      vertex -29.808000000000003 0 24.6
      vertex -19.831999999999994 0 27.599999999999998
      vertex -29.808000000000003 9.904 23.999999999999996
    endloop
  endfacet
  facet normal -0.28749849341617384 0.05791770941679685 0.9560283234399187
    outer loop
      vertex -19.831999999999994 0 27.599999999999998
      vertex -19.831999999999994 9.904 26.999999999999993
      vertex -29.808000000000003 9.904 23.999999999999996
    endloop
  endfacet
  facet normal -0.1780808957507708 0.059504144218284365 0.9822150738964724
    outer loop
      vertex -19.831999999999994 0 27.599999999999998
      vertex -9.904 0 29.4
      vertex -19.831999999999994 9.904 26.999999999999993
    endloop
  endfacet
  facet normal -0.1780808957507708 0.059504144218284365 0.9822150738964724
    outer loop
      vertex -9.904 0 29.4
      vertex -9.904 9.904 28.799999999999994
      vertex -19.831999999999994 9.904 26.999999999999993
    endloop
  endfacet
  facet normal -0.060360457617368614 0.06036045761736896 0.9963499537373621
    outer loop
      vertex -9.904 0 29.4
      vertex 0 0 30
      vertex -9.904 9.904 28.799999999999994
    endloop
  endfacet
  facet normal -0.06036045761736824 0.06036045761736932 0.9963499537373621
    outer loop
      vertex 0 0 30
      vertex 0 9.904 29.39999999999999
      vertex -9.904 9.904 28.799999999999994
    endloop
  endfacet
  facet normal 0.060360457617368614 0.06036045761736932 0.9963499537373621
    outer loop
      vertex 0 0 30
      vertex 9.904 0 29.4
      vertex 0 9.904 29.39999999999999
    endloop
  endfacet
  facet normal 0.06036045761736825 0.06036045761736896 0.9963499537373621
    outer loop
      vertex 9.904 0 29.4
      vertex 9.904 9.904 28.799999999999994
      vertex 0 9.904 29.39999999999999
    endloop
  endfacet
  facet normal 0.17808089575077043 0.059504144218284365 0.9822150738964724
    outer loop
      vertex 9.904 0 29.4
      vertex 19.831999999999994 0 27.6
      vertex 9.904 9.904 28.799999999999994
    endloop
  endfacet
  facet normal 0.17808089575077074 0.05950414421828472 0.9822150738964724
    outer loop
      vertex 19.831999999999994 0 27.6
      vertex 19.831999999999994 9.904 26.999999999999993
      vertex 9.904 9.904 28.799999999999994
    endloop
  endfacet
  facet normal 0.28749849341617445 0.057917709416797185 0.9560283234399185
    outer loop
      vertex 19.831999999999994 0 27.6
      vertex 29.808000000000003 0 24.599999999999998
      vertex 19.831999999999994 9.904 26.999999999999993
    endloop
  endfacet
  facet normal 0.2874984934161741 0.057917709416796845 0.9560283234399185
    outer loop
      vertex 29.808000000000003 0 24.599999999999998
      vertex 29.808000000000003 9.904 23.999999999999993
      vertex 19.831999999999994 9.904 26.999999999999993
    endloop
  endfacet
  facet normal 0.3850572991747522 0.055807981509749964 0.9212037481209316
    outer loop
      vertex 29.808000000000003 0 24.599999999999998
      vertex 39.856 0 20.400000000000002
      vertex 29.808000000000003 9.904 23.999999999999993
    endloop
  endfacet
  facet normal 0.3850572991747522 0.055807981509749964 0.9212037481209316
    outer loop
      vertex 39.856 0 20.400000000000002
      vertex 39.856 9.904 19.799999999999997
      vertex 29.808000000000003 9.904 23.999999999999993
    endloop
  endfacet
  facet normal 0.4692311180065747 0.05340020262361706 0.8814593446404982
    outer loop
      vertex 39.856 0 20.400000000000002
      vertex 50 0 15
      vertex 39.856 9.904 19.799999999999997
    endloop
  endfacet
  facet normal 0.46923111800657435 0.053400202623616604 0.8814593446404985
    outer loop
      vertex 50 0 15
      vertex 50 9.904 14.4
      vertex 39.856 9.904 19.799999999999997
    endloop
  endfacet
  facet normal -0.4692311180065743 -0.053400202623616604 0.8814593446404985
    outer loop
      vertex -50 -9.904 14.4
      vertex -39.856 -9.904 19.799999999999997
      vertex -50 0 15
    endloop
  endfacet
  facet normal -0.4692311180065747 -0.05340020262361706 0.8814593446404982
    outer loop
      vertex -39.856 -9.904 19.799999999999997
      vertex -39.856 0 20.400000000000002
      vertex -50 0 15
    endloop
  endfacet
  facet normal -0.38505729917475245 -0.05580798150974995 0.9212037481209315
    outer loop
      vertex -39.856 -9.904 19.799999999999997
      vertex -29.808000000000003 -9.904 23.999999999999996
      vertex -39.856 0 20.400000000000002
    endloop
  endfacet
  facet normal -0.38505729917475245 -0.05580798150974995 0.9212037481209315
    outer loop
      vertex -29.808000000000003 -9.904 23.999999999999996
      vertex -29.808000000000003 0 24.6
      vertex -39.856 0 20.400000000000002
    endloop
  endfacet
  facet normal -0.2874984934161738 -0.05791770941679685 0.9560283234399187
    outer loop
      vertex -29.808000000000003 -9.904 23.999999999999996
      vertex -19.831999999999994 -9.904 26.999999999999993
      vertex -29.808000000000003 0 24.6
    endloop
  endfacet
  facet normal -0.2874984934161738 -0.05791770941679685 0.9560283234399187
    outer loop
      vertex -19.831999999999994 -9.904 26.999999999999993
      vertex -19.831999999999994 0 27.599999999999998
      vertex -29.808000000000003 0 24.6
    endloop
  endfacet
  facet normal -0.1780808957507708 -0.059504144218284365 0.9822150738964724
    outer loop
      vertex -19.831999999999994 -9.904 26.999999999999993
      vertex -9.904 -9.904 28.799999999999994
      vertex -19.831999999999994 0 27.599999999999998
    endloop
  endfacet
  facet normal -0.17808089575077074 -0.059504144218284365 0.9822150738964724
    outer loop
      vertex -9.904 -9.904 28.799999999999994
      vertex -9.904 0 29.4
      vertex -19.831999999999994 0 27.599999999999998
    endloop
  endfacet
  facet normal -0.06036045761736825 -0.06036045761736896 0.9963499537373621
    outer loop
      vertex -9.904 -9.904 28.799999999999994
      vertex 0 -9.904 29.39999999999999
      vertex -9.904 0 29.4
    endloop
  endfacet
  facet normal -0.060360457617368614 -0.06036045761736932 0.9963499537373621
    outer loop
      vertex 0 -9.904 29.39999999999999
      vertex 0 0 30
      vertex -9.904 0 29.4
    endloop
  endfacet
  facet normal 0.06036045761736825 -0.06036045761736932 0.9963499537373621
    outer loop
      vertex 0 -9.904 29.39999999999999
      vertex 9.904 -9.904 28.799999999999994
      vertex 0 0 30
    endloop
  endfacet
  facet normal 0.0603604576173686 -0.06036045761736896 0.9963499537373621
    outer loop
      vertex 9.904 -9.904 28.799999999999994
      vertex 9.904 0 29.4
      vertex 0 0 30
    endloop
  endfacet
  facet normal 0.1780808957507708 -0.059504144218284365 0.9822150738964724
    outer loop
      vertex 9.904 -9.904 28.799999999999994
      vertex 19.831999999999994 -9.904 26.999999999999993
      vertex 9.904 0 29.4
    endloop
  endfacet
  facet normal 0.17808089575077043 -0.05950414421828472 0.9822150738964724
    outer loop
      vertex 19.831999999999994 -9.904 26.999999999999993
      vertex 19.831999999999994 0 27.6
      vertex 9.904 0 29.4
    endloop
  endfacet
  facet normal 0.2874984934161741 -0.057917709416797185 0.9560283234399185
    outer loop
      vertex 19.831999999999994 -9.904 26.999999999999993
      vertex 29.808000000000003 -9.904 23.999999999999993
      vertex 19.831999999999994 0 27.6
    endloop
  endfacet
  facet normal 0.28749849341617445 -0.057917709416796845 0.9560283234399185
    outer loop
      vertex 29.808000000000003 -9.904 23.999999999999993
      vertex 29.808000000000003 0 24.599999999999998
      vertex 19.831999999999994 0 27.6
    endloop
  endfacet
  facet normal 0.3850572991747522 -0.055807981509749964 0.9212037481209316
    outer loop
      vertex 29.808000000000003 -9.904 23.999999999999993
      vertex 39.856 -9.904 19.799999999999997
      vertex 29.808000000000003 0 24.599999999999998
    endloop
  endfacet
  facet normal 0.3850572991747522 -0.055807981509749964 0.9212037481209316
    outer loop
      vertex 39.856 -9.904 19.799999999999997
      vertex 39.856 0 20.400000000000002
      vertex 29.808000000000003 0 24.599999999999998
    endloop
  endfacet
  facet normal 0.4692311180065743 -0.05340020262361707 0.8814593446404985
    outer loop
      vertex 39.856 -9.904 19.799999999999997
      vertex 50 -9.904 14.4
      vertex 39.856 0 20.400000000000002
    endloop
  endfacet
  facet normal 0.46923111800657463 -0.05340020262361659 0.8814593446404982
    outer loop
      vertex 50 -9.904 14.4
      vertex 50 0 15
      vertex 39.856 0 20.400000000000002
    endloop
  endfacet
  facet normal -0.4639968928428956 -0.1580306366169195 0.8716267557404314
    outer loop
      vertex -50 -19.831999999999994 12.600000000000001
      vertex -39.856 -19.831999999999994 18.000000000000004
      vertex -50 -9.904 14.4
    endloop
  endfacet
  facet normal -0.4639968928428952 -0.15803063661691907 0.8716267557404316
    outer loop
      vertex -39.856 -19.831999999999994 18.000000000000004
      vertex -39.856 -9.904 19.799999999999997
      vertex -50 -9.904 14.4
    endloop
  endfacet
  facet normal -0.3803731489798562 -0.16498745543410775 0.9099974764165703
    outer loop
      vertex -39.856 -19.831999999999994 18.000000000000004
      vertex -29.808000000000003 -19.831999999999994 22.200000000000003
      vertex -39.856 -9.904 19.799999999999997
    endloop
  endfacet
  facet normal -0.3803731489798562 -0.16498745543410775 0.9099974764165703
    outer loop
      vertex -29.808000000000003 -19.831999999999994 22.200000000000003
      vertex -29.808000000000003 -9.904 23.999999999999996
      vertex -39.856 -9.904 19.799999999999997
    endloop
  endfacet
  facet normal -0.28373697093779054 -0.1710652712777236 0.9435200073584694
    outer loop
      vertex -29.808000000000003 -19.831999999999994 22.200000000000003
      vertex -19.831999999999994 -19.831999999999994 25.199999999999996
      vertex -29.808000000000003 -9.904 23.999999999999996
    endloop
  endfacet
  facet normal -0.2837369709377909 -0.17106527127772395 0.9435200073584693
    outer loop
      vertex -19.831999999999994 -19.831999999999994 25.199999999999996
      vertex -19.831999999999994 -9.904 26.999999999999993
      vertex -29.808000000000003 -9.904 23.999999999999996
    endloop
  endfacet
  facet normal -0.17562422955134013 -0.17562422955133944 0.9686651949920553
    outer loop
      vertex -19.831999999999994 -19.831999999999994 25.199999999999996
      vertex -9.904 -19.831999999999994 27
      vertex -19.831999999999994 -9.904 26.999999999999993
    endloop
  endfacet
  facet normal -0.17562422955133983 -0.1756242295513391 0.9686651949920555
    outer loop
      vertex -9.904 -19.831999999999994 27
      vertex -9.904 -9.904 28.799999999999994
      vertex -19.831999999999994 -9.904 26.999999999999993
    endloop
  endfacet
  facet normal -0.05950414421828401 -0.17808089575077007 0.9822150738964724
    outer loop
      vertex -9.904 -19.831999999999994 27
      vertex 0 -19.831999999999994 27.6
      vertex -9.904 -9.904 28.799999999999994
    endloop
  endfacet
  facet normal -0.059504144218283664 -0.17808089575076974 0.9822150738964726
    outer loop
      vertex 0 -19.831999999999994 27.6
      vertex 0 -9.904 29.39999999999999
      vertex -9.904 -9.904 28.799999999999994
    endloop
  endfacet
  facet normal 0.05950414421828402 -0.17808089575076974 0.9822150738964726
    outer loop
      vertex 0 -19.831999999999994 27.6
      vertex 9.904 -19.831999999999994 27
      vertex 0 -9.904 29.39999999999999
    endloop
  endfacet
  facet normal 0.059504144218283685 -0.1780808957507701 0.9822150738964726
    outer loop
      vertex 9.904 -19.831999999999994 27
      vertex 9.904 -9.904 28.799999999999994
      vertex 0 -9.904 29.39999999999999
    endloop
  endfacet
  facet normal 0.1756242295513395 -0.17562422955133913 0.9686651949920556
    outer loop
      vertex 9.904 -19.831999999999994 27
      vertex 19.831999999999994 -19.831999999999994 25.200000000000003
      vertex 9.904 -9.904 28.799999999999994
    endloop
  endfacet
  facet normal 0.17562422955133983 -0.1756242295513388 0.9686651949920556
    outer loop
      vertex 19.831999999999994 -19.831999999999994 25.200000000000003
      vertex 19.831999999999994 -9.904 26.999999999999993
      vertex 9.904 -9.904 28.799999999999994
    endloop
  endfacet
  facet normal 0.2837369709377915 -0.17106527127772322 0.9435200073584692
    outer loop
      vertex 19.831999999999994 -19.831999999999994 25.200000000000003
      vertex 29.808000000000003 -19.831999999999994 22.2
      vertex 19.831999999999994 -9.904 26.999999999999993
    endloop
  endfacet
  facet normal 0.28373697093779116 -0.17106527127772359 0.9435200073584693
    outer loop
      vertex 29.808000000000003 -19.831999999999994 22.2
      vertex 29.808000000000003 -9.904 23.999999999999993
      vertex 19.831999999999994 -9.904 26.999999999999993
    endloop
  endfacet
  facet normal 0.3803731489798562 -0.16498745543410775 0.9099974764165703
    outer loop
      vertex 29.808000000000003 -19.831999999999994 22.2
      vertex 39.856 -19.831999999999994 18
      vertex 29.808000000000003 -9.904 23.999999999999993
    endloop
  endfacet
  facet normal 0.3803731489798559 -0.1649874554341081 0.9099974764165704
    outer loop
      vertex 39.856 -19.831999999999994 18
      vertex 39.856 -9.904 19.799999999999997
      vertex 29.808000000000003 -9.904 23.999999999999993
    endloop
  endfacet
  facet normal 0.4639968928428953 -0.15803063661691935 0.8716267557404315
    outer loop
      vertex 39.856 -19.831999999999994 18
      vertex 50 -19.831999999999994 12.600000000000001
      vertex 39.856 -9.904 19.799999999999997
    endloop
  endfacet
  facet normal 0.46399689284289525 -0.15803063661691952 0.8716267557404316
    outer loop
      vertex 50 -19.831999999999994 12.600000000000001
      vertex 50 -9.904 14.4
      vertex 39.856 -9.904 19.799999999999997
    endloop
  endfacet
  facet normal -0.4541722927840764 -0.25656707976931675 0.8531710625929012
    outer loop
      vertex -50 -29.808000000000003 9.599999999999998
      vertex -39.856 -29.80800000000001 15
      vertex -50 -19.831999999999994 12.600000000000001
    endloop
  endfacet
  facet normal -0.4541722927840763 -0.2565670797693166 0.8531710625929013
    outer loop
      vertex -39.856 -29.80800000000001 15
      vertex -39.856 -19.831999999999994 18.000000000000004
      vertex -50 -19.831999999999994 12.600000000000001
    endloop
  endfacet
  facet normal -0.3716193081111655 -0.2673581458286305 0.8890549542621397
    outer loop
      vertex -39.856 -29.80800000000001 15
      vertex -29.808000000000003 -29.808000000000003 19.200000000000006
      vertex -39.856 -19.831999999999994 18.000000000000004
    endloop
  endfacet
  facet normal -0.3716193081111652 -0.2673581458286301 0.8890549542621399
    outer loop
      vertex -29.808000000000003 -29.808000000000003 19.200000000000006
      vertex -29.808000000000003 -19.831999999999994 22.200000000000003
      vertex -39.856 -19.831999999999994 18.000000000000004
    endloop
  endfacet
  facet normal -0.27673513324763016 -0.27673513324763105 0.920236563092791
    outer loop
      vertex -29.808000000000003 -29.808000000000003 19.200000000000006
      vertex -19.831999999999994 -29.807999999999996 22.199999999999996
      vertex -29.808000000000003 -19.831999999999994 22.200000000000003
    endloop
  endfacet
  facet normal -0.2767351332476306 -0.2767351332476315 0.9202365630927908
    outer loop
      vertex -19.831999999999994 -29.807999999999996 22.199999999999996
      vertex -19.831999999999994 -19.831999999999994 25.199999999999996
      vertex -29.808000000000003 -19.831999999999994 22.200000000000003
    endloop
  endfacet
  facet normal -0.17106527127772508 -0.2837369709377913 0.943520007358469
    outer loop
      vertex -19.831999999999994 -29.807999999999996 22.199999999999996
      vertex -9.904 -29.808000000000003 24.000000000000004
      vertex -19.831999999999994 -19.831999999999994 25.199999999999996
    endloop
  endfacet
  facet normal -0.17106527127772456 -0.2837369709377908 0.9435200073584692
    outer loop
      vertex -9.904 -29.808000000000003 24.000000000000004
      vertex -9.904 -19.831999999999994 27
      vertex -19.831999999999994 -19.831999999999994 25.199999999999996
    endloop
  endfacet
  facet normal -0.057917709416796165 -0.2874984934161738 0.9560283234399187
    outer loop
      vertex -9.904 -29.808000000000003 24.000000000000004
      vertex 0 -29.808000000000003 24.6
      vertex -9.904 -19.831999999999994 27
    endloop
  endfacet
  facet normal -0.0579177094167965 -0.2874984934161742 0.9560283234399187
    outer loop
      vertex 0 -29.808000000000003 24.6
      vertex 0 -19.831999999999994 27.6
      vertex -9.904 -19.831999999999994 27
    endloop
  endfacet
  facet normal 0.057917709416796165 -0.2874984934161742 0.9560283234399187
    outer loop
      vertex 0 -29.808000000000003 24.6
      vertex 9.904 -29.808000000000003 24.000000000000004
      vertex 0 -19.831999999999994 27.6
    endloop
  endfacet
  facet normal 0.05791770941679653 -0.2874984934161738 0.9560283234399187
    outer loop
      vertex 9.904 -29.808000000000003 24.000000000000004
      vertex 9.904 -19.831999999999994 27
      vertex 0 -19.831999999999994 27.6
    endloop
  endfacet
  facet normal 0.17106527127772428 -0.2837369709377909 0.9435200073584693
    outer loop
      vertex 9.904 -29.808000000000003 24.000000000000004
      vertex 19.831999999999994 -29.808000000000003 22.200000000000003
      vertex 9.904 -19.831999999999994 27
    endloop
  endfacet
  facet normal 0.17106527127772392 -0.28373697093779116 0.9435200073584692
    outer loop
      vertex 19.831999999999994 -29.808000000000003 22.200000000000003
      vertex 19.831999999999994 -19.831999999999994 25.200000000000003
      vertex 9.904 -19.831999999999994 27
    endloop
  endfacet
  facet normal 0.2767351332476319 -0.2767351332476312 0.9202365630927906
    outer loop
      vertex 19.831999999999994 -29.808000000000003 22.200000000000003
      vertex 29.808000000000003 -29.808000000000003 19.199999999999996
      vertex 19.831999999999994 -19.831999999999994 25.200000000000003
    endloop
  endfacet
  facet normal 0.27673513324763155 -0.27673513324763155 0.9202365630927906
    outer loop
      vertex 29.808000000000003 -29.808000000000003 19.199999999999996
      vertex 29.808000000000003 -19.831999999999994 22.2
      vertex 19.831999999999994 -19.831999999999994 25.200000000000003
    endloop
  endfacet
  facet normal 0.37161930811116517 -0.2673581458286307 0.8890549542621398
    outer loop
      vertex 29.808000000000003 -29.808000000000003 19.199999999999996
      vertex 39.856 -29.808000000000003 14.999999999999996
      vertex 29.808000000000003 -19.831999999999994 22.2
    endloop
  endfacet
  facet normal 0.37161930811116517 -0.2673581458286307 0.8890549542621398
    outer loop
      vertex 39.856 -29.808000000000003 14.999999999999996
      vertex 39.856 -19.831999999999994 18
      vertex 29.808000000000003 -19.831999999999994 22.2
    endloop
  endfacet
  facet normal 0.454172292784076 -0.2565670797693168 0.8531710625929014
    outer loop
      vertex 39.856 -29.808000000000003 14.999999999999996
      vertex 50 -29.808000000000003 9.599999999999998
      vertex 39.856 -19.831999999999994 18
    endloop
  endfacet
  facet normal 0.45417229278407595 -0.2565670797693168 0.8531710625929014
    outer loop
      vertex 50 -29.808000000000003 9.599999999999998
      vertex 50 -19.831999999999994 12.600000000000001
      vertex 39.856 -19.831999999999994 18
    endloop
  endfacet
  facet normal -0.440850235264451 -0.3461594734790575 0.8281453308375166
    outer loop
      vertex -50 -39.856 5.399999999999999
      vertex -39.856 -39.856 10.799999999999999
      vertex -50 -29.808000000000003 9.599999999999998
    endloop
  endfacet
  facet normal -0.4408502352644513 -0.3461594734790578 0.8281453308375163
    outer loop
      vertex -39.856 -39.856 10.799999999999999
      vertex -39.856 -29.80800000000001 15
      vertex -50 -29.808000000000003 9.599999999999998
    endloop
  endfacet
  facet normal -0.3598266294174207 -0.35982662941742105 0.8608423743776767
    outer loop
      vertex -39.856 -39.856 10.799999999999999
      vertex -29.808000000000003 -39.856 15
      vertex -39.856 -29.80800000000001 15
    endloop
  endfacet
  facet normal -0.35982662941742094 -0.35982662941742116 0.8608423743776766
    outer loop
      vertex -29.808000000000003 -39.856 15
      vertex -29.808000000000003 -29.808000000000003 19.200000000000006
      vertex -39.856 -29.80800000000001 15
    endloop
  endfacet
  facet normal -0.2673581458286301 -0.3716193081111658 0.8890549542621398
    outer loop
      vertex -29.808000000000003 -39.856 15
      vertex -19.831999999999994 -39.856 17.999999999999996
      vertex -29.808000000000003 -29.808000000000003 19.200000000000006
    endloop
  endfacet
  facet normal -0.2673581458286293 -0.3716193081111651 0.8890549542621403
    outer loop
      vertex -19.831999999999994 -39.856 17.999999999999996
      vertex -19.831999999999994 -29.807999999999996 22.199999999999996
      vertex -29.808000000000003 -29.808000000000003 19.200000000000006
    endloop
  endfacet
  facet normal -0.1649874554341087 -0.3803731489798559 0.9099974764165703
    outer loop
      vertex -19.831999999999994 -39.856 17.999999999999996
      vertex -9.904 -39.856 19.8
      vertex -19.831999999999994 -29.807999999999996 22.199999999999996
    endloop
  endfacet
  facet normal -0.16498745543410925 -0.38037314897985636 0.9099974764165699
    outer loop
      vertex -9.904 -39.856 19.8
      vertex -9.904 -29.808000000000003 24.000000000000004
      vertex -19.831999999999994 -29.807999999999996 22.199999999999996
    endloop
  endfacet
  facet normal -0.05580798150974928 -0.38505729917475273 0.9212037481209314
    outer loop
      vertex -9.904 -39.856 19.8
      vertex 0 -39.856 20.4
      vertex -9.904 -29.808000000000003 24.000000000000004
    endloop
  endfacet
  facet normal -0.05580798150974927 -0.3850572991747528 0.9212037481209315
    outer loop
      vertex 0 -39.856 20.4
      vertex 0 -29.808000000000003 24.6
      vertex -9.904 -29.808000000000003 24.000000000000004
    endloop
  endfacet
  facet normal 0.05580798150974928 -0.38505729917475273 0.9212037481209314
    outer loop
      vertex 0 -39.856 20.4
      vertex 9.904 -39.856 19.8
      vertex 0 -29.808000000000003 24.6
    endloop
  endfacet
  facet normal 0.05580798150974927 -0.3850572991747528 0.9212037481209315
    outer loop
      vertex 9.904 -39.856 19.8
      vertex 9.904 -29.808000000000003 24.000000000000004
      vertex 0 -29.808000000000003 24.6
    endloop
  endfacet
  facet normal 0.16498745543410837 -0.3803731489798564 0.90999747641657
    outer loop
      vertex 9.904 -39.856 19.8
      vertex 19.831999999999994 -39.856 18
      vertex 9.904 -29.808000000000003 24.000000000000004
    endloop
  endfacet
  facet normal 0.16498745543410837 -0.3803731489798564 0.90999747641657
    outer loop
      vertex 19.831999999999994 -39.856 18
      vertex 19.831999999999994 -29.808000000000003 22.200000000000003
      vertex 9.904 -29.808000000000003 24.000000000000004
    endloop
  endfacet
  facet normal 0.26735814582863066 -0.37161930811116545 0.8890549542621397
    outer loop
      vertex 19.831999999999994 -39.856 18
      vertex 29.808000000000003 -39.856 14.999999999999996
      vertex 19.831999999999994 -29.808000000000003 22.200000000000003
    endloop
  endfacet
  facet normal 0.267358145828631 -0.37161930811116517 0.8890549542621398
    outer loop
      vertex 29.808000000000003 -39.856 14.999999999999996
      vertex 29.808000000000003 -29.808000000000003 19.199999999999996
      vertex 19.831999999999994 -29.808000000000003 22.200000000000003
    endloop
  endfacet
  facet normal 0.35982662941742066 -0.35982662941742066 0.8608423743776769
    outer loop
      vertex 29.808000000000003 -39.856 14.999999999999996
      vertex 39.856 -39.856 10.799999999999997
      vertex 29.808000000000003 -29.808000000000003 19.199999999999996
    endloop
  endfacet
  facet normal 0.35982662941742066 -0.35982662941742066 0.8608423743776769
    outer loop
      vertex 39.856 -39.856 10.799999999999997
      vertex 39.856 -29.808000000000003 14.999999999999996
      vertex 29.808000000000003 -29.808000000000003 19.199999999999996
    endloop
  endfacet
  facet normal 0.44085023526445094 -0.34615947347905757 0.8281453308375167
    outer loop
      vertex 39.856 -39.856 10.799999999999997
      vertex 50 -39.856 5.399999999999999
      vertex 39.856 -29.808000000000003 14.999999999999996
    endloop
  endfacet
  facet normal 0.44085023526445094 -0.34615947347905757 0.8281453308375167
    outer loop
      vertex 50 -39.856 5.399999999999999
      vertex 50 -29.808000000000003 9.599999999999998
      vertex 39.856 -29.808000000000003 14.999999999999996
    endloop
  endfacet
  facet normal -0.42528817757925047 -0.42528817757925036 0.7989117172896141
    outer loop
      vertex -50 -50 0
      vertex -39.856 -50 5.4
      vertex -50 -39.856 5.399999999999999
    endloop
  endfacet
  facet normal -0.4252881775792505 -0.42528817757925036 0.7989117172896141
    outer loop
      vertex -39.856 -50 5.4
      vertex -39.856 -39.856 10.799999999999999
      vertex -50 -39.856 5.399999999999999
    endloop
  endfacet
  facet normal -0.3461594734790577 -0.4408502352644509 0.8281453308375166
    outer loop
      vertex -39.856 -50 5.4
      vertex -29.808000000000003 -50 9.600000000000001
      vertex -39.856 -39.856 10.799999999999999
    endloop
  endfacet
  facet normal -0.3461594734790577 -0.4408502352644509 0.8281453308375166
    outer loop
      vertex -29.808000000000003 -50 9.600000000000001
      vertex -29.808000000000003 -39.856 15
      vertex -39.856 -39.856 10.799999999999999
    endloop
  endfacet
  facet normal -0.25656707976931625 -0.45417229278407606 0.8531710625929015
    outer loop
      vertex -29.808000000000003 -50 9.600000000000001
      vertex -19.831999999999994 -50 12.599999999999998
      vertex -29.808000000000003 -39.856 15
    endloop
  endfacet
  facet normal -0.25656707976931625 -0.45417229278407606 0.8531710625929015
    outer loop
      vertex -19.831999999999994 -50 12.599999999999998
      vertex -19.831999999999994 -39.856 17.999999999999996
      vertex -29.808000000000003 -39.856 15
    endloop
  endfacet
  facet normal -0.15803063661691982 -0.4639968928428953 0.8716267557404315
    outer loop
      vertex -19.831999999999994 -50 12.599999999999998
      vertex -9.904 -50 14.4
      vertex -19.831999999999994 -39.856 17.999999999999996
    endloop
  endfacet
  facet normal -0.1580306366169199 -0.4639968928428954 0.8716267557404314
    outer loop
      vertex -9.904 -50 14.4
      vertex -9.904 -39.856 19.8
      vertex -19.831999999999994 -39.856 17.999999999999996
    endloop
  endfacet
  facet normal -0.0534002026236166 -0.4692311180065746 0.8814593446404984
    outer loop
      vertex -9.904 -50 14.4
      vertex 0 -50 15
      vertex -9.904 -39.856 19.8
    endloop
  endfacet
  facet normal -0.05340020262361643 -0.46923111800657447 0.8814593446404985
    outer loop
      vertex 0 -50 15
      vertex 0 -39.856 20.4
      vertex -9.904 -39.856 19.8
    endloop
  endfacet
  facet normal 0.053400202623616604 -0.46923111800657447 0.8814593446404985
    outer loop
      vertex 0 -50 15
      vertex 9.904 -50 14.4
      vertex 0 -39.856 20.4
    endloop
  endfacet
  facet normal 0.05340020262361642 -0.4692311180065746 0.8814593446404984
    outer loop
      vertex 9.904 -50 14.4
      vertex 9.904 -39.856 19.8
      vertex 0 -39.856 20.4
    endloop
  endfacet
  facet normal 0.1580306366169195 -0.46399689284289547 0.8716267557404315
    outer loop
      vertex 9.904 -50 14.4
      vertex 19.831999999999994 -50 12.600000000000001
      vertex 9.904 -39.856 19.8
    endloop
  endfacet
  facet normal 0.15803063661691968 -0.4639968928428953 0.8716267557404315
    outer loop
      vertex 19.831999999999994 -50 12.600000000000001
      vertex 19.831999999999994 -39.856 18
      vertex 9.904 -39.856 19.8
    endloop
  endfacet
  facet normal 0.2565670797693168 -0.454172292784076 0.8531710625929014
    outer loop
      vertex 19.831999999999994 -50 12.600000000000001
      vertex 29.808000000000003 -50 9.599999999999998
      vertex 19.831999999999994 -39.856 18
    endloop
  endfacet
  facet normal 0.2565670797693168 -0.454172292784076 0.8531710625929014
    outer loop
      vertex 29.808000000000003 -50 9.599999999999998
      vertex 29.808000000000003 -39.856 14.999999999999996
      vertex 19.831999999999994 -39.856 18
    endloop
  endfacet
  facet normal 0.34615947347905757 -0.44085023526445094 0.8281453308375167
    outer loop
      vertex 29.808000000000003 -50 9.599999999999998
      vertex 39.856 -50 5.399999999999999
      vertex 29.808000000000003 -39.856 14.999999999999996
    endloop
  endfacet
  facet normal 0.34615947347905757 -0.44085023526445094 0.8281453308375167
    outer loop
      vertex 39.856 -50 5.399999999999999
      vertex 39.856 -39.856 10.799999999999997
      vertex 29.808000000000003 -39.856 14.999999999999996
    endloop
  endfacet
  facet normal 0.42528817757925036 -0.42528817757925036 0.7989117172896141
    outer loop
      vertex 39.856 -50 5.399999999999999
      vertex 50 -50 0
      vertex 39.856 -39.856 10.799999999999997
    endloop
  endfacet
  facet normal 0.42528817757925036 -0.42528817757925036 0.7989117172896141
    outer loop
      vertex 50 -50 0
      vertex 50 -39.856 5.399999999999999
      vertex 39.856 -39.856 10.799999999999997
    endloop
  endfacet
endsolid PythonSCAD_Model
